  0
SECTION
  2
HEADER
  9
$ANGBASE
  50
0.0
  9
$ANGDIR
  70
1
  9
$MEASUREMENT
  70
0
  9
$INSUNITS
  70
1
  0
ENDSEC
  0
SECTION
  2
TABLES
  0
TABLE
  2
LTYPE
  70
4
  0
LTYPE
  5
40F
  2
CONTINUOUS
  70
0
  3
Solid line
  72
65
  73
0
  40
0.0
  0
LTYPE
  5
410
  2
DASHDOT
 70
0
  3
Dash Dot ____ _ ____ _
 72
65
 73
4
 40
2.0
 49
1.25
 49
-0.25
 49
0.25
 49
-0.25
  0
LTYPE
  5
411
  2
DASHED
 70
0
  3
Dashed __ __ __ __ __
 72
65
 73
2
 40
0.75
 49
0.5
 49
-0.25
  0
LTYPE
  5
43B
  2
DOTTED
 70
0
  3
Dotted .  .  .  .
 72
65
 73
2
 40
0.2
 49
0.0
 49
-0.2
  0
ENDTAB
  0
TABLE
  2
STYLE
  70
4
  0
STYLE
  2
KICAD
  70
0
  40
0
  41
1
  42
1
  50
0
  71
0
  3
isocp.shx
  0
STYLE
  2
KICADB
  70
0
  40
0
  41
1
  42
1
  50
0
  71
0
  3
isocp.shx
  0
STYLE
  2
KICADI
  70
0
  40
0
  41
1
  42
1
  50
15
  71
0
  3
isocp.shx
  0
STYLE
  2
KICADBI
  70
0
  40
0
  41
1
  42
1
  50
15
  71
0
  3
isocp.shx
  0
ENDTAB
  0
TABLE
  2
LAYER
  70
2
  0
LAYER
  2
User.Drawings
  70
0
  62
9
  420
12763842
  6
CONTINUOUS
  0
LAYER
  2
Edge.Cuts
  70
0
  62
254
  420
13685453
  6
CONTINUOUS
  0
ENDTAB
  0
ENDSEC
  0
SECTION
  2
ENTITIES
0
LINE
8
Edge.Cuts
6
CONTINUOUS
10
6.4007680708661416
20
-0.7961386220472441
11
6.402187283464567
21
-0.7967264960629921
0
LINE
8
Edge.Cuts
6
CONTINUOUS
10
6.402187283464567
20
-0.7967264960629921
11
6.4032735039370081
21
-0.7978127165354331
0
LINE
8
Edge.Cuts
6
CONTINUOUS
10
6.4032735039370081
20
-0.7978127165354331
11
6.4038613779527553
21
-0.7992319291338582
0
LINE
8
Edge.Cuts
6
CONTINUOUS
10
6.4038613779527553
20
-0.7992319291338582
11
6.4039370078740152
21
-0.7999999999999999
0
LINE
8
Edge.Cuts
6
CONTINUOUS
10
6.4039370078740152
20
-0.7999999999999999
11
6.4039370078740152
21
-4.7000000000000002
0
LINE
8
Edge.Cuts
6
CONTINUOUS
10
6.4039370078740152
20
-4.7000000000000002
11
6.4038613779527553
21
-4.7007680708661415
0
LINE
8
Edge.Cuts
6
CONTINUOUS
10
6.4038613779527553
20
-4.7007680708661415
11
6.4032735039370081
21
-4.7021872834645668
0
LINE
8
Edge.Cuts
6
CONTINUOUS
10
6.4032735039370081
20
-4.7021872834645668
11
6.402187283464567
21
-4.7032735039370079
0
LINE
8
Edge.Cuts
6
CONTINUOUS
10
6.402187283464567
20
-4.7032735039370079
11
6.4007680708661416
21
-4.7038613779527561
0
LINE
8
Edge.Cuts
6
CONTINUOUS
10
6.4007680708661416
20
-4.7038613779527561
11
6.3999999999999995
21
-4.7039370078740159
0
LINE
8
Edge.Cuts
6
CONTINUOUS
10
6.3999999999999995
20
-4.7039370078740159
11
0.5
21
-4.7039370078740159
0
LINE
8
Edge.Cuts
6
CONTINUOUS
10
0.5
20
-4.7039370078740159
11
0.4992319291338583
21
-4.7038613779527561
0
LINE
8
Edge.Cuts
6
CONTINUOUS
10
0.4992319291338583
20
-4.7038613779527561
11
0.4978127165354331
21
-4.7032735039370079
0
LINE
8
Edge.Cuts
6
CONTINUOUS
10
0.4978127165354331
20
-4.7032735039370079
11
0.4967264960629921
21
-4.7021872834645668
0
LINE
8
Edge.Cuts
6
CONTINUOUS
10
0.4967264960629921
20
-4.7021872834645668
11
0.4961386220472441
21
-4.7007680708661415
0
LINE
8
Edge.Cuts
6
CONTINUOUS
10
0.4961386220472441
20
-4.7007680708661415
11
0.4960629921259843
21
-4.7000000000000002
0
LINE
8
Edge.Cuts
6
CONTINUOUS
10
0.4960629921259843
20
-4.7000000000000002
11
0.4960629921259843
21
-0.7999999999999999
0
LINE
8
Edge.Cuts
6
CONTINUOUS
10
0.4960629921259843
20
-0.7999999999999999
11
0.4961386220472441
21
-0.7992319291338582
0
LINE
8
Edge.Cuts
6
CONTINUOUS
10
0.4961386220472441
20
-0.7992319291338582
11
0.4967264960629921
21
-0.7978127165354331
0
LINE
8
Edge.Cuts
6
CONTINUOUS
10
0.4967264960629921
20
-0.7978127165354331
11
0.4978127165354331
21
-0.7967264960629921
0
LINE
8
Edge.Cuts
6
CONTINUOUS
10
0.4978127165354331
20
-0.7967264960629921
11
0.4992319291338583
21
-0.7961386220472441
0
LINE
8
Edge.Cuts
6
CONTINUOUS
10
0.4992319291338583
20
-0.7961386220472441
11
0.5
21
-0.7960629921259842
0
LINE
8
Edge.Cuts
6
CONTINUOUS
10
0.5
20
-0.7960629921259842
11
6.3999999999999995
21
-0.7960629921259842
0
LINE
8
Edge.Cuts
6
CONTINUOUS
10
6.3999999999999995
20
-0.7960629921259842
11
6.4007680708661416
21
-0.7961386220472441
0
LINE
8
Edge.Cuts
6
CONTINUOUS
10
0.5039370078740157
20
-0.8039370078740157
11
0.5039370078740157
21
-4.6960629921259844
0
LINE
8
Edge.Cuts
6
CONTINUOUS
10
0.5039370078740157
20
-4.6960629921259844
11
6.3960629921259837
21
-4.6960629921259844
0
LINE
8
Edge.Cuts
6
CONTINUOUS
10
6.3960629921259837
20
-4.6960629921259844
11
6.3960629921259837
21
-0.8039370078740157
0
LINE
8
Edge.Cuts
6
CONTINUOUS
10
6.3960629921259837
20
-0.8039370078740157
11
0.5039370078740157
21
-0.8039370078740157
  0
ENDSEC
  0
EOF
