%TF.GenerationSoftware,KiCad,Pcbnew,10.0.5*%
%TF.CreationDate,2026-08-11T23:29:42+02:00*%
%TF.ProjectId,Toggle65,546f6767-6c65-4363-952e-6b696361645f,rev?*%
%TF.SameCoordinates,Original*%
%TF.FileFunction,OtherDrawing,Comment*%
%FSLAX46Y46*%
G04 Gerber Fmt 4.6, Leading zero omitted, Abs format (unit mm)*
G04 Created by KiCad (PCBNEW 10.0.5) date 2026-08-11 23:29:42*
%MOMM*%
%LPD*%
G01*
G04 APERTURE LIST*
%ADD10C,0.250000*%
G04 APERTURE END LIST*
D10*
G36*
X38668266Y-113448390D02*
G01*
X38825155Y-113496377D01*
X38959679Y-113573825D01*
X39075544Y-113682164D01*
X39168179Y-113812656D01*
X39237187Y-113961653D01*
X39282454Y-114132344D01*
X39302250Y-114328773D01*
X38954155Y-114328773D01*
X38921840Y-114177082D01*
X38865956Y-114046188D01*
X38786775Y-113932635D01*
X38685401Y-113842861D01*
X38570028Y-113790032D01*
X38435774Y-113771923D01*
X38310320Y-113788994D01*
X38200168Y-113839245D01*
X38101037Y-113925385D01*
X38011256Y-114055221D01*
X37948023Y-114196464D01*
X37898065Y-114370471D01*
X37863834Y-114583284D01*
X37848663Y-114841683D01*
X38010675Y-114698842D01*
X38176022Y-114601690D01*
X38347152Y-114544755D01*
X38527585Y-114525730D01*
X38665182Y-114537289D01*
X38795572Y-114571614D01*
X38920645Y-114629167D01*
X39033180Y-114707729D01*
X39130721Y-114808019D01*
X39214200Y-114932639D01*
X39274350Y-115070096D01*
X39311955Y-115227998D01*
X39325160Y-115410329D01*
X39313473Y-115591859D01*
X39279406Y-115758629D01*
X39223775Y-115912810D01*
X39144757Y-116055075D01*
X39045984Y-116174567D01*
X38926287Y-116273727D01*
X38790113Y-116347113D01*
X38636253Y-116392129D01*
X38460565Y-116407768D01*
X38271797Y-116389852D01*
X38101934Y-116337580D01*
X37946971Y-116250988D01*
X37814034Y-116133278D01*
X37697248Y-115975347D01*
X37596995Y-115769366D01*
X37529549Y-115548975D01*
X37485698Y-115281930D01*
X37867641Y-115281930D01*
X37919933Y-115557776D01*
X37993176Y-115756525D01*
X38082118Y-115895501D01*
X38184912Y-115988117D01*
X38303524Y-116042735D01*
X38443468Y-116061554D01*
X38594454Y-116041432D01*
X38718509Y-115983786D01*
X38822166Y-115887335D01*
X38898330Y-115764415D01*
X38945334Y-115620575D01*
X38961849Y-115450507D01*
X38946719Y-115295335D01*
X38903847Y-115165528D01*
X38834647Y-115055908D01*
X38740256Y-114970686D01*
X38624192Y-114918954D01*
X38479713Y-114900667D01*
X38337264Y-114920933D01*
X38190602Y-114984633D01*
X38035171Y-115100424D01*
X37867641Y-115281930D01*
X37485698Y-115281930D01*
X37485645Y-115281605D01*
X37469794Y-114958797D01*
X37488874Y-114593378D01*
X37541773Y-114290882D01*
X37623229Y-114041541D01*
X37729839Y-113836892D01*
X37845167Y-113688950D01*
X37975709Y-113577210D01*
X38123173Y-113497579D01*
X38290915Y-113448589D01*
X38483646Y-113431522D01*
X38668266Y-113448390D01*
G37*
G36*
X41147529Y-114252178D02*
G01*
X41147529Y-113845782D01*
X40267718Y-113845782D01*
X40204630Y-114696016D01*
X40337690Y-114601948D01*
X40479126Y-114535644D01*
X40630923Y-114495607D01*
X40795673Y-114481962D01*
X40971574Y-114497015D01*
X41126799Y-114540431D01*
X41265157Y-114611215D01*
X41388118Y-114707079D01*
X41489626Y-114821340D01*
X41571193Y-114955891D01*
X41629637Y-115102653D01*
X41665206Y-115260462D01*
X41677365Y-115431529D01*
X41663420Y-115621127D01*
X41623168Y-115790371D01*
X41557857Y-115942558D01*
X41466338Y-116079486D01*
X41351994Y-116193391D01*
X41212498Y-116286208D01*
X41057769Y-116352436D01*
X40883698Y-116393478D01*
X40686594Y-116407768D01*
X40468207Y-116390604D01*
X40283780Y-116342145D01*
X40127289Y-116265088D01*
X39994166Y-116159519D01*
X39886529Y-116028494D01*
X39803304Y-115869475D01*
X39745145Y-115677195D01*
X39714972Y-115444865D01*
X40085976Y-115444865D01*
X40126098Y-115634789D01*
X40191176Y-115786090D01*
X40279173Y-115905971D01*
X40393148Y-115997892D01*
X40528162Y-116053535D01*
X40690526Y-116073009D01*
X40852484Y-116052919D01*
X40988772Y-115995119D01*
X41105471Y-115898790D01*
X41192845Y-115773937D01*
X41246979Y-115623067D01*
X41266182Y-115439052D01*
X41247410Y-115248076D01*
X41195874Y-115100056D01*
X41115045Y-114985297D01*
X41005649Y-114897372D01*
X40878714Y-114844607D01*
X40728824Y-114826295D01*
X40598739Y-114839849D01*
X40478376Y-114879990D01*
X40365000Y-114947792D01*
X40256795Y-115046697D01*
X40152997Y-115182255D01*
X40015268Y-115065058D01*
X39852773Y-114964268D01*
X39969375Y-113486233D01*
X41505369Y-113486233D01*
X41505369Y-114252178D01*
X41147529Y-114252178D01*
G37*
G36*
X43200254Y-113448206D02*
G01*
X43363250Y-113496226D01*
X43507436Y-113574531D01*
X43635952Y-113684755D01*
X43750376Y-113831079D01*
X43856683Y-114033125D01*
X43937508Y-114277026D01*
X43989761Y-114570517D01*
X44008541Y-114922551D01*
X43993668Y-115234885D01*
X43951950Y-115501028D01*
X43886981Y-115727307D01*
X43790388Y-115940212D01*
X43675476Y-116106937D01*
X43542819Y-116234746D01*
X43386668Y-116330123D01*
X43212063Y-116387856D01*
X43014009Y-116407768D01*
X42824448Y-116390914D01*
X42659164Y-116342490D01*
X42513561Y-116263695D01*
X42384374Y-116153010D01*
X42269947Y-116006330D01*
X42163282Y-115803124D01*
X42082482Y-115559778D01*
X42030432Y-115269050D01*
X42011782Y-114922551D01*
X42434420Y-114922551D01*
X42446184Y-115239260D01*
X42477558Y-115481897D01*
X42523404Y-115664095D01*
X42579745Y-115797918D01*
X42664309Y-115919882D01*
X42762882Y-116002601D01*
X42877729Y-116052078D01*
X43014009Y-116069247D01*
X43147383Y-116052407D01*
X43260580Y-116003737D01*
X43358502Y-115922155D01*
X43443314Y-115801679D01*
X43499531Y-115669860D01*
X43545730Y-115486293D01*
X43577624Y-115237254D01*
X43589665Y-114907164D01*
X43577180Y-114580049D01*
X43544188Y-114334744D01*
X43496502Y-114155154D01*
X43438527Y-114027182D01*
X43351981Y-113910602D01*
X43253537Y-113831531D01*
X43141077Y-113784411D01*
X43010076Y-113768162D01*
X42870142Y-113786472D01*
X42753920Y-113839078D01*
X42655642Y-113927154D01*
X42573077Y-114057785D01*
X42518390Y-114200251D01*
X42474678Y-114385555D01*
X42445282Y-114622899D01*
X42434420Y-114922551D01*
X42011782Y-114922551D01*
X42026647Y-114608810D01*
X42068317Y-114341723D01*
X42133171Y-114114889D01*
X42230148Y-113901591D01*
X42346342Y-113734204D01*
X42481266Y-113605570D01*
X42639948Y-113509460D01*
X42815931Y-113451461D01*
X43014009Y-113431522D01*
X43200254Y-113448206D01*
G37*
G36*
X46177124Y-114216445D02*
G01*
X46162854Y-114374695D01*
X46121518Y-114515222D01*
X46053684Y-114641477D01*
X45962562Y-114755036D01*
X45821482Y-114891414D01*
X45616685Y-115054882D01*
X45433234Y-115192684D01*
X45082062Y-115472220D01*
X44967101Y-115585703D01*
X44870743Y-115709526D01*
X44797037Y-115846544D01*
X44750380Y-116000517D01*
X45834842Y-116000517D01*
X45852110Y-115335444D01*
X46200205Y-115335444D01*
X46177124Y-116364000D01*
X44331503Y-116364000D01*
X44347724Y-116131498D01*
X44388956Y-115929060D01*
X44452892Y-115752440D01*
X44539350Y-115584307D01*
X44632873Y-115442659D01*
X44733112Y-115324502D01*
X44906841Y-115159582D01*
X45123265Y-114983759D01*
X45408272Y-114767482D01*
X45585292Y-114620564D01*
X45683705Y-114504188D01*
X45742228Y-114377286D01*
X45762180Y-114231320D01*
X45747023Y-114092343D01*
X45704734Y-113981878D01*
X45636859Y-113893483D01*
X45546384Y-113827821D01*
X45433450Y-113786690D01*
X45291671Y-113771923D01*
X45150665Y-113784279D01*
X45042432Y-113817882D01*
X44959734Y-113869664D01*
X44897585Y-113939645D01*
X44840814Y-114057466D01*
X44801634Y-114225726D01*
X44786625Y-114460249D01*
X44786625Y-114558556D01*
X44406046Y-114558556D01*
X44406046Y-114447084D01*
X44420657Y-114212929D01*
X44461360Y-114018513D01*
X44524659Y-113857303D01*
X44608817Y-113723881D01*
X44696596Y-113631615D01*
X44793162Y-113558353D01*
X44899466Y-113502646D01*
X45078074Y-113450472D01*
X45303126Y-113431522D01*
X45494343Y-113444931D01*
X45654487Y-113482525D01*
X45788852Y-113541627D01*
X45910076Y-113624309D01*
X46006380Y-113720037D01*
X46080526Y-113829711D01*
X46134074Y-113951440D01*
X46166236Y-114079743D01*
X46177124Y-114216445D01*
G37*
G36*
X53273266Y-113448390D02*
G01*
X53430155Y-113496377D01*
X53564679Y-113573825D01*
X53680544Y-113682164D01*
X53773179Y-113812656D01*
X53842187Y-113961653D01*
X53887454Y-114132344D01*
X53907250Y-114328773D01*
X53559155Y-114328773D01*
X53526840Y-114177082D01*
X53470956Y-114046188D01*
X53391775Y-113932635D01*
X53290401Y-113842861D01*
X53175028Y-113790032D01*
X53040774Y-113771923D01*
X52915320Y-113788994D01*
X52805168Y-113839245D01*
X52706037Y-113925385D01*
X52616256Y-114055221D01*
X52553023Y-114196464D01*
X52503065Y-114370471D01*
X52468834Y-114583284D01*
X52453663Y-114841683D01*
X52615675Y-114698842D01*
X52781022Y-114601690D01*
X52952152Y-114544755D01*
X53132585Y-114525730D01*
X53270182Y-114537289D01*
X53400572Y-114571614D01*
X53525645Y-114629167D01*
X53638180Y-114707729D01*
X53735721Y-114808019D01*
X53819200Y-114932639D01*
X53879350Y-115070096D01*
X53916955Y-115227998D01*
X53930160Y-115410329D01*
X53918473Y-115591859D01*
X53884406Y-115758629D01*
X53828775Y-115912810D01*
X53749757Y-116055075D01*
X53650984Y-116174567D01*
X53531287Y-116273727D01*
X53395113Y-116347113D01*
X53241253Y-116392129D01*
X53065565Y-116407768D01*
X52876797Y-116389852D01*
X52706934Y-116337580D01*
X52551971Y-116250988D01*
X52419034Y-116133278D01*
X52302248Y-115975347D01*
X52201995Y-115769366D01*
X52134549Y-115548975D01*
X52090698Y-115281930D01*
X52472641Y-115281930D01*
X52524933Y-115557776D01*
X52598176Y-115756525D01*
X52687118Y-115895501D01*
X52789912Y-115988117D01*
X52908524Y-116042735D01*
X53048468Y-116061554D01*
X53199454Y-116041432D01*
X53323509Y-115983786D01*
X53427166Y-115887335D01*
X53503330Y-115764415D01*
X53550334Y-115620575D01*
X53566849Y-115450507D01*
X53551719Y-115295335D01*
X53508847Y-115165528D01*
X53439647Y-115055908D01*
X53345256Y-114970686D01*
X53229192Y-114918954D01*
X53084713Y-114900667D01*
X52942264Y-114920933D01*
X52795602Y-114984633D01*
X52640171Y-115100424D01*
X52472641Y-115281930D01*
X52090698Y-115281930D01*
X52090645Y-115281605D01*
X52074794Y-114958797D01*
X52093874Y-114593378D01*
X52146773Y-114290882D01*
X52228229Y-114041541D01*
X52334839Y-113836892D01*
X52450167Y-113688950D01*
X52580709Y-113577210D01*
X52728173Y-113497579D01*
X52895915Y-113448589D01*
X53088646Y-113431522D01*
X53273266Y-113448390D01*
G37*
G36*
X55752529Y-114252178D02*
G01*
X55752529Y-113845782D01*
X54872718Y-113845782D01*
X54809630Y-114696016D01*
X54942690Y-114601948D01*
X55084126Y-114535644D01*
X55235923Y-114495607D01*
X55400673Y-114481962D01*
X55576574Y-114497015D01*
X55731799Y-114540431D01*
X55870157Y-114611215D01*
X55993118Y-114707079D01*
X56094626Y-114821340D01*
X56176193Y-114955891D01*
X56234637Y-115102653D01*
X56270206Y-115260462D01*
X56282365Y-115431529D01*
X56268420Y-115621127D01*
X56228168Y-115790371D01*
X56162857Y-115942558D01*
X56071338Y-116079486D01*
X55956994Y-116193391D01*
X55817498Y-116286208D01*
X55662769Y-116352436D01*
X55488698Y-116393478D01*
X55291594Y-116407768D01*
X55073207Y-116390604D01*
X54888780Y-116342145D01*
X54732289Y-116265088D01*
X54599166Y-116159519D01*
X54491529Y-116028494D01*
X54408304Y-115869475D01*
X54350145Y-115677195D01*
X54319972Y-115444865D01*
X54690976Y-115444865D01*
X54731098Y-115634789D01*
X54796176Y-115786090D01*
X54884173Y-115905971D01*
X54998148Y-115997892D01*
X55133162Y-116053535D01*
X55295526Y-116073009D01*
X55457484Y-116052919D01*
X55593772Y-115995119D01*
X55710471Y-115898790D01*
X55797845Y-115773937D01*
X55851979Y-115623067D01*
X55871182Y-115439052D01*
X55852410Y-115248076D01*
X55800874Y-115100056D01*
X55720045Y-114985297D01*
X55610649Y-114897372D01*
X55483714Y-114844607D01*
X55333824Y-114826295D01*
X55203739Y-114839849D01*
X55083376Y-114879990D01*
X54970000Y-114947792D01*
X54861795Y-115046697D01*
X54757997Y-115182255D01*
X54620268Y-115065058D01*
X54457773Y-114964268D01*
X54574375Y-113486233D01*
X56110369Y-113486233D01*
X56110369Y-114252178D01*
X55752529Y-114252178D01*
G37*
G36*
X57805254Y-113448206D02*
G01*
X57968250Y-113496226D01*
X58112436Y-113574531D01*
X58240952Y-113684755D01*
X58355376Y-113831079D01*
X58461683Y-114033125D01*
X58542508Y-114277026D01*
X58594761Y-114570517D01*
X58613541Y-114922551D01*
X58598668Y-115234885D01*
X58556950Y-115501028D01*
X58491981Y-115727307D01*
X58395388Y-115940212D01*
X58280476Y-116106937D01*
X58147819Y-116234746D01*
X57991668Y-116330123D01*
X57817063Y-116387856D01*
X57619009Y-116407768D01*
X57429448Y-116390914D01*
X57264164Y-116342490D01*
X57118561Y-116263695D01*
X56989374Y-116153010D01*
X56874947Y-116006330D01*
X56768282Y-115803124D01*
X56687482Y-115559778D01*
X56635432Y-115269050D01*
X56616782Y-114922551D01*
X57039420Y-114922551D01*
X57051184Y-115239260D01*
X57082558Y-115481897D01*
X57128404Y-115664095D01*
X57184745Y-115797918D01*
X57269309Y-115919882D01*
X57367882Y-116002601D01*
X57482729Y-116052078D01*
X57619009Y-116069247D01*
X57752383Y-116052407D01*
X57865580Y-116003737D01*
X57963502Y-115922155D01*
X58048314Y-115801679D01*
X58104531Y-115669860D01*
X58150730Y-115486293D01*
X58182624Y-115237254D01*
X58194665Y-114907164D01*
X58182180Y-114580049D01*
X58149188Y-114334744D01*
X58101502Y-114155154D01*
X58043527Y-114027182D01*
X57956981Y-113910602D01*
X57858537Y-113831531D01*
X57746077Y-113784411D01*
X57615076Y-113768162D01*
X57475142Y-113786472D01*
X57358920Y-113839078D01*
X57260642Y-113927154D01*
X57178077Y-114057785D01*
X57123390Y-114200251D01*
X57079678Y-114385555D01*
X57050282Y-114622899D01*
X57039420Y-114922551D01*
X56616782Y-114922551D01*
X56631647Y-114608810D01*
X56673317Y-114341723D01*
X56738171Y-114114889D01*
X56835148Y-113901591D01*
X56951342Y-113734204D01*
X57086266Y-113605570D01*
X57244948Y-113509460D01*
X57420931Y-113451461D01*
X57619009Y-113431522D01*
X57805254Y-113448206D01*
G37*
G36*
X60782124Y-114216445D02*
G01*
X60767854Y-114374695D01*
X60726518Y-114515222D01*
X60658684Y-114641477D01*
X60567562Y-114755036D01*
X60426482Y-114891414D01*
X60221685Y-115054882D01*
X60038234Y-115192684D01*
X59687062Y-115472220D01*
X59572101Y-115585703D01*
X59475743Y-115709526D01*
X59402037Y-115846544D01*
X59355380Y-116000517D01*
X60439842Y-116000517D01*
X60457110Y-115335444D01*
X60805205Y-115335444D01*
X60782124Y-116364000D01*
X58936503Y-116364000D01*
X58952724Y-116131498D01*
X58993956Y-115929060D01*
X59057892Y-115752440D01*
X59144350Y-115584307D01*
X59237873Y-115442659D01*
X59338112Y-115324502D01*
X59511841Y-115159582D01*
X59728265Y-114983759D01*
X60013272Y-114767482D01*
X60190292Y-114620564D01*
X60288705Y-114504188D01*
X60347228Y-114377286D01*
X60367180Y-114231320D01*
X60352023Y-114092343D01*
X60309734Y-113981878D01*
X60241859Y-113893483D01*
X60151384Y-113827821D01*
X60038450Y-113786690D01*
X59896671Y-113771923D01*
X59755665Y-113784279D01*
X59647432Y-113817882D01*
X59564734Y-113869664D01*
X59502585Y-113939645D01*
X59445814Y-114057466D01*
X59406634Y-114225726D01*
X59391625Y-114460249D01*
X59391625Y-114558556D01*
X59011046Y-114558556D01*
X59011046Y-114447084D01*
X59025657Y-114212929D01*
X59066360Y-114018513D01*
X59129659Y-113857303D01*
X59213817Y-113723881D01*
X59301596Y-113631615D01*
X59398162Y-113558353D01*
X59504466Y-113502646D01*
X59683074Y-113450472D01*
X59908126Y-113431522D01*
X60099343Y-113444931D01*
X60259487Y-113482525D01*
X60393852Y-113541627D01*
X60515076Y-113624309D01*
X60611380Y-113720037D01*
X60685526Y-113829711D01*
X60739074Y-113951440D01*
X60771236Y-114079743D01*
X60782124Y-114216445D01*
G37*
G36*
X63660329Y-113500577D02*
G01*
X63882232Y-113538998D01*
X64050015Y-113595783D01*
X64174682Y-113667119D01*
X64279496Y-113766581D01*
X64355728Y-113890890D01*
X64404126Y-114045406D01*
X64421563Y-114237988D01*
X64403242Y-114416226D01*
X64350690Y-114568935D01*
X64264612Y-114701487D01*
X64149585Y-114810914D01*
X64005447Y-114896966D01*
X63826587Y-114959310D01*
X64335394Y-116004450D01*
X64687421Y-116004450D01*
X64687421Y-116364000D01*
X64040812Y-116364000D01*
X63403949Y-115018466D01*
X63000289Y-115018466D01*
X63000289Y-116004450D01*
X63367533Y-116004450D01*
X63367533Y-116364000D01*
X62173991Y-116364000D01*
X62173991Y-116004450D01*
X62564316Y-116004450D01*
X62564316Y-114657035D01*
X63000289Y-114657035D01*
X63419166Y-114657035D01*
X63605350Y-114644126D01*
X63740302Y-114610195D01*
X63836161Y-114560437D01*
X63908522Y-114485625D01*
X63954817Y-114379434D01*
X63972083Y-114230636D01*
X63956566Y-114104095D01*
X63913984Y-114009405D01*
X63845736Y-113938619D01*
X63756214Y-113891062D01*
X63627267Y-113858337D01*
X63446008Y-113845782D01*
X63000289Y-113845782D01*
X63000289Y-114657035D01*
X62564316Y-114657035D01*
X62564316Y-113845782D01*
X62173991Y-113845782D01*
X62173991Y-113486233D01*
X63371465Y-113486233D01*
X63660329Y-113500577D01*
G37*
G36*
X65378995Y-113845782D02*
G01*
X65916353Y-115739446D01*
X66448070Y-113845782D01*
X66103907Y-113845782D01*
X66103907Y-113486233D01*
X67427386Y-113486233D01*
X67427386Y-113845782D01*
X67086985Y-113845782D01*
X67612889Y-115739446D01*
X68152299Y-113845782D01*
X67811898Y-113845782D01*
X67811898Y-113486233D01*
X68869689Y-113486233D01*
X68869689Y-113845782D01*
X68536810Y-113845782D01*
X67808136Y-116396826D01*
X67400715Y-116396826D01*
X66750345Y-114103776D01*
X66103907Y-116396826D01*
X65700247Y-116396826D01*
X64963879Y-113845782D01*
X64623307Y-113845782D01*
X64623307Y-113486233D01*
X65725038Y-113486233D01*
X65725038Y-113845782D01*
X65378995Y-113845782D01*
G37*
G36*
X73060551Y-113845782D02*
G01*
X73060551Y-116004450D01*
X73374110Y-116004450D01*
X73374110Y-116364000D01*
X72312557Y-116364000D01*
X72312557Y-116004450D01*
X72624406Y-116004450D01*
X72624406Y-113845782D01*
X72312557Y-113845782D01*
X72312557Y-113486233D01*
X73374110Y-113486233D01*
X73374110Y-113845782D01*
X73060551Y-113845782D01*
G37*
G36*
X75565945Y-115012824D02*
G01*
X75565945Y-116011972D01*
X75902585Y-116011972D01*
X75902585Y-116364000D01*
X75170150Y-116364000D01*
X75170150Y-115037956D01*
X75154030Y-114863989D01*
X75115610Y-114766798D01*
X75073165Y-114722300D01*
X75015314Y-114694657D01*
X74936775Y-114684561D01*
X74812477Y-114698178D01*
X74674694Y-114741760D01*
X74519712Y-114821157D01*
X74343852Y-114944265D01*
X74343852Y-116011972D01*
X74689895Y-116011972D01*
X74689895Y-116364000D01*
X73599790Y-116364000D01*
X73599790Y-116011972D01*
X73953527Y-116011972D01*
X73953527Y-114704565D01*
X73599790Y-114704565D01*
X73599790Y-114350657D01*
X74343852Y-114350657D01*
X74343852Y-114598221D01*
X74538683Y-114473074D01*
X74717369Y-114390291D01*
X74882841Y-114343664D01*
X75038161Y-114328773D01*
X75171520Y-114340506D01*
X75279234Y-114373126D01*
X75366476Y-114424503D01*
X75436863Y-114494956D01*
X75503488Y-114613317D01*
X75548732Y-114780712D01*
X75565945Y-115012824D01*
G37*
G36*
X77345401Y-114440758D02*
G01*
X77345401Y-114350657D01*
X77689734Y-114350657D01*
X77689734Y-115018124D01*
X77345401Y-115018124D01*
X77345401Y-114897419D01*
X77249944Y-114789576D01*
X77141707Y-114714832D01*
X77018149Y-114669628D01*
X76874891Y-114653958D01*
X76728163Y-114672262D01*
X76618607Y-114722517D01*
X76562095Y-114774106D01*
X76529939Y-114832192D01*
X76519103Y-114899471D01*
X76538185Y-114986663D01*
X76594672Y-115052147D01*
X76695292Y-115097572D01*
X76934218Y-115149600D01*
X77200076Y-115201062D01*
X77399796Y-115253833D01*
X77548679Y-115325103D01*
X77657143Y-115412164D01*
X77732592Y-115515155D01*
X77778687Y-115637079D01*
X77794881Y-115783385D01*
X77780994Y-115917145D01*
X77740863Y-116033724D01*
X77674634Y-116136828D01*
X77579630Y-116228762D01*
X77468781Y-116299498D01*
X77339100Y-116351885D01*
X77187155Y-116385064D01*
X77008761Y-116396826D01*
X76868540Y-116386589D01*
X76730422Y-116355793D01*
X76601061Y-116307994D01*
X76501835Y-116253553D01*
X76501835Y-116364000D01*
X76149979Y-116364000D01*
X76149979Y-115674648D01*
X76501835Y-115674648D01*
X76501835Y-115743378D01*
X76532256Y-115833099D01*
X76585189Y-115909974D01*
X76663401Y-115976240D01*
X76755534Y-116024443D01*
X76857718Y-116053816D01*
X76972344Y-116063947D01*
X77099953Y-116055318D01*
X77199472Y-116031907D01*
X77276500Y-115996414D01*
X77338415Y-115943654D01*
X77374763Y-115878061D01*
X77387459Y-115795353D01*
X77377570Y-115735526D01*
X77348984Y-115687879D01*
X77299410Y-115649345D01*
X77188302Y-115606108D01*
X76945673Y-115548986D01*
X76741022Y-115505046D01*
X76543773Y-115449964D01*
X76398896Y-115379103D01*
X76295303Y-115295095D01*
X76217576Y-115188315D01*
X76170276Y-115063350D01*
X76153740Y-114915029D01*
X76165816Y-114793842D01*
X76200642Y-114688297D01*
X76257861Y-114595144D01*
X76376056Y-114479430D01*
X76524745Y-114395622D01*
X76690154Y-114345401D01*
X76859504Y-114328773D01*
X77049437Y-114342330D01*
X77209731Y-114380488D01*
X77345401Y-114440758D01*
G37*
G36*
X79099895Y-114350657D02*
G01*
X79099895Y-114704565D01*
X78732651Y-114704565D01*
X78732651Y-115759621D01*
X78744004Y-115908992D01*
X78768042Y-115973162D01*
X78813171Y-116008497D01*
X78889431Y-116021889D01*
X78994005Y-116012905D01*
X79099895Y-115985472D01*
X79099895Y-116343312D01*
X78923781Y-116385237D01*
X78803433Y-116396826D01*
X78642523Y-116380606D01*
X78527155Y-116337449D01*
X78445593Y-116271505D01*
X78390218Y-116180509D01*
X78351687Y-116042954D01*
X78336685Y-115841686D01*
X78336685Y-114704565D01*
X78074759Y-114704565D01*
X78074759Y-114350657D01*
X78336685Y-114350657D01*
X78336685Y-114045646D01*
X78732651Y-113683190D01*
X78732651Y-114350657D01*
X79099895Y-114350657D01*
G37*
G36*
X80103831Y-115557363D02*
G01*
X80103831Y-116011972D01*
X80541856Y-116011972D01*
X80541856Y-116364000D01*
X79308136Y-116364000D01*
X79308136Y-116011972D01*
X79711796Y-116011972D01*
X79711796Y-114704565D01*
X79308136Y-114704565D01*
X79308136Y-114350657D01*
X80025526Y-114350657D01*
X80025526Y-114810395D01*
X80118412Y-114639746D01*
X80218244Y-114517719D01*
X80324895Y-114434945D01*
X80449056Y-114379809D01*
X80615764Y-114342680D01*
X80836437Y-114328773D01*
X80926367Y-114328773D01*
X80926367Y-114728501D01*
X80840198Y-114728501D01*
X80625460Y-114739957D01*
X80470637Y-114769808D01*
X80361995Y-114812618D01*
X80268760Y-114878615D01*
X80200384Y-114962325D01*
X80154438Y-115066679D01*
X80118515Y-115255573D01*
X80103831Y-115557363D01*
G37*
G36*
X81360973Y-116364000D02*
G01*
X81360973Y-115849722D01*
X81871660Y-115849722D01*
X81871660Y-116364000D01*
X81360973Y-116364000D01*
G37*
G36*
X92766658Y-113500577D02*
G01*
X92988562Y-113538998D01*
X93156345Y-113595783D01*
X93281011Y-113667119D01*
X93385825Y-113766581D01*
X93462058Y-113890890D01*
X93510455Y-114045406D01*
X93527892Y-114237988D01*
X93509571Y-114416226D01*
X93457019Y-114568935D01*
X93370942Y-114701487D01*
X93255914Y-114810914D01*
X93111777Y-114896966D01*
X92932916Y-114959310D01*
X93441723Y-116004450D01*
X93793750Y-116004450D01*
X93793750Y-116364000D01*
X93147142Y-116364000D01*
X92510279Y-115018466D01*
X92106618Y-115018466D01*
X92106618Y-116004450D01*
X92473862Y-116004450D01*
X92473862Y-116364000D01*
X91280321Y-116364000D01*
X91280321Y-116004450D01*
X91670645Y-116004450D01*
X91670645Y-114657035D01*
X92106618Y-114657035D01*
X92525495Y-114657035D01*
X92711679Y-114644126D01*
X92846632Y-114610195D01*
X92942491Y-114560437D01*
X93014852Y-114485625D01*
X93061147Y-114379434D01*
X93078412Y-114230636D01*
X93062896Y-114104095D01*
X93020314Y-114009405D01*
X92952065Y-113938619D01*
X92862544Y-113891062D01*
X92733596Y-113858337D01*
X92552337Y-113845782D01*
X92106618Y-113845782D01*
X92106618Y-114657035D01*
X91670645Y-114657035D01*
X91670645Y-113845782D01*
X91280321Y-113845782D01*
X91280321Y-113486233D01*
X92477794Y-113486233D01*
X92766658Y-113500577D01*
G37*
G36*
X94887958Y-116052492D02*
G01*
X95013368Y-116038646D01*
X95148946Y-115994804D01*
X95297985Y-115915709D01*
X95463614Y-115793986D01*
X95463614Y-114704565D01*
X95107997Y-114704565D01*
X95107997Y-114350657D01*
X95859581Y-114350657D01*
X95859581Y-116011972D01*
X96203914Y-116011972D01*
X96203914Y-116364000D01*
X95463614Y-116364000D01*
X95463614Y-116130796D01*
X95279508Y-116254278D01*
X95109717Y-116335985D01*
X94951463Y-116382072D01*
X94801789Y-116396826D01*
X94661275Y-116384840D01*
X94548164Y-116351605D01*
X94456968Y-116299489D01*
X94383768Y-116228420D01*
X94330542Y-116142536D01*
X94288303Y-116026274D01*
X94259727Y-115871680D01*
X94249043Y-115669348D01*
X94249043Y-114704565D01*
X93967969Y-114704565D01*
X93967969Y-114350657D01*
X94645010Y-114350657D01*
X94645010Y-115751927D01*
X94661144Y-115894259D01*
X94701430Y-115979830D01*
X94744334Y-116018427D01*
X94804502Y-116043244D01*
X94887958Y-116052492D01*
G37*
G36*
X98355401Y-115012824D02*
G01*
X98355401Y-116011972D01*
X98692041Y-116011972D01*
X98692041Y-116364000D01*
X97959605Y-116364000D01*
X97959605Y-115037956D01*
X97943486Y-114863989D01*
X97905066Y-114766798D01*
X97862621Y-114722300D01*
X97804769Y-114694657D01*
X97726231Y-114684561D01*
X97601932Y-114698178D01*
X97464150Y-114741760D01*
X97309168Y-114821157D01*
X97133307Y-114944265D01*
X97133307Y-116011972D01*
X97479351Y-116011972D01*
X97479351Y-116364000D01*
X96389246Y-116364000D01*
X96389246Y-116011972D01*
X96742983Y-116011972D01*
X96742983Y-114704565D01*
X96389246Y-114704565D01*
X96389246Y-114350657D01*
X97133307Y-114350657D01*
X97133307Y-114598221D01*
X97328139Y-114473074D01*
X97506824Y-114390291D01*
X97672297Y-114343664D01*
X97827616Y-114328773D01*
X97960976Y-114340506D01*
X98068690Y-114373126D01*
X98155932Y-114424503D01*
X98226318Y-114494956D01*
X98292943Y-114613317D01*
X98338188Y-114780712D01*
X98355401Y-115012824D01*
G37*
G36*
X109524722Y-113500577D02*
G01*
X109746626Y-113538998D01*
X109914409Y-113595783D01*
X110039075Y-113667119D01*
X110143889Y-113766581D01*
X110220122Y-113890890D01*
X110268519Y-114045406D01*
X110285956Y-114237988D01*
X110267635Y-114416226D01*
X110215083Y-114568935D01*
X110129006Y-114701487D01*
X110013978Y-114810914D01*
X109869841Y-114896966D01*
X109690980Y-114959310D01*
X110199787Y-116004450D01*
X110551814Y-116004450D01*
X110551814Y-116364000D01*
X109905206Y-116364000D01*
X109268343Y-115018466D01*
X108864682Y-115018466D01*
X108864682Y-116004450D01*
X109231926Y-116004450D01*
X109231926Y-116364000D01*
X108038385Y-116364000D01*
X108038385Y-116004450D01*
X108428709Y-116004450D01*
X108428709Y-114657035D01*
X108864682Y-114657035D01*
X109283559Y-114657035D01*
X109469743Y-114644126D01*
X109604696Y-114610195D01*
X109700555Y-114560437D01*
X109772916Y-114485625D01*
X109819211Y-114379434D01*
X109836476Y-114230636D01*
X109820960Y-114104095D01*
X109778378Y-114009405D01*
X109710129Y-113938619D01*
X109620608Y-113891062D01*
X109491660Y-113858337D01*
X109310401Y-113845782D01*
X108864682Y-113845782D01*
X108864682Y-114657035D01*
X108428709Y-114657035D01*
X108428709Y-113845782D01*
X108038385Y-113845782D01*
X108038385Y-113486233D01*
X109235858Y-113486233D01*
X109524722Y-113500577D01*
G37*
G36*
X111923735Y-114312408D02*
G01*
X112106851Y-114359751D01*
X112269550Y-114436484D01*
X112414771Y-114542545D01*
X112538336Y-114675313D01*
X112641581Y-114837921D01*
X112716468Y-115016550D01*
X112766283Y-115220606D01*
X112788957Y-115454439D01*
X111103876Y-115454439D01*
X111146670Y-115638512D01*
X111221389Y-115788549D01*
X111327676Y-115910929D01*
X111460765Y-116003295D01*
X111612029Y-116059028D01*
X111786731Y-116078309D01*
X111979563Y-116057496D01*
X112155855Y-115996072D01*
X112262095Y-115932185D01*
X112356782Y-115848642D01*
X112440862Y-115743378D01*
X112788957Y-115900329D01*
X112667057Y-116058220D01*
X112523950Y-116186562D01*
X112357599Y-116287747D01*
X112175881Y-116360097D01*
X111983218Y-116403844D01*
X111777156Y-116418710D01*
X111563817Y-116402923D01*
X111372445Y-116357250D01*
X111199449Y-116282960D01*
X111042730Y-116179858D01*
X110912517Y-116054296D01*
X110806389Y-115904432D01*
X110728985Y-115737550D01*
X110681962Y-115556273D01*
X110665851Y-115357328D01*
X110680793Y-115171313D01*
X111115331Y-115171313D01*
X112373842Y-115171313D01*
X112322000Y-115015302D01*
X112243849Y-114884456D01*
X112138587Y-114774833D01*
X112012042Y-114691290D01*
X111874908Y-114641727D01*
X111723472Y-114624893D01*
X111580045Y-114641669D01*
X111450627Y-114691115D01*
X111331438Y-114774833D01*
X111233879Y-114883793D01*
X111161923Y-115014532D01*
X111115331Y-115171313D01*
X110680793Y-115171313D01*
X110681729Y-115159659D01*
X110728113Y-114979088D01*
X110804508Y-114812447D01*
X110908789Y-114661698D01*
X111034687Y-114535817D01*
X111184061Y-114432722D01*
X111349360Y-114357069D01*
X111525716Y-114311458D01*
X111715949Y-114295946D01*
X111923735Y-114312408D01*
G37*
G36*
X114226893Y-114309772D02*
G01*
X114388183Y-114347451D01*
X114514308Y-114404831D01*
X114612010Y-114480081D01*
X114688501Y-114576876D01*
X114746585Y-114701340D01*
X114784610Y-114859985D01*
X114798538Y-115061037D01*
X114798538Y-116011972D01*
X115135178Y-116011972D01*
X115135178Y-116364000D01*
X114450443Y-116364000D01*
X114450443Y-116116435D01*
X114297675Y-116242725D01*
X114141870Y-116329076D01*
X113980832Y-116379848D01*
X113811528Y-116396826D01*
X113690115Y-116387085D01*
X113577519Y-116358452D01*
X113471982Y-116310999D01*
X113332942Y-116210242D01*
X113225272Y-116081215D01*
X113173836Y-115981746D01*
X113143047Y-115875833D01*
X113132606Y-115761501D01*
X113132622Y-115761330D01*
X113509424Y-115761330D01*
X113520764Y-115852351D01*
X113553629Y-115930342D01*
X113608758Y-115998466D01*
X113680063Y-116050049D01*
X113764335Y-116081594D01*
X113865213Y-116092670D01*
X114004436Y-116078372D01*
X114140136Y-116035150D01*
X114274788Y-115960787D01*
X114410265Y-115850919D01*
X114410265Y-115616690D01*
X114230539Y-115501767D01*
X114059847Y-115437462D01*
X113893936Y-115416826D01*
X113792953Y-115427992D01*
X113703592Y-115460557D01*
X113623119Y-115514963D01*
X113559506Y-115586560D01*
X113522184Y-115667561D01*
X113509424Y-115761330D01*
X113132622Y-115761330D01*
X113144231Y-115638762D01*
X113178269Y-115527315D01*
X113234846Y-115424690D01*
X113310427Y-115334288D01*
X113401939Y-115258558D01*
X113511305Y-115196787D01*
X113687657Y-115136231D01*
X113861281Y-115116602D01*
X114052532Y-115135539D01*
X114234414Y-115192133D01*
X114410265Y-115288256D01*
X114410265Y-115070441D01*
X114396960Y-114914974D01*
X114362194Y-114805891D01*
X114310761Y-114731065D01*
X114237515Y-114677847D01*
X114132224Y-114642321D01*
X113983695Y-114628825D01*
X113831749Y-114644677D01*
X113715101Y-114688152D01*
X113617769Y-114761375D01*
X113536267Y-114868012D01*
X113157568Y-114773637D01*
X113254917Y-114624232D01*
X113369856Y-114505668D01*
X113503611Y-114414429D01*
X113653345Y-114350171D01*
X113824754Y-114310027D01*
X114021992Y-114295946D01*
X114226893Y-114309772D01*
G37*
G36*
X117456267Y-116010263D02*
G01*
X117819749Y-116010263D01*
X117819749Y-116364000D01*
X117064232Y-116364000D01*
X117064232Y-116067367D01*
X116901909Y-116214397D01*
X116729739Y-116315856D01*
X116544878Y-116376309D01*
X116343081Y-116396826D01*
X116153231Y-116380988D01*
X115983245Y-116335066D01*
X115829487Y-116259879D01*
X115692020Y-116157649D01*
X115577156Y-116034229D01*
X115483273Y-115887506D01*
X115415309Y-115726503D01*
X115374077Y-115553712D01*
X115360003Y-115366561D01*
X115360907Y-115354935D01*
X115778880Y-115354935D01*
X115788553Y-115483069D01*
X115816751Y-115599937D01*
X115862997Y-115707475D01*
X115926624Y-115805615D01*
X116002875Y-115887513D01*
X116092610Y-115954697D01*
X116192750Y-116004531D01*
X116300476Y-116034563D01*
X116417795Y-116044799D01*
X116537253Y-116033744D01*
X116646790Y-116001267D01*
X116748622Y-115947175D01*
X116839554Y-115875033D01*
X116916440Y-115788668D01*
X116980115Y-115686616D01*
X117043129Y-115518218D01*
X117064232Y-115337667D01*
X117054655Y-115214679D01*
X117026554Y-115100939D01*
X116980115Y-114994701D01*
X116916466Y-114898044D01*
X116839041Y-114816769D01*
X116746741Y-114749530D01*
X116643995Y-114699844D01*
X116532484Y-114669734D01*
X116410101Y-114659429D01*
X116291934Y-114670442D01*
X116184601Y-114702678D01*
X116085771Y-114756198D01*
X115959006Y-114868088D01*
X115861117Y-115012995D01*
X115799494Y-115178264D01*
X115778880Y-115354935D01*
X115360907Y-115354935D01*
X115374840Y-115175769D01*
X115418525Y-114997844D01*
X115490967Y-114830228D01*
X115590137Y-114677178D01*
X115710434Y-114548005D01*
X115853423Y-114440587D01*
X116012778Y-114359920D01*
X116178891Y-114312043D01*
X116354536Y-114295946D01*
X116545110Y-114315653D01*
X116724686Y-114374422D01*
X116892698Y-114472229D01*
X117064232Y-114621473D01*
X117064232Y-113834327D01*
X116675960Y-113834327D01*
X116675960Y-113486233D01*
X117456267Y-113486233D01*
X117456267Y-116010263D01*
G37*
G36*
X126145621Y-113845782D02*
G01*
X126682980Y-115739446D01*
X127214697Y-113845782D01*
X126870534Y-113845782D01*
X126870534Y-113486233D01*
X128194013Y-113486233D01*
X128194013Y-113845782D01*
X127853612Y-113845782D01*
X128379515Y-115739446D01*
X128918926Y-113845782D01*
X128578524Y-113845782D01*
X128578524Y-113486233D01*
X129636316Y-113486233D01*
X129636316Y-113845782D01*
X129303437Y-113845782D01*
X128574763Y-116396826D01*
X128167342Y-116396826D01*
X127516972Y-114103776D01*
X126870534Y-116396826D01*
X126466874Y-116396826D01*
X125730506Y-113845782D01*
X125389934Y-113845782D01*
X125389934Y-113486233D01*
X126491665Y-113486233D01*
X126491665Y-113845782D01*
X126145621Y-113845782D01*
G37*
G36*
X130327206Y-115557363D02*
G01*
X130327206Y-116011972D01*
X130765231Y-116011972D01*
X130765231Y-116364000D01*
X129531511Y-116364000D01*
X129531511Y-116011972D01*
X129935171Y-116011972D01*
X129935171Y-114704565D01*
X129531511Y-114704565D01*
X129531511Y-114350657D01*
X130248901Y-114350657D01*
X130248901Y-114810395D01*
X130341787Y-114639746D01*
X130441619Y-114517719D01*
X130548270Y-114434945D01*
X130672431Y-114379809D01*
X130839139Y-114342680D01*
X131059812Y-114328773D01*
X131149742Y-114328773D01*
X131149742Y-114728501D01*
X131063573Y-114728501D01*
X130848835Y-114739957D01*
X130694012Y-114769808D01*
X130585370Y-114812618D01*
X130492135Y-114878615D01*
X130423759Y-114962325D01*
X130377813Y-115066679D01*
X130341890Y-115255573D01*
X130327206Y-115557363D01*
G37*
G36*
X132050925Y-113681480D02*
G01*
X132033344Y-113772121D01*
X131980143Y-113849886D01*
X131902403Y-113903094D01*
X131811909Y-113920667D01*
X131721593Y-113903026D01*
X131645384Y-113849886D01*
X131593790Y-113772279D01*
X131576654Y-113681480D01*
X131593782Y-113590828D01*
X131645384Y-113513246D01*
X131721593Y-113460106D01*
X131811909Y-113442464D01*
X131905579Y-113459872D01*
X131982024Y-113511365D01*
X132033531Y-113587928D01*
X132050925Y-113681480D01*
G37*
G36*
X132334051Y-116011972D02*
G01*
X132334051Y-116364000D01*
X131318490Y-116364000D01*
X131318490Y-116011972D01*
X131632049Y-116011972D01*
X131632049Y-114704565D01*
X131318490Y-114704565D01*
X131318490Y-114350657D01*
X132028015Y-114350657D01*
X132028015Y-116011972D01*
X132334051Y-116011972D01*
G37*
G36*
X133574268Y-114350657D02*
G01*
X133574268Y-114704565D01*
X133207024Y-114704565D01*
X133207024Y-115759621D01*
X133218377Y-115908992D01*
X133242415Y-115973162D01*
X133287544Y-116008497D01*
X133363804Y-116021889D01*
X133468377Y-116012905D01*
X133574268Y-115985472D01*
X133574268Y-116343312D01*
X133398154Y-116385237D01*
X133277806Y-116396826D01*
X133116896Y-116380606D01*
X133001528Y-116337449D01*
X132919966Y-116271505D01*
X132864590Y-116180509D01*
X132826060Y-116042954D01*
X132811058Y-115841686D01*
X132811058Y-114704565D01*
X132549132Y-114704565D01*
X132549132Y-114350657D01*
X132811058Y-114350657D01*
X132811058Y-114045646D01*
X133207024Y-113683190D01*
X133207024Y-114350657D01*
X133574268Y-114350657D01*
G37*
G36*
X135103651Y-114312408D02*
G01*
X135286767Y-114359751D01*
X135449467Y-114436484D01*
X135594688Y-114542545D01*
X135718253Y-114675313D01*
X135821497Y-114837921D01*
X135896384Y-115016550D01*
X135946200Y-115220606D01*
X135968873Y-115454439D01*
X134283793Y-115454439D01*
X134326587Y-115638512D01*
X134401306Y-115788549D01*
X134507593Y-115910929D01*
X134640682Y-116003295D01*
X134791946Y-116059028D01*
X134966647Y-116078309D01*
X135159479Y-116057496D01*
X135335772Y-115996072D01*
X135442011Y-115932185D01*
X135536699Y-115848642D01*
X135620779Y-115743378D01*
X135968873Y-115900329D01*
X135846974Y-116058220D01*
X135703867Y-116186562D01*
X135537516Y-116287747D01*
X135355798Y-116360097D01*
X135163135Y-116403844D01*
X134957073Y-116418710D01*
X134743734Y-116402923D01*
X134552361Y-116357250D01*
X134379365Y-116282960D01*
X134222646Y-116179858D01*
X134092433Y-116054296D01*
X133986305Y-115904432D01*
X133908901Y-115737550D01*
X133861879Y-115556273D01*
X133845768Y-115357328D01*
X133860710Y-115171313D01*
X134295248Y-115171313D01*
X135553758Y-115171313D01*
X135501916Y-115015302D01*
X135423765Y-114884456D01*
X135318504Y-114774833D01*
X135191958Y-114691290D01*
X135054825Y-114641727D01*
X134903388Y-114624893D01*
X134759962Y-114641669D01*
X134630543Y-114691115D01*
X134511354Y-114774833D01*
X134413795Y-114883793D01*
X134341840Y-115014532D01*
X134295248Y-115171313D01*
X133860710Y-115171313D01*
X133861646Y-115159659D01*
X133908030Y-114979088D01*
X133984425Y-114812447D01*
X134088705Y-114661698D01*
X134214604Y-114535817D01*
X134363978Y-114432722D01*
X134529277Y-114357069D01*
X134705632Y-114311458D01*
X134895866Y-114295946D01*
X135103651Y-114312408D01*
G37*
G36*
X145894170Y-113659938D02*
G01*
X145894170Y-113464348D01*
X146246197Y-113464348D01*
X146246197Y-114339715D01*
X145894170Y-114339715D01*
X145894170Y-114139509D01*
X145795014Y-114014308D01*
X145685947Y-113920635D01*
X145565833Y-113854626D01*
X145432331Y-113814489D01*
X145282097Y-113800646D01*
X145126401Y-113812914D01*
X145007970Y-113845996D01*
X144918615Y-113896219D01*
X144849315Y-113968096D01*
X144807325Y-114057891D01*
X144792439Y-114171309D01*
X144806609Y-114280027D01*
X144846439Y-114365458D01*
X144911947Y-114433235D01*
X145050475Y-114510877D01*
X145278336Y-114586083D01*
X145616857Y-114675842D01*
X145828845Y-114744445D01*
X145991316Y-114820888D01*
X146113182Y-114903403D01*
X146219896Y-115004792D01*
X146293323Y-115104376D01*
X146338863Y-115203455D01*
X146377847Y-115367786D01*
X146391522Y-115557021D01*
X146374945Y-115749954D01*
X146327807Y-115914561D01*
X146252005Y-116056089D01*
X146146693Y-116178326D01*
X146018204Y-116276091D01*
X145868893Y-116347343D01*
X145694780Y-116392008D01*
X145490681Y-116407768D01*
X145300751Y-116390232D01*
X145120413Y-116337974D01*
X144946661Y-116249725D01*
X144777223Y-116121906D01*
X144777223Y-116364000D01*
X144417673Y-116364000D01*
X144417673Y-115313560D01*
X144777223Y-115313560D01*
X144777223Y-115566595D01*
X144896185Y-115748639D01*
X145021610Y-115879714D01*
X145154032Y-115968625D01*
X145295723Y-116020968D01*
X145450503Y-116038644D01*
X145607813Y-116023182D01*
X145730881Y-115980569D01*
X145827321Y-115913494D01*
X145899818Y-115822008D01*
X145944977Y-115706841D01*
X145961190Y-115560953D01*
X145945466Y-115450191D01*
X145899307Y-115354524D01*
X145819920Y-115269767D01*
X145699259Y-115194620D01*
X145525046Y-115130793D01*
X145165496Y-115029579D01*
X144912937Y-114939857D01*
X144726022Y-114839044D01*
X144591720Y-114729355D01*
X144511995Y-114629448D01*
X144454483Y-114515018D01*
X144418747Y-114383273D01*
X144406218Y-114230465D01*
X144421778Y-114042088D01*
X144465589Y-113884575D01*
X144535220Y-113752210D01*
X144630873Y-113640789D01*
X144748608Y-113552412D01*
X144888232Y-113487354D01*
X145054029Y-113446170D01*
X145251494Y-113431522D01*
X145419152Y-113445519D01*
X145580790Y-113487376D01*
X145738551Y-113558039D01*
X145894170Y-113659938D01*
G37*
G36*
X147524540Y-114350657D02*
G01*
X147524540Y-114704565D01*
X147157296Y-114704565D01*
X147157296Y-115759621D01*
X147168649Y-115908992D01*
X147192687Y-115973162D01*
X147237816Y-116008497D01*
X147314076Y-116021889D01*
X147418649Y-116012905D01*
X147524540Y-115985472D01*
X147524540Y-116343312D01*
X147348426Y-116385237D01*
X147228078Y-116396826D01*
X147067168Y-116380606D01*
X146951800Y-116337449D01*
X146870238Y-116271505D01*
X146814863Y-116180509D01*
X146776332Y-116042954D01*
X146761330Y-115841686D01*
X146761330Y-114704565D01*
X146499404Y-114704565D01*
X146499404Y-114350657D01*
X146761330Y-114350657D01*
X146761330Y-114045646D01*
X147157296Y-113683190D01*
X147157296Y-114350657D01*
X147524540Y-114350657D01*
G37*
G36*
X149053923Y-114312408D02*
G01*
X149237039Y-114359751D01*
X149399739Y-114436484D01*
X149544960Y-114542545D01*
X149668525Y-114675313D01*
X149771769Y-114837921D01*
X149846657Y-115016550D01*
X149896472Y-115220606D01*
X149919145Y-115454439D01*
X148234065Y-115454439D01*
X148276859Y-115638512D01*
X148351578Y-115788549D01*
X148457865Y-115910929D01*
X148590954Y-116003295D01*
X148742218Y-116059028D01*
X148916919Y-116078309D01*
X149109751Y-116057496D01*
X149286044Y-115996072D01*
X149392283Y-115932185D01*
X149486971Y-115848642D01*
X149571051Y-115743378D01*
X149919145Y-115900329D01*
X149797246Y-116058220D01*
X149654139Y-116186562D01*
X149487788Y-116287747D01*
X149306070Y-116360097D01*
X149113407Y-116403844D01*
X148907345Y-116418710D01*
X148694006Y-116402923D01*
X148502633Y-116357250D01*
X148329637Y-116282960D01*
X148172918Y-116179858D01*
X148042705Y-116054296D01*
X147936577Y-115904432D01*
X147859174Y-115737550D01*
X147812151Y-115556273D01*
X147796040Y-115357328D01*
X147810982Y-115171313D01*
X148245520Y-115171313D01*
X149504030Y-115171313D01*
X149452188Y-115015302D01*
X149374038Y-114884456D01*
X149268776Y-114774833D01*
X149142230Y-114691290D01*
X149005097Y-114641727D01*
X148853660Y-114624893D01*
X148710234Y-114641669D01*
X148580815Y-114691115D01*
X148461626Y-114774833D01*
X148364067Y-114883793D01*
X148292112Y-115014532D01*
X148245520Y-115171313D01*
X147810982Y-115171313D01*
X147811918Y-115159659D01*
X147858302Y-114979088D01*
X147934697Y-114812447D01*
X148038977Y-114661698D01*
X148164876Y-114535817D01*
X148314250Y-114432722D01*
X148479549Y-114357069D01*
X148655904Y-114311458D01*
X148846138Y-114295946D01*
X149053923Y-114312408D01*
G37*
G36*
X151774225Y-114344869D02*
G01*
X151942032Y-114391752D01*
X152095252Y-114468968D01*
X152232102Y-114573212D01*
X152346660Y-114698670D01*
X152440440Y-114847496D01*
X152508679Y-115010226D01*
X152549881Y-115182966D01*
X152563880Y-115368099D01*
X152549301Y-115551663D01*
X152506058Y-115725682D01*
X152433772Y-115892464D01*
X152335527Y-116044968D01*
X152217654Y-116172588D01*
X152078838Y-116277660D01*
X151923993Y-116355881D01*
X151758925Y-116402788D01*
X151580632Y-116418710D01*
X151385835Y-116399528D01*
X151205590Y-116342844D01*
X151036141Y-116247611D01*
X150874868Y-116109767D01*
X150874868Y-116909223D01*
X151267073Y-116909223D01*
X151267073Y-117261250D01*
X150115590Y-117261250D01*
X150115590Y-116909223D01*
X150478901Y-116909223D01*
X150478901Y-115388445D01*
X150871106Y-115388445D01*
X150884572Y-115542685D01*
X150922751Y-115673196D01*
X150984015Y-115784453D01*
X151069090Y-115879642D01*
X151172744Y-115956048D01*
X151289811Y-116011184D01*
X151422800Y-116045353D01*
X151574990Y-116057279D01*
X151681550Y-116046548D01*
X151779593Y-116014884D01*
X151871281Y-115961707D01*
X151951810Y-115891487D01*
X152020529Y-115805543D01*
X152077813Y-115701833D01*
X152133774Y-115533087D01*
X152152526Y-115354080D01*
X152131710Y-115175077D01*
X152070290Y-115012995D01*
X151972323Y-114872541D01*
X151844610Y-114764575D01*
X151745513Y-114713325D01*
X151638458Y-114682445D01*
X151521305Y-114671909D01*
X151399358Y-114683090D01*
X151287904Y-114715882D01*
X151184665Y-114770388D01*
X151092764Y-114842992D01*
X151015984Y-114929435D01*
X150953343Y-115031117D01*
X150892011Y-115200165D01*
X150871106Y-115388445D01*
X150478901Y-115388445D01*
X150478901Y-114704565D01*
X150142261Y-114704565D01*
X150142261Y-114350657D01*
X150874868Y-114350657D01*
X150874868Y-114675842D01*
X150980489Y-114566363D01*
X151089939Y-114480047D01*
X151203814Y-114414600D01*
X151326157Y-114367015D01*
X151453849Y-114338426D01*
X151588325Y-114328773D01*
X151774225Y-114344869D01*
G37*
G36*
X26435865Y-30238091D02*
G01*
X26188569Y-30238091D01*
X26746053Y-31788178D01*
X26975519Y-31788178D01*
X26975519Y-32045000D01*
X26164023Y-32045000D01*
X26164023Y-31788178D01*
X26433178Y-31788178D01*
X26273321Y-31325460D01*
X25526060Y-31325460D01*
X25366203Y-31788178D01*
X25627055Y-31788178D01*
X25627055Y-32045000D01*
X24810062Y-32045000D01*
X24810062Y-31788178D01*
X25058702Y-31788178D01*
X25310803Y-31083660D01*
X25606660Y-31083660D01*
X26191378Y-31083660D01*
X25907201Y-30238091D01*
X25897554Y-30238091D01*
X25606660Y-31083660D01*
X25310803Y-31083660D01*
X25613377Y-30238091D01*
X25366203Y-30238091D01*
X25366203Y-29989452D01*
X26435865Y-29989452D01*
X26435865Y-30238091D01*
G37*
G36*
X28289668Y-31793551D02*
G01*
X28289668Y-32045000D01*
X27457655Y-32045000D01*
X27457655Y-31793551D01*
X27740488Y-31793551D01*
X27740488Y-30235404D01*
X27457655Y-30235404D01*
X27457655Y-29989452D01*
X28023199Y-29989452D01*
X28023199Y-31793551D01*
X28289668Y-31793551D01*
G37*
G36*
X29797623Y-30536556D02*
G01*
X29797623Y-30246273D01*
X29169187Y-30246273D01*
X29124124Y-30853583D01*
X29219167Y-30786391D01*
X29320192Y-30739032D01*
X29428619Y-30710434D01*
X29546297Y-30700687D01*
X29671941Y-30711439D01*
X29782816Y-30742451D01*
X29881643Y-30793011D01*
X29969472Y-30861485D01*
X30041978Y-30943100D01*
X30100240Y-31039207D01*
X30141986Y-31144038D01*
X30167393Y-31256759D01*
X30176078Y-31378949D01*
X30166117Y-31514376D01*
X30137366Y-31635265D01*
X30090715Y-31743970D01*
X30025344Y-31841776D01*
X29943670Y-31923136D01*
X29844030Y-31989434D01*
X29733509Y-32036740D01*
X29609173Y-32066056D01*
X29468384Y-32076263D01*
X29312393Y-32064003D01*
X29180659Y-32029389D01*
X29068880Y-31974348D01*
X28973792Y-31898942D01*
X28896909Y-31805352D01*
X28837463Y-31691768D01*
X28795920Y-31554425D01*
X28774368Y-31388475D01*
X29039371Y-31388475D01*
X29068030Y-31524135D01*
X29114514Y-31632207D01*
X29177369Y-31717836D01*
X29258780Y-31783494D01*
X29355218Y-31823239D01*
X29471193Y-31837149D01*
X29586877Y-31822799D01*
X29684225Y-31781513D01*
X29767581Y-31712707D01*
X29829992Y-31623526D01*
X29868659Y-31515762D01*
X29882376Y-31384323D01*
X29868967Y-31247912D01*
X29832156Y-31142182D01*
X29774420Y-31060212D01*
X29696280Y-30997408D01*
X29605612Y-30959719D01*
X29498548Y-30946639D01*
X29405631Y-30956321D01*
X29319657Y-30984993D01*
X29238674Y-31033423D01*
X29161384Y-31104069D01*
X29087243Y-31200896D01*
X28988866Y-31117184D01*
X28872798Y-31045191D01*
X28956085Y-29989452D01*
X30053224Y-29989452D01*
X30053224Y-30536556D01*
X29797623Y-30536556D01*
G37*
G36*
X35325865Y-30238091D02*
G01*
X35078569Y-30238091D01*
X35636053Y-31788178D01*
X35865519Y-31788178D01*
X35865519Y-32045000D01*
X35054023Y-32045000D01*
X35054023Y-31788178D01*
X35323178Y-31788178D01*
X35163321Y-31325460D01*
X34416060Y-31325460D01*
X34256203Y-31788178D01*
X34517055Y-31788178D01*
X34517055Y-32045000D01*
X33700062Y-32045000D01*
X33700062Y-31788178D01*
X33948702Y-31788178D01*
X34200803Y-31083660D01*
X34496660Y-31083660D01*
X35081378Y-31083660D01*
X34797201Y-30238091D01*
X34787554Y-30238091D01*
X34496660Y-31083660D01*
X34200803Y-31083660D01*
X34503377Y-30238091D01*
X34256203Y-30238091D01*
X34256203Y-29989452D01*
X35325865Y-29989452D01*
X35325865Y-30238091D01*
G37*
G36*
X37179668Y-31793551D02*
G01*
X37179668Y-32045000D01*
X36347655Y-32045000D01*
X36347655Y-31793551D01*
X36630488Y-31793551D01*
X36630488Y-30235404D01*
X36347655Y-30235404D01*
X36347655Y-29989452D01*
X36913199Y-29989452D01*
X36913199Y-31793551D01*
X37179668Y-31793551D01*
G37*
G36*
X38740990Y-31239975D02*
G01*
X39068886Y-31239975D01*
X39068886Y-31488614D01*
X38740990Y-31488614D01*
X38740990Y-31793551D01*
X38929546Y-31793551D01*
X38929546Y-32045000D01*
X38249085Y-32045000D01*
X38249085Y-31793551D01*
X38467683Y-31793551D01*
X38467683Y-31488614D01*
X37776353Y-31488614D01*
X37743286Y-31401254D01*
X37698319Y-31324729D01*
X37641165Y-31257683D01*
X37652946Y-31239975D01*
X37926685Y-31239975D01*
X38467683Y-31239975D01*
X38467683Y-30427990D01*
X37926685Y-31239975D01*
X37652946Y-31239975D01*
X38500533Y-29966004D01*
X38740990Y-29966004D01*
X38740990Y-31239975D01*
G37*
G36*
X44215865Y-30238091D02*
G01*
X43968569Y-30238091D01*
X44526053Y-31788178D01*
X44755519Y-31788178D01*
X44755519Y-32045000D01*
X43944023Y-32045000D01*
X43944023Y-31788178D01*
X44213178Y-31788178D01*
X44053321Y-31325460D01*
X43306060Y-31325460D01*
X43146203Y-31788178D01*
X43407055Y-31788178D01*
X43407055Y-32045000D01*
X42590062Y-32045000D01*
X42590062Y-31788178D01*
X42838702Y-31788178D01*
X43090803Y-31083660D01*
X43386660Y-31083660D01*
X43971378Y-31083660D01*
X43687201Y-30238091D01*
X43677554Y-30238091D01*
X43386660Y-31083660D01*
X43090803Y-31083660D01*
X43393377Y-30238091D01*
X43146203Y-30238091D01*
X43146203Y-29989452D01*
X44215865Y-29989452D01*
X44215865Y-30238091D01*
G37*
G36*
X46069668Y-31793551D02*
G01*
X46069668Y-32045000D01*
X45237655Y-32045000D01*
X45237655Y-31793551D01*
X45520488Y-31793551D01*
X45520488Y-30235404D01*
X45237655Y-30235404D01*
X45237655Y-29989452D01*
X45803199Y-29989452D01*
X45803199Y-31793551D01*
X46069668Y-31793551D01*
G37*
G36*
X47868639Y-30494912D02*
G01*
X47858261Y-30605704D01*
X47828604Y-30700653D01*
X47780467Y-30782875D01*
X47717174Y-30855903D01*
X47649704Y-30913114D01*
X47577623Y-30956165D01*
X47706378Y-31005826D01*
X47801940Y-31067356D01*
X47870715Y-31139958D01*
X47919614Y-31227532D01*
X47950523Y-31333706D01*
X47961573Y-31462969D01*
X47949504Y-31596279D01*
X47915156Y-31709759D01*
X47859724Y-31807229D01*
X47785177Y-31891905D01*
X47698042Y-31959608D01*
X47596796Y-32011416D01*
X47487715Y-32047271D01*
X47373741Y-32068934D01*
X47253879Y-32076263D01*
X47086140Y-32063689D01*
X46946348Y-32028445D01*
X46829555Y-31972916D01*
X46731933Y-31897599D01*
X46654940Y-31803166D01*
X46597180Y-31684244D01*
X46559776Y-31535344D01*
X46546186Y-31349396D01*
X46816685Y-31349396D01*
X46836779Y-31496608D01*
X46880266Y-31612783D01*
X46945034Y-31704403D01*
X47008403Y-31759010D01*
X47082225Y-31798418D01*
X47168558Y-31822991D01*
X47270244Y-31831653D01*
X47389328Y-31819497D01*
X47485094Y-31785539D01*
X47562602Y-31731270D01*
X47622215Y-31658357D01*
X47658073Y-31572931D01*
X47670558Y-31471151D01*
X47656466Y-31368538D01*
X47615209Y-31279849D01*
X47544773Y-31201385D01*
X47479994Y-31157828D01*
X47396934Y-31124325D01*
X47291384Y-31102255D01*
X47158258Y-31094162D01*
X47066667Y-31096849D01*
X47066667Y-30841371D01*
X47104891Y-30841371D01*
X47240843Y-30836213D01*
X47347424Y-30822320D01*
X47441947Y-30790439D01*
X47519616Y-30734270D01*
X47557078Y-30683952D01*
X47581121Y-30617249D01*
X47589958Y-30529106D01*
X47580909Y-30442716D01*
X47554373Y-30364740D01*
X47509968Y-30293168D01*
X47449820Y-30237781D01*
X47371021Y-30203316D01*
X47267557Y-30190830D01*
X47158489Y-30203570D01*
X47076669Y-30238443D01*
X47015376Y-30293900D01*
X46972410Y-30367171D01*
X46941507Y-30468711D01*
X46925983Y-30606898D01*
X46637655Y-30606898D01*
X46637655Y-30584916D01*
X46645642Y-30454611D01*
X46667883Y-30346440D01*
X46702435Y-30256791D01*
X46748297Y-30182648D01*
X46828433Y-30094151D01*
X46910277Y-30032698D01*
X46994860Y-29994214D01*
X47129103Y-29960722D01*
X47245575Y-29950373D01*
X47401637Y-29961528D01*
X47527965Y-29992357D01*
X47630047Y-30040125D01*
X47712201Y-30103879D01*
X47780316Y-30185399D01*
X47828711Y-30276358D01*
X47858357Y-30378648D01*
X47868639Y-30494912D01*
G37*
G36*
X53105865Y-30238091D02*
G01*
X52858569Y-30238091D01*
X53416053Y-31788178D01*
X53645519Y-31788178D01*
X53645519Y-32045000D01*
X52834023Y-32045000D01*
X52834023Y-31788178D01*
X53103178Y-31788178D01*
X52943321Y-31325460D01*
X52196060Y-31325460D01*
X52036203Y-31788178D01*
X52297055Y-31788178D01*
X52297055Y-32045000D01*
X51480062Y-32045000D01*
X51480062Y-31788178D01*
X51728702Y-31788178D01*
X51980803Y-31083660D01*
X52276660Y-31083660D01*
X52861378Y-31083660D01*
X52577201Y-30238091D01*
X52567554Y-30238091D01*
X52276660Y-31083660D01*
X51980803Y-31083660D01*
X52283377Y-30238091D01*
X52036203Y-30238091D01*
X52036203Y-29989452D01*
X53105865Y-29989452D01*
X53105865Y-30238091D01*
G37*
G36*
X54959668Y-31793551D02*
G01*
X54959668Y-32045000D01*
X54127655Y-32045000D01*
X54127655Y-31793551D01*
X54410488Y-31793551D01*
X54410488Y-30235404D01*
X54127655Y-30235404D01*
X54127655Y-29989452D01*
X54693199Y-29989452D01*
X54693199Y-31793551D01*
X54959668Y-31793551D01*
G37*
G36*
X56773660Y-30511032D02*
G01*
X56763466Y-30624068D01*
X56733941Y-30724444D01*
X56685488Y-30814626D01*
X56620400Y-30895740D01*
X56519629Y-30993153D01*
X56373346Y-31109916D01*
X56242309Y-31208346D01*
X55991472Y-31408014D01*
X55909357Y-31489074D01*
X55840530Y-31577519D01*
X55787883Y-31675389D01*
X55754556Y-31785369D01*
X56529173Y-31785369D01*
X56541507Y-31310317D01*
X56790146Y-31310317D01*
X56773660Y-32045000D01*
X55455359Y-32045000D01*
X55466945Y-31878927D01*
X55496396Y-31734328D01*
X55542065Y-31608171D01*
X55603820Y-31488076D01*
X55670623Y-31386899D01*
X55742222Y-31302501D01*
X55866314Y-31184701D01*
X56020903Y-31059113D01*
X56224480Y-30904630D01*
X56350923Y-30799688D01*
X56421217Y-30716563D01*
X56463019Y-30625919D01*
X56477271Y-30521657D01*
X56466444Y-30422388D01*
X56436238Y-30343484D01*
X56387756Y-30280345D01*
X56323131Y-30233443D01*
X56242463Y-30204064D01*
X56141193Y-30193517D01*
X56040475Y-30202342D01*
X55963165Y-30226344D01*
X55904095Y-30263331D01*
X55859703Y-30313318D01*
X55819152Y-30397475D01*
X55791167Y-30517661D01*
X55780446Y-30685177D01*
X55780446Y-30755397D01*
X55508604Y-30755397D01*
X55508604Y-30675774D01*
X55519040Y-30508521D01*
X55548114Y-30369652D01*
X55593327Y-30254502D01*
X55653440Y-30159200D01*
X55716140Y-30093296D01*
X55785115Y-30040966D01*
X55861046Y-30001175D01*
X55988624Y-29963908D01*
X56149375Y-29950373D01*
X56285959Y-29959950D01*
X56400347Y-29986803D01*
X56496322Y-30029019D01*
X56582911Y-30088078D01*
X56651699Y-30156455D01*
X56704661Y-30234794D01*
X56742909Y-30321742D01*
X56765882Y-30413388D01*
X56773660Y-30511032D01*
G37*
G36*
X61995865Y-30238091D02*
G01*
X61748569Y-30238091D01*
X62306053Y-31788178D01*
X62535519Y-31788178D01*
X62535519Y-32045000D01*
X61724023Y-32045000D01*
X61724023Y-31788178D01*
X61993178Y-31788178D01*
X61833321Y-31325460D01*
X61086060Y-31325460D01*
X60926203Y-31788178D01*
X61187055Y-31788178D01*
X61187055Y-32045000D01*
X60370062Y-32045000D01*
X60370062Y-31788178D01*
X60618702Y-31788178D01*
X60870803Y-31083660D01*
X61166660Y-31083660D01*
X61751378Y-31083660D01*
X61467201Y-30238091D01*
X61457554Y-30238091D01*
X61166660Y-31083660D01*
X60870803Y-31083660D01*
X61173377Y-30238091D01*
X60926203Y-30238091D01*
X60926203Y-29989452D01*
X61995865Y-29989452D01*
X61995865Y-30238091D01*
G37*
G36*
X63849668Y-31793551D02*
G01*
X63849668Y-32045000D01*
X63017655Y-32045000D01*
X63017655Y-31793551D01*
X63300488Y-31793551D01*
X63300488Y-30235404D01*
X63017655Y-30235404D01*
X63017655Y-29989452D01*
X63583199Y-29989452D01*
X63583199Y-31793551D01*
X63849668Y-31793551D01*
G37*
G36*
X65492934Y-31793551D02*
G01*
X65492934Y-32045000D01*
X64660921Y-32045000D01*
X64660921Y-31793551D01*
X64943754Y-31793551D01*
X64943754Y-30235404D01*
X64660921Y-30235404D01*
X64660921Y-29989452D01*
X65226465Y-29989452D01*
X65226465Y-31793551D01*
X65492934Y-31793551D01*
G37*
G36*
X70885865Y-30238091D02*
G01*
X70638569Y-30238091D01*
X71196053Y-31788178D01*
X71425519Y-31788178D01*
X71425519Y-32045000D01*
X70614023Y-32045000D01*
X70614023Y-31788178D01*
X70883178Y-31788178D01*
X70723321Y-31325460D01*
X69976060Y-31325460D01*
X69816203Y-31788178D01*
X70077055Y-31788178D01*
X70077055Y-32045000D01*
X69260062Y-32045000D01*
X69260062Y-31788178D01*
X69508702Y-31788178D01*
X69760803Y-31083660D01*
X70056660Y-31083660D01*
X70641378Y-31083660D01*
X70357201Y-30238091D01*
X70347554Y-30238091D01*
X70056660Y-31083660D01*
X69760803Y-31083660D01*
X70063377Y-30238091D01*
X69816203Y-30238091D01*
X69816203Y-29989452D01*
X70885865Y-29989452D01*
X70885865Y-30238091D01*
G37*
G36*
X72739668Y-31793551D02*
G01*
X72739668Y-32045000D01*
X71907655Y-32045000D01*
X71907655Y-31793551D01*
X72190488Y-31793551D01*
X72190488Y-30235404D01*
X71907655Y-30235404D01*
X71907655Y-29989452D01*
X72473199Y-29989452D01*
X72473199Y-31793551D01*
X72739668Y-31793551D01*
G37*
G36*
X74070590Y-29962290D02*
G01*
X74187015Y-29996590D01*
X74290005Y-30052522D01*
X74381803Y-30131254D01*
X74463534Y-30235771D01*
X74539468Y-30380089D01*
X74597199Y-30554304D01*
X74634523Y-30763941D01*
X74647937Y-31015394D01*
X74637314Y-31238489D01*
X74607516Y-31428591D01*
X74561109Y-31590219D01*
X74492114Y-31742294D01*
X74410034Y-31861383D01*
X74315279Y-31952676D01*
X74203742Y-32020802D01*
X74079024Y-32062040D01*
X73937557Y-32076263D01*
X73802157Y-32064224D01*
X73684097Y-32029635D01*
X73580095Y-31973353D01*
X73487818Y-31894292D01*
X73406085Y-31789521D01*
X73329895Y-31644374D01*
X73272181Y-31470556D01*
X73235002Y-31262893D01*
X73221681Y-31015394D01*
X73523565Y-31015394D01*
X73531968Y-31241614D01*
X73554378Y-31414926D01*
X73587125Y-31545068D01*
X73627369Y-31640655D01*
X73687772Y-31727773D01*
X73758181Y-31786857D01*
X73840215Y-31822198D01*
X73937557Y-31834462D01*
X74032825Y-31822433D01*
X74113680Y-31787669D01*
X74183624Y-31729396D01*
X74244204Y-31643342D01*
X74284358Y-31549186D01*
X74317358Y-31418066D01*
X74340139Y-31240181D01*
X74348740Y-31004403D01*
X74339822Y-30770749D01*
X74316257Y-30595531D01*
X74282195Y-30467253D01*
X74240785Y-30375844D01*
X74178966Y-30292572D01*
X74108649Y-30236093D01*
X74028320Y-30202437D01*
X73934748Y-30190830D01*
X73834796Y-30203909D01*
X73751779Y-30241484D01*
X73681581Y-30304396D01*
X73622606Y-30397704D01*
X73583543Y-30499465D01*
X73552321Y-30631825D01*
X73531324Y-30801356D01*
X73523565Y-31015394D01*
X73221681Y-31015394D01*
X73232299Y-30791293D01*
X73262063Y-30600516D01*
X73308387Y-30438492D01*
X73377657Y-30286136D01*
X73460652Y-30166574D01*
X73557027Y-30074692D01*
X73670371Y-30006043D01*
X73796073Y-29964615D01*
X73937557Y-29950373D01*
X74070590Y-29962290D01*
G37*
G36*
X80533995Y-30238091D02*
G01*
X80286699Y-30238091D01*
X80844183Y-31788178D01*
X81073649Y-31788178D01*
X81073649Y-32045000D01*
X80262152Y-32045000D01*
X80262152Y-31788178D01*
X80531308Y-31788178D01*
X80371451Y-31325460D01*
X79624190Y-31325460D01*
X79464333Y-31788178D01*
X79725184Y-31788178D01*
X79725184Y-32045000D01*
X78908192Y-32045000D01*
X78908192Y-31788178D01*
X79156831Y-31788178D01*
X79408932Y-31083660D01*
X79704790Y-31083660D01*
X80289508Y-31083660D01*
X80005331Y-30238091D01*
X79995683Y-30238091D01*
X79704790Y-31083660D01*
X79408932Y-31083660D01*
X79711507Y-30238091D01*
X79464333Y-30238091D01*
X79464333Y-29989452D01*
X80533995Y-29989452D01*
X80533995Y-30238091D01*
G37*
G36*
X82003900Y-29961178D02*
G01*
X82116064Y-29992489D01*
X82217222Y-30043788D01*
X82309241Y-30116084D01*
X82393171Y-30211835D01*
X82456968Y-30315558D01*
X82509691Y-30441251D01*
X82550163Y-30592690D01*
X82576435Y-30774256D01*
X82585879Y-30990847D01*
X82572116Y-31251896D01*
X82534000Y-31467421D01*
X82475365Y-31644569D01*
X82398667Y-31789521D01*
X82315897Y-31894349D01*
X82222809Y-31973439D01*
X82118229Y-32029707D01*
X81999868Y-32064252D01*
X81864508Y-32076263D01*
X81733702Y-32064625D01*
X81622087Y-32031489D01*
X81526023Y-31978045D01*
X81442944Y-31903461D01*
X81376637Y-31813362D01*
X81325961Y-31707308D01*
X81291314Y-31582489D01*
X81274295Y-31435369D01*
X81522934Y-31435369D01*
X81548922Y-31553791D01*
X81589861Y-31648999D01*
X81644567Y-31725163D01*
X81714824Y-31784901D01*
X81792622Y-31819803D01*
X81880872Y-31831653D01*
X81976544Y-31818835D01*
X82059729Y-31781286D01*
X82133765Y-31717274D01*
X82199975Y-31621238D01*
X82247015Y-31515759D01*
X82282775Y-31390587D01*
X82305805Y-31242451D01*
X82314036Y-31067662D01*
X82201580Y-31169991D01*
X82085281Y-31239796D01*
X81963348Y-31280886D01*
X81833122Y-31294685D01*
X81726982Y-31285701D01*
X81630137Y-31259430D01*
X81540764Y-31216039D01*
X81460980Y-31156859D01*
X81392646Y-31082717D01*
X81335111Y-30991824D01*
X81293730Y-30892125D01*
X81268151Y-30780898D01*
X81259274Y-30655990D01*
X81260730Y-30634131D01*
X81520247Y-30634131D01*
X81530669Y-30743290D01*
X81560320Y-30835675D01*
X81608297Y-30914644D01*
X81674345Y-30975938D01*
X81757907Y-31013471D01*
X81864508Y-31026873D01*
X81967661Y-31012262D01*
X82072713Y-30966549D01*
X82182865Y-30883816D01*
X82300359Y-30754542D01*
X82267525Y-30569312D01*
X82221819Y-30433024D01*
X82166514Y-30335177D01*
X82110723Y-30274117D01*
X82046694Y-30231424D01*
X81972803Y-30205398D01*
X81886367Y-30196325D01*
X81783824Y-30210354D01*
X81697022Y-30251088D01*
X81621974Y-30320157D01*
X81566581Y-30407684D01*
X81532320Y-30510991D01*
X81520247Y-30634131D01*
X81260730Y-30634131D01*
X81267602Y-30530921D01*
X81292051Y-30414262D01*
X81332302Y-30304647D01*
X81389104Y-30203355D01*
X81459862Y-30117980D01*
X81545404Y-30046849D01*
X81642795Y-29994006D01*
X81752735Y-29961618D01*
X81878185Y-29950373D01*
X82003900Y-29961178D01*
G37*
G36*
X89423995Y-30238091D02*
G01*
X89176699Y-30238091D01*
X89734183Y-31788178D01*
X89963649Y-31788178D01*
X89963649Y-32045000D01*
X89152152Y-32045000D01*
X89152152Y-31788178D01*
X89421308Y-31788178D01*
X89261451Y-31325460D01*
X88514190Y-31325460D01*
X88354333Y-31788178D01*
X88615184Y-31788178D01*
X88615184Y-32045000D01*
X87798192Y-32045000D01*
X87798192Y-31788178D01*
X88046831Y-31788178D01*
X88298932Y-31083660D01*
X88594790Y-31083660D01*
X89179508Y-31083660D01*
X88895331Y-30238091D01*
X88885683Y-30238091D01*
X88594790Y-31083660D01*
X88298932Y-31083660D01*
X88601507Y-30238091D01*
X88354333Y-30238091D01*
X88354333Y-29989452D01*
X89423995Y-29989452D01*
X89423995Y-30238091D01*
G37*
G36*
X90968797Y-29960532D02*
G01*
X91098683Y-29989177D01*
X91209361Y-30034393D01*
X91303810Y-30095453D01*
X91383976Y-30174525D01*
X91440374Y-30264709D01*
X91474855Y-30368232D01*
X91486870Y-30488562D01*
X91475078Y-30600363D01*
X91440430Y-30701690D01*
X91382294Y-30795145D01*
X91297819Y-30882387D01*
X91182177Y-30963981D01*
X91300563Y-31021794D01*
X91392141Y-31089495D01*
X91461138Y-31166892D01*
X91510272Y-31255005D01*
X91540536Y-31355973D01*
X91551106Y-31472861D01*
X91541234Y-31591726D01*
X91512752Y-31696951D01*
X91466353Y-31790987D01*
X91402512Y-31873935D01*
X91321778Y-31943982D01*
X91221866Y-32001769D01*
X91112872Y-32042006D01*
X90987653Y-32067344D01*
X90843412Y-32076263D01*
X90682652Y-32065967D01*
X90543334Y-32036716D01*
X90422240Y-31990223D01*
X90316702Y-31927152D01*
X90228450Y-31844929D01*
X90165033Y-31744608D01*
X90125249Y-31622468D01*
X90111050Y-31472861D01*
X90112016Y-31462114D01*
X90410247Y-31462114D01*
X90423719Y-31569121D01*
X90462284Y-31657800D01*
X90526385Y-31732491D01*
X90609157Y-31787752D01*
X90709596Y-31822202D01*
X90832421Y-31834462D01*
X90947998Y-31822642D01*
X91046017Y-31788885D01*
X91130153Y-31733834D01*
X91195745Y-31659683D01*
X91235254Y-31570655D01*
X91249099Y-31462114D01*
X91236492Y-31354363D01*
X91200663Y-31265641D01*
X91141877Y-31191615D01*
X91064148Y-31137660D01*
X90960031Y-31102613D01*
X90821430Y-31089644D01*
X90702360Y-31101842D01*
X90604586Y-31136219D01*
X90523576Y-31191615D01*
X90461161Y-31266098D01*
X90423452Y-31354816D01*
X90410247Y-31462114D01*
X90112016Y-31462114D01*
X90121567Y-31355823D01*
X90151670Y-31254772D01*
X90200506Y-31166647D01*
X90269019Y-31089298D01*
X90359859Y-31021689D01*
X90477170Y-30963981D01*
X90363544Y-30885350D01*
X90280014Y-30799415D01*
X90222070Y-30705555D01*
X90187233Y-30601950D01*
X90178525Y-30517260D01*
X90452623Y-30517260D01*
X90464909Y-30620519D01*
X90499107Y-30701031D01*
X90554351Y-30764190D01*
X90626869Y-30809500D01*
X90719547Y-30838589D01*
X90837916Y-30849187D01*
X90932810Y-30840247D01*
X91018157Y-30814178D01*
X91095959Y-30771029D01*
X91156727Y-30710831D01*
X91194384Y-30630337D01*
X91208066Y-30522756D01*
X91196126Y-30415475D01*
X91163623Y-30335444D01*
X91112445Y-30275949D01*
X91043989Y-30234415D01*
X90949661Y-30206731D01*
X90821430Y-30196325D01*
X90708772Y-30206848D01*
X90620136Y-30235848D01*
X90550321Y-30281322D01*
X90496911Y-30343900D01*
X90464223Y-30421068D01*
X90452623Y-30517260D01*
X90178525Y-30517260D01*
X90175286Y-30485753D01*
X90185624Y-30373257D01*
X90215231Y-30276190D01*
X90263335Y-30191563D01*
X90328110Y-30117878D01*
X90405454Y-30057694D01*
X90496953Y-30010334D01*
X90595609Y-29977411D01*
X90701582Y-29957268D01*
X90816057Y-29950373D01*
X90968797Y-29960532D01*
G37*
G36*
X100853995Y-30238091D02*
G01*
X100606699Y-30238091D01*
X101164183Y-31788178D01*
X101393649Y-31788178D01*
X101393649Y-32045000D01*
X100582152Y-32045000D01*
X100582152Y-31788178D01*
X100851308Y-31788178D01*
X100691451Y-31325460D01*
X99944190Y-31325460D01*
X99784333Y-31788178D01*
X100045184Y-31788178D01*
X100045184Y-32045000D01*
X99228192Y-32045000D01*
X99228192Y-31788178D01*
X99476831Y-31788178D01*
X99728932Y-31083660D01*
X100024790Y-31083660D01*
X100609508Y-31083660D01*
X100325331Y-30238091D01*
X100315683Y-30238091D01*
X100024790Y-31083660D01*
X99728932Y-31083660D01*
X100031507Y-30238091D01*
X99784333Y-30238091D01*
X99784333Y-29989452D01*
X100853995Y-29989452D01*
X100853995Y-30238091D01*
G37*
G36*
X102344364Y-31788056D02*
G01*
X102344364Y-31793551D01*
X102584822Y-31793551D01*
X102584822Y-32045000D01*
X101770516Y-32045000D01*
X101770516Y-31793551D01*
X102043824Y-31793551D01*
X102077143Y-31520149D01*
X102135477Y-31249666D01*
X102219312Y-30981078D01*
X102325046Y-30719898D01*
X102446906Y-30475327D01*
X102584822Y-30246273D01*
X101872976Y-30246273D01*
X101872976Y-30528740D01*
X101618963Y-30528740D01*
X101618963Y-29989452D01*
X102905879Y-29989452D01*
X102905879Y-30198401D01*
X102812155Y-30331605D01*
X102718479Y-30491616D01*
X102625122Y-30681880D01*
X102508082Y-30974658D01*
X102419469Y-31269162D01*
X102375818Y-31469741D01*
X102351780Y-31641503D01*
X102344364Y-31788056D01*
G37*
G36*
X109743995Y-30238091D02*
G01*
X109496699Y-30238091D01*
X110054183Y-31788178D01*
X110283649Y-31788178D01*
X110283649Y-32045000D01*
X109472152Y-32045000D01*
X109472152Y-31788178D01*
X109741308Y-31788178D01*
X109581451Y-31325460D01*
X108834190Y-31325460D01*
X108674333Y-31788178D01*
X108935184Y-31788178D01*
X108935184Y-32045000D01*
X108118192Y-32045000D01*
X108118192Y-31788178D01*
X108366831Y-31788178D01*
X108618932Y-31083660D01*
X108914790Y-31083660D01*
X109499508Y-31083660D01*
X109215331Y-30238091D01*
X109205683Y-30238091D01*
X108914790Y-31083660D01*
X108618932Y-31083660D01*
X108921507Y-30238091D01*
X108674333Y-30238091D01*
X108674333Y-29989452D01*
X109743995Y-29989452D01*
X109743995Y-30238091D01*
G37*
G36*
X111334851Y-29962421D02*
G01*
X111446914Y-29996698D01*
X111543003Y-30052018D01*
X111625764Y-30129403D01*
X111691931Y-30222611D01*
X111741223Y-30329037D01*
X111773556Y-30450960D01*
X111787697Y-30591266D01*
X111539057Y-30591266D01*
X111515975Y-30482916D01*
X111476058Y-30389420D01*
X111419501Y-30308311D01*
X111347090Y-30244186D01*
X111264681Y-30206451D01*
X111168785Y-30193517D01*
X111079175Y-30205710D01*
X111000495Y-30241603D01*
X110929687Y-30303132D01*
X110865558Y-30395872D01*
X110820392Y-30496760D01*
X110784707Y-30621051D01*
X110760256Y-30773060D01*
X110749420Y-30957630D01*
X110865143Y-30855601D01*
X110983248Y-30786207D01*
X111105484Y-30745539D01*
X111234364Y-30731950D01*
X111332648Y-30740206D01*
X111425784Y-30764724D01*
X111515122Y-30805833D01*
X111595504Y-30861949D01*
X111665176Y-30933585D01*
X111724804Y-31022599D01*
X111767768Y-31120783D01*
X111794629Y-31233570D01*
X111804061Y-31363806D01*
X111795713Y-31493471D01*
X111771379Y-31612592D01*
X111731643Y-31722721D01*
X111675201Y-31824339D01*
X111604649Y-31909691D01*
X111519152Y-31980519D01*
X111421885Y-32032938D01*
X111311984Y-32065092D01*
X111186493Y-32076263D01*
X111051659Y-32063466D01*
X110930328Y-32026129D01*
X110819640Y-31964277D01*
X110724685Y-31880198D01*
X110641267Y-31767390D01*
X110569658Y-31620261D01*
X110521482Y-31462839D01*
X110490160Y-31272093D01*
X110762976Y-31272093D01*
X110800327Y-31469126D01*
X110852644Y-31611089D01*
X110916174Y-31710358D01*
X110989598Y-31776512D01*
X111074321Y-31815525D01*
X111174281Y-31828967D01*
X111282128Y-31814594D01*
X111370739Y-31773418D01*
X111444780Y-31704525D01*
X111499182Y-31616725D01*
X111532757Y-31513982D01*
X111544553Y-31392505D01*
X111533746Y-31281668D01*
X111503123Y-31188949D01*
X111453695Y-31110648D01*
X111386272Y-31049776D01*
X111303370Y-31012824D01*
X111200170Y-30999762D01*
X111098421Y-31014238D01*
X110993662Y-31059738D01*
X110882640Y-31142446D01*
X110762976Y-31272093D01*
X110490160Y-31272093D01*
X110490122Y-31271860D01*
X110478799Y-31041284D01*
X110492428Y-30780270D01*
X110530213Y-30564201D01*
X110588396Y-30386101D01*
X110664546Y-30239923D01*
X110746923Y-30134250D01*
X110840167Y-30054436D01*
X110945499Y-29997556D01*
X111065314Y-29962563D01*
X111202979Y-29950373D01*
X111334851Y-29962421D01*
G37*
G36*
X118633995Y-30238091D02*
G01*
X118386699Y-30238091D01*
X118944183Y-31788178D01*
X119173649Y-31788178D01*
X119173649Y-32045000D01*
X118362152Y-32045000D01*
X118362152Y-31788178D01*
X118631308Y-31788178D01*
X118471451Y-31325460D01*
X117724190Y-31325460D01*
X117564333Y-31788178D01*
X117825184Y-31788178D01*
X117825184Y-32045000D01*
X117008192Y-32045000D01*
X117008192Y-31788178D01*
X117256831Y-31788178D01*
X117508932Y-31083660D01*
X117804790Y-31083660D01*
X118389508Y-31083660D01*
X118105331Y-30238091D01*
X118095683Y-30238091D01*
X117804790Y-31083660D01*
X117508932Y-31083660D01*
X117811507Y-30238091D01*
X117564333Y-30238091D01*
X117564333Y-29989452D01*
X118633995Y-29989452D01*
X118633995Y-30238091D01*
G37*
G36*
X120352487Y-30536556D02*
G01*
X120352487Y-30246273D01*
X119724050Y-30246273D01*
X119678988Y-30853583D01*
X119774031Y-30786391D01*
X119875056Y-30739032D01*
X119983483Y-30710434D01*
X120101161Y-30700687D01*
X120226805Y-30711439D01*
X120337680Y-30742451D01*
X120436507Y-30793011D01*
X120524336Y-30861485D01*
X120596842Y-30943100D01*
X120655104Y-31039207D01*
X120696850Y-31144038D01*
X120722257Y-31256759D01*
X120730942Y-31378949D01*
X120720981Y-31514376D01*
X120692229Y-31635265D01*
X120645579Y-31743970D01*
X120580208Y-31841776D01*
X120498534Y-31923136D01*
X120398893Y-31989434D01*
X120288373Y-32036740D01*
X120164037Y-32066056D01*
X120023248Y-32076263D01*
X119867257Y-32064003D01*
X119735523Y-32029389D01*
X119623744Y-31974348D01*
X119528656Y-31898942D01*
X119451773Y-31805352D01*
X119392327Y-31691768D01*
X119350784Y-31554425D01*
X119329232Y-31388475D01*
X119594235Y-31388475D01*
X119622894Y-31524135D01*
X119669378Y-31632207D01*
X119732233Y-31717836D01*
X119813643Y-31783494D01*
X119910082Y-31823239D01*
X120026057Y-31837149D01*
X120141741Y-31822799D01*
X120239089Y-31781513D01*
X120322445Y-31712707D01*
X120384855Y-31623526D01*
X120423523Y-31515762D01*
X120437240Y-31384323D01*
X120423831Y-31247912D01*
X120387019Y-31142182D01*
X120329284Y-31060212D01*
X120251144Y-30997408D01*
X120160476Y-30959719D01*
X120053412Y-30946639D01*
X119960495Y-30956321D01*
X119874520Y-30984993D01*
X119793538Y-31033423D01*
X119716248Y-31104069D01*
X119642107Y-31200896D01*
X119543730Y-31117184D01*
X119427662Y-31045191D01*
X119510949Y-29989452D01*
X120608087Y-29989452D01*
X120608087Y-30536556D01*
X120352487Y-30536556D01*
G37*
G36*
X127523995Y-30238091D02*
G01*
X127276699Y-30238091D01*
X127834183Y-31788178D01*
X128063649Y-31788178D01*
X128063649Y-32045000D01*
X127252152Y-32045000D01*
X127252152Y-31788178D01*
X127521308Y-31788178D01*
X127361451Y-31325460D01*
X126614190Y-31325460D01*
X126454333Y-31788178D01*
X126715184Y-31788178D01*
X126715184Y-32045000D01*
X125898192Y-32045000D01*
X125898192Y-31788178D01*
X126146831Y-31788178D01*
X126398932Y-31083660D01*
X126694790Y-31083660D01*
X127279508Y-31083660D01*
X126995331Y-30238091D01*
X126985683Y-30238091D01*
X126694790Y-31083660D01*
X126398932Y-31083660D01*
X126701507Y-30238091D01*
X126454333Y-30238091D01*
X126454333Y-29989452D01*
X127523995Y-29989452D01*
X127523995Y-30238091D01*
G37*
G36*
X129295854Y-31239975D02*
G01*
X129623750Y-31239975D01*
X129623750Y-31488614D01*
X129295854Y-31488614D01*
X129295854Y-31793551D01*
X129484410Y-31793551D01*
X129484410Y-32045000D01*
X128803949Y-32045000D01*
X128803949Y-31793551D01*
X129022547Y-31793551D01*
X129022547Y-31488614D01*
X128331217Y-31488614D01*
X128298150Y-31401254D01*
X128253183Y-31324729D01*
X128196029Y-31257683D01*
X128207810Y-31239975D01*
X128481549Y-31239975D01*
X129022547Y-31239975D01*
X129022547Y-30427990D01*
X128481549Y-31239975D01*
X128207810Y-31239975D01*
X129055397Y-29966004D01*
X129295854Y-29966004D01*
X129295854Y-31239975D01*
G37*
G36*
X136413995Y-30238091D02*
G01*
X136166699Y-30238091D01*
X136724183Y-31788178D01*
X136953649Y-31788178D01*
X136953649Y-32045000D01*
X136142152Y-32045000D01*
X136142152Y-31788178D01*
X136411308Y-31788178D01*
X136251451Y-31325460D01*
X135504190Y-31325460D01*
X135344333Y-31788178D01*
X135605184Y-31788178D01*
X135605184Y-32045000D01*
X134788192Y-32045000D01*
X134788192Y-31788178D01*
X135036831Y-31788178D01*
X135288932Y-31083660D01*
X135584790Y-31083660D01*
X136169508Y-31083660D01*
X135885331Y-30238091D01*
X135875683Y-30238091D01*
X135584790Y-31083660D01*
X135288932Y-31083660D01*
X135591507Y-30238091D01*
X135344333Y-30238091D01*
X135344333Y-29989452D01*
X136413995Y-29989452D01*
X136413995Y-30238091D01*
G37*
G36*
X138423503Y-30494912D02*
G01*
X138413125Y-30605704D01*
X138383468Y-30700653D01*
X138335331Y-30782875D01*
X138272038Y-30855903D01*
X138204568Y-30913114D01*
X138132487Y-30956165D01*
X138261242Y-31005826D01*
X138356804Y-31067356D01*
X138425579Y-31139958D01*
X138474478Y-31227532D01*
X138505386Y-31333706D01*
X138516437Y-31462969D01*
X138504368Y-31596279D01*
X138470020Y-31709759D01*
X138414588Y-31807229D01*
X138340041Y-31891905D01*
X138252906Y-31959608D01*
X138151660Y-32011416D01*
X138042578Y-32047271D01*
X137928605Y-32068934D01*
X137808743Y-32076263D01*
X137641004Y-32063689D01*
X137501211Y-32028445D01*
X137384419Y-31972916D01*
X137286796Y-31897599D01*
X137209804Y-31803166D01*
X137152044Y-31684244D01*
X137114640Y-31535344D01*
X137101050Y-31349396D01*
X137371549Y-31349396D01*
X137391643Y-31496608D01*
X137435130Y-31612783D01*
X137499898Y-31704403D01*
X137563267Y-31759010D01*
X137637089Y-31798418D01*
X137723422Y-31822991D01*
X137825108Y-31831653D01*
X137944192Y-31819497D01*
X138039957Y-31785539D01*
X138117466Y-31731270D01*
X138177079Y-31658357D01*
X138212937Y-31572931D01*
X138225422Y-31471151D01*
X138211330Y-31368538D01*
X138170073Y-31279849D01*
X138099637Y-31201385D01*
X138034858Y-31157828D01*
X137951798Y-31124325D01*
X137846248Y-31102255D01*
X137713122Y-31094162D01*
X137621531Y-31096849D01*
X137621531Y-30841371D01*
X137659755Y-30841371D01*
X137795707Y-30836213D01*
X137902288Y-30822320D01*
X137996811Y-30790439D01*
X138074480Y-30734270D01*
X138111942Y-30683952D01*
X138135985Y-30617249D01*
X138144822Y-30529106D01*
X138135772Y-30442716D01*
X138109237Y-30364740D01*
X138064832Y-30293168D01*
X138004684Y-30237781D01*
X137925885Y-30203316D01*
X137822421Y-30190830D01*
X137713353Y-30203570D01*
X137631533Y-30238443D01*
X137570240Y-30293900D01*
X137527274Y-30367171D01*
X137496371Y-30468711D01*
X137480847Y-30606898D01*
X137192519Y-30606898D01*
X137192519Y-30584916D01*
X137200506Y-30454611D01*
X137222747Y-30346440D01*
X137257299Y-30256791D01*
X137303161Y-30182648D01*
X137383297Y-30094151D01*
X137465141Y-30032698D01*
X137549724Y-29994214D01*
X137683967Y-29960722D01*
X137800439Y-29950373D01*
X137956501Y-29961528D01*
X138082828Y-29992357D01*
X138184911Y-30040125D01*
X138267065Y-30103879D01*
X138335180Y-30185399D01*
X138383575Y-30276358D01*
X138413221Y-30378648D01*
X138423503Y-30494912D01*
G37*
G36*
X145303995Y-30238091D02*
G01*
X145056699Y-30238091D01*
X145614183Y-31788178D01*
X145843649Y-31788178D01*
X145843649Y-32045000D01*
X145032152Y-32045000D01*
X145032152Y-31788178D01*
X145301308Y-31788178D01*
X145141451Y-31325460D01*
X144394190Y-31325460D01*
X144234333Y-31788178D01*
X144495184Y-31788178D01*
X144495184Y-32045000D01*
X143678192Y-32045000D01*
X143678192Y-31788178D01*
X143926831Y-31788178D01*
X144178932Y-31083660D01*
X144474790Y-31083660D01*
X145059508Y-31083660D01*
X144775331Y-30238091D01*
X144765683Y-30238091D01*
X144474790Y-31083660D01*
X144178932Y-31083660D01*
X144481507Y-30238091D01*
X144234333Y-30238091D01*
X144234333Y-29989452D01*
X145303995Y-29989452D01*
X145303995Y-30238091D01*
G37*
G36*
X147328524Y-30511032D02*
G01*
X147318330Y-30624068D01*
X147288805Y-30724444D01*
X147240352Y-30814626D01*
X147175264Y-30895740D01*
X147074493Y-30993153D01*
X146928210Y-31109916D01*
X146797173Y-31208346D01*
X146546336Y-31408014D01*
X146464221Y-31489074D01*
X146395394Y-31577519D01*
X146342747Y-31675389D01*
X146309420Y-31785369D01*
X147084036Y-31785369D01*
X147096371Y-31310317D01*
X147345010Y-31310317D01*
X147328524Y-32045000D01*
X146010223Y-32045000D01*
X146021809Y-31878927D01*
X146051260Y-31734328D01*
X146096929Y-31608171D01*
X146158684Y-31488076D01*
X146225487Y-31386899D01*
X146297086Y-31302501D01*
X146421178Y-31184701D01*
X146575767Y-31059113D01*
X146779344Y-30904630D01*
X146905786Y-30799688D01*
X146976081Y-30716563D01*
X147017883Y-30625919D01*
X147032135Y-30521657D01*
X147021308Y-30422388D01*
X146991102Y-30343484D01*
X146942620Y-30280345D01*
X146877994Y-30233443D01*
X146797327Y-30204064D01*
X146696057Y-30193517D01*
X146595339Y-30202342D01*
X146518029Y-30226344D01*
X146458959Y-30263331D01*
X146414567Y-30313318D01*
X146374016Y-30397475D01*
X146346031Y-30517661D01*
X146335310Y-30685177D01*
X146335310Y-30755397D01*
X146063468Y-30755397D01*
X146063468Y-30675774D01*
X146073904Y-30508521D01*
X146102977Y-30369652D01*
X146148191Y-30254502D01*
X146208304Y-30159200D01*
X146271004Y-30093296D01*
X146339979Y-30040966D01*
X146415910Y-30001175D01*
X146543488Y-29963908D01*
X146704239Y-29950373D01*
X146840822Y-29959950D01*
X146955211Y-29986803D01*
X147051186Y-30029019D01*
X147137775Y-30088078D01*
X147206563Y-30156455D01*
X147259525Y-30234794D01*
X147297773Y-30321742D01*
X147320746Y-30413388D01*
X147328524Y-30511032D01*
G37*
G36*
X154193995Y-30238091D02*
G01*
X153946699Y-30238091D01*
X154504183Y-31788178D01*
X154733649Y-31788178D01*
X154733649Y-32045000D01*
X153922152Y-32045000D01*
X153922152Y-31788178D01*
X154191308Y-31788178D01*
X154031451Y-31325460D01*
X153284190Y-31325460D01*
X153124333Y-31788178D01*
X153385184Y-31788178D01*
X153385184Y-32045000D01*
X152568192Y-32045000D01*
X152568192Y-31788178D01*
X152816831Y-31788178D01*
X153068932Y-31083660D01*
X153364790Y-31083660D01*
X153949508Y-31083660D01*
X153665331Y-30238091D01*
X153655683Y-30238091D01*
X153364790Y-31083660D01*
X153068932Y-31083660D01*
X153371507Y-30238091D01*
X153124333Y-30238091D01*
X153124333Y-29989452D01*
X154193995Y-29989452D01*
X154193995Y-30238091D01*
G37*
G36*
X156047798Y-31793551D02*
G01*
X156047798Y-32045000D01*
X155215785Y-32045000D01*
X155215785Y-31793551D01*
X155498618Y-31793551D01*
X155498618Y-30235404D01*
X155215785Y-30235404D01*
X155215785Y-29989452D01*
X155781329Y-29989452D01*
X155781329Y-31793551D01*
X156047798Y-31793551D01*
G37*
G36*
X163083995Y-30238091D02*
G01*
X162836699Y-30238091D01*
X163394183Y-31788178D01*
X163623649Y-31788178D01*
X163623649Y-32045000D01*
X162812152Y-32045000D01*
X162812152Y-31788178D01*
X163081308Y-31788178D01*
X162921451Y-31325460D01*
X162174190Y-31325460D01*
X162014333Y-31788178D01*
X162275184Y-31788178D01*
X162275184Y-32045000D01*
X161458192Y-32045000D01*
X161458192Y-31788178D01*
X161706831Y-31788178D01*
X161958932Y-31083660D01*
X162254790Y-31083660D01*
X162839508Y-31083660D01*
X162555331Y-30238091D01*
X162545683Y-30238091D01*
X162254790Y-31083660D01*
X161958932Y-31083660D01*
X162261507Y-30238091D01*
X162014333Y-30238091D01*
X162014333Y-29989452D01*
X163083995Y-29989452D01*
X163083995Y-30238091D01*
G37*
G36*
X164625453Y-29962290D02*
G01*
X164741879Y-29996590D01*
X164844869Y-30052522D01*
X164936667Y-30131254D01*
X165018398Y-30235771D01*
X165094332Y-30380089D01*
X165152063Y-30554304D01*
X165189387Y-30763941D01*
X165202801Y-31015394D01*
X165192177Y-31238489D01*
X165162379Y-31428591D01*
X165115973Y-31590219D01*
X165046978Y-31742294D01*
X164964898Y-31861383D01*
X164870143Y-31952676D01*
X164758606Y-32020802D01*
X164633888Y-32062040D01*
X164492421Y-32076263D01*
X164357021Y-32064224D01*
X164238961Y-32029635D01*
X164134959Y-31973353D01*
X164042682Y-31894292D01*
X163960949Y-31789521D01*
X163884759Y-31644374D01*
X163827045Y-31470556D01*
X163789866Y-31262893D01*
X163776545Y-31015394D01*
X164078429Y-31015394D01*
X164086832Y-31241614D01*
X164109242Y-31414926D01*
X164141989Y-31545068D01*
X164182233Y-31640655D01*
X164242636Y-31727773D01*
X164313045Y-31786857D01*
X164395079Y-31822198D01*
X164492421Y-31834462D01*
X164587689Y-31822433D01*
X164668544Y-31787669D01*
X164738488Y-31729396D01*
X164799068Y-31643342D01*
X164839222Y-31549186D01*
X164872222Y-31418066D01*
X164895003Y-31240181D01*
X164903604Y-31004403D01*
X164894686Y-30770749D01*
X164871121Y-30595531D01*
X164837059Y-30467253D01*
X164795648Y-30375844D01*
X164733830Y-30292572D01*
X164663513Y-30236093D01*
X164583184Y-30202437D01*
X164489612Y-30190830D01*
X164389659Y-30203909D01*
X164306643Y-30241484D01*
X164236445Y-30304396D01*
X164177470Y-30397704D01*
X164138407Y-30499465D01*
X164107185Y-30631825D01*
X164086188Y-30801356D01*
X164078429Y-31015394D01*
X163776545Y-31015394D01*
X163787163Y-30791293D01*
X163816927Y-30600516D01*
X163863251Y-30438492D01*
X163932521Y-30286136D01*
X164015516Y-30166574D01*
X164111891Y-30074692D01*
X164225235Y-30006043D01*
X164350937Y-29964615D01*
X164492421Y-29950373D01*
X164625453Y-29962290D01*
G37*
G36*
X32824211Y-52239327D02*
G01*
X32477997Y-52239327D01*
X33258475Y-54409450D01*
X33579727Y-54409450D01*
X33579727Y-54769000D01*
X32443632Y-54769000D01*
X32443632Y-54409450D01*
X32820450Y-54409450D01*
X32596650Y-53761644D01*
X31550484Y-53761644D01*
X31326685Y-54409450D01*
X31691877Y-54409450D01*
X31691877Y-54769000D01*
X30548087Y-54769000D01*
X30548087Y-54409450D01*
X30896182Y-54409450D01*
X31249124Y-53423124D01*
X31663325Y-53423124D01*
X32481929Y-53423124D01*
X32084082Y-52239327D01*
X32070575Y-52239327D01*
X31663325Y-53423124D01*
X31249124Y-53423124D01*
X31672728Y-52239327D01*
X31326685Y-52239327D01*
X31326685Y-51891233D01*
X32824211Y-51891233D01*
X32824211Y-52239327D01*
G37*
G36*
X34910729Y-54409279D02*
G01*
X34910729Y-54416972D01*
X35247369Y-54416972D01*
X35247369Y-54769000D01*
X34107341Y-54769000D01*
X34107341Y-54416972D01*
X34489972Y-54416972D01*
X34536619Y-54034209D01*
X34618286Y-53655533D01*
X34735655Y-53279509D01*
X34883682Y-52913857D01*
X35054287Y-52571458D01*
X35247369Y-52250782D01*
X34250785Y-52250782D01*
X34250785Y-52646236D01*
X33895167Y-52646236D01*
X33895167Y-51891233D01*
X35696849Y-51891233D01*
X35696849Y-52183762D01*
X35565636Y-52370248D01*
X35434489Y-52594263D01*
X35303789Y-52860632D01*
X35139933Y-53270522D01*
X35015875Y-53682827D01*
X34954764Y-53963638D01*
X34921111Y-54204104D01*
X34910729Y-54409279D01*
G37*
G36*
X31999896Y-73497714D02*
G01*
X32309134Y-73543452D01*
X32565393Y-73613728D01*
X32776598Y-73705081D01*
X32949532Y-73815479D01*
X33077377Y-73932183D01*
X33182988Y-74068868D01*
X33267440Y-74227902D01*
X33330471Y-74412678D01*
X33370488Y-74627455D01*
X33384651Y-74877203D01*
X33370424Y-75129274D01*
X33329954Y-75349415D01*
X33265741Y-75541970D01*
X33179136Y-75710674D01*
X33070275Y-75858526D01*
X32938077Y-75987653D01*
X32758457Y-76112049D01*
X32542513Y-76213722D01*
X32284115Y-76291126D01*
X31975932Y-76341095D01*
X31609640Y-76359000D01*
X30532871Y-76359000D01*
X30532871Y-75999450D01*
X30919263Y-75999450D01*
X31355237Y-75999450D01*
X31628789Y-75999450D01*
X31907864Y-75986211D01*
X32137708Y-75949635D01*
X32325830Y-75893657D01*
X32478846Y-75821046D01*
X32602292Y-75733249D01*
X32707651Y-75621810D01*
X32791916Y-75486931D01*
X32855207Y-75324697D01*
X32895827Y-75129877D01*
X32910380Y-74896180D01*
X32894302Y-74654432D01*
X32849892Y-74458015D01*
X32781297Y-74298811D01*
X32680625Y-74160231D01*
X32546049Y-74045786D01*
X32371824Y-73954307D01*
X32181379Y-73894943D01*
X31938623Y-73855364D01*
X31632550Y-73840782D01*
X31355237Y-73840782D01*
X31355237Y-75999450D01*
X30919263Y-75999450D01*
X30919263Y-73840782D01*
X30532871Y-73840782D01*
X30532871Y-73481233D01*
X31628789Y-73481233D01*
X31999896Y-73497714D01*
G37*
G36*
X34847812Y-75999279D02*
G01*
X34847812Y-76006972D01*
X35184452Y-76006972D01*
X35184452Y-76359000D01*
X34044424Y-76359000D01*
X34044424Y-76006972D01*
X34427055Y-76006972D01*
X34473702Y-75624209D01*
X34555369Y-75245533D01*
X34672739Y-74869509D01*
X34820765Y-74503857D01*
X34991370Y-74161458D01*
X35184452Y-73840782D01*
X34187868Y-73840782D01*
X34187868Y-74236236D01*
X33832250Y-74236236D01*
X33832250Y-73481233D01*
X35633932Y-73481233D01*
X35633932Y-73773762D01*
X35502719Y-73960248D01*
X35371572Y-74184263D01*
X35240872Y-74450632D01*
X35077016Y-74860522D01*
X34952958Y-75272827D01*
X34891847Y-75553638D01*
X34858194Y-75794104D01*
X34847812Y-75999279D01*
G37*
G36*
X35077135Y-96514938D02*
G01*
X35077135Y-96319348D01*
X35429162Y-96319348D01*
X35429162Y-97194715D01*
X35077135Y-97194715D01*
X35077135Y-96994509D01*
X34977979Y-96869308D01*
X34868912Y-96775635D01*
X34748798Y-96709626D01*
X34615296Y-96669489D01*
X34465062Y-96655646D01*
X34309366Y-96667914D01*
X34190935Y-96700996D01*
X34101580Y-96751219D01*
X34032280Y-96823096D01*
X33990290Y-96912891D01*
X33975404Y-97026309D01*
X33989574Y-97135027D01*
X34029404Y-97220458D01*
X34094912Y-97288235D01*
X34233440Y-97365877D01*
X34461301Y-97441083D01*
X34799822Y-97530842D01*
X35011810Y-97599445D01*
X35174281Y-97675888D01*
X35296147Y-97758403D01*
X35402861Y-97859792D01*
X35476288Y-97959376D01*
X35521828Y-98058455D01*
X35560812Y-98222786D01*
X35574487Y-98412021D01*
X35557910Y-98604954D01*
X35510772Y-98769561D01*
X35434970Y-98911089D01*
X35329658Y-99033326D01*
X35201169Y-99131091D01*
X35051858Y-99202343D01*
X34877745Y-99247008D01*
X34673646Y-99262768D01*
X34483716Y-99245232D01*
X34303378Y-99192974D01*
X34129626Y-99104725D01*
X33960188Y-98976906D01*
X33960188Y-99219000D01*
X33600638Y-99219000D01*
X33600638Y-98168560D01*
X33960188Y-98168560D01*
X33960188Y-98421595D01*
X34079150Y-98603639D01*
X34204575Y-98734714D01*
X34336997Y-98823625D01*
X34478688Y-98875968D01*
X34633468Y-98893644D01*
X34790778Y-98878182D01*
X34913846Y-98835569D01*
X35010286Y-98768494D01*
X35082783Y-98677008D01*
X35127942Y-98561841D01*
X35144155Y-98415953D01*
X35128431Y-98305191D01*
X35082272Y-98209524D01*
X35002885Y-98124767D01*
X34882224Y-98049620D01*
X34708011Y-97985793D01*
X34348461Y-97884579D01*
X34095902Y-97794857D01*
X33908987Y-97694044D01*
X33774685Y-97584355D01*
X33694960Y-97484448D01*
X33637448Y-97370018D01*
X33601712Y-97238273D01*
X33589183Y-97085465D01*
X33604743Y-96897088D01*
X33648554Y-96739575D01*
X33718185Y-96607210D01*
X33813838Y-96495789D01*
X33931573Y-96407412D01*
X34071197Y-96342354D01*
X34236994Y-96301170D01*
X34434459Y-96286522D01*
X34602117Y-96300519D01*
X34763755Y-96342376D01*
X34921516Y-96413039D01*
X35077135Y-96514938D01*
G37*
G36*
X36198698Y-97559565D02*
G01*
X36579277Y-98771400D01*
X36961908Y-97559565D01*
X36747683Y-97559565D01*
X36747683Y-97205657D01*
X37713663Y-97205657D01*
X37713663Y-97559565D01*
X37491744Y-97559565D01*
X37880017Y-98771400D01*
X38266409Y-97559565D01*
X37989096Y-97559565D01*
X37989096Y-97205657D01*
X38893869Y-97205657D01*
X38893869Y-97559565D01*
X38603049Y-97559565D01*
X38067571Y-99251826D01*
X37694515Y-99251826D01*
X37233579Y-97798923D01*
X36766831Y-99251826D01*
X36397707Y-99251826D01*
X35858297Y-97559565D01*
X35615348Y-97559565D01*
X35615348Y-97205657D01*
X36460795Y-97205657D01*
X36460795Y-97559565D01*
X36198698Y-97559565D01*
G37*
G36*
X39788042Y-96536480D02*
G01*
X39770461Y-96627121D01*
X39717260Y-96704886D01*
X39639520Y-96758094D01*
X39549026Y-96775667D01*
X39458710Y-96758026D01*
X39382501Y-96704886D01*
X39330907Y-96627279D01*
X39313771Y-96536480D01*
X39330899Y-96445828D01*
X39382501Y-96368246D01*
X39458710Y-96315106D01*
X39549026Y-96297464D01*
X39642696Y-96314872D01*
X39719141Y-96366365D01*
X39770648Y-96442928D01*
X39788042Y-96536480D01*
G37*
G36*
X40071168Y-98866972D02*
G01*
X40071168Y-99219000D01*
X39055607Y-99219000D01*
X39055607Y-98866972D01*
X39369166Y-98866972D01*
X39369166Y-97559565D01*
X39055607Y-97559565D01*
X39055607Y-97205657D01*
X39765132Y-97205657D01*
X39765132Y-98866972D01*
X40071168Y-98866972D01*
G37*
G36*
X41311385Y-97205657D02*
G01*
X41311385Y-97559565D01*
X40944141Y-97559565D01*
X40944141Y-98614621D01*
X40955494Y-98763992D01*
X40979532Y-98828162D01*
X41024661Y-98863497D01*
X41100921Y-98876889D01*
X41205494Y-98867905D01*
X41311385Y-98840472D01*
X41311385Y-99198312D01*
X41135271Y-99240237D01*
X41014923Y-99251826D01*
X40854013Y-99235606D01*
X40738645Y-99192449D01*
X40657083Y-99126505D01*
X40601708Y-99035509D01*
X40563177Y-98897954D01*
X40548175Y-98696686D01*
X40548175Y-97559565D01*
X40286249Y-97559565D01*
X40286249Y-97205657D01*
X40548175Y-97205657D01*
X40548175Y-96900646D01*
X40944141Y-96538190D01*
X40944141Y-97205657D01*
X41311385Y-97205657D01*
G37*
G36*
X42921751Y-97150946D02*
G01*
X43100126Y-97169419D01*
X43235592Y-97219838D01*
X43338325Y-97298877D01*
X43414193Y-97409067D01*
X43463765Y-97558317D01*
X43482191Y-97758745D01*
X43482191Y-98866972D01*
X43822592Y-98866972D01*
X43822592Y-99219000D01*
X43086224Y-99219000D01*
X43086224Y-97899795D01*
X43077426Y-97755050D01*
X43055130Y-97657712D01*
X43023991Y-97594956D01*
X42976449Y-97546920D01*
X42914026Y-97517387D01*
X42831821Y-97506735D01*
X42730046Y-97518961D01*
X42605022Y-97560089D01*
X42450541Y-97638743D01*
X42259926Y-97765755D01*
X42259926Y-98866972D01*
X42608021Y-98866972D01*
X42608021Y-99219000D01*
X41504410Y-99219000D01*
X41504410Y-98866972D01*
X41863960Y-98866972D01*
X41863960Y-96689327D01*
X41504410Y-96689327D01*
X41504410Y-96341233D01*
X42259926Y-96341233D01*
X42259926Y-97440399D01*
X42449691Y-97304415D01*
X42620914Y-97215787D01*
X42777057Y-97166529D01*
X42921751Y-97150946D01*
G37*
G36*
X45593328Y-97348588D02*
G01*
X45593328Y-97205657D01*
X45945184Y-97205657D01*
X45945184Y-97960660D01*
X45593157Y-97960660D01*
X45562095Y-97823498D01*
X45503534Y-97714828D01*
X45417229Y-97628808D01*
X45310419Y-97565499D01*
X45193428Y-97527449D01*
X45063321Y-97514429D01*
X44951468Y-97524842D01*
X44849253Y-97555396D01*
X44754549Y-97606240D01*
X44670734Y-97674204D01*
X44600483Y-97756513D01*
X44543060Y-97854830D01*
X44487456Y-98017402D01*
X44468517Y-98197112D01*
X44488610Y-98401337D01*
X44545364Y-98570705D01*
X44636751Y-98712415D01*
X44727817Y-98799989D01*
X44830383Y-98861621D01*
X44946791Y-98899224D01*
X45080589Y-98912279D01*
X45245080Y-98895713D01*
X45383156Y-98848637D01*
X45500321Y-98772280D01*
X45600024Y-98664229D01*
X45683258Y-98518706D01*
X46012205Y-98674973D01*
X45905640Y-98862522D01*
X45780923Y-99010152D01*
X45637532Y-99123291D01*
X45473086Y-99205026D01*
X45283539Y-99255870D01*
X45063492Y-99273710D01*
X44867343Y-99257413D01*
X44690675Y-99210043D01*
X44529895Y-99132318D01*
X44386113Y-99026263D01*
X44266513Y-98897609D01*
X44169319Y-98744045D01*
X44099263Y-98575529D01*
X44056675Y-98394119D01*
X44042117Y-98197112D01*
X44056879Y-98004018D01*
X44100068Y-97826454D01*
X44171200Y-97661634D01*
X44268974Y-97511483D01*
X44386741Y-97387035D01*
X44525963Y-97285842D01*
X44681268Y-97211263D01*
X44848010Y-97166276D01*
X45029127Y-97150946D01*
X45190875Y-97163811D01*
X45337092Y-97201216D01*
X45470535Y-97262515D01*
X45593328Y-97348588D01*
G37*
G36*
X47513036Y-97167408D02*
G01*
X47696152Y-97214751D01*
X47858852Y-97291484D01*
X48004073Y-97397545D01*
X48127638Y-97530313D01*
X48230882Y-97692921D01*
X48305769Y-97871550D01*
X48355585Y-98075606D01*
X48378258Y-98309439D01*
X46693178Y-98309439D01*
X46735972Y-98493512D01*
X46810691Y-98643549D01*
X46916978Y-98765929D01*
X47050067Y-98858295D01*
X47201331Y-98914028D01*
X47376032Y-98933309D01*
X47568864Y-98912496D01*
X47745157Y-98851072D01*
X47851396Y-98787185D01*
X47946084Y-98703642D01*
X48030163Y-98598378D01*
X48378258Y-98755329D01*
X48256359Y-98913220D01*
X48113252Y-99041562D01*
X47946901Y-99142747D01*
X47765183Y-99215097D01*
X47572520Y-99258844D01*
X47366458Y-99273710D01*
X47153118Y-99257923D01*
X46961746Y-99212250D01*
X46788750Y-99137960D01*
X46632031Y-99034858D01*
X46501818Y-98909296D01*
X46395690Y-98759432D01*
X46318286Y-98592550D01*
X46271264Y-98411273D01*
X46255153Y-98212328D01*
X46270095Y-98026313D01*
X46704633Y-98026313D01*
X47963143Y-98026313D01*
X47911301Y-97870302D01*
X47833150Y-97739456D01*
X47727889Y-97629833D01*
X47601343Y-97546290D01*
X47464210Y-97496727D01*
X47312773Y-97479893D01*
X47169347Y-97496669D01*
X47039928Y-97546115D01*
X46920739Y-97629833D01*
X46823180Y-97738793D01*
X46751225Y-97869532D01*
X46704633Y-98026313D01*
X46270095Y-98026313D01*
X46271031Y-98014659D01*
X46317415Y-97834088D01*
X46393810Y-97667447D01*
X46498090Y-97516698D01*
X46623989Y-97390817D01*
X46773363Y-97287722D01*
X46938662Y-97212069D01*
X47115017Y-97166458D01*
X47305251Y-97150946D01*
X47513036Y-97167408D01*
G37*
G36*
X49894420Y-97295758D02*
G01*
X49894420Y-97205657D01*
X50238754Y-97205657D01*
X50238754Y-97873124D01*
X49894420Y-97873124D01*
X49894420Y-97752419D01*
X49798963Y-97644576D01*
X49690726Y-97569832D01*
X49567169Y-97524628D01*
X49423911Y-97508958D01*
X49277183Y-97527262D01*
X49167627Y-97577517D01*
X49111115Y-97629106D01*
X49078958Y-97687192D01*
X49068122Y-97754471D01*
X49087205Y-97841663D01*
X49143691Y-97907147D01*
X49244311Y-97952572D01*
X49483237Y-98004600D01*
X49749096Y-98056062D01*
X49948816Y-98108833D01*
X50097698Y-98180103D01*
X50206163Y-98267164D01*
X50281611Y-98370155D01*
X50327706Y-98492079D01*
X50343900Y-98638385D01*
X50330014Y-98772145D01*
X50289883Y-98888724D01*
X50223654Y-98991828D01*
X50128649Y-99083762D01*
X50017801Y-99154498D01*
X49888119Y-99206885D01*
X49736175Y-99240064D01*
X49557780Y-99251826D01*
X49417559Y-99241589D01*
X49279441Y-99210793D01*
X49150080Y-99162994D01*
X49050854Y-99108553D01*
X49050854Y-99219000D01*
X48698998Y-99219000D01*
X48698998Y-98529648D01*
X49050854Y-98529648D01*
X49050854Y-98598378D01*
X49081276Y-98688099D01*
X49134208Y-98764974D01*
X49212421Y-98831240D01*
X49304554Y-98879443D01*
X49406737Y-98908816D01*
X49521364Y-98918947D01*
X49648972Y-98910318D01*
X49748491Y-98886907D01*
X49825519Y-98851414D01*
X49887435Y-98798654D01*
X49923783Y-98733061D01*
X49936479Y-98650353D01*
X49926590Y-98590526D01*
X49898003Y-98542879D01*
X49848429Y-98504345D01*
X49737322Y-98461108D01*
X49494692Y-98403986D01*
X49290041Y-98360046D01*
X49092792Y-98304964D01*
X48947916Y-98234103D01*
X48844323Y-98150095D01*
X48766596Y-98043315D01*
X48719296Y-97918350D01*
X48702759Y-97770029D01*
X48714835Y-97648842D01*
X48749662Y-97543297D01*
X48806880Y-97450144D01*
X48925076Y-97334430D01*
X49073764Y-97250622D01*
X49239174Y-97200401D01*
X49408524Y-97183773D01*
X49598456Y-97197330D01*
X49758751Y-97235488D01*
X49894420Y-97295758D01*
G37*
G36*
X39357766Y-62009300D02*
G01*
X39560924Y-62046494D01*
X39748559Y-62107004D01*
X39922693Y-62190573D01*
X40085553Y-62297454D01*
X40227307Y-62420900D01*
X40349639Y-62561649D01*
X40453555Y-62721093D01*
X40535185Y-62892380D01*
X40593895Y-63074140D01*
X40629730Y-63268060D01*
X40641964Y-63476096D01*
X40629220Y-63694909D01*
X40592067Y-63896699D01*
X40531516Y-64083727D01*
X40447742Y-64257942D01*
X40340708Y-64420224D01*
X40216299Y-64561402D01*
X40073662Y-64683148D01*
X39911238Y-64786411D01*
X39737341Y-64866749D01*
X39550913Y-64924870D01*
X39350110Y-64960538D01*
X39132812Y-64972768D01*
X38918748Y-64960051D01*
X38721330Y-64922966D01*
X38538301Y-64862485D01*
X38367721Y-64778717D01*
X38209259Y-64672056D01*
X38070448Y-64547746D01*
X37949825Y-64404835D01*
X37846605Y-64241700D01*
X37765983Y-64067254D01*
X37707828Y-63881419D01*
X37672245Y-63682466D01*
X37660290Y-63472164D01*
X38134518Y-63472164D01*
X38148909Y-63686004D01*
X38190476Y-63877994D01*
X38257787Y-64051411D01*
X38353102Y-64209668D01*
X38470821Y-64340540D01*
X38612550Y-64446864D01*
X38772214Y-64524326D01*
X38950070Y-64571822D01*
X39150080Y-64588256D01*
X39343021Y-64570629D01*
X39518399Y-64519051D01*
X39679916Y-64433528D01*
X39823591Y-64319141D01*
X39943267Y-64182944D01*
X40040491Y-64022688D01*
X40111123Y-63848242D01*
X40153433Y-63666758D01*
X40167693Y-63476096D01*
X40152482Y-63281962D01*
X40107553Y-63099637D01*
X40032798Y-62926599D01*
X39930768Y-62768638D01*
X39807279Y-62636295D01*
X39660767Y-62527213D01*
X39497343Y-62446559D01*
X39319994Y-62397737D01*
X39125289Y-62381034D01*
X38934322Y-62397440D01*
X38762756Y-62445119D01*
X38606908Y-62523452D01*
X38468425Y-62629740D01*
X38352521Y-62759747D01*
X38257787Y-62916170D01*
X38190022Y-63086852D01*
X38148681Y-63271294D01*
X38134518Y-63472164D01*
X37660290Y-63472164D01*
X37660076Y-63468403D01*
X37672525Y-63256373D01*
X37708863Y-63060307D01*
X37768176Y-62878052D01*
X37850366Y-62707757D01*
X37955092Y-62548884D01*
X38076845Y-62409684D01*
X38216460Y-62288652D01*
X38375415Y-62184931D01*
X38545785Y-62103591D01*
X38728188Y-62044856D01*
X38924464Y-62008857D01*
X39136744Y-61996522D01*
X39357766Y-62009300D01*
G37*
G36*
X43173346Y-62410782D02*
G01*
X42762163Y-62410782D01*
X42762163Y-62051233D01*
X43944249Y-62051233D01*
X43944249Y-62410782D01*
X43521441Y-62410782D01*
X43521441Y-64961826D01*
X43073841Y-64961826D01*
X41691036Y-62500371D01*
X41691036Y-64569450D01*
X42104099Y-64569450D01*
X42104099Y-64929000D01*
X40923893Y-64929000D01*
X40923893Y-64569450D01*
X41335247Y-64569450D01*
X41335247Y-62410782D01*
X40923893Y-62410782D01*
X40923893Y-62051233D01*
X41907142Y-62051233D01*
X43173346Y-64289059D01*
X43173346Y-62410782D01*
G37*
G36*
X48134755Y-69192152D02*
G01*
X48356659Y-69230573D01*
X48524442Y-69287358D01*
X48649108Y-69358694D01*
X48753922Y-69458156D01*
X48830155Y-69582465D01*
X48878552Y-69736981D01*
X48895989Y-69929563D01*
X48877668Y-70107801D01*
X48825116Y-70260510D01*
X48739039Y-70393062D01*
X48624011Y-70502489D01*
X48479874Y-70588541D01*
X48301013Y-70650885D01*
X48809820Y-71696025D01*
X49161847Y-71696025D01*
X49161847Y-72055575D01*
X48515239Y-72055575D01*
X47878376Y-70710041D01*
X47474715Y-70710041D01*
X47474715Y-71696025D01*
X47841959Y-71696025D01*
X47841959Y-72055575D01*
X46648418Y-72055575D01*
X46648418Y-71696025D01*
X47038742Y-71696025D01*
X47038742Y-70348610D01*
X47474715Y-70348610D01*
X47893592Y-70348610D01*
X48079776Y-70335701D01*
X48214729Y-70301770D01*
X48310588Y-70252012D01*
X48382949Y-70177200D01*
X48429244Y-70071009D01*
X48446509Y-69922211D01*
X48430993Y-69795670D01*
X48388411Y-69700980D01*
X48320162Y-69630194D01*
X48230641Y-69582637D01*
X48101693Y-69549912D01*
X47920434Y-69537357D01*
X47474715Y-69537357D01*
X47474715Y-70348610D01*
X47038742Y-70348610D01*
X47038742Y-69537357D01*
X46648418Y-69537357D01*
X46648418Y-69177808D01*
X47845891Y-69177808D01*
X48134755Y-69192152D01*
G37*
G36*
X51545169Y-69525902D02*
G01*
X51198955Y-69525902D01*
X51979433Y-71696025D01*
X52300685Y-71696025D01*
X52300685Y-72055575D01*
X51164590Y-72055575D01*
X51164590Y-71696025D01*
X51541408Y-71696025D01*
X51317608Y-71048219D01*
X50271443Y-71048219D01*
X50047643Y-71696025D01*
X50412835Y-71696025D01*
X50412835Y-72055575D01*
X49269046Y-72055575D01*
X49269046Y-71696025D01*
X49617140Y-71696025D01*
X49970082Y-70709699D01*
X50384283Y-70709699D01*
X51202887Y-70709699D01*
X50805040Y-69525902D01*
X50791533Y-69525902D01*
X50384283Y-70709699D01*
X49970082Y-70709699D01*
X50393686Y-69525902D01*
X50047643Y-69525902D01*
X50047643Y-69177808D01*
X51545169Y-69177808D01*
X51545169Y-69525902D01*
G37*
G36*
X54997395Y-69177808D02*
G01*
X55995860Y-69177808D01*
X55995860Y-69537357D01*
X55647765Y-69537357D01*
X55647765Y-71696025D01*
X55995860Y-71696025D01*
X55995860Y-72055575D01*
X54911397Y-72055575D01*
X54911397Y-71696025D01*
X55251799Y-71696025D01*
X55251799Y-69537357D01*
X54261027Y-72088401D01*
X54174859Y-72088401D01*
X53191781Y-69537357D01*
X53191781Y-71696025D01*
X53509272Y-71696025D01*
X53509272Y-72055575D01*
X52486017Y-72055575D01*
X52486017Y-71696025D01*
X52835993Y-71696025D01*
X52835993Y-69537357D01*
X52486017Y-69537357D01*
X52486017Y-69177808D01*
X53474907Y-69177808D01*
X54234185Y-71148579D01*
X54997395Y-69177808D01*
G37*
G36*
X50604211Y-52239327D02*
G01*
X50257997Y-52239327D01*
X51038475Y-54409450D01*
X51359727Y-54409450D01*
X51359727Y-54769000D01*
X50223632Y-54769000D01*
X50223632Y-54409450D01*
X50600450Y-54409450D01*
X50376650Y-53761644D01*
X49330484Y-53761644D01*
X49106685Y-54409450D01*
X49471877Y-54409450D01*
X49471877Y-54769000D01*
X48328087Y-54769000D01*
X48328087Y-54409450D01*
X48676182Y-54409450D01*
X49029124Y-53423124D01*
X49443325Y-53423124D01*
X50261929Y-53423124D01*
X49864082Y-52239327D01*
X49850575Y-52239327D01*
X49443325Y-53423124D01*
X49029124Y-53423124D01*
X49452728Y-52239327D01*
X49106685Y-52239327D01*
X49106685Y-51891233D01*
X50604211Y-51891233D01*
X50604211Y-52239327D01*
G37*
G36*
X52831410Y-51853390D02*
G01*
X52988298Y-51901377D01*
X53122823Y-51978825D01*
X53238688Y-52087164D01*
X53331323Y-52217656D01*
X53400331Y-52366653D01*
X53445598Y-52537344D01*
X53465394Y-52733773D01*
X53117299Y-52733773D01*
X53084984Y-52582082D01*
X53029099Y-52451188D01*
X52949919Y-52337635D01*
X52848545Y-52247861D01*
X52733172Y-52195032D01*
X52598918Y-52176923D01*
X52473464Y-52193994D01*
X52363312Y-52244245D01*
X52264181Y-52330385D01*
X52174399Y-52460221D01*
X52111167Y-52601464D01*
X52061208Y-52775471D01*
X52026978Y-52988284D01*
X52011807Y-53246683D01*
X52173819Y-53103842D01*
X52339166Y-53006690D01*
X52510296Y-52949755D01*
X52690729Y-52930730D01*
X52828326Y-52942289D01*
X52958716Y-52976614D01*
X53083789Y-53034167D01*
X53196324Y-53112729D01*
X53293864Y-53213019D01*
X53377344Y-53337639D01*
X53437494Y-53475096D01*
X53475099Y-53632998D01*
X53488304Y-53815329D01*
X53476616Y-53996859D01*
X53442550Y-54163629D01*
X53386919Y-54317810D01*
X53307900Y-54460075D01*
X53209127Y-54579567D01*
X53089431Y-54678727D01*
X52953257Y-54752113D01*
X52799396Y-54797129D01*
X52623709Y-54812768D01*
X52434941Y-54794852D01*
X52265077Y-54742580D01*
X52110115Y-54655988D01*
X51977178Y-54538278D01*
X51860392Y-54380347D01*
X51760139Y-54174366D01*
X51692693Y-53953975D01*
X51648842Y-53686930D01*
X52030785Y-53686930D01*
X52083077Y-53962776D01*
X52156320Y-54161525D01*
X52245262Y-54300501D01*
X52348055Y-54393117D01*
X52466668Y-54447735D01*
X52606612Y-54466554D01*
X52757598Y-54446432D01*
X52881652Y-54388786D01*
X52985310Y-54292335D01*
X53061474Y-54169415D01*
X53108478Y-54025575D01*
X53124993Y-53855507D01*
X53109863Y-53700335D01*
X53066991Y-53570528D01*
X52997791Y-53460908D01*
X52903400Y-53375686D01*
X52787336Y-53323954D01*
X52642857Y-53305667D01*
X52500407Y-53325933D01*
X52353746Y-53389633D01*
X52198315Y-53505424D01*
X52030785Y-53686930D01*
X51648842Y-53686930D01*
X51648789Y-53686605D01*
X51632937Y-53363797D01*
X51652018Y-52998378D01*
X51704917Y-52695882D01*
X51786373Y-52446541D01*
X51892983Y-52241892D01*
X52008311Y-52093950D01*
X52138853Y-51982210D01*
X52286317Y-51902579D01*
X52454058Y-51853589D01*
X52646789Y-51836522D01*
X52831410Y-51853390D01*
G37*
G36*
X49779896Y-73497714D02*
G01*
X50089134Y-73543452D01*
X50345393Y-73613728D01*
X50556598Y-73705081D01*
X50729532Y-73815479D01*
X50857377Y-73932183D01*
X50962988Y-74068868D01*
X51047440Y-74227902D01*
X51110471Y-74412678D01*
X51150488Y-74627455D01*
X51164651Y-74877203D01*
X51150424Y-75129274D01*
X51109954Y-75349415D01*
X51045741Y-75541970D01*
X50959136Y-75710674D01*
X50850275Y-75858526D01*
X50718077Y-75987653D01*
X50538457Y-76112049D01*
X50322513Y-76213722D01*
X50064115Y-76291126D01*
X49755932Y-76341095D01*
X49389640Y-76359000D01*
X48312871Y-76359000D01*
X48312871Y-75999450D01*
X48699263Y-75999450D01*
X49135237Y-75999450D01*
X49408789Y-75999450D01*
X49687864Y-75986211D01*
X49917708Y-75949635D01*
X50105830Y-75893657D01*
X50258846Y-75821046D01*
X50382292Y-75733249D01*
X50487651Y-75621810D01*
X50571916Y-75486931D01*
X50635207Y-75324697D01*
X50675827Y-75129877D01*
X50690380Y-74896180D01*
X50674302Y-74654432D01*
X50629892Y-74458015D01*
X50561297Y-74298811D01*
X50460625Y-74160231D01*
X50326049Y-74045786D01*
X50151824Y-73954307D01*
X49961379Y-73894943D01*
X49718623Y-73855364D01*
X49412550Y-73840782D01*
X49135237Y-73840782D01*
X49135237Y-75999450D01*
X48699263Y-75999450D01*
X48699263Y-73840782D01*
X48312871Y-73840782D01*
X48312871Y-73481233D01*
X49408789Y-73481233D01*
X49779896Y-73497714D01*
G37*
G36*
X52768493Y-73443390D02*
G01*
X52925381Y-73491377D01*
X53059906Y-73568825D01*
X53175771Y-73677164D01*
X53268406Y-73807656D01*
X53337414Y-73956653D01*
X53382681Y-74127344D01*
X53402477Y-74323773D01*
X53054382Y-74323773D01*
X53022067Y-74172082D01*
X52966182Y-74041188D01*
X52887002Y-73927635D01*
X52785628Y-73837861D01*
X52670255Y-73785032D01*
X52536001Y-73766923D01*
X52410547Y-73783994D01*
X52300395Y-73834245D01*
X52201264Y-73920385D01*
X52111482Y-74050221D01*
X52048250Y-74191464D01*
X51998292Y-74365471D01*
X51964061Y-74578284D01*
X51948890Y-74836683D01*
X52110902Y-74693842D01*
X52276249Y-74596690D01*
X52447379Y-74539755D01*
X52627812Y-74520730D01*
X52765409Y-74532289D01*
X52895799Y-74566614D01*
X53020872Y-74624167D01*
X53133407Y-74702729D01*
X53230947Y-74803019D01*
X53314427Y-74927639D01*
X53374577Y-75065096D01*
X53412182Y-75222998D01*
X53425387Y-75405329D01*
X53413700Y-75586859D01*
X53379633Y-75753629D01*
X53324002Y-75907810D01*
X53244983Y-76050075D01*
X53146211Y-76169567D01*
X53026514Y-76268727D01*
X52890340Y-76342113D01*
X52736479Y-76387129D01*
X52560792Y-76402768D01*
X52372024Y-76384852D01*
X52202160Y-76332580D01*
X52047198Y-76245988D01*
X51914261Y-76128278D01*
X51797475Y-75970347D01*
X51697222Y-75764366D01*
X51629776Y-75543975D01*
X51585925Y-75276930D01*
X51967868Y-75276930D01*
X52020160Y-75552776D01*
X52093403Y-75751525D01*
X52182345Y-75890501D01*
X52285138Y-75983117D01*
X52403751Y-76037735D01*
X52543695Y-76056554D01*
X52694681Y-76036432D01*
X52818736Y-75978786D01*
X52922393Y-75882335D01*
X52998557Y-75759415D01*
X53045561Y-75615575D01*
X53062076Y-75445507D01*
X53046946Y-75290335D01*
X53004074Y-75160528D01*
X52934874Y-75050908D01*
X52840483Y-74965686D01*
X52724419Y-74913954D01*
X52579940Y-74895667D01*
X52437490Y-74915933D01*
X52290829Y-74979633D01*
X52135398Y-75095424D01*
X51967868Y-75276930D01*
X51585925Y-75276930D01*
X51585872Y-75276605D01*
X51570020Y-74953797D01*
X51589101Y-74588378D01*
X51642000Y-74285882D01*
X51723456Y-74036541D01*
X51830066Y-73831892D01*
X51945394Y-73683950D01*
X52075936Y-73572210D01*
X52223400Y-73492579D01*
X52391141Y-73443589D01*
X52583872Y-73426522D01*
X52768493Y-73443390D01*
G37*
G36*
X54498293Y-96341233D02*
G01*
X55496758Y-96341233D01*
X55496758Y-96700782D01*
X55148663Y-96700782D01*
X55148663Y-98859450D01*
X55496758Y-98859450D01*
X55496758Y-99219000D01*
X54412295Y-99219000D01*
X54412295Y-98859450D01*
X54752697Y-98859450D01*
X54752697Y-96700782D01*
X53761926Y-99251826D01*
X53675757Y-99251826D01*
X52692679Y-96700782D01*
X52692679Y-98859450D01*
X53010170Y-98859450D01*
X53010170Y-99219000D01*
X51986915Y-99219000D01*
X51986915Y-98859450D01*
X52336891Y-98859450D01*
X52336891Y-96700782D01*
X51986915Y-96700782D01*
X51986915Y-96341233D01*
X52975806Y-96341233D01*
X53735083Y-98312004D01*
X54498293Y-96341233D01*
G37*
G36*
X56908878Y-97164772D02*
G01*
X57070168Y-97202451D01*
X57196292Y-97259831D01*
X57293995Y-97335081D01*
X57370485Y-97431876D01*
X57428570Y-97556340D01*
X57466595Y-97714985D01*
X57480523Y-97916037D01*
X57480523Y-98866972D01*
X57817163Y-98866972D01*
X57817163Y-99219000D01*
X57132428Y-99219000D01*
X57132428Y-98971435D01*
X56979660Y-99097725D01*
X56823855Y-99184076D01*
X56662817Y-99234848D01*
X56493513Y-99251826D01*
X56372100Y-99242085D01*
X56259504Y-99213452D01*
X56153967Y-99165999D01*
X56014927Y-99065242D01*
X55907257Y-98936215D01*
X55855820Y-98836746D01*
X55825032Y-98730833D01*
X55814591Y-98616501D01*
X55814607Y-98616330D01*
X56191409Y-98616330D01*
X56202748Y-98707351D01*
X56235613Y-98785342D01*
X56290743Y-98853466D01*
X56362048Y-98905049D01*
X56446320Y-98936594D01*
X56547198Y-98947670D01*
X56686421Y-98933372D01*
X56822121Y-98890150D01*
X56956772Y-98815787D01*
X57092250Y-98705919D01*
X57092250Y-98471690D01*
X56912524Y-98356767D01*
X56741832Y-98292462D01*
X56575921Y-98271826D01*
X56474937Y-98282992D01*
X56385577Y-98315557D01*
X56305104Y-98369963D01*
X56241491Y-98441560D01*
X56204169Y-98522561D01*
X56191409Y-98616330D01*
X55814607Y-98616330D01*
X55826216Y-98493762D01*
X55860254Y-98382315D01*
X55916831Y-98279690D01*
X55992412Y-98189288D01*
X56083924Y-98113558D01*
X56193290Y-98051787D01*
X56369642Y-97991231D01*
X56543265Y-97971602D01*
X56734516Y-97990539D01*
X56916399Y-98047133D01*
X57092250Y-98143256D01*
X57092250Y-97925441D01*
X57078945Y-97769974D01*
X57044179Y-97660891D01*
X56992745Y-97586065D01*
X56919500Y-97532847D01*
X56814209Y-97497321D01*
X56665680Y-97483825D01*
X56513734Y-97499677D01*
X56397086Y-97543152D01*
X56299754Y-97616375D01*
X56218251Y-97723012D01*
X55839553Y-97628637D01*
X55936902Y-97479232D01*
X56051841Y-97360668D01*
X56185596Y-97269429D01*
X56335330Y-97205171D01*
X56506739Y-97165027D01*
X56703977Y-97150946D01*
X56908878Y-97164772D01*
G37*
G36*
X59956510Y-97867824D02*
G01*
X59956510Y-98866972D01*
X60293150Y-98866972D01*
X60293150Y-99219000D01*
X59560715Y-99219000D01*
X59560715Y-97892956D01*
X59544596Y-97718989D01*
X59506175Y-97621798D01*
X59463731Y-97577300D01*
X59405879Y-97549657D01*
X59327341Y-97539561D01*
X59203042Y-97553178D01*
X59065260Y-97596760D01*
X58910278Y-97676157D01*
X58734417Y-97799265D01*
X58734417Y-98866972D01*
X59080460Y-98866972D01*
X59080460Y-99219000D01*
X57990355Y-99219000D01*
X57990355Y-98866972D01*
X58344092Y-98866972D01*
X58344092Y-97559565D01*
X57990355Y-97559565D01*
X57990355Y-97205657D01*
X58734417Y-97205657D01*
X58734417Y-97453221D01*
X58929249Y-97328074D01*
X59107934Y-97245291D01*
X59273407Y-97198664D01*
X59428726Y-97183773D01*
X59562085Y-97195506D01*
X59669799Y-97228126D01*
X59757041Y-97279503D01*
X59827428Y-97349956D01*
X59894053Y-97468317D01*
X59939298Y-97635712D01*
X59956510Y-97867824D01*
G37*
G36*
X60731859Y-99219000D02*
G01*
X60731859Y-98704722D01*
X61242547Y-98704722D01*
X61242547Y-99219000D01*
X60731859Y-99219000D01*
G37*
G36*
X64196491Y-96355577D02*
G01*
X64418394Y-96393998D01*
X64586177Y-96450783D01*
X64710844Y-96522119D01*
X64815658Y-96621581D01*
X64891890Y-96745890D01*
X64940288Y-96900406D01*
X64957725Y-97092988D01*
X64939404Y-97271226D01*
X64886852Y-97423935D01*
X64800774Y-97556487D01*
X64685747Y-97665914D01*
X64541609Y-97751966D01*
X64362749Y-97814310D01*
X64871556Y-98859450D01*
X65223583Y-98859450D01*
X65223583Y-99219000D01*
X64576974Y-99219000D01*
X63940111Y-97873466D01*
X63536451Y-97873466D01*
X63536451Y-98859450D01*
X63903695Y-98859450D01*
X63903695Y-99219000D01*
X62710153Y-99219000D01*
X62710153Y-98859450D01*
X63100478Y-98859450D01*
X63100478Y-97512035D01*
X63536451Y-97512035D01*
X63955327Y-97512035D01*
X64141512Y-97499126D01*
X64276464Y-97465195D01*
X64372323Y-97415437D01*
X64444684Y-97340625D01*
X64490979Y-97234434D01*
X64508244Y-97085636D01*
X64492728Y-96959095D01*
X64450146Y-96864405D01*
X64381898Y-96793619D01*
X64292376Y-96746062D01*
X64163429Y-96713337D01*
X63982170Y-96700782D01*
X63536451Y-96700782D01*
X63536451Y-97512035D01*
X63100478Y-97512035D01*
X63100478Y-96700782D01*
X62710153Y-96700782D01*
X62710153Y-96341233D01*
X63907627Y-96341233D01*
X64196491Y-96355577D01*
G37*
G36*
X65915157Y-96700782D02*
G01*
X66452515Y-98594446D01*
X66984232Y-96700782D01*
X66640069Y-96700782D01*
X66640069Y-96341233D01*
X67963548Y-96341233D01*
X67963548Y-96700782D01*
X67623147Y-96700782D01*
X68149050Y-98594446D01*
X68688461Y-96700782D01*
X68348060Y-96700782D01*
X68348060Y-96341233D01*
X69405851Y-96341233D01*
X69405851Y-96700782D01*
X69072972Y-96700782D01*
X68344298Y-99251826D01*
X67936877Y-99251826D01*
X67286507Y-96958776D01*
X66640069Y-99251826D01*
X66236409Y-99251826D01*
X65500041Y-96700782D01*
X65159469Y-96700782D01*
X65159469Y-96341233D01*
X66261200Y-96341233D01*
X66261200Y-96700782D01*
X65915157Y-96700782D01*
G37*
G36*
X59677766Y-62009300D02*
G01*
X59880924Y-62046494D01*
X60068559Y-62107004D01*
X60242693Y-62190573D01*
X60405553Y-62297454D01*
X60547307Y-62420900D01*
X60669639Y-62561649D01*
X60773555Y-62721093D01*
X60855185Y-62892380D01*
X60913895Y-63074140D01*
X60949730Y-63268060D01*
X60961964Y-63476096D01*
X60949220Y-63694909D01*
X60912067Y-63896699D01*
X60851516Y-64083727D01*
X60767742Y-64257942D01*
X60660708Y-64420224D01*
X60536299Y-64561402D01*
X60393662Y-64683148D01*
X60231238Y-64786411D01*
X60057341Y-64866749D01*
X59870913Y-64924870D01*
X59670110Y-64960538D01*
X59452812Y-64972768D01*
X59238748Y-64960051D01*
X59041330Y-64922966D01*
X58858301Y-64862485D01*
X58687721Y-64778717D01*
X58529259Y-64672056D01*
X58390448Y-64547746D01*
X58269825Y-64404835D01*
X58166605Y-64241700D01*
X58085983Y-64067254D01*
X58027828Y-63881419D01*
X57992245Y-63682466D01*
X57980290Y-63472164D01*
X58454518Y-63472164D01*
X58468909Y-63686004D01*
X58510476Y-63877994D01*
X58577787Y-64051411D01*
X58673102Y-64209668D01*
X58790821Y-64340540D01*
X58932550Y-64446864D01*
X59092214Y-64524326D01*
X59270070Y-64571822D01*
X59470080Y-64588256D01*
X59663021Y-64570629D01*
X59838399Y-64519051D01*
X59999916Y-64433528D01*
X60143591Y-64319141D01*
X60263267Y-64182944D01*
X60360491Y-64022688D01*
X60431123Y-63848242D01*
X60473433Y-63666758D01*
X60487693Y-63476096D01*
X60472482Y-63281962D01*
X60427553Y-63099637D01*
X60352798Y-62926599D01*
X60250768Y-62768638D01*
X60127279Y-62636295D01*
X59980767Y-62527213D01*
X59817343Y-62446559D01*
X59639994Y-62397737D01*
X59445289Y-62381034D01*
X59254322Y-62397440D01*
X59082756Y-62445119D01*
X58926908Y-62523452D01*
X58788425Y-62629740D01*
X58672521Y-62759747D01*
X58577787Y-62916170D01*
X58510022Y-63086852D01*
X58468681Y-63271294D01*
X58454518Y-63472164D01*
X57980290Y-63472164D01*
X57980076Y-63468403D01*
X57992525Y-63256373D01*
X58028863Y-63060307D01*
X58088176Y-62878052D01*
X58170366Y-62707757D01*
X58275092Y-62548884D01*
X58396845Y-62409684D01*
X58536460Y-62288652D01*
X58695415Y-62184931D01*
X58865785Y-62103591D01*
X59048188Y-62044856D01*
X59244464Y-62008857D01*
X59456744Y-61996522D01*
X59677766Y-62009300D01*
G37*
G36*
X63108834Y-62893773D02*
G01*
X63108834Y-62410782D01*
X62028133Y-62410782D01*
X62028133Y-63265803D01*
X62959748Y-63265803D01*
X62959748Y-63625353D01*
X62028133Y-63625353D01*
X62028133Y-64569450D01*
X62395376Y-64569450D01*
X62395376Y-64929000D01*
X61228677Y-64929000D01*
X61228677Y-64569450D01*
X61592159Y-64569450D01*
X61592159Y-62410782D01*
X61228677Y-62410782D01*
X61228677Y-62051233D01*
X63464623Y-62051233D01*
X63464623Y-62893773D01*
X63108834Y-62893773D01*
G37*
G36*
X65502414Y-62893773D02*
G01*
X65502414Y-62410782D01*
X64421713Y-62410782D01*
X64421713Y-63265803D01*
X65353328Y-63265803D01*
X65353328Y-63625353D01*
X64421713Y-63625353D01*
X64421713Y-64569450D01*
X64788956Y-64569450D01*
X64788956Y-64929000D01*
X63622257Y-64929000D01*
X63622257Y-64569450D01*
X63985739Y-64569450D01*
X63985739Y-62410782D01*
X63622257Y-62410782D01*
X63622257Y-62051233D01*
X65858203Y-62051233D01*
X65858203Y-62893773D01*
X65502414Y-62893773D01*
G37*
G36*
X68384211Y-52239327D02*
G01*
X68037997Y-52239327D01*
X68818475Y-54409450D01*
X69139727Y-54409450D01*
X69139727Y-54769000D01*
X68003632Y-54769000D01*
X68003632Y-54409450D01*
X68380450Y-54409450D01*
X68156650Y-53761644D01*
X67110484Y-53761644D01*
X66886685Y-54409450D01*
X67251877Y-54409450D01*
X67251877Y-54769000D01*
X66108087Y-54769000D01*
X66108087Y-54409450D01*
X66456182Y-54409450D01*
X66809124Y-53423124D01*
X67223325Y-53423124D01*
X68041929Y-53423124D01*
X67644082Y-52239327D01*
X67630575Y-52239327D01*
X67223325Y-53423124D01*
X66809124Y-53423124D01*
X67232728Y-52239327D01*
X66886685Y-52239327D01*
X66886685Y-51891233D01*
X68384211Y-51891233D01*
X68384211Y-52239327D01*
G37*
G36*
X70790101Y-52657178D02*
G01*
X70790101Y-52250782D01*
X69910289Y-52250782D01*
X69847201Y-53101016D01*
X69980261Y-53006948D01*
X70121697Y-52940644D01*
X70273495Y-52900607D01*
X70438244Y-52886962D01*
X70614146Y-52902015D01*
X70769370Y-52945431D01*
X70907728Y-53016215D01*
X71030689Y-53112079D01*
X71132197Y-53226340D01*
X71213764Y-53360891D01*
X71272208Y-53507653D01*
X71307778Y-53665462D01*
X71319937Y-53836529D01*
X71305992Y-54026127D01*
X71265740Y-54195371D01*
X71200429Y-54347558D01*
X71108910Y-54484486D01*
X70994566Y-54598391D01*
X70855069Y-54691208D01*
X70700340Y-54757436D01*
X70526270Y-54798478D01*
X70329166Y-54812768D01*
X70110779Y-54795604D01*
X69926351Y-54747145D01*
X69769860Y-54670088D01*
X69636737Y-54564519D01*
X69529100Y-54433494D01*
X69445876Y-54274475D01*
X69387717Y-54082195D01*
X69357543Y-53849865D01*
X69728548Y-53849865D01*
X69768670Y-54039789D01*
X69833748Y-54191090D01*
X69921744Y-54310971D01*
X70035719Y-54402892D01*
X70170733Y-54458535D01*
X70333098Y-54478009D01*
X70495055Y-54457919D01*
X70631343Y-54400119D01*
X70748042Y-54303790D01*
X70835416Y-54178937D01*
X70889551Y-54028067D01*
X70908754Y-53844052D01*
X70889982Y-53653076D01*
X70838446Y-53505056D01*
X70757616Y-53390297D01*
X70648221Y-53302372D01*
X70521285Y-53249607D01*
X70371395Y-53231295D01*
X70241311Y-53244849D01*
X70120947Y-53284990D01*
X70007572Y-53352792D01*
X69899366Y-53451697D01*
X69795568Y-53587255D01*
X69657840Y-53470058D01*
X69495345Y-53369268D01*
X69611946Y-51891233D01*
X71147941Y-51891233D01*
X71147941Y-52657178D01*
X70790101Y-52657178D01*
G37*
G36*
X67559896Y-73497714D02*
G01*
X67869134Y-73543452D01*
X68125393Y-73613728D01*
X68336598Y-73705081D01*
X68509532Y-73815479D01*
X68637377Y-73932183D01*
X68742988Y-74068868D01*
X68827440Y-74227902D01*
X68890471Y-74412678D01*
X68930488Y-74627455D01*
X68944651Y-74877203D01*
X68930424Y-75129274D01*
X68889954Y-75349415D01*
X68825741Y-75541970D01*
X68739136Y-75710674D01*
X68630275Y-75858526D01*
X68498077Y-75987653D01*
X68318457Y-76112049D01*
X68102513Y-76213722D01*
X67844115Y-76291126D01*
X67535932Y-76341095D01*
X67169640Y-76359000D01*
X66092871Y-76359000D01*
X66092871Y-75999450D01*
X66479263Y-75999450D01*
X66915237Y-75999450D01*
X67188789Y-75999450D01*
X67467864Y-75986211D01*
X67697708Y-75949635D01*
X67885830Y-75893657D01*
X68038846Y-75821046D01*
X68162292Y-75733249D01*
X68267651Y-75621810D01*
X68351916Y-75486931D01*
X68415207Y-75324697D01*
X68455827Y-75129877D01*
X68470380Y-74896180D01*
X68454302Y-74654432D01*
X68409892Y-74458015D01*
X68341297Y-74298811D01*
X68240625Y-74160231D01*
X68106049Y-74045786D01*
X67931824Y-73954307D01*
X67741379Y-73894943D01*
X67498623Y-73855364D01*
X67192550Y-73840782D01*
X66915237Y-73840782D01*
X66915237Y-75999450D01*
X66479263Y-75999450D01*
X66479263Y-73840782D01*
X66092871Y-73840782D01*
X66092871Y-73481233D01*
X67188789Y-73481233D01*
X67559896Y-73497714D01*
G37*
G36*
X70727184Y-74247178D02*
G01*
X70727184Y-73840782D01*
X69847372Y-73840782D01*
X69784284Y-74691016D01*
X69917344Y-74596948D01*
X70058781Y-74530644D01*
X70210578Y-74490607D01*
X70375327Y-74476962D01*
X70551229Y-74492015D01*
X70706453Y-74535431D01*
X70844811Y-74606215D01*
X70967772Y-74702079D01*
X71069280Y-74816340D01*
X71150847Y-74950891D01*
X71209291Y-75097653D01*
X71244861Y-75255462D01*
X71257020Y-75426529D01*
X71243075Y-75616127D01*
X71202823Y-75785371D01*
X71137512Y-75937558D01*
X71045993Y-76074486D01*
X70931649Y-76188391D01*
X70792152Y-76281208D01*
X70637423Y-76347436D01*
X70463353Y-76388478D01*
X70266249Y-76402768D01*
X70047862Y-76385604D01*
X69863434Y-76337145D01*
X69706943Y-76260088D01*
X69573820Y-76154519D01*
X69466183Y-76023494D01*
X69382959Y-75864475D01*
X69324800Y-75672195D01*
X69294626Y-75439865D01*
X69665631Y-75439865D01*
X69705753Y-75629789D01*
X69770831Y-75781090D01*
X69858827Y-75900971D01*
X69972802Y-75992892D01*
X70107816Y-76048535D01*
X70270181Y-76068009D01*
X70432138Y-76047919D01*
X70568426Y-75990119D01*
X70685125Y-75893790D01*
X70772499Y-75768937D01*
X70826634Y-75618067D01*
X70845837Y-75434052D01*
X70827065Y-75243076D01*
X70775529Y-75095056D01*
X70694699Y-74980297D01*
X70585304Y-74892372D01*
X70458368Y-74839607D01*
X70308478Y-74821295D01*
X70178394Y-74834849D01*
X70058030Y-74874990D01*
X69944655Y-74942792D01*
X69836449Y-75041697D01*
X69732651Y-75177255D01*
X69594923Y-75060058D01*
X69432428Y-74959268D01*
X69549030Y-73481233D01*
X71085024Y-73481233D01*
X71085024Y-74247178D01*
X70727184Y-74247178D01*
G37*
G36*
X74776235Y-96652740D02*
G01*
X74776235Y-96341233D01*
X75143478Y-96341233D01*
X75143478Y-97260367D01*
X74768541Y-97260367D01*
X74660841Y-97086265D01*
X74531834Y-96942749D01*
X74380268Y-96826616D01*
X74210261Y-96740097D01*
X74030882Y-96688477D01*
X73838977Y-96671034D01*
X73653575Y-96688131D01*
X73485176Y-96738158D01*
X73330170Y-96821145D01*
X73192580Y-96931820D01*
X73076676Y-97064774D01*
X72981221Y-97222412D01*
X72911733Y-97393660D01*
X72869999Y-97572851D01*
X72855900Y-97762164D01*
X72870739Y-97957709D01*
X72914438Y-98140380D01*
X72986863Y-98312688D01*
X73086078Y-98470720D01*
X73205830Y-98604348D01*
X73347438Y-98715835D01*
X73506122Y-98799660D01*
X73675264Y-98849798D01*
X73858126Y-98866801D01*
X74027978Y-98853361D01*
X74185054Y-98813909D01*
X74331817Y-98748652D01*
X74470198Y-98656337D01*
X74590901Y-98543681D01*
X74695776Y-98408553D01*
X74785163Y-98248230D01*
X74858471Y-98059139D01*
X75225715Y-98253703D01*
X75134385Y-98485516D01*
X75016378Y-98684445D01*
X74871672Y-98854569D01*
X74698614Y-98998619D01*
X74504201Y-99112917D01*
X74293652Y-99195082D01*
X74064120Y-99245447D01*
X73812135Y-99262768D01*
X73604208Y-99249732D01*
X73412375Y-99211681D01*
X73234318Y-99149491D01*
X73068073Y-99063075D01*
X72913967Y-98954111D01*
X72779086Y-98828931D01*
X72662071Y-98686671D01*
X72562173Y-98525887D01*
X72462297Y-98295205D01*
X72401975Y-98049472D01*
X72381458Y-97785074D01*
X72393591Y-97566870D01*
X72428945Y-97365549D01*
X72486492Y-97178973D01*
X72565935Y-97005280D01*
X72668245Y-96842183D01*
X72786791Y-96700520D01*
X72922200Y-96578478D01*
X73075767Y-96474931D01*
X73241449Y-96393627D01*
X73419369Y-96334902D01*
X73611426Y-96298879D01*
X73819829Y-96286522D01*
X74005485Y-96297334D01*
X74177673Y-96328928D01*
X74338210Y-96380556D01*
X74491180Y-96451923D01*
X74636936Y-96542296D01*
X74776235Y-96652740D01*
G37*
G36*
X76247090Y-97559565D02*
G01*
X76683234Y-98696857D01*
X77106043Y-97559565D01*
X76838133Y-97559565D01*
X76838133Y-97205657D01*
X77798300Y-97205657D01*
X77798300Y-97559565D01*
X77501838Y-97559565D01*
X76509187Y-100116250D01*
X75839668Y-100116250D01*
X75839668Y-99771916D01*
X76235635Y-99771916D01*
X76474822Y-99181899D01*
X75816758Y-97559565D01*
X75480118Y-97559565D01*
X75480118Y-97205657D01*
X76486277Y-97205657D01*
X76486277Y-97559565D01*
X76247090Y-97559565D01*
G37*
G36*
X79445425Y-97348588D02*
G01*
X79445425Y-97205657D01*
X79797281Y-97205657D01*
X79797281Y-97960660D01*
X79445254Y-97960660D01*
X79414192Y-97823498D01*
X79355631Y-97714828D01*
X79269326Y-97628808D01*
X79162516Y-97565499D01*
X79045525Y-97527449D01*
X78915418Y-97514429D01*
X78803565Y-97524842D01*
X78701350Y-97555396D01*
X78606646Y-97606240D01*
X78522831Y-97674204D01*
X78452580Y-97756513D01*
X78395157Y-97854830D01*
X78339553Y-98017402D01*
X78320614Y-98197112D01*
X78340707Y-98401337D01*
X78397461Y-98570705D01*
X78488848Y-98712415D01*
X78579914Y-98799989D01*
X78682480Y-98861621D01*
X78798888Y-98899224D01*
X78932686Y-98912279D01*
X79097177Y-98895713D01*
X79235253Y-98848637D01*
X79352418Y-98772280D01*
X79452121Y-98664229D01*
X79535355Y-98518706D01*
X79864302Y-98674973D01*
X79757737Y-98862522D01*
X79633020Y-99010152D01*
X79489629Y-99123291D01*
X79325183Y-99205026D01*
X79135636Y-99255870D01*
X78915589Y-99273710D01*
X78719440Y-99257413D01*
X78542772Y-99210043D01*
X78381992Y-99132318D01*
X78238210Y-99026263D01*
X78118610Y-98897609D01*
X78021416Y-98744045D01*
X77951360Y-98575529D01*
X77908772Y-98394119D01*
X77894214Y-98197112D01*
X77908976Y-98004018D01*
X77952165Y-97826454D01*
X78023297Y-97661634D01*
X78121071Y-97511483D01*
X78238838Y-97387035D01*
X78378060Y-97285842D01*
X78533365Y-97211263D01*
X78700107Y-97166276D01*
X78881224Y-97150946D01*
X79042972Y-97163811D01*
X79189189Y-97201216D01*
X79322632Y-97262515D01*
X79445425Y-97348588D01*
G37*
G36*
X81090327Y-98866972D02*
G01*
X81090327Y-99219000D01*
X80032536Y-99219000D01*
X80032536Y-98866972D01*
X80388325Y-98866972D01*
X80388325Y-96689327D01*
X80032536Y-96689327D01*
X80032536Y-96341233D01*
X80784291Y-96341233D01*
X80784291Y-98866972D01*
X81090327Y-98866972D01*
G37*
G36*
X82620737Y-97167408D02*
G01*
X82803853Y-97214751D01*
X82966552Y-97291484D01*
X83111774Y-97397545D01*
X83235338Y-97530313D01*
X83338583Y-97692921D01*
X83413470Y-97871550D01*
X83463286Y-98075606D01*
X83485959Y-98309439D01*
X81800879Y-98309439D01*
X81843672Y-98493512D01*
X81918392Y-98643549D01*
X82024678Y-98765929D01*
X82157767Y-98858295D01*
X82309032Y-98914028D01*
X82483733Y-98933309D01*
X82676565Y-98912496D01*
X82852857Y-98851072D01*
X82959097Y-98787185D01*
X83053784Y-98703642D01*
X83137864Y-98598378D01*
X83485959Y-98755329D01*
X83364059Y-98913220D01*
X83220953Y-99041562D01*
X83054602Y-99142747D01*
X82872883Y-99215097D01*
X82680220Y-99258844D01*
X82474159Y-99273710D01*
X82260819Y-99257923D01*
X82069447Y-99212250D01*
X81896451Y-99137960D01*
X81739732Y-99034858D01*
X81609519Y-98909296D01*
X81503391Y-98759432D01*
X81425987Y-98592550D01*
X81378964Y-98411273D01*
X81362854Y-98212328D01*
X81377796Y-98026313D01*
X81812334Y-98026313D01*
X83070844Y-98026313D01*
X83019002Y-97870302D01*
X82940851Y-97739456D01*
X82835589Y-97629833D01*
X82709044Y-97546290D01*
X82571910Y-97496727D01*
X82420474Y-97479893D01*
X82277047Y-97496669D01*
X82147629Y-97546115D01*
X82028440Y-97629833D01*
X81930881Y-97738793D01*
X81858926Y-97869532D01*
X81812334Y-98026313D01*
X81377796Y-98026313D01*
X81378732Y-98014659D01*
X81425115Y-97834088D01*
X81501510Y-97667447D01*
X81605791Y-97516698D01*
X81731689Y-97390817D01*
X81881064Y-97287722D01*
X82046362Y-97212069D01*
X82222718Y-97166458D01*
X82412951Y-97150946D01*
X82620737Y-97167408D01*
G37*
G36*
X86164211Y-52239327D02*
G01*
X85817997Y-52239327D01*
X86598475Y-54409450D01*
X86919727Y-54409450D01*
X86919727Y-54769000D01*
X85783632Y-54769000D01*
X85783632Y-54409450D01*
X86160450Y-54409450D01*
X85936650Y-53761644D01*
X84890484Y-53761644D01*
X84666685Y-54409450D01*
X85031877Y-54409450D01*
X85031877Y-54769000D01*
X83888087Y-54769000D01*
X83888087Y-54409450D01*
X84236182Y-54409450D01*
X84589124Y-53423124D01*
X85003325Y-53423124D01*
X85821929Y-53423124D01*
X85424082Y-52239327D01*
X85410575Y-52239327D01*
X85003325Y-53423124D01*
X84589124Y-53423124D01*
X85012728Y-52239327D01*
X84666685Y-52239327D01*
X84666685Y-51891233D01*
X86164211Y-51891233D01*
X86164211Y-52239327D01*
G37*
G36*
X88644815Y-53641965D02*
G01*
X89103869Y-53641965D01*
X89103869Y-53990060D01*
X88644815Y-53990060D01*
X88644815Y-54416972D01*
X88908792Y-54416972D01*
X88908792Y-54769000D01*
X87956147Y-54769000D01*
X87956147Y-54416972D01*
X88262184Y-54416972D01*
X88262184Y-53990060D01*
X87294323Y-53990060D01*
X87248029Y-53867756D01*
X87185074Y-53760621D01*
X87105059Y-53666756D01*
X87121553Y-53641965D01*
X87504787Y-53641965D01*
X88262184Y-53641965D01*
X88262184Y-52505186D01*
X87504787Y-53641965D01*
X87121553Y-53641965D01*
X88308175Y-51858406D01*
X88644815Y-51858406D01*
X88644815Y-53641965D01*
G37*
G36*
X85339896Y-73497714D02*
G01*
X85649134Y-73543452D01*
X85905393Y-73613728D01*
X86116598Y-73705081D01*
X86289532Y-73815479D01*
X86417377Y-73932183D01*
X86522988Y-74068868D01*
X86607440Y-74227902D01*
X86670471Y-74412678D01*
X86710488Y-74627455D01*
X86724651Y-74877203D01*
X86710424Y-75129274D01*
X86669954Y-75349415D01*
X86605741Y-75541970D01*
X86519136Y-75710674D01*
X86410275Y-75858526D01*
X86278077Y-75987653D01*
X86098457Y-76112049D01*
X85882513Y-76213722D01*
X85624115Y-76291126D01*
X85315932Y-76341095D01*
X84949640Y-76359000D01*
X83872871Y-76359000D01*
X83872871Y-75999450D01*
X84259263Y-75999450D01*
X84695237Y-75999450D01*
X84968789Y-75999450D01*
X85247864Y-75986211D01*
X85477708Y-75949635D01*
X85665830Y-75893657D01*
X85818846Y-75821046D01*
X85942292Y-75733249D01*
X86047651Y-75621810D01*
X86131916Y-75486931D01*
X86195207Y-75324697D01*
X86235827Y-75129877D01*
X86250380Y-74896180D01*
X86234302Y-74654432D01*
X86189892Y-74458015D01*
X86121297Y-74298811D01*
X86020625Y-74160231D01*
X85886049Y-74045786D01*
X85711824Y-73954307D01*
X85521379Y-73894943D01*
X85278623Y-73855364D01*
X84972550Y-73840782D01*
X84695237Y-73840782D01*
X84695237Y-75999450D01*
X84259263Y-75999450D01*
X84259263Y-73840782D01*
X83872871Y-73840782D01*
X83872871Y-73481233D01*
X84968789Y-73481233D01*
X85339896Y-73497714D01*
G37*
G36*
X88581898Y-75231965D02*
G01*
X89040952Y-75231965D01*
X89040952Y-75580060D01*
X88581898Y-75580060D01*
X88581898Y-76006972D01*
X88845875Y-76006972D01*
X88845875Y-76359000D01*
X87893230Y-76359000D01*
X87893230Y-76006972D01*
X88199267Y-76006972D01*
X88199267Y-75580060D01*
X87231406Y-75580060D01*
X87185112Y-75457756D01*
X87122157Y-75350621D01*
X87042142Y-75256756D01*
X87058636Y-75231965D01*
X87441870Y-75231965D01*
X88199267Y-75231965D01*
X88199267Y-74095186D01*
X87441870Y-75231965D01*
X87058636Y-75231965D01*
X88245258Y-73448406D01*
X88581898Y-73448406D01*
X88581898Y-75231965D01*
G37*
G36*
X92862135Y-96514938D02*
G01*
X92862135Y-96319348D01*
X93214162Y-96319348D01*
X93214162Y-97194715D01*
X92862135Y-97194715D01*
X92862135Y-96994509D01*
X92762979Y-96869308D01*
X92653912Y-96775635D01*
X92533798Y-96709626D01*
X92400296Y-96669489D01*
X92250062Y-96655646D01*
X92094366Y-96667914D01*
X91975935Y-96700996D01*
X91886580Y-96751219D01*
X91817280Y-96823096D01*
X91775290Y-96912891D01*
X91760404Y-97026309D01*
X91774574Y-97135027D01*
X91814404Y-97220458D01*
X91879912Y-97288235D01*
X92018440Y-97365877D01*
X92246301Y-97441083D01*
X92584822Y-97530842D01*
X92796810Y-97599445D01*
X92959281Y-97675888D01*
X93081147Y-97758403D01*
X93187861Y-97859792D01*
X93261288Y-97959376D01*
X93306828Y-98058455D01*
X93345812Y-98222786D01*
X93359487Y-98412021D01*
X93342910Y-98604954D01*
X93295772Y-98769561D01*
X93219970Y-98911089D01*
X93114658Y-99033326D01*
X92986169Y-99131091D01*
X92836858Y-99202343D01*
X92662745Y-99247008D01*
X92458646Y-99262768D01*
X92268716Y-99245232D01*
X92088378Y-99192974D01*
X91914626Y-99104725D01*
X91745188Y-98976906D01*
X91745188Y-99219000D01*
X91385638Y-99219000D01*
X91385638Y-98168560D01*
X91745188Y-98168560D01*
X91745188Y-98421595D01*
X91864150Y-98603639D01*
X91989575Y-98734714D01*
X92121997Y-98823625D01*
X92263688Y-98875968D01*
X92418468Y-98893644D01*
X92575778Y-98878182D01*
X92698846Y-98835569D01*
X92795286Y-98768494D01*
X92867783Y-98677008D01*
X92912942Y-98561841D01*
X92929155Y-98415953D01*
X92913431Y-98305191D01*
X92867272Y-98209524D01*
X92787885Y-98124767D01*
X92667224Y-98049620D01*
X92493011Y-97985793D01*
X92133461Y-97884579D01*
X91880902Y-97794857D01*
X91693987Y-97694044D01*
X91559685Y-97584355D01*
X91479960Y-97484448D01*
X91422448Y-97370018D01*
X91386712Y-97238273D01*
X91374183Y-97085465D01*
X91389743Y-96897088D01*
X91433554Y-96739575D01*
X91503185Y-96607210D01*
X91598838Y-96495789D01*
X91716573Y-96407412D01*
X91856197Y-96342354D01*
X92021994Y-96301170D01*
X92219459Y-96286522D01*
X92387117Y-96300519D01*
X92548755Y-96342376D01*
X92706516Y-96413039D01*
X92862135Y-96514938D01*
G37*
G36*
X94492505Y-97205657D02*
G01*
X94492505Y-97559565D01*
X94125261Y-97559565D01*
X94125261Y-98614621D01*
X94136614Y-98763992D01*
X94160652Y-98828162D01*
X94205781Y-98863497D01*
X94282041Y-98876889D01*
X94386614Y-98867905D01*
X94492505Y-98840472D01*
X94492505Y-99198312D01*
X94316391Y-99240237D01*
X94196043Y-99251826D01*
X94035133Y-99235606D01*
X93919765Y-99192449D01*
X93838203Y-99126505D01*
X93782828Y-99035509D01*
X93744297Y-98897954D01*
X93729295Y-98696686D01*
X93729295Y-97559565D01*
X93467369Y-97559565D01*
X93467369Y-97205657D01*
X93729295Y-97205657D01*
X93729295Y-96900646D01*
X94125261Y-96538190D01*
X94125261Y-97205657D01*
X94492505Y-97205657D01*
G37*
G36*
X96021888Y-97167408D02*
G01*
X96205004Y-97214751D01*
X96367704Y-97291484D01*
X96512925Y-97397545D01*
X96636490Y-97530313D01*
X96739734Y-97692921D01*
X96814622Y-97871550D01*
X96864437Y-98075606D01*
X96887110Y-98309439D01*
X95202030Y-98309439D01*
X95244824Y-98493512D01*
X95319543Y-98643549D01*
X95425830Y-98765929D01*
X95558919Y-98858295D01*
X95710183Y-98914028D01*
X95884884Y-98933309D01*
X96077716Y-98912496D01*
X96254009Y-98851072D01*
X96360248Y-98787185D01*
X96454936Y-98703642D01*
X96539016Y-98598378D01*
X96887110Y-98755329D01*
X96765211Y-98913220D01*
X96622104Y-99041562D01*
X96455753Y-99142747D01*
X96274035Y-99215097D01*
X96081372Y-99258844D01*
X95875310Y-99273710D01*
X95661971Y-99257923D01*
X95470598Y-99212250D01*
X95297602Y-99137960D01*
X95140883Y-99034858D01*
X95010670Y-98909296D01*
X94904542Y-98759432D01*
X94827139Y-98592550D01*
X94780116Y-98411273D01*
X94764005Y-98212328D01*
X94778947Y-98026313D01*
X95213485Y-98026313D01*
X96471995Y-98026313D01*
X96420153Y-97870302D01*
X96342003Y-97739456D01*
X96236741Y-97629833D01*
X96110195Y-97546290D01*
X95973062Y-97496727D01*
X95821625Y-97479893D01*
X95678199Y-97496669D01*
X95548780Y-97546115D01*
X95429591Y-97629833D01*
X95332032Y-97738793D01*
X95260077Y-97869532D01*
X95213485Y-98026313D01*
X94778947Y-98026313D01*
X94779883Y-98014659D01*
X94826267Y-97834088D01*
X94902662Y-97667447D01*
X95006942Y-97516698D01*
X95132841Y-97390817D01*
X95282215Y-97287722D01*
X95447514Y-97212069D01*
X95623869Y-97166458D01*
X95814103Y-97150946D01*
X96021888Y-97167408D01*
G37*
G36*
X98742190Y-97199869D02*
G01*
X98909997Y-97246752D01*
X99063217Y-97323968D01*
X99200067Y-97428212D01*
X99314625Y-97553670D01*
X99408405Y-97702496D01*
X99476644Y-97865226D01*
X99517846Y-98037966D01*
X99531845Y-98223099D01*
X99517266Y-98406663D01*
X99474023Y-98580682D01*
X99401737Y-98747464D01*
X99303492Y-98899968D01*
X99185619Y-99027588D01*
X99046803Y-99132660D01*
X98891958Y-99210881D01*
X98726890Y-99257788D01*
X98548597Y-99273710D01*
X98353800Y-99254528D01*
X98173555Y-99197844D01*
X98004106Y-99102611D01*
X97842833Y-98964767D01*
X97842833Y-99764223D01*
X98235038Y-99764223D01*
X98235038Y-100116250D01*
X97083555Y-100116250D01*
X97083555Y-99764223D01*
X97446866Y-99764223D01*
X97446866Y-98243445D01*
X97839071Y-98243445D01*
X97852537Y-98397685D01*
X97890716Y-98528196D01*
X97951980Y-98639453D01*
X98037055Y-98734642D01*
X98140709Y-98811048D01*
X98257776Y-98866184D01*
X98390765Y-98900353D01*
X98542955Y-98912279D01*
X98649515Y-98901548D01*
X98747558Y-98869884D01*
X98839246Y-98816707D01*
X98919775Y-98746487D01*
X98988494Y-98660543D01*
X99045778Y-98556833D01*
X99101739Y-98388087D01*
X99120491Y-98209080D01*
X99099675Y-98030077D01*
X99038255Y-97867995D01*
X98940288Y-97727541D01*
X98812575Y-97619575D01*
X98713478Y-97568325D01*
X98606423Y-97537445D01*
X98489270Y-97526909D01*
X98367323Y-97538090D01*
X98255869Y-97570882D01*
X98152630Y-97625388D01*
X98060729Y-97697992D01*
X97983949Y-97784435D01*
X97921308Y-97886117D01*
X97859976Y-98055165D01*
X97839071Y-98243445D01*
X97446866Y-98243445D01*
X97446866Y-97559565D01*
X97110226Y-97559565D01*
X97110226Y-97205657D01*
X97842833Y-97205657D01*
X97842833Y-97530842D01*
X97948454Y-97421363D01*
X98057904Y-97335047D01*
X98171779Y-97269600D01*
X98294122Y-97222015D01*
X98421814Y-97193426D01*
X98556290Y-97183773D01*
X98742190Y-97199869D01*
G37*
G36*
X103944211Y-52239327D02*
G01*
X103597997Y-52239327D01*
X104378475Y-54409450D01*
X104699727Y-54409450D01*
X104699727Y-54769000D01*
X103563632Y-54769000D01*
X103563632Y-54409450D01*
X103940450Y-54409450D01*
X103716650Y-53761644D01*
X102670484Y-53761644D01*
X102446685Y-54409450D01*
X102811877Y-54409450D01*
X102811877Y-54769000D01*
X101668087Y-54769000D01*
X101668087Y-54409450D01*
X102016182Y-54409450D01*
X102369124Y-53423124D01*
X102783325Y-53423124D01*
X103601929Y-53423124D01*
X103204082Y-52239327D01*
X103190575Y-52239327D01*
X102783325Y-53423124D01*
X102369124Y-53423124D01*
X102792728Y-52239327D01*
X102446685Y-52239327D01*
X102446685Y-51891233D01*
X103944211Y-51891233D01*
X103944211Y-52239327D01*
G37*
G36*
X106757522Y-52598877D02*
G01*
X106742994Y-52753986D01*
X106701474Y-52886914D01*
X106634082Y-53002025D01*
X106545471Y-53104264D01*
X106451014Y-53184360D01*
X106350101Y-53244631D01*
X106530357Y-53314157D01*
X106664145Y-53400299D01*
X106760429Y-53501941D01*
X106828887Y-53624545D01*
X106872160Y-53773188D01*
X106887630Y-53954157D01*
X106870734Y-54140790D01*
X106822646Y-54299663D01*
X106745041Y-54436121D01*
X106640675Y-54554668D01*
X106518687Y-54649451D01*
X106376943Y-54721983D01*
X106224228Y-54772179D01*
X106064666Y-54802507D01*
X105896859Y-54812768D01*
X105662025Y-54795165D01*
X105466315Y-54745823D01*
X105302805Y-54668082D01*
X105166133Y-54562639D01*
X105058344Y-54430433D01*
X104977481Y-54263942D01*
X104925114Y-54055481D01*
X104906088Y-53795154D01*
X105284787Y-53795154D01*
X105312918Y-54001251D01*
X105373800Y-54163896D01*
X105464476Y-54292164D01*
X105553192Y-54368615D01*
X105656543Y-54423786D01*
X105777410Y-54458188D01*
X105919769Y-54470315D01*
X106086487Y-54453296D01*
X106220559Y-54405755D01*
X106329071Y-54329778D01*
X106412529Y-54227700D01*
X106462730Y-54108103D01*
X106480209Y-53965612D01*
X106460480Y-53821953D01*
X106402721Y-53697789D01*
X106304110Y-53587939D01*
X106213420Y-53526960D01*
X106097136Y-53480056D01*
X105949366Y-53449157D01*
X105762990Y-53437827D01*
X105634762Y-53441588D01*
X105634762Y-53083919D01*
X105688276Y-53083919D01*
X105878608Y-53076698D01*
X106027822Y-53057248D01*
X106160154Y-53012614D01*
X106268890Y-52933979D01*
X106321337Y-52863534D01*
X106354997Y-52770149D01*
X106367369Y-52646749D01*
X106354700Y-52525803D01*
X106317550Y-52416636D01*
X106255383Y-52316435D01*
X106171176Y-52238893D01*
X106060857Y-52190642D01*
X105916008Y-52173162D01*
X105763313Y-52190998D01*
X105648765Y-52239820D01*
X105562955Y-52317461D01*
X105502803Y-52420040D01*
X105459537Y-52562196D01*
X105437805Y-52755657D01*
X105034145Y-52755657D01*
X105034145Y-52724882D01*
X105045327Y-52542455D01*
X105076464Y-52391016D01*
X105124837Y-52265507D01*
X105189043Y-52161707D01*
X105301234Y-52037811D01*
X105415816Y-51951778D01*
X105534232Y-51897900D01*
X105722172Y-51851011D01*
X105885233Y-51836522D01*
X106103720Y-51852139D01*
X106280578Y-51895300D01*
X106423494Y-51962175D01*
X106538510Y-52051431D01*
X106633871Y-52165559D01*
X106701623Y-52292901D01*
X106743128Y-52436108D01*
X106757522Y-52598877D01*
G37*
G36*
X103119896Y-73497714D02*
G01*
X103429134Y-73543452D01*
X103685393Y-73613728D01*
X103896598Y-73705081D01*
X104069532Y-73815479D01*
X104197377Y-73932183D01*
X104302988Y-74068868D01*
X104387440Y-74227902D01*
X104450471Y-74412678D01*
X104490488Y-74627455D01*
X104504651Y-74877203D01*
X104490424Y-75129274D01*
X104449954Y-75349415D01*
X104385741Y-75541970D01*
X104299136Y-75710674D01*
X104190275Y-75858526D01*
X104058077Y-75987653D01*
X103878457Y-76112049D01*
X103662513Y-76213722D01*
X103404115Y-76291126D01*
X103095932Y-76341095D01*
X102729640Y-76359000D01*
X101652871Y-76359000D01*
X101652871Y-75999450D01*
X102039263Y-75999450D01*
X102475237Y-75999450D01*
X102748789Y-75999450D01*
X103027864Y-75986211D01*
X103257708Y-75949635D01*
X103445830Y-75893657D01*
X103598846Y-75821046D01*
X103722292Y-75733249D01*
X103827651Y-75621810D01*
X103911916Y-75486931D01*
X103975207Y-75324697D01*
X104015827Y-75129877D01*
X104030380Y-74896180D01*
X104014302Y-74654432D01*
X103969892Y-74458015D01*
X103901297Y-74298811D01*
X103800625Y-74160231D01*
X103666049Y-74045786D01*
X103491824Y-73954307D01*
X103301379Y-73894943D01*
X103058623Y-73855364D01*
X102752550Y-73840782D01*
X102475237Y-73840782D01*
X102475237Y-75999450D01*
X102039263Y-75999450D01*
X102039263Y-73840782D01*
X101652871Y-73840782D01*
X101652871Y-73481233D01*
X102748789Y-73481233D01*
X103119896Y-73497714D01*
G37*
G36*
X106694605Y-74188877D02*
G01*
X106680077Y-74343986D01*
X106638557Y-74476914D01*
X106571165Y-74592025D01*
X106482554Y-74694264D01*
X106388097Y-74774360D01*
X106287184Y-74834631D01*
X106467440Y-74904157D01*
X106601228Y-74990299D01*
X106697512Y-75091941D01*
X106765970Y-75214545D01*
X106809243Y-75363188D01*
X106824713Y-75544157D01*
X106807817Y-75730790D01*
X106759729Y-75889663D01*
X106682124Y-76026121D01*
X106577758Y-76144668D01*
X106455770Y-76239451D01*
X106314026Y-76311983D01*
X106161311Y-76362179D01*
X106001749Y-76392507D01*
X105833942Y-76402768D01*
X105599108Y-76385165D01*
X105403398Y-76335823D01*
X105239888Y-76258082D01*
X105103217Y-76152639D01*
X104995427Y-76020433D01*
X104914564Y-75853942D01*
X104862197Y-75645481D01*
X104843171Y-75385154D01*
X105221870Y-75385154D01*
X105250002Y-75591251D01*
X105310884Y-75753896D01*
X105401559Y-75882164D01*
X105490275Y-75958615D01*
X105593626Y-76013786D01*
X105714493Y-76048188D01*
X105856852Y-76060315D01*
X106023570Y-76043296D01*
X106157642Y-75995755D01*
X106266154Y-75919778D01*
X106349612Y-75817700D01*
X106399813Y-75698103D01*
X106417292Y-75555612D01*
X106397563Y-75411953D01*
X106339804Y-75287789D01*
X106241193Y-75177939D01*
X106150503Y-75116960D01*
X106034219Y-75070056D01*
X105886449Y-75039157D01*
X105700073Y-75027827D01*
X105571845Y-75031588D01*
X105571845Y-74673919D01*
X105625359Y-74673919D01*
X105815691Y-74666698D01*
X105964905Y-74647248D01*
X106097237Y-74602614D01*
X106205973Y-74523979D01*
X106258420Y-74453534D01*
X106292080Y-74360149D01*
X106304452Y-74236749D01*
X106291783Y-74115803D01*
X106254633Y-74006636D01*
X106192466Y-73906435D01*
X106108259Y-73828893D01*
X105997940Y-73780642D01*
X105853091Y-73763162D01*
X105700396Y-73780998D01*
X105585848Y-73829820D01*
X105500038Y-73907461D01*
X105439886Y-74010040D01*
X105396620Y-74152196D01*
X105374888Y-74345657D01*
X104971228Y-74345657D01*
X104971228Y-74314882D01*
X104982410Y-74132455D01*
X105013547Y-73981016D01*
X105061920Y-73855507D01*
X105126127Y-73751707D01*
X105238317Y-73627811D01*
X105352899Y-73541778D01*
X105471315Y-73487900D01*
X105659255Y-73441011D01*
X105822316Y-73426522D01*
X106040803Y-73442139D01*
X106217661Y-73485300D01*
X106360577Y-73552175D01*
X106475593Y-73641431D01*
X106570954Y-73755559D01*
X106638706Y-73882901D01*
X106680211Y-74026108D01*
X106694605Y-74188877D01*
G37*
G36*
X109276658Y-96355577D02*
G01*
X109498562Y-96393998D01*
X109666345Y-96450783D01*
X109791011Y-96522119D01*
X109895825Y-96621581D01*
X109972058Y-96745890D01*
X110020455Y-96900406D01*
X110037892Y-97092988D01*
X110019571Y-97271226D01*
X109967019Y-97423935D01*
X109880942Y-97556487D01*
X109765914Y-97665914D01*
X109621777Y-97751966D01*
X109442916Y-97814310D01*
X109951723Y-98859450D01*
X110303750Y-98859450D01*
X110303750Y-99219000D01*
X109657142Y-99219000D01*
X109020279Y-97873466D01*
X108616618Y-97873466D01*
X108616618Y-98859450D01*
X108983862Y-98859450D01*
X108983862Y-99219000D01*
X107790321Y-99219000D01*
X107790321Y-98859450D01*
X108180645Y-98859450D01*
X108180645Y-97512035D01*
X108616618Y-97512035D01*
X109035495Y-97512035D01*
X109221679Y-97499126D01*
X109356632Y-97465195D01*
X109452491Y-97415437D01*
X109524852Y-97340625D01*
X109571147Y-97234434D01*
X109588412Y-97085636D01*
X109572896Y-96959095D01*
X109530314Y-96864405D01*
X109462065Y-96793619D01*
X109372544Y-96746062D01*
X109243596Y-96713337D01*
X109062337Y-96700782D01*
X108616618Y-96700782D01*
X108616618Y-97512035D01*
X108180645Y-97512035D01*
X108180645Y-96700782D01*
X107790321Y-96700782D01*
X107790321Y-96341233D01*
X108987794Y-96341233D01*
X109276658Y-96355577D01*
G37*
G36*
X111675671Y-97167408D02*
G01*
X111858787Y-97214751D01*
X112021486Y-97291484D01*
X112166707Y-97397545D01*
X112290272Y-97530313D01*
X112393517Y-97692921D01*
X112468404Y-97871550D01*
X112518219Y-98075606D01*
X112540893Y-98309439D01*
X110855812Y-98309439D01*
X110898606Y-98493512D01*
X110973325Y-98643549D01*
X111079612Y-98765929D01*
X111212701Y-98858295D01*
X111363965Y-98914028D01*
X111538667Y-98933309D01*
X111731499Y-98912496D01*
X111907791Y-98851072D01*
X112014031Y-98787185D01*
X112108718Y-98703642D01*
X112192798Y-98598378D01*
X112540893Y-98755329D01*
X112418993Y-98913220D01*
X112275886Y-99041562D01*
X112109535Y-99142747D01*
X111927817Y-99215097D01*
X111735154Y-99258844D01*
X111529092Y-99273710D01*
X111315753Y-99257923D01*
X111124381Y-99212250D01*
X110951385Y-99137960D01*
X110794666Y-99034858D01*
X110664453Y-98909296D01*
X110558325Y-98759432D01*
X110480921Y-98592550D01*
X110433898Y-98411273D01*
X110417787Y-98212328D01*
X110432729Y-98026313D01*
X110867267Y-98026313D01*
X112125778Y-98026313D01*
X112073936Y-97870302D01*
X111995785Y-97739456D01*
X111890523Y-97629833D01*
X111763978Y-97546290D01*
X111626844Y-97496727D01*
X111475408Y-97479893D01*
X111331981Y-97496669D01*
X111202563Y-97546115D01*
X111083374Y-97629833D01*
X110985815Y-97738793D01*
X110913859Y-97869532D01*
X110867267Y-98026313D01*
X110432729Y-98026313D01*
X110433665Y-98014659D01*
X110480049Y-97834088D01*
X110556444Y-97667447D01*
X110660725Y-97516698D01*
X110786623Y-97390817D01*
X110935997Y-97287722D01*
X111101296Y-97212069D01*
X111277652Y-97166458D01*
X111467885Y-97150946D01*
X111675671Y-97167408D01*
G37*
G36*
X114057055Y-97295758D02*
G01*
X114057055Y-97205657D01*
X114401388Y-97205657D01*
X114401388Y-97873124D01*
X114057055Y-97873124D01*
X114057055Y-97752419D01*
X113961597Y-97644576D01*
X113853360Y-97569832D01*
X113729803Y-97524628D01*
X113586545Y-97508958D01*
X113439817Y-97527262D01*
X113330261Y-97577517D01*
X113273749Y-97629106D01*
X113241593Y-97687192D01*
X113230757Y-97754471D01*
X113249839Y-97841663D01*
X113306325Y-97907147D01*
X113406946Y-97952572D01*
X113645872Y-98004600D01*
X113911730Y-98056062D01*
X114111450Y-98108833D01*
X114260333Y-98180103D01*
X114368797Y-98267164D01*
X114444246Y-98370155D01*
X114490340Y-98492079D01*
X114506535Y-98638385D01*
X114492648Y-98772145D01*
X114452517Y-98888724D01*
X114386288Y-98991828D01*
X114291284Y-99083762D01*
X114180435Y-99154498D01*
X114050754Y-99206885D01*
X113898809Y-99240064D01*
X113720415Y-99251826D01*
X113580193Y-99241589D01*
X113442076Y-99210793D01*
X113312715Y-99162994D01*
X113213489Y-99108553D01*
X113213489Y-99219000D01*
X112861632Y-99219000D01*
X112861632Y-98529648D01*
X113213489Y-98529648D01*
X113213489Y-98598378D01*
X113243910Y-98688099D01*
X113296842Y-98764974D01*
X113375055Y-98831240D01*
X113467188Y-98879443D01*
X113569372Y-98908816D01*
X113683998Y-98918947D01*
X113811607Y-98910318D01*
X113911126Y-98886907D01*
X113988154Y-98851414D01*
X114050069Y-98798654D01*
X114086417Y-98733061D01*
X114099113Y-98650353D01*
X114089224Y-98590526D01*
X114060638Y-98542879D01*
X114011064Y-98504345D01*
X113899956Y-98461108D01*
X113657327Y-98403986D01*
X113452676Y-98360046D01*
X113255426Y-98304964D01*
X113110550Y-98234103D01*
X113006957Y-98150095D01*
X112929230Y-98043315D01*
X112881930Y-97918350D01*
X112865394Y-97770029D01*
X112877469Y-97648842D01*
X112912296Y-97543297D01*
X112969515Y-97450144D01*
X113087710Y-97334430D01*
X113236399Y-97250622D01*
X113401808Y-97200401D01*
X113571158Y-97183773D01*
X113761090Y-97197330D01*
X113921385Y-97235488D01*
X114057055Y-97295758D01*
G37*
G36*
X116063444Y-97167408D02*
G01*
X116246561Y-97214751D01*
X116409260Y-97291484D01*
X116554481Y-97397545D01*
X116678046Y-97530313D01*
X116781290Y-97692921D01*
X116856178Y-97871550D01*
X116905993Y-98075606D01*
X116928667Y-98309439D01*
X115243586Y-98309439D01*
X115286380Y-98493512D01*
X115361099Y-98643549D01*
X115467386Y-98765929D01*
X115600475Y-98858295D01*
X115751739Y-98914028D01*
X115926441Y-98933309D01*
X116119273Y-98912496D01*
X116295565Y-98851072D01*
X116401804Y-98787185D01*
X116496492Y-98703642D01*
X116580572Y-98598378D01*
X116928667Y-98755329D01*
X116806767Y-98913220D01*
X116663660Y-99041562D01*
X116497309Y-99142747D01*
X116315591Y-99215097D01*
X116122928Y-99258844D01*
X115916866Y-99273710D01*
X115703527Y-99257923D01*
X115512155Y-99212250D01*
X115339159Y-99137960D01*
X115182440Y-99034858D01*
X115052227Y-98909296D01*
X114946099Y-98759432D01*
X114868695Y-98592550D01*
X114821672Y-98411273D01*
X114805561Y-98212328D01*
X114820503Y-98026313D01*
X115255041Y-98026313D01*
X116513551Y-98026313D01*
X116461709Y-97870302D01*
X116383559Y-97739456D01*
X116278297Y-97629833D01*
X116151752Y-97546290D01*
X116014618Y-97496727D01*
X115863182Y-97479893D01*
X115719755Y-97496669D01*
X115590337Y-97546115D01*
X115471147Y-97629833D01*
X115373589Y-97738793D01*
X115301633Y-97869532D01*
X115255041Y-98026313D01*
X114820503Y-98026313D01*
X114821439Y-98014659D01*
X114867823Y-97834088D01*
X114944218Y-97667447D01*
X115048499Y-97516698D01*
X115174397Y-97390817D01*
X115323771Y-97287722D01*
X115489070Y-97212069D01*
X115665426Y-97166458D01*
X115855659Y-97150946D01*
X116063444Y-97167408D01*
G37*
G36*
X118232484Y-97205657D02*
G01*
X118232484Y-97559565D01*
X117865240Y-97559565D01*
X117865240Y-98614621D01*
X117876593Y-98763992D01*
X117900631Y-98828162D01*
X117945760Y-98863497D01*
X118022020Y-98876889D01*
X118126594Y-98867905D01*
X118232484Y-98840472D01*
X118232484Y-99198312D01*
X118056370Y-99240237D01*
X117936022Y-99251826D01*
X117775112Y-99235606D01*
X117659744Y-99192449D01*
X117578182Y-99126505D01*
X117522807Y-99035509D01*
X117484276Y-98897954D01*
X117469274Y-98696686D01*
X117469274Y-97559565D01*
X117207348Y-97559565D01*
X117207348Y-97205657D01*
X117469274Y-97205657D01*
X117469274Y-96900646D01*
X117865240Y-96538190D01*
X117865240Y-97205657D01*
X118232484Y-97205657D01*
G37*
G36*
X109207766Y-62009300D02*
G01*
X109410924Y-62046494D01*
X109598559Y-62107004D01*
X109772693Y-62190573D01*
X109935553Y-62297454D01*
X110077307Y-62420900D01*
X110199639Y-62561649D01*
X110303555Y-62721093D01*
X110385185Y-62892380D01*
X110443895Y-63074140D01*
X110479730Y-63268060D01*
X110491964Y-63476096D01*
X110479220Y-63694909D01*
X110442067Y-63896699D01*
X110381516Y-64083727D01*
X110297742Y-64257942D01*
X110190708Y-64420224D01*
X110066299Y-64561402D01*
X109923662Y-64683148D01*
X109761238Y-64786411D01*
X109587341Y-64866749D01*
X109400913Y-64924870D01*
X109200110Y-64960538D01*
X108982812Y-64972768D01*
X108768748Y-64960051D01*
X108571330Y-64922966D01*
X108388301Y-64862485D01*
X108217721Y-64778717D01*
X108059259Y-64672056D01*
X107920448Y-64547746D01*
X107799825Y-64404835D01*
X107696605Y-64241700D01*
X107615983Y-64067254D01*
X107557828Y-63881419D01*
X107522245Y-63682466D01*
X107510290Y-63472164D01*
X107984518Y-63472164D01*
X107998909Y-63686004D01*
X108040476Y-63877994D01*
X108107787Y-64051411D01*
X108203102Y-64209668D01*
X108320821Y-64340540D01*
X108462550Y-64446864D01*
X108622214Y-64524326D01*
X108800070Y-64571822D01*
X109000080Y-64588256D01*
X109193021Y-64570629D01*
X109368399Y-64519051D01*
X109529916Y-64433528D01*
X109673591Y-64319141D01*
X109793267Y-64182944D01*
X109890491Y-64022688D01*
X109961123Y-63848242D01*
X110003433Y-63666758D01*
X110017693Y-63476096D01*
X110002482Y-63281962D01*
X109957553Y-63099637D01*
X109882798Y-62926599D01*
X109780768Y-62768638D01*
X109657279Y-62636295D01*
X109510767Y-62527213D01*
X109347343Y-62446559D01*
X109169994Y-62397737D01*
X108975289Y-62381034D01*
X108784322Y-62397440D01*
X108612756Y-62445119D01*
X108456908Y-62523452D01*
X108318425Y-62629740D01*
X108202521Y-62759747D01*
X108107787Y-62916170D01*
X108040022Y-63086852D01*
X107998681Y-63271294D01*
X107984518Y-63472164D01*
X107510290Y-63472164D01*
X107510076Y-63468403D01*
X107522525Y-63256373D01*
X107558863Y-63060307D01*
X107618176Y-62878052D01*
X107700366Y-62707757D01*
X107805092Y-62548884D01*
X107926845Y-62409684D01*
X108066460Y-62288652D01*
X108225415Y-62184931D01*
X108395785Y-62103591D01*
X108578188Y-62044856D01*
X108774464Y-62008857D01*
X108986744Y-61996522D01*
X109207766Y-62009300D01*
G37*
G36*
X112638834Y-62893773D02*
G01*
X112638834Y-62410782D01*
X111558133Y-62410782D01*
X111558133Y-63265803D01*
X112489748Y-63265803D01*
X112489748Y-63625353D01*
X111558133Y-63625353D01*
X111558133Y-64569450D01*
X111925376Y-64569450D01*
X111925376Y-64929000D01*
X110758677Y-64929000D01*
X110758677Y-64569450D01*
X111122159Y-64569450D01*
X111122159Y-62410782D01*
X110758677Y-62410782D01*
X110758677Y-62051233D01*
X112994623Y-62051233D01*
X112994623Y-62893773D01*
X112638834Y-62893773D01*
G37*
G36*
X115032414Y-62893773D02*
G01*
X115032414Y-62410782D01*
X113951713Y-62410782D01*
X113951713Y-63265803D01*
X114883328Y-63265803D01*
X114883328Y-63625353D01*
X113951713Y-63625353D01*
X113951713Y-64569450D01*
X114318956Y-64569450D01*
X114318956Y-64929000D01*
X113152257Y-64929000D01*
X113152257Y-64569450D01*
X113515739Y-64569450D01*
X113515739Y-62410782D01*
X113152257Y-62410782D01*
X113152257Y-62051233D01*
X115388203Y-62051233D01*
X115388203Y-62893773D01*
X115032414Y-62893773D01*
G37*
G36*
X117817163Y-69049236D02*
G01*
X118043141Y-69081990D01*
X118216200Y-69130395D01*
X118375892Y-69206905D01*
X118495789Y-69301800D01*
X118582588Y-69415402D01*
X118641262Y-69547769D01*
X118679568Y-69714441D01*
X118693548Y-69923354D01*
X118677282Y-70116549D01*
X118630730Y-70284153D01*
X118555464Y-70430794D01*
X118450600Y-70559875D01*
X118323312Y-70658049D01*
X118151931Y-70734810D01*
X117924934Y-70786862D01*
X117628063Y-70807611D01*
X117249364Y-70807611D01*
X117249364Y-71555263D01*
X117624302Y-71555263D01*
X117624302Y-71914813D01*
X116453670Y-71914813D01*
X116453670Y-71555263D01*
X116813391Y-71555263D01*
X116813391Y-70459516D01*
X117249364Y-70459516D01*
X117519155Y-70459516D01*
X117771353Y-70445863D01*
X117943674Y-70411131D01*
X118043115Y-70369332D01*
X118119628Y-70313625D01*
X118177048Y-70243752D01*
X118216248Y-70161042D01*
X118242175Y-70053201D01*
X118251762Y-69913780D01*
X118240394Y-69780623D01*
X118208965Y-69674163D01*
X118159820Y-69588985D01*
X118092930Y-69521233D01*
X117979057Y-69458306D01*
X117805332Y-69413959D01*
X117549759Y-69396595D01*
X117249364Y-69396595D01*
X117249364Y-70459516D01*
X116813391Y-70459516D01*
X116813391Y-69396595D01*
X116453670Y-69396595D01*
X116453670Y-69037046D01*
X117526678Y-69037046D01*
X117817163Y-69049236D01*
G37*
G36*
X120200712Y-69863184D02*
G01*
X120378775Y-69911369D01*
X120544469Y-69991229D01*
X120694157Y-70098792D01*
X120819762Y-70227278D01*
X120923168Y-70378476D01*
X120999597Y-70544873D01*
X121045447Y-70720536D01*
X121060970Y-70908141D01*
X121045153Y-71099400D01*
X120998604Y-71276937D01*
X120921287Y-71443619D01*
X120816675Y-71594706D01*
X120690422Y-71722248D01*
X120540708Y-71828131D01*
X120375131Y-71906370D01*
X120198256Y-71953495D01*
X120007110Y-71969523D01*
X119809460Y-71953354D01*
X119628793Y-71906088D01*
X119461887Y-71828131D01*
X119311302Y-71721960D01*
X119186055Y-71594412D01*
X119084043Y-71443619D01*
X119009565Y-71277208D01*
X118964613Y-71099635D01*
X118949319Y-70908141D01*
X119364263Y-70908141D01*
X119385344Y-71082307D01*
X119448381Y-71244610D01*
X119512139Y-71342379D01*
X119589582Y-71424791D01*
X119681755Y-71493200D01*
X119784444Y-71544292D01*
X119892239Y-71574741D01*
X120006939Y-71585011D01*
X120121713Y-71574702D01*
X120228860Y-71544221D01*
X120330244Y-71493200D01*
X120421340Y-71424928D01*
X120497518Y-71343178D01*
X120559856Y-71246662D01*
X120621301Y-71085536D01*
X120642093Y-70908141D01*
X120621411Y-70734151D01*
X120559856Y-70573553D01*
X120497613Y-70476757D01*
X120421433Y-70394005D01*
X120330244Y-70324108D01*
X120228639Y-70271551D01*
X120120295Y-70240072D01*
X120003178Y-70229390D01*
X119888565Y-70239799D01*
X119781424Y-70270601D01*
X119679874Y-70322227D01*
X119588844Y-70391023D01*
X119511997Y-70473719D01*
X119448381Y-70571672D01*
X119385344Y-70733975D01*
X119364263Y-70908141D01*
X118949319Y-70908141D01*
X118964875Y-70707679D01*
X119010077Y-70526479D01*
X119084043Y-70361208D01*
X119186002Y-70211899D01*
X119310638Y-70086667D01*
X119460006Y-69983535D01*
X119625502Y-69908397D01*
X119806748Y-69862533D01*
X120007110Y-69846759D01*
X120200712Y-69863184D01*
G37*
G36*
X121856493Y-70255378D02*
G01*
X122237072Y-71467213D01*
X122619703Y-70255378D01*
X122405478Y-70255378D01*
X122405478Y-69901470D01*
X123371458Y-69901470D01*
X123371458Y-70255378D01*
X123149539Y-70255378D01*
X123537812Y-71467213D01*
X123924204Y-70255378D01*
X123646891Y-70255378D01*
X123646891Y-69901470D01*
X124551664Y-69901470D01*
X124551664Y-70255378D01*
X124260844Y-70255378D01*
X123725366Y-71947639D01*
X123352309Y-71947639D01*
X122891374Y-70494736D01*
X122424626Y-71947639D01*
X122055502Y-71947639D01*
X121516092Y-70255378D01*
X121273143Y-70255378D01*
X121273143Y-69901470D01*
X122118590Y-69901470D01*
X122118590Y-70255378D01*
X121856493Y-70255378D01*
G37*
G36*
X126022918Y-69863221D02*
G01*
X126206034Y-69910564D01*
X126368733Y-69987297D01*
X126513954Y-70093358D01*
X126637519Y-70226126D01*
X126740764Y-70388734D01*
X126815651Y-70567363D01*
X126865467Y-70771419D01*
X126888140Y-71005252D01*
X125203060Y-71005252D01*
X125245853Y-71189325D01*
X125320572Y-71339362D01*
X125426859Y-71461742D01*
X125559948Y-71554108D01*
X125711212Y-71609841D01*
X125885914Y-71629122D01*
X126078746Y-71608309D01*
X126255038Y-71546885D01*
X126361278Y-71482998D01*
X126455965Y-71399455D01*
X126540045Y-71294191D01*
X126888140Y-71451142D01*
X126766240Y-71609033D01*
X126623133Y-71737375D01*
X126456782Y-71838560D01*
X126275064Y-71910910D01*
X126082401Y-71954657D01*
X125876339Y-71969523D01*
X125663000Y-71953736D01*
X125471628Y-71908063D01*
X125298632Y-71833773D01*
X125141913Y-71730671D01*
X125011700Y-71605109D01*
X124905572Y-71455245D01*
X124828168Y-71288363D01*
X124781145Y-71107086D01*
X124765034Y-70908141D01*
X124779976Y-70722126D01*
X125214515Y-70722126D01*
X126473025Y-70722126D01*
X126421183Y-70566115D01*
X126343032Y-70435269D01*
X126237770Y-70325646D01*
X126111225Y-70242103D01*
X125974091Y-70192540D01*
X125822655Y-70175706D01*
X125679228Y-70192482D01*
X125549810Y-70241928D01*
X125430621Y-70325646D01*
X125333062Y-70434606D01*
X125261107Y-70565345D01*
X125214515Y-70722126D01*
X124779976Y-70722126D01*
X124780912Y-70710472D01*
X124827296Y-70529901D01*
X124903691Y-70363260D01*
X125007972Y-70212511D01*
X125133870Y-70086630D01*
X125283244Y-69983535D01*
X125448543Y-69907882D01*
X125624899Y-69862271D01*
X125815132Y-69846759D01*
X126022918Y-69863221D01*
G37*
G36*
X127918405Y-71108176D02*
G01*
X127918405Y-71562785D01*
X128356430Y-71562785D01*
X128356430Y-71914813D01*
X127122711Y-71914813D01*
X127122711Y-71562785D01*
X127526371Y-71562785D01*
X127526371Y-70255378D01*
X127122711Y-70255378D01*
X127122711Y-69901470D01*
X127840101Y-69901470D01*
X127840101Y-70361208D01*
X127932986Y-70190559D01*
X128032818Y-70068532D01*
X128139469Y-69985758D01*
X128263631Y-69930622D01*
X128430338Y-69893493D01*
X128651011Y-69879586D01*
X128740942Y-69879586D01*
X128740942Y-70279314D01*
X128654773Y-70279314D01*
X128440034Y-70290770D01*
X128285212Y-70320621D01*
X128176570Y-70363431D01*
X128083335Y-70429428D01*
X128014958Y-70513138D01*
X127969012Y-70617492D01*
X127933089Y-70806386D01*
X127918405Y-71108176D01*
G37*
G36*
X121724211Y-52239327D02*
G01*
X121377997Y-52239327D01*
X122158475Y-54409450D01*
X122479727Y-54409450D01*
X122479727Y-54769000D01*
X121343632Y-54769000D01*
X121343632Y-54409450D01*
X121720450Y-54409450D01*
X121496650Y-53761644D01*
X120450484Y-53761644D01*
X120226685Y-54409450D01*
X120591877Y-54409450D01*
X120591877Y-54769000D01*
X119448087Y-54769000D01*
X119448087Y-54409450D01*
X119796182Y-54409450D01*
X120149124Y-53423124D01*
X120563325Y-53423124D01*
X121381929Y-53423124D01*
X120984082Y-52239327D01*
X120970575Y-52239327D01*
X120563325Y-53423124D01*
X120149124Y-53423124D01*
X120572728Y-52239327D01*
X120226685Y-52239327D01*
X120226685Y-51891233D01*
X121724211Y-51891233D01*
X121724211Y-52239327D01*
G37*
G36*
X124558551Y-52621445D02*
G01*
X124544281Y-52779695D01*
X124502946Y-52920222D01*
X124435111Y-53046477D01*
X124343989Y-53160036D01*
X124202909Y-53296414D01*
X123998112Y-53459882D01*
X123814661Y-53597684D01*
X123463489Y-53877220D01*
X123348528Y-53990703D01*
X123252170Y-54114526D01*
X123178464Y-54251544D01*
X123131807Y-54405517D01*
X124216270Y-54405517D01*
X124233538Y-53740444D01*
X124581632Y-53740444D01*
X124558551Y-54769000D01*
X122712930Y-54769000D01*
X122729151Y-54536498D01*
X122770383Y-54334060D01*
X122834319Y-54157440D01*
X122920777Y-53989307D01*
X123014300Y-53847659D01*
X123114539Y-53729502D01*
X123288268Y-53564582D01*
X123504692Y-53388759D01*
X123789699Y-53172482D01*
X123966719Y-53025564D01*
X124065132Y-52909188D01*
X124123655Y-52782286D01*
X124143607Y-52636320D01*
X124128450Y-52497343D01*
X124086161Y-52386878D01*
X124018286Y-52298483D01*
X123927811Y-52232821D01*
X123814877Y-52191690D01*
X123673098Y-52176923D01*
X123532092Y-52189279D01*
X123423859Y-52222882D01*
X123341161Y-52274664D01*
X123279012Y-52344645D01*
X123222241Y-52462466D01*
X123183061Y-52630726D01*
X123168053Y-52865249D01*
X123168053Y-52963556D01*
X122787473Y-52963556D01*
X122787473Y-52852084D01*
X122802084Y-52617929D01*
X122842787Y-52423513D01*
X122906086Y-52262303D01*
X122990244Y-52128881D01*
X123078023Y-52036615D01*
X123174589Y-51963353D01*
X123280893Y-51907646D01*
X123459501Y-51855472D01*
X123684553Y-51836522D01*
X123875770Y-51849931D01*
X124035914Y-51887525D01*
X124170279Y-51946627D01*
X124291503Y-52029309D01*
X124387807Y-52125037D01*
X124461953Y-52234711D01*
X124515501Y-52356440D01*
X124547663Y-52484743D01*
X124558551Y-52621445D01*
G37*
G36*
X120899896Y-73497714D02*
G01*
X121209134Y-73543452D01*
X121465393Y-73613728D01*
X121676598Y-73705081D01*
X121849532Y-73815479D01*
X121977377Y-73932183D01*
X122082988Y-74068868D01*
X122167440Y-74227902D01*
X122230471Y-74412678D01*
X122270488Y-74627455D01*
X122284651Y-74877203D01*
X122270424Y-75129274D01*
X122229954Y-75349415D01*
X122165741Y-75541970D01*
X122079136Y-75710674D01*
X121970275Y-75858526D01*
X121838077Y-75987653D01*
X121658457Y-76112049D01*
X121442513Y-76213722D01*
X121184115Y-76291126D01*
X120875932Y-76341095D01*
X120509640Y-76359000D01*
X119432871Y-76359000D01*
X119432871Y-75999450D01*
X119819263Y-75999450D01*
X120255237Y-75999450D01*
X120528789Y-75999450D01*
X120807864Y-75986211D01*
X121037708Y-75949635D01*
X121225830Y-75893657D01*
X121378846Y-75821046D01*
X121502292Y-75733249D01*
X121607651Y-75621810D01*
X121691916Y-75486931D01*
X121755207Y-75324697D01*
X121795827Y-75129877D01*
X121810380Y-74896180D01*
X121794302Y-74654432D01*
X121749892Y-74458015D01*
X121681297Y-74298811D01*
X121580625Y-74160231D01*
X121446049Y-74045786D01*
X121271824Y-73954307D01*
X121081379Y-73894943D01*
X120838623Y-73855364D01*
X120532550Y-73840782D01*
X120255237Y-73840782D01*
X120255237Y-75999450D01*
X119819263Y-75999450D01*
X119819263Y-73840782D01*
X119432871Y-73840782D01*
X119432871Y-73481233D01*
X120528789Y-73481233D01*
X120899896Y-73497714D01*
G37*
G36*
X124495635Y-74211445D02*
G01*
X124481364Y-74369695D01*
X124440029Y-74510222D01*
X124372194Y-74636477D01*
X124281072Y-74750036D01*
X124139992Y-74886414D01*
X123935195Y-75049882D01*
X123751744Y-75187684D01*
X123400572Y-75467220D01*
X123285611Y-75580703D01*
X123189253Y-75704526D01*
X123115548Y-75841544D01*
X123068890Y-75995517D01*
X124153353Y-75995517D01*
X124170621Y-75330444D01*
X124518715Y-75330444D01*
X124495635Y-76359000D01*
X122650013Y-76359000D01*
X122666234Y-76126498D01*
X122707466Y-75924060D01*
X122771402Y-75747440D01*
X122857860Y-75579307D01*
X122951383Y-75437659D01*
X123051622Y-75319502D01*
X123225351Y-75154582D01*
X123441775Y-74978759D01*
X123726782Y-74762482D01*
X123903803Y-74615564D01*
X124002215Y-74499188D01*
X124060738Y-74372286D01*
X124080690Y-74226320D01*
X124065533Y-74087343D01*
X124023244Y-73976878D01*
X123955369Y-73888483D01*
X123864894Y-73822821D01*
X123751960Y-73781690D01*
X123610181Y-73766923D01*
X123469175Y-73779279D01*
X123360942Y-73812882D01*
X123278244Y-73864664D01*
X123216095Y-73934645D01*
X123159324Y-74052466D01*
X123120145Y-74220726D01*
X123105136Y-74455249D01*
X123105136Y-74553556D01*
X122724556Y-74553556D01*
X122724556Y-74442084D01*
X122739168Y-74207929D01*
X122779870Y-74013513D01*
X122843169Y-73852303D01*
X122927327Y-73718881D01*
X123015106Y-73626615D01*
X123111672Y-73553353D01*
X123217976Y-73497646D01*
X123396584Y-73445472D01*
X123621636Y-73426522D01*
X123812853Y-73439931D01*
X123972997Y-73477525D01*
X124107362Y-73536627D01*
X124228586Y-73619309D01*
X124324890Y-73715037D01*
X124399036Y-73824711D01*
X124452584Y-73946440D01*
X124484746Y-74074743D01*
X124495635Y-74211445D01*
G37*
G36*
X121525237Y-96700782D02*
G01*
X121525237Y-98859450D01*
X122472069Y-98859450D01*
X122472069Y-97971602D01*
X122829738Y-97971602D01*
X122829738Y-99219000D01*
X120718087Y-99219000D01*
X120718087Y-98859450D01*
X121089263Y-98859450D01*
X121089263Y-96700782D01*
X120718087Y-96700782D01*
X120718087Y-96341233D01*
X121896413Y-96341233D01*
X121896413Y-96700782D01*
X121525237Y-96700782D01*
G37*
G36*
X124358957Y-97167371D02*
G01*
X124537020Y-97215556D01*
X124702714Y-97295416D01*
X124852402Y-97402979D01*
X124978007Y-97531465D01*
X125081413Y-97682663D01*
X125157842Y-97849060D01*
X125203692Y-98024723D01*
X125219214Y-98212328D01*
X125203398Y-98403587D01*
X125156848Y-98581124D01*
X125079532Y-98747806D01*
X124974920Y-98898893D01*
X124848667Y-99026435D01*
X124698953Y-99132318D01*
X124533376Y-99210557D01*
X124356501Y-99257682D01*
X124165355Y-99273710D01*
X123967705Y-99257541D01*
X123787038Y-99210275D01*
X123620132Y-99132318D01*
X123469547Y-99026147D01*
X123344300Y-98898599D01*
X123242288Y-98747806D01*
X123167810Y-98581395D01*
X123122858Y-98403822D01*
X123107564Y-98212328D01*
X123522508Y-98212328D01*
X123543589Y-98386494D01*
X123606625Y-98548797D01*
X123670384Y-98646566D01*
X123747827Y-98728978D01*
X123840000Y-98797387D01*
X123942689Y-98848479D01*
X124050484Y-98878928D01*
X124165184Y-98889198D01*
X124279958Y-98878889D01*
X124387105Y-98848408D01*
X124488489Y-98797387D01*
X124579585Y-98729115D01*
X124655763Y-98647365D01*
X124718101Y-98550849D01*
X124779546Y-98389723D01*
X124800338Y-98212328D01*
X124779656Y-98038338D01*
X124718101Y-97877740D01*
X124655857Y-97780944D01*
X124579678Y-97698192D01*
X124488489Y-97628295D01*
X124386884Y-97575738D01*
X124278540Y-97544259D01*
X124161423Y-97533577D01*
X124046810Y-97543986D01*
X123939669Y-97574788D01*
X123838119Y-97626414D01*
X123747089Y-97695210D01*
X123670242Y-97777906D01*
X123606625Y-97875859D01*
X123543589Y-98038162D01*
X123522508Y-98212328D01*
X123107564Y-98212328D01*
X123123120Y-98011866D01*
X123168322Y-97830666D01*
X123242288Y-97665395D01*
X123344247Y-97516086D01*
X123468883Y-97390854D01*
X123618251Y-97287722D01*
X123783747Y-97212584D01*
X123964993Y-97166720D01*
X124165355Y-97150946D01*
X124358957Y-97167371D01*
G37*
G36*
X126657663Y-97164772D02*
G01*
X126818954Y-97202451D01*
X126945078Y-97259831D01*
X127042780Y-97335081D01*
X127119271Y-97431876D01*
X127177355Y-97556340D01*
X127215381Y-97714985D01*
X127229309Y-97916037D01*
X127229309Y-98866972D01*
X127565949Y-98866972D01*
X127565949Y-99219000D01*
X126881214Y-99219000D01*
X126881214Y-98971435D01*
X126728446Y-99097725D01*
X126572641Y-99184076D01*
X126411602Y-99234848D01*
X126242299Y-99251826D01*
X126120885Y-99242085D01*
X126008289Y-99213452D01*
X125902752Y-99165999D01*
X125763713Y-99065242D01*
X125656043Y-98936215D01*
X125604606Y-98836746D01*
X125573818Y-98730833D01*
X125563377Y-98616501D01*
X125563393Y-98616330D01*
X125940195Y-98616330D01*
X125951534Y-98707351D01*
X125984399Y-98785342D01*
X126039528Y-98853466D01*
X126110834Y-98905049D01*
X126195105Y-98936594D01*
X126295983Y-98947670D01*
X126435207Y-98933372D01*
X126570906Y-98890150D01*
X126705558Y-98815787D01*
X126841036Y-98705919D01*
X126841036Y-98471690D01*
X126661310Y-98356767D01*
X126490618Y-98292462D01*
X126324706Y-98271826D01*
X126223723Y-98282992D01*
X126134363Y-98315557D01*
X126053890Y-98369963D01*
X125990276Y-98441560D01*
X125952954Y-98522561D01*
X125940195Y-98616330D01*
X125563393Y-98616330D01*
X125575001Y-98493762D01*
X125609040Y-98382315D01*
X125665617Y-98279690D01*
X125741198Y-98189288D01*
X125832710Y-98113558D01*
X125942076Y-98051787D01*
X126118427Y-97991231D01*
X126292051Y-97971602D01*
X126483302Y-97990539D01*
X126665185Y-98047133D01*
X126841036Y-98143256D01*
X126841036Y-97925441D01*
X126827731Y-97769974D01*
X126792964Y-97660891D01*
X126741531Y-97586065D01*
X126668285Y-97532847D01*
X126562994Y-97497321D01*
X126414466Y-97483825D01*
X126262520Y-97499677D01*
X126145872Y-97543152D01*
X126048540Y-97616375D01*
X125967037Y-97723012D01*
X125588339Y-97628637D01*
X125685687Y-97479232D01*
X125800626Y-97360668D01*
X125934382Y-97269429D01*
X126084116Y-97205171D01*
X126255524Y-97165027D01*
X126452763Y-97150946D01*
X126657663Y-97164772D01*
G37*
G36*
X129887037Y-98865263D02*
G01*
X130250519Y-98865263D01*
X130250519Y-99219000D01*
X129495003Y-99219000D01*
X129495003Y-98922367D01*
X129332680Y-99069397D01*
X129160510Y-99170856D01*
X128975649Y-99231309D01*
X128773852Y-99251826D01*
X128584001Y-99235988D01*
X128414015Y-99190066D01*
X128260258Y-99114879D01*
X128122791Y-99012649D01*
X128007927Y-98889229D01*
X127914043Y-98742506D01*
X127846080Y-98581503D01*
X127804848Y-98408712D01*
X127790774Y-98221561D01*
X127791678Y-98209935D01*
X128209651Y-98209935D01*
X128219324Y-98338069D01*
X128247521Y-98454937D01*
X128293768Y-98562475D01*
X128357394Y-98660615D01*
X128433646Y-98742513D01*
X128523381Y-98809697D01*
X128623521Y-98859531D01*
X128731247Y-98889563D01*
X128848565Y-98899799D01*
X128968024Y-98888744D01*
X129077561Y-98856267D01*
X129179392Y-98802175D01*
X129270324Y-98730033D01*
X129347211Y-98643668D01*
X129410886Y-98541616D01*
X129473900Y-98373218D01*
X129495003Y-98192667D01*
X129485426Y-98069679D01*
X129457325Y-97955939D01*
X129410886Y-97849701D01*
X129347237Y-97753044D01*
X129269812Y-97671769D01*
X129177512Y-97604530D01*
X129074766Y-97554844D01*
X128963254Y-97524734D01*
X128840872Y-97514429D01*
X128722705Y-97525442D01*
X128615371Y-97557678D01*
X128516542Y-97611198D01*
X128389776Y-97723088D01*
X128291887Y-97867995D01*
X128230265Y-98033264D01*
X128209651Y-98209935D01*
X127791678Y-98209935D01*
X127805611Y-98030769D01*
X127849296Y-97852844D01*
X127921737Y-97685228D01*
X128020907Y-97532178D01*
X128141204Y-97403005D01*
X128284193Y-97295587D01*
X128443549Y-97214920D01*
X128609661Y-97167043D01*
X128785307Y-97150946D01*
X128975880Y-97170653D01*
X129155457Y-97229422D01*
X129323469Y-97327229D01*
X129495003Y-97476473D01*
X129495003Y-96689327D01*
X129106730Y-96689327D01*
X129106730Y-96341233D01*
X129887037Y-96341233D01*
X129887037Y-98865263D01*
G37*
G36*
X133698300Y-96689327D02*
G01*
X133352086Y-96689327D01*
X134132564Y-98859450D01*
X134453817Y-98859450D01*
X134453817Y-99219000D01*
X133317721Y-99219000D01*
X133317721Y-98859450D01*
X133694539Y-98859450D01*
X133470739Y-98211644D01*
X132424574Y-98211644D01*
X132200774Y-98859450D01*
X132565966Y-98859450D01*
X132565966Y-99219000D01*
X131422177Y-99219000D01*
X131422177Y-98859450D01*
X131770272Y-98859450D01*
X132123214Y-97873124D01*
X132537414Y-97873124D01*
X133356018Y-97873124D01*
X132958171Y-96689327D01*
X132944665Y-96689327D01*
X132537414Y-97873124D01*
X132123214Y-97873124D01*
X132546817Y-96689327D01*
X132200774Y-96689327D01*
X132200774Y-96341233D01*
X133698300Y-96341233D01*
X133698300Y-96689327D01*
G37*
G36*
X135861024Y-96300745D02*
G01*
X136042863Y-96340849D01*
X136197813Y-96404150D01*
X136330041Y-96489635D01*
X136442275Y-96600335D01*
X136521231Y-96726593D01*
X136569504Y-96871525D01*
X136586325Y-97039987D01*
X136569817Y-97196509D01*
X136521310Y-97338366D01*
X136439919Y-97469203D01*
X136321654Y-97591342D01*
X136159755Y-97705573D01*
X136325496Y-97786512D01*
X136453705Y-97881294D01*
X136550301Y-97989650D01*
X136619089Y-98113007D01*
X136661458Y-98254362D01*
X136676256Y-98418005D01*
X136662436Y-98584417D01*
X136622560Y-98731731D01*
X136557602Y-98863382D01*
X136468224Y-98979509D01*
X136355197Y-99077575D01*
X136215321Y-99158476D01*
X136062728Y-99214809D01*
X135887422Y-99250282D01*
X135685484Y-99262768D01*
X135460421Y-99248354D01*
X135265376Y-99207402D01*
X135095844Y-99142312D01*
X134948091Y-99054013D01*
X134824537Y-98938900D01*
X134735753Y-98798451D01*
X134680057Y-98627456D01*
X134660177Y-98418005D01*
X134661529Y-98402960D01*
X135079054Y-98402960D01*
X135097915Y-98552770D01*
X135151906Y-98676921D01*
X135241646Y-98781487D01*
X135357528Y-98858852D01*
X135498142Y-98907083D01*
X135670097Y-98924247D01*
X135831905Y-98907699D01*
X135969132Y-98860439D01*
X136086922Y-98783368D01*
X136178751Y-98679556D01*
X136234064Y-98554917D01*
X136253447Y-98402960D01*
X136235797Y-98252109D01*
X136185636Y-98127898D01*
X136103335Y-98024261D01*
X135994515Y-97948724D01*
X135848752Y-97899658D01*
X135654710Y-97881501D01*
X135488012Y-97898579D01*
X135351129Y-97946707D01*
X135237714Y-98024261D01*
X135150333Y-98128537D01*
X135097541Y-98252743D01*
X135079054Y-98402960D01*
X134661529Y-98402960D01*
X134674902Y-98254152D01*
X134717046Y-98112682D01*
X134785416Y-97989305D01*
X134881335Y-97881018D01*
X135008510Y-97786364D01*
X135172745Y-97705573D01*
X135013669Y-97595490D01*
X134896728Y-97475181D01*
X134815605Y-97343778D01*
X134766835Y-97198730D01*
X134754644Y-97080165D01*
X135138381Y-97080165D01*
X135155581Y-97224727D01*
X135203458Y-97337444D01*
X135280799Y-97425866D01*
X135382324Y-97489300D01*
X135512073Y-97530025D01*
X135677791Y-97544861D01*
X135810642Y-97532346D01*
X135930128Y-97495850D01*
X136039050Y-97435441D01*
X136124125Y-97351164D01*
X136176846Y-97238472D01*
X136196001Y-97087859D01*
X136179284Y-96937666D01*
X136133780Y-96825622D01*
X136062131Y-96742328D01*
X135966293Y-96684182D01*
X135834233Y-96645423D01*
X135654710Y-96630856D01*
X135496989Y-96645587D01*
X135372899Y-96686187D01*
X135275157Y-96749851D01*
X135200384Y-96837460D01*
X135154620Y-96945495D01*
X135138381Y-97080165D01*
X134754644Y-97080165D01*
X134750108Y-97036055D01*
X134764581Y-96878560D01*
X134806031Y-96742666D01*
X134873377Y-96624188D01*
X134964062Y-96521029D01*
X135072343Y-96436771D01*
X135200443Y-96370468D01*
X135338560Y-96324375D01*
X135486922Y-96296175D01*
X135647187Y-96286522D01*
X135861024Y-96300745D01*
G37*
G36*
X136953056Y-98422279D02*
G01*
X136953056Y-98026313D01*
X138194469Y-98026313D01*
X138194469Y-98422279D01*
X136953056Y-98422279D01*
G37*
G36*
X140098733Y-98866972D02*
G01*
X140098733Y-99219000D01*
X138933914Y-99219000D01*
X138933914Y-98866972D01*
X139329881Y-98866972D01*
X139329881Y-96685566D01*
X138933914Y-96685566D01*
X138933914Y-96341233D01*
X139725676Y-96341233D01*
X139725676Y-98866972D01*
X140098733Y-98866972D01*
G37*
G36*
X142209870Y-97107178D02*
G01*
X142209870Y-96700782D01*
X141330059Y-96700782D01*
X141266971Y-97551016D01*
X141400031Y-97456948D01*
X141541467Y-97390644D01*
X141693264Y-97350607D01*
X141858014Y-97336962D01*
X142033916Y-97352015D01*
X142189140Y-97395431D01*
X142327498Y-97466215D01*
X142450459Y-97562079D01*
X142551967Y-97676340D01*
X142633534Y-97810891D01*
X142691978Y-97957653D01*
X142727547Y-98115462D01*
X142739706Y-98286529D01*
X142725762Y-98476127D01*
X142685509Y-98645371D01*
X142620198Y-98797558D01*
X142528679Y-98934486D01*
X142414336Y-99048391D01*
X142274839Y-99141208D01*
X142120110Y-99207436D01*
X141946039Y-99248478D01*
X141748935Y-99262768D01*
X141530548Y-99245604D01*
X141346121Y-99197145D01*
X141189630Y-99120088D01*
X141056507Y-99014519D01*
X140948870Y-98883494D01*
X140865646Y-98724475D01*
X140807486Y-98532195D01*
X140777313Y-98299865D01*
X141148318Y-98299865D01*
X141188440Y-98489789D01*
X141253518Y-98641090D01*
X141341514Y-98760971D01*
X141455489Y-98852892D01*
X141590503Y-98908535D01*
X141752868Y-98928009D01*
X141914825Y-98907919D01*
X142051113Y-98850119D01*
X142167812Y-98753790D01*
X142255186Y-98628937D01*
X142309320Y-98478067D01*
X142328524Y-98294052D01*
X142309751Y-98103076D01*
X142258215Y-97955056D01*
X142177386Y-97840297D01*
X142067990Y-97752372D01*
X141941055Y-97699607D01*
X141791165Y-97681295D01*
X141661081Y-97694849D01*
X141540717Y-97734990D01*
X141427341Y-97802792D01*
X141319136Y-97901697D01*
X141215338Y-98037255D01*
X141077610Y-97920058D01*
X140915115Y-97819268D01*
X141031716Y-96341233D01*
X142567711Y-96341233D01*
X142567711Y-97107178D01*
X142209870Y-97107178D01*
G37*
G36*
X130797766Y-62009300D02*
G01*
X131000924Y-62046494D01*
X131188559Y-62107004D01*
X131362693Y-62190573D01*
X131525553Y-62297454D01*
X131667307Y-62420900D01*
X131789639Y-62561649D01*
X131893555Y-62721093D01*
X131975185Y-62892380D01*
X132033895Y-63074140D01*
X132069730Y-63268060D01*
X132081964Y-63476096D01*
X132069220Y-63694909D01*
X132032067Y-63896699D01*
X131971516Y-64083727D01*
X131887742Y-64257942D01*
X131780708Y-64420224D01*
X131656299Y-64561402D01*
X131513662Y-64683148D01*
X131351238Y-64786411D01*
X131177341Y-64866749D01*
X130990913Y-64924870D01*
X130790110Y-64960538D01*
X130572812Y-64972768D01*
X130358748Y-64960051D01*
X130161330Y-64922966D01*
X129978301Y-64862485D01*
X129807721Y-64778717D01*
X129649259Y-64672056D01*
X129510448Y-64547746D01*
X129389825Y-64404835D01*
X129286605Y-64241700D01*
X129205983Y-64067254D01*
X129147828Y-63881419D01*
X129112245Y-63682466D01*
X129100290Y-63472164D01*
X129574518Y-63472164D01*
X129588909Y-63686004D01*
X129630476Y-63877994D01*
X129697787Y-64051411D01*
X129793102Y-64209668D01*
X129910821Y-64340540D01*
X130052550Y-64446864D01*
X130212214Y-64524326D01*
X130390070Y-64571822D01*
X130590080Y-64588256D01*
X130783021Y-64570629D01*
X130958399Y-64519051D01*
X131119916Y-64433528D01*
X131263591Y-64319141D01*
X131383267Y-64182944D01*
X131480491Y-64022688D01*
X131551123Y-63848242D01*
X131593433Y-63666758D01*
X131607693Y-63476096D01*
X131592482Y-63281962D01*
X131547553Y-63099637D01*
X131472798Y-62926599D01*
X131370768Y-62768638D01*
X131247279Y-62636295D01*
X131100767Y-62527213D01*
X130937343Y-62446559D01*
X130759994Y-62397737D01*
X130565289Y-62381034D01*
X130374322Y-62397440D01*
X130202756Y-62445119D01*
X130046908Y-62523452D01*
X129908425Y-62629740D01*
X129792521Y-62759747D01*
X129697787Y-62916170D01*
X129630022Y-63086852D01*
X129588681Y-63271294D01*
X129574518Y-63472164D01*
X129100290Y-63472164D01*
X129100076Y-63468403D01*
X129112525Y-63256373D01*
X129148863Y-63060307D01*
X129208176Y-62878052D01*
X129290366Y-62707757D01*
X129395092Y-62548884D01*
X129516845Y-62409684D01*
X129656460Y-62288652D01*
X129815415Y-62184931D01*
X129985785Y-62103591D01*
X130168188Y-62044856D01*
X130364464Y-62008857D01*
X130576744Y-61996522D01*
X130797766Y-62009300D01*
G37*
G36*
X134613346Y-62410782D02*
G01*
X134202163Y-62410782D01*
X134202163Y-62051233D01*
X135384249Y-62051233D01*
X135384249Y-62410782D01*
X134961441Y-62410782D01*
X134961441Y-64961826D01*
X134513841Y-64961826D01*
X133131036Y-62500371D01*
X133131036Y-64569450D01*
X133544099Y-64569450D01*
X133544099Y-64929000D01*
X132363893Y-64929000D01*
X132363893Y-64569450D01*
X132775247Y-64569450D01*
X132775247Y-62410782D01*
X132363893Y-62410782D01*
X132363893Y-62051233D01*
X133347142Y-62051233D01*
X134613346Y-64289059D01*
X134613346Y-62410782D01*
G37*
G36*
X139504211Y-52239327D02*
G01*
X139157997Y-52239327D01*
X139938475Y-54409450D01*
X140259727Y-54409450D01*
X140259727Y-54769000D01*
X139123632Y-54769000D01*
X139123632Y-54409450D01*
X139500450Y-54409450D01*
X139276650Y-53761644D01*
X138230484Y-53761644D01*
X138006685Y-54409450D01*
X138371877Y-54409450D01*
X138371877Y-54769000D01*
X137228087Y-54769000D01*
X137228087Y-54409450D01*
X137576182Y-54409450D01*
X137929124Y-53423124D01*
X138343325Y-53423124D01*
X139161929Y-53423124D01*
X138764082Y-52239327D01*
X138750575Y-52239327D01*
X138343325Y-53423124D01*
X137929124Y-53423124D01*
X138352728Y-52239327D01*
X138006685Y-52239327D01*
X138006685Y-51891233D01*
X139504211Y-51891233D01*
X139504211Y-52239327D01*
G37*
G36*
X142099535Y-54416972D02*
G01*
X142099535Y-54769000D01*
X140934717Y-54769000D01*
X140934717Y-54416972D01*
X141330683Y-54416972D01*
X141330683Y-52235566D01*
X140934717Y-52235566D01*
X140934717Y-51891233D01*
X141726479Y-51891233D01*
X141726479Y-54416972D01*
X142099535Y-54416972D01*
G37*
G36*
X138679896Y-73497714D02*
G01*
X138989134Y-73543452D01*
X139245393Y-73613728D01*
X139456598Y-73705081D01*
X139629532Y-73815479D01*
X139757377Y-73932183D01*
X139862988Y-74068868D01*
X139947440Y-74227902D01*
X140010471Y-74412678D01*
X140050488Y-74627455D01*
X140064651Y-74877203D01*
X140050424Y-75129274D01*
X140009954Y-75349415D01*
X139945741Y-75541970D01*
X139859136Y-75710674D01*
X139750275Y-75858526D01*
X139618077Y-75987653D01*
X139438457Y-76112049D01*
X139222513Y-76213722D01*
X138964115Y-76291126D01*
X138655932Y-76341095D01*
X138289640Y-76359000D01*
X137212871Y-76359000D01*
X137212871Y-75999450D01*
X137599263Y-75999450D01*
X138035237Y-75999450D01*
X138308789Y-75999450D01*
X138587864Y-75986211D01*
X138817708Y-75949635D01*
X139005830Y-75893657D01*
X139158846Y-75821046D01*
X139282292Y-75733249D01*
X139387651Y-75621810D01*
X139471916Y-75486931D01*
X139535207Y-75324697D01*
X139575827Y-75129877D01*
X139590380Y-74896180D01*
X139574302Y-74654432D01*
X139529892Y-74458015D01*
X139461297Y-74298811D01*
X139360625Y-74160231D01*
X139226049Y-74045786D01*
X139051824Y-73954307D01*
X138861379Y-73894943D01*
X138618623Y-73855364D01*
X138312550Y-73840782D01*
X138035237Y-73840782D01*
X138035237Y-75999450D01*
X137599263Y-75999450D01*
X137599263Y-73840782D01*
X137212871Y-73840782D01*
X137212871Y-73481233D01*
X138308789Y-73481233D01*
X138679896Y-73497714D01*
G37*
G36*
X142036618Y-76006972D02*
G01*
X142036618Y-76359000D01*
X140871800Y-76359000D01*
X140871800Y-76006972D01*
X141267766Y-76006972D01*
X141267766Y-73825566D01*
X140871800Y-73825566D01*
X140871800Y-73481233D01*
X141663562Y-73481233D01*
X141663562Y-76006972D01*
X142036618Y-76006972D01*
G37*
G36*
X157284211Y-52239327D02*
G01*
X156937997Y-52239327D01*
X157718475Y-54409450D01*
X158039727Y-54409450D01*
X158039727Y-54769000D01*
X156903632Y-54769000D01*
X156903632Y-54409450D01*
X157280450Y-54409450D01*
X157056650Y-53761644D01*
X156010484Y-53761644D01*
X155786685Y-54409450D01*
X156151877Y-54409450D01*
X156151877Y-54769000D01*
X155008087Y-54769000D01*
X155008087Y-54409450D01*
X155356182Y-54409450D01*
X155709124Y-53423124D01*
X156123325Y-53423124D01*
X156941929Y-53423124D01*
X156544082Y-52239327D01*
X156530575Y-52239327D01*
X156123325Y-53423124D01*
X155709124Y-53423124D01*
X156132728Y-52239327D01*
X155786685Y-52239327D01*
X155786685Y-51891233D01*
X157284211Y-51891233D01*
X157284211Y-52239327D01*
G37*
G36*
X159442253Y-51853206D02*
G01*
X159605249Y-51901226D01*
X159749435Y-51979531D01*
X159877952Y-52089755D01*
X159992376Y-52236079D01*
X160098683Y-52438125D01*
X160179507Y-52682026D01*
X160231760Y-52975517D01*
X160250540Y-53327551D01*
X160235667Y-53639885D01*
X160193950Y-53906028D01*
X160128981Y-54132307D01*
X160032387Y-54345212D01*
X159917476Y-54511937D01*
X159784818Y-54639746D01*
X159628667Y-54735123D01*
X159454062Y-54792856D01*
X159256008Y-54812768D01*
X159066447Y-54795914D01*
X158901164Y-54747490D01*
X158755561Y-54668695D01*
X158626373Y-54558010D01*
X158511946Y-54411330D01*
X158405282Y-54208124D01*
X158324481Y-53964778D01*
X158272431Y-53674050D01*
X158253782Y-53327551D01*
X158676420Y-53327551D01*
X158688183Y-53644260D01*
X158719557Y-53886897D01*
X158765404Y-54069095D01*
X158821744Y-54202918D01*
X158906308Y-54324882D01*
X159004881Y-54407601D01*
X159119729Y-54457078D01*
X159256008Y-54474247D01*
X159389383Y-54457407D01*
X159502580Y-54408737D01*
X159600501Y-54327155D01*
X159685314Y-54206679D01*
X159741530Y-54074860D01*
X159787730Y-53891293D01*
X159819623Y-53642254D01*
X159831664Y-53312164D01*
X159819179Y-52985049D01*
X159786188Y-52739744D01*
X159738501Y-52560154D01*
X159680526Y-52432182D01*
X159593981Y-52315602D01*
X159495536Y-52236531D01*
X159383076Y-52189411D01*
X159252076Y-52173162D01*
X159112142Y-52191472D01*
X158995919Y-52244078D01*
X158897641Y-52332154D01*
X158815076Y-52462785D01*
X158760389Y-52605251D01*
X158716677Y-52790555D01*
X158687282Y-53027899D01*
X158676420Y-53327551D01*
X158253782Y-53327551D01*
X158268646Y-53013810D01*
X158310317Y-52746723D01*
X158375170Y-52519889D01*
X158472147Y-52306591D01*
X158588341Y-52139204D01*
X158723265Y-52010570D01*
X158881948Y-51914460D01*
X159057931Y-51856461D01*
X159256008Y-51836522D01*
X159442253Y-51853206D01*
G37*
G36*
X156459896Y-73497714D02*
G01*
X156769134Y-73543452D01*
X157025393Y-73613728D01*
X157236598Y-73705081D01*
X157409532Y-73815479D01*
X157537377Y-73932183D01*
X157642988Y-74068868D01*
X157727440Y-74227902D01*
X157790471Y-74412678D01*
X157830488Y-74627455D01*
X157844651Y-74877203D01*
X157830424Y-75129274D01*
X157789954Y-75349415D01*
X157725741Y-75541970D01*
X157639136Y-75710674D01*
X157530275Y-75858526D01*
X157398077Y-75987653D01*
X157218457Y-76112049D01*
X157002513Y-76213722D01*
X156744115Y-76291126D01*
X156435932Y-76341095D01*
X156069640Y-76359000D01*
X154992871Y-76359000D01*
X154992871Y-75999450D01*
X155379263Y-75999450D01*
X155815237Y-75999450D01*
X156088789Y-75999450D01*
X156367864Y-75986211D01*
X156597708Y-75949635D01*
X156785830Y-75893657D01*
X156938846Y-75821046D01*
X157062292Y-75733249D01*
X157167651Y-75621810D01*
X157251916Y-75486931D01*
X157315207Y-75324697D01*
X157355827Y-75129877D01*
X157370380Y-74896180D01*
X157354302Y-74654432D01*
X157309892Y-74458015D01*
X157241297Y-74298811D01*
X157140625Y-74160231D01*
X157006049Y-74045786D01*
X156831824Y-73954307D01*
X156641379Y-73894943D01*
X156398623Y-73855364D01*
X156092550Y-73840782D01*
X155815237Y-73840782D01*
X155815237Y-75999450D01*
X155379263Y-75999450D01*
X155379263Y-73840782D01*
X154992871Y-73840782D01*
X154992871Y-73481233D01*
X156088789Y-73481233D01*
X156459896Y-73497714D01*
G37*
G36*
X159379336Y-73443206D02*
G01*
X159542333Y-73491226D01*
X159686518Y-73569531D01*
X159815035Y-73679755D01*
X159929459Y-73826079D01*
X160035766Y-74028125D01*
X160116590Y-74272026D01*
X160168843Y-74565517D01*
X160187623Y-74917551D01*
X160172750Y-75229885D01*
X160131033Y-75496028D01*
X160066064Y-75722307D01*
X159969470Y-75935212D01*
X159854559Y-76101937D01*
X159721901Y-76229746D01*
X159565750Y-76325123D01*
X159391145Y-76382856D01*
X159193091Y-76402768D01*
X159003530Y-76385914D01*
X158838247Y-76337490D01*
X158692644Y-76258695D01*
X158563456Y-76148010D01*
X158449030Y-76001330D01*
X158342365Y-75798124D01*
X158261564Y-75554778D01*
X158209514Y-75264050D01*
X158190865Y-74917551D01*
X158613503Y-74917551D01*
X158625266Y-75234260D01*
X158656640Y-75476897D01*
X158702487Y-75659095D01*
X158758827Y-75792918D01*
X158843391Y-75914882D01*
X158941964Y-75997601D01*
X159056812Y-76047078D01*
X159193091Y-76064247D01*
X159326466Y-76047407D01*
X159439663Y-75998737D01*
X159537585Y-75917155D01*
X159622397Y-75796679D01*
X159678613Y-75664860D01*
X159724813Y-75481293D01*
X159756706Y-75232254D01*
X159768747Y-74902164D01*
X159756262Y-74575049D01*
X159723271Y-74329744D01*
X159675584Y-74150154D01*
X159617609Y-74022182D01*
X159531064Y-73905602D01*
X159432619Y-73826531D01*
X159320159Y-73779411D01*
X159189159Y-73763162D01*
X159049225Y-73781472D01*
X158933002Y-73834078D01*
X158834724Y-73922154D01*
X158752159Y-74052785D01*
X158697472Y-74195251D01*
X158653760Y-74380555D01*
X158624365Y-74617899D01*
X158613503Y-74917551D01*
X158190865Y-74917551D01*
X158205729Y-74603810D01*
X158247400Y-74336723D01*
X158312254Y-74109889D01*
X158409230Y-73896591D01*
X158525424Y-73729204D01*
X158660348Y-73600570D01*
X158819031Y-73504460D01*
X158995014Y-73446461D01*
X159193091Y-73426522D01*
X159379336Y-73443206D01*
G37*
M02*
