%TF.GenerationSoftware,KiCad,Pcbnew,10.0.5*%
%TF.CreationDate,2026-08-11T23:29:43+02:00*%
%TF.ProjectId,Toggle65,546f6767-6c65-4363-952e-6b696361645f,rev?*%
%TF.SameCoordinates,Original*%
%TF.FileFunction,Other,User*%
%FSLAX46Y46*%
G04 Gerber Fmt 4.6, Leading zero omitted, Abs format (unit mm)*
G04 Created by KiCad (PCBNEW 10.0.5) date 2026-08-11 23:29:43*
%MOMM*%
%LPD*%
G01*
G04 APERTURE LIST*
%ADD10C,0.100000*%
%ADD11C,0.050000*%
G04 APERTURE END LIST*
D10*
X20700000Y-22380000D02*
G75*
G02*
X24700000Y-18380000I4000000J0D01*
G01*
X24700000Y-117380000D02*
G75*
G02*
X20700000Y-113380000I0J4000000D01*
G01*
X165700000Y-18380000D02*
G75*
G02*
X169700000Y-22380000I0J-4000000D01*
G01*
X169700000Y-113380000D02*
G75*
G02*
X165700000Y-117380000I-4000000J0D01*
G01*
X24700000Y-18380000D02*
X165700000Y-18380000D01*
X20700000Y-113380000D02*
X20700000Y-22380000D01*
X165700000Y-117380000D02*
X24700000Y-117380000D01*
X169700000Y-22380000D02*
X169700000Y-113380000D01*
X20200000Y-17867400D02*
X170212400Y-17867400D01*
X170212400Y-117892600D01*
X20200000Y-117892600D01*
X20200000Y-17867400D01*
D11*
X164700000Y-19630000D02*
G75*
G02*
X168700000Y-23630000I0J-4000000D01*
G01*
X168700000Y-112380000D02*
G75*
G02*
X164700000Y-116380000I-4000000J0D01*
G01*
X21950000Y-23630000D02*
G75*
G02*
X25950000Y-19630000I4000000J0D01*
G01*
X25950000Y-116380000D02*
G75*
G02*
X21950000Y-112380000I0J4000000D01*
G01*
X24450000Y-117630000D02*
G75*
G02*
X20450000Y-113630000I0J4000000D01*
G01*
X169950000Y-113630000D02*
G75*
G02*
X165950000Y-117630000I-4000000J0D01*
G01*
X20450000Y-22130000D02*
G75*
G02*
X24450000Y-18130000I4000000J0D01*
G01*
X165950000Y-18130000D02*
G75*
G02*
X169950000Y-22130000I0J-4000000D01*
G01*
X164700000Y-116380000D02*
X25950000Y-116380000D01*
X19450000Y-13130000D02*
X170950000Y-13130000D01*
X25950000Y-19630000D02*
X164700000Y-19630000D01*
X168700000Y-23630000D02*
X168700000Y-112380000D01*
X21950000Y-112380000D02*
X21950000Y-23630000D01*
X20450000Y-113630000D02*
X20450000Y-22130000D01*
X165950000Y-117630000D02*
X24450000Y-117630000D01*
X169950000Y-22130000D02*
X169950000Y-113630000D01*
X24450000Y-18130000D02*
X165950000Y-18130000D01*
X170950000Y-13130000D02*
G75*
G02*
X174950000Y-17130000I0J-4000000D01*
G01*
X15450000Y-17130000D02*
G75*
G02*
X19450000Y-13130000I4000000J0D01*
G01*
X19450000Y-122630000D02*
G75*
G02*
X15450000Y-118630000I0J4000000D01*
G01*
X174950000Y-118630000D02*
G75*
G02*
X170950000Y-122630000I-4000000J0D01*
G01*
X15450000Y-118630000D02*
X15450000Y-17130000D01*
X170950000Y-122630000D02*
X19450000Y-122630000D01*
X174950000Y-17130000D02*
X174950000Y-118630000D01*
M02*
