M48
; DRILL file KiCad 10.0.5 date 2026-08-11T23:27:13
; FORMAT={-:-/ absolute / metric / decimal}
; #@! TF.CreationDate,2026-08-11T23:27:13+02:00
; #@! TF.GenerationSoftware,Kicad,Pcbnew,10.0.5
; #@! TF.FileFunction,Plated,1,2,PTH
FMAT,2
METRIC
; #@! TA.AperFunction,Plated,PTH,ComponentDrill
T1C0.700
; #@! TA.AperFunction,Plated,PTH,ViaDrill
T2C0.800
; #@! TA.AperFunction,Plated,PTH,ComponentDrill
T3C0.800
; #@! TA.AperFunction,Plated,PTH,ComponentDrill
T4C0.900
; #@! TA.AperFunction,Plated,PTH,ComponentDrill
T5C1.000
; #@! TA.AperFunction,Plated,PTH,ComponentDrill
T6C1.100
%
G90
G05
T1
X30.226Y-32.004
X31.842Y-24.069
X31.842Y-29.149
X34.295Y-106.045
X34.295Y-111.125
X35.306Y-32.004
X39.375Y-38.735
X39.375Y-45.085
X39.375Y-47.625
X39.375Y-51.435
X39.375Y-79.375
X39.375Y-84.455
X39.375Y-88.265
X39.375Y-93.345
X40.683Y-24.069
X40.683Y-29.149
X44.455Y-38.735
X44.455Y-51.435
X44.455Y-45.085
X44.455Y-47.625
X44.455Y-79.375
X44.455Y-84.455
X44.455Y-88.265
X44.455Y-93.345
X48.567Y-59.69
X49.573Y-24.069
X49.573Y-29.149
X53.647Y-59.69
X56.52Y-93.345
X56.52Y-98.425
X58.425Y-80.645
X58.463Y-24.069
X58.463Y-29.149
X60.965Y-84.455
X60.965Y-89.535
X63.505Y-80.645
X66.045Y-104.775
X66.045Y-109.855
X67.353Y-24.069
X67.353Y-29.149
X74.3Y-33.02
X74.3Y-38.1
X74.935Y-43.18
X74.935Y-48.26
X74.935Y-92.075
X74.935Y-97.155
X76.243Y-24.069
X76.243Y-29.149
X76.84Y-81.915
X77.475Y-92.075
X77.475Y-97.155
X80.015Y-86.995
X80.015Y-92.075
X81.92Y-81.915
X85.133Y-24.069
X85.133Y-29.149
X87.635Y-52.705
X92.08Y-33.02
X92.08Y-38.1
X92.715Y-52.705
X92.827Y-94.0
X95.293Y-24.069
X95.293Y-29.149
X97.907Y-94.0
X98.425Y-79.375
X98.425Y-84.455
X98.43Y-86.36
X98.43Y-91.44
X100.675Y-53.875
X101.605Y-106.045
X101.605Y-111.125
X104.267Y-57.467
X105.453Y-24.069
X105.453Y-29.149
X109.86Y-33.02
X109.86Y-38.1
X113.557Y-74.295
X113.557Y-79.375
X113.665Y-52.07
X113.665Y-57.15
X114.343Y-24.069
X114.343Y-29.149
X115.575Y-81.915
X115.575Y-86.995
X121.925Y-99.695
X121.925Y-104.775
X123.233Y-24.069
X123.233Y-29.149
X127.64Y-33.02
X127.64Y-38.1
X128.275Y-97.155
X129.545Y-88.265
X132.123Y-24.069
X132.123Y-29.149
X133.355Y-79.375
X133.355Y-84.455
X133.355Y-97.155
X134.625Y-88.265
X137.8Y-103.505
X140.975Y-64.135
X140.975Y-69.215
X141.013Y-23.434
X141.013Y-28.514
X142.88Y-103.505
X144.15Y-59.69
X145.42Y-33.02
X145.42Y-38.1
X146.69Y-88.265
X147.325Y-79.375
X148.069Y-47.099
X148.595Y-91.44
X148.595Y-96.52
X149.23Y-59.69
X149.903Y-24.069
X149.903Y-29.149
X151.661Y-50.691
X151.77Y-88.265
X152.405Y-79.375
X156.21Y-107.315
X158.793Y-24.069
X158.793Y-29.149
X159.802Y-110.907
X163.2Y-40.64
X163.2Y-45.72
X163.835Y-48.26
X163.835Y-53.34
T2
X40.962Y-80.328
X44.455Y-95.885
X45.09Y-73.025
X48.26Y-104.14
X55.885Y-38.1
X61.054Y-50.504
X63.134Y-33.276
X70.49Y-76.835
X73.665Y-76.835
X80.65Y-76.835
X86.505Y-51.93
X92.715Y-57.785
X95.715Y-80.927
X96.377Y-78.367
X101.075Y-104.25
X104.145Y-111.125
X107.955Y-59.055
X109.225Y-84.455
X110.495Y-69.639
X113.67Y-69.095
X130.666Y-64.175
X132.085Y-75.565
X135.2Y-64.63
X135.2Y-71.12
X136.53Y-58.42
X140.975Y-62.23
X145.987Y-74.167
X147.325Y-77.47
X151.77Y-73.025
X156.955Y-99.695
X160.66Y-76.2
X162.565Y-108.585
T3
X138.4Y-64.236
X138.4Y-69.236
X144.785Y-62.865
X144.785Y-70.485
X147.325Y-62.865
X147.325Y-70.485
X149.865Y-62.865
X149.865Y-70.485
X152.405Y-62.865
X152.405Y-70.485
X154.945Y-62.865
X154.945Y-70.485
X157.485Y-62.865
X157.485Y-70.485
X160.025Y-62.865
X160.025Y-70.485
T4
X26.14Y-25.78
X28.68Y-25.78
X31.755Y-80.645
X34.295Y-80.645
X35.03Y-25.78
X37.57Y-25.78
X43.92Y-25.78
X46.46Y-25.78
X49.535Y-80.645
X52.075Y-80.645
X52.81Y-25.78
X55.35Y-25.78
X61.7Y-25.78
X64.24Y-25.78
X67.315Y-80.645
X69.855Y-80.645
X70.59Y-25.78
X73.13Y-25.78
X79.425Y-25.78
X81.965Y-25.78
X85.095Y-80.645
X87.635Y-80.645
X88.3Y-25.78
X90.84Y-25.78
X99.8Y-25.78
X102.34Y-25.78
X102.875Y-80.645
X105.415Y-80.645
X108.69Y-25.78
X111.23Y-25.78
X117.58Y-25.78
X120.12Y-25.78
X120.655Y-80.645
X123.195Y-80.645
X126.5Y-25.78
X129.04Y-25.78
X135.295Y-25.78
X137.835Y-25.78
X138.435Y-80.645
X140.975Y-80.645
X144.195Y-25.78
X146.735Y-25.78
X153.095Y-25.78
X155.635Y-25.78
X156.215Y-80.645
X158.755Y-80.645
X162.03Y-25.78
X164.57Y-25.78
T5
X60.33Y-61.595
X60.33Y-74.295
X62.87Y-61.595
X62.87Y-74.295
X65.41Y-61.595
X65.41Y-74.295
X67.95Y-61.595
X67.95Y-74.295
X70.49Y-61.595
X70.49Y-74.295
X73.03Y-61.595
X73.03Y-74.295
X75.57Y-61.595
X75.57Y-74.295
X78.11Y-61.595
X78.11Y-74.295
X80.65Y-61.595
X80.65Y-74.295
X83.19Y-61.595
X83.19Y-74.295
X85.73Y-61.595
X85.73Y-74.295
X88.27Y-61.595
X88.27Y-74.295
X90.81Y-61.595
X90.81Y-74.295
X93.35Y-61.595
X93.35Y-74.295
X95.89Y-61.595
X95.89Y-74.295
X98.43Y-61.595
X98.43Y-74.295
X100.97Y-61.595
X100.97Y-74.295
X103.51Y-61.595
X103.51Y-74.295
X106.05Y-61.595
X106.05Y-74.295
X108.59Y-61.595
X108.59Y-74.295
X113.035Y-61.595
X113.035Y-64.135
T6
X116.21Y-59.69
X126.37Y-59.69
T5
G00X32.375Y-39.995
M15
G01X33.675Y-39.995
M16
G05
G00X32.375Y-44.445
M15
G01X33.675Y-44.445
M16
G05
G00X32.375Y-48.895
M15
G01X33.675Y-48.895
M16
G05
G00X32.375Y-87.625
M15
G01X33.675Y-87.625
M16
G05
G00X32.375Y-92.075
M15
G01X33.675Y-92.075
M16
G05
G00X32.375Y-96.525
M15
G01X33.675Y-96.525
M16
G05
G00X41.265Y-101.595
M15
G01X42.565Y-101.595
M16
G05
G00X41.265Y-106.045
M15
G01X42.565Y-106.045
M16
G05
G00X41.265Y-110.495
M15
G01X42.565Y-110.495
M16
G05
G00X46.355Y-64.12
M15
G01X46.355Y-65.42
M16
G05
G00X50.155Y-39.995
M15
G01X51.455Y-39.995
M16
G05
G00X50.155Y-44.445
M15
G01X51.455Y-44.445
M16
G05
G00X50.155Y-48.895
M15
G01X51.455Y-48.895
M16
G05
G00X50.805Y-64.12
M15
G01X50.805Y-65.42
M16
G05
G00X50.155Y-87.625
M15
G01X51.455Y-87.625
M16
G05
G00X50.155Y-92.075
M15
G01X51.455Y-92.075
M16
G05
G00X50.155Y-96.525
M15
G01X51.455Y-96.525
M16
G05
G00X55.255Y-64.12
M15
G01X55.255Y-65.42
M16
G05
G00X60.345Y-101.595
M15
G01X59.045Y-101.595
M16
G05
G00X60.345Y-106.045
M15
G01X59.045Y-106.045
M16
G05
G00X60.345Y-110.495
M15
G01X59.045Y-110.495
M16
G05
G00X67.935Y-40.005
M15
G01X69.235Y-40.005
M16
G05
G00X67.935Y-44.455
M15
G01X69.235Y-44.455
M16
G05
G00X67.935Y-48.905
M15
G01X69.235Y-48.905
M16
G05
G00X67.935Y-87.625
M15
G01X69.235Y-87.625
M16
G05
G00X67.935Y-92.075
M15
G01X69.235Y-92.075
M16
G05
G00X67.935Y-96.525
M15
G01X69.235Y-96.525
M16
G05
G00X78.125Y-101.595
M15
G01X76.825Y-101.595
M16
G05
G00X78.125Y-106.045
M15
G01X76.825Y-106.045
M16
G05
G00X78.125Y-110.495
M15
G01X76.825Y-110.495
M16
G05
G00X85.715Y-40.005
M15
G01X87.015Y-40.005
M16
G05
G00X85.715Y-44.455
M15
G01X87.015Y-44.455
M16
G05
G00X85.715Y-48.905
M15
G01X87.015Y-48.905
M16
G05
G00X85.715Y-87.625
M15
G01X87.015Y-87.625
M16
G05
G00X85.715Y-92.075
M15
G01X87.015Y-92.075
M16
G05
G00X85.715Y-96.525
M15
G01X87.015Y-96.525
M16
G05
G00X94.605Y-101.595
M15
G01X95.905Y-101.595
M16
G05
G00X94.605Y-106.045
M15
G01X95.905Y-106.045
M16
G05
G00X94.605Y-110.495
M15
G01X95.905Y-110.495
M16
G05
G00X103.495Y-40.005
M15
G01X104.795Y-40.005
M16
G05
G00X103.495Y-44.455
M15
G01X104.795Y-44.455
M16
G05
G00X103.495Y-48.905
M15
G01X104.795Y-48.905
M16
G05
G00X103.495Y-87.625
M15
G01X104.795Y-87.625
M16
G05
G00X103.495Y-92.075
M15
G01X104.795Y-92.075
M16
G05
G00X103.495Y-96.525
M15
G01X104.795Y-96.525
M16
G05
G00X112.385Y-101.595
M15
G01X113.685Y-101.595
M16
G05
G00X112.385Y-106.045
M15
G01X113.685Y-106.045
M16
G05
G00X112.385Y-110.495
M15
G01X113.685Y-110.495
M16
G05
G00X118.105Y-64.12
M15
G01X118.105Y-65.42
M16
G05
G00X121.275Y-40.005
M15
G01X122.575Y-40.005
M16
G05
G00X121.275Y-44.455
M15
G01X122.575Y-44.455
M16
G05
G00X121.275Y-48.905
M15
G01X122.575Y-48.905
M16
G05
G00X121.275Y-87.625
M15
G01X122.575Y-87.625
M16
G05
G00X121.275Y-92.075
M15
G01X122.575Y-92.075
M16
G05
G00X121.275Y-96.525
M15
G01X122.575Y-96.525
M16
G05
G00X122.555Y-64.12
M15
G01X122.555Y-65.42
M16
G05
G00X127.005Y-64.12
M15
G01X127.005Y-65.42
M16
G05
G00X131.465Y-101.595
M15
G01X130.165Y-101.595
M16
G05
G00X131.465Y-106.045
M15
G01X130.165Y-106.045
M16
G05
G00X131.465Y-110.495
M15
G01X130.165Y-110.495
M16
G05
G00X139.055Y-40.005
M15
G01X140.355Y-40.005
M16
G05
G00X139.055Y-44.455
M15
G01X140.355Y-44.455
M16
G05
G00X139.055Y-48.905
M15
G01X140.355Y-48.905
M16
G05
G00X139.055Y-87.625
M15
G01X140.355Y-87.625
M16
G05
G00X139.055Y-92.075
M15
G01X140.355Y-92.075
M16
G05
G00X139.055Y-96.525
M15
G01X140.355Y-96.525
M16
G05
G00X147.945Y-101.595
M15
G01X149.245Y-101.595
M16
G05
G00X147.945Y-106.045
M15
G01X149.245Y-106.045
M16
G05
G00X147.945Y-110.495
M15
G01X149.245Y-110.495
M16
G05
G00X156.835Y-39.995
M15
G01X158.135Y-39.995
M16
G05
G00X156.835Y-44.445
M15
G01X158.135Y-44.445
M16
G05
G00X156.835Y-48.895
M15
G01X158.135Y-48.895
M16
G05
G00X156.835Y-87.625
M15
G01X158.135Y-87.625
M16
G05
G00X156.835Y-92.075
M15
G01X158.135Y-92.075
M16
G05
G00X156.835Y-96.525
M15
G01X158.135Y-96.525
M16
G05
M30
