%TF.GenerationSoftware,KiCad,Pcbnew,10.0.5*%
%TF.CreationDate,2026-08-11T23:27:13+02:00*%
%TF.ProjectId,Toggle65,546f6767-6c65-4363-952e-6b696361645f,rev?*%
%TF.SameCoordinates,Original*%
%TF.FileFunction,Drillmap*%
%TF.FilePolarity,Positive*%
%FSLAX45Y45*%
G04 Gerber Fmt 4.5, Leading zero omitted, Abs format (unit mm)*
G04 Created by KiCad (PCBNEW 10.0.5) date 2026-08-11 23:27:13*
%MOMM*%
%LPD*%
G01*
G04 APERTURE LIST*
%ADD10C,0.200000*%
%ADD11C,0.320000*%
G04 APERTURE END LIST*
D10*
X2286000Y-2495500D02*
G75*
G02*
X2686000Y-2095500I400000J0D01*
G01*
X2286000Y-11093500D02*
X2286000Y-2495500D01*
X2686000Y-2095500D02*
X16364000Y-2095500D01*
X2686000Y-11493500D02*
G75*
G02*
X2286000Y-11093500I0J400000D01*
G01*
X16364000Y-2095500D02*
G75*
G02*
X16764000Y-2495500I0J-400000D01*
G01*
X16364000Y-11493500D02*
X2686000Y-11493500D01*
X16764000Y-2495500D02*
X16764000Y-11093500D01*
X16764000Y-11093500D02*
G75*
G02*
X16364000Y-11493500I-400000J0D01*
G01*
D11*
X2421397Y-3054065D02*
X2741397Y-3374065D01*
X2741397Y-3054065D02*
X2421397Y-3374065D01*
X2421397Y-11055065D02*
X2741397Y-11375065D01*
X2741397Y-11055065D02*
X2421397Y-11375065D01*
X16327897Y-3054065D02*
X16647897Y-3374065D01*
X16647897Y-3054065D02*
X16327897Y-3374065D01*
X16327897Y-11055065D02*
X16647897Y-11375065D01*
X16647897Y-11055065D02*
X16327897Y-11375065D01*
D10*
X2536777Y-11814984D02*
X2536777Y-11614984D01*
X2536777Y-11614984D02*
X2584396Y-11614984D01*
X2584396Y-11614984D02*
X2612967Y-11624508D01*
X2612967Y-11624508D02*
X2632015Y-11643555D01*
X2632015Y-11643555D02*
X2641539Y-11662603D01*
X2641539Y-11662603D02*
X2651063Y-11700698D01*
X2651063Y-11700698D02*
X2651063Y-11729269D01*
X2651063Y-11729269D02*
X2641539Y-11767365D01*
X2641539Y-11767365D02*
X2632015Y-11786412D01*
X2632015Y-11786412D02*
X2612967Y-11805460D01*
X2612967Y-11805460D02*
X2584396Y-11814984D01*
X2584396Y-11814984D02*
X2536777Y-11814984D01*
X2736777Y-11814984D02*
X2736777Y-11681650D01*
X2736777Y-11719746D02*
X2746301Y-11700698D01*
X2746301Y-11700698D02*
X2755824Y-11691174D01*
X2755824Y-11691174D02*
X2774872Y-11681650D01*
X2774872Y-11681650D02*
X2793920Y-11681650D01*
X2860586Y-11814984D02*
X2860586Y-11681650D01*
X2860586Y-11614984D02*
X2851062Y-11624508D01*
X2851062Y-11624508D02*
X2860586Y-11634031D01*
X2860586Y-11634031D02*
X2870110Y-11624508D01*
X2870110Y-11624508D02*
X2860586Y-11614984D01*
X2860586Y-11614984D02*
X2860586Y-11634031D01*
X2984396Y-11814984D02*
X2965348Y-11805460D01*
X2965348Y-11805460D02*
X2955824Y-11786412D01*
X2955824Y-11786412D02*
X2955824Y-11614984D01*
X3089158Y-11814984D02*
X3070110Y-11805460D01*
X3070110Y-11805460D02*
X3060586Y-11786412D01*
X3060586Y-11786412D02*
X3060586Y-11614984D01*
X3317729Y-11814984D02*
X3317729Y-11614984D01*
X3317729Y-11614984D02*
X3384396Y-11757841D01*
X3384396Y-11757841D02*
X3451062Y-11614984D01*
X3451062Y-11614984D02*
X3451062Y-11814984D01*
X3632015Y-11814984D02*
X3632015Y-11710222D01*
X3632015Y-11710222D02*
X3622491Y-11691174D01*
X3622491Y-11691174D02*
X3603443Y-11681650D01*
X3603443Y-11681650D02*
X3565348Y-11681650D01*
X3565348Y-11681650D02*
X3546301Y-11691174D01*
X3632015Y-11805460D02*
X3612967Y-11814984D01*
X3612967Y-11814984D02*
X3565348Y-11814984D01*
X3565348Y-11814984D02*
X3546301Y-11805460D01*
X3546301Y-11805460D02*
X3536777Y-11786412D01*
X3536777Y-11786412D02*
X3536777Y-11767365D01*
X3536777Y-11767365D02*
X3546301Y-11748317D01*
X3546301Y-11748317D02*
X3565348Y-11738793D01*
X3565348Y-11738793D02*
X3612967Y-11738793D01*
X3612967Y-11738793D02*
X3632015Y-11729269D01*
X3727253Y-11681650D02*
X3727253Y-11881650D01*
X3727253Y-11691174D02*
X3746301Y-11681650D01*
X3746301Y-11681650D02*
X3784396Y-11681650D01*
X3784396Y-11681650D02*
X3803443Y-11691174D01*
X3803443Y-11691174D02*
X3812967Y-11700698D01*
X3812967Y-11700698D02*
X3822491Y-11719746D01*
X3822491Y-11719746D02*
X3822491Y-11776888D01*
X3822491Y-11776888D02*
X3812967Y-11795936D01*
X3812967Y-11795936D02*
X3803443Y-11805460D01*
X3803443Y-11805460D02*
X3784396Y-11814984D01*
X3784396Y-11814984D02*
X3746301Y-11814984D01*
X3746301Y-11814984D02*
X3727253Y-11805460D01*
X3908205Y-11795936D02*
X3917729Y-11805460D01*
X3917729Y-11805460D02*
X3908205Y-11814984D01*
X3908205Y-11814984D02*
X3898682Y-11805460D01*
X3898682Y-11805460D02*
X3908205Y-11795936D01*
X3908205Y-11795936D02*
X3908205Y-11814984D01*
X3908205Y-11691174D02*
X3917729Y-11700698D01*
X3917729Y-11700698D02*
X3908205Y-11710222D01*
X3908205Y-11710222D02*
X3898682Y-11700698D01*
X3898682Y-11700698D02*
X3908205Y-11691174D01*
X3908205Y-11691174D02*
X3908205Y-11710222D01*
X2076000Y-12043500D02*
X2276000Y-12243500D01*
X2276000Y-12043500D02*
X2076000Y-12243500D01*
X2517729Y-12034984D02*
X2641539Y-12034984D01*
X2641539Y-12034984D02*
X2574872Y-12111174D01*
X2574872Y-12111174D02*
X2603444Y-12111174D01*
X2603444Y-12111174D02*
X2622491Y-12120698D01*
X2622491Y-12120698D02*
X2632015Y-12130222D01*
X2632015Y-12130222D02*
X2641539Y-12149269D01*
X2641539Y-12149269D02*
X2641539Y-12196888D01*
X2641539Y-12196888D02*
X2632015Y-12215936D01*
X2632015Y-12215936D02*
X2622491Y-12225460D01*
X2622491Y-12225460D02*
X2603444Y-12234984D01*
X2603444Y-12234984D02*
X2546301Y-12234984D01*
X2546301Y-12234984D02*
X2527253Y-12225460D01*
X2527253Y-12225460D02*
X2517729Y-12215936D01*
X2727253Y-12215936D02*
X2736777Y-12225460D01*
X2736777Y-12225460D02*
X2727253Y-12234984D01*
X2727253Y-12234984D02*
X2717729Y-12225460D01*
X2717729Y-12225460D02*
X2727253Y-12215936D01*
X2727253Y-12215936D02*
X2727253Y-12234984D01*
X2812967Y-12054031D02*
X2822491Y-12044508D01*
X2822491Y-12044508D02*
X2841539Y-12034984D01*
X2841539Y-12034984D02*
X2889158Y-12034984D01*
X2889158Y-12034984D02*
X2908205Y-12044508D01*
X2908205Y-12044508D02*
X2917729Y-12054031D01*
X2917729Y-12054031D02*
X2927253Y-12073079D01*
X2927253Y-12073079D02*
X2927253Y-12092127D01*
X2927253Y-12092127D02*
X2917729Y-12120698D01*
X2917729Y-12120698D02*
X2803443Y-12234984D01*
X2803443Y-12234984D02*
X2927253Y-12234984D01*
X3051062Y-12034984D02*
X3070110Y-12034984D01*
X3070110Y-12034984D02*
X3089158Y-12044508D01*
X3089158Y-12044508D02*
X3098682Y-12054031D01*
X3098682Y-12054031D02*
X3108205Y-12073079D01*
X3108205Y-12073079D02*
X3117729Y-12111174D01*
X3117729Y-12111174D02*
X3117729Y-12158793D01*
X3117729Y-12158793D02*
X3108205Y-12196888D01*
X3108205Y-12196888D02*
X3098682Y-12215936D01*
X3098682Y-12215936D02*
X3089158Y-12225460D01*
X3089158Y-12225460D02*
X3070110Y-12234984D01*
X3070110Y-12234984D02*
X3051062Y-12234984D01*
X3051062Y-12234984D02*
X3032015Y-12225460D01*
X3032015Y-12225460D02*
X3022491Y-12215936D01*
X3022491Y-12215936D02*
X3012967Y-12196888D01*
X3012967Y-12196888D02*
X3003443Y-12158793D01*
X3003443Y-12158793D02*
X3003443Y-12111174D01*
X3003443Y-12111174D02*
X3012967Y-12073079D01*
X3012967Y-12073079D02*
X3022491Y-12054031D01*
X3022491Y-12054031D02*
X3032015Y-12044508D01*
X3032015Y-12044508D02*
X3051062Y-12034984D01*
X3241539Y-12034984D02*
X3260586Y-12034984D01*
X3260586Y-12034984D02*
X3279634Y-12044508D01*
X3279634Y-12044508D02*
X3289158Y-12054031D01*
X3289158Y-12054031D02*
X3298682Y-12073079D01*
X3298682Y-12073079D02*
X3308205Y-12111174D01*
X3308205Y-12111174D02*
X3308205Y-12158793D01*
X3308205Y-12158793D02*
X3298682Y-12196888D01*
X3298682Y-12196888D02*
X3289158Y-12215936D01*
X3289158Y-12215936D02*
X3279634Y-12225460D01*
X3279634Y-12225460D02*
X3260586Y-12234984D01*
X3260586Y-12234984D02*
X3241539Y-12234984D01*
X3241539Y-12234984D02*
X3222491Y-12225460D01*
X3222491Y-12225460D02*
X3212967Y-12215936D01*
X3212967Y-12215936D02*
X3203443Y-12196888D01*
X3203443Y-12196888D02*
X3193920Y-12158793D01*
X3193920Y-12158793D02*
X3193920Y-12111174D01*
X3193920Y-12111174D02*
X3203443Y-12073079D01*
X3203443Y-12073079D02*
X3212967Y-12054031D01*
X3212967Y-12054031D02*
X3222491Y-12044508D01*
X3222491Y-12044508D02*
X3241539Y-12034984D01*
X3393920Y-12234984D02*
X3393920Y-12101650D01*
X3393920Y-12120698D02*
X3403443Y-12111174D01*
X3403443Y-12111174D02*
X3422491Y-12101650D01*
X3422491Y-12101650D02*
X3451063Y-12101650D01*
X3451063Y-12101650D02*
X3470110Y-12111174D01*
X3470110Y-12111174D02*
X3479634Y-12130222D01*
X3479634Y-12130222D02*
X3479634Y-12234984D01*
X3479634Y-12130222D02*
X3489158Y-12111174D01*
X3489158Y-12111174D02*
X3508205Y-12101650D01*
X3508205Y-12101650D02*
X3536777Y-12101650D01*
X3536777Y-12101650D02*
X3555824Y-12111174D01*
X3555824Y-12111174D02*
X3565348Y-12130222D01*
X3565348Y-12130222D02*
X3565348Y-12234984D01*
X3660586Y-12234984D02*
X3660586Y-12101650D01*
X3660586Y-12120698D02*
X3670110Y-12111174D01*
X3670110Y-12111174D02*
X3689158Y-12101650D01*
X3689158Y-12101650D02*
X3717729Y-12101650D01*
X3717729Y-12101650D02*
X3736777Y-12111174D01*
X3736777Y-12111174D02*
X3746301Y-12130222D01*
X3746301Y-12130222D02*
X3746301Y-12234984D01*
X3746301Y-12130222D02*
X3755824Y-12111174D01*
X3755824Y-12111174D02*
X3774872Y-12101650D01*
X3774872Y-12101650D02*
X3803443Y-12101650D01*
X3803443Y-12101650D02*
X3822491Y-12111174D01*
X3822491Y-12111174D02*
X3832015Y-12130222D01*
X3832015Y-12130222D02*
X3832015Y-12234984D01*
X4222491Y-12025460D02*
X4051063Y-12282603D01*
X4479634Y-12034984D02*
X4498682Y-12034984D01*
X4498682Y-12034984D02*
X4517729Y-12044508D01*
X4517729Y-12044508D02*
X4527253Y-12054031D01*
X4527253Y-12054031D02*
X4536777Y-12073079D01*
X4536777Y-12073079D02*
X4546301Y-12111174D01*
X4546301Y-12111174D02*
X4546301Y-12158793D01*
X4546301Y-12158793D02*
X4536777Y-12196888D01*
X4536777Y-12196888D02*
X4527253Y-12215936D01*
X4527253Y-12215936D02*
X4517729Y-12225460D01*
X4517729Y-12225460D02*
X4498682Y-12234984D01*
X4498682Y-12234984D02*
X4479634Y-12234984D01*
X4479634Y-12234984D02*
X4460587Y-12225460D01*
X4460587Y-12225460D02*
X4451063Y-12215936D01*
X4451063Y-12215936D02*
X4441539Y-12196888D01*
X4441539Y-12196888D02*
X4432015Y-12158793D01*
X4432015Y-12158793D02*
X4432015Y-12111174D01*
X4432015Y-12111174D02*
X4441539Y-12073079D01*
X4441539Y-12073079D02*
X4451063Y-12054031D01*
X4451063Y-12054031D02*
X4460587Y-12044508D01*
X4460587Y-12044508D02*
X4479634Y-12034984D01*
X4632015Y-12215936D02*
X4641539Y-12225460D01*
X4641539Y-12225460D02*
X4632015Y-12234984D01*
X4632015Y-12234984D02*
X4622491Y-12225460D01*
X4622491Y-12225460D02*
X4632015Y-12215936D01*
X4632015Y-12215936D02*
X4632015Y-12234984D01*
X4832015Y-12234984D02*
X4717729Y-12234984D01*
X4774872Y-12234984D02*
X4774872Y-12034984D01*
X4774872Y-12034984D02*
X4755825Y-12063555D01*
X4755825Y-12063555D02*
X4736777Y-12082603D01*
X4736777Y-12082603D02*
X4717729Y-12092127D01*
X4908206Y-12054031D02*
X4917729Y-12044508D01*
X4917729Y-12044508D02*
X4936777Y-12034984D01*
X4936777Y-12034984D02*
X4984396Y-12034984D01*
X4984396Y-12034984D02*
X5003444Y-12044508D01*
X5003444Y-12044508D02*
X5012968Y-12054031D01*
X5012968Y-12054031D02*
X5022491Y-12073079D01*
X5022491Y-12073079D02*
X5022491Y-12092127D01*
X5022491Y-12092127D02*
X5012968Y-12120698D01*
X5012968Y-12120698D02*
X4898682Y-12234984D01*
X4898682Y-12234984D02*
X5022491Y-12234984D01*
X5193920Y-12034984D02*
X5155825Y-12034984D01*
X5155825Y-12034984D02*
X5136777Y-12044508D01*
X5136777Y-12044508D02*
X5127253Y-12054031D01*
X5127253Y-12054031D02*
X5108206Y-12082603D01*
X5108206Y-12082603D02*
X5098682Y-12120698D01*
X5098682Y-12120698D02*
X5098682Y-12196888D01*
X5098682Y-12196888D02*
X5108206Y-12215936D01*
X5108206Y-12215936D02*
X5117729Y-12225460D01*
X5117729Y-12225460D02*
X5136777Y-12234984D01*
X5136777Y-12234984D02*
X5174872Y-12234984D01*
X5174872Y-12234984D02*
X5193920Y-12225460D01*
X5193920Y-12225460D02*
X5203444Y-12215936D01*
X5203444Y-12215936D02*
X5212968Y-12196888D01*
X5212968Y-12196888D02*
X5212968Y-12149269D01*
X5212968Y-12149269D02*
X5203444Y-12130222D01*
X5203444Y-12130222D02*
X5193920Y-12120698D01*
X5193920Y-12120698D02*
X5174872Y-12111174D01*
X5174872Y-12111174D02*
X5136777Y-12111174D01*
X5136777Y-12111174D02*
X5117729Y-12120698D01*
X5117729Y-12120698D02*
X5108206Y-12130222D01*
X5108206Y-12130222D02*
X5098682Y-12149269D01*
X5336777Y-12034984D02*
X5355825Y-12034984D01*
X5355825Y-12034984D02*
X5374872Y-12044508D01*
X5374872Y-12044508D02*
X5384396Y-12054031D01*
X5384396Y-12054031D02*
X5393920Y-12073079D01*
X5393920Y-12073079D02*
X5403444Y-12111174D01*
X5403444Y-12111174D02*
X5403444Y-12158793D01*
X5403444Y-12158793D02*
X5393920Y-12196888D01*
X5393920Y-12196888D02*
X5384396Y-12215936D01*
X5384396Y-12215936D02*
X5374872Y-12225460D01*
X5374872Y-12225460D02*
X5355825Y-12234984D01*
X5355825Y-12234984D02*
X5336777Y-12234984D01*
X5336777Y-12234984D02*
X5317729Y-12225460D01*
X5317729Y-12225460D02*
X5308206Y-12215936D01*
X5308206Y-12215936D02*
X5298682Y-12196888D01*
X5298682Y-12196888D02*
X5289158Y-12158793D01*
X5289158Y-12158793D02*
X5289158Y-12111174D01*
X5289158Y-12111174D02*
X5298682Y-12073079D01*
X5298682Y-12073079D02*
X5308206Y-12054031D01*
X5308206Y-12054031D02*
X5317729Y-12044508D01*
X5317729Y-12044508D02*
X5336777Y-12034984D01*
X5479634Y-12034984D02*
X5479634Y-12073079D01*
X5555825Y-12034984D02*
X5555825Y-12073079D01*
X5851063Y-12311174D02*
X5841539Y-12301650D01*
X5841539Y-12301650D02*
X5822491Y-12273079D01*
X5822491Y-12273079D02*
X5812968Y-12254031D01*
X5812968Y-12254031D02*
X5803444Y-12225460D01*
X5803444Y-12225460D02*
X5793920Y-12177841D01*
X5793920Y-12177841D02*
X5793920Y-12139746D01*
X5793920Y-12139746D02*
X5803444Y-12092127D01*
X5803444Y-12092127D02*
X5812968Y-12063555D01*
X5812968Y-12063555D02*
X5822491Y-12044508D01*
X5822491Y-12044508D02*
X5841539Y-12015936D01*
X5841539Y-12015936D02*
X5851063Y-12006412D01*
X6012968Y-12101650D02*
X6012968Y-12234984D01*
X5965348Y-12025460D02*
X5917729Y-12168317D01*
X5917729Y-12168317D02*
X6041539Y-12168317D01*
X6270110Y-12234984D02*
X6270110Y-12034984D01*
X6355825Y-12234984D02*
X6355825Y-12130222D01*
X6355825Y-12130222D02*
X6346301Y-12111174D01*
X6346301Y-12111174D02*
X6327253Y-12101650D01*
X6327253Y-12101650D02*
X6298682Y-12101650D01*
X6298682Y-12101650D02*
X6279634Y-12111174D01*
X6279634Y-12111174D02*
X6270110Y-12120698D01*
X6479634Y-12234984D02*
X6460587Y-12225460D01*
X6460587Y-12225460D02*
X6451063Y-12215936D01*
X6451063Y-12215936D02*
X6441539Y-12196888D01*
X6441539Y-12196888D02*
X6441539Y-12139746D01*
X6441539Y-12139746D02*
X6451063Y-12120698D01*
X6451063Y-12120698D02*
X6460587Y-12111174D01*
X6460587Y-12111174D02*
X6479634Y-12101650D01*
X6479634Y-12101650D02*
X6508206Y-12101650D01*
X6508206Y-12101650D02*
X6527253Y-12111174D01*
X6527253Y-12111174D02*
X6536777Y-12120698D01*
X6536777Y-12120698D02*
X6546301Y-12139746D01*
X6546301Y-12139746D02*
X6546301Y-12196888D01*
X6546301Y-12196888D02*
X6536777Y-12215936D01*
X6536777Y-12215936D02*
X6527253Y-12225460D01*
X6527253Y-12225460D02*
X6508206Y-12234984D01*
X6508206Y-12234984D02*
X6479634Y-12234984D01*
X6660587Y-12234984D02*
X6641539Y-12225460D01*
X6641539Y-12225460D02*
X6632015Y-12206412D01*
X6632015Y-12206412D02*
X6632015Y-12034984D01*
X6812968Y-12225460D02*
X6793920Y-12234984D01*
X6793920Y-12234984D02*
X6755825Y-12234984D01*
X6755825Y-12234984D02*
X6736777Y-12225460D01*
X6736777Y-12225460D02*
X6727253Y-12206412D01*
X6727253Y-12206412D02*
X6727253Y-12130222D01*
X6727253Y-12130222D02*
X6736777Y-12111174D01*
X6736777Y-12111174D02*
X6755825Y-12101650D01*
X6755825Y-12101650D02*
X6793920Y-12101650D01*
X6793920Y-12101650D02*
X6812968Y-12111174D01*
X6812968Y-12111174D02*
X6822491Y-12130222D01*
X6822491Y-12130222D02*
X6822491Y-12149269D01*
X6822491Y-12149269D02*
X6727253Y-12168317D01*
X6898682Y-12225460D02*
X6917730Y-12234984D01*
X6917730Y-12234984D02*
X6955825Y-12234984D01*
X6955825Y-12234984D02*
X6974872Y-12225460D01*
X6974872Y-12225460D02*
X6984396Y-12206412D01*
X6984396Y-12206412D02*
X6984396Y-12196888D01*
X6984396Y-12196888D02*
X6974872Y-12177841D01*
X6974872Y-12177841D02*
X6955825Y-12168317D01*
X6955825Y-12168317D02*
X6927253Y-12168317D01*
X6927253Y-12168317D02*
X6908206Y-12158793D01*
X6908206Y-12158793D02*
X6898682Y-12139746D01*
X6898682Y-12139746D02*
X6898682Y-12130222D01*
X6898682Y-12130222D02*
X6908206Y-12111174D01*
X6908206Y-12111174D02*
X6927253Y-12101650D01*
X6927253Y-12101650D02*
X6955825Y-12101650D01*
X6955825Y-12101650D02*
X6974872Y-12111174D01*
X7051063Y-12311174D02*
X7060587Y-12301650D01*
X7060587Y-12301650D02*
X7079634Y-12273079D01*
X7079634Y-12273079D02*
X7089158Y-12254031D01*
X7089158Y-12254031D02*
X7098682Y-12225460D01*
X7098682Y-12225460D02*
X7108206Y-12177841D01*
X7108206Y-12177841D02*
X7108206Y-12139746D01*
X7108206Y-12139746D02*
X7098682Y-12092127D01*
X7098682Y-12092127D02*
X7089158Y-12063555D01*
X7089158Y-12063555D02*
X7079634Y-12044508D01*
X7079634Y-12044508D02*
X7060587Y-12015936D01*
X7060587Y-12015936D02*
X7051063Y-12006412D01*
X7412968Y-12311174D02*
X7403444Y-12301650D01*
X7403444Y-12301650D02*
X7384396Y-12273079D01*
X7384396Y-12273079D02*
X7374872Y-12254031D01*
X7374872Y-12254031D02*
X7365349Y-12225460D01*
X7365349Y-12225460D02*
X7355825Y-12177841D01*
X7355825Y-12177841D02*
X7355825Y-12139746D01*
X7355825Y-12139746D02*
X7365349Y-12092127D01*
X7365349Y-12092127D02*
X7374872Y-12063555D01*
X7374872Y-12063555D02*
X7384396Y-12044508D01*
X7384396Y-12044508D02*
X7403444Y-12015936D01*
X7403444Y-12015936D02*
X7412968Y-12006412D01*
X7489158Y-12101650D02*
X7489158Y-12234984D01*
X7489158Y-12120698D02*
X7498682Y-12111174D01*
X7498682Y-12111174D02*
X7517730Y-12101650D01*
X7517730Y-12101650D02*
X7546301Y-12101650D01*
X7546301Y-12101650D02*
X7565349Y-12111174D01*
X7565349Y-12111174D02*
X7574872Y-12130222D01*
X7574872Y-12130222D02*
X7574872Y-12234984D01*
X7698682Y-12234984D02*
X7679634Y-12225460D01*
X7679634Y-12225460D02*
X7670111Y-12215936D01*
X7670111Y-12215936D02*
X7660587Y-12196888D01*
X7660587Y-12196888D02*
X7660587Y-12139746D01*
X7660587Y-12139746D02*
X7670111Y-12120698D01*
X7670111Y-12120698D02*
X7679634Y-12111174D01*
X7679634Y-12111174D02*
X7698682Y-12101650D01*
X7698682Y-12101650D02*
X7727253Y-12101650D01*
X7727253Y-12101650D02*
X7746301Y-12111174D01*
X7746301Y-12111174D02*
X7755825Y-12120698D01*
X7755825Y-12120698D02*
X7765349Y-12139746D01*
X7765349Y-12139746D02*
X7765349Y-12196888D01*
X7765349Y-12196888D02*
X7755825Y-12215936D01*
X7755825Y-12215936D02*
X7746301Y-12225460D01*
X7746301Y-12225460D02*
X7727253Y-12234984D01*
X7727253Y-12234984D02*
X7698682Y-12234984D01*
X7822492Y-12101650D02*
X7898682Y-12101650D01*
X7851063Y-12034984D02*
X7851063Y-12206412D01*
X7851063Y-12206412D02*
X7860587Y-12225460D01*
X7860587Y-12225460D02*
X7879634Y-12234984D01*
X7879634Y-12234984D02*
X7898682Y-12234984D01*
X8117730Y-12101650D02*
X8117730Y-12301650D01*
X8117730Y-12111174D02*
X8136777Y-12101650D01*
X8136777Y-12101650D02*
X8174873Y-12101650D01*
X8174873Y-12101650D02*
X8193920Y-12111174D01*
X8193920Y-12111174D02*
X8203444Y-12120698D01*
X8203444Y-12120698D02*
X8212968Y-12139746D01*
X8212968Y-12139746D02*
X8212968Y-12196888D01*
X8212968Y-12196888D02*
X8203444Y-12215936D01*
X8203444Y-12215936D02*
X8193920Y-12225460D01*
X8193920Y-12225460D02*
X8174873Y-12234984D01*
X8174873Y-12234984D02*
X8136777Y-12234984D01*
X8136777Y-12234984D02*
X8117730Y-12225460D01*
X8327253Y-12234984D02*
X8308206Y-12225460D01*
X8308206Y-12225460D02*
X8298682Y-12206412D01*
X8298682Y-12206412D02*
X8298682Y-12034984D01*
X8489158Y-12234984D02*
X8489158Y-12130222D01*
X8489158Y-12130222D02*
X8479635Y-12111174D01*
X8479635Y-12111174D02*
X8460587Y-12101650D01*
X8460587Y-12101650D02*
X8422492Y-12101650D01*
X8422492Y-12101650D02*
X8403444Y-12111174D01*
X8489158Y-12225460D02*
X8470111Y-12234984D01*
X8470111Y-12234984D02*
X8422492Y-12234984D01*
X8422492Y-12234984D02*
X8403444Y-12225460D01*
X8403444Y-12225460D02*
X8393920Y-12206412D01*
X8393920Y-12206412D02*
X8393920Y-12187365D01*
X8393920Y-12187365D02*
X8403444Y-12168317D01*
X8403444Y-12168317D02*
X8422492Y-12158793D01*
X8422492Y-12158793D02*
X8470111Y-12158793D01*
X8470111Y-12158793D02*
X8489158Y-12149269D01*
X8555825Y-12101650D02*
X8632015Y-12101650D01*
X8584396Y-12034984D02*
X8584396Y-12206412D01*
X8584396Y-12206412D02*
X8593920Y-12225460D01*
X8593920Y-12225460D02*
X8612968Y-12234984D01*
X8612968Y-12234984D02*
X8632015Y-12234984D01*
X8774873Y-12225460D02*
X8755825Y-12234984D01*
X8755825Y-12234984D02*
X8717730Y-12234984D01*
X8717730Y-12234984D02*
X8698682Y-12225460D01*
X8698682Y-12225460D02*
X8689158Y-12206412D01*
X8689158Y-12206412D02*
X8689158Y-12130222D01*
X8689158Y-12130222D02*
X8698682Y-12111174D01*
X8698682Y-12111174D02*
X8717730Y-12101650D01*
X8717730Y-12101650D02*
X8755825Y-12101650D01*
X8755825Y-12101650D02*
X8774873Y-12111174D01*
X8774873Y-12111174D02*
X8784396Y-12130222D01*
X8784396Y-12130222D02*
X8784396Y-12149269D01*
X8784396Y-12149269D02*
X8689158Y-12168317D01*
X8955825Y-12234984D02*
X8955825Y-12034984D01*
X8955825Y-12225460D02*
X8936777Y-12234984D01*
X8936777Y-12234984D02*
X8898682Y-12234984D01*
X8898682Y-12234984D02*
X8879635Y-12225460D01*
X8879635Y-12225460D02*
X8870111Y-12215936D01*
X8870111Y-12215936D02*
X8860587Y-12196888D01*
X8860587Y-12196888D02*
X8860587Y-12139746D01*
X8860587Y-12139746D02*
X8870111Y-12120698D01*
X8870111Y-12120698D02*
X8879635Y-12111174D01*
X8879635Y-12111174D02*
X8898682Y-12101650D01*
X8898682Y-12101650D02*
X8936777Y-12101650D01*
X8936777Y-12101650D02*
X8955825Y-12111174D01*
X9032016Y-12311174D02*
X9041539Y-12301650D01*
X9041539Y-12301650D02*
X9060587Y-12273079D01*
X9060587Y-12273079D02*
X9070111Y-12254031D01*
X9070111Y-12254031D02*
X9079635Y-12225460D01*
X9079635Y-12225460D02*
X9089158Y-12177841D01*
X9089158Y-12177841D02*
X9089158Y-12139746D01*
X9089158Y-12139746D02*
X9079635Y-12092127D01*
X9079635Y-12092127D02*
X9070111Y-12063555D01*
X9070111Y-12063555D02*
X9060587Y-12044508D01*
X9060587Y-12044508D02*
X9041539Y-12015936D01*
X9041539Y-12015936D02*
X9032016Y-12006412D01*
M02*
