G04 #@! TF.GenerationSoftware,KiCad,Pcbnew,10.0.5*
G04 #@! TF.CreationDate,2026-08-11T23:27:13+02:00*
G04 #@! TF.ProjectId,Toggle65,546f6767-6c65-4363-952e-6b696361645f,rev?*
G04 #@! TF.SameCoordinates,Original*
G04 #@! TF.FileFunction,Legend,Bot*
G04 #@! TF.FilePolarity,Positive*
%FSLAX46Y46*%
G04 Gerber Fmt 4.6, Leading zero omitted, Abs format (unit mm)*
G04 Created by KiCad (PCBNEW 10.0.5) date 2026-08-11 23:27:13*
%MOMM*%
%LPD*%
G01*
G04 APERTURE LIST*
G04 Aperture macros list*
%AMRoundRect*
0 Rectangle with rounded corners*
0 $1 Rounding radius*
0 $2 $3 $4 $5 $6 $7 $8 $9 X,Y pos of 4 corners*
0 Add a 4 corners polygon primitive as box body*
4,1,4,$2,$3,$4,$5,$6,$7,$8,$9,$2,$3,0*
0 Add four circle primitives for the rounded corners*
1,1,$1+$1,$2,$3*
1,1,$1+$1,$4,$5*
1,1,$1+$1,$6,$7*
1,1,$1+$1,$8,$9*
0 Add four rect primitives between the rounded corners*
20,1,$1+$1,$2,$3,$4,$5,0*
20,1,$1+$1,$4,$5,$6,$7,0*
20,1,$1+$1,$6,$7,$8,$9,0*
20,1,$1+$1,$8,$9,$2,$3,0*%
G04 Aperture macros list end*
%ADD10C,0.150000*%
%ADD11C,0.120000*%
%ADD12C,1.800000*%
%ADD13R,1.800000X1.800000*%
%ADD14C,1.400000*%
%ADD15C,3.200000*%
%ADD16RoundRect,0.249999X0.850001X0.850001X-0.850001X0.850001X-0.850001X-0.850001X0.850001X-0.850001X0*%
%ADD17C,2.200000*%
%ADD18RoundRect,0.250000X0.550000X-0.550000X0.550000X0.550000X-0.550000X0.550000X-0.550000X-0.550000X0*%
%ADD19C,1.600000*%
%ADD20R,1.700000X1.700000*%
%ADD21C,1.700000*%
G04 APERTURE END LIST*
D10*
X110424819Y-73961666D02*
X111139104Y-73961666D01*
X111139104Y-73961666D02*
X111281961Y-73914047D01*
X111281961Y-73914047D02*
X111377200Y-73818809D01*
X111377200Y-73818809D02*
X111424819Y-73675952D01*
X111424819Y-73675952D02*
X111424819Y-73580714D01*
X110758152Y-74866428D02*
X111424819Y-74866428D01*
X110377200Y-74628333D02*
X111091485Y-74390238D01*
X111091485Y-74390238D02*
X111091485Y-75009285D01*
X110424819Y-61261666D02*
X111139104Y-61261666D01*
X111139104Y-61261666D02*
X111281961Y-61214047D01*
X111281961Y-61214047D02*
X111377200Y-61118809D01*
X111377200Y-61118809D02*
X111424819Y-60975952D01*
X111424819Y-60975952D02*
X111424819Y-60880714D01*
X110520057Y-61690238D02*
X110472438Y-61737857D01*
X110472438Y-61737857D02*
X110424819Y-61833095D01*
X110424819Y-61833095D02*
X110424819Y-62071190D01*
X110424819Y-62071190D02*
X110472438Y-62166428D01*
X110472438Y-62166428D02*
X110520057Y-62214047D01*
X110520057Y-62214047D02*
X110615295Y-62261666D01*
X110615295Y-62261666D02*
X110710533Y-62261666D01*
X110710533Y-62261666D02*
X110853390Y-62214047D01*
X110853390Y-62214047D02*
X111424819Y-61642619D01*
X111424819Y-61642619D02*
X111424819Y-62261666D01*
G04 #@! TO.C,J4*
D11*
X58950000Y-75675000D02*
X58950000Y-72915000D01*
X107320000Y-72915000D02*
X58950000Y-72915000D01*
X107320000Y-75675000D02*
X58950000Y-75675000D01*
X107320000Y-75675000D02*
X107320000Y-72915000D01*
X108590000Y-75674999D02*
X109970000Y-75675000D01*
X109970000Y-75675000D02*
X109969999Y-74295000D01*
G04 #@! TO.C,J2*
X58950000Y-62975000D02*
X58950000Y-60215000D01*
X107320000Y-60215000D02*
X58950000Y-60215000D01*
X107320000Y-62975000D02*
X58950000Y-62975000D01*
X107320000Y-62975000D02*
X107320000Y-60215000D01*
X108590000Y-62974999D02*
X109970000Y-62975000D01*
X109970000Y-62975000D02*
X109969999Y-61595000D01*
G04 #@! TD*
%LPC*%
D12*
G04 #@! TO.C,D16*
X28680000Y-25780000D03*
D13*
X26140000Y-25780000D03*
G04 #@! TD*
D14*
G04 #@! TO.C,R18*
X158792730Y-24069216D03*
X158792730Y-29149216D03*
G04 #@! TD*
G04 #@! TO.C,R64*
X134625000Y-88265000D03*
X129545000Y-88265000D03*
G04 #@! TD*
G04 #@! TO.C,R50*
X156210000Y-107315000D03*
X159802102Y-110907102D03*
G04 #@! TD*
D13*
G04 #@! TO.C,D4*
X135294583Y-25780000D03*
D12*
X137834583Y-25780000D03*
G04 #@! TD*
D14*
G04 #@! TO.C,R58*
X58425000Y-80645000D03*
X63505000Y-80645000D03*
G04 #@! TD*
D13*
G04 #@! TO.C,D10*
X79425000Y-25780000D03*
D12*
X81965000Y-25780000D03*
G04 #@! TD*
D14*
G04 #@! TO.C,R21*
X132122730Y-24069216D03*
X132122730Y-29149216D03*
G04 #@! TD*
G04 #@! TO.C,R25*
X95292730Y-24069216D03*
X95292730Y-29149216D03*
G04 #@! TD*
D13*
G04 #@! TO.C,D33*
X156215000Y-80645000D03*
D12*
X158755000Y-80645000D03*
G04 #@! TD*
D14*
G04 #@! TO.C,R33*
X35306000Y-32004000D03*
X30226001Y-32004000D03*
G04 #@! TD*
G04 #@! TO.C,R57*
X76840000Y-81915000D03*
X81920000Y-81915000D03*
G04 #@! TD*
G04 #@! TO.C,R6*
X113665000Y-52070000D03*
X113665000Y-57150000D03*
G04 #@! TD*
D15*
G04 #@! TO.C,H3*
X164878973Y-112150653D03*
G04 #@! TD*
D14*
G04 #@! TO.C,R12*
X74935000Y-48260000D03*
X74935000Y-43180000D03*
G04 #@! TD*
G04 #@! TO.C,R56*
X98425000Y-84454999D03*
X98425000Y-79374999D03*
G04 #@! TD*
D13*
G04 #@! TO.C,D38*
X67315000Y-80645000D03*
D12*
X69855000Y-80645000D03*
G04 #@! TD*
D14*
G04 #@! TO.C,R75*
X34295000Y-106045000D03*
X34295000Y-111124999D03*
G04 #@! TD*
D13*
G04 #@! TO.C,D37*
X85095000Y-80645000D03*
D12*
X87635000Y-80645000D03*
G04 #@! TD*
D13*
G04 #@! TO.C,D2*
X153094583Y-25780000D03*
D12*
X155634583Y-25780000D03*
G04 #@! TD*
D16*
G04 #@! TO.C,D17*
X126370000Y-59690000D03*
D17*
X116210000Y-59690000D03*
G04 #@! TD*
D13*
G04 #@! TO.C,D14*
X43920000Y-25780000D03*
D12*
X46460000Y-25780000D03*
G04 #@! TD*
D14*
G04 #@! TO.C,R29*
X58462730Y-24069216D03*
X58462730Y-29149216D03*
G04 #@! TD*
G04 #@! TO.C,R22*
X123232730Y-24069216D03*
X123232730Y-29149216D03*
G04 #@! TD*
D13*
G04 #@! TO.C,D5*
X126500000Y-25780000D03*
D12*
X129040000Y-25780000D03*
G04 #@! TD*
D14*
G04 #@! TO.C,R34*
X137800000Y-103505000D03*
X142879999Y-103505000D03*
G04 #@! TD*
G04 #@! TO.C,R71*
X74935000Y-92075000D03*
X74935000Y-97154999D03*
G04 #@! TD*
D18*
G04 #@! TO.C,U2*
X144785000Y-70485000D03*
D19*
X147325000Y-70485000D03*
X149865000Y-70485000D03*
X152405000Y-70485000D03*
X154945000Y-70485000D03*
X157485000Y-70485000D03*
X160025000Y-70485000D03*
X160025000Y-62865000D03*
X157485000Y-62865000D03*
X154945000Y-62865000D03*
X152405000Y-62865000D03*
X149865000Y-62865000D03*
X147325000Y-62865000D03*
X144785000Y-62865000D03*
G04 #@! TD*
D14*
G04 #@! TO.C,R37*
X101605000Y-106045000D03*
X101605000Y-111125000D03*
G04 #@! TD*
D13*
G04 #@! TO.C,D40*
X31755000Y-80645000D03*
D12*
X34295000Y-80645000D03*
G04 #@! TD*
D14*
G04 #@! TO.C,R9*
X109860000Y-38100000D03*
X109860000Y-33020000D03*
G04 #@! TD*
G04 #@! TO.C,R4*
X148068949Y-47098949D03*
X151661051Y-50691051D03*
G04 #@! TD*
G04 #@! TO.C,R15*
X44455000Y-45085000D03*
X39375000Y-45085000D03*
G04 #@! TD*
G04 #@! TO.C,R16*
X39375000Y-51435000D03*
X44454999Y-51435000D03*
G04 #@! TD*
G04 #@! TO.C,R10*
X92715000Y-52705000D03*
X87635000Y-52705000D03*
G04 #@! TD*
G04 #@! TO.C,R69*
X77475000Y-92075000D03*
X77475000Y-97154999D03*
G04 #@! TD*
G04 #@! TO.C,R60*
X39375000Y-79375001D03*
X39375000Y-84455000D03*
G04 #@! TD*
G04 #@! TO.C,R5*
X145420000Y-38100000D03*
X145420000Y-33020000D03*
G04 #@! TD*
G04 #@! TO.C,R66*
X113557001Y-79375000D03*
X113557001Y-74295000D03*
G04 #@! TD*
D13*
G04 #@! TO.C,D6*
X117580000Y-25780000D03*
D12*
X120120000Y-25780000D03*
G04 #@! TD*
D14*
G04 #@! TO.C,R24*
X105452730Y-24069216D03*
X105452730Y-29149216D03*
G04 #@! TD*
G04 #@! TO.C,R38*
X140975000Y-64135000D03*
X140975000Y-69215000D03*
G04 #@! TD*
D13*
G04 #@! TO.C,D12*
X61700000Y-25780000D03*
D12*
X64240000Y-25780000D03*
G04 #@! TD*
D14*
G04 #@! TO.C,R32*
X31842232Y-24069216D03*
X31842232Y-29149216D03*
G04 #@! TD*
G04 #@! TO.C,R7*
X127640000Y-38100000D03*
X127640000Y-33020000D03*
G04 #@! TD*
D13*
G04 #@! TO.C,D36*
X102875000Y-80645000D03*
D12*
X105415000Y-80645000D03*
G04 #@! TD*
D14*
G04 #@! TO.C,R68*
X98430000Y-91439999D03*
X98430000Y-86360000D03*
G04 #@! TD*
G04 #@! TO.C,R36*
X66045000Y-104775000D03*
X66045000Y-109855000D03*
G04 #@! TD*
G04 #@! TO.C,R74*
X44455000Y-88265000D03*
X44455000Y-93345000D03*
G04 #@! TD*
D13*
G04 #@! TO.C,D15*
X35030000Y-25780000D03*
D12*
X37570000Y-25780000D03*
G04 #@! TD*
D14*
G04 #@! TO.C,R67*
X97906609Y-93999791D03*
X92826609Y-93999791D03*
G04 #@! TD*
G04 #@! TO.C,R76*
X39375000Y-88265000D03*
X39375000Y-93344999D03*
G04 #@! TD*
G04 #@! TO.C,R77*
X48567258Y-59690000D03*
X53647257Y-59690000D03*
G04 #@! TD*
G04 #@! TO.C,R3*
X163200000Y-40640000D03*
X163200000Y-45719999D03*
G04 #@! TD*
G04 #@! TO.C,R28*
X67352730Y-24069216D03*
X67352730Y-29149216D03*
G04 #@! TD*
G04 #@! TO.C,R59*
X44455000Y-84455000D03*
X44455000Y-79375000D03*
G04 #@! TD*
G04 #@! TO.C,R73*
X56520000Y-93345000D03*
X56520000Y-98425000D03*
G04 #@! TD*
G04 #@! TO.C,R30*
X49572730Y-24069216D03*
X49572730Y-29149216D03*
G04 #@! TD*
G04 #@! TO.C,R17*
X39375000Y-38735000D03*
X44454999Y-38735000D03*
G04 #@! TD*
D15*
G04 #@! TO.C,H2*
X164878973Y-32140653D03*
G04 #@! TD*
D14*
G04 #@! TO.C,R13*
X74300000Y-38100000D03*
X74300000Y-33020001D03*
G04 #@! TD*
G04 #@! TO.C,R27*
X76242730Y-24069216D03*
X76242730Y-29149216D03*
G04 #@! TD*
D13*
G04 #@! TO.C,D13*
X52810000Y-25780000D03*
D12*
X55350000Y-25780000D03*
G04 #@! TD*
D13*
G04 #@! TO.C,D7*
X108690000Y-25780000D03*
D12*
X111230000Y-25780000D03*
G04 #@! TD*
D14*
G04 #@! TO.C,R54*
X133355000Y-84455000D03*
X133355000Y-79375000D03*
G04 #@! TD*
G04 #@! TO.C,R35*
X144150000Y-59690000D03*
X149230000Y-59690000D03*
G04 #@! TD*
D13*
G04 #@! TO.C,D35*
X120655000Y-80645000D03*
D12*
X123195000Y-80645000D03*
G04 #@! TD*
D13*
G04 #@! TO.C,D11*
X70590000Y-25780000D03*
D12*
X73130000Y-25780000D03*
G04 #@! TD*
D14*
G04 #@! TO.C,R72*
X60965000Y-89535000D03*
X60965000Y-84455000D03*
G04 #@! TD*
D15*
G04 #@! TO.C,H1*
X25813973Y-32140653D03*
G04 #@! TD*
D14*
G04 #@! TO.C,R19*
X149902730Y-24069216D03*
X149902730Y-29149216D03*
G04 #@! TD*
G04 #@! TO.C,R62*
X151770000Y-88265000D03*
X146690001Y-88265000D03*
G04 #@! TD*
D12*
G04 #@! TO.C,D1*
X164570000Y-25780000D03*
D13*
X162030000Y-25780000D03*
G04 #@! TD*
D14*
G04 #@! TO.C,R23*
X114342730Y-24069216D03*
X114342730Y-29149216D03*
G04 #@! TD*
G04 #@! TO.C,R26*
X85132730Y-24069216D03*
X85132730Y-29149216D03*
G04 #@! TD*
G04 #@! TO.C,R2*
X163835000Y-48260000D03*
X163835000Y-53340000D03*
G04 #@! TD*
G04 #@! TO.C,R61*
X148595000Y-91440000D03*
X148595000Y-96520000D03*
G04 #@! TD*
G04 #@! TO.C,R31*
X40682730Y-24069216D03*
X40682730Y-29149216D03*
G04 #@! TD*
D13*
G04 #@! TO.C,D8*
X99800000Y-25780000D03*
D12*
X102340000Y-25780000D03*
G04 #@! TD*
D13*
G04 #@! TO.C,D34*
X138435000Y-80645000D03*
D12*
X140975000Y-80645000D03*
G04 #@! TD*
D13*
G04 #@! TO.C,D39*
X49535000Y-80645000D03*
D12*
X52075000Y-80645000D03*
G04 #@! TD*
D13*
G04 #@! TO.C,D9*
X88300000Y-25780000D03*
D12*
X90840000Y-25780000D03*
G04 #@! TD*
D14*
G04 #@! TO.C,R8*
X100675014Y-53875178D03*
X104267116Y-57467280D03*
G04 #@! TD*
D13*
G04 #@! TO.C,D3*
X144194583Y-25780000D03*
D12*
X146734583Y-25780000D03*
G04 #@! TD*
D14*
G04 #@! TO.C,R63*
X133355000Y-97155000D03*
X128275000Y-97155000D03*
G04 #@! TD*
G04 #@! TO.C,R11*
X92080000Y-38100000D03*
X92080000Y-33020000D03*
G04 #@! TD*
D20*
G04 #@! TO.C,J1*
X113035000Y-64135000D03*
D21*
X113035000Y-61595000D03*
G04 #@! TD*
D19*
G04 #@! TO.C,C6*
X138400140Y-64236345D03*
X138400140Y-69236345D03*
G04 #@! TD*
D14*
G04 #@! TO.C,R55*
X115575000Y-86995000D03*
X115575000Y-81915000D03*
G04 #@! TD*
G04 #@! TO.C,R20*
X141012730Y-23434216D03*
X141012730Y-28514216D03*
G04 #@! TD*
G04 #@! TO.C,R70*
X80015000Y-86995000D03*
X80015000Y-92075000D03*
G04 #@! TD*
D15*
G04 #@! TO.C,H4*
X25813973Y-112150653D03*
G04 #@! TD*
D14*
G04 #@! TO.C,R14*
X44455000Y-47625000D03*
X39375000Y-47625000D03*
G04 #@! TD*
G04 #@! TO.C,R53*
X147325000Y-79375000D03*
X152404999Y-79375000D03*
G04 #@! TD*
G04 #@! TO.C,R65*
X121925000Y-99695000D03*
X121925000Y-104775000D03*
G04 #@! TD*
D20*
G04 #@! TO.C,J4*
X108590000Y-74295000D03*
D21*
X106050000Y-74295000D03*
X103510001Y-74295000D03*
X100970000Y-74295000D03*
X98430000Y-74295000D03*
X95890000Y-74295000D03*
X93350000Y-74295000D03*
X90809999Y-74295000D03*
X88270000Y-74295000D03*
X85730000Y-74295000D03*
X83190000Y-74295000D03*
X80650001Y-74295000D03*
X78110000Y-74295000D03*
X75570000Y-74295000D03*
X73030000Y-74295000D03*
X70490001Y-74295000D03*
X67949999Y-74295000D03*
X65410000Y-74295000D03*
X62870000Y-74295000D03*
X60330000Y-74295000D03*
G04 #@! TD*
D20*
G04 #@! TO.C,J2*
X108590000Y-61595000D03*
D21*
X106050000Y-61595000D03*
X103510001Y-61595000D03*
X100970000Y-61595000D03*
X98430000Y-61595000D03*
X95890000Y-61595000D03*
X93350000Y-61595000D03*
X90809999Y-61595000D03*
X88270000Y-61595000D03*
X85730000Y-61595000D03*
X83190000Y-61595000D03*
X80650001Y-61595000D03*
X78110000Y-61595000D03*
X75570000Y-61595000D03*
X73030000Y-61595000D03*
X70490001Y-61595000D03*
X67949999Y-61595000D03*
X65410000Y-61595000D03*
X62870000Y-61595000D03*
X60330000Y-61595000D03*
G04 #@! TD*
%LPD*%
M02*
