%TF.GenerationSoftware,KiCad,Pcbnew,10.0.5*%
%TF.CreationDate,2026-08-11T23:27:13+02:00*%
%TF.ProjectId,Toggle65,546f6767-6c65-4363-952e-6b696361645f,rev?*%
%TF.SameCoordinates,Original*%
%TF.FileFunction,Drillmap*%
%TF.FilePolarity,Positive*%
%FSLAX45Y45*%
G04 Gerber Fmt 4.5, Leading zero omitted, Abs format (unit mm)*
G04 Created by KiCad (PCBNEW 10.0.5) date 2026-08-11 23:27:13*
%MOMM*%
%LPD*%
G01*
G04 APERTURE LIST*
%ADD10C,0.200000*%
%ADD11C,0.100000*%
%ADD12C,0.110000*%
G04 APERTURE END LIST*
D10*
X2286000Y-2495500D02*
G75*
G02*
X2686000Y-2095500I400000J0D01*
G01*
X2286000Y-11093500D02*
X2286000Y-2495500D01*
X2686000Y-2095500D02*
X16364000Y-2095500D01*
X2686000Y-11493500D02*
G75*
G02*
X2286000Y-11093500I0J400000D01*
G01*
X16364000Y-2095500D02*
G75*
G02*
X16764000Y-2495500I0J-400000D01*
G01*
X16364000Y-11493500D02*
X2686000Y-11493500D01*
X16764000Y-2495500D02*
X16764000Y-11093500D01*
X16764000Y-11093500D02*
G75*
G02*
X16364000Y-11493500I-400000J0D01*
G01*
D11*
X2987600Y-3165400D02*
X3057600Y-3235400D01*
X3057600Y-3165400D02*
X2987600Y-3235400D01*
X3149223Y-2371922D02*
X3219223Y-2441922D01*
X3219223Y-2371922D02*
X3149223Y-2441922D01*
X3149223Y-2879922D02*
X3219223Y-2949922D01*
X3219223Y-2879922D02*
X3149223Y-2949922D01*
X3394500Y-10569500D02*
X3464500Y-10639500D01*
X3464500Y-10569500D02*
X3394500Y-10639500D01*
X3394500Y-11077500D02*
X3464500Y-11147500D01*
X3464500Y-11077500D02*
X3394500Y-11147500D01*
X3495600Y-3165400D02*
X3565600Y-3235400D01*
X3565600Y-3165400D02*
X3495600Y-3235400D01*
X3902500Y-3838500D02*
X3972500Y-3908500D01*
X3972500Y-3838500D02*
X3902500Y-3908500D01*
X3902500Y-4473500D02*
X3972500Y-4543500D01*
X3972500Y-4473500D02*
X3902500Y-4543500D01*
X3902500Y-4727500D02*
X3972500Y-4797500D01*
X3972500Y-4727500D02*
X3902500Y-4797500D01*
X3902500Y-5108500D02*
X3972500Y-5178500D01*
X3972500Y-5108500D02*
X3902500Y-5178500D01*
X3902500Y-7902500D02*
X3972500Y-7972500D01*
X3972500Y-7902500D02*
X3902500Y-7972500D01*
X3902500Y-8410500D02*
X3972500Y-8480500D01*
X3972500Y-8410500D02*
X3902500Y-8480500D01*
X3902500Y-8791500D02*
X3972500Y-8861500D01*
X3972500Y-8791500D02*
X3902500Y-8861500D01*
X3902500Y-9299500D02*
X3972500Y-9369500D01*
X3972500Y-9299500D02*
X3902500Y-9369500D01*
X4033273Y-2371922D02*
X4103273Y-2441922D01*
X4103273Y-2371922D02*
X4033273Y-2441922D01*
X4033273Y-2879922D02*
X4103273Y-2949922D01*
X4103273Y-2879922D02*
X4033273Y-2949922D01*
X4410500Y-3838500D02*
X4480500Y-3908500D01*
X4480500Y-3838500D02*
X4410500Y-3908500D01*
X4410500Y-5108500D02*
X4480500Y-5178500D01*
X4480500Y-5108500D02*
X4410500Y-5178500D01*
X4410500Y-4473500D02*
X4480500Y-4543500D01*
X4480500Y-4473500D02*
X4410500Y-4543500D01*
X4410500Y-4727500D02*
X4480500Y-4797500D01*
X4480500Y-4727500D02*
X4410500Y-4797500D01*
X4410500Y-7902500D02*
X4480500Y-7972500D01*
X4480500Y-7902500D02*
X4410500Y-7972500D01*
X4410500Y-8410500D02*
X4480500Y-8480500D01*
X4480500Y-8410500D02*
X4410500Y-8480500D01*
X4410500Y-8791500D02*
X4480500Y-8861500D01*
X4480500Y-8791500D02*
X4410500Y-8861500D01*
X4410500Y-9299500D02*
X4480500Y-9369500D01*
X4480500Y-9299500D02*
X4410500Y-9369500D01*
X4821726Y-5934000D02*
X4891726Y-6004000D01*
X4891726Y-5934000D02*
X4821726Y-6004000D01*
X4922273Y-2371922D02*
X4992273Y-2441922D01*
X4992273Y-2371922D02*
X4922273Y-2441922D01*
X4922273Y-2879922D02*
X4992273Y-2949922D01*
X4992273Y-2879922D02*
X4922273Y-2949922D01*
X5329726Y-5934000D02*
X5399726Y-6004000D01*
X5399726Y-5934000D02*
X5329726Y-6004000D01*
X5617000Y-9299500D02*
X5687000Y-9369500D01*
X5687000Y-9299500D02*
X5617000Y-9369500D01*
X5617000Y-9807500D02*
X5687000Y-9877500D01*
X5687000Y-9807500D02*
X5617000Y-9877500D01*
X5807500Y-8029500D02*
X5877500Y-8099500D01*
X5877500Y-8029500D02*
X5807500Y-8099500D01*
X5811273Y-2371922D02*
X5881273Y-2441922D01*
X5881273Y-2371922D02*
X5811273Y-2441922D01*
X5811273Y-2879922D02*
X5881273Y-2949922D01*
X5881273Y-2879922D02*
X5811273Y-2949922D01*
X6061500Y-8410500D02*
X6131500Y-8480500D01*
X6131500Y-8410500D02*
X6061500Y-8480500D01*
X6061500Y-8918500D02*
X6131500Y-8988500D01*
X6131500Y-8918500D02*
X6061500Y-8988500D01*
X6315500Y-8029500D02*
X6385500Y-8099500D01*
X6385500Y-8029500D02*
X6315500Y-8099500D01*
X6569500Y-10442500D02*
X6639500Y-10512500D01*
X6639500Y-10442500D02*
X6569500Y-10512500D01*
X6569500Y-10950500D02*
X6639500Y-11020500D01*
X6639500Y-10950500D02*
X6569500Y-11020500D01*
X6700273Y-2371922D02*
X6770273Y-2441922D01*
X6770273Y-2371922D02*
X6700273Y-2441922D01*
X6700273Y-2879922D02*
X6770273Y-2949922D01*
X6770273Y-2879922D02*
X6700273Y-2949922D01*
X7395000Y-3267000D02*
X7465000Y-3337000D01*
X7465000Y-3267000D02*
X7395000Y-3337000D01*
X7395000Y-3775000D02*
X7465000Y-3845000D01*
X7465000Y-3775000D02*
X7395000Y-3845000D01*
X7458500Y-4283000D02*
X7528500Y-4353000D01*
X7528500Y-4283000D02*
X7458500Y-4353000D01*
X7458500Y-4791000D02*
X7528500Y-4861000D01*
X7528500Y-4791000D02*
X7458500Y-4861000D01*
X7458500Y-9172500D02*
X7528500Y-9242500D01*
X7528500Y-9172500D02*
X7458500Y-9242500D01*
X7458500Y-9680500D02*
X7528500Y-9750500D01*
X7528500Y-9680500D02*
X7458500Y-9750500D01*
X7589273Y-2371922D02*
X7659273Y-2441922D01*
X7659273Y-2371922D02*
X7589273Y-2441922D01*
X7589273Y-2879922D02*
X7659273Y-2949922D01*
X7659273Y-2879922D02*
X7589273Y-2949922D01*
X7649000Y-8156500D02*
X7719000Y-8226500D01*
X7719000Y-8156500D02*
X7649000Y-8226500D01*
X7712500Y-9172500D02*
X7782500Y-9242500D01*
X7782500Y-9172500D02*
X7712500Y-9242500D01*
X7712500Y-9680500D02*
X7782500Y-9750500D01*
X7782500Y-9680500D02*
X7712500Y-9750500D01*
X7966500Y-8664500D02*
X8036500Y-8734500D01*
X8036500Y-8664500D02*
X7966500Y-8734500D01*
X7966500Y-9172500D02*
X8036500Y-9242500D01*
X8036500Y-9172500D02*
X7966500Y-9242500D01*
X8157000Y-8156500D02*
X8227000Y-8226500D01*
X8227000Y-8156500D02*
X8157000Y-8226500D01*
X8478273Y-2371922D02*
X8548273Y-2441922D01*
X8548273Y-2371922D02*
X8478273Y-2441922D01*
X8478273Y-2879922D02*
X8548273Y-2949922D01*
X8548273Y-2879922D02*
X8478273Y-2949922D01*
X8728500Y-5235500D02*
X8798500Y-5305500D01*
X8798500Y-5235500D02*
X8728500Y-5305500D01*
X9173000Y-3267000D02*
X9243000Y-3337000D01*
X9243000Y-3267000D02*
X9173000Y-3337000D01*
X9173000Y-3775000D02*
X9243000Y-3845000D01*
X9243000Y-3775000D02*
X9173000Y-3845000D01*
X9236500Y-5235500D02*
X9306500Y-5305500D01*
X9306500Y-5235500D02*
X9236500Y-5305500D01*
X9247661Y-9364979D02*
X9317661Y-9434979D01*
X9317661Y-9364979D02*
X9247661Y-9434979D01*
X9494273Y-2371922D02*
X9564273Y-2441922D01*
X9564273Y-2371922D02*
X9494273Y-2441922D01*
X9494273Y-2879922D02*
X9564273Y-2949922D01*
X9564273Y-2879922D02*
X9494273Y-2949922D01*
X9755661Y-9364979D02*
X9825661Y-9434979D01*
X9825661Y-9364979D02*
X9755661Y-9434979D01*
X9807500Y-7902500D02*
X9877500Y-7972500D01*
X9877500Y-7902500D02*
X9807500Y-7972500D01*
X9807500Y-8410500D02*
X9877500Y-8480500D01*
X9877500Y-8410500D02*
X9807500Y-8480500D01*
X9808000Y-8601000D02*
X9878000Y-8671000D01*
X9878000Y-8601000D02*
X9808000Y-8671000D01*
X9808000Y-9109000D02*
X9878000Y-9179000D01*
X9878000Y-9109000D02*
X9808000Y-9179000D01*
X10032501Y-5352518D02*
X10102501Y-5422518D01*
X10102501Y-5352518D02*
X10032501Y-5422518D01*
X10125500Y-10569500D02*
X10195500Y-10639500D01*
X10195500Y-10569500D02*
X10125500Y-10639500D01*
X10125500Y-11077500D02*
X10195500Y-11147500D01*
X10195500Y-11077500D02*
X10125500Y-11147500D01*
X10391712Y-5711728D02*
X10461712Y-5781728D01*
X10461712Y-5711728D02*
X10391712Y-5781728D01*
X10510273Y-2371922D02*
X10580273Y-2441922D01*
X10580273Y-2371922D02*
X10510273Y-2441922D01*
X10510273Y-2879922D02*
X10580273Y-2949922D01*
X10580273Y-2879922D02*
X10510273Y-2949922D01*
X10951000Y-3267000D02*
X11021000Y-3337000D01*
X11021000Y-3267000D02*
X10951000Y-3337000D01*
X10951000Y-3775000D02*
X11021000Y-3845000D01*
X11021000Y-3775000D02*
X10951000Y-3845000D01*
X11320700Y-7394500D02*
X11390700Y-7464500D01*
X11390700Y-7394500D02*
X11320700Y-7464500D01*
X11320700Y-7902500D02*
X11390700Y-7972500D01*
X11390700Y-7902500D02*
X11320700Y-7972500D01*
X11331500Y-5172000D02*
X11401500Y-5242000D01*
X11401500Y-5172000D02*
X11331500Y-5242000D01*
X11331500Y-5680000D02*
X11401500Y-5750000D01*
X11401500Y-5680000D02*
X11331500Y-5750000D01*
X11399273Y-2371922D02*
X11469273Y-2441922D01*
X11469273Y-2371922D02*
X11399273Y-2441922D01*
X11399273Y-2879922D02*
X11469273Y-2949922D01*
X11469273Y-2879922D02*
X11399273Y-2949922D01*
X11522500Y-8156500D02*
X11592500Y-8226500D01*
X11592500Y-8156500D02*
X11522500Y-8226500D01*
X11522500Y-8664500D02*
X11592500Y-8734500D01*
X11592500Y-8664500D02*
X11522500Y-8734500D01*
X12157500Y-9934500D02*
X12227500Y-10004500D01*
X12227500Y-9934500D02*
X12157500Y-10004500D01*
X12157500Y-10442500D02*
X12227500Y-10512500D01*
X12227500Y-10442500D02*
X12157500Y-10512500D01*
X12288273Y-2371922D02*
X12358273Y-2441922D01*
X12358273Y-2371922D02*
X12288273Y-2441922D01*
X12288273Y-2879922D02*
X12358273Y-2949922D01*
X12358273Y-2879922D02*
X12288273Y-2949922D01*
X12729000Y-3267000D02*
X12799000Y-3337000D01*
X12799000Y-3267000D02*
X12729000Y-3337000D01*
X12729000Y-3775000D02*
X12799000Y-3845000D01*
X12799000Y-3775000D02*
X12729000Y-3845000D01*
X12792500Y-9680500D02*
X12862500Y-9750500D01*
X12862500Y-9680500D02*
X12792500Y-9750500D01*
X12919500Y-8791500D02*
X12989500Y-8861500D01*
X12989500Y-8791500D02*
X12919500Y-8861500D01*
X13177273Y-2371922D02*
X13247273Y-2441922D01*
X13247273Y-2371922D02*
X13177273Y-2441922D01*
X13177273Y-2879922D02*
X13247273Y-2949922D01*
X13247273Y-2879922D02*
X13177273Y-2949922D01*
X13300500Y-7902500D02*
X13370500Y-7972500D01*
X13370500Y-7902500D02*
X13300500Y-7972500D01*
X13300500Y-8410500D02*
X13370500Y-8480500D01*
X13370500Y-8410500D02*
X13300500Y-8480500D01*
X13300500Y-9680500D02*
X13370500Y-9750500D01*
X13370500Y-9680500D02*
X13300500Y-9750500D01*
X13427500Y-8791500D02*
X13497500Y-8861500D01*
X13497500Y-8791500D02*
X13427500Y-8861500D01*
X13745000Y-10315500D02*
X13815000Y-10385500D01*
X13815000Y-10315500D02*
X13745000Y-10385500D01*
X14062500Y-6378500D02*
X14132500Y-6448500D01*
X14132500Y-6378500D02*
X14062500Y-6448500D01*
X14062500Y-6886500D02*
X14132500Y-6956500D01*
X14132500Y-6886500D02*
X14062500Y-6956500D01*
X14066273Y-2308422D02*
X14136273Y-2378422D01*
X14136273Y-2308422D02*
X14066273Y-2378422D01*
X14066273Y-2816422D02*
X14136273Y-2886422D01*
X14136273Y-2816422D02*
X14066273Y-2886422D01*
X14253000Y-10315500D02*
X14323000Y-10385500D01*
X14323000Y-10315500D02*
X14253000Y-10385500D01*
X14380000Y-5934000D02*
X14450000Y-6004000D01*
X14450000Y-5934000D02*
X14380000Y-6004000D01*
X14507000Y-3267000D02*
X14577000Y-3337000D01*
X14577000Y-3267000D02*
X14507000Y-3337000D01*
X14507000Y-3775000D02*
X14577000Y-3845000D01*
X14577000Y-3775000D02*
X14507000Y-3845000D01*
X14634000Y-8791500D02*
X14704000Y-8861500D01*
X14704000Y-8791500D02*
X14634000Y-8861500D01*
X14697500Y-7902500D02*
X14767500Y-7972500D01*
X14767500Y-7902500D02*
X14697500Y-7972500D01*
X14771895Y-4674895D02*
X14841895Y-4744895D01*
X14841895Y-4674895D02*
X14771895Y-4744895D01*
X14824500Y-9109000D02*
X14894500Y-9179000D01*
X14894500Y-9109000D02*
X14824500Y-9179000D01*
X14824500Y-9617000D02*
X14894500Y-9687000D01*
X14894500Y-9617000D02*
X14824500Y-9687000D01*
X14888000Y-5934000D02*
X14958000Y-6004000D01*
X14958000Y-5934000D02*
X14888000Y-6004000D01*
X14955273Y-2371922D02*
X15025273Y-2441922D01*
X15025273Y-2371922D02*
X14955273Y-2441922D01*
X14955273Y-2879922D02*
X15025273Y-2949922D01*
X15025273Y-2879922D02*
X14955273Y-2949922D01*
X15131105Y-5034105D02*
X15201105Y-5104105D01*
X15201105Y-5034105D02*
X15131105Y-5104105D01*
X15142000Y-8791500D02*
X15212000Y-8861500D01*
X15212000Y-8791500D02*
X15142000Y-8861500D01*
X15205500Y-7902500D02*
X15275500Y-7972500D01*
X15275500Y-7902500D02*
X15205500Y-7972500D01*
X15586000Y-10696500D02*
X15656000Y-10766500D01*
X15656000Y-10696500D02*
X15586000Y-10766500D01*
X15844273Y-2371922D02*
X15914273Y-2441922D01*
X15914273Y-2371922D02*
X15844273Y-2441922D01*
X15844273Y-2879922D02*
X15914273Y-2949922D01*
X15914273Y-2879922D02*
X15844273Y-2949922D01*
X15945210Y-11055710D02*
X16015210Y-11125710D01*
X16015210Y-11055710D02*
X15945210Y-11125710D01*
X16285000Y-4029000D02*
X16355000Y-4099000D01*
X16355000Y-4029000D02*
X16285000Y-4099000D01*
X16285000Y-4537000D02*
X16355000Y-4607000D01*
X16355000Y-4537000D02*
X16285000Y-4607000D01*
X16348500Y-4791000D02*
X16418500Y-4861000D01*
X16418500Y-4791000D02*
X16348500Y-4861000D01*
X16348500Y-5299000D02*
X16418500Y-5369000D01*
X16418500Y-5299000D02*
X16348500Y-5369000D01*
X4136250Y-8032750D02*
G75*
G02*
X4056250Y-8032750I-40000J0D01*
G01*
X4056250Y-8032750D02*
G75*
G02*
X4136250Y-8032750I40000J0D01*
G01*
X4485500Y-9588500D02*
G75*
G02*
X4405500Y-9588500I-40000J0D01*
G01*
X4405500Y-9588500D02*
G75*
G02*
X4485500Y-9588500I40000J0D01*
G01*
X4549000Y-7302500D02*
G75*
G02*
X4469000Y-7302500I-40000J0D01*
G01*
X4469000Y-7302500D02*
G75*
G02*
X4549000Y-7302500I40000J0D01*
G01*
X4866000Y-10414000D02*
G75*
G02*
X4786000Y-10414000I-40000J0D01*
G01*
X4786000Y-10414000D02*
G75*
G02*
X4866000Y-10414000I40000J0D01*
G01*
X5628500Y-3810000D02*
G75*
G02*
X5548500Y-3810000I-40000J0D01*
G01*
X5548500Y-3810000D02*
G75*
G02*
X5628500Y-3810000I40000J0D01*
G01*
X6145424Y-5050375D02*
G75*
G02*
X6065424Y-5050375I-40000J0D01*
G01*
X6065424Y-5050375D02*
G75*
G02*
X6145424Y-5050375I40000J0D01*
G01*
X6353380Y-3327597D02*
G75*
G02*
X6273380Y-3327597I-40000J0D01*
G01*
X6273380Y-3327597D02*
G75*
G02*
X6353380Y-3327597I40000J0D01*
G01*
X7089000Y-7683500D02*
G75*
G02*
X7009000Y-7683500I-40000J0D01*
G01*
X7009000Y-7683500D02*
G75*
G02*
X7089000Y-7683500I40000J0D01*
G01*
X7406500Y-7683500D02*
G75*
G02*
X7326500Y-7683500I-40000J0D01*
G01*
X7326500Y-7683500D02*
G75*
G02*
X7406500Y-7683500I40000J0D01*
G01*
X8105000Y-7683500D02*
G75*
G02*
X8025000Y-7683500I-40000J0D01*
G01*
X8025000Y-7683500D02*
G75*
G02*
X8105000Y-7683500I40000J0D01*
G01*
X8690532Y-5192968D02*
G75*
G02*
X8610532Y-5192968I-40000J0D01*
G01*
X8610532Y-5192968D02*
G75*
G02*
X8690532Y-5192968I40000J0D01*
G01*
X9311500Y-5778500D02*
G75*
G02*
X9231500Y-5778500I-40000J0D01*
G01*
X9231500Y-5778500D02*
G75*
G02*
X9311500Y-5778500I40000J0D01*
G01*
X9611500Y-8092660D02*
G75*
G02*
X9531500Y-8092660I-40000J0D01*
G01*
X9531500Y-8092660D02*
G75*
G02*
X9611500Y-8092660I40000J0D01*
G01*
X9677653Y-7836656D02*
G75*
G02*
X9597653Y-7836656I-40000J0D01*
G01*
X9597653Y-7836656D02*
G75*
G02*
X9677653Y-7836656I40000J0D01*
G01*
X10147467Y-10424967D02*
G75*
G02*
X10067467Y-10424967I-40000J0D01*
G01*
X10067467Y-10424967D02*
G75*
G02*
X10147467Y-10424967I40000J0D01*
G01*
X10454500Y-11112500D02*
G75*
G02*
X10374500Y-11112500I-40000J0D01*
G01*
X10374500Y-11112500D02*
G75*
G02*
X10454500Y-11112500I40000J0D01*
G01*
X10835500Y-5905500D02*
G75*
G02*
X10755500Y-5905500I-40000J0D01*
G01*
X10755500Y-5905500D02*
G75*
G02*
X10835500Y-5905500I40000J0D01*
G01*
X10962500Y-8445500D02*
G75*
G02*
X10882500Y-8445500I-40000J0D01*
G01*
X10882500Y-8445500D02*
G75*
G02*
X10962500Y-8445500I40000J0D01*
G01*
X11089500Y-6963865D02*
G75*
G02*
X11009500Y-6963865I-40000J0D01*
G01*
X11009500Y-6963865D02*
G75*
G02*
X11089500Y-6963865I40000J0D01*
G01*
X11407000Y-6909500D02*
G75*
G02*
X11327000Y-6909500I-40000J0D01*
G01*
X11327000Y-6909500D02*
G75*
G02*
X11407000Y-6909500I40000J0D01*
G01*
X13106627Y-6417500D02*
G75*
G02*
X13026627Y-6417500I-40000J0D01*
G01*
X13026627Y-6417500D02*
G75*
G02*
X13106627Y-6417500I40000J0D01*
G01*
X13248500Y-7556500D02*
G75*
G02*
X13168500Y-7556500I-40000J0D01*
G01*
X13168500Y-7556500D02*
G75*
G02*
X13248500Y-7556500I40000J0D01*
G01*
X13560000Y-6463000D02*
G75*
G02*
X13480000Y-6463000I-40000J0D01*
G01*
X13480000Y-6463000D02*
G75*
G02*
X13560000Y-6463000I40000J0D01*
G01*
X13560000Y-7112000D02*
G75*
G02*
X13480000Y-7112000I-40000J0D01*
G01*
X13480000Y-7112000D02*
G75*
G02*
X13560000Y-7112000I40000J0D01*
G01*
X13693000Y-5842000D02*
G75*
G02*
X13613000Y-5842000I-40000J0D01*
G01*
X13613000Y-5842000D02*
G75*
G02*
X13693000Y-5842000I40000J0D01*
G01*
X14137500Y-6223000D02*
G75*
G02*
X14057500Y-6223000I-40000J0D01*
G01*
X14057500Y-6223000D02*
G75*
G02*
X14137500Y-6223000I40000J0D01*
G01*
X14638750Y-7416750D02*
G75*
G02*
X14558750Y-7416750I-40000J0D01*
G01*
X14558750Y-7416750D02*
G75*
G02*
X14638750Y-7416750I40000J0D01*
G01*
X14772500Y-7747000D02*
G75*
G02*
X14692500Y-7747000I-40000J0D01*
G01*
X14692500Y-7747000D02*
G75*
G02*
X14772500Y-7747000I40000J0D01*
G01*
X15217000Y-7302500D02*
G75*
G02*
X15137000Y-7302500I-40000J0D01*
G01*
X15137000Y-7302500D02*
G75*
G02*
X15217000Y-7302500I40000J0D01*
G01*
X15735497Y-9969500D02*
G75*
G02*
X15655497Y-9969500I-40000J0D01*
G01*
X15655497Y-9969500D02*
G75*
G02*
X15735497Y-9969500I40000J0D01*
G01*
X16106000Y-7620000D02*
G75*
G02*
X16026000Y-7620000I-40000J0D01*
G01*
X16026000Y-7620000D02*
G75*
G02*
X16106000Y-7620000I40000J0D01*
G01*
X16296500Y-10858500D02*
G75*
G02*
X16216500Y-10858500I-40000J0D01*
G01*
X16216500Y-10858500D02*
G75*
G02*
X16296500Y-10858500I40000J0D01*
G01*
X13840014Y-6383634D02*
X13840014Y-6463634D01*
X13800014Y-6423634D02*
X13880014Y-6423634D01*
X13840014Y-6883634D02*
X13840014Y-6963634D01*
X13800014Y-6923634D02*
X13880014Y-6923634D01*
X14478500Y-6246500D02*
X14478500Y-6326500D01*
X14438500Y-6286500D02*
X14518500Y-6286500D01*
X14478500Y-7008500D02*
X14478500Y-7088500D01*
X14438500Y-7048500D02*
X14518500Y-7048500D01*
X14732500Y-6246500D02*
X14732500Y-6326500D01*
X14692500Y-6286500D02*
X14772500Y-6286500D01*
X14732500Y-7008500D02*
X14732500Y-7088500D01*
X14692500Y-7048500D02*
X14772500Y-7048500D01*
X14986500Y-6246500D02*
X14986500Y-6326500D01*
X14946500Y-6286500D02*
X15026500Y-6286500D01*
X14986500Y-7008500D02*
X14986500Y-7088500D01*
X14946500Y-7048500D02*
X15026500Y-7048500D01*
X15240500Y-6246500D02*
X15240500Y-6326500D01*
X15200500Y-6286500D02*
X15280500Y-6286500D01*
X15240500Y-7008500D02*
X15240500Y-7088500D01*
X15200500Y-7048500D02*
X15280500Y-7048500D01*
X15494500Y-6246500D02*
X15494500Y-6326500D01*
X15454500Y-6286500D02*
X15534500Y-6286500D01*
X15494500Y-7008500D02*
X15494500Y-7088500D01*
X15454500Y-7048500D02*
X15534500Y-7048500D01*
X15748500Y-6246500D02*
X15748500Y-6326500D01*
X15708500Y-6286500D02*
X15788500Y-6286500D01*
X15748500Y-7008500D02*
X15748500Y-7088500D01*
X15708500Y-7048500D02*
X15788500Y-7048500D01*
X16002500Y-6246500D02*
X16002500Y-6326500D01*
X15962500Y-6286500D02*
X16042500Y-6286500D01*
X16002500Y-7008500D02*
X16002500Y-7088500D01*
X15962500Y-7048500D02*
X16042500Y-7048500D01*
X2645820Y-2609820D02*
X2645820Y-2546180D01*
X2582180Y-2546180D01*
X2582180Y-2609820D01*
X2645820Y-2609820D01*
X2899820Y-2609820D02*
X2899820Y-2546180D01*
X2836180Y-2546180D01*
X2836180Y-2609820D01*
X2899820Y-2609820D01*
X3207320Y-8096320D02*
X3207320Y-8032680D01*
X3143680Y-8032680D01*
X3143680Y-8096320D01*
X3207320Y-8096320D01*
X3461320Y-8096320D02*
X3461320Y-8032680D01*
X3397680Y-8032680D01*
X3397680Y-8096320D01*
X3461320Y-8096320D01*
X3534820Y-2609820D02*
X3534820Y-2546180D01*
X3471180Y-2546180D01*
X3471180Y-2609820D01*
X3534820Y-2609820D01*
X3788820Y-2609820D02*
X3788820Y-2546180D01*
X3725180Y-2546180D01*
X3725180Y-2609820D01*
X3788820Y-2609820D01*
X4423820Y-2609820D02*
X4423820Y-2546180D01*
X4360180Y-2546180D01*
X4360180Y-2609820D01*
X4423820Y-2609820D01*
X4677820Y-2609820D02*
X4677820Y-2546180D01*
X4614180Y-2546180D01*
X4614180Y-2609820D01*
X4677820Y-2609820D01*
X4985320Y-8096320D02*
X4985320Y-8032680D01*
X4921680Y-8032680D01*
X4921680Y-8096320D01*
X4985320Y-8096320D01*
X5239320Y-8096320D02*
X5239320Y-8032680D01*
X5175680Y-8032680D01*
X5175680Y-8096320D01*
X5239320Y-8096320D01*
X5312820Y-2609820D02*
X5312820Y-2546180D01*
X5249180Y-2546180D01*
X5249180Y-2609820D01*
X5312820Y-2609820D01*
X5566820Y-2609820D02*
X5566820Y-2546180D01*
X5503180Y-2546180D01*
X5503180Y-2609820D01*
X5566820Y-2609820D01*
X6201820Y-2609820D02*
X6201820Y-2546180D01*
X6138180Y-2546180D01*
X6138180Y-2609820D01*
X6201820Y-2609820D01*
X6455820Y-2609820D02*
X6455820Y-2546180D01*
X6392180Y-2546180D01*
X6392180Y-2609820D01*
X6455820Y-2609820D01*
X6763320Y-8096320D02*
X6763320Y-8032680D01*
X6699680Y-8032680D01*
X6699680Y-8096320D01*
X6763320Y-8096320D01*
X7017320Y-8096320D02*
X7017320Y-8032680D01*
X6953680Y-8032680D01*
X6953680Y-8096320D01*
X7017320Y-8096320D01*
X7090820Y-2609820D02*
X7090820Y-2546180D01*
X7027180Y-2546180D01*
X7027180Y-2609820D01*
X7090820Y-2609820D01*
X7344820Y-2609820D02*
X7344820Y-2546180D01*
X7281180Y-2546180D01*
X7281180Y-2609820D01*
X7344820Y-2609820D01*
X7974320Y-2609820D02*
X7974320Y-2546180D01*
X7910680Y-2546180D01*
X7910680Y-2609820D01*
X7974320Y-2609820D01*
X8228320Y-2609820D02*
X8228320Y-2546180D01*
X8164680Y-2546180D01*
X8164680Y-2609820D01*
X8228320Y-2609820D01*
X8541320Y-8096320D02*
X8541320Y-8032680D01*
X8477680Y-8032680D01*
X8477680Y-8096320D01*
X8541320Y-8096320D01*
X8795320Y-8096320D02*
X8795320Y-8032680D01*
X8731680Y-8032680D01*
X8731680Y-8096320D01*
X8795320Y-8096320D01*
X8861820Y-2609820D02*
X8861820Y-2546180D01*
X8798180Y-2546180D01*
X8798180Y-2609820D01*
X8861820Y-2609820D01*
X9115820Y-2609820D02*
X9115820Y-2546180D01*
X9052180Y-2546180D01*
X9052180Y-2609820D01*
X9115820Y-2609820D01*
X10011820Y-2609820D02*
X10011820Y-2546180D01*
X9948180Y-2546180D01*
X9948180Y-2609820D01*
X10011820Y-2609820D01*
X10265820Y-2609820D02*
X10265820Y-2546180D01*
X10202180Y-2546180D01*
X10202180Y-2609820D01*
X10265820Y-2609820D01*
X10319320Y-8096320D02*
X10319320Y-8032680D01*
X10255680Y-8032680D01*
X10255680Y-8096320D01*
X10319320Y-8096320D01*
X10573320Y-8096320D02*
X10573320Y-8032680D01*
X10509680Y-8032680D01*
X10509680Y-8096320D01*
X10573320Y-8096320D01*
X10900820Y-2609820D02*
X10900820Y-2546180D01*
X10837180Y-2546180D01*
X10837180Y-2609820D01*
X10900820Y-2609820D01*
X11154820Y-2609820D02*
X11154820Y-2546180D01*
X11091180Y-2546180D01*
X11091180Y-2609820D01*
X11154820Y-2609820D01*
X11789820Y-2609820D02*
X11789820Y-2546180D01*
X11726180Y-2546180D01*
X11726180Y-2609820D01*
X11789820Y-2609820D01*
X12043820Y-2609820D02*
X12043820Y-2546180D01*
X11980180Y-2546180D01*
X11980180Y-2609820D01*
X12043820Y-2609820D01*
X12097320Y-8096320D02*
X12097320Y-8032680D01*
X12033680Y-8032680D01*
X12033680Y-8096320D01*
X12097320Y-8096320D01*
X12351320Y-8096320D02*
X12351320Y-8032680D01*
X12287680Y-8032680D01*
X12287680Y-8096320D01*
X12351320Y-8096320D01*
X12681820Y-2609820D02*
X12681820Y-2546180D01*
X12618180Y-2546180D01*
X12618180Y-2609820D01*
X12681820Y-2609820D01*
X12935820Y-2609820D02*
X12935820Y-2546180D01*
X12872180Y-2546180D01*
X12872180Y-2609820D01*
X12935820Y-2609820D01*
X13561278Y-2609820D02*
X13561278Y-2546180D01*
X13497638Y-2546180D01*
X13497638Y-2609820D01*
X13561278Y-2609820D01*
X13815278Y-2609820D02*
X13815278Y-2546180D01*
X13751638Y-2546180D01*
X13751638Y-2609820D01*
X13815278Y-2609820D01*
X13875320Y-8096320D02*
X13875320Y-8032680D01*
X13811680Y-8032680D01*
X13811680Y-8096320D01*
X13875320Y-8096320D01*
X14129320Y-8096320D02*
X14129320Y-8032680D01*
X14065680Y-8032680D01*
X14065680Y-8096320D01*
X14129320Y-8096320D01*
X14451278Y-2609820D02*
X14451278Y-2546180D01*
X14387638Y-2546180D01*
X14387638Y-2609820D01*
X14451278Y-2609820D01*
X14705278Y-2609820D02*
X14705278Y-2546180D01*
X14641638Y-2546180D01*
X14641638Y-2609820D01*
X14705278Y-2609820D01*
X15341278Y-2609820D02*
X15341278Y-2546180D01*
X15277638Y-2546180D01*
X15277638Y-2609820D01*
X15341278Y-2609820D01*
X15595278Y-2609820D02*
X15595278Y-2546180D01*
X15531638Y-2546180D01*
X15531638Y-2609820D01*
X15595278Y-2609820D01*
X15653320Y-8096320D02*
X15653320Y-8032680D01*
X15589680Y-8032680D01*
X15589680Y-8096320D01*
X15653320Y-8096320D01*
X15907320Y-8096320D02*
X15907320Y-8032680D01*
X15843680Y-8032680D01*
X15843680Y-8096320D01*
X15907320Y-8096320D01*
X16234820Y-2609820D02*
X16234820Y-2546180D01*
X16171180Y-2546180D01*
X16171180Y-2609820D01*
X16234820Y-2609820D01*
X16488820Y-2609820D02*
X16488820Y-2546180D01*
X16425180Y-2546180D01*
X16425180Y-2609820D01*
X16488820Y-2609820D01*
X3302500Y-4049500D02*
X3352500Y-3999500D01*
X3302500Y-3949500D01*
X3252500Y-3999500D01*
X3302500Y-4049500D01*
X3237500Y-4049500D02*
X3367500Y-4049500D01*
X3367500Y-3949500D02*
G75*
G02*
X3367500Y-4049500I0J-50000D01*
G01*
X3367500Y-3949500D02*
X3237500Y-3949500D01*
X3237500Y-3949500D02*
G75*
G03*
X3237500Y-4049500I0J-50000D01*
G01*
X3302500Y-4494500D02*
X3352500Y-4444500D01*
X3302500Y-4394500D01*
X3252500Y-4444500D01*
X3302500Y-4494500D01*
X3237500Y-4494500D02*
X3367500Y-4494500D01*
X3367500Y-4394500D02*
G75*
G02*
X3367500Y-4494500I0J-50000D01*
G01*
X3367500Y-4394500D02*
X3237500Y-4394500D01*
X3237500Y-4394500D02*
G75*
G03*
X3237500Y-4494500I0J-50000D01*
G01*
X3302500Y-4939500D02*
X3352500Y-4889500D01*
X3302500Y-4839500D01*
X3252500Y-4889500D01*
X3302500Y-4939500D01*
X3237500Y-4939500D02*
X3367500Y-4939500D01*
X3367500Y-4839500D02*
G75*
G02*
X3367500Y-4939500I0J-50000D01*
G01*
X3367500Y-4839500D02*
X3237500Y-4839500D01*
X3237500Y-4839500D02*
G75*
G03*
X3237500Y-4939500I0J-50000D01*
G01*
X3302500Y-8812500D02*
X3352500Y-8762500D01*
X3302500Y-8712500D01*
X3252500Y-8762500D01*
X3302500Y-8812500D01*
X3237500Y-8812500D02*
X3367500Y-8812500D01*
X3367500Y-8712500D02*
G75*
G02*
X3367500Y-8812500I0J-50000D01*
G01*
X3367500Y-8712500D02*
X3237500Y-8712500D01*
X3237500Y-8712500D02*
G75*
G03*
X3237500Y-8812500I0J-50000D01*
G01*
X3302500Y-9257500D02*
X3352500Y-9207500D01*
X3302500Y-9157500D01*
X3252500Y-9207500D01*
X3302500Y-9257500D01*
X3237500Y-9257500D02*
X3367500Y-9257500D01*
X3367500Y-9157500D02*
G75*
G02*
X3367500Y-9257500I0J-50000D01*
G01*
X3367500Y-9157500D02*
X3237500Y-9157500D01*
X3237500Y-9157500D02*
G75*
G03*
X3237500Y-9257500I0J-50000D01*
G01*
X3302500Y-9702500D02*
X3352500Y-9652500D01*
X3302500Y-9602500D01*
X3252500Y-9652500D01*
X3302500Y-9702500D01*
X3237500Y-9702500D02*
X3367500Y-9702500D01*
X3367500Y-9602500D02*
G75*
G02*
X3367500Y-9702500I0J-50000D01*
G01*
X3367500Y-9602500D02*
X3237500Y-9602500D01*
X3237500Y-9602500D02*
G75*
G03*
X3237500Y-9702500I0J-50000D01*
G01*
X4191500Y-10209500D02*
X4241500Y-10159500D01*
X4191500Y-10109500D01*
X4141500Y-10159500D01*
X4191500Y-10209500D01*
X4126500Y-10209500D02*
X4256500Y-10209500D01*
X4256500Y-10109500D02*
G75*
G02*
X4256500Y-10209500I0J-50000D01*
G01*
X4256500Y-10109500D02*
X4126500Y-10109500D01*
X4126500Y-10109500D02*
G75*
G03*
X4126500Y-10209500I0J-50000D01*
G01*
X4191500Y-10654500D02*
X4241500Y-10604500D01*
X4191500Y-10554500D01*
X4141500Y-10604500D01*
X4191500Y-10654500D01*
X4126500Y-10654500D02*
X4256500Y-10654500D01*
X4256500Y-10554500D02*
G75*
G02*
X4256500Y-10654500I0J-50000D01*
G01*
X4256500Y-10554500D02*
X4126500Y-10554500D01*
X4126500Y-10554500D02*
G75*
G03*
X4126500Y-10654500I0J-50000D01*
G01*
X4191500Y-11099500D02*
X4241500Y-11049500D01*
X4191500Y-10999500D01*
X4141500Y-11049500D01*
X4191500Y-11099500D01*
X4126500Y-11099500D02*
X4256500Y-11099500D01*
X4256500Y-10999500D02*
G75*
G02*
X4256500Y-11099500I0J-50000D01*
G01*
X4256500Y-10999500D02*
X4126500Y-10999500D01*
X4126500Y-10999500D02*
G75*
G03*
X4126500Y-11099500I0J-50000D01*
G01*
X4635500Y-6527000D02*
X4685500Y-6477000D01*
X4635500Y-6427000D01*
X4585500Y-6477000D01*
X4635500Y-6527000D01*
X4585500Y-6412000D02*
X4585500Y-6542000D01*
X4685500Y-6542000D02*
G75*
G02*
X4585500Y-6542000I-50000J0D01*
G01*
X4685500Y-6542000D02*
X4685500Y-6412000D01*
X4685500Y-6412000D02*
G75*
G03*
X4585500Y-6412000I-50000J0D01*
G01*
X5080500Y-4049500D02*
X5130500Y-3999500D01*
X5080500Y-3949500D01*
X5030500Y-3999500D01*
X5080500Y-4049500D01*
X5015500Y-4049500D02*
X5145500Y-4049500D01*
X5145500Y-3949500D02*
G75*
G02*
X5145500Y-4049500I0J-50000D01*
G01*
X5145500Y-3949500D02*
X5015500Y-3949500D01*
X5015500Y-3949500D02*
G75*
G03*
X5015500Y-4049500I0J-50000D01*
G01*
X5080500Y-4494500D02*
X5130500Y-4444500D01*
X5080500Y-4394500D01*
X5030500Y-4444500D01*
X5080500Y-4494500D01*
X5015500Y-4494500D02*
X5145500Y-4494500D01*
X5145500Y-4394500D02*
G75*
G02*
X5145500Y-4494500I0J-50000D01*
G01*
X5145500Y-4394500D02*
X5015500Y-4394500D01*
X5015500Y-4394500D02*
G75*
G03*
X5015500Y-4494500I0J-50000D01*
G01*
X5080500Y-4939500D02*
X5130500Y-4889500D01*
X5080500Y-4839500D01*
X5030500Y-4889500D01*
X5080500Y-4939500D01*
X5015500Y-4939500D02*
X5145500Y-4939500D01*
X5145500Y-4839500D02*
G75*
G02*
X5145500Y-4939500I0J-50000D01*
G01*
X5145500Y-4839500D02*
X5015500Y-4839500D01*
X5015500Y-4839500D02*
G75*
G03*
X5015500Y-4939500I0J-50000D01*
G01*
X5080500Y-6527000D02*
X5130500Y-6477000D01*
X5080500Y-6427000D01*
X5030500Y-6477000D01*
X5080500Y-6527000D01*
X5030500Y-6412000D02*
X5030500Y-6542000D01*
X5130500Y-6542000D02*
G75*
G02*
X5030500Y-6542000I-50000J0D01*
G01*
X5130500Y-6542000D02*
X5130500Y-6412000D01*
X5130500Y-6412000D02*
G75*
G03*
X5030500Y-6412000I-50000J0D01*
G01*
X5080500Y-8812500D02*
X5130500Y-8762500D01*
X5080500Y-8712500D01*
X5030500Y-8762500D01*
X5080500Y-8812500D01*
X5015500Y-8812500D02*
X5145500Y-8812500D01*
X5145500Y-8712500D02*
G75*
G02*
X5145500Y-8812500I0J-50000D01*
G01*
X5145500Y-8712500D02*
X5015500Y-8712500D01*
X5015500Y-8712500D02*
G75*
G03*
X5015500Y-8812500I0J-50000D01*
G01*
X5080500Y-9257500D02*
X5130500Y-9207500D01*
X5080500Y-9157500D01*
X5030500Y-9207500D01*
X5080500Y-9257500D01*
X5015500Y-9257500D02*
X5145500Y-9257500D01*
X5145500Y-9157500D02*
G75*
G02*
X5145500Y-9257500I0J-50000D01*
G01*
X5145500Y-9157500D02*
X5015500Y-9157500D01*
X5015500Y-9157500D02*
G75*
G03*
X5015500Y-9257500I0J-50000D01*
G01*
X5080500Y-9702500D02*
X5130500Y-9652500D01*
X5080500Y-9602500D01*
X5030500Y-9652500D01*
X5080500Y-9702500D01*
X5015500Y-9702500D02*
X5145500Y-9702500D01*
X5145500Y-9602500D02*
G75*
G02*
X5145500Y-9702500I0J-50000D01*
G01*
X5145500Y-9602500D02*
X5015500Y-9602500D01*
X5015500Y-9602500D02*
G75*
G03*
X5015500Y-9702500I0J-50000D01*
G01*
X5525500Y-6527000D02*
X5575500Y-6477000D01*
X5525500Y-6427000D01*
X5475500Y-6477000D01*
X5525500Y-6527000D01*
X5475500Y-6412000D02*
X5475500Y-6542000D01*
X5575500Y-6542000D02*
G75*
G02*
X5475500Y-6542000I-50000J0D01*
G01*
X5575500Y-6542000D02*
X5575500Y-6412000D01*
X5575500Y-6412000D02*
G75*
G03*
X5475500Y-6412000I-50000J0D01*
G01*
X5969500Y-10209500D02*
X6019500Y-10159500D01*
X5969500Y-10109500D01*
X5919500Y-10159500D01*
X5969500Y-10209500D01*
X6034500Y-10109500D02*
X5904500Y-10109500D01*
X5904500Y-10209500D02*
G75*
G02*
X5904500Y-10109500I0J50000D01*
G01*
X5904500Y-10209500D02*
X6034500Y-10209500D01*
X6034500Y-10209500D02*
G75*
G03*
X6034500Y-10109500I0J50000D01*
G01*
X5969500Y-10654500D02*
X6019500Y-10604500D01*
X5969500Y-10554500D01*
X5919500Y-10604500D01*
X5969500Y-10654500D01*
X6034500Y-10554500D02*
X5904500Y-10554500D01*
X5904500Y-10654500D02*
G75*
G02*
X5904500Y-10554500I0J50000D01*
G01*
X5904500Y-10654500D02*
X6034500Y-10654500D01*
X6034500Y-10654500D02*
G75*
G03*
X6034500Y-10554500I0J50000D01*
G01*
X5969500Y-11099500D02*
X6019500Y-11049500D01*
X5969500Y-10999500D01*
X5919500Y-11049500D01*
X5969500Y-11099500D01*
X6034500Y-10999500D02*
X5904500Y-10999500D01*
X5904500Y-11099500D02*
G75*
G02*
X5904500Y-10999500I0J50000D01*
G01*
X5904500Y-11099500D02*
X6034500Y-11099500D01*
X6034500Y-11099500D02*
G75*
G03*
X6034500Y-10999500I0J50000D01*
G01*
X6033000Y-6209500D02*
X6083000Y-6159500D01*
X6033000Y-6109500D01*
X5983000Y-6159500D01*
X6033000Y-6209500D01*
X6033000Y-7479500D02*
X6083000Y-7429500D01*
X6033000Y-7379500D01*
X5983000Y-7429500D01*
X6033000Y-7479500D01*
X6287000Y-6209500D02*
X6337000Y-6159500D01*
X6287000Y-6109500D01*
X6237000Y-6159500D01*
X6287000Y-6209500D01*
X6287000Y-7479500D02*
X6337000Y-7429500D01*
X6287000Y-7379500D01*
X6237000Y-7429500D01*
X6287000Y-7479500D01*
X6541000Y-6209500D02*
X6591000Y-6159500D01*
X6541000Y-6109500D01*
X6491000Y-6159500D01*
X6541000Y-6209500D01*
X6541000Y-7479500D02*
X6591000Y-7429500D01*
X6541000Y-7379500D01*
X6491000Y-7429500D01*
X6541000Y-7479500D01*
X6795000Y-6209500D02*
X6845000Y-6159500D01*
X6795000Y-6109500D01*
X6745000Y-6159500D01*
X6795000Y-6209500D01*
X6795000Y-7479500D02*
X6845000Y-7429500D01*
X6795000Y-7379500D01*
X6745000Y-7429500D01*
X6795000Y-7479500D01*
X6858500Y-4050500D02*
X6908500Y-4000500D01*
X6858500Y-3950500D01*
X6808500Y-4000500D01*
X6858500Y-4050500D01*
X6793500Y-4050500D02*
X6923500Y-4050500D01*
X6923500Y-3950500D02*
G75*
G02*
X6923500Y-4050500I0J-50000D01*
G01*
X6923500Y-3950500D02*
X6793500Y-3950500D01*
X6793500Y-3950500D02*
G75*
G03*
X6793500Y-4050500I0J-50000D01*
G01*
X6858500Y-4495500D02*
X6908500Y-4445500D01*
X6858500Y-4395500D01*
X6808500Y-4445500D01*
X6858500Y-4495500D01*
X6793500Y-4495500D02*
X6923500Y-4495500D01*
X6923500Y-4395500D02*
G75*
G02*
X6923500Y-4495500I0J-50000D01*
G01*
X6923500Y-4395500D02*
X6793500Y-4395500D01*
X6793500Y-4395500D02*
G75*
G03*
X6793500Y-4495500I0J-50000D01*
G01*
X6858500Y-4940500D02*
X6908500Y-4890500D01*
X6858500Y-4840500D01*
X6808500Y-4890500D01*
X6858500Y-4940500D01*
X6793500Y-4940500D02*
X6923500Y-4940500D01*
X6923500Y-4840500D02*
G75*
G02*
X6923500Y-4940500I0J-50000D01*
G01*
X6923500Y-4840500D02*
X6793500Y-4840500D01*
X6793500Y-4840500D02*
G75*
G03*
X6793500Y-4940500I0J-50000D01*
G01*
X6858500Y-8812500D02*
X6908500Y-8762500D01*
X6858500Y-8712500D01*
X6808500Y-8762500D01*
X6858500Y-8812500D01*
X6793500Y-8812500D02*
X6923500Y-8812500D01*
X6923500Y-8712500D02*
G75*
G02*
X6923500Y-8812500I0J-50000D01*
G01*
X6923500Y-8712500D02*
X6793500Y-8712500D01*
X6793500Y-8712500D02*
G75*
G03*
X6793500Y-8812500I0J-50000D01*
G01*
X6858500Y-9257500D02*
X6908500Y-9207500D01*
X6858500Y-9157500D01*
X6808500Y-9207500D01*
X6858500Y-9257500D01*
X6793500Y-9257500D02*
X6923500Y-9257500D01*
X6923500Y-9157500D02*
G75*
G02*
X6923500Y-9257500I0J-50000D01*
G01*
X6923500Y-9157500D02*
X6793500Y-9157500D01*
X6793500Y-9157500D02*
G75*
G03*
X6793500Y-9257500I0J-50000D01*
G01*
X6858500Y-9702500D02*
X6908500Y-9652500D01*
X6858500Y-9602500D01*
X6808500Y-9652500D01*
X6858500Y-9702500D01*
X6793500Y-9702500D02*
X6923500Y-9702500D01*
X6923500Y-9602500D02*
G75*
G02*
X6923500Y-9702500I0J-50000D01*
G01*
X6923500Y-9602500D02*
X6793500Y-9602500D01*
X6793500Y-9602500D02*
G75*
G03*
X6793500Y-9702500I0J-50000D01*
G01*
X7049000Y-6209500D02*
X7099000Y-6159500D01*
X7049000Y-6109500D01*
X6999000Y-6159500D01*
X7049000Y-6209500D01*
X7049000Y-7479500D02*
X7099000Y-7429500D01*
X7049000Y-7379500D01*
X6999000Y-7429500D01*
X7049000Y-7479500D01*
X7303000Y-6209500D02*
X7353000Y-6159500D01*
X7303000Y-6109500D01*
X7253000Y-6159500D01*
X7303000Y-6209500D01*
X7303000Y-7479500D02*
X7353000Y-7429500D01*
X7303000Y-7379500D01*
X7253000Y-7429500D01*
X7303000Y-7479500D01*
X7557000Y-6209500D02*
X7607000Y-6159500D01*
X7557000Y-6109500D01*
X7507000Y-6159500D01*
X7557000Y-6209500D01*
X7557000Y-7479500D02*
X7607000Y-7429500D01*
X7557000Y-7379500D01*
X7507000Y-7429500D01*
X7557000Y-7479500D01*
X7747500Y-10209500D02*
X7797500Y-10159500D01*
X7747500Y-10109500D01*
X7697500Y-10159500D01*
X7747500Y-10209500D01*
X7812500Y-10109500D02*
X7682500Y-10109500D01*
X7682500Y-10209500D02*
G75*
G02*
X7682500Y-10109500I0J50000D01*
G01*
X7682500Y-10209500D02*
X7812500Y-10209500D01*
X7812500Y-10209500D02*
G75*
G03*
X7812500Y-10109500I0J50000D01*
G01*
X7747500Y-10654500D02*
X7797500Y-10604500D01*
X7747500Y-10554500D01*
X7697500Y-10604500D01*
X7747500Y-10654500D01*
X7812500Y-10554500D02*
X7682500Y-10554500D01*
X7682500Y-10654500D02*
G75*
G02*
X7682500Y-10554500I0J50000D01*
G01*
X7682500Y-10654500D02*
X7812500Y-10654500D01*
X7812500Y-10654500D02*
G75*
G03*
X7812500Y-10554500I0J50000D01*
G01*
X7747500Y-11099500D02*
X7797500Y-11049500D01*
X7747500Y-10999500D01*
X7697500Y-11049500D01*
X7747500Y-11099500D01*
X7812500Y-10999500D02*
X7682500Y-10999500D01*
X7682500Y-11099500D02*
G75*
G02*
X7682500Y-10999500I0J50000D01*
G01*
X7682500Y-11099500D02*
X7812500Y-11099500D01*
X7812500Y-11099500D02*
G75*
G03*
X7812500Y-10999500I0J50000D01*
G01*
X7811000Y-6209500D02*
X7861000Y-6159500D01*
X7811000Y-6109500D01*
X7761000Y-6159500D01*
X7811000Y-6209500D01*
X7811000Y-7479500D02*
X7861000Y-7429500D01*
X7811000Y-7379500D01*
X7761000Y-7429500D01*
X7811000Y-7479500D01*
X8065000Y-6209500D02*
X8115000Y-6159500D01*
X8065000Y-6109500D01*
X8015000Y-6159500D01*
X8065000Y-6209500D01*
X8065000Y-7479500D02*
X8115000Y-7429500D01*
X8065000Y-7379500D01*
X8015000Y-7429500D01*
X8065000Y-7479500D01*
X8319000Y-6209500D02*
X8369000Y-6159500D01*
X8319000Y-6109500D01*
X8269000Y-6159500D01*
X8319000Y-6209500D01*
X8319000Y-7479500D02*
X8369000Y-7429500D01*
X8319000Y-7379500D01*
X8269000Y-7429500D01*
X8319000Y-7479500D01*
X8573000Y-6209500D02*
X8623000Y-6159500D01*
X8573000Y-6109500D01*
X8523000Y-6159500D01*
X8573000Y-6209500D01*
X8573000Y-7479500D02*
X8623000Y-7429500D01*
X8573000Y-7379500D01*
X8523000Y-7429500D01*
X8573000Y-7479500D01*
X8636500Y-4050500D02*
X8686500Y-4000500D01*
X8636500Y-3950500D01*
X8586500Y-4000500D01*
X8636500Y-4050500D01*
X8571500Y-4050500D02*
X8701500Y-4050500D01*
X8701500Y-3950500D02*
G75*
G02*
X8701500Y-4050500I0J-50000D01*
G01*
X8701500Y-3950500D02*
X8571500Y-3950500D01*
X8571500Y-3950500D02*
G75*
G03*
X8571500Y-4050500I0J-50000D01*
G01*
X8636500Y-4495500D02*
X8686500Y-4445500D01*
X8636500Y-4395500D01*
X8586500Y-4445500D01*
X8636500Y-4495500D01*
X8571500Y-4495500D02*
X8701500Y-4495500D01*
X8701500Y-4395500D02*
G75*
G02*
X8701500Y-4495500I0J-50000D01*
G01*
X8701500Y-4395500D02*
X8571500Y-4395500D01*
X8571500Y-4395500D02*
G75*
G03*
X8571500Y-4495500I0J-50000D01*
G01*
X8636500Y-4940500D02*
X8686500Y-4890500D01*
X8636500Y-4840500D01*
X8586500Y-4890500D01*
X8636500Y-4940500D01*
X8571500Y-4940500D02*
X8701500Y-4940500D01*
X8701500Y-4840500D02*
G75*
G02*
X8701500Y-4940500I0J-50000D01*
G01*
X8701500Y-4840500D02*
X8571500Y-4840500D01*
X8571500Y-4840500D02*
G75*
G03*
X8571500Y-4940500I0J-50000D01*
G01*
X8636500Y-8812500D02*
X8686500Y-8762500D01*
X8636500Y-8712500D01*
X8586500Y-8762500D01*
X8636500Y-8812500D01*
X8571500Y-8812500D02*
X8701500Y-8812500D01*
X8701500Y-8712500D02*
G75*
G02*
X8701500Y-8812500I0J-50000D01*
G01*
X8701500Y-8712500D02*
X8571500Y-8712500D01*
X8571500Y-8712500D02*
G75*
G03*
X8571500Y-8812500I0J-50000D01*
G01*
X8636500Y-9257500D02*
X8686500Y-9207500D01*
X8636500Y-9157500D01*
X8586500Y-9207500D01*
X8636500Y-9257500D01*
X8571500Y-9257500D02*
X8701500Y-9257500D01*
X8701500Y-9157500D02*
G75*
G02*
X8701500Y-9257500I0J-50000D01*
G01*
X8701500Y-9157500D02*
X8571500Y-9157500D01*
X8571500Y-9157500D02*
G75*
G03*
X8571500Y-9257500I0J-50000D01*
G01*
X8636500Y-9702500D02*
X8686500Y-9652500D01*
X8636500Y-9602500D01*
X8586500Y-9652500D01*
X8636500Y-9702500D01*
X8571500Y-9702500D02*
X8701500Y-9702500D01*
X8701500Y-9602500D02*
G75*
G02*
X8701500Y-9702500I0J-50000D01*
G01*
X8701500Y-9602500D02*
X8571500Y-9602500D01*
X8571500Y-9602500D02*
G75*
G03*
X8571500Y-9702500I0J-50000D01*
G01*
X8827000Y-6209500D02*
X8877000Y-6159500D01*
X8827000Y-6109500D01*
X8777000Y-6159500D01*
X8827000Y-6209500D01*
X8827000Y-7479500D02*
X8877000Y-7429500D01*
X8827000Y-7379500D01*
X8777000Y-7429500D01*
X8827000Y-7479500D01*
X9081000Y-6209500D02*
X9131000Y-6159500D01*
X9081000Y-6109500D01*
X9031000Y-6159500D01*
X9081000Y-6209500D01*
X9081000Y-7479500D02*
X9131000Y-7429500D01*
X9081000Y-7379500D01*
X9031000Y-7429500D01*
X9081000Y-7479500D01*
X9335000Y-6209500D02*
X9385000Y-6159500D01*
X9335000Y-6109500D01*
X9285000Y-6159500D01*
X9335000Y-6209500D01*
X9335000Y-7479500D02*
X9385000Y-7429500D01*
X9335000Y-7379500D01*
X9285000Y-7429500D01*
X9335000Y-7479500D01*
X9525500Y-10209500D02*
X9575500Y-10159500D01*
X9525500Y-10109500D01*
X9475500Y-10159500D01*
X9525500Y-10209500D01*
X9460500Y-10209500D02*
X9590500Y-10209500D01*
X9590500Y-10109500D02*
G75*
G02*
X9590500Y-10209500I0J-50000D01*
G01*
X9590500Y-10109500D02*
X9460500Y-10109500D01*
X9460500Y-10109500D02*
G75*
G03*
X9460500Y-10209500I0J-50000D01*
G01*
X9525500Y-10654500D02*
X9575500Y-10604500D01*
X9525500Y-10554500D01*
X9475500Y-10604500D01*
X9525500Y-10654500D01*
X9460500Y-10654500D02*
X9590500Y-10654500D01*
X9590500Y-10554500D02*
G75*
G02*
X9590500Y-10654500I0J-50000D01*
G01*
X9590500Y-10554500D02*
X9460500Y-10554500D01*
X9460500Y-10554500D02*
G75*
G03*
X9460500Y-10654500I0J-50000D01*
G01*
X9525500Y-11099500D02*
X9575500Y-11049500D01*
X9525500Y-10999500D01*
X9475500Y-11049500D01*
X9525500Y-11099500D01*
X9460500Y-11099500D02*
X9590500Y-11099500D01*
X9590500Y-10999500D02*
G75*
G02*
X9590500Y-11099500I0J-50000D01*
G01*
X9590500Y-10999500D02*
X9460500Y-10999500D01*
X9460500Y-10999500D02*
G75*
G03*
X9460500Y-11099500I0J-50000D01*
G01*
X9589000Y-6209500D02*
X9639000Y-6159500D01*
X9589000Y-6109500D01*
X9539000Y-6159500D01*
X9589000Y-6209500D01*
X9589000Y-7479500D02*
X9639000Y-7429500D01*
X9589000Y-7379500D01*
X9539000Y-7429500D01*
X9589000Y-7479500D01*
X9843000Y-6209500D02*
X9893000Y-6159500D01*
X9843000Y-6109500D01*
X9793000Y-6159500D01*
X9843000Y-6209500D01*
X9843000Y-7479500D02*
X9893000Y-7429500D01*
X9843000Y-7379500D01*
X9793000Y-7429500D01*
X9843000Y-7479500D01*
X10097000Y-6209500D02*
X10147000Y-6159500D01*
X10097000Y-6109500D01*
X10047000Y-6159500D01*
X10097000Y-6209500D01*
X10097000Y-7479500D02*
X10147000Y-7429500D01*
X10097000Y-7379500D01*
X10047000Y-7429500D01*
X10097000Y-7479500D01*
X10351000Y-6209500D02*
X10401000Y-6159500D01*
X10351000Y-6109500D01*
X10301000Y-6159500D01*
X10351000Y-6209500D01*
X10351000Y-7479500D02*
X10401000Y-7429500D01*
X10351000Y-7379500D01*
X10301000Y-7429500D01*
X10351000Y-7479500D01*
X10414500Y-4050500D02*
X10464500Y-4000500D01*
X10414500Y-3950500D01*
X10364500Y-4000500D01*
X10414500Y-4050500D01*
X10349500Y-4050500D02*
X10479500Y-4050500D01*
X10479500Y-3950500D02*
G75*
G02*
X10479500Y-4050500I0J-50000D01*
G01*
X10479500Y-3950500D02*
X10349500Y-3950500D01*
X10349500Y-3950500D02*
G75*
G03*
X10349500Y-4050500I0J-50000D01*
G01*
X10414500Y-4495500D02*
X10464500Y-4445500D01*
X10414500Y-4395500D01*
X10364500Y-4445500D01*
X10414500Y-4495500D01*
X10349500Y-4495500D02*
X10479500Y-4495500D01*
X10479500Y-4395500D02*
G75*
G02*
X10479500Y-4495500I0J-50000D01*
G01*
X10479500Y-4395500D02*
X10349500Y-4395500D01*
X10349500Y-4395500D02*
G75*
G03*
X10349500Y-4495500I0J-50000D01*
G01*
X10414500Y-4940500D02*
X10464500Y-4890500D01*
X10414500Y-4840500D01*
X10364500Y-4890500D01*
X10414500Y-4940500D01*
X10349500Y-4940500D02*
X10479500Y-4940500D01*
X10479500Y-4840500D02*
G75*
G02*
X10479500Y-4940500I0J-50000D01*
G01*
X10479500Y-4840500D02*
X10349500Y-4840500D01*
X10349500Y-4840500D02*
G75*
G03*
X10349500Y-4940500I0J-50000D01*
G01*
X10414500Y-8812500D02*
X10464500Y-8762500D01*
X10414500Y-8712500D01*
X10364500Y-8762500D01*
X10414500Y-8812500D01*
X10349500Y-8812500D02*
X10479500Y-8812500D01*
X10479500Y-8712500D02*
G75*
G02*
X10479500Y-8812500I0J-50000D01*
G01*
X10479500Y-8712500D02*
X10349500Y-8712500D01*
X10349500Y-8712500D02*
G75*
G03*
X10349500Y-8812500I0J-50000D01*
G01*
X10414500Y-9257500D02*
X10464500Y-9207500D01*
X10414500Y-9157500D01*
X10364500Y-9207500D01*
X10414500Y-9257500D01*
X10349500Y-9257500D02*
X10479500Y-9257500D01*
X10479500Y-9157500D02*
G75*
G02*
X10479500Y-9257500I0J-50000D01*
G01*
X10479500Y-9157500D02*
X10349500Y-9157500D01*
X10349500Y-9157500D02*
G75*
G03*
X10349500Y-9257500I0J-50000D01*
G01*
X10414500Y-9702500D02*
X10464500Y-9652500D01*
X10414500Y-9602500D01*
X10364500Y-9652500D01*
X10414500Y-9702500D01*
X10349500Y-9702500D02*
X10479500Y-9702500D01*
X10479500Y-9602500D02*
G75*
G02*
X10479500Y-9702500I0J-50000D01*
G01*
X10479500Y-9602500D02*
X10349500Y-9602500D01*
X10349500Y-9602500D02*
G75*
G03*
X10349500Y-9702500I0J-50000D01*
G01*
X10605000Y-6209500D02*
X10655000Y-6159500D01*
X10605000Y-6109500D01*
X10555000Y-6159500D01*
X10605000Y-6209500D01*
X10605000Y-7479500D02*
X10655000Y-7429500D01*
X10605000Y-7379500D01*
X10555000Y-7429500D01*
X10605000Y-7479500D01*
X10859000Y-6209500D02*
X10909000Y-6159500D01*
X10859000Y-6109500D01*
X10809000Y-6159500D01*
X10859000Y-6209500D01*
X10859000Y-7479500D02*
X10909000Y-7429500D01*
X10859000Y-7379500D01*
X10809000Y-7429500D01*
X10859000Y-7479500D01*
X11303500Y-6209500D02*
X11353500Y-6159500D01*
X11303500Y-6109500D01*
X11253500Y-6159500D01*
X11303500Y-6209500D01*
X11303500Y-6463500D02*
X11353500Y-6413500D01*
X11303500Y-6363500D01*
X11253500Y-6413500D01*
X11303500Y-6463500D01*
X11303500Y-10209500D02*
X11353500Y-10159500D01*
X11303500Y-10109500D01*
X11253500Y-10159500D01*
X11303500Y-10209500D01*
X11238500Y-10209500D02*
X11368500Y-10209500D01*
X11368500Y-10109500D02*
G75*
G02*
X11368500Y-10209500I0J-50000D01*
G01*
X11368500Y-10109500D02*
X11238500Y-10109500D01*
X11238500Y-10109500D02*
G75*
G03*
X11238500Y-10209500I0J-50000D01*
G01*
X11303500Y-10654500D02*
X11353500Y-10604500D01*
X11303500Y-10554500D01*
X11253500Y-10604500D01*
X11303500Y-10654500D01*
X11238500Y-10654500D02*
X11368500Y-10654500D01*
X11368500Y-10554500D02*
G75*
G02*
X11368500Y-10654500I0J-50000D01*
G01*
X11368500Y-10554500D02*
X11238500Y-10554500D01*
X11238500Y-10554500D02*
G75*
G03*
X11238500Y-10654500I0J-50000D01*
G01*
X11303500Y-11099500D02*
X11353500Y-11049500D01*
X11303500Y-10999500D01*
X11253500Y-11049500D01*
X11303500Y-11099500D01*
X11238500Y-11099500D02*
X11368500Y-11099500D01*
X11368500Y-10999500D02*
G75*
G02*
X11368500Y-11099500I0J-50000D01*
G01*
X11368500Y-10999500D02*
X11238500Y-10999500D01*
X11238500Y-10999500D02*
G75*
G03*
X11238500Y-11099500I0J-50000D01*
G01*
X11810500Y-6527000D02*
X11860500Y-6477000D01*
X11810500Y-6427000D01*
X11760500Y-6477000D01*
X11810500Y-6527000D01*
X11760500Y-6412000D02*
X11760500Y-6542000D01*
X11860500Y-6542000D02*
G75*
G02*
X11760500Y-6542000I-50000J0D01*
G01*
X11860500Y-6542000D02*
X11860500Y-6412000D01*
X11860500Y-6412000D02*
G75*
G03*
X11760500Y-6412000I-50000J0D01*
G01*
X12192500Y-4050500D02*
X12242500Y-4000500D01*
X12192500Y-3950500D01*
X12142500Y-4000500D01*
X12192500Y-4050500D01*
X12127500Y-4050500D02*
X12257500Y-4050500D01*
X12257500Y-3950500D02*
G75*
G02*
X12257500Y-4050500I0J-50000D01*
G01*
X12257500Y-3950500D02*
X12127500Y-3950500D01*
X12127500Y-3950500D02*
G75*
G03*
X12127500Y-4050500I0J-50000D01*
G01*
X12192500Y-4495500D02*
X12242500Y-4445500D01*
X12192500Y-4395500D01*
X12142500Y-4445500D01*
X12192500Y-4495500D01*
X12127500Y-4495500D02*
X12257500Y-4495500D01*
X12257500Y-4395500D02*
G75*
G02*
X12257500Y-4495500I0J-50000D01*
G01*
X12257500Y-4395500D02*
X12127500Y-4395500D01*
X12127500Y-4395500D02*
G75*
G03*
X12127500Y-4495500I0J-50000D01*
G01*
X12192500Y-4940500D02*
X12242500Y-4890500D01*
X12192500Y-4840500D01*
X12142500Y-4890500D01*
X12192500Y-4940500D01*
X12127500Y-4940500D02*
X12257500Y-4940500D01*
X12257500Y-4840500D02*
G75*
G02*
X12257500Y-4940500I0J-50000D01*
G01*
X12257500Y-4840500D02*
X12127500Y-4840500D01*
X12127500Y-4840500D02*
G75*
G03*
X12127500Y-4940500I0J-50000D01*
G01*
X12192500Y-8812500D02*
X12242500Y-8762500D01*
X12192500Y-8712500D01*
X12142500Y-8762500D01*
X12192500Y-8812500D01*
X12127500Y-8812500D02*
X12257500Y-8812500D01*
X12257500Y-8712500D02*
G75*
G02*
X12257500Y-8812500I0J-50000D01*
G01*
X12257500Y-8712500D02*
X12127500Y-8712500D01*
X12127500Y-8712500D02*
G75*
G03*
X12127500Y-8812500I0J-50000D01*
G01*
X12192500Y-9257500D02*
X12242500Y-9207500D01*
X12192500Y-9157500D01*
X12142500Y-9207500D01*
X12192500Y-9257500D01*
X12127500Y-9257500D02*
X12257500Y-9257500D01*
X12257500Y-9157500D02*
G75*
G02*
X12257500Y-9257500I0J-50000D01*
G01*
X12257500Y-9157500D02*
X12127500Y-9157500D01*
X12127500Y-9157500D02*
G75*
G03*
X12127500Y-9257500I0J-50000D01*
G01*
X12192500Y-9702500D02*
X12242500Y-9652500D01*
X12192500Y-9602500D01*
X12142500Y-9652500D01*
X12192500Y-9702500D01*
X12127500Y-9702500D02*
X12257500Y-9702500D01*
X12257500Y-9602500D02*
G75*
G02*
X12257500Y-9702500I0J-50000D01*
G01*
X12257500Y-9602500D02*
X12127500Y-9602500D01*
X12127500Y-9602500D02*
G75*
G03*
X12127500Y-9702500I0J-50000D01*
G01*
X12255500Y-6527000D02*
X12305500Y-6477000D01*
X12255500Y-6427000D01*
X12205500Y-6477000D01*
X12255500Y-6527000D01*
X12205500Y-6412000D02*
X12205500Y-6542000D01*
X12305500Y-6542000D02*
G75*
G02*
X12205500Y-6542000I-50000J0D01*
G01*
X12305500Y-6542000D02*
X12305500Y-6412000D01*
X12305500Y-6412000D02*
G75*
G03*
X12205500Y-6412000I-50000J0D01*
G01*
X12700500Y-6527000D02*
X12750500Y-6477000D01*
X12700500Y-6427000D01*
X12650500Y-6477000D01*
X12700500Y-6527000D01*
X12650500Y-6412000D02*
X12650500Y-6542000D01*
X12750500Y-6542000D02*
G75*
G02*
X12650500Y-6542000I-50000J0D01*
G01*
X12750500Y-6542000D02*
X12750500Y-6412000D01*
X12750500Y-6412000D02*
G75*
G03*
X12650500Y-6412000I-50000J0D01*
G01*
X13081500Y-10209500D02*
X13131500Y-10159500D01*
X13081500Y-10109500D01*
X13031500Y-10159500D01*
X13081500Y-10209500D01*
X13146500Y-10109500D02*
X13016500Y-10109500D01*
X13016500Y-10209500D02*
G75*
G02*
X13016500Y-10109500I0J50000D01*
G01*
X13016500Y-10209500D02*
X13146500Y-10209500D01*
X13146500Y-10209500D02*
G75*
G03*
X13146500Y-10109500I0J50000D01*
G01*
X13081500Y-10654500D02*
X13131500Y-10604500D01*
X13081500Y-10554500D01*
X13031500Y-10604500D01*
X13081500Y-10654500D01*
X13146500Y-10554500D02*
X13016500Y-10554500D01*
X13016500Y-10654500D02*
G75*
G02*
X13016500Y-10554500I0J50000D01*
G01*
X13016500Y-10654500D02*
X13146500Y-10654500D01*
X13146500Y-10654500D02*
G75*
G03*
X13146500Y-10554500I0J50000D01*
G01*
X13081500Y-11099500D02*
X13131500Y-11049500D01*
X13081500Y-10999500D01*
X13031500Y-11049500D01*
X13081500Y-11099500D01*
X13146500Y-10999500D02*
X13016500Y-10999500D01*
X13016500Y-11099500D02*
G75*
G02*
X13016500Y-10999500I0J50000D01*
G01*
X13016500Y-11099500D02*
X13146500Y-11099500D01*
X13146500Y-11099500D02*
G75*
G03*
X13146500Y-10999500I0J50000D01*
G01*
X13970500Y-4050500D02*
X14020500Y-4000500D01*
X13970500Y-3950500D01*
X13920500Y-4000500D01*
X13970500Y-4050500D01*
X13905500Y-4050500D02*
X14035500Y-4050500D01*
X14035500Y-3950500D02*
G75*
G02*
X14035500Y-4050500I0J-50000D01*
G01*
X14035500Y-3950500D02*
X13905500Y-3950500D01*
X13905500Y-3950500D02*
G75*
G03*
X13905500Y-4050500I0J-50000D01*
G01*
X13970500Y-4495500D02*
X14020500Y-4445500D01*
X13970500Y-4395500D01*
X13920500Y-4445500D01*
X13970500Y-4495500D01*
X13905500Y-4495500D02*
X14035500Y-4495500D01*
X14035500Y-4395500D02*
G75*
G02*
X14035500Y-4495500I0J-50000D01*
G01*
X14035500Y-4395500D02*
X13905500Y-4395500D01*
X13905500Y-4395500D02*
G75*
G03*
X13905500Y-4495500I0J-50000D01*
G01*
X13970500Y-4940500D02*
X14020500Y-4890500D01*
X13970500Y-4840500D01*
X13920500Y-4890500D01*
X13970500Y-4940500D01*
X13905500Y-4940500D02*
X14035500Y-4940500D01*
X14035500Y-4840500D02*
G75*
G02*
X14035500Y-4940500I0J-50000D01*
G01*
X14035500Y-4840500D02*
X13905500Y-4840500D01*
X13905500Y-4840500D02*
G75*
G03*
X13905500Y-4940500I0J-50000D01*
G01*
X13970500Y-8812500D02*
X14020500Y-8762500D01*
X13970500Y-8712500D01*
X13920500Y-8762500D01*
X13970500Y-8812500D01*
X13905500Y-8812500D02*
X14035500Y-8812500D01*
X14035500Y-8712500D02*
G75*
G02*
X14035500Y-8812500I0J-50000D01*
G01*
X14035500Y-8712500D02*
X13905500Y-8712500D01*
X13905500Y-8712500D02*
G75*
G03*
X13905500Y-8812500I0J-50000D01*
G01*
X13970500Y-9257500D02*
X14020500Y-9207500D01*
X13970500Y-9157500D01*
X13920500Y-9207500D01*
X13970500Y-9257500D01*
X13905500Y-9257500D02*
X14035500Y-9257500D01*
X14035500Y-9157500D02*
G75*
G02*
X14035500Y-9257500I0J-50000D01*
G01*
X14035500Y-9157500D02*
X13905500Y-9157500D01*
X13905500Y-9157500D02*
G75*
G03*
X13905500Y-9257500I0J-50000D01*
G01*
X13970500Y-9702500D02*
X14020500Y-9652500D01*
X13970500Y-9602500D01*
X13920500Y-9652500D01*
X13970500Y-9702500D01*
X13905500Y-9702500D02*
X14035500Y-9702500D01*
X14035500Y-9602500D02*
G75*
G02*
X14035500Y-9702500I0J-50000D01*
G01*
X14035500Y-9602500D02*
X13905500Y-9602500D01*
X13905500Y-9602500D02*
G75*
G03*
X13905500Y-9702500I0J-50000D01*
G01*
X14859500Y-10209500D02*
X14909500Y-10159500D01*
X14859500Y-10109500D01*
X14809500Y-10159500D01*
X14859500Y-10209500D01*
X14794500Y-10209500D02*
X14924500Y-10209500D01*
X14924500Y-10109500D02*
G75*
G02*
X14924500Y-10209500I0J-50000D01*
G01*
X14924500Y-10109500D02*
X14794500Y-10109500D01*
X14794500Y-10109500D02*
G75*
G03*
X14794500Y-10209500I0J-50000D01*
G01*
X14859500Y-10654500D02*
X14909500Y-10604500D01*
X14859500Y-10554500D01*
X14809500Y-10604500D01*
X14859500Y-10654500D01*
X14794500Y-10654500D02*
X14924500Y-10654500D01*
X14924500Y-10554500D02*
G75*
G02*
X14924500Y-10654500I0J-50000D01*
G01*
X14924500Y-10554500D02*
X14794500Y-10554500D01*
X14794500Y-10554500D02*
G75*
G03*
X14794500Y-10654500I0J-50000D01*
G01*
X14859500Y-11099500D02*
X14909500Y-11049500D01*
X14859500Y-10999500D01*
X14809500Y-11049500D01*
X14859500Y-11099500D01*
X14794500Y-11099500D02*
X14924500Y-11099500D01*
X14924500Y-10999500D02*
G75*
G02*
X14924500Y-11099500I0J-50000D01*
G01*
X14924500Y-10999500D02*
X14794500Y-10999500D01*
X14794500Y-10999500D02*
G75*
G03*
X14794500Y-11099500I0J-50000D01*
G01*
X15748500Y-4049500D02*
X15798500Y-3999500D01*
X15748500Y-3949500D01*
X15698500Y-3999500D01*
X15748500Y-4049500D01*
X15683500Y-4049500D02*
X15813500Y-4049500D01*
X15813500Y-3949500D02*
G75*
G02*
X15813500Y-4049500I0J-50000D01*
G01*
X15813500Y-3949500D02*
X15683500Y-3949500D01*
X15683500Y-3949500D02*
G75*
G03*
X15683500Y-4049500I0J-50000D01*
G01*
X15748500Y-4494500D02*
X15798500Y-4444500D01*
X15748500Y-4394500D01*
X15698500Y-4444500D01*
X15748500Y-4494500D01*
X15683500Y-4494500D02*
X15813500Y-4494500D01*
X15813500Y-4394500D02*
G75*
G02*
X15813500Y-4494500I0J-50000D01*
G01*
X15813500Y-4394500D02*
X15683500Y-4394500D01*
X15683500Y-4394500D02*
G75*
G03*
X15683500Y-4494500I0J-50000D01*
G01*
X15748500Y-4939500D02*
X15798500Y-4889500D01*
X15748500Y-4839500D01*
X15698500Y-4889500D01*
X15748500Y-4939500D01*
X15683500Y-4939500D02*
X15813500Y-4939500D01*
X15813500Y-4839500D02*
G75*
G02*
X15813500Y-4939500I0J-50000D01*
G01*
X15813500Y-4839500D02*
X15683500Y-4839500D01*
X15683500Y-4839500D02*
G75*
G03*
X15683500Y-4939500I0J-50000D01*
G01*
X15748500Y-8812500D02*
X15798500Y-8762500D01*
X15748500Y-8712500D01*
X15698500Y-8762500D01*
X15748500Y-8812500D01*
X15683500Y-8812500D02*
X15813500Y-8812500D01*
X15813500Y-8712500D02*
G75*
G02*
X15813500Y-8812500I0J-50000D01*
G01*
X15813500Y-8712500D02*
X15683500Y-8712500D01*
X15683500Y-8712500D02*
G75*
G03*
X15683500Y-8812500I0J-50000D01*
G01*
X15748500Y-9257500D02*
X15798500Y-9207500D01*
X15748500Y-9157500D01*
X15698500Y-9207500D01*
X15748500Y-9257500D01*
X15683500Y-9257500D02*
X15813500Y-9257500D01*
X15813500Y-9157500D02*
G75*
G02*
X15813500Y-9257500I0J-50000D01*
G01*
X15813500Y-9157500D02*
X15683500Y-9157500D01*
X15683500Y-9157500D02*
G75*
G03*
X15683500Y-9257500I0J-50000D01*
G01*
X15748500Y-9702500D02*
X15798500Y-9652500D01*
X15748500Y-9602500D01*
X15698500Y-9652500D01*
X15748500Y-9702500D01*
X15683500Y-9702500D02*
X15813500Y-9702500D01*
X15813500Y-9602500D02*
G75*
G02*
X15813500Y-9702500I0J-50000D01*
G01*
X15813500Y-9602500D02*
X15683500Y-9602500D01*
X15683500Y-9602500D02*
G75*
G03*
X15683500Y-9702500I0J-50000D01*
G01*
D12*
X11566000Y-5914000D02*
X11676000Y-6024000D01*
X11676000Y-5914000D02*
X11566000Y-6024000D01*
X11676000Y-5969000D02*
G75*
G02*
X11566000Y-5969000I-55000J0D01*
G01*
X11566000Y-5969000D02*
G75*
G02*
X11676000Y-5969000I55000J0D01*
G01*
X12582000Y-5914000D02*
X12692000Y-6024000D01*
X12692000Y-5914000D02*
X12582000Y-6024000D01*
X12692000Y-5969000D02*
G75*
G02*
X12582000Y-5969000I-55000J0D01*
G01*
X12582000Y-5969000D02*
G75*
G02*
X12692000Y-5969000I55000J0D01*
G01*
D10*
X2536777Y-11814984D02*
X2536777Y-11614984D01*
X2536777Y-11614984D02*
X2584396Y-11614984D01*
X2584396Y-11614984D02*
X2612967Y-11624508D01*
X2612967Y-11624508D02*
X2632015Y-11643555D01*
X2632015Y-11643555D02*
X2641539Y-11662603D01*
X2641539Y-11662603D02*
X2651063Y-11700698D01*
X2651063Y-11700698D02*
X2651063Y-11729269D01*
X2651063Y-11729269D02*
X2641539Y-11767365D01*
X2641539Y-11767365D02*
X2632015Y-11786412D01*
X2632015Y-11786412D02*
X2612967Y-11805460D01*
X2612967Y-11805460D02*
X2584396Y-11814984D01*
X2584396Y-11814984D02*
X2536777Y-11814984D01*
X2736777Y-11814984D02*
X2736777Y-11681650D01*
X2736777Y-11719746D02*
X2746301Y-11700698D01*
X2746301Y-11700698D02*
X2755824Y-11691174D01*
X2755824Y-11691174D02*
X2774872Y-11681650D01*
X2774872Y-11681650D02*
X2793920Y-11681650D01*
X2860586Y-11814984D02*
X2860586Y-11681650D01*
X2860586Y-11614984D02*
X2851062Y-11624508D01*
X2851062Y-11624508D02*
X2860586Y-11634031D01*
X2860586Y-11634031D02*
X2870110Y-11624508D01*
X2870110Y-11624508D02*
X2860586Y-11614984D01*
X2860586Y-11614984D02*
X2860586Y-11634031D01*
X2984396Y-11814984D02*
X2965348Y-11805460D01*
X2965348Y-11805460D02*
X2955824Y-11786412D01*
X2955824Y-11786412D02*
X2955824Y-11614984D01*
X3089158Y-11814984D02*
X3070110Y-11805460D01*
X3070110Y-11805460D02*
X3060586Y-11786412D01*
X3060586Y-11786412D02*
X3060586Y-11614984D01*
X3317729Y-11814984D02*
X3317729Y-11614984D01*
X3317729Y-11614984D02*
X3384396Y-11757841D01*
X3384396Y-11757841D02*
X3451062Y-11614984D01*
X3451062Y-11614984D02*
X3451062Y-11814984D01*
X3632015Y-11814984D02*
X3632015Y-11710222D01*
X3632015Y-11710222D02*
X3622491Y-11691174D01*
X3622491Y-11691174D02*
X3603443Y-11681650D01*
X3603443Y-11681650D02*
X3565348Y-11681650D01*
X3565348Y-11681650D02*
X3546301Y-11691174D01*
X3632015Y-11805460D02*
X3612967Y-11814984D01*
X3612967Y-11814984D02*
X3565348Y-11814984D01*
X3565348Y-11814984D02*
X3546301Y-11805460D01*
X3546301Y-11805460D02*
X3536777Y-11786412D01*
X3536777Y-11786412D02*
X3536777Y-11767365D01*
X3536777Y-11767365D02*
X3546301Y-11748317D01*
X3546301Y-11748317D02*
X3565348Y-11738793D01*
X3565348Y-11738793D02*
X3612967Y-11738793D01*
X3612967Y-11738793D02*
X3632015Y-11729269D01*
X3727253Y-11681650D02*
X3727253Y-11881650D01*
X3727253Y-11691174D02*
X3746301Y-11681650D01*
X3746301Y-11681650D02*
X3784396Y-11681650D01*
X3784396Y-11681650D02*
X3803443Y-11691174D01*
X3803443Y-11691174D02*
X3812967Y-11700698D01*
X3812967Y-11700698D02*
X3822491Y-11719746D01*
X3822491Y-11719746D02*
X3822491Y-11776888D01*
X3822491Y-11776888D02*
X3812967Y-11795936D01*
X3812967Y-11795936D02*
X3803443Y-11805460D01*
X3803443Y-11805460D02*
X3784396Y-11814984D01*
X3784396Y-11814984D02*
X3746301Y-11814984D01*
X3746301Y-11814984D02*
X3727253Y-11805460D01*
X3908205Y-11795936D02*
X3917729Y-11805460D01*
X3917729Y-11805460D02*
X3908205Y-11814984D01*
X3908205Y-11814984D02*
X3898682Y-11805460D01*
X3898682Y-11805460D02*
X3908205Y-11795936D01*
X3908205Y-11795936D02*
X3908205Y-11814984D01*
X3908205Y-11691174D02*
X3917729Y-11700698D01*
X3917729Y-11700698D02*
X3908205Y-11710222D01*
X3908205Y-11710222D02*
X3898682Y-11700698D01*
X3898682Y-11700698D02*
X3908205Y-11691174D01*
X3908205Y-11691174D02*
X3908205Y-11710222D01*
D11*
X2206000Y-12108500D02*
X2276000Y-12178500D01*
X2276000Y-12108500D02*
X2206000Y-12178500D01*
D10*
X2574872Y-12034984D02*
X2593920Y-12034984D01*
X2593920Y-12034984D02*
X2612967Y-12044508D01*
X2612967Y-12044508D02*
X2622491Y-12054031D01*
X2622491Y-12054031D02*
X2632015Y-12073079D01*
X2632015Y-12073079D02*
X2641539Y-12111174D01*
X2641539Y-12111174D02*
X2641539Y-12158793D01*
X2641539Y-12158793D02*
X2632015Y-12196888D01*
X2632015Y-12196888D02*
X2622491Y-12215936D01*
X2622491Y-12215936D02*
X2612967Y-12225460D01*
X2612967Y-12225460D02*
X2593920Y-12234984D01*
X2593920Y-12234984D02*
X2574872Y-12234984D01*
X2574872Y-12234984D02*
X2555824Y-12225460D01*
X2555824Y-12225460D02*
X2546301Y-12215936D01*
X2546301Y-12215936D02*
X2536777Y-12196888D01*
X2536777Y-12196888D02*
X2527253Y-12158793D01*
X2527253Y-12158793D02*
X2527253Y-12111174D01*
X2527253Y-12111174D02*
X2536777Y-12073079D01*
X2536777Y-12073079D02*
X2546301Y-12054031D01*
X2546301Y-12054031D02*
X2555824Y-12044508D01*
X2555824Y-12044508D02*
X2574872Y-12034984D01*
X2727253Y-12215936D02*
X2736777Y-12225460D01*
X2736777Y-12225460D02*
X2727253Y-12234984D01*
X2727253Y-12234984D02*
X2717729Y-12225460D01*
X2717729Y-12225460D02*
X2727253Y-12215936D01*
X2727253Y-12215936D02*
X2727253Y-12234984D01*
X2803443Y-12034984D02*
X2936777Y-12034984D01*
X2936777Y-12034984D02*
X2851062Y-12234984D01*
X3051062Y-12034984D02*
X3070110Y-12034984D01*
X3070110Y-12034984D02*
X3089158Y-12044508D01*
X3089158Y-12044508D02*
X3098682Y-12054031D01*
X3098682Y-12054031D02*
X3108205Y-12073079D01*
X3108205Y-12073079D02*
X3117729Y-12111174D01*
X3117729Y-12111174D02*
X3117729Y-12158793D01*
X3117729Y-12158793D02*
X3108205Y-12196888D01*
X3108205Y-12196888D02*
X3098682Y-12215936D01*
X3098682Y-12215936D02*
X3089158Y-12225460D01*
X3089158Y-12225460D02*
X3070110Y-12234984D01*
X3070110Y-12234984D02*
X3051062Y-12234984D01*
X3051062Y-12234984D02*
X3032015Y-12225460D01*
X3032015Y-12225460D02*
X3022491Y-12215936D01*
X3022491Y-12215936D02*
X3012967Y-12196888D01*
X3012967Y-12196888D02*
X3003443Y-12158793D01*
X3003443Y-12158793D02*
X3003443Y-12111174D01*
X3003443Y-12111174D02*
X3012967Y-12073079D01*
X3012967Y-12073079D02*
X3022491Y-12054031D01*
X3022491Y-12054031D02*
X3032015Y-12044508D01*
X3032015Y-12044508D02*
X3051062Y-12034984D01*
X3241539Y-12034984D02*
X3260586Y-12034984D01*
X3260586Y-12034984D02*
X3279634Y-12044508D01*
X3279634Y-12044508D02*
X3289158Y-12054031D01*
X3289158Y-12054031D02*
X3298682Y-12073079D01*
X3298682Y-12073079D02*
X3308205Y-12111174D01*
X3308205Y-12111174D02*
X3308205Y-12158793D01*
X3308205Y-12158793D02*
X3298682Y-12196888D01*
X3298682Y-12196888D02*
X3289158Y-12215936D01*
X3289158Y-12215936D02*
X3279634Y-12225460D01*
X3279634Y-12225460D02*
X3260586Y-12234984D01*
X3260586Y-12234984D02*
X3241539Y-12234984D01*
X3241539Y-12234984D02*
X3222491Y-12225460D01*
X3222491Y-12225460D02*
X3212967Y-12215936D01*
X3212967Y-12215936D02*
X3203443Y-12196888D01*
X3203443Y-12196888D02*
X3193920Y-12158793D01*
X3193920Y-12158793D02*
X3193920Y-12111174D01*
X3193920Y-12111174D02*
X3203443Y-12073079D01*
X3203443Y-12073079D02*
X3212967Y-12054031D01*
X3212967Y-12054031D02*
X3222491Y-12044508D01*
X3222491Y-12044508D02*
X3241539Y-12034984D01*
X3393920Y-12234984D02*
X3393920Y-12101650D01*
X3393920Y-12120698D02*
X3403443Y-12111174D01*
X3403443Y-12111174D02*
X3422491Y-12101650D01*
X3422491Y-12101650D02*
X3451063Y-12101650D01*
X3451063Y-12101650D02*
X3470110Y-12111174D01*
X3470110Y-12111174D02*
X3479634Y-12130222D01*
X3479634Y-12130222D02*
X3479634Y-12234984D01*
X3479634Y-12130222D02*
X3489158Y-12111174D01*
X3489158Y-12111174D02*
X3508205Y-12101650D01*
X3508205Y-12101650D02*
X3536777Y-12101650D01*
X3536777Y-12101650D02*
X3555824Y-12111174D01*
X3555824Y-12111174D02*
X3565348Y-12130222D01*
X3565348Y-12130222D02*
X3565348Y-12234984D01*
X3660586Y-12234984D02*
X3660586Y-12101650D01*
X3660586Y-12120698D02*
X3670110Y-12111174D01*
X3670110Y-12111174D02*
X3689158Y-12101650D01*
X3689158Y-12101650D02*
X3717729Y-12101650D01*
X3717729Y-12101650D02*
X3736777Y-12111174D01*
X3736777Y-12111174D02*
X3746301Y-12130222D01*
X3746301Y-12130222D02*
X3746301Y-12234984D01*
X3746301Y-12130222D02*
X3755824Y-12111174D01*
X3755824Y-12111174D02*
X3774872Y-12101650D01*
X3774872Y-12101650D02*
X3803443Y-12101650D01*
X3803443Y-12101650D02*
X3822491Y-12111174D01*
X3822491Y-12111174D02*
X3832015Y-12130222D01*
X3832015Y-12130222D02*
X3832015Y-12234984D01*
X4222491Y-12025460D02*
X4051063Y-12282603D01*
X4479634Y-12034984D02*
X4498682Y-12034984D01*
X4498682Y-12034984D02*
X4517729Y-12044508D01*
X4517729Y-12044508D02*
X4527253Y-12054031D01*
X4527253Y-12054031D02*
X4536777Y-12073079D01*
X4536777Y-12073079D02*
X4546301Y-12111174D01*
X4546301Y-12111174D02*
X4546301Y-12158793D01*
X4546301Y-12158793D02*
X4536777Y-12196888D01*
X4536777Y-12196888D02*
X4527253Y-12215936D01*
X4527253Y-12215936D02*
X4517729Y-12225460D01*
X4517729Y-12225460D02*
X4498682Y-12234984D01*
X4498682Y-12234984D02*
X4479634Y-12234984D01*
X4479634Y-12234984D02*
X4460587Y-12225460D01*
X4460587Y-12225460D02*
X4451063Y-12215936D01*
X4451063Y-12215936D02*
X4441539Y-12196888D01*
X4441539Y-12196888D02*
X4432015Y-12158793D01*
X4432015Y-12158793D02*
X4432015Y-12111174D01*
X4432015Y-12111174D02*
X4441539Y-12073079D01*
X4441539Y-12073079D02*
X4451063Y-12054031D01*
X4451063Y-12054031D02*
X4460587Y-12044508D01*
X4460587Y-12044508D02*
X4479634Y-12034984D01*
X4632015Y-12215936D02*
X4641539Y-12225460D01*
X4641539Y-12225460D02*
X4632015Y-12234984D01*
X4632015Y-12234984D02*
X4622491Y-12225460D01*
X4622491Y-12225460D02*
X4632015Y-12215936D01*
X4632015Y-12215936D02*
X4632015Y-12234984D01*
X4765348Y-12034984D02*
X4784396Y-12034984D01*
X4784396Y-12034984D02*
X4803444Y-12044508D01*
X4803444Y-12044508D02*
X4812968Y-12054031D01*
X4812968Y-12054031D02*
X4822491Y-12073079D01*
X4822491Y-12073079D02*
X4832015Y-12111174D01*
X4832015Y-12111174D02*
X4832015Y-12158793D01*
X4832015Y-12158793D02*
X4822491Y-12196888D01*
X4822491Y-12196888D02*
X4812968Y-12215936D01*
X4812968Y-12215936D02*
X4803444Y-12225460D01*
X4803444Y-12225460D02*
X4784396Y-12234984D01*
X4784396Y-12234984D02*
X4765348Y-12234984D01*
X4765348Y-12234984D02*
X4746301Y-12225460D01*
X4746301Y-12225460D02*
X4736777Y-12215936D01*
X4736777Y-12215936D02*
X4727253Y-12196888D01*
X4727253Y-12196888D02*
X4717729Y-12158793D01*
X4717729Y-12158793D02*
X4717729Y-12111174D01*
X4717729Y-12111174D02*
X4727253Y-12073079D01*
X4727253Y-12073079D02*
X4736777Y-12054031D01*
X4736777Y-12054031D02*
X4746301Y-12044508D01*
X4746301Y-12044508D02*
X4765348Y-12034984D01*
X4908206Y-12054031D02*
X4917729Y-12044508D01*
X4917729Y-12044508D02*
X4936777Y-12034984D01*
X4936777Y-12034984D02*
X4984396Y-12034984D01*
X4984396Y-12034984D02*
X5003444Y-12044508D01*
X5003444Y-12044508D02*
X5012968Y-12054031D01*
X5012968Y-12054031D02*
X5022491Y-12073079D01*
X5022491Y-12073079D02*
X5022491Y-12092127D01*
X5022491Y-12092127D02*
X5012968Y-12120698D01*
X5012968Y-12120698D02*
X4898682Y-12234984D01*
X4898682Y-12234984D02*
X5022491Y-12234984D01*
X5089158Y-12034984D02*
X5222491Y-12034984D01*
X5222491Y-12034984D02*
X5136777Y-12234984D01*
X5384396Y-12034984D02*
X5346301Y-12034984D01*
X5346301Y-12034984D02*
X5327253Y-12044508D01*
X5327253Y-12044508D02*
X5317729Y-12054031D01*
X5317729Y-12054031D02*
X5298682Y-12082603D01*
X5298682Y-12082603D02*
X5289158Y-12120698D01*
X5289158Y-12120698D02*
X5289158Y-12196888D01*
X5289158Y-12196888D02*
X5298682Y-12215936D01*
X5298682Y-12215936D02*
X5308206Y-12225460D01*
X5308206Y-12225460D02*
X5327253Y-12234984D01*
X5327253Y-12234984D02*
X5365349Y-12234984D01*
X5365349Y-12234984D02*
X5384396Y-12225460D01*
X5384396Y-12225460D02*
X5393920Y-12215936D01*
X5393920Y-12215936D02*
X5403444Y-12196888D01*
X5403444Y-12196888D02*
X5403444Y-12149269D01*
X5403444Y-12149269D02*
X5393920Y-12130222D01*
X5393920Y-12130222D02*
X5384396Y-12120698D01*
X5384396Y-12120698D02*
X5365349Y-12111174D01*
X5365349Y-12111174D02*
X5327253Y-12111174D01*
X5327253Y-12111174D02*
X5308206Y-12120698D01*
X5308206Y-12120698D02*
X5298682Y-12130222D01*
X5298682Y-12130222D02*
X5289158Y-12149269D01*
X5479634Y-12034984D02*
X5479634Y-12073079D01*
X5555825Y-12034984D02*
X5555825Y-12073079D01*
X5851063Y-12311174D02*
X5841539Y-12301650D01*
X5841539Y-12301650D02*
X5822491Y-12273079D01*
X5822491Y-12273079D02*
X5812968Y-12254031D01*
X5812968Y-12254031D02*
X5803444Y-12225460D01*
X5803444Y-12225460D02*
X5793920Y-12177841D01*
X5793920Y-12177841D02*
X5793920Y-12139746D01*
X5793920Y-12139746D02*
X5803444Y-12092127D01*
X5803444Y-12092127D02*
X5812968Y-12063555D01*
X5812968Y-12063555D02*
X5822491Y-12044508D01*
X5822491Y-12044508D02*
X5841539Y-12015936D01*
X5841539Y-12015936D02*
X5851063Y-12006412D01*
X6032015Y-12234984D02*
X5917729Y-12234984D01*
X5974872Y-12234984D02*
X5974872Y-12034984D01*
X5974872Y-12034984D02*
X5955825Y-12063555D01*
X5955825Y-12063555D02*
X5936777Y-12082603D01*
X5936777Y-12082603D02*
X5917729Y-12092127D01*
X6108206Y-12054031D02*
X6117729Y-12044508D01*
X6117729Y-12044508D02*
X6136777Y-12034984D01*
X6136777Y-12034984D02*
X6184396Y-12034984D01*
X6184396Y-12034984D02*
X6203444Y-12044508D01*
X6203444Y-12044508D02*
X6212968Y-12054031D01*
X6212968Y-12054031D02*
X6222491Y-12073079D01*
X6222491Y-12073079D02*
X6222491Y-12092127D01*
X6222491Y-12092127D02*
X6212968Y-12120698D01*
X6212968Y-12120698D02*
X6098682Y-12234984D01*
X6098682Y-12234984D02*
X6222491Y-12234984D01*
X6393920Y-12034984D02*
X6355825Y-12034984D01*
X6355825Y-12034984D02*
X6336777Y-12044508D01*
X6336777Y-12044508D02*
X6327253Y-12054031D01*
X6327253Y-12054031D02*
X6308206Y-12082603D01*
X6308206Y-12082603D02*
X6298682Y-12120698D01*
X6298682Y-12120698D02*
X6298682Y-12196888D01*
X6298682Y-12196888D02*
X6308206Y-12215936D01*
X6308206Y-12215936D02*
X6317729Y-12225460D01*
X6317729Y-12225460D02*
X6336777Y-12234984D01*
X6336777Y-12234984D02*
X6374872Y-12234984D01*
X6374872Y-12234984D02*
X6393920Y-12225460D01*
X6393920Y-12225460D02*
X6403444Y-12215936D01*
X6403444Y-12215936D02*
X6412968Y-12196888D01*
X6412968Y-12196888D02*
X6412968Y-12149269D01*
X6412968Y-12149269D02*
X6403444Y-12130222D01*
X6403444Y-12130222D02*
X6393920Y-12120698D01*
X6393920Y-12120698D02*
X6374872Y-12111174D01*
X6374872Y-12111174D02*
X6336777Y-12111174D01*
X6336777Y-12111174D02*
X6317729Y-12120698D01*
X6317729Y-12120698D02*
X6308206Y-12130222D01*
X6308206Y-12130222D02*
X6298682Y-12149269D01*
X6651063Y-12234984D02*
X6651063Y-12034984D01*
X6736777Y-12234984D02*
X6736777Y-12130222D01*
X6736777Y-12130222D02*
X6727253Y-12111174D01*
X6727253Y-12111174D02*
X6708206Y-12101650D01*
X6708206Y-12101650D02*
X6679634Y-12101650D01*
X6679634Y-12101650D02*
X6660587Y-12111174D01*
X6660587Y-12111174D02*
X6651063Y-12120698D01*
X6860587Y-12234984D02*
X6841539Y-12225460D01*
X6841539Y-12225460D02*
X6832015Y-12215936D01*
X6832015Y-12215936D02*
X6822491Y-12196888D01*
X6822491Y-12196888D02*
X6822491Y-12139746D01*
X6822491Y-12139746D02*
X6832015Y-12120698D01*
X6832015Y-12120698D02*
X6841539Y-12111174D01*
X6841539Y-12111174D02*
X6860587Y-12101650D01*
X6860587Y-12101650D02*
X6889158Y-12101650D01*
X6889158Y-12101650D02*
X6908206Y-12111174D01*
X6908206Y-12111174D02*
X6917730Y-12120698D01*
X6917730Y-12120698D02*
X6927253Y-12139746D01*
X6927253Y-12139746D02*
X6927253Y-12196888D01*
X6927253Y-12196888D02*
X6917730Y-12215936D01*
X6917730Y-12215936D02*
X6908206Y-12225460D01*
X6908206Y-12225460D02*
X6889158Y-12234984D01*
X6889158Y-12234984D02*
X6860587Y-12234984D01*
X7041539Y-12234984D02*
X7022491Y-12225460D01*
X7022491Y-12225460D02*
X7012968Y-12206412D01*
X7012968Y-12206412D02*
X7012968Y-12034984D01*
X7193920Y-12225460D02*
X7174872Y-12234984D01*
X7174872Y-12234984D02*
X7136777Y-12234984D01*
X7136777Y-12234984D02*
X7117730Y-12225460D01*
X7117730Y-12225460D02*
X7108206Y-12206412D01*
X7108206Y-12206412D02*
X7108206Y-12130222D01*
X7108206Y-12130222D02*
X7117730Y-12111174D01*
X7117730Y-12111174D02*
X7136777Y-12101650D01*
X7136777Y-12101650D02*
X7174872Y-12101650D01*
X7174872Y-12101650D02*
X7193920Y-12111174D01*
X7193920Y-12111174D02*
X7203444Y-12130222D01*
X7203444Y-12130222D02*
X7203444Y-12149269D01*
X7203444Y-12149269D02*
X7108206Y-12168317D01*
X7279634Y-12225460D02*
X7298682Y-12234984D01*
X7298682Y-12234984D02*
X7336777Y-12234984D01*
X7336777Y-12234984D02*
X7355825Y-12225460D01*
X7355825Y-12225460D02*
X7365349Y-12206412D01*
X7365349Y-12206412D02*
X7365349Y-12196888D01*
X7365349Y-12196888D02*
X7355825Y-12177841D01*
X7355825Y-12177841D02*
X7336777Y-12168317D01*
X7336777Y-12168317D02*
X7308206Y-12168317D01*
X7308206Y-12168317D02*
X7289158Y-12158793D01*
X7289158Y-12158793D02*
X7279634Y-12139746D01*
X7279634Y-12139746D02*
X7279634Y-12130222D01*
X7279634Y-12130222D02*
X7289158Y-12111174D01*
X7289158Y-12111174D02*
X7308206Y-12101650D01*
X7308206Y-12101650D02*
X7336777Y-12101650D01*
X7336777Y-12101650D02*
X7355825Y-12111174D01*
X7432015Y-12311174D02*
X7441539Y-12301650D01*
X7441539Y-12301650D02*
X7460587Y-12273079D01*
X7460587Y-12273079D02*
X7470111Y-12254031D01*
X7470111Y-12254031D02*
X7479634Y-12225460D01*
X7479634Y-12225460D02*
X7489158Y-12177841D01*
X7489158Y-12177841D02*
X7489158Y-12139746D01*
X7489158Y-12139746D02*
X7479634Y-12092127D01*
X7479634Y-12092127D02*
X7470111Y-12063555D01*
X7470111Y-12063555D02*
X7460587Y-12044508D01*
X7460587Y-12044508D02*
X7441539Y-12015936D01*
X7441539Y-12015936D02*
X7432015Y-12006412D01*
D11*
X2276000Y-12407500D02*
G75*
G02*
X2196000Y-12407500I-40000J0D01*
G01*
X2196000Y-12407500D02*
G75*
G02*
X2276000Y-12407500I40000J0D01*
G01*
D10*
X2574872Y-12298984D02*
X2593920Y-12298984D01*
X2593920Y-12298984D02*
X2612967Y-12308508D01*
X2612967Y-12308508D02*
X2622491Y-12318031D01*
X2622491Y-12318031D02*
X2632015Y-12337079D01*
X2632015Y-12337079D02*
X2641539Y-12375174D01*
X2641539Y-12375174D02*
X2641539Y-12422793D01*
X2641539Y-12422793D02*
X2632015Y-12460888D01*
X2632015Y-12460888D02*
X2622491Y-12479936D01*
X2622491Y-12479936D02*
X2612967Y-12489460D01*
X2612967Y-12489460D02*
X2593920Y-12498984D01*
X2593920Y-12498984D02*
X2574872Y-12498984D01*
X2574872Y-12498984D02*
X2555824Y-12489460D01*
X2555824Y-12489460D02*
X2546301Y-12479936D01*
X2546301Y-12479936D02*
X2536777Y-12460888D01*
X2536777Y-12460888D02*
X2527253Y-12422793D01*
X2527253Y-12422793D02*
X2527253Y-12375174D01*
X2527253Y-12375174D02*
X2536777Y-12337079D01*
X2536777Y-12337079D02*
X2546301Y-12318031D01*
X2546301Y-12318031D02*
X2555824Y-12308508D01*
X2555824Y-12308508D02*
X2574872Y-12298984D01*
X2727253Y-12479936D02*
X2736777Y-12489460D01*
X2736777Y-12489460D02*
X2727253Y-12498984D01*
X2727253Y-12498984D02*
X2717729Y-12489460D01*
X2717729Y-12489460D02*
X2727253Y-12479936D01*
X2727253Y-12479936D02*
X2727253Y-12498984D01*
X2851062Y-12384698D02*
X2832015Y-12375174D01*
X2832015Y-12375174D02*
X2822491Y-12365650D01*
X2822491Y-12365650D02*
X2812967Y-12346603D01*
X2812967Y-12346603D02*
X2812967Y-12337079D01*
X2812967Y-12337079D02*
X2822491Y-12318031D01*
X2822491Y-12318031D02*
X2832015Y-12308508D01*
X2832015Y-12308508D02*
X2851062Y-12298984D01*
X2851062Y-12298984D02*
X2889158Y-12298984D01*
X2889158Y-12298984D02*
X2908205Y-12308508D01*
X2908205Y-12308508D02*
X2917729Y-12318031D01*
X2917729Y-12318031D02*
X2927253Y-12337079D01*
X2927253Y-12337079D02*
X2927253Y-12346603D01*
X2927253Y-12346603D02*
X2917729Y-12365650D01*
X2917729Y-12365650D02*
X2908205Y-12375174D01*
X2908205Y-12375174D02*
X2889158Y-12384698D01*
X2889158Y-12384698D02*
X2851062Y-12384698D01*
X2851062Y-12384698D02*
X2832015Y-12394222D01*
X2832015Y-12394222D02*
X2822491Y-12403746D01*
X2822491Y-12403746D02*
X2812967Y-12422793D01*
X2812967Y-12422793D02*
X2812967Y-12460888D01*
X2812967Y-12460888D02*
X2822491Y-12479936D01*
X2822491Y-12479936D02*
X2832015Y-12489460D01*
X2832015Y-12489460D02*
X2851062Y-12498984D01*
X2851062Y-12498984D02*
X2889158Y-12498984D01*
X2889158Y-12498984D02*
X2908205Y-12489460D01*
X2908205Y-12489460D02*
X2917729Y-12479936D01*
X2917729Y-12479936D02*
X2927253Y-12460888D01*
X2927253Y-12460888D02*
X2927253Y-12422793D01*
X2927253Y-12422793D02*
X2917729Y-12403746D01*
X2917729Y-12403746D02*
X2908205Y-12394222D01*
X2908205Y-12394222D02*
X2889158Y-12384698D01*
X3051062Y-12298984D02*
X3070110Y-12298984D01*
X3070110Y-12298984D02*
X3089158Y-12308508D01*
X3089158Y-12308508D02*
X3098682Y-12318031D01*
X3098682Y-12318031D02*
X3108205Y-12337079D01*
X3108205Y-12337079D02*
X3117729Y-12375174D01*
X3117729Y-12375174D02*
X3117729Y-12422793D01*
X3117729Y-12422793D02*
X3108205Y-12460888D01*
X3108205Y-12460888D02*
X3098682Y-12479936D01*
X3098682Y-12479936D02*
X3089158Y-12489460D01*
X3089158Y-12489460D02*
X3070110Y-12498984D01*
X3070110Y-12498984D02*
X3051062Y-12498984D01*
X3051062Y-12498984D02*
X3032015Y-12489460D01*
X3032015Y-12489460D02*
X3022491Y-12479936D01*
X3022491Y-12479936D02*
X3012967Y-12460888D01*
X3012967Y-12460888D02*
X3003443Y-12422793D01*
X3003443Y-12422793D02*
X3003443Y-12375174D01*
X3003443Y-12375174D02*
X3012967Y-12337079D01*
X3012967Y-12337079D02*
X3022491Y-12318031D01*
X3022491Y-12318031D02*
X3032015Y-12308508D01*
X3032015Y-12308508D02*
X3051062Y-12298984D01*
X3241539Y-12298984D02*
X3260586Y-12298984D01*
X3260586Y-12298984D02*
X3279634Y-12308508D01*
X3279634Y-12308508D02*
X3289158Y-12318031D01*
X3289158Y-12318031D02*
X3298682Y-12337079D01*
X3298682Y-12337079D02*
X3308205Y-12375174D01*
X3308205Y-12375174D02*
X3308205Y-12422793D01*
X3308205Y-12422793D02*
X3298682Y-12460888D01*
X3298682Y-12460888D02*
X3289158Y-12479936D01*
X3289158Y-12479936D02*
X3279634Y-12489460D01*
X3279634Y-12489460D02*
X3260586Y-12498984D01*
X3260586Y-12498984D02*
X3241539Y-12498984D01*
X3241539Y-12498984D02*
X3222491Y-12489460D01*
X3222491Y-12489460D02*
X3212967Y-12479936D01*
X3212967Y-12479936D02*
X3203443Y-12460888D01*
X3203443Y-12460888D02*
X3193920Y-12422793D01*
X3193920Y-12422793D02*
X3193920Y-12375174D01*
X3193920Y-12375174D02*
X3203443Y-12337079D01*
X3203443Y-12337079D02*
X3212967Y-12318031D01*
X3212967Y-12318031D02*
X3222491Y-12308508D01*
X3222491Y-12308508D02*
X3241539Y-12298984D01*
X3393920Y-12498984D02*
X3393920Y-12365650D01*
X3393920Y-12384698D02*
X3403443Y-12375174D01*
X3403443Y-12375174D02*
X3422491Y-12365650D01*
X3422491Y-12365650D02*
X3451063Y-12365650D01*
X3451063Y-12365650D02*
X3470110Y-12375174D01*
X3470110Y-12375174D02*
X3479634Y-12394222D01*
X3479634Y-12394222D02*
X3479634Y-12498984D01*
X3479634Y-12394222D02*
X3489158Y-12375174D01*
X3489158Y-12375174D02*
X3508205Y-12365650D01*
X3508205Y-12365650D02*
X3536777Y-12365650D01*
X3536777Y-12365650D02*
X3555824Y-12375174D01*
X3555824Y-12375174D02*
X3565348Y-12394222D01*
X3565348Y-12394222D02*
X3565348Y-12498984D01*
X3660586Y-12498984D02*
X3660586Y-12365650D01*
X3660586Y-12384698D02*
X3670110Y-12375174D01*
X3670110Y-12375174D02*
X3689158Y-12365650D01*
X3689158Y-12365650D02*
X3717729Y-12365650D01*
X3717729Y-12365650D02*
X3736777Y-12375174D01*
X3736777Y-12375174D02*
X3746301Y-12394222D01*
X3746301Y-12394222D02*
X3746301Y-12498984D01*
X3746301Y-12394222D02*
X3755824Y-12375174D01*
X3755824Y-12375174D02*
X3774872Y-12365650D01*
X3774872Y-12365650D02*
X3803443Y-12365650D01*
X3803443Y-12365650D02*
X3822491Y-12375174D01*
X3822491Y-12375174D02*
X3832015Y-12394222D01*
X3832015Y-12394222D02*
X3832015Y-12498984D01*
X4222491Y-12289460D02*
X4051063Y-12546603D01*
X4479634Y-12298984D02*
X4498682Y-12298984D01*
X4498682Y-12298984D02*
X4517729Y-12308508D01*
X4517729Y-12308508D02*
X4527253Y-12318031D01*
X4527253Y-12318031D02*
X4536777Y-12337079D01*
X4536777Y-12337079D02*
X4546301Y-12375174D01*
X4546301Y-12375174D02*
X4546301Y-12422793D01*
X4546301Y-12422793D02*
X4536777Y-12460888D01*
X4536777Y-12460888D02*
X4527253Y-12479936D01*
X4527253Y-12479936D02*
X4517729Y-12489460D01*
X4517729Y-12489460D02*
X4498682Y-12498984D01*
X4498682Y-12498984D02*
X4479634Y-12498984D01*
X4479634Y-12498984D02*
X4460587Y-12489460D01*
X4460587Y-12489460D02*
X4451063Y-12479936D01*
X4451063Y-12479936D02*
X4441539Y-12460888D01*
X4441539Y-12460888D02*
X4432015Y-12422793D01*
X4432015Y-12422793D02*
X4432015Y-12375174D01*
X4432015Y-12375174D02*
X4441539Y-12337079D01*
X4441539Y-12337079D02*
X4451063Y-12318031D01*
X4451063Y-12318031D02*
X4460587Y-12308508D01*
X4460587Y-12308508D02*
X4479634Y-12298984D01*
X4632015Y-12479936D02*
X4641539Y-12489460D01*
X4641539Y-12489460D02*
X4632015Y-12498984D01*
X4632015Y-12498984D02*
X4622491Y-12489460D01*
X4622491Y-12489460D02*
X4632015Y-12479936D01*
X4632015Y-12479936D02*
X4632015Y-12498984D01*
X4765348Y-12298984D02*
X4784396Y-12298984D01*
X4784396Y-12298984D02*
X4803444Y-12308508D01*
X4803444Y-12308508D02*
X4812968Y-12318031D01*
X4812968Y-12318031D02*
X4822491Y-12337079D01*
X4822491Y-12337079D02*
X4832015Y-12375174D01*
X4832015Y-12375174D02*
X4832015Y-12422793D01*
X4832015Y-12422793D02*
X4822491Y-12460888D01*
X4822491Y-12460888D02*
X4812968Y-12479936D01*
X4812968Y-12479936D02*
X4803444Y-12489460D01*
X4803444Y-12489460D02*
X4784396Y-12498984D01*
X4784396Y-12498984D02*
X4765348Y-12498984D01*
X4765348Y-12498984D02*
X4746301Y-12489460D01*
X4746301Y-12489460D02*
X4736777Y-12479936D01*
X4736777Y-12479936D02*
X4727253Y-12460888D01*
X4727253Y-12460888D02*
X4717729Y-12422793D01*
X4717729Y-12422793D02*
X4717729Y-12375174D01*
X4717729Y-12375174D02*
X4727253Y-12337079D01*
X4727253Y-12337079D02*
X4736777Y-12318031D01*
X4736777Y-12318031D02*
X4746301Y-12308508D01*
X4746301Y-12308508D02*
X4765348Y-12298984D01*
X4898682Y-12298984D02*
X5022491Y-12298984D01*
X5022491Y-12298984D02*
X4955825Y-12375174D01*
X4955825Y-12375174D02*
X4984396Y-12375174D01*
X4984396Y-12375174D02*
X5003444Y-12384698D01*
X5003444Y-12384698D02*
X5012968Y-12394222D01*
X5012968Y-12394222D02*
X5022491Y-12413269D01*
X5022491Y-12413269D02*
X5022491Y-12460888D01*
X5022491Y-12460888D02*
X5012968Y-12479936D01*
X5012968Y-12479936D02*
X5003444Y-12489460D01*
X5003444Y-12489460D02*
X4984396Y-12498984D01*
X4984396Y-12498984D02*
X4927253Y-12498984D01*
X4927253Y-12498984D02*
X4908206Y-12489460D01*
X4908206Y-12489460D02*
X4898682Y-12479936D01*
X5212968Y-12498984D02*
X5098682Y-12498984D01*
X5155825Y-12498984D02*
X5155825Y-12298984D01*
X5155825Y-12298984D02*
X5136777Y-12327555D01*
X5136777Y-12327555D02*
X5117729Y-12346603D01*
X5117729Y-12346603D02*
X5098682Y-12356127D01*
X5393920Y-12298984D02*
X5298682Y-12298984D01*
X5298682Y-12298984D02*
X5289158Y-12394222D01*
X5289158Y-12394222D02*
X5298682Y-12384698D01*
X5298682Y-12384698D02*
X5317729Y-12375174D01*
X5317729Y-12375174D02*
X5365349Y-12375174D01*
X5365349Y-12375174D02*
X5384396Y-12384698D01*
X5384396Y-12384698D02*
X5393920Y-12394222D01*
X5393920Y-12394222D02*
X5403444Y-12413269D01*
X5403444Y-12413269D02*
X5403444Y-12460888D01*
X5403444Y-12460888D02*
X5393920Y-12479936D01*
X5393920Y-12479936D02*
X5384396Y-12489460D01*
X5384396Y-12489460D02*
X5365349Y-12498984D01*
X5365349Y-12498984D02*
X5317729Y-12498984D01*
X5317729Y-12498984D02*
X5298682Y-12489460D01*
X5298682Y-12489460D02*
X5289158Y-12479936D01*
X5479634Y-12298984D02*
X5479634Y-12337079D01*
X5555825Y-12298984D02*
X5555825Y-12337079D01*
X5851063Y-12575174D02*
X5841539Y-12565650D01*
X5841539Y-12565650D02*
X5822491Y-12537079D01*
X5822491Y-12537079D02*
X5812968Y-12518031D01*
X5812968Y-12518031D02*
X5803444Y-12489460D01*
X5803444Y-12489460D02*
X5793920Y-12441841D01*
X5793920Y-12441841D02*
X5793920Y-12403746D01*
X5793920Y-12403746D02*
X5803444Y-12356127D01*
X5803444Y-12356127D02*
X5812968Y-12327555D01*
X5812968Y-12327555D02*
X5822491Y-12308508D01*
X5822491Y-12308508D02*
X5841539Y-12279936D01*
X5841539Y-12279936D02*
X5851063Y-12270412D01*
X5908206Y-12298984D02*
X6032015Y-12298984D01*
X6032015Y-12298984D02*
X5965348Y-12375174D01*
X5965348Y-12375174D02*
X5993920Y-12375174D01*
X5993920Y-12375174D02*
X6012968Y-12384698D01*
X6012968Y-12384698D02*
X6022491Y-12394222D01*
X6022491Y-12394222D02*
X6032015Y-12413269D01*
X6032015Y-12413269D02*
X6032015Y-12460888D01*
X6032015Y-12460888D02*
X6022491Y-12479936D01*
X6022491Y-12479936D02*
X6012968Y-12489460D01*
X6012968Y-12489460D02*
X5993920Y-12498984D01*
X5993920Y-12498984D02*
X5936777Y-12498984D01*
X5936777Y-12498984D02*
X5917729Y-12489460D01*
X5917729Y-12489460D02*
X5908206Y-12479936D01*
X6108206Y-12318031D02*
X6117729Y-12308508D01*
X6117729Y-12308508D02*
X6136777Y-12298984D01*
X6136777Y-12298984D02*
X6184396Y-12298984D01*
X6184396Y-12298984D02*
X6203444Y-12308508D01*
X6203444Y-12308508D02*
X6212968Y-12318031D01*
X6212968Y-12318031D02*
X6222491Y-12337079D01*
X6222491Y-12337079D02*
X6222491Y-12356127D01*
X6222491Y-12356127D02*
X6212968Y-12384698D01*
X6212968Y-12384698D02*
X6098682Y-12498984D01*
X6098682Y-12498984D02*
X6222491Y-12498984D01*
X6460587Y-12498984D02*
X6460587Y-12298984D01*
X6546301Y-12498984D02*
X6546301Y-12394222D01*
X6546301Y-12394222D02*
X6536777Y-12375174D01*
X6536777Y-12375174D02*
X6517730Y-12365650D01*
X6517730Y-12365650D02*
X6489158Y-12365650D01*
X6489158Y-12365650D02*
X6470110Y-12375174D01*
X6470110Y-12375174D02*
X6460587Y-12384698D01*
X6670110Y-12498984D02*
X6651063Y-12489460D01*
X6651063Y-12489460D02*
X6641539Y-12479936D01*
X6641539Y-12479936D02*
X6632015Y-12460888D01*
X6632015Y-12460888D02*
X6632015Y-12403746D01*
X6632015Y-12403746D02*
X6641539Y-12384698D01*
X6641539Y-12384698D02*
X6651063Y-12375174D01*
X6651063Y-12375174D02*
X6670110Y-12365650D01*
X6670110Y-12365650D02*
X6698682Y-12365650D01*
X6698682Y-12365650D02*
X6717730Y-12375174D01*
X6717730Y-12375174D02*
X6727253Y-12384698D01*
X6727253Y-12384698D02*
X6736777Y-12403746D01*
X6736777Y-12403746D02*
X6736777Y-12460888D01*
X6736777Y-12460888D02*
X6727253Y-12479936D01*
X6727253Y-12479936D02*
X6717730Y-12489460D01*
X6717730Y-12489460D02*
X6698682Y-12498984D01*
X6698682Y-12498984D02*
X6670110Y-12498984D01*
X6851063Y-12498984D02*
X6832015Y-12489460D01*
X6832015Y-12489460D02*
X6822491Y-12470412D01*
X6822491Y-12470412D02*
X6822491Y-12298984D01*
X7003444Y-12489460D02*
X6984396Y-12498984D01*
X6984396Y-12498984D02*
X6946301Y-12498984D01*
X6946301Y-12498984D02*
X6927253Y-12489460D01*
X6927253Y-12489460D02*
X6917730Y-12470412D01*
X6917730Y-12470412D02*
X6917730Y-12394222D01*
X6917730Y-12394222D02*
X6927253Y-12375174D01*
X6927253Y-12375174D02*
X6946301Y-12365650D01*
X6946301Y-12365650D02*
X6984396Y-12365650D01*
X6984396Y-12365650D02*
X7003444Y-12375174D01*
X7003444Y-12375174D02*
X7012968Y-12394222D01*
X7012968Y-12394222D02*
X7012968Y-12413269D01*
X7012968Y-12413269D02*
X6917730Y-12432317D01*
X7089158Y-12489460D02*
X7108206Y-12498984D01*
X7108206Y-12498984D02*
X7146301Y-12498984D01*
X7146301Y-12498984D02*
X7165349Y-12489460D01*
X7165349Y-12489460D02*
X7174872Y-12470412D01*
X7174872Y-12470412D02*
X7174872Y-12460888D01*
X7174872Y-12460888D02*
X7165349Y-12441841D01*
X7165349Y-12441841D02*
X7146301Y-12432317D01*
X7146301Y-12432317D02*
X7117730Y-12432317D01*
X7117730Y-12432317D02*
X7098682Y-12422793D01*
X7098682Y-12422793D02*
X7089158Y-12403746D01*
X7089158Y-12403746D02*
X7089158Y-12394222D01*
X7089158Y-12394222D02*
X7098682Y-12375174D01*
X7098682Y-12375174D02*
X7117730Y-12365650D01*
X7117730Y-12365650D02*
X7146301Y-12365650D01*
X7146301Y-12365650D02*
X7165349Y-12375174D01*
X7241539Y-12575174D02*
X7251063Y-12565650D01*
X7251063Y-12565650D02*
X7270111Y-12537079D01*
X7270111Y-12537079D02*
X7279634Y-12518031D01*
X7279634Y-12518031D02*
X7289158Y-12489460D01*
X7289158Y-12489460D02*
X7298682Y-12441841D01*
X7298682Y-12441841D02*
X7298682Y-12403746D01*
X7298682Y-12403746D02*
X7289158Y-12356127D01*
X7289158Y-12356127D02*
X7279634Y-12327555D01*
X7279634Y-12327555D02*
X7270111Y-12308508D01*
X7270111Y-12308508D02*
X7251063Y-12279936D01*
X7251063Y-12279936D02*
X7241539Y-12270412D01*
D11*
X2236000Y-12631500D02*
X2236000Y-12711500D01*
X2196000Y-12671500D02*
X2276000Y-12671500D01*
D10*
X2574872Y-12562984D02*
X2593920Y-12562984D01*
X2593920Y-12562984D02*
X2612967Y-12572508D01*
X2612967Y-12572508D02*
X2622491Y-12582031D01*
X2622491Y-12582031D02*
X2632015Y-12601079D01*
X2632015Y-12601079D02*
X2641539Y-12639174D01*
X2641539Y-12639174D02*
X2641539Y-12686793D01*
X2641539Y-12686793D02*
X2632015Y-12724888D01*
X2632015Y-12724888D02*
X2622491Y-12743936D01*
X2622491Y-12743936D02*
X2612967Y-12753460D01*
X2612967Y-12753460D02*
X2593920Y-12762984D01*
X2593920Y-12762984D02*
X2574872Y-12762984D01*
X2574872Y-12762984D02*
X2555824Y-12753460D01*
X2555824Y-12753460D02*
X2546301Y-12743936D01*
X2546301Y-12743936D02*
X2536777Y-12724888D01*
X2536777Y-12724888D02*
X2527253Y-12686793D01*
X2527253Y-12686793D02*
X2527253Y-12639174D01*
X2527253Y-12639174D02*
X2536777Y-12601079D01*
X2536777Y-12601079D02*
X2546301Y-12582031D01*
X2546301Y-12582031D02*
X2555824Y-12572508D01*
X2555824Y-12572508D02*
X2574872Y-12562984D01*
X2727253Y-12743936D02*
X2736777Y-12753460D01*
X2736777Y-12753460D02*
X2727253Y-12762984D01*
X2727253Y-12762984D02*
X2717729Y-12753460D01*
X2717729Y-12753460D02*
X2727253Y-12743936D01*
X2727253Y-12743936D02*
X2727253Y-12762984D01*
X2851062Y-12648698D02*
X2832015Y-12639174D01*
X2832015Y-12639174D02*
X2822491Y-12629650D01*
X2822491Y-12629650D02*
X2812967Y-12610603D01*
X2812967Y-12610603D02*
X2812967Y-12601079D01*
X2812967Y-12601079D02*
X2822491Y-12582031D01*
X2822491Y-12582031D02*
X2832015Y-12572508D01*
X2832015Y-12572508D02*
X2851062Y-12562984D01*
X2851062Y-12562984D02*
X2889158Y-12562984D01*
X2889158Y-12562984D02*
X2908205Y-12572508D01*
X2908205Y-12572508D02*
X2917729Y-12582031D01*
X2917729Y-12582031D02*
X2927253Y-12601079D01*
X2927253Y-12601079D02*
X2927253Y-12610603D01*
X2927253Y-12610603D02*
X2917729Y-12629650D01*
X2917729Y-12629650D02*
X2908205Y-12639174D01*
X2908205Y-12639174D02*
X2889158Y-12648698D01*
X2889158Y-12648698D02*
X2851062Y-12648698D01*
X2851062Y-12648698D02*
X2832015Y-12658222D01*
X2832015Y-12658222D02*
X2822491Y-12667746D01*
X2822491Y-12667746D02*
X2812967Y-12686793D01*
X2812967Y-12686793D02*
X2812967Y-12724888D01*
X2812967Y-12724888D02*
X2822491Y-12743936D01*
X2822491Y-12743936D02*
X2832015Y-12753460D01*
X2832015Y-12753460D02*
X2851062Y-12762984D01*
X2851062Y-12762984D02*
X2889158Y-12762984D01*
X2889158Y-12762984D02*
X2908205Y-12753460D01*
X2908205Y-12753460D02*
X2917729Y-12743936D01*
X2917729Y-12743936D02*
X2927253Y-12724888D01*
X2927253Y-12724888D02*
X2927253Y-12686793D01*
X2927253Y-12686793D02*
X2917729Y-12667746D01*
X2917729Y-12667746D02*
X2908205Y-12658222D01*
X2908205Y-12658222D02*
X2889158Y-12648698D01*
X3051062Y-12562984D02*
X3070110Y-12562984D01*
X3070110Y-12562984D02*
X3089158Y-12572508D01*
X3089158Y-12572508D02*
X3098682Y-12582031D01*
X3098682Y-12582031D02*
X3108205Y-12601079D01*
X3108205Y-12601079D02*
X3117729Y-12639174D01*
X3117729Y-12639174D02*
X3117729Y-12686793D01*
X3117729Y-12686793D02*
X3108205Y-12724888D01*
X3108205Y-12724888D02*
X3098682Y-12743936D01*
X3098682Y-12743936D02*
X3089158Y-12753460D01*
X3089158Y-12753460D02*
X3070110Y-12762984D01*
X3070110Y-12762984D02*
X3051062Y-12762984D01*
X3051062Y-12762984D02*
X3032015Y-12753460D01*
X3032015Y-12753460D02*
X3022491Y-12743936D01*
X3022491Y-12743936D02*
X3012967Y-12724888D01*
X3012967Y-12724888D02*
X3003443Y-12686793D01*
X3003443Y-12686793D02*
X3003443Y-12639174D01*
X3003443Y-12639174D02*
X3012967Y-12601079D01*
X3012967Y-12601079D02*
X3022491Y-12582031D01*
X3022491Y-12582031D02*
X3032015Y-12572508D01*
X3032015Y-12572508D02*
X3051062Y-12562984D01*
X3241539Y-12562984D02*
X3260586Y-12562984D01*
X3260586Y-12562984D02*
X3279634Y-12572508D01*
X3279634Y-12572508D02*
X3289158Y-12582031D01*
X3289158Y-12582031D02*
X3298682Y-12601079D01*
X3298682Y-12601079D02*
X3308205Y-12639174D01*
X3308205Y-12639174D02*
X3308205Y-12686793D01*
X3308205Y-12686793D02*
X3298682Y-12724888D01*
X3298682Y-12724888D02*
X3289158Y-12743936D01*
X3289158Y-12743936D02*
X3279634Y-12753460D01*
X3279634Y-12753460D02*
X3260586Y-12762984D01*
X3260586Y-12762984D02*
X3241539Y-12762984D01*
X3241539Y-12762984D02*
X3222491Y-12753460D01*
X3222491Y-12753460D02*
X3212967Y-12743936D01*
X3212967Y-12743936D02*
X3203443Y-12724888D01*
X3203443Y-12724888D02*
X3193920Y-12686793D01*
X3193920Y-12686793D02*
X3193920Y-12639174D01*
X3193920Y-12639174D02*
X3203443Y-12601079D01*
X3203443Y-12601079D02*
X3212967Y-12582031D01*
X3212967Y-12582031D02*
X3222491Y-12572508D01*
X3222491Y-12572508D02*
X3241539Y-12562984D01*
X3393920Y-12762984D02*
X3393920Y-12629650D01*
X3393920Y-12648698D02*
X3403443Y-12639174D01*
X3403443Y-12639174D02*
X3422491Y-12629650D01*
X3422491Y-12629650D02*
X3451063Y-12629650D01*
X3451063Y-12629650D02*
X3470110Y-12639174D01*
X3470110Y-12639174D02*
X3479634Y-12658222D01*
X3479634Y-12658222D02*
X3479634Y-12762984D01*
X3479634Y-12658222D02*
X3489158Y-12639174D01*
X3489158Y-12639174D02*
X3508205Y-12629650D01*
X3508205Y-12629650D02*
X3536777Y-12629650D01*
X3536777Y-12629650D02*
X3555824Y-12639174D01*
X3555824Y-12639174D02*
X3565348Y-12658222D01*
X3565348Y-12658222D02*
X3565348Y-12762984D01*
X3660586Y-12762984D02*
X3660586Y-12629650D01*
X3660586Y-12648698D02*
X3670110Y-12639174D01*
X3670110Y-12639174D02*
X3689158Y-12629650D01*
X3689158Y-12629650D02*
X3717729Y-12629650D01*
X3717729Y-12629650D02*
X3736777Y-12639174D01*
X3736777Y-12639174D02*
X3746301Y-12658222D01*
X3746301Y-12658222D02*
X3746301Y-12762984D01*
X3746301Y-12658222D02*
X3755824Y-12639174D01*
X3755824Y-12639174D02*
X3774872Y-12629650D01*
X3774872Y-12629650D02*
X3803443Y-12629650D01*
X3803443Y-12629650D02*
X3822491Y-12639174D01*
X3822491Y-12639174D02*
X3832015Y-12658222D01*
X3832015Y-12658222D02*
X3832015Y-12762984D01*
X4222491Y-12553460D02*
X4051063Y-12810603D01*
X4479634Y-12562984D02*
X4498682Y-12562984D01*
X4498682Y-12562984D02*
X4517729Y-12572508D01*
X4517729Y-12572508D02*
X4527253Y-12582031D01*
X4527253Y-12582031D02*
X4536777Y-12601079D01*
X4536777Y-12601079D02*
X4546301Y-12639174D01*
X4546301Y-12639174D02*
X4546301Y-12686793D01*
X4546301Y-12686793D02*
X4536777Y-12724888D01*
X4536777Y-12724888D02*
X4527253Y-12743936D01*
X4527253Y-12743936D02*
X4517729Y-12753460D01*
X4517729Y-12753460D02*
X4498682Y-12762984D01*
X4498682Y-12762984D02*
X4479634Y-12762984D01*
X4479634Y-12762984D02*
X4460587Y-12753460D01*
X4460587Y-12753460D02*
X4451063Y-12743936D01*
X4451063Y-12743936D02*
X4441539Y-12724888D01*
X4441539Y-12724888D02*
X4432015Y-12686793D01*
X4432015Y-12686793D02*
X4432015Y-12639174D01*
X4432015Y-12639174D02*
X4441539Y-12601079D01*
X4441539Y-12601079D02*
X4451063Y-12582031D01*
X4451063Y-12582031D02*
X4460587Y-12572508D01*
X4460587Y-12572508D02*
X4479634Y-12562984D01*
X4632015Y-12743936D02*
X4641539Y-12753460D01*
X4641539Y-12753460D02*
X4632015Y-12762984D01*
X4632015Y-12762984D02*
X4622491Y-12753460D01*
X4622491Y-12753460D02*
X4632015Y-12743936D01*
X4632015Y-12743936D02*
X4632015Y-12762984D01*
X4765348Y-12562984D02*
X4784396Y-12562984D01*
X4784396Y-12562984D02*
X4803444Y-12572508D01*
X4803444Y-12572508D02*
X4812968Y-12582031D01*
X4812968Y-12582031D02*
X4822491Y-12601079D01*
X4822491Y-12601079D02*
X4832015Y-12639174D01*
X4832015Y-12639174D02*
X4832015Y-12686793D01*
X4832015Y-12686793D02*
X4822491Y-12724888D01*
X4822491Y-12724888D02*
X4812968Y-12743936D01*
X4812968Y-12743936D02*
X4803444Y-12753460D01*
X4803444Y-12753460D02*
X4784396Y-12762984D01*
X4784396Y-12762984D02*
X4765348Y-12762984D01*
X4765348Y-12762984D02*
X4746301Y-12753460D01*
X4746301Y-12753460D02*
X4736777Y-12743936D01*
X4736777Y-12743936D02*
X4727253Y-12724888D01*
X4727253Y-12724888D02*
X4717729Y-12686793D01*
X4717729Y-12686793D02*
X4717729Y-12639174D01*
X4717729Y-12639174D02*
X4727253Y-12601079D01*
X4727253Y-12601079D02*
X4736777Y-12582031D01*
X4736777Y-12582031D02*
X4746301Y-12572508D01*
X4746301Y-12572508D02*
X4765348Y-12562984D01*
X4898682Y-12562984D02*
X5022491Y-12562984D01*
X5022491Y-12562984D02*
X4955825Y-12639174D01*
X4955825Y-12639174D02*
X4984396Y-12639174D01*
X4984396Y-12639174D02*
X5003444Y-12648698D01*
X5003444Y-12648698D02*
X5012968Y-12658222D01*
X5012968Y-12658222D02*
X5022491Y-12677269D01*
X5022491Y-12677269D02*
X5022491Y-12724888D01*
X5022491Y-12724888D02*
X5012968Y-12743936D01*
X5012968Y-12743936D02*
X5003444Y-12753460D01*
X5003444Y-12753460D02*
X4984396Y-12762984D01*
X4984396Y-12762984D02*
X4927253Y-12762984D01*
X4927253Y-12762984D02*
X4908206Y-12753460D01*
X4908206Y-12753460D02*
X4898682Y-12743936D01*
X5212968Y-12762984D02*
X5098682Y-12762984D01*
X5155825Y-12762984D02*
X5155825Y-12562984D01*
X5155825Y-12562984D02*
X5136777Y-12591555D01*
X5136777Y-12591555D02*
X5117729Y-12610603D01*
X5117729Y-12610603D02*
X5098682Y-12620127D01*
X5393920Y-12562984D02*
X5298682Y-12562984D01*
X5298682Y-12562984D02*
X5289158Y-12658222D01*
X5289158Y-12658222D02*
X5298682Y-12648698D01*
X5298682Y-12648698D02*
X5317729Y-12639174D01*
X5317729Y-12639174D02*
X5365349Y-12639174D01*
X5365349Y-12639174D02*
X5384396Y-12648698D01*
X5384396Y-12648698D02*
X5393920Y-12658222D01*
X5393920Y-12658222D02*
X5403444Y-12677269D01*
X5403444Y-12677269D02*
X5403444Y-12724888D01*
X5403444Y-12724888D02*
X5393920Y-12743936D01*
X5393920Y-12743936D02*
X5384396Y-12753460D01*
X5384396Y-12753460D02*
X5365349Y-12762984D01*
X5365349Y-12762984D02*
X5317729Y-12762984D01*
X5317729Y-12762984D02*
X5298682Y-12753460D01*
X5298682Y-12753460D02*
X5289158Y-12743936D01*
X5479634Y-12562984D02*
X5479634Y-12601079D01*
X5555825Y-12562984D02*
X5555825Y-12601079D01*
X5851063Y-12839174D02*
X5841539Y-12829650D01*
X5841539Y-12829650D02*
X5822491Y-12801079D01*
X5822491Y-12801079D02*
X5812968Y-12782031D01*
X5812968Y-12782031D02*
X5803444Y-12753460D01*
X5803444Y-12753460D02*
X5793920Y-12705841D01*
X5793920Y-12705841D02*
X5793920Y-12667746D01*
X5793920Y-12667746D02*
X5803444Y-12620127D01*
X5803444Y-12620127D02*
X5812968Y-12591555D01*
X5812968Y-12591555D02*
X5822491Y-12572508D01*
X5822491Y-12572508D02*
X5841539Y-12543936D01*
X5841539Y-12543936D02*
X5851063Y-12534412D01*
X6032015Y-12762984D02*
X5917729Y-12762984D01*
X5974872Y-12762984D02*
X5974872Y-12562984D01*
X5974872Y-12562984D02*
X5955825Y-12591555D01*
X5955825Y-12591555D02*
X5936777Y-12610603D01*
X5936777Y-12610603D02*
X5917729Y-12620127D01*
X6203444Y-12562984D02*
X6165348Y-12562984D01*
X6165348Y-12562984D02*
X6146301Y-12572508D01*
X6146301Y-12572508D02*
X6136777Y-12582031D01*
X6136777Y-12582031D02*
X6117729Y-12610603D01*
X6117729Y-12610603D02*
X6108206Y-12648698D01*
X6108206Y-12648698D02*
X6108206Y-12724888D01*
X6108206Y-12724888D02*
X6117729Y-12743936D01*
X6117729Y-12743936D02*
X6127253Y-12753460D01*
X6127253Y-12753460D02*
X6146301Y-12762984D01*
X6146301Y-12762984D02*
X6184396Y-12762984D01*
X6184396Y-12762984D02*
X6203444Y-12753460D01*
X6203444Y-12753460D02*
X6212968Y-12743936D01*
X6212968Y-12743936D02*
X6222491Y-12724888D01*
X6222491Y-12724888D02*
X6222491Y-12677269D01*
X6222491Y-12677269D02*
X6212968Y-12658222D01*
X6212968Y-12658222D02*
X6203444Y-12648698D01*
X6203444Y-12648698D02*
X6184396Y-12639174D01*
X6184396Y-12639174D02*
X6146301Y-12639174D01*
X6146301Y-12639174D02*
X6127253Y-12648698D01*
X6127253Y-12648698D02*
X6117729Y-12658222D01*
X6117729Y-12658222D02*
X6108206Y-12677269D01*
X6460587Y-12762984D02*
X6460587Y-12562984D01*
X6546301Y-12762984D02*
X6546301Y-12658222D01*
X6546301Y-12658222D02*
X6536777Y-12639174D01*
X6536777Y-12639174D02*
X6517730Y-12629650D01*
X6517730Y-12629650D02*
X6489158Y-12629650D01*
X6489158Y-12629650D02*
X6470110Y-12639174D01*
X6470110Y-12639174D02*
X6460587Y-12648698D01*
X6670110Y-12762984D02*
X6651063Y-12753460D01*
X6651063Y-12753460D02*
X6641539Y-12743936D01*
X6641539Y-12743936D02*
X6632015Y-12724888D01*
X6632015Y-12724888D02*
X6632015Y-12667746D01*
X6632015Y-12667746D02*
X6641539Y-12648698D01*
X6641539Y-12648698D02*
X6651063Y-12639174D01*
X6651063Y-12639174D02*
X6670110Y-12629650D01*
X6670110Y-12629650D02*
X6698682Y-12629650D01*
X6698682Y-12629650D02*
X6717730Y-12639174D01*
X6717730Y-12639174D02*
X6727253Y-12648698D01*
X6727253Y-12648698D02*
X6736777Y-12667746D01*
X6736777Y-12667746D02*
X6736777Y-12724888D01*
X6736777Y-12724888D02*
X6727253Y-12743936D01*
X6727253Y-12743936D02*
X6717730Y-12753460D01*
X6717730Y-12753460D02*
X6698682Y-12762984D01*
X6698682Y-12762984D02*
X6670110Y-12762984D01*
X6851063Y-12762984D02*
X6832015Y-12753460D01*
X6832015Y-12753460D02*
X6822491Y-12734412D01*
X6822491Y-12734412D02*
X6822491Y-12562984D01*
X7003444Y-12753460D02*
X6984396Y-12762984D01*
X6984396Y-12762984D02*
X6946301Y-12762984D01*
X6946301Y-12762984D02*
X6927253Y-12753460D01*
X6927253Y-12753460D02*
X6917730Y-12734412D01*
X6917730Y-12734412D02*
X6917730Y-12658222D01*
X6917730Y-12658222D02*
X6927253Y-12639174D01*
X6927253Y-12639174D02*
X6946301Y-12629650D01*
X6946301Y-12629650D02*
X6984396Y-12629650D01*
X6984396Y-12629650D02*
X7003444Y-12639174D01*
X7003444Y-12639174D02*
X7012968Y-12658222D01*
X7012968Y-12658222D02*
X7012968Y-12677269D01*
X7012968Y-12677269D02*
X6917730Y-12696317D01*
X7089158Y-12753460D02*
X7108206Y-12762984D01*
X7108206Y-12762984D02*
X7146301Y-12762984D01*
X7146301Y-12762984D02*
X7165349Y-12753460D01*
X7165349Y-12753460D02*
X7174872Y-12734412D01*
X7174872Y-12734412D02*
X7174872Y-12724888D01*
X7174872Y-12724888D02*
X7165349Y-12705841D01*
X7165349Y-12705841D02*
X7146301Y-12696317D01*
X7146301Y-12696317D02*
X7117730Y-12696317D01*
X7117730Y-12696317D02*
X7098682Y-12686793D01*
X7098682Y-12686793D02*
X7089158Y-12667746D01*
X7089158Y-12667746D02*
X7089158Y-12658222D01*
X7089158Y-12658222D02*
X7098682Y-12639174D01*
X7098682Y-12639174D02*
X7117730Y-12629650D01*
X7117730Y-12629650D02*
X7146301Y-12629650D01*
X7146301Y-12629650D02*
X7165349Y-12639174D01*
X7241539Y-12839174D02*
X7251063Y-12829650D01*
X7251063Y-12829650D02*
X7270111Y-12801079D01*
X7270111Y-12801079D02*
X7279634Y-12782031D01*
X7279634Y-12782031D02*
X7289158Y-12753460D01*
X7289158Y-12753460D02*
X7298682Y-12705841D01*
X7298682Y-12705841D02*
X7298682Y-12667746D01*
X7298682Y-12667746D02*
X7289158Y-12620127D01*
X7289158Y-12620127D02*
X7279634Y-12591555D01*
X7279634Y-12591555D02*
X7270111Y-12572508D01*
X7270111Y-12572508D02*
X7251063Y-12543936D01*
X7251063Y-12543936D02*
X7241539Y-12534412D01*
D11*
X2262820Y-12967320D02*
X2262820Y-12903680D01*
X2199180Y-12903680D01*
X2199180Y-12967320D01*
X2262820Y-12967320D01*
D10*
X2574872Y-12826984D02*
X2593920Y-12826984D01*
X2593920Y-12826984D02*
X2612967Y-12836508D01*
X2612967Y-12836508D02*
X2622491Y-12846031D01*
X2622491Y-12846031D02*
X2632015Y-12865079D01*
X2632015Y-12865079D02*
X2641539Y-12903174D01*
X2641539Y-12903174D02*
X2641539Y-12950793D01*
X2641539Y-12950793D02*
X2632015Y-12988888D01*
X2632015Y-12988888D02*
X2622491Y-13007936D01*
X2622491Y-13007936D02*
X2612967Y-13017460D01*
X2612967Y-13017460D02*
X2593920Y-13026984D01*
X2593920Y-13026984D02*
X2574872Y-13026984D01*
X2574872Y-13026984D02*
X2555824Y-13017460D01*
X2555824Y-13017460D02*
X2546301Y-13007936D01*
X2546301Y-13007936D02*
X2536777Y-12988888D01*
X2536777Y-12988888D02*
X2527253Y-12950793D01*
X2527253Y-12950793D02*
X2527253Y-12903174D01*
X2527253Y-12903174D02*
X2536777Y-12865079D01*
X2536777Y-12865079D02*
X2546301Y-12846031D01*
X2546301Y-12846031D02*
X2555824Y-12836508D01*
X2555824Y-12836508D02*
X2574872Y-12826984D01*
X2727253Y-13007936D02*
X2736777Y-13017460D01*
X2736777Y-13017460D02*
X2727253Y-13026984D01*
X2727253Y-13026984D02*
X2717729Y-13017460D01*
X2717729Y-13017460D02*
X2727253Y-13007936D01*
X2727253Y-13007936D02*
X2727253Y-13026984D01*
X2832015Y-13026984D02*
X2870110Y-13026984D01*
X2870110Y-13026984D02*
X2889158Y-13017460D01*
X2889158Y-13017460D02*
X2898682Y-13007936D01*
X2898682Y-13007936D02*
X2917729Y-12979365D01*
X2917729Y-12979365D02*
X2927253Y-12941269D01*
X2927253Y-12941269D02*
X2927253Y-12865079D01*
X2927253Y-12865079D02*
X2917729Y-12846031D01*
X2917729Y-12846031D02*
X2908205Y-12836508D01*
X2908205Y-12836508D02*
X2889158Y-12826984D01*
X2889158Y-12826984D02*
X2851062Y-12826984D01*
X2851062Y-12826984D02*
X2832015Y-12836508D01*
X2832015Y-12836508D02*
X2822491Y-12846031D01*
X2822491Y-12846031D02*
X2812967Y-12865079D01*
X2812967Y-12865079D02*
X2812967Y-12912698D01*
X2812967Y-12912698D02*
X2822491Y-12931746D01*
X2822491Y-12931746D02*
X2832015Y-12941269D01*
X2832015Y-12941269D02*
X2851062Y-12950793D01*
X2851062Y-12950793D02*
X2889158Y-12950793D01*
X2889158Y-12950793D02*
X2908205Y-12941269D01*
X2908205Y-12941269D02*
X2917729Y-12931746D01*
X2917729Y-12931746D02*
X2927253Y-12912698D01*
X3051062Y-12826984D02*
X3070110Y-12826984D01*
X3070110Y-12826984D02*
X3089158Y-12836508D01*
X3089158Y-12836508D02*
X3098682Y-12846031D01*
X3098682Y-12846031D02*
X3108205Y-12865079D01*
X3108205Y-12865079D02*
X3117729Y-12903174D01*
X3117729Y-12903174D02*
X3117729Y-12950793D01*
X3117729Y-12950793D02*
X3108205Y-12988888D01*
X3108205Y-12988888D02*
X3098682Y-13007936D01*
X3098682Y-13007936D02*
X3089158Y-13017460D01*
X3089158Y-13017460D02*
X3070110Y-13026984D01*
X3070110Y-13026984D02*
X3051062Y-13026984D01*
X3051062Y-13026984D02*
X3032015Y-13017460D01*
X3032015Y-13017460D02*
X3022491Y-13007936D01*
X3022491Y-13007936D02*
X3012967Y-12988888D01*
X3012967Y-12988888D02*
X3003443Y-12950793D01*
X3003443Y-12950793D02*
X3003443Y-12903174D01*
X3003443Y-12903174D02*
X3012967Y-12865079D01*
X3012967Y-12865079D02*
X3022491Y-12846031D01*
X3022491Y-12846031D02*
X3032015Y-12836508D01*
X3032015Y-12836508D02*
X3051062Y-12826984D01*
X3241539Y-12826984D02*
X3260586Y-12826984D01*
X3260586Y-12826984D02*
X3279634Y-12836508D01*
X3279634Y-12836508D02*
X3289158Y-12846031D01*
X3289158Y-12846031D02*
X3298682Y-12865079D01*
X3298682Y-12865079D02*
X3308205Y-12903174D01*
X3308205Y-12903174D02*
X3308205Y-12950793D01*
X3308205Y-12950793D02*
X3298682Y-12988888D01*
X3298682Y-12988888D02*
X3289158Y-13007936D01*
X3289158Y-13007936D02*
X3279634Y-13017460D01*
X3279634Y-13017460D02*
X3260586Y-13026984D01*
X3260586Y-13026984D02*
X3241539Y-13026984D01*
X3241539Y-13026984D02*
X3222491Y-13017460D01*
X3222491Y-13017460D02*
X3212967Y-13007936D01*
X3212967Y-13007936D02*
X3203443Y-12988888D01*
X3203443Y-12988888D02*
X3193920Y-12950793D01*
X3193920Y-12950793D02*
X3193920Y-12903174D01*
X3193920Y-12903174D02*
X3203443Y-12865079D01*
X3203443Y-12865079D02*
X3212967Y-12846031D01*
X3212967Y-12846031D02*
X3222491Y-12836508D01*
X3222491Y-12836508D02*
X3241539Y-12826984D01*
X3393920Y-13026984D02*
X3393920Y-12893650D01*
X3393920Y-12912698D02*
X3403443Y-12903174D01*
X3403443Y-12903174D02*
X3422491Y-12893650D01*
X3422491Y-12893650D02*
X3451063Y-12893650D01*
X3451063Y-12893650D02*
X3470110Y-12903174D01*
X3470110Y-12903174D02*
X3479634Y-12922222D01*
X3479634Y-12922222D02*
X3479634Y-13026984D01*
X3479634Y-12922222D02*
X3489158Y-12903174D01*
X3489158Y-12903174D02*
X3508205Y-12893650D01*
X3508205Y-12893650D02*
X3536777Y-12893650D01*
X3536777Y-12893650D02*
X3555824Y-12903174D01*
X3555824Y-12903174D02*
X3565348Y-12922222D01*
X3565348Y-12922222D02*
X3565348Y-13026984D01*
X3660586Y-13026984D02*
X3660586Y-12893650D01*
X3660586Y-12912698D02*
X3670110Y-12903174D01*
X3670110Y-12903174D02*
X3689158Y-12893650D01*
X3689158Y-12893650D02*
X3717729Y-12893650D01*
X3717729Y-12893650D02*
X3736777Y-12903174D01*
X3736777Y-12903174D02*
X3746301Y-12922222D01*
X3746301Y-12922222D02*
X3746301Y-13026984D01*
X3746301Y-12922222D02*
X3755824Y-12903174D01*
X3755824Y-12903174D02*
X3774872Y-12893650D01*
X3774872Y-12893650D02*
X3803443Y-12893650D01*
X3803443Y-12893650D02*
X3822491Y-12903174D01*
X3822491Y-12903174D02*
X3832015Y-12922222D01*
X3832015Y-12922222D02*
X3832015Y-13026984D01*
X4222491Y-12817460D02*
X4051063Y-13074603D01*
X4479634Y-12826984D02*
X4498682Y-12826984D01*
X4498682Y-12826984D02*
X4517729Y-12836508D01*
X4517729Y-12836508D02*
X4527253Y-12846031D01*
X4527253Y-12846031D02*
X4536777Y-12865079D01*
X4536777Y-12865079D02*
X4546301Y-12903174D01*
X4546301Y-12903174D02*
X4546301Y-12950793D01*
X4546301Y-12950793D02*
X4536777Y-12988888D01*
X4536777Y-12988888D02*
X4527253Y-13007936D01*
X4527253Y-13007936D02*
X4517729Y-13017460D01*
X4517729Y-13017460D02*
X4498682Y-13026984D01*
X4498682Y-13026984D02*
X4479634Y-13026984D01*
X4479634Y-13026984D02*
X4460587Y-13017460D01*
X4460587Y-13017460D02*
X4451063Y-13007936D01*
X4451063Y-13007936D02*
X4441539Y-12988888D01*
X4441539Y-12988888D02*
X4432015Y-12950793D01*
X4432015Y-12950793D02*
X4432015Y-12903174D01*
X4432015Y-12903174D02*
X4441539Y-12865079D01*
X4441539Y-12865079D02*
X4451063Y-12846031D01*
X4451063Y-12846031D02*
X4460587Y-12836508D01*
X4460587Y-12836508D02*
X4479634Y-12826984D01*
X4632015Y-13007936D02*
X4641539Y-13017460D01*
X4641539Y-13017460D02*
X4632015Y-13026984D01*
X4632015Y-13026984D02*
X4622491Y-13017460D01*
X4622491Y-13017460D02*
X4632015Y-13007936D01*
X4632015Y-13007936D02*
X4632015Y-13026984D01*
X4765348Y-12826984D02*
X4784396Y-12826984D01*
X4784396Y-12826984D02*
X4803444Y-12836508D01*
X4803444Y-12836508D02*
X4812968Y-12846031D01*
X4812968Y-12846031D02*
X4822491Y-12865079D01*
X4822491Y-12865079D02*
X4832015Y-12903174D01*
X4832015Y-12903174D02*
X4832015Y-12950793D01*
X4832015Y-12950793D02*
X4822491Y-12988888D01*
X4822491Y-12988888D02*
X4812968Y-13007936D01*
X4812968Y-13007936D02*
X4803444Y-13017460D01*
X4803444Y-13017460D02*
X4784396Y-13026984D01*
X4784396Y-13026984D02*
X4765348Y-13026984D01*
X4765348Y-13026984D02*
X4746301Y-13017460D01*
X4746301Y-13017460D02*
X4736777Y-13007936D01*
X4736777Y-13007936D02*
X4727253Y-12988888D01*
X4727253Y-12988888D02*
X4717729Y-12950793D01*
X4717729Y-12950793D02*
X4717729Y-12903174D01*
X4717729Y-12903174D02*
X4727253Y-12865079D01*
X4727253Y-12865079D02*
X4736777Y-12846031D01*
X4736777Y-12846031D02*
X4746301Y-12836508D01*
X4746301Y-12836508D02*
X4765348Y-12826984D01*
X4898682Y-12826984D02*
X5022491Y-12826984D01*
X5022491Y-12826984D02*
X4955825Y-12903174D01*
X4955825Y-12903174D02*
X4984396Y-12903174D01*
X4984396Y-12903174D02*
X5003444Y-12912698D01*
X5003444Y-12912698D02*
X5012968Y-12922222D01*
X5012968Y-12922222D02*
X5022491Y-12941269D01*
X5022491Y-12941269D02*
X5022491Y-12988888D01*
X5022491Y-12988888D02*
X5012968Y-13007936D01*
X5012968Y-13007936D02*
X5003444Y-13017460D01*
X5003444Y-13017460D02*
X4984396Y-13026984D01*
X4984396Y-13026984D02*
X4927253Y-13026984D01*
X4927253Y-13026984D02*
X4908206Y-13017460D01*
X4908206Y-13017460D02*
X4898682Y-13007936D01*
X5203444Y-12826984D02*
X5108206Y-12826984D01*
X5108206Y-12826984D02*
X5098682Y-12922222D01*
X5098682Y-12922222D02*
X5108206Y-12912698D01*
X5108206Y-12912698D02*
X5127253Y-12903174D01*
X5127253Y-12903174D02*
X5174872Y-12903174D01*
X5174872Y-12903174D02*
X5193920Y-12912698D01*
X5193920Y-12912698D02*
X5203444Y-12922222D01*
X5203444Y-12922222D02*
X5212968Y-12941269D01*
X5212968Y-12941269D02*
X5212968Y-12988888D01*
X5212968Y-12988888D02*
X5203444Y-13007936D01*
X5203444Y-13007936D02*
X5193920Y-13017460D01*
X5193920Y-13017460D02*
X5174872Y-13026984D01*
X5174872Y-13026984D02*
X5127253Y-13026984D01*
X5127253Y-13026984D02*
X5108206Y-13017460D01*
X5108206Y-13017460D02*
X5098682Y-13007936D01*
X5384396Y-12893650D02*
X5384396Y-13026984D01*
X5336777Y-12817460D02*
X5289158Y-12960317D01*
X5289158Y-12960317D02*
X5412968Y-12960317D01*
X5479634Y-12826984D02*
X5479634Y-12865079D01*
X5555825Y-12826984D02*
X5555825Y-12865079D01*
X5851063Y-13103174D02*
X5841539Y-13093650D01*
X5841539Y-13093650D02*
X5822491Y-13065079D01*
X5822491Y-13065079D02*
X5812968Y-13046031D01*
X5812968Y-13046031D02*
X5803444Y-13017460D01*
X5803444Y-13017460D02*
X5793920Y-12969841D01*
X5793920Y-12969841D02*
X5793920Y-12931746D01*
X5793920Y-12931746D02*
X5803444Y-12884127D01*
X5803444Y-12884127D02*
X5812968Y-12855555D01*
X5812968Y-12855555D02*
X5822491Y-12836508D01*
X5822491Y-12836508D02*
X5841539Y-12807936D01*
X5841539Y-12807936D02*
X5851063Y-12798412D01*
X6012968Y-12893650D02*
X6012968Y-13026984D01*
X5965348Y-12817460D02*
X5917729Y-12960317D01*
X5917729Y-12960317D02*
X6041539Y-12960317D01*
X6146301Y-12912698D02*
X6127253Y-12903174D01*
X6127253Y-12903174D02*
X6117729Y-12893650D01*
X6117729Y-12893650D02*
X6108206Y-12874603D01*
X6108206Y-12874603D02*
X6108206Y-12865079D01*
X6108206Y-12865079D02*
X6117729Y-12846031D01*
X6117729Y-12846031D02*
X6127253Y-12836508D01*
X6127253Y-12836508D02*
X6146301Y-12826984D01*
X6146301Y-12826984D02*
X6184396Y-12826984D01*
X6184396Y-12826984D02*
X6203444Y-12836508D01*
X6203444Y-12836508D02*
X6212968Y-12846031D01*
X6212968Y-12846031D02*
X6222491Y-12865079D01*
X6222491Y-12865079D02*
X6222491Y-12874603D01*
X6222491Y-12874603D02*
X6212968Y-12893650D01*
X6212968Y-12893650D02*
X6203444Y-12903174D01*
X6203444Y-12903174D02*
X6184396Y-12912698D01*
X6184396Y-12912698D02*
X6146301Y-12912698D01*
X6146301Y-12912698D02*
X6127253Y-12922222D01*
X6127253Y-12922222D02*
X6117729Y-12931746D01*
X6117729Y-12931746D02*
X6108206Y-12950793D01*
X6108206Y-12950793D02*
X6108206Y-12988888D01*
X6108206Y-12988888D02*
X6117729Y-13007936D01*
X6117729Y-13007936D02*
X6127253Y-13017460D01*
X6127253Y-13017460D02*
X6146301Y-13026984D01*
X6146301Y-13026984D02*
X6184396Y-13026984D01*
X6184396Y-13026984D02*
X6203444Y-13017460D01*
X6203444Y-13017460D02*
X6212968Y-13007936D01*
X6212968Y-13007936D02*
X6222491Y-12988888D01*
X6222491Y-12988888D02*
X6222491Y-12950793D01*
X6222491Y-12950793D02*
X6212968Y-12931746D01*
X6212968Y-12931746D02*
X6203444Y-12922222D01*
X6203444Y-12922222D02*
X6184396Y-12912698D01*
X6460587Y-13026984D02*
X6460587Y-12826984D01*
X6546301Y-13026984D02*
X6546301Y-12922222D01*
X6546301Y-12922222D02*
X6536777Y-12903174D01*
X6536777Y-12903174D02*
X6517730Y-12893650D01*
X6517730Y-12893650D02*
X6489158Y-12893650D01*
X6489158Y-12893650D02*
X6470110Y-12903174D01*
X6470110Y-12903174D02*
X6460587Y-12912698D01*
X6670110Y-13026984D02*
X6651063Y-13017460D01*
X6651063Y-13017460D02*
X6641539Y-13007936D01*
X6641539Y-13007936D02*
X6632015Y-12988888D01*
X6632015Y-12988888D02*
X6632015Y-12931746D01*
X6632015Y-12931746D02*
X6641539Y-12912698D01*
X6641539Y-12912698D02*
X6651063Y-12903174D01*
X6651063Y-12903174D02*
X6670110Y-12893650D01*
X6670110Y-12893650D02*
X6698682Y-12893650D01*
X6698682Y-12893650D02*
X6717730Y-12903174D01*
X6717730Y-12903174D02*
X6727253Y-12912698D01*
X6727253Y-12912698D02*
X6736777Y-12931746D01*
X6736777Y-12931746D02*
X6736777Y-12988888D01*
X6736777Y-12988888D02*
X6727253Y-13007936D01*
X6727253Y-13007936D02*
X6717730Y-13017460D01*
X6717730Y-13017460D02*
X6698682Y-13026984D01*
X6698682Y-13026984D02*
X6670110Y-13026984D01*
X6851063Y-13026984D02*
X6832015Y-13017460D01*
X6832015Y-13017460D02*
X6822491Y-12998412D01*
X6822491Y-12998412D02*
X6822491Y-12826984D01*
X7003444Y-13017460D02*
X6984396Y-13026984D01*
X6984396Y-13026984D02*
X6946301Y-13026984D01*
X6946301Y-13026984D02*
X6927253Y-13017460D01*
X6927253Y-13017460D02*
X6917730Y-12998412D01*
X6917730Y-12998412D02*
X6917730Y-12922222D01*
X6917730Y-12922222D02*
X6927253Y-12903174D01*
X6927253Y-12903174D02*
X6946301Y-12893650D01*
X6946301Y-12893650D02*
X6984396Y-12893650D01*
X6984396Y-12893650D02*
X7003444Y-12903174D01*
X7003444Y-12903174D02*
X7012968Y-12922222D01*
X7012968Y-12922222D02*
X7012968Y-12941269D01*
X7012968Y-12941269D02*
X6917730Y-12960317D01*
X7089158Y-13017460D02*
X7108206Y-13026984D01*
X7108206Y-13026984D02*
X7146301Y-13026984D01*
X7146301Y-13026984D02*
X7165349Y-13017460D01*
X7165349Y-13017460D02*
X7174872Y-12998412D01*
X7174872Y-12998412D02*
X7174872Y-12988888D01*
X7174872Y-12988888D02*
X7165349Y-12969841D01*
X7165349Y-12969841D02*
X7146301Y-12960317D01*
X7146301Y-12960317D02*
X7117730Y-12960317D01*
X7117730Y-12960317D02*
X7098682Y-12950793D01*
X7098682Y-12950793D02*
X7089158Y-12931746D01*
X7089158Y-12931746D02*
X7089158Y-12922222D01*
X7089158Y-12922222D02*
X7098682Y-12903174D01*
X7098682Y-12903174D02*
X7117730Y-12893650D01*
X7117730Y-12893650D02*
X7146301Y-12893650D01*
X7146301Y-12893650D02*
X7165349Y-12903174D01*
X7241539Y-13103174D02*
X7251063Y-13093650D01*
X7251063Y-13093650D02*
X7270111Y-13065079D01*
X7270111Y-13065079D02*
X7279634Y-13046031D01*
X7279634Y-13046031D02*
X7289158Y-13017460D01*
X7289158Y-13017460D02*
X7298682Y-12969841D01*
X7298682Y-12969841D02*
X7298682Y-12931746D01*
X7298682Y-12931746D02*
X7289158Y-12884127D01*
X7289158Y-12884127D02*
X7279634Y-12855555D01*
X7279634Y-12855555D02*
X7270111Y-12836508D01*
X7270111Y-12836508D02*
X7251063Y-12807936D01*
X7251063Y-12807936D02*
X7241539Y-12798412D01*
D11*
X2226000Y-13249500D02*
X2276000Y-13199500D01*
X2226000Y-13149500D01*
X2176000Y-13199500D01*
X2226000Y-13249500D01*
D10*
X2641539Y-13290984D02*
X2527253Y-13290984D01*
X2584396Y-13290984D02*
X2584396Y-13090984D01*
X2584396Y-13090984D02*
X2565348Y-13119555D01*
X2565348Y-13119555D02*
X2546301Y-13138603D01*
X2546301Y-13138603D02*
X2527253Y-13148127D01*
X2727253Y-13271936D02*
X2736777Y-13281460D01*
X2736777Y-13281460D02*
X2727253Y-13290984D01*
X2727253Y-13290984D02*
X2717729Y-13281460D01*
X2717729Y-13281460D02*
X2727253Y-13271936D01*
X2727253Y-13271936D02*
X2727253Y-13290984D01*
X2860586Y-13090984D02*
X2879634Y-13090984D01*
X2879634Y-13090984D02*
X2898682Y-13100508D01*
X2898682Y-13100508D02*
X2908205Y-13110031D01*
X2908205Y-13110031D02*
X2917729Y-13129079D01*
X2917729Y-13129079D02*
X2927253Y-13167174D01*
X2927253Y-13167174D02*
X2927253Y-13214793D01*
X2927253Y-13214793D02*
X2917729Y-13252888D01*
X2917729Y-13252888D02*
X2908205Y-13271936D01*
X2908205Y-13271936D02*
X2898682Y-13281460D01*
X2898682Y-13281460D02*
X2879634Y-13290984D01*
X2879634Y-13290984D02*
X2860586Y-13290984D01*
X2860586Y-13290984D02*
X2841539Y-13281460D01*
X2841539Y-13281460D02*
X2832015Y-13271936D01*
X2832015Y-13271936D02*
X2822491Y-13252888D01*
X2822491Y-13252888D02*
X2812967Y-13214793D01*
X2812967Y-13214793D02*
X2812967Y-13167174D01*
X2812967Y-13167174D02*
X2822491Y-13129079D01*
X2822491Y-13129079D02*
X2832015Y-13110031D01*
X2832015Y-13110031D02*
X2841539Y-13100508D01*
X2841539Y-13100508D02*
X2860586Y-13090984D01*
X3051062Y-13090984D02*
X3070110Y-13090984D01*
X3070110Y-13090984D02*
X3089158Y-13100508D01*
X3089158Y-13100508D02*
X3098682Y-13110031D01*
X3098682Y-13110031D02*
X3108205Y-13129079D01*
X3108205Y-13129079D02*
X3117729Y-13167174D01*
X3117729Y-13167174D02*
X3117729Y-13214793D01*
X3117729Y-13214793D02*
X3108205Y-13252888D01*
X3108205Y-13252888D02*
X3098682Y-13271936D01*
X3098682Y-13271936D02*
X3089158Y-13281460D01*
X3089158Y-13281460D02*
X3070110Y-13290984D01*
X3070110Y-13290984D02*
X3051062Y-13290984D01*
X3051062Y-13290984D02*
X3032015Y-13281460D01*
X3032015Y-13281460D02*
X3022491Y-13271936D01*
X3022491Y-13271936D02*
X3012967Y-13252888D01*
X3012967Y-13252888D02*
X3003443Y-13214793D01*
X3003443Y-13214793D02*
X3003443Y-13167174D01*
X3003443Y-13167174D02*
X3012967Y-13129079D01*
X3012967Y-13129079D02*
X3022491Y-13110031D01*
X3022491Y-13110031D02*
X3032015Y-13100508D01*
X3032015Y-13100508D02*
X3051062Y-13090984D01*
X3241539Y-13090984D02*
X3260586Y-13090984D01*
X3260586Y-13090984D02*
X3279634Y-13100508D01*
X3279634Y-13100508D02*
X3289158Y-13110031D01*
X3289158Y-13110031D02*
X3298682Y-13129079D01*
X3298682Y-13129079D02*
X3308205Y-13167174D01*
X3308205Y-13167174D02*
X3308205Y-13214793D01*
X3308205Y-13214793D02*
X3298682Y-13252888D01*
X3298682Y-13252888D02*
X3289158Y-13271936D01*
X3289158Y-13271936D02*
X3279634Y-13281460D01*
X3279634Y-13281460D02*
X3260586Y-13290984D01*
X3260586Y-13290984D02*
X3241539Y-13290984D01*
X3241539Y-13290984D02*
X3222491Y-13281460D01*
X3222491Y-13281460D02*
X3212967Y-13271936D01*
X3212967Y-13271936D02*
X3203443Y-13252888D01*
X3203443Y-13252888D02*
X3193920Y-13214793D01*
X3193920Y-13214793D02*
X3193920Y-13167174D01*
X3193920Y-13167174D02*
X3203443Y-13129079D01*
X3203443Y-13129079D02*
X3212967Y-13110031D01*
X3212967Y-13110031D02*
X3222491Y-13100508D01*
X3222491Y-13100508D02*
X3241539Y-13090984D01*
X3393920Y-13290984D02*
X3393920Y-13157650D01*
X3393920Y-13176698D02*
X3403443Y-13167174D01*
X3403443Y-13167174D02*
X3422491Y-13157650D01*
X3422491Y-13157650D02*
X3451063Y-13157650D01*
X3451063Y-13157650D02*
X3470110Y-13167174D01*
X3470110Y-13167174D02*
X3479634Y-13186222D01*
X3479634Y-13186222D02*
X3479634Y-13290984D01*
X3479634Y-13186222D02*
X3489158Y-13167174D01*
X3489158Y-13167174D02*
X3508205Y-13157650D01*
X3508205Y-13157650D02*
X3536777Y-13157650D01*
X3536777Y-13157650D02*
X3555824Y-13167174D01*
X3555824Y-13167174D02*
X3565348Y-13186222D01*
X3565348Y-13186222D02*
X3565348Y-13290984D01*
X3660586Y-13290984D02*
X3660586Y-13157650D01*
X3660586Y-13176698D02*
X3670110Y-13167174D01*
X3670110Y-13167174D02*
X3689158Y-13157650D01*
X3689158Y-13157650D02*
X3717729Y-13157650D01*
X3717729Y-13157650D02*
X3736777Y-13167174D01*
X3736777Y-13167174D02*
X3746301Y-13186222D01*
X3746301Y-13186222D02*
X3746301Y-13290984D01*
X3746301Y-13186222D02*
X3755824Y-13167174D01*
X3755824Y-13167174D02*
X3774872Y-13157650D01*
X3774872Y-13157650D02*
X3803443Y-13157650D01*
X3803443Y-13157650D02*
X3822491Y-13167174D01*
X3822491Y-13167174D02*
X3832015Y-13186222D01*
X3832015Y-13186222D02*
X3832015Y-13290984D01*
X4222491Y-13081460D02*
X4051063Y-13338603D01*
X4479634Y-13090984D02*
X4498682Y-13090984D01*
X4498682Y-13090984D02*
X4517729Y-13100508D01*
X4517729Y-13100508D02*
X4527253Y-13110031D01*
X4527253Y-13110031D02*
X4536777Y-13129079D01*
X4536777Y-13129079D02*
X4546301Y-13167174D01*
X4546301Y-13167174D02*
X4546301Y-13214793D01*
X4546301Y-13214793D02*
X4536777Y-13252888D01*
X4536777Y-13252888D02*
X4527253Y-13271936D01*
X4527253Y-13271936D02*
X4517729Y-13281460D01*
X4517729Y-13281460D02*
X4498682Y-13290984D01*
X4498682Y-13290984D02*
X4479634Y-13290984D01*
X4479634Y-13290984D02*
X4460587Y-13281460D01*
X4460587Y-13281460D02*
X4451063Y-13271936D01*
X4451063Y-13271936D02*
X4441539Y-13252888D01*
X4441539Y-13252888D02*
X4432015Y-13214793D01*
X4432015Y-13214793D02*
X4432015Y-13167174D01*
X4432015Y-13167174D02*
X4441539Y-13129079D01*
X4441539Y-13129079D02*
X4451063Y-13110031D01*
X4451063Y-13110031D02*
X4460587Y-13100508D01*
X4460587Y-13100508D02*
X4479634Y-13090984D01*
X4632015Y-13271936D02*
X4641539Y-13281460D01*
X4641539Y-13281460D02*
X4632015Y-13290984D01*
X4632015Y-13290984D02*
X4622491Y-13281460D01*
X4622491Y-13281460D02*
X4632015Y-13271936D01*
X4632015Y-13271936D02*
X4632015Y-13290984D01*
X4765348Y-13090984D02*
X4784396Y-13090984D01*
X4784396Y-13090984D02*
X4803444Y-13100508D01*
X4803444Y-13100508D02*
X4812968Y-13110031D01*
X4812968Y-13110031D02*
X4822491Y-13129079D01*
X4822491Y-13129079D02*
X4832015Y-13167174D01*
X4832015Y-13167174D02*
X4832015Y-13214793D01*
X4832015Y-13214793D02*
X4822491Y-13252888D01*
X4822491Y-13252888D02*
X4812968Y-13271936D01*
X4812968Y-13271936D02*
X4803444Y-13281460D01*
X4803444Y-13281460D02*
X4784396Y-13290984D01*
X4784396Y-13290984D02*
X4765348Y-13290984D01*
X4765348Y-13290984D02*
X4746301Y-13281460D01*
X4746301Y-13281460D02*
X4736777Y-13271936D01*
X4736777Y-13271936D02*
X4727253Y-13252888D01*
X4727253Y-13252888D02*
X4717729Y-13214793D01*
X4717729Y-13214793D02*
X4717729Y-13167174D01*
X4717729Y-13167174D02*
X4727253Y-13129079D01*
X4727253Y-13129079D02*
X4736777Y-13110031D01*
X4736777Y-13110031D02*
X4746301Y-13100508D01*
X4746301Y-13100508D02*
X4765348Y-13090984D01*
X4898682Y-13090984D02*
X5022491Y-13090984D01*
X5022491Y-13090984D02*
X4955825Y-13167174D01*
X4955825Y-13167174D02*
X4984396Y-13167174D01*
X4984396Y-13167174D02*
X5003444Y-13176698D01*
X5003444Y-13176698D02*
X5012968Y-13186222D01*
X5012968Y-13186222D02*
X5022491Y-13205269D01*
X5022491Y-13205269D02*
X5022491Y-13252888D01*
X5022491Y-13252888D02*
X5012968Y-13271936D01*
X5012968Y-13271936D02*
X5003444Y-13281460D01*
X5003444Y-13281460D02*
X4984396Y-13290984D01*
X4984396Y-13290984D02*
X4927253Y-13290984D01*
X4927253Y-13290984D02*
X4908206Y-13281460D01*
X4908206Y-13281460D02*
X4898682Y-13271936D01*
X5117729Y-13290984D02*
X5155825Y-13290984D01*
X5155825Y-13290984D02*
X5174872Y-13281460D01*
X5174872Y-13281460D02*
X5184396Y-13271936D01*
X5184396Y-13271936D02*
X5203444Y-13243365D01*
X5203444Y-13243365D02*
X5212968Y-13205269D01*
X5212968Y-13205269D02*
X5212968Y-13129079D01*
X5212968Y-13129079D02*
X5203444Y-13110031D01*
X5203444Y-13110031D02*
X5193920Y-13100508D01*
X5193920Y-13100508D02*
X5174872Y-13090984D01*
X5174872Y-13090984D02*
X5136777Y-13090984D01*
X5136777Y-13090984D02*
X5117729Y-13100508D01*
X5117729Y-13100508D02*
X5108206Y-13110031D01*
X5108206Y-13110031D02*
X5098682Y-13129079D01*
X5098682Y-13129079D02*
X5098682Y-13176698D01*
X5098682Y-13176698D02*
X5108206Y-13195746D01*
X5108206Y-13195746D02*
X5117729Y-13205269D01*
X5117729Y-13205269D02*
X5136777Y-13214793D01*
X5136777Y-13214793D02*
X5174872Y-13214793D01*
X5174872Y-13214793D02*
X5193920Y-13205269D01*
X5193920Y-13205269D02*
X5203444Y-13195746D01*
X5203444Y-13195746D02*
X5212968Y-13176698D01*
X5384396Y-13157650D02*
X5384396Y-13290984D01*
X5336777Y-13081460D02*
X5289158Y-13224317D01*
X5289158Y-13224317D02*
X5412968Y-13224317D01*
X5479634Y-13090984D02*
X5479634Y-13129079D01*
X5555825Y-13090984D02*
X5555825Y-13129079D01*
X5851063Y-13367174D02*
X5841539Y-13357650D01*
X5841539Y-13357650D02*
X5822491Y-13329079D01*
X5822491Y-13329079D02*
X5812968Y-13310031D01*
X5812968Y-13310031D02*
X5803444Y-13281460D01*
X5803444Y-13281460D02*
X5793920Y-13233841D01*
X5793920Y-13233841D02*
X5793920Y-13195746D01*
X5793920Y-13195746D02*
X5803444Y-13148127D01*
X5803444Y-13148127D02*
X5812968Y-13119555D01*
X5812968Y-13119555D02*
X5822491Y-13100508D01*
X5822491Y-13100508D02*
X5841539Y-13071936D01*
X5841539Y-13071936D02*
X5851063Y-13062412D01*
X6012968Y-13157650D02*
X6012968Y-13290984D01*
X5965348Y-13081460D02*
X5917729Y-13224317D01*
X5917729Y-13224317D02*
X6041539Y-13224317D01*
X6108206Y-13110031D02*
X6117729Y-13100508D01*
X6117729Y-13100508D02*
X6136777Y-13090984D01*
X6136777Y-13090984D02*
X6184396Y-13090984D01*
X6184396Y-13090984D02*
X6203444Y-13100508D01*
X6203444Y-13100508D02*
X6212968Y-13110031D01*
X6212968Y-13110031D02*
X6222491Y-13129079D01*
X6222491Y-13129079D02*
X6222491Y-13148127D01*
X6222491Y-13148127D02*
X6212968Y-13176698D01*
X6212968Y-13176698D02*
X6098682Y-13290984D01*
X6098682Y-13290984D02*
X6222491Y-13290984D01*
X6460587Y-13290984D02*
X6460587Y-13090984D01*
X6546301Y-13290984D02*
X6546301Y-13186222D01*
X6546301Y-13186222D02*
X6536777Y-13167174D01*
X6536777Y-13167174D02*
X6517730Y-13157650D01*
X6517730Y-13157650D02*
X6489158Y-13157650D01*
X6489158Y-13157650D02*
X6470110Y-13167174D01*
X6470110Y-13167174D02*
X6460587Y-13176698D01*
X6670110Y-13290984D02*
X6651063Y-13281460D01*
X6651063Y-13281460D02*
X6641539Y-13271936D01*
X6641539Y-13271936D02*
X6632015Y-13252888D01*
X6632015Y-13252888D02*
X6632015Y-13195746D01*
X6632015Y-13195746D02*
X6641539Y-13176698D01*
X6641539Y-13176698D02*
X6651063Y-13167174D01*
X6651063Y-13167174D02*
X6670110Y-13157650D01*
X6670110Y-13157650D02*
X6698682Y-13157650D01*
X6698682Y-13157650D02*
X6717730Y-13167174D01*
X6717730Y-13167174D02*
X6727253Y-13176698D01*
X6727253Y-13176698D02*
X6736777Y-13195746D01*
X6736777Y-13195746D02*
X6736777Y-13252888D01*
X6736777Y-13252888D02*
X6727253Y-13271936D01*
X6727253Y-13271936D02*
X6717730Y-13281460D01*
X6717730Y-13281460D02*
X6698682Y-13290984D01*
X6698682Y-13290984D02*
X6670110Y-13290984D01*
X6851063Y-13290984D02*
X6832015Y-13281460D01*
X6832015Y-13281460D02*
X6822491Y-13262412D01*
X6822491Y-13262412D02*
X6822491Y-13090984D01*
X7003444Y-13281460D02*
X6984396Y-13290984D01*
X6984396Y-13290984D02*
X6946301Y-13290984D01*
X6946301Y-13290984D02*
X6927253Y-13281460D01*
X6927253Y-13281460D02*
X6917730Y-13262412D01*
X6917730Y-13262412D02*
X6917730Y-13186222D01*
X6917730Y-13186222D02*
X6927253Y-13167174D01*
X6927253Y-13167174D02*
X6946301Y-13157650D01*
X6946301Y-13157650D02*
X6984396Y-13157650D01*
X6984396Y-13157650D02*
X7003444Y-13167174D01*
X7003444Y-13167174D02*
X7012968Y-13186222D01*
X7012968Y-13186222D02*
X7012968Y-13205269D01*
X7012968Y-13205269D02*
X6917730Y-13224317D01*
X7089158Y-13281460D02*
X7108206Y-13290984D01*
X7108206Y-13290984D02*
X7146301Y-13290984D01*
X7146301Y-13290984D02*
X7165349Y-13281460D01*
X7165349Y-13281460D02*
X7174872Y-13262412D01*
X7174872Y-13262412D02*
X7174872Y-13252888D01*
X7174872Y-13252888D02*
X7165349Y-13233841D01*
X7165349Y-13233841D02*
X7146301Y-13224317D01*
X7146301Y-13224317D02*
X7117730Y-13224317D01*
X7117730Y-13224317D02*
X7098682Y-13214793D01*
X7098682Y-13214793D02*
X7089158Y-13195746D01*
X7089158Y-13195746D02*
X7089158Y-13186222D01*
X7089158Y-13186222D02*
X7098682Y-13167174D01*
X7098682Y-13167174D02*
X7117730Y-13157650D01*
X7117730Y-13157650D02*
X7146301Y-13157650D01*
X7146301Y-13157650D02*
X7165349Y-13167174D01*
X7412968Y-13214793D02*
X7565349Y-13214793D01*
X7489158Y-13290984D02*
X7489158Y-13138603D01*
X7793920Y-13090984D02*
X7927253Y-13090984D01*
X7927253Y-13090984D02*
X7841539Y-13290984D01*
X8098682Y-13090984D02*
X8003444Y-13090984D01*
X8003444Y-13090984D02*
X7993920Y-13186222D01*
X7993920Y-13186222D02*
X8003444Y-13176698D01*
X8003444Y-13176698D02*
X8022492Y-13167174D01*
X8022492Y-13167174D02*
X8070111Y-13167174D01*
X8070111Y-13167174D02*
X8089158Y-13176698D01*
X8089158Y-13176698D02*
X8098682Y-13186222D01*
X8098682Y-13186222D02*
X8108206Y-13205269D01*
X8108206Y-13205269D02*
X8108206Y-13252888D01*
X8108206Y-13252888D02*
X8098682Y-13271936D01*
X8098682Y-13271936D02*
X8089158Y-13281460D01*
X8089158Y-13281460D02*
X8070111Y-13290984D01*
X8070111Y-13290984D02*
X8022492Y-13290984D01*
X8022492Y-13290984D02*
X8003444Y-13281460D01*
X8003444Y-13281460D02*
X7993920Y-13271936D01*
X8336777Y-13281460D02*
X8355825Y-13290984D01*
X8355825Y-13290984D02*
X8393920Y-13290984D01*
X8393920Y-13290984D02*
X8412968Y-13281460D01*
X8412968Y-13281460D02*
X8422492Y-13262412D01*
X8422492Y-13262412D02*
X8422492Y-13252888D01*
X8422492Y-13252888D02*
X8412968Y-13233841D01*
X8412968Y-13233841D02*
X8393920Y-13224317D01*
X8393920Y-13224317D02*
X8365349Y-13224317D01*
X8365349Y-13224317D02*
X8346301Y-13214793D01*
X8346301Y-13214793D02*
X8336777Y-13195746D01*
X8336777Y-13195746D02*
X8336777Y-13186222D01*
X8336777Y-13186222D02*
X8346301Y-13167174D01*
X8346301Y-13167174D02*
X8365349Y-13157650D01*
X8365349Y-13157650D02*
X8393920Y-13157650D01*
X8393920Y-13157650D02*
X8412968Y-13167174D01*
X8536777Y-13290984D02*
X8517730Y-13281460D01*
X8517730Y-13281460D02*
X8508206Y-13262412D01*
X8508206Y-13262412D02*
X8508206Y-13090984D01*
X8641539Y-13290984D02*
X8622492Y-13281460D01*
X8622492Y-13281460D02*
X8612968Y-13271936D01*
X8612968Y-13271936D02*
X8603444Y-13252888D01*
X8603444Y-13252888D02*
X8603444Y-13195746D01*
X8603444Y-13195746D02*
X8612968Y-13176698D01*
X8612968Y-13176698D02*
X8622492Y-13167174D01*
X8622492Y-13167174D02*
X8641539Y-13157650D01*
X8641539Y-13157650D02*
X8670111Y-13157650D01*
X8670111Y-13157650D02*
X8689158Y-13167174D01*
X8689158Y-13167174D02*
X8698682Y-13176698D01*
X8698682Y-13176698D02*
X8708206Y-13195746D01*
X8708206Y-13195746D02*
X8708206Y-13252888D01*
X8708206Y-13252888D02*
X8698682Y-13271936D01*
X8698682Y-13271936D02*
X8689158Y-13281460D01*
X8689158Y-13281460D02*
X8670111Y-13290984D01*
X8670111Y-13290984D02*
X8641539Y-13290984D01*
X8765349Y-13157650D02*
X8841539Y-13157650D01*
X8793920Y-13090984D02*
X8793920Y-13262412D01*
X8793920Y-13262412D02*
X8803444Y-13281460D01*
X8803444Y-13281460D02*
X8822492Y-13290984D01*
X8822492Y-13290984D02*
X8841539Y-13290984D01*
X8898682Y-13281460D02*
X8917730Y-13290984D01*
X8917730Y-13290984D02*
X8955825Y-13290984D01*
X8955825Y-13290984D02*
X8974873Y-13281460D01*
X8974873Y-13281460D02*
X8984397Y-13262412D01*
X8984397Y-13262412D02*
X8984397Y-13252888D01*
X8984397Y-13252888D02*
X8974873Y-13233841D01*
X8974873Y-13233841D02*
X8955825Y-13224317D01*
X8955825Y-13224317D02*
X8927254Y-13224317D01*
X8927254Y-13224317D02*
X8908206Y-13214793D01*
X8908206Y-13214793D02*
X8898682Y-13195746D01*
X8898682Y-13195746D02*
X8898682Y-13186222D01*
X8898682Y-13186222D02*
X8908206Y-13167174D01*
X8908206Y-13167174D02*
X8927254Y-13157650D01*
X8927254Y-13157650D02*
X8955825Y-13157650D01*
X8955825Y-13157650D02*
X8974873Y-13167174D01*
X9051063Y-13367174D02*
X9060587Y-13357650D01*
X9060587Y-13357650D02*
X9079635Y-13329079D01*
X9079635Y-13329079D02*
X9089158Y-13310031D01*
X9089158Y-13310031D02*
X9098682Y-13281460D01*
X9098682Y-13281460D02*
X9108206Y-13233841D01*
X9108206Y-13233841D02*
X9108206Y-13195746D01*
X9108206Y-13195746D02*
X9098682Y-13148127D01*
X9098682Y-13148127D02*
X9089158Y-13119555D01*
X9089158Y-13119555D02*
X9079635Y-13100508D01*
X9079635Y-13100508D02*
X9060587Y-13071936D01*
X9060587Y-13071936D02*
X9051063Y-13062412D01*
D12*
X2166000Y-13408500D02*
X2276000Y-13518500D01*
X2276000Y-13408500D02*
X2166000Y-13518500D01*
X2276000Y-13463500D02*
G75*
G02*
X2166000Y-13463500I-55000J0D01*
G01*
X2166000Y-13463500D02*
G75*
G02*
X2276000Y-13463500I55000J0D01*
G01*
D10*
X2641539Y-13554984D02*
X2527253Y-13554984D01*
X2584396Y-13554984D02*
X2584396Y-13354984D01*
X2584396Y-13354984D02*
X2565348Y-13383555D01*
X2565348Y-13383555D02*
X2546301Y-13402603D01*
X2546301Y-13402603D02*
X2527253Y-13412127D01*
X2727253Y-13535936D02*
X2736777Y-13545460D01*
X2736777Y-13545460D02*
X2727253Y-13554984D01*
X2727253Y-13554984D02*
X2717729Y-13545460D01*
X2717729Y-13545460D02*
X2727253Y-13535936D01*
X2727253Y-13535936D02*
X2727253Y-13554984D01*
X2927253Y-13554984D02*
X2812967Y-13554984D01*
X2870110Y-13554984D02*
X2870110Y-13354984D01*
X2870110Y-13354984D02*
X2851062Y-13383555D01*
X2851062Y-13383555D02*
X2832015Y-13402603D01*
X2832015Y-13402603D02*
X2812967Y-13412127D01*
X3051062Y-13354984D02*
X3070110Y-13354984D01*
X3070110Y-13354984D02*
X3089158Y-13364508D01*
X3089158Y-13364508D02*
X3098682Y-13374031D01*
X3098682Y-13374031D02*
X3108205Y-13393079D01*
X3108205Y-13393079D02*
X3117729Y-13431174D01*
X3117729Y-13431174D02*
X3117729Y-13478793D01*
X3117729Y-13478793D02*
X3108205Y-13516888D01*
X3108205Y-13516888D02*
X3098682Y-13535936D01*
X3098682Y-13535936D02*
X3089158Y-13545460D01*
X3089158Y-13545460D02*
X3070110Y-13554984D01*
X3070110Y-13554984D02*
X3051062Y-13554984D01*
X3051062Y-13554984D02*
X3032015Y-13545460D01*
X3032015Y-13545460D02*
X3022491Y-13535936D01*
X3022491Y-13535936D02*
X3012967Y-13516888D01*
X3012967Y-13516888D02*
X3003443Y-13478793D01*
X3003443Y-13478793D02*
X3003443Y-13431174D01*
X3003443Y-13431174D02*
X3012967Y-13393079D01*
X3012967Y-13393079D02*
X3022491Y-13374031D01*
X3022491Y-13374031D02*
X3032015Y-13364508D01*
X3032015Y-13364508D02*
X3051062Y-13354984D01*
X3241539Y-13354984D02*
X3260586Y-13354984D01*
X3260586Y-13354984D02*
X3279634Y-13364508D01*
X3279634Y-13364508D02*
X3289158Y-13374031D01*
X3289158Y-13374031D02*
X3298682Y-13393079D01*
X3298682Y-13393079D02*
X3308205Y-13431174D01*
X3308205Y-13431174D02*
X3308205Y-13478793D01*
X3308205Y-13478793D02*
X3298682Y-13516888D01*
X3298682Y-13516888D02*
X3289158Y-13535936D01*
X3289158Y-13535936D02*
X3279634Y-13545460D01*
X3279634Y-13545460D02*
X3260586Y-13554984D01*
X3260586Y-13554984D02*
X3241539Y-13554984D01*
X3241539Y-13554984D02*
X3222491Y-13545460D01*
X3222491Y-13545460D02*
X3212967Y-13535936D01*
X3212967Y-13535936D02*
X3203443Y-13516888D01*
X3203443Y-13516888D02*
X3193920Y-13478793D01*
X3193920Y-13478793D02*
X3193920Y-13431174D01*
X3193920Y-13431174D02*
X3203443Y-13393079D01*
X3203443Y-13393079D02*
X3212967Y-13374031D01*
X3212967Y-13374031D02*
X3222491Y-13364508D01*
X3222491Y-13364508D02*
X3241539Y-13354984D01*
X3393920Y-13554984D02*
X3393920Y-13421650D01*
X3393920Y-13440698D02*
X3403443Y-13431174D01*
X3403443Y-13431174D02*
X3422491Y-13421650D01*
X3422491Y-13421650D02*
X3451063Y-13421650D01*
X3451063Y-13421650D02*
X3470110Y-13431174D01*
X3470110Y-13431174D02*
X3479634Y-13450222D01*
X3479634Y-13450222D02*
X3479634Y-13554984D01*
X3479634Y-13450222D02*
X3489158Y-13431174D01*
X3489158Y-13431174D02*
X3508205Y-13421650D01*
X3508205Y-13421650D02*
X3536777Y-13421650D01*
X3536777Y-13421650D02*
X3555824Y-13431174D01*
X3555824Y-13431174D02*
X3565348Y-13450222D01*
X3565348Y-13450222D02*
X3565348Y-13554984D01*
X3660586Y-13554984D02*
X3660586Y-13421650D01*
X3660586Y-13440698D02*
X3670110Y-13431174D01*
X3670110Y-13431174D02*
X3689158Y-13421650D01*
X3689158Y-13421650D02*
X3717729Y-13421650D01*
X3717729Y-13421650D02*
X3736777Y-13431174D01*
X3736777Y-13431174D02*
X3746301Y-13450222D01*
X3746301Y-13450222D02*
X3746301Y-13554984D01*
X3746301Y-13450222D02*
X3755824Y-13431174D01*
X3755824Y-13431174D02*
X3774872Y-13421650D01*
X3774872Y-13421650D02*
X3803443Y-13421650D01*
X3803443Y-13421650D02*
X3822491Y-13431174D01*
X3822491Y-13431174D02*
X3832015Y-13450222D01*
X3832015Y-13450222D02*
X3832015Y-13554984D01*
X4222491Y-13345460D02*
X4051063Y-13602603D01*
X4479634Y-13354984D02*
X4498682Y-13354984D01*
X4498682Y-13354984D02*
X4517729Y-13364508D01*
X4517729Y-13364508D02*
X4527253Y-13374031D01*
X4527253Y-13374031D02*
X4536777Y-13393079D01*
X4536777Y-13393079D02*
X4546301Y-13431174D01*
X4546301Y-13431174D02*
X4546301Y-13478793D01*
X4546301Y-13478793D02*
X4536777Y-13516888D01*
X4536777Y-13516888D02*
X4527253Y-13535936D01*
X4527253Y-13535936D02*
X4517729Y-13545460D01*
X4517729Y-13545460D02*
X4498682Y-13554984D01*
X4498682Y-13554984D02*
X4479634Y-13554984D01*
X4479634Y-13554984D02*
X4460587Y-13545460D01*
X4460587Y-13545460D02*
X4451063Y-13535936D01*
X4451063Y-13535936D02*
X4441539Y-13516888D01*
X4441539Y-13516888D02*
X4432015Y-13478793D01*
X4432015Y-13478793D02*
X4432015Y-13431174D01*
X4432015Y-13431174D02*
X4441539Y-13393079D01*
X4441539Y-13393079D02*
X4451063Y-13374031D01*
X4451063Y-13374031D02*
X4460587Y-13364508D01*
X4460587Y-13364508D02*
X4479634Y-13354984D01*
X4632015Y-13535936D02*
X4641539Y-13545460D01*
X4641539Y-13545460D02*
X4632015Y-13554984D01*
X4632015Y-13554984D02*
X4622491Y-13545460D01*
X4622491Y-13545460D02*
X4632015Y-13535936D01*
X4632015Y-13535936D02*
X4632015Y-13554984D01*
X4765348Y-13354984D02*
X4784396Y-13354984D01*
X4784396Y-13354984D02*
X4803444Y-13364508D01*
X4803444Y-13364508D02*
X4812968Y-13374031D01*
X4812968Y-13374031D02*
X4822491Y-13393079D01*
X4822491Y-13393079D02*
X4832015Y-13431174D01*
X4832015Y-13431174D02*
X4832015Y-13478793D01*
X4832015Y-13478793D02*
X4822491Y-13516888D01*
X4822491Y-13516888D02*
X4812968Y-13535936D01*
X4812968Y-13535936D02*
X4803444Y-13545460D01*
X4803444Y-13545460D02*
X4784396Y-13554984D01*
X4784396Y-13554984D02*
X4765348Y-13554984D01*
X4765348Y-13554984D02*
X4746301Y-13545460D01*
X4746301Y-13545460D02*
X4736777Y-13535936D01*
X4736777Y-13535936D02*
X4727253Y-13516888D01*
X4727253Y-13516888D02*
X4717729Y-13478793D01*
X4717729Y-13478793D02*
X4717729Y-13431174D01*
X4717729Y-13431174D02*
X4727253Y-13393079D01*
X4727253Y-13393079D02*
X4736777Y-13374031D01*
X4736777Y-13374031D02*
X4746301Y-13364508D01*
X4746301Y-13364508D02*
X4765348Y-13354984D01*
X5003444Y-13421650D02*
X5003444Y-13554984D01*
X4955825Y-13345460D02*
X4908206Y-13488317D01*
X4908206Y-13488317D02*
X5032015Y-13488317D01*
X5089158Y-13354984D02*
X5212968Y-13354984D01*
X5212968Y-13354984D02*
X5146301Y-13431174D01*
X5146301Y-13431174D02*
X5174872Y-13431174D01*
X5174872Y-13431174D02*
X5193920Y-13440698D01*
X5193920Y-13440698D02*
X5203444Y-13450222D01*
X5203444Y-13450222D02*
X5212968Y-13469269D01*
X5212968Y-13469269D02*
X5212968Y-13516888D01*
X5212968Y-13516888D02*
X5203444Y-13535936D01*
X5203444Y-13535936D02*
X5193920Y-13545460D01*
X5193920Y-13545460D02*
X5174872Y-13554984D01*
X5174872Y-13554984D02*
X5117729Y-13554984D01*
X5117729Y-13554984D02*
X5098682Y-13545460D01*
X5098682Y-13545460D02*
X5089158Y-13535936D01*
X5279634Y-13354984D02*
X5403444Y-13354984D01*
X5403444Y-13354984D02*
X5336777Y-13431174D01*
X5336777Y-13431174D02*
X5365349Y-13431174D01*
X5365349Y-13431174D02*
X5384396Y-13440698D01*
X5384396Y-13440698D02*
X5393920Y-13450222D01*
X5393920Y-13450222D02*
X5403444Y-13469269D01*
X5403444Y-13469269D02*
X5403444Y-13516888D01*
X5403444Y-13516888D02*
X5393920Y-13535936D01*
X5393920Y-13535936D02*
X5384396Y-13545460D01*
X5384396Y-13545460D02*
X5365349Y-13554984D01*
X5365349Y-13554984D02*
X5308206Y-13554984D01*
X5308206Y-13554984D02*
X5289158Y-13545460D01*
X5289158Y-13545460D02*
X5279634Y-13535936D01*
X5479634Y-13354984D02*
X5479634Y-13393079D01*
X5555825Y-13354984D02*
X5555825Y-13393079D01*
X5851063Y-13631174D02*
X5841539Y-13621650D01*
X5841539Y-13621650D02*
X5822491Y-13593079D01*
X5822491Y-13593079D02*
X5812968Y-13574031D01*
X5812968Y-13574031D02*
X5803444Y-13545460D01*
X5803444Y-13545460D02*
X5793920Y-13497841D01*
X5793920Y-13497841D02*
X5793920Y-13459746D01*
X5793920Y-13459746D02*
X5803444Y-13412127D01*
X5803444Y-13412127D02*
X5812968Y-13383555D01*
X5812968Y-13383555D02*
X5822491Y-13364508D01*
X5822491Y-13364508D02*
X5841539Y-13335936D01*
X5841539Y-13335936D02*
X5851063Y-13326412D01*
X5917729Y-13374031D02*
X5927253Y-13364508D01*
X5927253Y-13364508D02*
X5946301Y-13354984D01*
X5946301Y-13354984D02*
X5993920Y-13354984D01*
X5993920Y-13354984D02*
X6012968Y-13364508D01*
X6012968Y-13364508D02*
X6022491Y-13374031D01*
X6022491Y-13374031D02*
X6032015Y-13393079D01*
X6032015Y-13393079D02*
X6032015Y-13412127D01*
X6032015Y-13412127D02*
X6022491Y-13440698D01*
X6022491Y-13440698D02*
X5908206Y-13554984D01*
X5908206Y-13554984D02*
X6032015Y-13554984D01*
X6270110Y-13554984D02*
X6270110Y-13354984D01*
X6355825Y-13554984D02*
X6355825Y-13450222D01*
X6355825Y-13450222D02*
X6346301Y-13431174D01*
X6346301Y-13431174D02*
X6327253Y-13421650D01*
X6327253Y-13421650D02*
X6298682Y-13421650D01*
X6298682Y-13421650D02*
X6279634Y-13431174D01*
X6279634Y-13431174D02*
X6270110Y-13440698D01*
X6479634Y-13554984D02*
X6460587Y-13545460D01*
X6460587Y-13545460D02*
X6451063Y-13535936D01*
X6451063Y-13535936D02*
X6441539Y-13516888D01*
X6441539Y-13516888D02*
X6441539Y-13459746D01*
X6441539Y-13459746D02*
X6451063Y-13440698D01*
X6451063Y-13440698D02*
X6460587Y-13431174D01*
X6460587Y-13431174D02*
X6479634Y-13421650D01*
X6479634Y-13421650D02*
X6508206Y-13421650D01*
X6508206Y-13421650D02*
X6527253Y-13431174D01*
X6527253Y-13431174D02*
X6536777Y-13440698D01*
X6536777Y-13440698D02*
X6546301Y-13459746D01*
X6546301Y-13459746D02*
X6546301Y-13516888D01*
X6546301Y-13516888D02*
X6536777Y-13535936D01*
X6536777Y-13535936D02*
X6527253Y-13545460D01*
X6527253Y-13545460D02*
X6508206Y-13554984D01*
X6508206Y-13554984D02*
X6479634Y-13554984D01*
X6660587Y-13554984D02*
X6641539Y-13545460D01*
X6641539Y-13545460D02*
X6632015Y-13526412D01*
X6632015Y-13526412D02*
X6632015Y-13354984D01*
X6812968Y-13545460D02*
X6793920Y-13554984D01*
X6793920Y-13554984D02*
X6755825Y-13554984D01*
X6755825Y-13554984D02*
X6736777Y-13545460D01*
X6736777Y-13545460D02*
X6727253Y-13526412D01*
X6727253Y-13526412D02*
X6727253Y-13450222D01*
X6727253Y-13450222D02*
X6736777Y-13431174D01*
X6736777Y-13431174D02*
X6755825Y-13421650D01*
X6755825Y-13421650D02*
X6793920Y-13421650D01*
X6793920Y-13421650D02*
X6812968Y-13431174D01*
X6812968Y-13431174D02*
X6822491Y-13450222D01*
X6822491Y-13450222D02*
X6822491Y-13469269D01*
X6822491Y-13469269D02*
X6727253Y-13488317D01*
X6898682Y-13545460D02*
X6917730Y-13554984D01*
X6917730Y-13554984D02*
X6955825Y-13554984D01*
X6955825Y-13554984D02*
X6974872Y-13545460D01*
X6974872Y-13545460D02*
X6984396Y-13526412D01*
X6984396Y-13526412D02*
X6984396Y-13516888D01*
X6984396Y-13516888D02*
X6974872Y-13497841D01*
X6974872Y-13497841D02*
X6955825Y-13488317D01*
X6955825Y-13488317D02*
X6927253Y-13488317D01*
X6927253Y-13488317D02*
X6908206Y-13478793D01*
X6908206Y-13478793D02*
X6898682Y-13459746D01*
X6898682Y-13459746D02*
X6898682Y-13450222D01*
X6898682Y-13450222D02*
X6908206Y-13431174D01*
X6908206Y-13431174D02*
X6927253Y-13421650D01*
X6927253Y-13421650D02*
X6955825Y-13421650D01*
X6955825Y-13421650D02*
X6974872Y-13431174D01*
X7051063Y-13631174D02*
X7060587Y-13621650D01*
X7060587Y-13621650D02*
X7079634Y-13593079D01*
X7079634Y-13593079D02*
X7089158Y-13574031D01*
X7089158Y-13574031D02*
X7098682Y-13545460D01*
X7098682Y-13545460D02*
X7108206Y-13497841D01*
X7108206Y-13497841D02*
X7108206Y-13459746D01*
X7108206Y-13459746D02*
X7098682Y-13412127D01*
X7098682Y-13412127D02*
X7089158Y-13383555D01*
X7089158Y-13383555D02*
X7079634Y-13364508D01*
X7079634Y-13364508D02*
X7060587Y-13335936D01*
X7060587Y-13335936D02*
X7051063Y-13326412D01*
M02*
