G04 #@! TF.GenerationSoftware,KiCad,Pcbnew,10.0.5*
G04 #@! TF.CreationDate,2026-08-07T17:16:46+02:00*
G04 #@! TF.ProjectId,motherboard,6d6f7468-6572-4626-9f61-72642e6b6963,rev?*
G04 #@! TF.SameCoordinates,Original*
G04 #@! TF.FileFunction,Soldermask,Bot*
G04 #@! TF.FilePolarity,Negative*
%FSLAX46Y46*%
G04 Gerber Fmt 4.6, Leading zero omitted, Abs format (unit mm)*
G04 Created by KiCad (PCBNEW 10.0.5) date 2026-08-07 17:16:46*
%MOMM*%
%LPD*%
G01*
G04 APERTURE LIST*
G04 Aperture macros list*
%AMRoundRect*
0 Rectangle with rounded corners*
0 $1 Rounding radius*
0 $2 $3 $4 $5 $6 $7 $8 $9 X,Y pos of 4 corners*
0 Add a 4 corners polygon primitive as box body*
4,1,4,$2,$3,$4,$5,$6,$7,$8,$9,$2,$3,0*
0 Add four circle primitives for the rounded corners*
1,1,$1+$1,$2,$3*
1,1,$1+$1,$4,$5*
1,1,$1+$1,$6,$7*
1,1,$1+$1,$8,$9*
0 Add four rect primitives between the rounded corners*
20,1,$1+$1,$2,$3,$4,$5,0*
20,1,$1+$1,$4,$5,$6,$7,0*
20,1,$1+$1,$6,$7,$8,$9,0*
20,1,$1+$1,$8,$9,$2,$3,0*%
G04 Aperture macros list end*
%ADD10C,1.400000*%
%ADD11C,1.600000*%
%ADD12C,3.200000*%
%ADD13RoundRect,0.187500X-0.412500X0.612500X-0.412500X-0.612500X0.412500X-0.612500X0.412500X0.612500X0*%
%ADD14RoundRect,0.250000X-0.350000X0.550000X-0.350000X-0.550000X0.350000X-0.550000X0.350000X0.550000X0*%
%ADD15RoundRect,0.214286X-0.385714X0.585714X-0.385714X-0.585714X0.385714X-0.585714X0.385714X0.585714X0*%
%ADD16RoundRect,0.249999X-0.850001X0.850001X-0.850001X-0.850001X0.850001X-0.850001X0.850001X0.850001X0*%
%ADD17C,2.200000*%
%ADD18RoundRect,0.250000X0.550000X-0.550000X0.550000X0.550000X-0.550000X0.550000X-0.550000X-0.550000X0*%
%ADD19RoundRect,0.250000X-0.550000X0.550000X-0.550000X-0.550000X0.550000X-0.550000X0.550000X0.550000X0*%
%ADD20R,1.200000X1.700000*%
%ADD21RoundRect,0.250000X-0.450000X0.550000X-0.450000X-0.550000X0.450000X-0.550000X0.450000X0.550000X0*%
%ADD22C,1.700000*%
%ADD23C,1.200000*%
%ADD24R,1.700000X1.700000*%
%ADD25RoundRect,0.249999X-0.850001X-0.850001X0.850001X-0.850001X0.850001X0.850001X-0.850001X0.850001X0*%
%ADD26C,0.650000*%
%ADD27RoundRect,0.100000X0.650000X-0.100000X0.650000X0.100000X-0.650000X0.100000X-0.650000X-0.100000X0*%
%ADD28RoundRect,0.075000X0.575000X-0.075000X0.575000X0.075000X-0.575000X0.075000X-0.575000X-0.075000X0*%
%ADD29O,1.600000X1.000000*%
%ADD30O,2.100000X1.000000*%
%ADD31RoundRect,0.250000X-0.450000X0.262500X-0.450000X-0.262500X0.450000X-0.262500X0.450000X0.262500X0*%
%ADD32RoundRect,0.250000X0.450000X-0.262500X0.450000X0.262500X-0.450000X0.262500X-0.450000X-0.262500X0*%
%ADD33R,1.800000X1.800000*%
%ADD34C,1.800000*%
%ADD35RoundRect,0.250000X-0.475000X0.250000X-0.475000X-0.250000X0.475000X-0.250000X0.475000X0.250000X0*%
G04 APERTURE END LIST*
D10*
G04 #@! TO.C,R45*
X121285000Y-48260000D03*
X121285000Y-53339999D03*
G04 #@! TD*
G04 #@! TO.C,R44*
X124435000Y-48260000D03*
X124435000Y-53339999D03*
G04 #@! TD*
G04 #@! TO.C,R43*
X127585000Y-48260000D03*
X127585000Y-53339999D03*
G04 #@! TD*
G04 #@! TO.C,R41*
X91737499Y-107910000D03*
X86657500Y-107910000D03*
G04 #@! TD*
D11*
G04 #@! TO.C,C7*
X179785000Y-33655000D03*
X184785000Y-33655000D03*
G04 #@! TD*
D10*
G04 #@! TO.C,R1*
X127635000Y-75897503D03*
X132715000Y-75897503D03*
G04 #@! TD*
D12*
G04 #@! TO.C,H4*
X81026000Y-117856000D03*
G04 #@! TD*
G04 #@! TO.C,H1*
X81026000Y-37846000D03*
G04 #@! TD*
D13*
G04 #@! TO.C,U6*
X168910000Y-95250000D03*
D14*
X166370000Y-95250000D03*
X163830000Y-95250000D03*
X161290000Y-95250000D03*
D11*
X158750000Y-95250000D03*
X156210000Y-95250000D03*
X153670000Y-95250000D03*
X151130000Y-95250000D03*
X148590000Y-95250000D03*
D14*
X146050000Y-95250000D03*
X143510000Y-95250000D03*
D11*
X140970000Y-95250000D03*
D14*
X138430000Y-95250000D03*
X135890000Y-95250000D03*
D11*
X135890000Y-110490000D03*
X138430000Y-110490000D03*
X140970000Y-110490000D03*
X143510000Y-110490000D03*
X146050000Y-110490000D03*
X148590000Y-110490000D03*
X151130000Y-110490000D03*
D10*
X153670000Y-110490000D03*
D15*
X156210000Y-110490000D03*
D13*
X158750000Y-110490000D03*
D11*
X161290000Y-110490000D03*
D15*
X163830000Y-110490000D03*
X166370000Y-110490000D03*
D11*
X168910000Y-110490000D03*
G04 #@! TD*
D16*
G04 #@! TO.C,D2*
X82500000Y-67000000D03*
D17*
X82500000Y-77160000D03*
G04 #@! TD*
D11*
G04 #@! TO.C,C4*
X91737500Y-100290000D03*
X86737500Y-100290000D03*
G04 #@! TD*
D18*
G04 #@! TO.C,U9*
X179070000Y-77470000D03*
D11*
X181610000Y-77470000D03*
X184149999Y-77470000D03*
X186690000Y-77470000D03*
X189230000Y-77470000D03*
X191770000Y-77470000D03*
X194310000Y-77470000D03*
X194310000Y-69850000D03*
X191770000Y-69850000D03*
X189230000Y-69850000D03*
X186690000Y-69850000D03*
X184150000Y-69850000D03*
X181610000Y-69850000D03*
X179070000Y-69850000D03*
G04 #@! TD*
D18*
G04 #@! TO.C,U8*
X96817500Y-111720000D03*
D11*
X99357500Y-111720000D03*
X101897499Y-111720000D03*
X104437500Y-111720000D03*
X104437500Y-104100000D03*
X101897500Y-104100000D03*
X99357500Y-104100000D03*
X96817500Y-104100000D03*
G04 #@! TD*
G04 #@! TO.C,C8*
X91709479Y-114249906D03*
X86709479Y-114249906D03*
G04 #@! TD*
D19*
G04 #@! TO.C,U3*
X194350000Y-57150000D03*
D11*
X191810000Y-57150000D03*
X189270000Y-57150000D03*
X186730000Y-57150000D03*
X184190000Y-57150000D03*
X181650000Y-57150000D03*
X179110000Y-57150000D03*
X179110000Y-64770000D03*
X181650000Y-64770000D03*
X184190000Y-64770000D03*
X186730000Y-64770000D03*
X189270000Y-64770000D03*
X191810000Y-64770000D03*
X194350000Y-64770000D03*
G04 #@! TD*
D12*
G04 #@! TO.C,H2*
X220091000Y-37846000D03*
G04 #@! TD*
D19*
G04 #@! TO.C,U4*
X170180000Y-57150000D03*
D11*
X167640000Y-57150000D03*
X165100000Y-57150000D03*
X162560000Y-57150000D03*
X160020000Y-57150000D03*
X157480000Y-57150000D03*
X154940000Y-57150000D03*
X152400000Y-57150000D03*
X149860000Y-57150000D03*
X147320000Y-57150000D03*
X147320000Y-64770000D03*
X149860000Y-64770000D03*
X152400000Y-64770000D03*
X154940000Y-64770000D03*
X157480000Y-64770000D03*
X160020000Y-64770000D03*
X162560000Y-64770000D03*
X165100000Y-64770000D03*
X167640000Y-64770000D03*
X170180000Y-64770000D03*
G04 #@! TD*
D12*
G04 #@! TO.C,H3*
X220091000Y-117856000D03*
G04 #@! TD*
D11*
G04 #@! TO.C,C3*
X198247000Y-65151000D03*
X203247000Y-65151000D03*
G04 #@! TD*
D19*
G04 #@! TO.C,U7*
X168910000Y-31000000D03*
D11*
X166370000Y-31000000D03*
X163830000Y-31000000D03*
X161290000Y-31000000D03*
X158750000Y-31000000D03*
X156210000Y-31000000D03*
X153670000Y-31000000D03*
X151130000Y-31000000D03*
X148590000Y-31000000D03*
X146050000Y-31000000D03*
X143510000Y-31000000D03*
X140970000Y-31000000D03*
X138430000Y-31000000D03*
X135890000Y-31000000D03*
X135890000Y-46240000D03*
X138430000Y-46240000D03*
X140970000Y-46240000D03*
X143510000Y-46240000D03*
X146050000Y-46240000D03*
X148590000Y-46240000D03*
X151130000Y-46240000D03*
X153670000Y-46240000D03*
X156210000Y-46240000D03*
X158750000Y-46240000D03*
X161290000Y-46240000D03*
X163830000Y-46240000D03*
X166370000Y-46240000D03*
X168910000Y-46240000D03*
G04 #@! TD*
G04 #@! TO.C,C5*
X91697499Y-111085000D03*
X86697499Y-111085000D03*
G04 #@! TD*
D20*
G04 #@! TO.C,J3*
X163835000Y-81280000D03*
D14*
X161295000Y-81280000D03*
D21*
X158755000Y-81280000D03*
D14*
X156215000Y-81280000D03*
X153675000Y-81280000D03*
X151135000Y-81280000D03*
X148595000Y-81280000D03*
D22*
X146055000Y-81280000D03*
D14*
X143515000Y-81280000D03*
X140975000Y-81280000D03*
D22*
X138435000Y-81280000D03*
X135895000Y-81280000D03*
X133355000Y-81280000D03*
X130815000Y-81280000D03*
X128275000Y-81280000D03*
X125735000Y-81280000D03*
X123195000Y-81280000D03*
X120655000Y-81280000D03*
X118115000Y-81280000D03*
X115575000Y-81280000D03*
G04 #@! TD*
D18*
G04 #@! TO.C,C10*
X200660000Y-60645112D03*
D11*
X200660000Y-58645111D03*
G04 #@! TD*
D10*
G04 #@! TO.C,R42*
X115570000Y-75819000D03*
X110490001Y-75819000D03*
G04 #@! TD*
D11*
G04 #@! TO.C,C6*
X145923000Y-52578000D03*
X150923000Y-52578000D03*
G04 #@! TD*
D19*
G04 #@! TO.C,U1*
X163835000Y-71120000D03*
D11*
X161295000Y-71120000D03*
X158755000Y-71120000D03*
X156215000Y-71120000D03*
X153675000Y-71120000D03*
X151135000Y-71120000D03*
X148595000Y-71120000D03*
X146055000Y-71120000D03*
D23*
X143515000Y-71120000D03*
D11*
X140975000Y-71120000D03*
X140975000Y-78740000D03*
X143515000Y-78740000D03*
D23*
X146055000Y-78740000D03*
X148595000Y-78740000D03*
D11*
X151135000Y-78740000D03*
X153675000Y-78740000D03*
X156215000Y-78740000D03*
D10*
X158755000Y-78740000D03*
X161295000Y-78740000D03*
D11*
X163835000Y-78740000D03*
G04 #@! TD*
D24*
G04 #@! TO.C,J1*
X163830000Y-68580000D03*
D22*
X161290000Y-68580000D03*
X158750000Y-68580000D03*
X156210000Y-68580000D03*
X153670000Y-68580000D03*
X151130000Y-68580000D03*
X148590000Y-68580000D03*
X146050000Y-68580000D03*
X143510000Y-68580000D03*
X140970000Y-68580000D03*
X138430000Y-68580000D03*
X135890000Y-68580000D03*
X133350000Y-68580000D03*
X130810000Y-68580000D03*
X128270000Y-68580000D03*
X125730000Y-68580000D03*
X123190000Y-68580000D03*
X120650000Y-68580000D03*
X118110000Y-68580000D03*
X115570000Y-68580000D03*
G04 #@! TD*
D10*
G04 #@! TO.C,R51*
X176577771Y-30494373D03*
X171497772Y-30494373D03*
G04 #@! TD*
D11*
G04 #@! TO.C,C2*
X184787771Y-30494373D03*
X179787771Y-30494373D03*
G04 #@! TD*
D19*
G04 #@! TO.C,U5*
X142240000Y-57150000D03*
D11*
X139700000Y-57150000D03*
X137160000Y-57150000D03*
X134620000Y-57150000D03*
X132080000Y-57150000D03*
X129540000Y-57150000D03*
X127000000Y-57150000D03*
X124460000Y-57150000D03*
X121920000Y-57150000D03*
X119380000Y-57150000D03*
X119380000Y-64770000D03*
X121920000Y-64770000D03*
X124460000Y-64770000D03*
X127000000Y-64770000D03*
X129540000Y-64770000D03*
X132080000Y-64770000D03*
X134620000Y-64770000D03*
X137160000Y-64770000D03*
X139700000Y-64770000D03*
X142240000Y-64770000D03*
G04 #@! TD*
D10*
G04 #@! TO.C,R39*
X125984000Y-85725000D03*
X120904000Y-85725000D03*
G04 #@! TD*
G04 #@! TO.C,R40*
X86657499Y-105370000D03*
X91737498Y-105370000D03*
G04 #@! TD*
D25*
G04 #@! TO.C,D1*
X82500000Y-63500000D03*
D17*
X92660000Y-63500000D03*
G04 #@! TD*
D11*
G04 #@! TO.C,C1*
X125095000Y-76200000D03*
X120095000Y-76200000D03*
G04 #@! TD*
G04 #@! TO.C,C9*
X175260000Y-111125000D03*
X180260000Y-111125000D03*
G04 #@! TD*
D26*
G04 #@! TO.C,J4*
X83250000Y-54569436D03*
X83250000Y-48789436D03*
D27*
X84390000Y-54879436D03*
X84390000Y-54079436D03*
D28*
X84390000Y-52929436D03*
X84390000Y-51929436D03*
X84390000Y-51429436D03*
D27*
X84390000Y-49279436D03*
X84390000Y-48479436D03*
X84390000Y-48479436D03*
X84390000Y-49279436D03*
D28*
X84390000Y-49929436D03*
X84390000Y-50929436D03*
X84390000Y-52429436D03*
D27*
X84390000Y-54079436D03*
X84390000Y-54879436D03*
D29*
X79570000Y-55999436D03*
D30*
X83750000Y-55999436D03*
D29*
X79570000Y-47359436D03*
D30*
X83750000Y-47359436D03*
G04 #@! TD*
D31*
G04 #@! TO.C,R13*
X94284800Y-52986300D03*
X94284800Y-54811300D03*
G04 #@! TD*
D32*
G04 #@! TO.C,R14*
X94234000Y-49782100D03*
X94234000Y-47957100D03*
G04 #@! TD*
D33*
G04 #@! TO.C,RV1*
X83242499Y-107870000D03*
D34*
X83242499Y-105370000D03*
X83242499Y-102870000D03*
G04 #@! TD*
D35*
G04 #@! TO.C,C16*
X88265000Y-54320401D03*
X88265000Y-56220399D03*
G04 #@! TD*
M02*
