G04 #@! TF.GenerationSoftware,KiCad,Pcbnew,10.0.5*
G04 #@! TF.CreationDate,2026-08-07T17:16:46+02:00*
G04 #@! TF.ProjectId,motherboard,6d6f7468-6572-4626-9f61-72642e6b6963,rev?*
G04 #@! TF.SameCoordinates,Original*
G04 #@! TF.FileFunction,Legend,Top*
G04 #@! TF.FilePolarity,Positive*
%FSLAX46Y46*%
G04 Gerber Fmt 4.6, Leading zero omitted, Abs format (unit mm)*
G04 Created by KiCad (PCBNEW 10.0.5) date 2026-08-07 17:16:46*
%MOMM*%
%LPD*%
G01*
G04 APERTURE LIST*
G04 Aperture macros list*
%AMRoundRect*
0 Rectangle with rounded corners*
0 $1 Rounding radius*
0 $2 $3 $4 $5 $6 $7 $8 $9 X,Y pos of 4 corners*
0 Add a 4 corners polygon primitive as box body*
4,1,4,$2,$3,$4,$5,$6,$7,$8,$9,$2,$3,0*
0 Add four circle primitives for the rounded corners*
1,1,$1+$1,$2,$3*
1,1,$1+$1,$4,$5*
1,1,$1+$1,$6,$7*
1,1,$1+$1,$8,$9*
0 Add four rect primitives between the rounded corners*
20,1,$1+$1,$2,$3,$4,$5,0*
20,1,$1+$1,$4,$5,$6,$7,0*
20,1,$1+$1,$6,$7,$8,$9,0*
20,1,$1+$1,$8,$9,$2,$3,0*%
G04 Aperture macros list end*
%ADD10C,0.150000*%
%ADD11C,0.120000*%
%ADD12C,1.400000*%
%ADD13C,1.600000*%
%ADD14C,3.200000*%
%ADD15RoundRect,0.187500X-0.412500X0.612500X-0.412500X-0.612500X0.412500X-0.612500X0.412500X0.612500X0*%
%ADD16RoundRect,0.250000X-0.350000X0.550000X-0.350000X-0.550000X0.350000X-0.550000X0.350000X0.550000X0*%
%ADD17RoundRect,0.214286X-0.385714X0.585714X-0.385714X-0.585714X0.385714X-0.585714X0.385714X0.585714X0*%
%ADD18RoundRect,0.249999X-0.850001X0.850001X-0.850001X-0.850001X0.850001X-0.850001X0.850001X0.850001X0*%
%ADD19C,2.200000*%
%ADD20RoundRect,0.250000X0.550000X-0.550000X0.550000X0.550000X-0.550000X0.550000X-0.550000X-0.550000X0*%
%ADD21RoundRect,0.250000X-0.550000X0.550000X-0.550000X-0.550000X0.550000X-0.550000X0.550000X0.550000X0*%
%ADD22R,1.200000X1.700000*%
%ADD23RoundRect,0.250000X-0.450000X0.550000X-0.450000X-0.550000X0.450000X-0.550000X0.450000X0.550000X0*%
%ADD24C,1.700000*%
%ADD25C,1.200000*%
%ADD26R,1.700000X1.700000*%
%ADD27RoundRect,0.249999X-0.850001X-0.850001X0.850001X-0.850001X0.850001X0.850001X-0.850001X0.850001X0*%
%ADD28C,0.650000*%
%ADD29O,1.600000X1.000000*%
%ADD30O,2.100000X1.000000*%
%ADD31R,1.800000X1.800000*%
%ADD32C,1.800000*%
G04 APERTURE END LIST*
D10*
X121739819Y-51442857D02*
X121263628Y-51776190D01*
X121739819Y-52014285D02*
X120739819Y-52014285D01*
X120739819Y-52014285D02*
X120739819Y-51633333D01*
X120739819Y-51633333D02*
X120787438Y-51538095D01*
X120787438Y-51538095D02*
X120835057Y-51490476D01*
X120835057Y-51490476D02*
X120930295Y-51442857D01*
X120930295Y-51442857D02*
X121073152Y-51442857D01*
X121073152Y-51442857D02*
X121168390Y-51490476D01*
X121168390Y-51490476D02*
X121216009Y-51538095D01*
X121216009Y-51538095D02*
X121263628Y-51633333D01*
X121263628Y-51633333D02*
X121263628Y-52014285D01*
X121073152Y-50585714D02*
X121739819Y-50585714D01*
X120692200Y-50823809D02*
X121406485Y-51061904D01*
X121406485Y-51061904D02*
X121406485Y-50442857D01*
X120739819Y-49585714D02*
X120739819Y-50061904D01*
X120739819Y-50061904D02*
X121216009Y-50109523D01*
X121216009Y-50109523D02*
X121168390Y-50061904D01*
X121168390Y-50061904D02*
X121120771Y-49966666D01*
X121120771Y-49966666D02*
X121120771Y-49728571D01*
X121120771Y-49728571D02*
X121168390Y-49633333D01*
X121168390Y-49633333D02*
X121216009Y-49585714D01*
X121216009Y-49585714D02*
X121311247Y-49538095D01*
X121311247Y-49538095D02*
X121549342Y-49538095D01*
X121549342Y-49538095D02*
X121644580Y-49585714D01*
X121644580Y-49585714D02*
X121692200Y-49633333D01*
X121692200Y-49633333D02*
X121739819Y-49728571D01*
X121739819Y-49728571D02*
X121739819Y-49966666D01*
X121739819Y-49966666D02*
X121692200Y-50061904D01*
X121692200Y-50061904D02*
X121644580Y-50109523D01*
X124914819Y-51442857D02*
X124438628Y-51776190D01*
X124914819Y-52014285D02*
X123914819Y-52014285D01*
X123914819Y-52014285D02*
X123914819Y-51633333D01*
X123914819Y-51633333D02*
X123962438Y-51538095D01*
X123962438Y-51538095D02*
X124010057Y-51490476D01*
X124010057Y-51490476D02*
X124105295Y-51442857D01*
X124105295Y-51442857D02*
X124248152Y-51442857D01*
X124248152Y-51442857D02*
X124343390Y-51490476D01*
X124343390Y-51490476D02*
X124391009Y-51538095D01*
X124391009Y-51538095D02*
X124438628Y-51633333D01*
X124438628Y-51633333D02*
X124438628Y-52014285D01*
X124248152Y-50585714D02*
X124914819Y-50585714D01*
X123867200Y-50823809D02*
X124581485Y-51061904D01*
X124581485Y-51061904D02*
X124581485Y-50442857D01*
X124248152Y-49633333D02*
X124914819Y-49633333D01*
X123867200Y-49871428D02*
X124581485Y-50109523D01*
X124581485Y-50109523D02*
X124581485Y-49490476D01*
X128089819Y-51442857D02*
X127613628Y-51776190D01*
X128089819Y-52014285D02*
X127089819Y-52014285D01*
X127089819Y-52014285D02*
X127089819Y-51633333D01*
X127089819Y-51633333D02*
X127137438Y-51538095D01*
X127137438Y-51538095D02*
X127185057Y-51490476D01*
X127185057Y-51490476D02*
X127280295Y-51442857D01*
X127280295Y-51442857D02*
X127423152Y-51442857D01*
X127423152Y-51442857D02*
X127518390Y-51490476D01*
X127518390Y-51490476D02*
X127566009Y-51538095D01*
X127566009Y-51538095D02*
X127613628Y-51633333D01*
X127613628Y-51633333D02*
X127613628Y-52014285D01*
X127423152Y-50585714D02*
X128089819Y-50585714D01*
X127042200Y-50823809D02*
X127756485Y-51061904D01*
X127756485Y-51061904D02*
X127756485Y-50442857D01*
X127089819Y-50157142D02*
X127089819Y-49538095D01*
X127089819Y-49538095D02*
X127470771Y-49871428D01*
X127470771Y-49871428D02*
X127470771Y-49728571D01*
X127470771Y-49728571D02*
X127518390Y-49633333D01*
X127518390Y-49633333D02*
X127566009Y-49585714D01*
X127566009Y-49585714D02*
X127661247Y-49538095D01*
X127661247Y-49538095D02*
X127899342Y-49538095D01*
X127899342Y-49538095D02*
X127994580Y-49585714D01*
X127994580Y-49585714D02*
X128042200Y-49633333D01*
X128042200Y-49633333D02*
X128089819Y-49728571D01*
X128089819Y-49728571D02*
X128089819Y-50014285D01*
X128089819Y-50014285D02*
X128042200Y-50109523D01*
X128042200Y-50109523D02*
X127994580Y-50157142D01*
X88554641Y-108364819D02*
X88221308Y-107888628D01*
X87983213Y-108364819D02*
X87983213Y-107364819D01*
X87983213Y-107364819D02*
X88364165Y-107364819D01*
X88364165Y-107364819D02*
X88459403Y-107412438D01*
X88459403Y-107412438D02*
X88507022Y-107460057D01*
X88507022Y-107460057D02*
X88554641Y-107555295D01*
X88554641Y-107555295D02*
X88554641Y-107698152D01*
X88554641Y-107698152D02*
X88507022Y-107793390D01*
X88507022Y-107793390D02*
X88459403Y-107841009D01*
X88459403Y-107841009D02*
X88364165Y-107888628D01*
X88364165Y-107888628D02*
X87983213Y-107888628D01*
X89411784Y-107698152D02*
X89411784Y-108364819D01*
X89173689Y-107317200D02*
X88935594Y-108031485D01*
X88935594Y-108031485D02*
X89554641Y-108031485D01*
X90459403Y-108364819D02*
X89887975Y-108364819D01*
X90173689Y-108364819D02*
X90173689Y-107364819D01*
X90173689Y-107364819D02*
X90078451Y-107507676D01*
X90078451Y-107507676D02*
X89983213Y-107602914D01*
X89983213Y-107602914D02*
X89887975Y-107650533D01*
X182118333Y-34014580D02*
X182070714Y-34062200D01*
X182070714Y-34062200D02*
X181927857Y-34109819D01*
X181927857Y-34109819D02*
X181832619Y-34109819D01*
X181832619Y-34109819D02*
X181689762Y-34062200D01*
X181689762Y-34062200D02*
X181594524Y-33966961D01*
X181594524Y-33966961D02*
X181546905Y-33871723D01*
X181546905Y-33871723D02*
X181499286Y-33681247D01*
X181499286Y-33681247D02*
X181499286Y-33538390D01*
X181499286Y-33538390D02*
X181546905Y-33347914D01*
X181546905Y-33347914D02*
X181594524Y-33252676D01*
X181594524Y-33252676D02*
X181689762Y-33157438D01*
X181689762Y-33157438D02*
X181832619Y-33109819D01*
X181832619Y-33109819D02*
X181927857Y-33109819D01*
X181927857Y-33109819D02*
X182070714Y-33157438D01*
X182070714Y-33157438D02*
X182118333Y-33205057D01*
X182451667Y-33109819D02*
X183118333Y-33109819D01*
X183118333Y-33109819D02*
X182689762Y-34109819D01*
X130008333Y-74432322D02*
X129675000Y-73956131D01*
X129436905Y-74432322D02*
X129436905Y-73432322D01*
X129436905Y-73432322D02*
X129817857Y-73432322D01*
X129817857Y-73432322D02*
X129913095Y-73479941D01*
X129913095Y-73479941D02*
X129960714Y-73527560D01*
X129960714Y-73527560D02*
X130008333Y-73622798D01*
X130008333Y-73622798D02*
X130008333Y-73765655D01*
X130008333Y-73765655D02*
X129960714Y-73860893D01*
X129960714Y-73860893D02*
X129913095Y-73908512D01*
X129913095Y-73908512D02*
X129817857Y-73956131D01*
X129817857Y-73956131D02*
X129436905Y-73956131D01*
X130960714Y-74432322D02*
X130389286Y-74432322D01*
X130675000Y-74432322D02*
X130675000Y-73432322D01*
X130675000Y-73432322D02*
X130579762Y-73575179D01*
X130579762Y-73575179D02*
X130484524Y-73670417D01*
X130484524Y-73670417D02*
X130389286Y-73718036D01*
X80264095Y-114560819D02*
X80264095Y-113560819D01*
X80264095Y-114037009D02*
X80835523Y-114037009D01*
X80835523Y-114560819D02*
X80835523Y-113560819D01*
X81740285Y-113894152D02*
X81740285Y-114560819D01*
X81502190Y-113513200D02*
X81264095Y-114227485D01*
X81264095Y-114227485D02*
X81883142Y-114227485D01*
X80264095Y-34550819D02*
X80264095Y-33550819D01*
X80264095Y-34027009D02*
X80835523Y-34027009D01*
X80835523Y-34550819D02*
X80835523Y-33550819D01*
X81835523Y-34550819D02*
X81264095Y-34550819D01*
X81549809Y-34550819D02*
X81549809Y-33550819D01*
X81549809Y-33550819D02*
X81454571Y-33693676D01*
X81454571Y-33693676D02*
X81359333Y-33788914D01*
X81359333Y-33788914D02*
X81264095Y-33836533D01*
X170694819Y-103631904D02*
X171504342Y-103631904D01*
X171504342Y-103631904D02*
X171599580Y-103584285D01*
X171599580Y-103584285D02*
X171647200Y-103536666D01*
X171647200Y-103536666D02*
X171694819Y-103441428D01*
X171694819Y-103441428D02*
X171694819Y-103250952D01*
X171694819Y-103250952D02*
X171647200Y-103155714D01*
X171647200Y-103155714D02*
X171599580Y-103108095D01*
X171599580Y-103108095D02*
X171504342Y-103060476D01*
X171504342Y-103060476D02*
X170694819Y-103060476D01*
X170694819Y-102155714D02*
X170694819Y-102346190D01*
X170694819Y-102346190D02*
X170742438Y-102441428D01*
X170742438Y-102441428D02*
X170790057Y-102489047D01*
X170790057Y-102489047D02*
X170932914Y-102584285D01*
X170932914Y-102584285D02*
X171123390Y-102631904D01*
X171123390Y-102631904D02*
X171504342Y-102631904D01*
X171504342Y-102631904D02*
X171599580Y-102584285D01*
X171599580Y-102584285D02*
X171647200Y-102536666D01*
X171647200Y-102536666D02*
X171694819Y-102441428D01*
X171694819Y-102441428D02*
X171694819Y-102250952D01*
X171694819Y-102250952D02*
X171647200Y-102155714D01*
X171647200Y-102155714D02*
X171599580Y-102108095D01*
X171599580Y-102108095D02*
X171504342Y-102060476D01*
X171504342Y-102060476D02*
X171266247Y-102060476D01*
X171266247Y-102060476D02*
X171171009Y-102108095D01*
X171171009Y-102108095D02*
X171123390Y-102155714D01*
X171123390Y-102155714D02*
X171075771Y-102250952D01*
X171075771Y-102250952D02*
X171075771Y-102441428D01*
X171075771Y-102441428D02*
X171123390Y-102536666D01*
X171123390Y-102536666D02*
X171171009Y-102584285D01*
X171171009Y-102584285D02*
X171266247Y-102631904D01*
X85424819Y-72818094D02*
X84424819Y-72818094D01*
X84424819Y-72818094D02*
X84424819Y-72579999D01*
X84424819Y-72579999D02*
X84472438Y-72437142D01*
X84472438Y-72437142D02*
X84567676Y-72341904D01*
X84567676Y-72341904D02*
X84662914Y-72294285D01*
X84662914Y-72294285D02*
X84853390Y-72246666D01*
X84853390Y-72246666D02*
X84996247Y-72246666D01*
X84996247Y-72246666D02*
X85186723Y-72294285D01*
X85186723Y-72294285D02*
X85281961Y-72341904D01*
X85281961Y-72341904D02*
X85377200Y-72437142D01*
X85377200Y-72437142D02*
X85424819Y-72579999D01*
X85424819Y-72579999D02*
X85424819Y-72818094D01*
X84520057Y-71865713D02*
X84472438Y-71818094D01*
X84472438Y-71818094D02*
X84424819Y-71722856D01*
X84424819Y-71722856D02*
X84424819Y-71484761D01*
X84424819Y-71484761D02*
X84472438Y-71389523D01*
X84472438Y-71389523D02*
X84520057Y-71341904D01*
X84520057Y-71341904D02*
X84615295Y-71294285D01*
X84615295Y-71294285D02*
X84710533Y-71294285D01*
X84710533Y-71294285D02*
X84853390Y-71341904D01*
X84853390Y-71341904D02*
X85424819Y-71913332D01*
X85424819Y-71913332D02*
X85424819Y-71294285D01*
X85054819Y-67261904D02*
X84054819Y-67261904D01*
X85054819Y-66690476D02*
X84483390Y-67119047D01*
X84054819Y-66690476D02*
X84626247Y-67261904D01*
X89070833Y-100649580D02*
X89023214Y-100697200D01*
X89023214Y-100697200D02*
X88880357Y-100744819D01*
X88880357Y-100744819D02*
X88785119Y-100744819D01*
X88785119Y-100744819D02*
X88642262Y-100697200D01*
X88642262Y-100697200D02*
X88547024Y-100601961D01*
X88547024Y-100601961D02*
X88499405Y-100506723D01*
X88499405Y-100506723D02*
X88451786Y-100316247D01*
X88451786Y-100316247D02*
X88451786Y-100173390D01*
X88451786Y-100173390D02*
X88499405Y-99982914D01*
X88499405Y-99982914D02*
X88547024Y-99887676D01*
X88547024Y-99887676D02*
X88642262Y-99792438D01*
X88642262Y-99792438D02*
X88785119Y-99744819D01*
X88785119Y-99744819D02*
X88880357Y-99744819D01*
X88880357Y-99744819D02*
X89023214Y-99792438D01*
X89023214Y-99792438D02*
X89070833Y-99840057D01*
X89927976Y-100078152D02*
X89927976Y-100744819D01*
X89689881Y-99697200D02*
X89451786Y-100411485D01*
X89451786Y-100411485D02*
X90070833Y-100411485D01*
X176194819Y-74421904D02*
X177004342Y-74421904D01*
X177004342Y-74421904D02*
X177099580Y-74374285D01*
X177099580Y-74374285D02*
X177147200Y-74326666D01*
X177147200Y-74326666D02*
X177194819Y-74231428D01*
X177194819Y-74231428D02*
X177194819Y-74040952D01*
X177194819Y-74040952D02*
X177147200Y-73945714D01*
X177147200Y-73945714D02*
X177099580Y-73898095D01*
X177099580Y-73898095D02*
X177004342Y-73850476D01*
X177004342Y-73850476D02*
X176194819Y-73850476D01*
X177194819Y-73326666D02*
X177194819Y-73136190D01*
X177194819Y-73136190D02*
X177147200Y-73040952D01*
X177147200Y-73040952D02*
X177099580Y-72993333D01*
X177099580Y-72993333D02*
X176956723Y-72898095D01*
X176956723Y-72898095D02*
X176766247Y-72850476D01*
X176766247Y-72850476D02*
X176385295Y-72850476D01*
X176385295Y-72850476D02*
X176290057Y-72898095D01*
X176290057Y-72898095D02*
X176242438Y-72945714D01*
X176242438Y-72945714D02*
X176194819Y-73040952D01*
X176194819Y-73040952D02*
X176194819Y-73231428D01*
X176194819Y-73231428D02*
X176242438Y-73326666D01*
X176242438Y-73326666D02*
X176290057Y-73374285D01*
X176290057Y-73374285D02*
X176385295Y-73421904D01*
X176385295Y-73421904D02*
X176623390Y-73421904D01*
X176623390Y-73421904D02*
X176718628Y-73374285D01*
X176718628Y-73374285D02*
X176766247Y-73326666D01*
X176766247Y-73326666D02*
X176813866Y-73231428D01*
X176813866Y-73231428D02*
X176813866Y-73040952D01*
X176813866Y-73040952D02*
X176766247Y-72945714D01*
X176766247Y-72945714D02*
X176718628Y-72898095D01*
X176718628Y-72898095D02*
X176623390Y-72850476D01*
X93942319Y-108671904D02*
X94751842Y-108671904D01*
X94751842Y-108671904D02*
X94847080Y-108624285D01*
X94847080Y-108624285D02*
X94894700Y-108576666D01*
X94894700Y-108576666D02*
X94942319Y-108481428D01*
X94942319Y-108481428D02*
X94942319Y-108290952D01*
X94942319Y-108290952D02*
X94894700Y-108195714D01*
X94894700Y-108195714D02*
X94847080Y-108148095D01*
X94847080Y-108148095D02*
X94751842Y-108100476D01*
X94751842Y-108100476D02*
X93942319Y-108100476D01*
X94370890Y-107481428D02*
X94323271Y-107576666D01*
X94323271Y-107576666D02*
X94275652Y-107624285D01*
X94275652Y-107624285D02*
X94180414Y-107671904D01*
X94180414Y-107671904D02*
X94132795Y-107671904D01*
X94132795Y-107671904D02*
X94037557Y-107624285D01*
X94037557Y-107624285D02*
X93989938Y-107576666D01*
X93989938Y-107576666D02*
X93942319Y-107481428D01*
X93942319Y-107481428D02*
X93942319Y-107290952D01*
X93942319Y-107290952D02*
X93989938Y-107195714D01*
X93989938Y-107195714D02*
X94037557Y-107148095D01*
X94037557Y-107148095D02*
X94132795Y-107100476D01*
X94132795Y-107100476D02*
X94180414Y-107100476D01*
X94180414Y-107100476D02*
X94275652Y-107148095D01*
X94275652Y-107148095D02*
X94323271Y-107195714D01*
X94323271Y-107195714D02*
X94370890Y-107290952D01*
X94370890Y-107290952D02*
X94370890Y-107481428D01*
X94370890Y-107481428D02*
X94418509Y-107576666D01*
X94418509Y-107576666D02*
X94466128Y-107624285D01*
X94466128Y-107624285D02*
X94561366Y-107671904D01*
X94561366Y-107671904D02*
X94751842Y-107671904D01*
X94751842Y-107671904D02*
X94847080Y-107624285D01*
X94847080Y-107624285D02*
X94894700Y-107576666D01*
X94894700Y-107576666D02*
X94942319Y-107481428D01*
X94942319Y-107481428D02*
X94942319Y-107290952D01*
X94942319Y-107290952D02*
X94894700Y-107195714D01*
X94894700Y-107195714D02*
X94847080Y-107148095D01*
X94847080Y-107148095D02*
X94751842Y-107100476D01*
X94751842Y-107100476D02*
X94561366Y-107100476D01*
X94561366Y-107100476D02*
X94466128Y-107148095D01*
X94466128Y-107148095D02*
X94418509Y-107195714D01*
X94418509Y-107195714D02*
X94370890Y-107290952D01*
X89042812Y-114609486D02*
X88995193Y-114657106D01*
X88995193Y-114657106D02*
X88852336Y-114704725D01*
X88852336Y-114704725D02*
X88757098Y-114704725D01*
X88757098Y-114704725D02*
X88614241Y-114657106D01*
X88614241Y-114657106D02*
X88519003Y-114561867D01*
X88519003Y-114561867D02*
X88471384Y-114466629D01*
X88471384Y-114466629D02*
X88423765Y-114276153D01*
X88423765Y-114276153D02*
X88423765Y-114133296D01*
X88423765Y-114133296D02*
X88471384Y-113942820D01*
X88471384Y-113942820D02*
X88519003Y-113847582D01*
X88519003Y-113847582D02*
X88614241Y-113752344D01*
X88614241Y-113752344D02*
X88757098Y-113704725D01*
X88757098Y-113704725D02*
X88852336Y-113704725D01*
X88852336Y-113704725D02*
X88995193Y-113752344D01*
X88995193Y-113752344D02*
X89042812Y-113799963D01*
X89614241Y-114133296D02*
X89519003Y-114085677D01*
X89519003Y-114085677D02*
X89471384Y-114038058D01*
X89471384Y-114038058D02*
X89423765Y-113942820D01*
X89423765Y-113942820D02*
X89423765Y-113895201D01*
X89423765Y-113895201D02*
X89471384Y-113799963D01*
X89471384Y-113799963D02*
X89519003Y-113752344D01*
X89519003Y-113752344D02*
X89614241Y-113704725D01*
X89614241Y-113704725D02*
X89804717Y-113704725D01*
X89804717Y-113704725D02*
X89899955Y-113752344D01*
X89899955Y-113752344D02*
X89947574Y-113799963D01*
X89947574Y-113799963D02*
X89995193Y-113895201D01*
X89995193Y-113895201D02*
X89995193Y-113942820D01*
X89995193Y-113942820D02*
X89947574Y-114038058D01*
X89947574Y-114038058D02*
X89899955Y-114085677D01*
X89899955Y-114085677D02*
X89804717Y-114133296D01*
X89804717Y-114133296D02*
X89614241Y-114133296D01*
X89614241Y-114133296D02*
X89519003Y-114180915D01*
X89519003Y-114180915D02*
X89471384Y-114228534D01*
X89471384Y-114228534D02*
X89423765Y-114323772D01*
X89423765Y-114323772D02*
X89423765Y-114514248D01*
X89423765Y-114514248D02*
X89471384Y-114609486D01*
X89471384Y-114609486D02*
X89519003Y-114657106D01*
X89519003Y-114657106D02*
X89614241Y-114704725D01*
X89614241Y-114704725D02*
X89804717Y-114704725D01*
X89804717Y-114704725D02*
X89899955Y-114657106D01*
X89899955Y-114657106D02*
X89947574Y-114609486D01*
X89947574Y-114609486D02*
X89995193Y-114514248D01*
X89995193Y-114514248D02*
X89995193Y-114323772D01*
X89995193Y-114323772D02*
X89947574Y-114228534D01*
X89947574Y-114228534D02*
X89899955Y-114180915D01*
X89899955Y-114180915D02*
X89804717Y-114133296D01*
X196134819Y-61721904D02*
X196944342Y-61721904D01*
X196944342Y-61721904D02*
X197039580Y-61674285D01*
X197039580Y-61674285D02*
X197087200Y-61626666D01*
X197087200Y-61626666D02*
X197134819Y-61531428D01*
X197134819Y-61531428D02*
X197134819Y-61340952D01*
X197134819Y-61340952D02*
X197087200Y-61245714D01*
X197087200Y-61245714D02*
X197039580Y-61198095D01*
X197039580Y-61198095D02*
X196944342Y-61150476D01*
X196944342Y-61150476D02*
X196134819Y-61150476D01*
X196134819Y-60769523D02*
X196134819Y-60150476D01*
X196134819Y-60150476D02*
X196515771Y-60483809D01*
X196515771Y-60483809D02*
X196515771Y-60340952D01*
X196515771Y-60340952D02*
X196563390Y-60245714D01*
X196563390Y-60245714D02*
X196611009Y-60198095D01*
X196611009Y-60198095D02*
X196706247Y-60150476D01*
X196706247Y-60150476D02*
X196944342Y-60150476D01*
X196944342Y-60150476D02*
X197039580Y-60198095D01*
X197039580Y-60198095D02*
X197087200Y-60245714D01*
X197087200Y-60245714D02*
X197134819Y-60340952D01*
X197134819Y-60340952D02*
X197134819Y-60626666D01*
X197134819Y-60626666D02*
X197087200Y-60721904D01*
X197087200Y-60721904D02*
X197039580Y-60769523D01*
X219329095Y-34550819D02*
X219329095Y-33550819D01*
X219329095Y-34027009D02*
X219900523Y-34027009D01*
X219900523Y-34550819D02*
X219900523Y-33550819D01*
X220329095Y-33646057D02*
X220376714Y-33598438D01*
X220376714Y-33598438D02*
X220471952Y-33550819D01*
X220471952Y-33550819D02*
X220710047Y-33550819D01*
X220710047Y-33550819D02*
X220805285Y-33598438D01*
X220805285Y-33598438D02*
X220852904Y-33646057D01*
X220852904Y-33646057D02*
X220900523Y-33741295D01*
X220900523Y-33741295D02*
X220900523Y-33836533D01*
X220900523Y-33836533D02*
X220852904Y-33979390D01*
X220852904Y-33979390D02*
X220281476Y-34550819D01*
X220281476Y-34550819D02*
X220900523Y-34550819D01*
X171964819Y-61721904D02*
X172774342Y-61721904D01*
X172774342Y-61721904D02*
X172869580Y-61674285D01*
X172869580Y-61674285D02*
X172917200Y-61626666D01*
X172917200Y-61626666D02*
X172964819Y-61531428D01*
X172964819Y-61531428D02*
X172964819Y-61340952D01*
X172964819Y-61340952D02*
X172917200Y-61245714D01*
X172917200Y-61245714D02*
X172869580Y-61198095D01*
X172869580Y-61198095D02*
X172774342Y-61150476D01*
X172774342Y-61150476D02*
X171964819Y-61150476D01*
X172298152Y-60245714D02*
X172964819Y-60245714D01*
X171917200Y-60483809D02*
X172631485Y-60721904D01*
X172631485Y-60721904D02*
X172631485Y-60102857D01*
X219329095Y-114560819D02*
X219329095Y-113560819D01*
X219329095Y-114037009D02*
X219900523Y-114037009D01*
X219900523Y-114560819D02*
X219900523Y-113560819D01*
X220281476Y-113560819D02*
X220900523Y-113560819D01*
X220900523Y-113560819D02*
X220567190Y-113941771D01*
X220567190Y-113941771D02*
X220710047Y-113941771D01*
X220710047Y-113941771D02*
X220805285Y-113989390D01*
X220805285Y-113989390D02*
X220852904Y-114037009D01*
X220852904Y-114037009D02*
X220900523Y-114132247D01*
X220900523Y-114132247D02*
X220900523Y-114370342D01*
X220900523Y-114370342D02*
X220852904Y-114465580D01*
X220852904Y-114465580D02*
X220805285Y-114513200D01*
X220805285Y-114513200D02*
X220710047Y-114560819D01*
X220710047Y-114560819D02*
X220424333Y-114560819D01*
X220424333Y-114560819D02*
X220329095Y-114513200D01*
X220329095Y-114513200D02*
X220281476Y-114465580D01*
X200580333Y-63010580D02*
X200532714Y-63058200D01*
X200532714Y-63058200D02*
X200389857Y-63105819D01*
X200389857Y-63105819D02*
X200294619Y-63105819D01*
X200294619Y-63105819D02*
X200151762Y-63058200D01*
X200151762Y-63058200D02*
X200056524Y-62962961D01*
X200056524Y-62962961D02*
X200008905Y-62867723D01*
X200008905Y-62867723D02*
X199961286Y-62677247D01*
X199961286Y-62677247D02*
X199961286Y-62534390D01*
X199961286Y-62534390D02*
X200008905Y-62343914D01*
X200008905Y-62343914D02*
X200056524Y-62248676D01*
X200056524Y-62248676D02*
X200151762Y-62153438D01*
X200151762Y-62153438D02*
X200294619Y-62105819D01*
X200294619Y-62105819D02*
X200389857Y-62105819D01*
X200389857Y-62105819D02*
X200532714Y-62153438D01*
X200532714Y-62153438D02*
X200580333Y-62201057D01*
X200913667Y-62105819D02*
X201532714Y-62105819D01*
X201532714Y-62105819D02*
X201199381Y-62486771D01*
X201199381Y-62486771D02*
X201342238Y-62486771D01*
X201342238Y-62486771D02*
X201437476Y-62534390D01*
X201437476Y-62534390D02*
X201485095Y-62582009D01*
X201485095Y-62582009D02*
X201532714Y-62677247D01*
X201532714Y-62677247D02*
X201532714Y-62915342D01*
X201532714Y-62915342D02*
X201485095Y-63010580D01*
X201485095Y-63010580D02*
X201437476Y-63058200D01*
X201437476Y-63058200D02*
X201342238Y-63105819D01*
X201342238Y-63105819D02*
X201056524Y-63105819D01*
X201056524Y-63105819D02*
X200961286Y-63058200D01*
X200961286Y-63058200D02*
X200913667Y-63010580D01*
X170694819Y-39381904D02*
X171504342Y-39381904D01*
X171504342Y-39381904D02*
X171599580Y-39334285D01*
X171599580Y-39334285D02*
X171647200Y-39286666D01*
X171647200Y-39286666D02*
X171694819Y-39191428D01*
X171694819Y-39191428D02*
X171694819Y-39000952D01*
X171694819Y-39000952D02*
X171647200Y-38905714D01*
X171647200Y-38905714D02*
X171599580Y-38858095D01*
X171599580Y-38858095D02*
X171504342Y-38810476D01*
X171504342Y-38810476D02*
X170694819Y-38810476D01*
X170694819Y-38429523D02*
X170694819Y-37762857D01*
X170694819Y-37762857D02*
X171694819Y-38191428D01*
X89030832Y-111444580D02*
X88983213Y-111492200D01*
X88983213Y-111492200D02*
X88840356Y-111539819D01*
X88840356Y-111539819D02*
X88745118Y-111539819D01*
X88745118Y-111539819D02*
X88602261Y-111492200D01*
X88602261Y-111492200D02*
X88507023Y-111396961D01*
X88507023Y-111396961D02*
X88459404Y-111301723D01*
X88459404Y-111301723D02*
X88411785Y-111111247D01*
X88411785Y-111111247D02*
X88411785Y-110968390D01*
X88411785Y-110968390D02*
X88459404Y-110777914D01*
X88459404Y-110777914D02*
X88507023Y-110682676D01*
X88507023Y-110682676D02*
X88602261Y-110587438D01*
X88602261Y-110587438D02*
X88745118Y-110539819D01*
X88745118Y-110539819D02*
X88840356Y-110539819D01*
X88840356Y-110539819D02*
X88983213Y-110587438D01*
X88983213Y-110587438D02*
X89030832Y-110635057D01*
X89935594Y-110539819D02*
X89459404Y-110539819D01*
X89459404Y-110539819D02*
X89411785Y-111016009D01*
X89411785Y-111016009D02*
X89459404Y-110968390D01*
X89459404Y-110968390D02*
X89554642Y-110920771D01*
X89554642Y-110920771D02*
X89792737Y-110920771D01*
X89792737Y-110920771D02*
X89887975Y-110968390D01*
X89887975Y-110968390D02*
X89935594Y-111016009D01*
X89935594Y-111016009D02*
X89983213Y-111111247D01*
X89983213Y-111111247D02*
X89983213Y-111349342D01*
X89983213Y-111349342D02*
X89935594Y-111444580D01*
X89935594Y-111444580D02*
X89887975Y-111492200D01*
X89887975Y-111492200D02*
X89792737Y-111539819D01*
X89792737Y-111539819D02*
X89554642Y-111539819D01*
X89554642Y-111539819D02*
X89459404Y-111492200D01*
X89459404Y-111492200D02*
X89411785Y-111444580D01*
X165669819Y-81613333D02*
X166384104Y-81613333D01*
X166384104Y-81613333D02*
X166526961Y-81660952D01*
X166526961Y-81660952D02*
X166622200Y-81756190D01*
X166622200Y-81756190D02*
X166669819Y-81899047D01*
X166669819Y-81899047D02*
X166669819Y-81994285D01*
X165669819Y-81232380D02*
X165669819Y-80613333D01*
X165669819Y-80613333D02*
X166050771Y-80946666D01*
X166050771Y-80946666D02*
X166050771Y-80803809D01*
X166050771Y-80803809D02*
X166098390Y-80708571D01*
X166098390Y-80708571D02*
X166146009Y-80660952D01*
X166146009Y-80660952D02*
X166241247Y-80613333D01*
X166241247Y-80613333D02*
X166479342Y-80613333D01*
X166479342Y-80613333D02*
X166574580Y-80660952D01*
X166574580Y-80660952D02*
X166622200Y-80708571D01*
X166622200Y-80708571D02*
X166669819Y-80803809D01*
X166669819Y-80803809D02*
X166669819Y-81089523D01*
X166669819Y-81089523D02*
X166622200Y-81184761D01*
X166622200Y-81184761D02*
X166574580Y-81232380D01*
X197269580Y-60287969D02*
X197317200Y-60335588D01*
X197317200Y-60335588D02*
X197364819Y-60478445D01*
X197364819Y-60478445D02*
X197364819Y-60573683D01*
X197364819Y-60573683D02*
X197317200Y-60716540D01*
X197317200Y-60716540D02*
X197221961Y-60811778D01*
X197221961Y-60811778D02*
X197126723Y-60859397D01*
X197126723Y-60859397D02*
X196936247Y-60907016D01*
X196936247Y-60907016D02*
X196793390Y-60907016D01*
X196793390Y-60907016D02*
X196602914Y-60859397D01*
X196602914Y-60859397D02*
X196507676Y-60811778D01*
X196507676Y-60811778D02*
X196412438Y-60716540D01*
X196412438Y-60716540D02*
X196364819Y-60573683D01*
X196364819Y-60573683D02*
X196364819Y-60478445D01*
X196364819Y-60478445D02*
X196412438Y-60335588D01*
X196412438Y-60335588D02*
X196460057Y-60287969D01*
X197364819Y-59335588D02*
X197364819Y-59907016D01*
X197364819Y-59621302D02*
X196364819Y-59621302D01*
X196364819Y-59621302D02*
X196507676Y-59716540D01*
X196507676Y-59716540D02*
X196602914Y-59811778D01*
X196602914Y-59811778D02*
X196650533Y-59907016D01*
X196364819Y-58716540D02*
X196364819Y-58621302D01*
X196364819Y-58621302D02*
X196412438Y-58526064D01*
X196412438Y-58526064D02*
X196460057Y-58478445D01*
X196460057Y-58478445D02*
X196555295Y-58430826D01*
X196555295Y-58430826D02*
X196745771Y-58383207D01*
X196745771Y-58383207D02*
X196983866Y-58383207D01*
X196983866Y-58383207D02*
X197174342Y-58430826D01*
X197174342Y-58430826D02*
X197269580Y-58478445D01*
X197269580Y-58478445D02*
X197317200Y-58526064D01*
X197317200Y-58526064D02*
X197364819Y-58621302D01*
X197364819Y-58621302D02*
X197364819Y-58716540D01*
X197364819Y-58716540D02*
X197317200Y-58811778D01*
X197317200Y-58811778D02*
X197269580Y-58859397D01*
X197269580Y-58859397D02*
X197174342Y-58907016D01*
X197174342Y-58907016D02*
X196983866Y-58954635D01*
X196983866Y-58954635D02*
X196745771Y-58954635D01*
X196745771Y-58954635D02*
X196555295Y-58907016D01*
X196555295Y-58907016D02*
X196460057Y-58859397D01*
X196460057Y-58859397D02*
X196412438Y-58811778D01*
X196412438Y-58811778D02*
X196364819Y-58716540D01*
X112387142Y-78193819D02*
X112053809Y-77717628D01*
X111815714Y-78193819D02*
X111815714Y-77193819D01*
X111815714Y-77193819D02*
X112196666Y-77193819D01*
X112196666Y-77193819D02*
X112291904Y-77241438D01*
X112291904Y-77241438D02*
X112339523Y-77289057D01*
X112339523Y-77289057D02*
X112387142Y-77384295D01*
X112387142Y-77384295D02*
X112387142Y-77527152D01*
X112387142Y-77527152D02*
X112339523Y-77622390D01*
X112339523Y-77622390D02*
X112291904Y-77670009D01*
X112291904Y-77670009D02*
X112196666Y-77717628D01*
X112196666Y-77717628D02*
X111815714Y-77717628D01*
X113244285Y-77527152D02*
X113244285Y-78193819D01*
X113006190Y-77146200D02*
X112768095Y-77860485D01*
X112768095Y-77860485D02*
X113387142Y-77860485D01*
X113720476Y-77289057D02*
X113768095Y-77241438D01*
X113768095Y-77241438D02*
X113863333Y-77193819D01*
X113863333Y-77193819D02*
X114101428Y-77193819D01*
X114101428Y-77193819D02*
X114196666Y-77241438D01*
X114196666Y-77241438D02*
X114244285Y-77289057D01*
X114244285Y-77289057D02*
X114291904Y-77384295D01*
X114291904Y-77384295D02*
X114291904Y-77479533D01*
X114291904Y-77479533D02*
X114244285Y-77622390D01*
X114244285Y-77622390D02*
X113672857Y-78193819D01*
X113672857Y-78193819D02*
X114291904Y-78193819D01*
X148256333Y-50437580D02*
X148208714Y-50485200D01*
X148208714Y-50485200D02*
X148065857Y-50532819D01*
X148065857Y-50532819D02*
X147970619Y-50532819D01*
X147970619Y-50532819D02*
X147827762Y-50485200D01*
X147827762Y-50485200D02*
X147732524Y-50389961D01*
X147732524Y-50389961D02*
X147684905Y-50294723D01*
X147684905Y-50294723D02*
X147637286Y-50104247D01*
X147637286Y-50104247D02*
X147637286Y-49961390D01*
X147637286Y-49961390D02*
X147684905Y-49770914D01*
X147684905Y-49770914D02*
X147732524Y-49675676D01*
X147732524Y-49675676D02*
X147827762Y-49580438D01*
X147827762Y-49580438D02*
X147970619Y-49532819D01*
X147970619Y-49532819D02*
X148065857Y-49532819D01*
X148065857Y-49532819D02*
X148208714Y-49580438D01*
X148208714Y-49580438D02*
X148256333Y-49628057D01*
X149113476Y-49532819D02*
X148923000Y-49532819D01*
X148923000Y-49532819D02*
X148827762Y-49580438D01*
X148827762Y-49580438D02*
X148780143Y-49628057D01*
X148780143Y-49628057D02*
X148684905Y-49770914D01*
X148684905Y-49770914D02*
X148637286Y-49961390D01*
X148637286Y-49961390D02*
X148637286Y-50342342D01*
X148637286Y-50342342D02*
X148684905Y-50437580D01*
X148684905Y-50437580D02*
X148732524Y-50485200D01*
X148732524Y-50485200D02*
X148827762Y-50532819D01*
X148827762Y-50532819D02*
X149018238Y-50532819D01*
X149018238Y-50532819D02*
X149113476Y-50485200D01*
X149113476Y-50485200D02*
X149161095Y-50437580D01*
X149161095Y-50437580D02*
X149208714Y-50342342D01*
X149208714Y-50342342D02*
X149208714Y-50104247D01*
X149208714Y-50104247D02*
X149161095Y-50009009D01*
X149161095Y-50009009D02*
X149113476Y-49961390D01*
X149113476Y-49961390D02*
X149018238Y-49913771D01*
X149018238Y-49913771D02*
X148827762Y-49913771D01*
X148827762Y-49913771D02*
X148732524Y-49961390D01*
X148732524Y-49961390D02*
X148684905Y-50009009D01*
X148684905Y-50009009D02*
X148637286Y-50104247D01*
X165619819Y-75691904D02*
X166429342Y-75691904D01*
X166429342Y-75691904D02*
X166524580Y-75644285D01*
X166524580Y-75644285D02*
X166572200Y-75596666D01*
X166572200Y-75596666D02*
X166619819Y-75501428D01*
X166619819Y-75501428D02*
X166619819Y-75310952D01*
X166619819Y-75310952D02*
X166572200Y-75215714D01*
X166572200Y-75215714D02*
X166524580Y-75168095D01*
X166524580Y-75168095D02*
X166429342Y-75120476D01*
X166429342Y-75120476D02*
X165619819Y-75120476D01*
X166619819Y-74120476D02*
X166619819Y-74691904D01*
X166619819Y-74406190D02*
X165619819Y-74406190D01*
X165619819Y-74406190D02*
X165762676Y-74501428D01*
X165762676Y-74501428D02*
X165857914Y-74596666D01*
X165857914Y-74596666D02*
X165905533Y-74691904D01*
X165664819Y-68913333D02*
X166379104Y-68913333D01*
X166379104Y-68913333D02*
X166521961Y-68960952D01*
X166521961Y-68960952D02*
X166617200Y-69056190D01*
X166617200Y-69056190D02*
X166664819Y-69199047D01*
X166664819Y-69199047D02*
X166664819Y-69294285D01*
X166664819Y-67913333D02*
X166664819Y-68484761D01*
X166664819Y-68199047D02*
X165664819Y-68199047D01*
X165664819Y-68199047D02*
X165807676Y-68294285D01*
X165807676Y-68294285D02*
X165902914Y-68389523D01*
X165902914Y-68389523D02*
X165950533Y-68484761D01*
X173357142Y-30954819D02*
X173023809Y-30478628D01*
X172785714Y-30954819D02*
X172785714Y-29954819D01*
X172785714Y-29954819D02*
X173166666Y-29954819D01*
X173166666Y-29954819D02*
X173261904Y-30002438D01*
X173261904Y-30002438D02*
X173309523Y-30050057D01*
X173309523Y-30050057D02*
X173357142Y-30145295D01*
X173357142Y-30145295D02*
X173357142Y-30288152D01*
X173357142Y-30288152D02*
X173309523Y-30383390D01*
X173309523Y-30383390D02*
X173261904Y-30431009D01*
X173261904Y-30431009D02*
X173166666Y-30478628D01*
X173166666Y-30478628D02*
X172785714Y-30478628D01*
X174261904Y-29954819D02*
X173785714Y-29954819D01*
X173785714Y-29954819D02*
X173738095Y-30431009D01*
X173738095Y-30431009D02*
X173785714Y-30383390D01*
X173785714Y-30383390D02*
X173880952Y-30335771D01*
X173880952Y-30335771D02*
X174119047Y-30335771D01*
X174119047Y-30335771D02*
X174214285Y-30383390D01*
X174214285Y-30383390D02*
X174261904Y-30431009D01*
X174261904Y-30431009D02*
X174309523Y-30526247D01*
X174309523Y-30526247D02*
X174309523Y-30764342D01*
X174309523Y-30764342D02*
X174261904Y-30859580D01*
X174261904Y-30859580D02*
X174214285Y-30907200D01*
X174214285Y-30907200D02*
X174119047Y-30954819D01*
X174119047Y-30954819D02*
X173880952Y-30954819D01*
X173880952Y-30954819D02*
X173785714Y-30907200D01*
X173785714Y-30907200D02*
X173738095Y-30859580D01*
X175261904Y-30954819D02*
X174690476Y-30954819D01*
X174976190Y-30954819D02*
X174976190Y-29954819D01*
X174976190Y-29954819D02*
X174880952Y-30097676D01*
X174880952Y-30097676D02*
X174785714Y-30192914D01*
X174785714Y-30192914D02*
X174690476Y-30240533D01*
X182121104Y-30853953D02*
X182073485Y-30901573D01*
X182073485Y-30901573D02*
X181930628Y-30949192D01*
X181930628Y-30949192D02*
X181835390Y-30949192D01*
X181835390Y-30949192D02*
X181692533Y-30901573D01*
X181692533Y-30901573D02*
X181597295Y-30806334D01*
X181597295Y-30806334D02*
X181549676Y-30711096D01*
X181549676Y-30711096D02*
X181502057Y-30520620D01*
X181502057Y-30520620D02*
X181502057Y-30377763D01*
X181502057Y-30377763D02*
X181549676Y-30187287D01*
X181549676Y-30187287D02*
X181597295Y-30092049D01*
X181597295Y-30092049D02*
X181692533Y-29996811D01*
X181692533Y-29996811D02*
X181835390Y-29949192D01*
X181835390Y-29949192D02*
X181930628Y-29949192D01*
X181930628Y-29949192D02*
X182073485Y-29996811D01*
X182073485Y-29996811D02*
X182121104Y-30044430D01*
X182502057Y-30044430D02*
X182549676Y-29996811D01*
X182549676Y-29996811D02*
X182644914Y-29949192D01*
X182644914Y-29949192D02*
X182883009Y-29949192D01*
X182883009Y-29949192D02*
X182978247Y-29996811D01*
X182978247Y-29996811D02*
X183025866Y-30044430D01*
X183025866Y-30044430D02*
X183073485Y-30139668D01*
X183073485Y-30139668D02*
X183073485Y-30234906D01*
X183073485Y-30234906D02*
X183025866Y-30377763D01*
X183025866Y-30377763D02*
X182454438Y-30949192D01*
X182454438Y-30949192D02*
X183073485Y-30949192D01*
X144024819Y-61721904D02*
X144834342Y-61721904D01*
X144834342Y-61721904D02*
X144929580Y-61674285D01*
X144929580Y-61674285D02*
X144977200Y-61626666D01*
X144977200Y-61626666D02*
X145024819Y-61531428D01*
X145024819Y-61531428D02*
X145024819Y-61340952D01*
X145024819Y-61340952D02*
X144977200Y-61245714D01*
X144977200Y-61245714D02*
X144929580Y-61198095D01*
X144929580Y-61198095D02*
X144834342Y-61150476D01*
X144834342Y-61150476D02*
X144024819Y-61150476D01*
X144024819Y-60198095D02*
X144024819Y-60674285D01*
X144024819Y-60674285D02*
X144501009Y-60721904D01*
X144501009Y-60721904D02*
X144453390Y-60674285D01*
X144453390Y-60674285D02*
X144405771Y-60579047D01*
X144405771Y-60579047D02*
X144405771Y-60340952D01*
X144405771Y-60340952D02*
X144453390Y-60245714D01*
X144453390Y-60245714D02*
X144501009Y-60198095D01*
X144501009Y-60198095D02*
X144596247Y-60150476D01*
X144596247Y-60150476D02*
X144834342Y-60150476D01*
X144834342Y-60150476D02*
X144929580Y-60198095D01*
X144929580Y-60198095D02*
X144977200Y-60245714D01*
X144977200Y-60245714D02*
X145024819Y-60340952D01*
X145024819Y-60340952D02*
X145024819Y-60579047D01*
X145024819Y-60579047D02*
X144977200Y-60674285D01*
X144977200Y-60674285D02*
X144929580Y-60721904D01*
X122801142Y-88099819D02*
X122467809Y-87623628D01*
X122229714Y-88099819D02*
X122229714Y-87099819D01*
X122229714Y-87099819D02*
X122610666Y-87099819D01*
X122610666Y-87099819D02*
X122705904Y-87147438D01*
X122705904Y-87147438D02*
X122753523Y-87195057D01*
X122753523Y-87195057D02*
X122801142Y-87290295D01*
X122801142Y-87290295D02*
X122801142Y-87433152D01*
X122801142Y-87433152D02*
X122753523Y-87528390D01*
X122753523Y-87528390D02*
X122705904Y-87576009D01*
X122705904Y-87576009D02*
X122610666Y-87623628D01*
X122610666Y-87623628D02*
X122229714Y-87623628D01*
X123134476Y-87099819D02*
X123753523Y-87099819D01*
X123753523Y-87099819D02*
X123420190Y-87480771D01*
X123420190Y-87480771D02*
X123563047Y-87480771D01*
X123563047Y-87480771D02*
X123658285Y-87528390D01*
X123658285Y-87528390D02*
X123705904Y-87576009D01*
X123705904Y-87576009D02*
X123753523Y-87671247D01*
X123753523Y-87671247D02*
X123753523Y-87909342D01*
X123753523Y-87909342D02*
X123705904Y-88004580D01*
X123705904Y-88004580D02*
X123658285Y-88052200D01*
X123658285Y-88052200D02*
X123563047Y-88099819D01*
X123563047Y-88099819D02*
X123277333Y-88099819D01*
X123277333Y-88099819D02*
X123182095Y-88052200D01*
X123182095Y-88052200D02*
X123134476Y-88004580D01*
X124229714Y-88099819D02*
X124420190Y-88099819D01*
X124420190Y-88099819D02*
X124515428Y-88052200D01*
X124515428Y-88052200D02*
X124563047Y-88004580D01*
X124563047Y-88004580D02*
X124658285Y-87861723D01*
X124658285Y-87861723D02*
X124705904Y-87671247D01*
X124705904Y-87671247D02*
X124705904Y-87290295D01*
X124705904Y-87290295D02*
X124658285Y-87195057D01*
X124658285Y-87195057D02*
X124610666Y-87147438D01*
X124610666Y-87147438D02*
X124515428Y-87099819D01*
X124515428Y-87099819D02*
X124324952Y-87099819D01*
X124324952Y-87099819D02*
X124229714Y-87147438D01*
X124229714Y-87147438D02*
X124182095Y-87195057D01*
X124182095Y-87195057D02*
X124134476Y-87290295D01*
X124134476Y-87290295D02*
X124134476Y-87528390D01*
X124134476Y-87528390D02*
X124182095Y-87623628D01*
X124182095Y-87623628D02*
X124229714Y-87671247D01*
X124229714Y-87671247D02*
X124324952Y-87718866D01*
X124324952Y-87718866D02*
X124515428Y-87718866D01*
X124515428Y-87718866D02*
X124610666Y-87671247D01*
X124610666Y-87671247D02*
X124658285Y-87623628D01*
X124658285Y-87623628D02*
X124705904Y-87528390D01*
X88554641Y-105824819D02*
X88221308Y-105348628D01*
X87983213Y-105824819D02*
X87983213Y-104824819D01*
X87983213Y-104824819D02*
X88364165Y-104824819D01*
X88364165Y-104824819D02*
X88459403Y-104872438D01*
X88459403Y-104872438D02*
X88507022Y-104920057D01*
X88507022Y-104920057D02*
X88554641Y-105015295D01*
X88554641Y-105015295D02*
X88554641Y-105158152D01*
X88554641Y-105158152D02*
X88507022Y-105253390D01*
X88507022Y-105253390D02*
X88459403Y-105301009D01*
X88459403Y-105301009D02*
X88364165Y-105348628D01*
X88364165Y-105348628D02*
X87983213Y-105348628D01*
X89411784Y-105158152D02*
X89411784Y-105824819D01*
X89173689Y-104777200D02*
X88935594Y-105491485D01*
X88935594Y-105491485D02*
X89554641Y-105491485D01*
X90126070Y-104824819D02*
X90221308Y-104824819D01*
X90221308Y-104824819D02*
X90316546Y-104872438D01*
X90316546Y-104872438D02*
X90364165Y-104920057D01*
X90364165Y-104920057D02*
X90411784Y-105015295D01*
X90411784Y-105015295D02*
X90459403Y-105205771D01*
X90459403Y-105205771D02*
X90459403Y-105443866D01*
X90459403Y-105443866D02*
X90411784Y-105634342D01*
X90411784Y-105634342D02*
X90364165Y-105729580D01*
X90364165Y-105729580D02*
X90316546Y-105777200D01*
X90316546Y-105777200D02*
X90221308Y-105824819D01*
X90221308Y-105824819D02*
X90126070Y-105824819D01*
X90126070Y-105824819D02*
X90030832Y-105777200D01*
X90030832Y-105777200D02*
X89983213Y-105729580D01*
X89983213Y-105729580D02*
X89935594Y-105634342D01*
X89935594Y-105634342D02*
X89887975Y-105443866D01*
X89887975Y-105443866D02*
X89887975Y-105205771D01*
X89887975Y-105205771D02*
X89935594Y-105015295D01*
X89935594Y-105015295D02*
X89983213Y-104920057D01*
X89983213Y-104920057D02*
X90030832Y-104872438D01*
X90030832Y-104872438D02*
X90126070Y-104824819D01*
X86841905Y-61484819D02*
X86841905Y-60484819D01*
X86841905Y-60484819D02*
X87080000Y-60484819D01*
X87080000Y-60484819D02*
X87222857Y-60532438D01*
X87222857Y-60532438D02*
X87318095Y-60627676D01*
X87318095Y-60627676D02*
X87365714Y-60722914D01*
X87365714Y-60722914D02*
X87413333Y-60913390D01*
X87413333Y-60913390D02*
X87413333Y-61056247D01*
X87413333Y-61056247D02*
X87365714Y-61246723D01*
X87365714Y-61246723D02*
X87318095Y-61341961D01*
X87318095Y-61341961D02*
X87222857Y-61437200D01*
X87222857Y-61437200D02*
X87080000Y-61484819D01*
X87080000Y-61484819D02*
X86841905Y-61484819D01*
X88365714Y-61484819D02*
X87794286Y-61484819D01*
X88080000Y-61484819D02*
X88080000Y-60484819D01*
X88080000Y-60484819D02*
X87984762Y-60627676D01*
X87984762Y-60627676D02*
X87889524Y-60722914D01*
X87889524Y-60722914D02*
X87794286Y-60770533D01*
X82238095Y-61854819D02*
X82238095Y-60854819D01*
X82809523Y-61854819D02*
X82380952Y-61283390D01*
X82809523Y-60854819D02*
X82238095Y-61426247D01*
X122428333Y-79059580D02*
X122380714Y-79107200D01*
X122380714Y-79107200D02*
X122237857Y-79154819D01*
X122237857Y-79154819D02*
X122142619Y-79154819D01*
X122142619Y-79154819D02*
X121999762Y-79107200D01*
X121999762Y-79107200D02*
X121904524Y-79011961D01*
X121904524Y-79011961D02*
X121856905Y-78916723D01*
X121856905Y-78916723D02*
X121809286Y-78726247D01*
X121809286Y-78726247D02*
X121809286Y-78583390D01*
X121809286Y-78583390D02*
X121856905Y-78392914D01*
X121856905Y-78392914D02*
X121904524Y-78297676D01*
X121904524Y-78297676D02*
X121999762Y-78202438D01*
X121999762Y-78202438D02*
X122142619Y-78154819D01*
X122142619Y-78154819D02*
X122237857Y-78154819D01*
X122237857Y-78154819D02*
X122380714Y-78202438D01*
X122380714Y-78202438D02*
X122428333Y-78250057D01*
X123380714Y-79154819D02*
X122809286Y-79154819D01*
X123095000Y-79154819D02*
X123095000Y-78154819D01*
X123095000Y-78154819D02*
X122999762Y-78297676D01*
X122999762Y-78297676D02*
X122904524Y-78392914D01*
X122904524Y-78392914D02*
X122809286Y-78440533D01*
X177593333Y-108984580D02*
X177545714Y-109032200D01*
X177545714Y-109032200D02*
X177402857Y-109079819D01*
X177402857Y-109079819D02*
X177307619Y-109079819D01*
X177307619Y-109079819D02*
X177164762Y-109032200D01*
X177164762Y-109032200D02*
X177069524Y-108936961D01*
X177069524Y-108936961D02*
X177021905Y-108841723D01*
X177021905Y-108841723D02*
X176974286Y-108651247D01*
X176974286Y-108651247D02*
X176974286Y-108508390D01*
X176974286Y-108508390D02*
X177021905Y-108317914D01*
X177021905Y-108317914D02*
X177069524Y-108222676D01*
X177069524Y-108222676D02*
X177164762Y-108127438D01*
X177164762Y-108127438D02*
X177307619Y-108079819D01*
X177307619Y-108079819D02*
X177402857Y-108079819D01*
X177402857Y-108079819D02*
X177545714Y-108127438D01*
X177545714Y-108127438D02*
X177593333Y-108175057D01*
X178069524Y-109079819D02*
X178260000Y-109079819D01*
X178260000Y-109079819D02*
X178355238Y-109032200D01*
X178355238Y-109032200D02*
X178402857Y-108984580D01*
X178402857Y-108984580D02*
X178498095Y-108841723D01*
X178498095Y-108841723D02*
X178545714Y-108651247D01*
X178545714Y-108651247D02*
X178545714Y-108270295D01*
X178545714Y-108270295D02*
X178498095Y-108175057D01*
X178498095Y-108175057D02*
X178450476Y-108127438D01*
X178450476Y-108127438D02*
X178355238Y-108079819D01*
X178355238Y-108079819D02*
X178164762Y-108079819D01*
X178164762Y-108079819D02*
X178069524Y-108127438D01*
X178069524Y-108127438D02*
X178021905Y-108175057D01*
X178021905Y-108175057D02*
X177974286Y-108270295D01*
X177974286Y-108270295D02*
X177974286Y-108508390D01*
X177974286Y-108508390D02*
X178021905Y-108603628D01*
X178021905Y-108603628D02*
X178069524Y-108651247D01*
X178069524Y-108651247D02*
X178164762Y-108698866D01*
X178164762Y-108698866D02*
X178355238Y-108698866D01*
X178355238Y-108698866D02*
X178450476Y-108651247D01*
X178450476Y-108651247D02*
X178498095Y-108603628D01*
X178498095Y-108603628D02*
X178545714Y-108508390D01*
G04 #@! TO.C,R45*
D11*
X122205000Y-48880000D02*
X122205000Y-52720000D01*
X120365000Y-48880000D02*
X120365000Y-52720000D01*
G04 #@! TO.C,R44*
X125355000Y-48880000D02*
X125355000Y-52720000D01*
X123515000Y-48880000D02*
X123515000Y-52720000D01*
G04 #@! TO.C,R43*
X128505000Y-48880000D02*
X128505000Y-52720000D01*
X126665000Y-48880000D02*
X126665000Y-52720000D01*
G04 #@! TO.C,R41*
X91117499Y-106990000D02*
X87277499Y-106990000D01*
X91117499Y-108830000D02*
X87277499Y-108830000D01*
G04 #@! TO.C,C7*
X179665000Y-32285000D02*
X184905000Y-32285000D01*
X179665000Y-32622000D02*
X179665000Y-32285000D01*
X179665000Y-35025000D02*
X179665000Y-34688000D01*
X184905000Y-32285000D02*
X184905000Y-32622000D01*
X184905000Y-34688000D02*
X184905000Y-35025000D01*
X184905000Y-35025000D02*
X179665000Y-35025000D01*
G04 #@! TO.C,R1*
X128255000Y-74977503D02*
X132095000Y-74977503D01*
X128255000Y-76817503D02*
X132095000Y-76817503D01*
G04 #@! TO.C,U6*
X134560000Y-96410000D02*
X134560000Y-109330000D01*
X134560000Y-109330000D02*
X170240000Y-109330000D01*
X170240000Y-96410000D02*
X134560000Y-96410000D01*
X170240000Y-101870000D02*
X170240000Y-96410000D01*
X170240000Y-109330000D02*
X170240000Y-103870000D01*
X170240000Y-103870000D02*
G75*
G02*
X170240000Y-101870000I0J1000000D01*
G01*
G04 #@! TO.C,D2*
X82500000Y-68340000D02*
X82500000Y-69360000D01*
X82500000Y-75820000D02*
X82500000Y-74800000D01*
X83970000Y-70140000D02*
X81030000Y-70140000D01*
X83970000Y-70260000D02*
X81030000Y-70260000D01*
X83970000Y-70380000D02*
X81030000Y-70380000D01*
X83970000Y-69360000D02*
X83970000Y-74800000D01*
X81030000Y-74800000D01*
X81030000Y-69360000D01*
X83970000Y-69360000D01*
G04 #@! TO.C,C4*
X86617500Y-98920000D02*
X91857500Y-98920000D01*
X86617500Y-99257000D02*
X86617500Y-98920000D01*
X86617500Y-101660000D02*
X86617500Y-101323000D01*
X91857500Y-98920000D02*
X91857500Y-99257000D01*
X91857500Y-101323000D02*
X91857500Y-101660000D01*
X91857500Y-101660000D02*
X86617500Y-101660000D01*
G04 #@! TO.C,U9*
X177740000Y-71010000D02*
X177740000Y-72659999D01*
X177740000Y-74660000D02*
X177740000Y-76310000D01*
X177740000Y-76310000D02*
X195639999Y-76310000D01*
X195639999Y-76310000D02*
X195640000Y-71010000D01*
X195640000Y-71010000D02*
X177740000Y-71010000D01*
X177740000Y-72659999D02*
G75*
G02*
X177740000Y-74659999I-1J-1000000D01*
G01*
X177680001Y-78800000D02*
X177680000Y-68520000D01*
X195700000Y-68520000D01*
X195700000Y-78800000D01*
X177680001Y-78800000D01*
G04 #@! TO.C,U8*
X95487500Y-105260000D02*
X95487500Y-106909999D01*
X95487500Y-108910000D02*
X95487500Y-110560000D01*
X95487500Y-110560000D02*
X105767500Y-110560000D01*
X105767500Y-105260000D02*
X95487500Y-105260000D01*
X105767500Y-110560000D02*
X105767500Y-105260000D01*
X95487500Y-106909999D02*
G75*
G02*
X95487500Y-108909999I-1J-1000000D01*
G01*
G04 #@! TO.C,C8*
X86589479Y-112879906D02*
X91829479Y-112879906D01*
X86589479Y-113216906D02*
X86589479Y-112879906D01*
X86589479Y-115619906D02*
X86589479Y-115282906D01*
X91829479Y-112879906D02*
X91829479Y-113216906D01*
X91829479Y-115282906D02*
X91829479Y-115619906D01*
X91829479Y-115619906D02*
X86589479Y-115619906D01*
G04 #@! TO.C,U3*
X177780000Y-58310000D02*
X177780000Y-63610000D01*
X177780000Y-63610000D02*
X195680000Y-63610000D01*
X195680000Y-58310000D02*
X177780000Y-58310000D01*
X195680000Y-59960000D02*
X195680000Y-58310000D01*
X195680000Y-63610000D02*
X195680000Y-61960000D01*
X177720000Y-55820000D02*
X195740000Y-55820000D01*
X195740000Y-66100000D01*
X177720000Y-66100000D01*
X177720000Y-55820000D01*
X195680000Y-61960000D02*
G75*
G02*
X195680000Y-59960000I0J1000000D01*
G01*
G04 #@! TO.C,U4*
X145990000Y-58310000D02*
X145990000Y-63610000D01*
X145990000Y-63610000D02*
X171510000Y-63610000D01*
X171510000Y-58310000D02*
X145990000Y-58310000D01*
X171510000Y-59960000D02*
X171510000Y-58310000D01*
X171510000Y-63610000D02*
X171510000Y-61960000D01*
X145930000Y-55820000D02*
X171570000Y-55820000D01*
X171570000Y-66100000D01*
X145930000Y-66100000D01*
X145930000Y-55820000D01*
X171510000Y-61960000D02*
G75*
G02*
X171510000Y-59960000I0J1000000D01*
G01*
G04 #@! TO.C,C3*
X198127000Y-63781000D02*
X203367000Y-63781000D01*
X198127000Y-64118000D02*
X198127000Y-63781000D01*
X198127000Y-66521000D02*
X198127000Y-66184000D01*
X203367000Y-63781000D02*
X203367000Y-64118000D01*
X203367000Y-66184000D02*
X203367000Y-66521000D01*
X203367000Y-66521000D02*
X198127000Y-66521000D01*
G04 #@! TO.C,U7*
X134560000Y-32160000D02*
X134560000Y-45080000D01*
X134560000Y-45080000D02*
X170240000Y-45080000D01*
X170240000Y-32160000D02*
X134560000Y-32160000D01*
X170240000Y-37620000D02*
X170240000Y-32160000D01*
X170240000Y-45080000D02*
X170240000Y-39620000D01*
X170240000Y-39620000D02*
G75*
G02*
X170240000Y-37620000I0J1000000D01*
G01*
G04 #@! TO.C,C5*
X86577499Y-109715000D02*
X91817499Y-109715000D01*
X86577499Y-110052000D02*
X86577499Y-109715000D01*
X86577499Y-112455000D02*
X86577499Y-112118000D01*
X91817499Y-109715000D02*
X91817499Y-110052000D01*
X91817499Y-112118000D02*
X91817499Y-112455000D01*
X91817499Y-112455000D02*
X86577499Y-112455000D01*
G04 #@! TO.C,J3*
X114195000Y-79900000D02*
X114195000Y-82660000D01*
X162565000Y-79900000D02*
X114195000Y-79900000D01*
X162565000Y-79900000D02*
X162565000Y-82660000D01*
X162565000Y-82660000D02*
X114195000Y-82660000D01*
X163835000Y-79900000D02*
X165215000Y-79900000D01*
X165215000Y-79900000D02*
X165215000Y-81280000D01*
G04 #@! TO.C,C10*
X198080000Y-59605111D02*
X199620000Y-59605112D01*
X198080000Y-59645112D02*
X199620000Y-59645112D01*
X198081000Y-59565112D02*
X199620000Y-59565112D01*
X198083000Y-59525112D02*
X199620000Y-59525111D01*
X198085000Y-59485112D02*
X199620000Y-59485112D01*
X198087999Y-59445112D02*
X199620000Y-59445112D01*
X198091000Y-59405112D02*
X199620000Y-59405113D01*
X198095000Y-59365112D02*
X199620000Y-59365112D01*
X198100001Y-59325112D02*
X199620000Y-59325112D01*
X198105000Y-59285112D02*
X199620000Y-59285112D01*
X198111000Y-59245112D02*
X199619999Y-59245112D01*
X198117000Y-59205112D02*
X199620000Y-59205112D01*
X198124000Y-59165112D02*
X199620000Y-59165112D01*
X198132000Y-59125112D02*
X199620000Y-59125112D01*
X198141000Y-59085111D02*
X199620000Y-59085111D01*
X198150000Y-59045112D02*
X199620000Y-59045112D01*
X198159000Y-59005112D02*
X199620000Y-59005112D01*
X198170001Y-58965112D02*
X199620000Y-58965113D01*
X198181000Y-58925112D02*
X199620000Y-58925112D01*
X198193001Y-58885112D02*
X199620000Y-58885112D01*
X198205000Y-58845112D02*
X199620000Y-58845112D01*
X198218000Y-58805112D02*
X199619999Y-58805112D01*
X198232000Y-58765112D02*
X199620000Y-58765112D01*
X198247000Y-58725112D02*
X199620000Y-58725112D01*
X198262000Y-58685112D02*
X199620000Y-58685112D01*
X198278000Y-58645112D02*
X199620000Y-58645111D01*
X198295000Y-58605112D02*
X199620000Y-58605112D01*
X198312999Y-58565112D02*
X199620000Y-58565112D01*
X198331000Y-58525112D02*
X199620000Y-58525113D01*
X198351000Y-58485112D02*
X199620000Y-58485112D01*
X198371000Y-58445113D02*
X199620000Y-58445112D01*
X198392000Y-58405112D02*
X199620000Y-58405112D01*
X198414000Y-58365112D02*
X199619999Y-58365112D01*
X198437000Y-58325112D02*
X199620000Y-58325112D01*
X198461000Y-58285112D02*
X199620000Y-58285112D01*
X198485000Y-58245112D02*
X199620000Y-58245112D01*
X198511000Y-58205112D02*
X199619999Y-58205112D01*
X198538000Y-58165112D02*
X199620000Y-58165112D01*
X198565999Y-58125112D02*
X199620000Y-58125112D01*
X198595000Y-58085112D02*
X199620000Y-58085113D01*
X198625000Y-58045112D02*
X199620000Y-58045111D01*
X198657000Y-58005112D02*
X199620000Y-58005112D01*
X198690000Y-57965112D02*
X199620000Y-57965112D01*
X198724000Y-57925112D02*
X199620000Y-57925113D01*
X198759000Y-57885112D02*
X199620000Y-57885112D01*
X198796000Y-57845112D02*
X199620000Y-57845112D01*
X198835000Y-57805112D02*
X199620000Y-57805112D01*
X198875000Y-57765112D02*
X199619999Y-57765112D01*
X198917000Y-57725112D02*
X199620000Y-57725112D01*
X198935000Y-62199887D02*
X199435000Y-62199887D01*
X198961001Y-57685112D02*
X199620000Y-57685112D01*
X199008000Y-57645112D02*
X199620000Y-57645112D01*
X199056000Y-57605112D02*
X202264000Y-57605112D01*
X199107000Y-57565112D02*
X202213000Y-57565112D01*
X199161000Y-57525112D02*
X202159000Y-57525112D01*
X199185000Y-62449887D02*
X199185000Y-61949887D01*
X199216999Y-57485112D02*
X202103001Y-57485112D01*
X199277000Y-57445112D02*
X202043000Y-57445112D01*
X199341000Y-57405112D02*
X201979000Y-57405112D01*
X199409000Y-57365112D02*
X201911000Y-57365112D01*
X199483000Y-57325112D02*
X201837000Y-57325112D01*
X199562000Y-57285112D02*
X201758000Y-57285112D01*
X199649000Y-57245112D02*
X201671000Y-57245112D01*
X199746000Y-57205112D02*
X201574000Y-57205112D01*
X199855000Y-57165111D02*
X201465000Y-57165111D01*
X199983000Y-57125112D02*
X201337000Y-57125112D01*
X200143000Y-57085112D02*
X201177000Y-57085112D01*
X200377000Y-57045112D02*
X200943000Y-57045112D01*
X201700000Y-57645112D02*
X202312000Y-57645112D01*
X201700000Y-57685112D02*
X202358999Y-57685112D01*
X201700000Y-57725112D02*
X202403000Y-57725112D01*
X201700000Y-57805112D02*
X202485000Y-57805112D01*
X201700000Y-57845112D02*
X202524000Y-57845112D01*
X201700000Y-57885112D02*
X202561000Y-57885112D01*
X201700000Y-57925113D02*
X202596000Y-57925112D01*
X201700000Y-57965112D02*
X202630000Y-57965112D01*
X201700000Y-58005112D02*
X202663000Y-58005112D01*
X201700000Y-58045111D02*
X202695000Y-58045112D01*
X201700000Y-58085113D02*
X202725000Y-58085112D01*
X201700000Y-58125112D02*
X202754001Y-58125112D01*
X201700000Y-58165112D02*
X202782000Y-58165112D01*
X201700000Y-58245112D02*
X202835000Y-58245112D01*
X201700000Y-58285112D02*
X202859000Y-58285112D01*
X201700000Y-58325112D02*
X202883000Y-58325112D01*
X201700000Y-58405112D02*
X202928000Y-58405112D01*
X201700000Y-58445112D02*
X202949000Y-58445113D01*
X201700000Y-58485112D02*
X202969000Y-58485112D01*
X201700000Y-58525113D02*
X202989000Y-58525112D01*
X201700000Y-58565112D02*
X203007001Y-58565112D01*
X201700000Y-58605112D02*
X203025000Y-58605112D01*
X201700000Y-58645111D02*
X203042000Y-58645112D01*
X201700000Y-58685112D02*
X203058000Y-58685112D01*
X201700000Y-58725112D02*
X203073000Y-58725112D01*
X201700000Y-58765112D02*
X203088000Y-58765112D01*
X201700000Y-58845112D02*
X203115000Y-58845112D01*
X201700000Y-58885112D02*
X203126999Y-58885112D01*
X201700000Y-58925112D02*
X203139000Y-58925112D01*
X201700000Y-58965113D02*
X203149999Y-58965112D01*
X201700000Y-59005112D02*
X203161000Y-59005112D01*
X201700000Y-59045112D02*
X203170000Y-59045112D01*
X201700000Y-59085111D02*
X203179000Y-59085111D01*
X201700000Y-59125112D02*
X203188000Y-59125112D01*
X201700000Y-59165112D02*
X203196000Y-59165112D01*
X201700000Y-59205112D02*
X203203000Y-59205112D01*
X201700000Y-59285112D02*
X203215000Y-59285112D01*
X201700000Y-59325112D02*
X203219999Y-59325112D01*
X201700000Y-59365112D02*
X203225000Y-59365112D01*
X201700000Y-59405113D02*
X203229000Y-59405112D01*
X201700000Y-59445112D02*
X203232001Y-59445112D01*
X201700000Y-59485112D02*
X203235000Y-59485112D01*
X201700000Y-59525111D02*
X203237000Y-59525112D01*
X201700000Y-59565112D02*
X203239000Y-59565112D01*
X201700000Y-59605112D02*
X203240000Y-59605111D01*
X201700000Y-59645112D02*
X203240000Y-59645112D01*
X201700001Y-57765112D02*
X202445000Y-57765112D01*
X201700001Y-58205112D02*
X202809000Y-58205112D01*
X201700001Y-58365112D02*
X202906000Y-58365112D01*
X201700001Y-58805112D02*
X203102000Y-58805112D01*
X201700001Y-59245112D02*
X203209000Y-59245112D01*
X203280001Y-59645112D02*
G75*
G02*
X198039999Y-59645112I-2620001J0D01*
G01*
X198039999Y-59645112D02*
G75*
G02*
X203280001Y-59645112I2620001J0D01*
G01*
G04 #@! TO.C,R42*
X114950000Y-74899000D02*
X111110000Y-74899000D01*
X114950000Y-76739000D02*
X111110000Y-76739000D01*
G04 #@! TO.C,C6*
X145803000Y-51208000D02*
X151043000Y-51208000D01*
X145803000Y-51545000D02*
X145803000Y-51208000D01*
X145803000Y-53948000D02*
X145803000Y-53611000D01*
X151043000Y-51208000D02*
X151043000Y-51545000D01*
X151043000Y-53611000D02*
X151043000Y-53948000D01*
X151043000Y-53948000D02*
X145803000Y-53948000D01*
G04 #@! TO.C,U1*
X139645000Y-72280000D02*
X139645000Y-77580000D01*
X139645000Y-77580000D02*
X165165000Y-77580000D01*
X165165000Y-72280000D02*
X139645000Y-72280000D01*
X165165000Y-73930000D02*
X165165000Y-72280000D01*
X165165000Y-77580000D02*
X165165000Y-75930000D01*
X139585000Y-69790000D02*
X165225000Y-69790000D01*
X165225000Y-80070000D01*
X139585000Y-80070000D01*
X139585000Y-69790000D01*
X165165000Y-75930000D02*
G75*
G02*
X165165000Y-73930000I0J1000000D01*
G01*
G04 #@! TO.C,J1*
X114190000Y-67200000D02*
X114190000Y-69960000D01*
X162560000Y-67200000D02*
X114190000Y-67200000D01*
X162560000Y-67200000D02*
X162560000Y-69960000D01*
X162560000Y-69960000D02*
X114190000Y-69960000D01*
X163830000Y-67200000D02*
X165210000Y-67200000D01*
X165210000Y-67200000D02*
X165210000Y-68580000D01*
G04 #@! TO.C,R51*
X175957771Y-29574373D02*
X172117771Y-29574373D01*
X175957771Y-31414373D02*
X172117771Y-31414373D01*
G04 #@! TO.C,C2*
X179667771Y-29124373D02*
X184907771Y-29124373D01*
X179667771Y-29461373D02*
X179667771Y-29124373D01*
X179667771Y-31864373D02*
X179667771Y-31527373D01*
X184907771Y-29124373D02*
X184907771Y-29461373D01*
X184907771Y-31527373D02*
X184907771Y-31864373D01*
X184907771Y-31864373D02*
X179667771Y-31864373D01*
G04 #@! TO.C,U5*
X118050000Y-58310000D02*
X118050000Y-63610000D01*
X118050000Y-63610000D02*
X143570000Y-63610000D01*
X143570000Y-58310000D02*
X118050000Y-58310000D01*
X143570000Y-59960000D02*
X143570000Y-58310000D01*
X143570000Y-63610000D02*
X143570000Y-61960000D01*
X117990000Y-55820000D02*
X143630000Y-55820000D01*
X143630000Y-66100000D01*
X117990000Y-66100000D01*
X117990000Y-55820000D01*
X143570000Y-61960000D02*
G75*
G02*
X143570000Y-59960000I0J1000000D01*
G01*
G04 #@! TO.C,R39*
X125364000Y-84805000D02*
X121524000Y-84805000D01*
X125364000Y-86645000D02*
X121524000Y-86645000D01*
G04 #@! TO.C,R40*
X87277499Y-104450000D02*
X91117499Y-104450000D01*
X87277499Y-106290000D02*
X91117499Y-106290000D01*
G04 #@! TO.C,D1*
X83840000Y-63500000D02*
X84860000Y-63500000D01*
X85640000Y-62030000D02*
X85640000Y-64970000D01*
X85760000Y-62030000D02*
X85760000Y-64970000D01*
X85880000Y-62030000D02*
X85880000Y-64970000D01*
X91320000Y-63500000D02*
X90300000Y-63500000D01*
X84860000Y-62030000D02*
X90300000Y-62030000D01*
X90300000Y-64970000D01*
X84860000Y-64970000D01*
X84860000Y-62030000D01*
G04 #@! TO.C,C1*
X119975000Y-74830000D02*
X125215000Y-74830000D01*
X119975000Y-75167000D02*
X119975000Y-74830000D01*
X119975000Y-77570000D02*
X119975000Y-77233000D01*
X125215000Y-74830000D02*
X125215000Y-75167000D01*
X125215000Y-77233000D02*
X125215000Y-77570000D01*
X125215000Y-77570000D02*
X119975000Y-77570000D01*
G04 #@! TO.C,C9*
X175140000Y-109755000D02*
X180380000Y-109755000D01*
X175140000Y-110092000D02*
X175140000Y-109755000D01*
X175140000Y-112495000D02*
X175140000Y-112158000D01*
X180380000Y-109755000D02*
X180380000Y-110092000D01*
X180380000Y-112158000D02*
X180380000Y-112495000D01*
X180380000Y-112495000D02*
X175140000Y-112495000D01*
G04 #@! TD*
%LPC*%
D12*
G04 #@! TO.C,R45*
X121285000Y-48260000D03*
X121285000Y-53339999D03*
G04 #@! TD*
G04 #@! TO.C,R44*
X124435000Y-48260000D03*
X124435000Y-53339999D03*
G04 #@! TD*
G04 #@! TO.C,R43*
X127585000Y-48260000D03*
X127585000Y-53339999D03*
G04 #@! TD*
G04 #@! TO.C,R41*
X91737499Y-107910000D03*
X86657500Y-107910000D03*
G04 #@! TD*
D13*
G04 #@! TO.C,C7*
X179785000Y-33655000D03*
X184785000Y-33655000D03*
G04 #@! TD*
D12*
G04 #@! TO.C,R1*
X127635000Y-75897503D03*
X132715000Y-75897503D03*
G04 #@! TD*
D14*
G04 #@! TO.C,H4*
X81026000Y-117856000D03*
G04 #@! TD*
G04 #@! TO.C,H1*
X81026000Y-37846000D03*
G04 #@! TD*
D15*
G04 #@! TO.C,U6*
X168910000Y-95250000D03*
D16*
X166370000Y-95250000D03*
X163830000Y-95250000D03*
X161290000Y-95250000D03*
D13*
X158750000Y-95250000D03*
X156210000Y-95250000D03*
X153670000Y-95250000D03*
X151130000Y-95250000D03*
X148590000Y-95250000D03*
D16*
X146050000Y-95250000D03*
X143510000Y-95250000D03*
D13*
X140970000Y-95250000D03*
D16*
X138430000Y-95250000D03*
X135890000Y-95250000D03*
D13*
X135890000Y-110490000D03*
X138430000Y-110490000D03*
X140970000Y-110490000D03*
X143510000Y-110490000D03*
X146050000Y-110490000D03*
X148590000Y-110490000D03*
X151130000Y-110490000D03*
D12*
X153670000Y-110490000D03*
D17*
X156210000Y-110490000D03*
D15*
X158750000Y-110490000D03*
D13*
X161290000Y-110490000D03*
D17*
X163830000Y-110490000D03*
X166370000Y-110490000D03*
D13*
X168910000Y-110490000D03*
G04 #@! TD*
D18*
G04 #@! TO.C,D2*
X82500000Y-67000000D03*
D19*
X82500000Y-77160000D03*
G04 #@! TD*
D13*
G04 #@! TO.C,C4*
X91737500Y-100290000D03*
X86737500Y-100290000D03*
G04 #@! TD*
D20*
G04 #@! TO.C,U9*
X179070000Y-77470000D03*
D13*
X181610000Y-77470000D03*
X184149999Y-77470000D03*
X186690000Y-77470000D03*
X189230000Y-77470000D03*
X191770000Y-77470000D03*
X194310000Y-77470000D03*
X194310000Y-69850000D03*
X191770000Y-69850000D03*
X189230000Y-69850000D03*
X186690000Y-69850000D03*
X184150000Y-69850000D03*
X181610000Y-69850000D03*
X179070000Y-69850000D03*
G04 #@! TD*
D20*
G04 #@! TO.C,U8*
X96817500Y-111720000D03*
D13*
X99357500Y-111720000D03*
X101897499Y-111720000D03*
X104437500Y-111720000D03*
X104437500Y-104100000D03*
X101897500Y-104100000D03*
X99357500Y-104100000D03*
X96817500Y-104100000D03*
G04 #@! TD*
G04 #@! TO.C,C8*
X91709479Y-114249906D03*
X86709479Y-114249906D03*
G04 #@! TD*
D21*
G04 #@! TO.C,U3*
X194350000Y-57150000D03*
D13*
X191810000Y-57150000D03*
X189270000Y-57150000D03*
X186730000Y-57150000D03*
X184190000Y-57150000D03*
X181650000Y-57150000D03*
X179110000Y-57150000D03*
X179110000Y-64770000D03*
X181650000Y-64770000D03*
X184190000Y-64770000D03*
X186730000Y-64770000D03*
X189270000Y-64770000D03*
X191810000Y-64770000D03*
X194350000Y-64770000D03*
G04 #@! TD*
D14*
G04 #@! TO.C,H2*
X220091000Y-37846000D03*
G04 #@! TD*
D21*
G04 #@! TO.C,U4*
X170180000Y-57150000D03*
D13*
X167640000Y-57150000D03*
X165100000Y-57150000D03*
X162560000Y-57150000D03*
X160020000Y-57150000D03*
X157480000Y-57150000D03*
X154940000Y-57150000D03*
X152400000Y-57150000D03*
X149860000Y-57150000D03*
X147320000Y-57150000D03*
X147320000Y-64770000D03*
X149860000Y-64770000D03*
X152400000Y-64770000D03*
X154940000Y-64770000D03*
X157480000Y-64770000D03*
X160020000Y-64770000D03*
X162560000Y-64770000D03*
X165100000Y-64770000D03*
X167640000Y-64770000D03*
X170180000Y-64770000D03*
G04 #@! TD*
D14*
G04 #@! TO.C,H3*
X220091000Y-117856000D03*
G04 #@! TD*
D13*
G04 #@! TO.C,C3*
X198247000Y-65151000D03*
X203247000Y-65151000D03*
G04 #@! TD*
D21*
G04 #@! TO.C,U7*
X168910000Y-31000000D03*
D13*
X166370000Y-31000000D03*
X163830000Y-31000000D03*
X161290000Y-31000000D03*
X158750000Y-31000000D03*
X156210000Y-31000000D03*
X153670000Y-31000000D03*
X151130000Y-31000000D03*
X148590000Y-31000000D03*
X146050000Y-31000000D03*
X143510000Y-31000000D03*
X140970000Y-31000000D03*
X138430000Y-31000000D03*
X135890000Y-31000000D03*
X135890000Y-46240000D03*
X138430000Y-46240000D03*
X140970000Y-46240000D03*
X143510000Y-46240000D03*
X146050000Y-46240000D03*
X148590000Y-46240000D03*
X151130000Y-46240000D03*
X153670000Y-46240000D03*
X156210000Y-46240000D03*
X158750000Y-46240000D03*
X161290000Y-46240000D03*
X163830000Y-46240000D03*
X166370000Y-46240000D03*
X168910000Y-46240000D03*
G04 #@! TD*
G04 #@! TO.C,C5*
X91697499Y-111085000D03*
X86697499Y-111085000D03*
G04 #@! TD*
D22*
G04 #@! TO.C,J3*
X163835000Y-81280000D03*
D16*
X161295000Y-81280000D03*
D23*
X158755000Y-81280000D03*
D16*
X156215000Y-81280000D03*
X153675000Y-81280000D03*
X151135000Y-81280000D03*
X148595000Y-81280000D03*
D24*
X146055000Y-81280000D03*
D16*
X143515000Y-81280000D03*
X140975000Y-81280000D03*
D24*
X138435000Y-81280000D03*
X135895000Y-81280000D03*
X133355000Y-81280000D03*
X130815000Y-81280000D03*
X128275000Y-81280000D03*
X125735000Y-81280000D03*
X123195000Y-81280000D03*
X120655000Y-81280000D03*
X118115000Y-81280000D03*
X115575000Y-81280000D03*
G04 #@! TD*
D20*
G04 #@! TO.C,C10*
X200660000Y-60645112D03*
D13*
X200660000Y-58645111D03*
G04 #@! TD*
D12*
G04 #@! TO.C,R42*
X115570000Y-75819000D03*
X110490001Y-75819000D03*
G04 #@! TD*
D13*
G04 #@! TO.C,C6*
X145923000Y-52578000D03*
X150923000Y-52578000D03*
G04 #@! TD*
D21*
G04 #@! TO.C,U1*
X163835000Y-71120000D03*
D13*
X161295000Y-71120000D03*
X158755000Y-71120000D03*
X156215000Y-71120000D03*
X153675000Y-71120000D03*
X151135000Y-71120000D03*
X148595000Y-71120000D03*
X146055000Y-71120000D03*
D25*
X143515000Y-71120000D03*
D13*
X140975000Y-71120000D03*
X140975000Y-78740000D03*
X143515000Y-78740000D03*
D25*
X146055000Y-78740000D03*
X148595000Y-78740000D03*
D13*
X151135000Y-78740000D03*
X153675000Y-78740000D03*
X156215000Y-78740000D03*
D12*
X158755000Y-78740000D03*
X161295000Y-78740000D03*
D13*
X163835000Y-78740000D03*
G04 #@! TD*
D26*
G04 #@! TO.C,J1*
X163830000Y-68580000D03*
D24*
X161290000Y-68580000D03*
X158750000Y-68580000D03*
X156210000Y-68580000D03*
X153670000Y-68580000D03*
X151130000Y-68580000D03*
X148590000Y-68580000D03*
X146050000Y-68580000D03*
X143510000Y-68580000D03*
X140970000Y-68580000D03*
X138430000Y-68580000D03*
X135890000Y-68580000D03*
X133350000Y-68580000D03*
X130810000Y-68580000D03*
X128270000Y-68580000D03*
X125730000Y-68580000D03*
X123190000Y-68580000D03*
X120650000Y-68580000D03*
X118110000Y-68580000D03*
X115570000Y-68580000D03*
G04 #@! TD*
D12*
G04 #@! TO.C,R51*
X176577771Y-30494373D03*
X171497772Y-30494373D03*
G04 #@! TD*
D13*
G04 #@! TO.C,C2*
X184787771Y-30494373D03*
X179787771Y-30494373D03*
G04 #@! TD*
D21*
G04 #@! TO.C,U5*
X142240000Y-57150000D03*
D13*
X139700000Y-57150000D03*
X137160000Y-57150000D03*
X134620000Y-57150000D03*
X132080000Y-57150000D03*
X129540000Y-57150000D03*
X127000000Y-57150000D03*
X124460000Y-57150000D03*
X121920000Y-57150000D03*
X119380000Y-57150000D03*
X119380000Y-64770000D03*
X121920000Y-64770000D03*
X124460000Y-64770000D03*
X127000000Y-64770000D03*
X129540000Y-64770000D03*
X132080000Y-64770000D03*
X134620000Y-64770000D03*
X137160000Y-64770000D03*
X139700000Y-64770000D03*
X142240000Y-64770000D03*
G04 #@! TD*
D12*
G04 #@! TO.C,R39*
X125984000Y-85725000D03*
X120904000Y-85725000D03*
G04 #@! TD*
G04 #@! TO.C,R40*
X86657499Y-105370000D03*
X91737498Y-105370000D03*
G04 #@! TD*
D27*
G04 #@! TO.C,D1*
X82500000Y-63500000D03*
D19*
X92660000Y-63500000D03*
G04 #@! TD*
D13*
G04 #@! TO.C,C1*
X125095000Y-76200000D03*
X120095000Y-76200000D03*
G04 #@! TD*
G04 #@! TO.C,C9*
X175260000Y-111125000D03*
X180260000Y-111125000D03*
G04 #@! TD*
D28*
G04 #@! TO.C,J4*
X83250000Y-54569436D03*
X83250000Y-48789436D03*
D29*
X79570000Y-55999436D03*
D30*
X83750000Y-55999436D03*
D29*
X79570000Y-47359436D03*
D30*
X83750000Y-47359436D03*
G04 #@! TD*
D31*
G04 #@! TO.C,RV1*
X83242499Y-107870000D03*
D32*
X83242499Y-105370000D03*
X83242499Y-102870000D03*
G04 #@! TD*
%LPD*%
M02*
