G04 #@! TF.GenerationSoftware,KiCad,Pcbnew,10.0.5*
G04 #@! TF.CreationDate,2026-08-07T17:16:46+02:00*
G04 #@! TF.ProjectId,motherboard,6d6f7468-6572-4626-9f61-72642e6b6963,rev?*
G04 #@! TF.SameCoordinates,Original*
G04 #@! TF.FileFunction,Copper,L1,Top*
G04 #@! TF.FilePolarity,Positive*
%FSLAX46Y46*%
G04 Gerber Fmt 4.6, Leading zero omitted, Abs format (unit mm)*
G04 Created by KiCad (PCBNEW 10.0.5) date 2026-08-07 17:16:46*
%MOMM*%
%LPD*%
G01*
G04 APERTURE LIST*
G04 Aperture macros list*
%AMRoundRect*
0 Rectangle with rounded corners*
0 $1 Rounding radius*
0 $2 $3 $4 $5 $6 $7 $8 $9 X,Y pos of 4 corners*
0 Add a 4 corners polygon primitive as box body*
4,1,4,$2,$3,$4,$5,$6,$7,$8,$9,$2,$3,0*
0 Add four circle primitives for the rounded corners*
1,1,$1+$1,$2,$3*
1,1,$1+$1,$4,$5*
1,1,$1+$1,$6,$7*
1,1,$1+$1,$8,$9*
0 Add four rect primitives between the rounded corners*
20,1,$1+$1,$2,$3,$4,$5,0*
20,1,$1+$1,$4,$5,$6,$7,0*
20,1,$1+$1,$6,$7,$8,$9,0*
20,1,$1+$1,$8,$9,$2,$3,0*%
G04 Aperture macros list end*
G04 #@! TA.AperFunction,ComponentPad*
%ADD10C,1.400000*%
G04 #@! TD*
G04 #@! TA.AperFunction,ComponentPad*
%ADD11C,1.600000*%
G04 #@! TD*
G04 #@! TA.AperFunction,ComponentPad*
%ADD12RoundRect,0.187500X-0.412500X0.612500X-0.412500X-0.612500X0.412500X-0.612500X0.412500X0.612500X0*%
G04 #@! TD*
G04 #@! TA.AperFunction,ComponentPad*
%ADD13RoundRect,0.250000X-0.350000X0.550000X-0.350000X-0.550000X0.350000X-0.550000X0.350000X0.550000X0*%
G04 #@! TD*
G04 #@! TA.AperFunction,ComponentPad*
%ADD14RoundRect,0.214286X-0.385714X0.585714X-0.385714X-0.585714X0.385714X-0.585714X0.385714X0.585714X0*%
G04 #@! TD*
G04 #@! TA.AperFunction,ComponentPad*
%ADD15RoundRect,0.249999X-0.850001X0.850001X-0.850001X-0.850001X0.850001X-0.850001X0.850001X0.850001X0*%
G04 #@! TD*
G04 #@! TA.AperFunction,ComponentPad*
%ADD16C,2.200000*%
G04 #@! TD*
G04 #@! TA.AperFunction,ComponentPad*
%ADD17RoundRect,0.250000X0.550000X-0.550000X0.550000X0.550000X-0.550000X0.550000X-0.550000X-0.550000X0*%
G04 #@! TD*
G04 #@! TA.AperFunction,ComponentPad*
%ADD18RoundRect,0.250000X-0.550000X0.550000X-0.550000X-0.550000X0.550000X-0.550000X0.550000X0.550000X0*%
G04 #@! TD*
G04 #@! TA.AperFunction,ComponentPad*
%ADD19R,1.200000X1.700000*%
G04 #@! TD*
G04 #@! TA.AperFunction,ComponentPad*
%ADD20RoundRect,0.250000X-0.450000X0.550000X-0.450000X-0.550000X0.450000X-0.550000X0.450000X0.550000X0*%
G04 #@! TD*
G04 #@! TA.AperFunction,ComponentPad*
%ADD21C,1.700000*%
G04 #@! TD*
G04 #@! TA.AperFunction,ComponentPad*
%ADD22C,1.200000*%
G04 #@! TD*
G04 #@! TA.AperFunction,ComponentPad*
%ADD23R,1.700000X1.700000*%
G04 #@! TD*
G04 #@! TA.AperFunction,ComponentPad*
%ADD24RoundRect,0.249999X-0.850001X-0.850001X0.850001X-0.850001X0.850001X0.850001X-0.850001X0.850001X0*%
G04 #@! TD*
G04 #@! TA.AperFunction,ComponentPad*
%ADD25O,1.600000X1.000000*%
G04 #@! TD*
G04 #@! TA.AperFunction,ComponentPad*
%ADD26O,2.100000X1.000000*%
G04 #@! TD*
G04 #@! TA.AperFunction,ComponentPad*
%ADD27R,1.800000X1.800000*%
G04 #@! TD*
G04 #@! TA.AperFunction,ComponentPad*
%ADD28C,1.800000*%
G04 #@! TD*
G04 #@! TA.AperFunction,ViaPad*
%ADD29C,1.200000*%
G04 #@! TD*
G04 #@! TA.AperFunction,Conductor*
%ADD30C,0.500000*%
G04 #@! TD*
G04 #@! TA.AperFunction,Conductor*
%ADD31C,0.400000*%
G04 #@! TD*
G04 APERTURE END LIST*
D10*
G04 #@! TO.P,R45,1*
G04 #@! TO.N,GND*
X121285000Y-48260000D03*
G04 #@! TO.P,R45,2*
G04 #@! TO.N,A15*
X121285000Y-53339999D03*
G04 #@! TD*
G04 #@! TO.P,R44,1*
G04 #@! TO.N,GND*
X124435000Y-48260000D03*
G04 #@! TO.P,R44,2*
G04 #@! TO.N,A14*
X124435000Y-53339999D03*
G04 #@! TD*
G04 #@! TO.P,R43,1*
G04 #@! TO.N,GND*
X127585000Y-48260000D03*
G04 #@! TO.P,R43,2*
G04 #@! TO.N,A13*
X127585000Y-53339999D03*
G04 #@! TD*
G04 #@! TO.P,R41,1*
G04 #@! TO.N,Net-(U8-THR)*
X91737499Y-107910000D03*
G04 #@! TO.P,R41,2*
G04 #@! TO.N,Net-(R41-Pad2)*
X86657500Y-107910000D03*
G04 #@! TD*
D11*
G04 #@! TO.P,C7,1*
G04 #@! TO.N,+5V*
X179785000Y-33655000D03*
G04 #@! TO.P,C7,2*
G04 #@! TO.N,GND*
X184785000Y-33655000D03*
G04 #@! TD*
D10*
G04 #@! TO.P,R1,1*
G04 #@! TO.N,GND*
X127635000Y-75897503D03*
G04 #@! TO.P,R1,2*
G04 #@! TO.N,LDMSBA*
X132715000Y-75897503D03*
G04 #@! TD*
D12*
G04 #@! TO.P,U6,1,A14_1*
G04 #@! TO.N,B14*
X168910000Y-95250000D03*
D13*
G04 #@! TO.P,U6,2,A12_2*
G04 #@! TO.N,B12*
X166370000Y-95250000D03*
G04 #@! TO.P,U6,3,A7_3*
G04 #@! TO.N,B7*
X163830000Y-95250000D03*
G04 #@! TO.P,U6,4,A6_4*
G04 #@! TO.N,B6*
X161290000Y-95250000D03*
D11*
G04 #@! TO.P,U6,5,A5_5*
G04 #@! TO.N,B5*
X158750000Y-95250000D03*
G04 #@! TO.P,U6,6,A4_6*
G04 #@! TO.N,B4*
X156210000Y-95250000D03*
G04 #@! TO.P,U6,7,A3_7*
G04 #@! TO.N,B3*
X153670000Y-95250000D03*
G04 #@! TO.P,U6,8,A2_8*
G04 #@! TO.N,B2*
X151130000Y-95250000D03*
G04 #@! TO.P,U6,9,A1_9*
G04 #@! TO.N,B1*
X148590000Y-95250000D03*
D13*
G04 #@! TO.P,U6,10,A0_10*
G04 #@! TO.N,B0*
X146050000Y-95250000D03*
G04 #@! TO.P,U6,11,Q0_11*
G04 #@! TO.N,D0*
X143510000Y-95250000D03*
D11*
G04 #@! TO.P,U6,12,Q1_12*
G04 #@! TO.N,D1*
X140970000Y-95250000D03*
D13*
G04 #@! TO.P,U6,13,Q2_13*
G04 #@! TO.N,D2*
X138430000Y-95250000D03*
G04 #@! TO.P,U6,14,GND_14*
G04 #@! TO.N,GND*
X135890000Y-95250000D03*
D11*
G04 #@! TO.P,U6,15,Q3_15*
G04 #@! TO.N,D3*
X135890000Y-110490000D03*
G04 #@! TO.P,U6,16,Q4_16*
G04 #@! TO.N,D4*
X138430000Y-110490000D03*
G04 #@! TO.P,U6,17,Q5_17*
G04 #@! TO.N,D5*
X140970000Y-110490000D03*
G04 #@! TO.P,U6,18,Q6_18*
G04 #@! TO.N,D6*
X143510000Y-110490000D03*
G04 #@! TO.P,U6,19,Q7_19*
G04 #@! TO.N,D7*
X146050000Y-110490000D03*
G04 #@! TO.P,U6,20,~{CS}_20*
G04 #@! TO.N,~{RAMCS}*
X148590000Y-110490000D03*
G04 #@! TO.P,U6,21,A10_21*
G04 #@! TO.N,B10*
X151130000Y-110490000D03*
D10*
G04 #@! TO.P,U6,22,~{OE}_22*
G04 #@! TO.N,~{OE}OVR*
X153670000Y-110490000D03*
D14*
G04 #@! TO.P,U6,23,A11_23*
G04 #@! TO.N,B11*
X156210000Y-110490000D03*
D12*
G04 #@! TO.P,U6,24,A9_24*
G04 #@! TO.N,B9*
X158750000Y-110490000D03*
D11*
G04 #@! TO.P,U6,25,A8_25*
G04 #@! TO.N,B8*
X161290000Y-110490000D03*
D14*
G04 #@! TO.P,U6,26,A13_26*
G04 #@! TO.N,B13*
X163830000Y-110490000D03*
G04 #@! TO.P,U6,27,~{WE}_27*
G04 #@! TO.N,Net-(U6-~{WE})*
X166370000Y-110490000D03*
D11*
G04 #@! TO.P,U6,28,VCC_28*
G04 #@! TO.N,Net-(D1-K)*
X168910000Y-110490000D03*
G04 #@! TD*
D15*
G04 #@! TO.P,D2,1,K_1*
G04 #@! TO.N,Net-(D1-K)*
X82500000Y-67000000D03*
D16*
G04 #@! TO.P,D2,2,A_2*
G04 #@! TO.N,+5V*
X82500000Y-77160000D03*
G04 #@! TD*
D11*
G04 #@! TO.P,C4,1*
G04 #@! TO.N,Net-(U8-CV)*
X91737500Y-100290000D03*
G04 #@! TO.P,C4,2*
G04 #@! TO.N,GND*
X86737500Y-100290000D03*
G04 #@! TD*
D17*
G04 #@! TO.P,U9,1*
G04 #@! TO.N,~{WE}OVR*
X179070000Y-77470000D03*
D11*
G04 #@! TO.P,U9,2*
G04 #@! TO.N,\u00D81*
X181610000Y-77470000D03*
G04 #@! TO.P,U9,3*
G04 #@! TO.N,Net-(U9-Pad12)*
X184149999Y-77470000D03*
G04 #@! TO.P,U9,4*
G04 #@! TO.N,Net-(U9-Pad11)*
X186690000Y-77470000D03*
G04 #@! TO.P,U9,5*
X189230000Y-77470000D03*
G04 #@! TO.P,U9,6*
G04 #@! TO.N,Net-(U6-~{WE})*
X191770000Y-77470000D03*
G04 #@! TO.P,U9,7,GND_7*
G04 #@! TO.N,GND*
X194310000Y-77470000D03*
G04 #@! TO.P,U9,8*
G04 #@! TO.N,Net-(U1-OE)*
X194310000Y-69850000D03*
G04 #@! TO.P,U9,9*
G04 #@! TO.N,ABUSOVR*
X191770000Y-69850000D03*
G04 #@! TO.P,U9,10*
X189230000Y-69850000D03*
G04 #@! TO.P,U9,11*
G04 #@! TO.N,Net-(U9-Pad11)*
X186690000Y-69850000D03*
G04 #@! TO.P,U9,12*
G04 #@! TO.N,Net-(U9-Pad12)*
X184150000Y-69850000D03*
G04 #@! TO.P,U9,13*
G04 #@! TO.N,Net-(U3-Pad11)*
X181610000Y-69850000D03*
G04 #@! TO.P,U9,14,VCC_14*
G04 #@! TO.N,+5V*
X179070000Y-69850000D03*
G04 #@! TD*
D17*
G04 #@! TO.P,U8,1,GND_1*
G04 #@! TO.N,GND*
X96817500Y-111720000D03*
D11*
G04 #@! TO.P,U8,2,TR_2*
G04 #@! TO.N,Net-(U8-THR)*
X99357500Y-111720000D03*
G04 #@! TO.P,U8,3,Q_3*
G04 #@! TO.N,Net-(U8-Q)*
X101897499Y-111720000D03*
G04 #@! TO.P,U8,4,R_4*
G04 #@! TO.N,+5V*
X104437500Y-111720000D03*
G04 #@! TO.P,U8,5,CV_5*
G04 #@! TO.N,Net-(U8-CV)*
X104437500Y-104100000D03*
G04 #@! TO.P,U8,6,THR_6*
G04 #@! TO.N,Net-(U8-THR)*
X101897500Y-104100000D03*
G04 #@! TO.P,U8,7,DIS_7*
G04 #@! TO.N,Net-(U8-DIS)*
X99357500Y-104100000D03*
G04 #@! TO.P,U8,8,VCC_8*
G04 #@! TO.N,+5V*
X96817500Y-104100000D03*
G04 #@! TD*
G04 #@! TO.P,C8,1*
G04 #@! TO.N,+5V*
X91709479Y-114249906D03*
G04 #@! TO.P,C8,2*
G04 #@! TO.N,GND*
X86709479Y-114249906D03*
G04 #@! TD*
D18*
G04 #@! TO.P,U3,1*
G04 #@! TO.N,\u00D80*
X194350000Y-57150000D03*
D11*
G04 #@! TO.P,U3,2*
X191810000Y-57150000D03*
G04 #@! TO.P,U3,3*
G04 #@! TO.N,\u00D81*
X189270000Y-57150000D03*
G04 #@! TO.P,U3,4*
G04 #@! TO.N,Net-(U7-R{slash}~{W})*
X186730000Y-57150000D03*
G04 #@! TO.P,U3,5*
X184190000Y-57150000D03*
G04 #@! TO.P,U3,6*
G04 #@! TO.N,~{RW}*
X181650000Y-57150000D03*
G04 #@! TO.P,U3,7,GND_7*
G04 #@! TO.N,GND*
X179110000Y-57150000D03*
G04 #@! TO.P,U3,8*
G04 #@! TO.N,\u00D80*
X179110000Y-64770000D03*
G04 #@! TO.P,U3,9*
G04 #@! TO.N,Net-(U8-Q)*
X181650000Y-64770000D03*
G04 #@! TO.P,U3,10*
X184190000Y-64770000D03*
G04 #@! TO.P,U3,11*
G04 #@! TO.N,Net-(U3-Pad11)*
X186730000Y-64770000D03*
G04 #@! TO.P,U3,12*
G04 #@! TO.N,\u00D80*
X189270000Y-64770000D03*
G04 #@! TO.P,U3,13*
G04 #@! TO.N,~{RW}*
X191810000Y-64770000D03*
G04 #@! TO.P,U3,14,VCC_14*
G04 #@! TO.N,+5V*
X194350000Y-64770000D03*
G04 #@! TD*
D18*
G04 #@! TO.P,U4,1,A->B_1*
G04 #@! TO.N,+5V*
X170180000Y-57150000D03*
D11*
G04 #@! TO.P,U4,2,A0_2*
G04 #@! TO.N,A0*
X167640000Y-57150000D03*
G04 #@! TO.P,U4,3,A1_3*
G04 #@! TO.N,A1*
X165100000Y-57150000D03*
G04 #@! TO.P,U4,4,A2_4*
G04 #@! TO.N,A2*
X162560000Y-57150000D03*
G04 #@! TO.P,U4,5,A3_5*
G04 #@! TO.N,A3*
X160020000Y-57150000D03*
G04 #@! TO.P,U4,6,A4_6*
G04 #@! TO.N,A4*
X157480000Y-57150000D03*
G04 #@! TO.P,U4,7,A5_7*
G04 #@! TO.N,A5*
X154940000Y-57150000D03*
G04 #@! TO.P,U4,8,A6_8*
G04 #@! TO.N,A6*
X152400000Y-57150000D03*
G04 #@! TO.P,U4,9,A7_9*
G04 #@! TO.N,A7*
X149860000Y-57150000D03*
G04 #@! TO.P,U4,10,GND_10*
G04 #@! TO.N,GND*
X147320000Y-57150000D03*
G04 #@! TO.P,U4,11,B7_11*
G04 #@! TO.N,B7*
X147320000Y-64770000D03*
G04 #@! TO.P,U4,12,B6_12*
G04 #@! TO.N,B6*
X149860000Y-64770000D03*
G04 #@! TO.P,U4,13,B5_13*
G04 #@! TO.N,B5*
X152400000Y-64770000D03*
G04 #@! TO.P,U4,14,B4_14*
G04 #@! TO.N,B4*
X154940000Y-64770000D03*
G04 #@! TO.P,U4,15,B3_15*
G04 #@! TO.N,B3*
X157480000Y-64770000D03*
G04 #@! TO.P,U4,16,B2_16*
G04 #@! TO.N,B2*
X160020000Y-64770000D03*
G04 #@! TO.P,U4,17,B1_17*
G04 #@! TO.N,B1*
X162560000Y-64770000D03*
G04 #@! TO.P,U4,18,B0_18*
G04 #@! TO.N,B0*
X165100000Y-64770000D03*
G04 #@! TO.P,U4,19,CE_19*
G04 #@! TO.N,ABUSOVR*
X167640000Y-64770000D03*
G04 #@! TO.P,U4,20,VCC_20*
G04 #@! TO.N,+5V*
X170180000Y-64770000D03*
G04 #@! TD*
G04 #@! TO.P,C3,1*
G04 #@! TO.N,+5V*
X198247000Y-65151000D03*
G04 #@! TO.P,C3,2*
G04 #@! TO.N,GND*
X203247000Y-65151000D03*
G04 #@! TD*
D18*
G04 #@! TO.P,U7,1,~{RES}_1*
G04 #@! TO.N,~{RST}*
X168910000Y-31000000D03*
D11*
G04 #@! TO.P,U7,2,VSS_2*
G04 #@! TO.N,GND*
X166370000Y-31000000D03*
G04 #@! TO.P,U7,3,RDY_3*
G04 #@! TO.N,RDY*
X163830000Y-31000000D03*
G04 #@! TO.P,U7,4,VCC_4*
G04 #@! TO.N,+5V*
X161290000Y-31000000D03*
G04 #@! TO.P,U7,5,A0_5*
G04 #@! TO.N,A0*
X158750000Y-31000000D03*
G04 #@! TO.P,U7,6,A1_6*
G04 #@! TO.N,A1*
X156210000Y-31000000D03*
G04 #@! TO.P,U7,7,A2_7*
G04 #@! TO.N,A2*
X153670000Y-31000000D03*
G04 #@! TO.P,U7,8,A3_8*
G04 #@! TO.N,A3*
X151130000Y-31000000D03*
G04 #@! TO.P,U7,9,A4_9*
G04 #@! TO.N,A4*
X148590000Y-31000000D03*
G04 #@! TO.P,U7,10,A5_10*
G04 #@! TO.N,A5*
X146050000Y-31000000D03*
G04 #@! TO.P,U7,11,A6_11*
G04 #@! TO.N,A6*
X143510000Y-31000000D03*
G04 #@! TO.P,U7,12,A7_12*
G04 #@! TO.N,A7*
X140970000Y-31000000D03*
G04 #@! TO.P,U7,13,A8_13*
G04 #@! TO.N,A8*
X138430000Y-31000000D03*
G04 #@! TO.P,U7,14,A9_14*
G04 #@! TO.N,A9*
X135890000Y-31000000D03*
G04 #@! TO.P,U7,15,A10_15*
G04 #@! TO.N,A10*
X135890000Y-46240000D03*
G04 #@! TO.P,U7,16,A11_16*
G04 #@! TO.N,A11*
X138430000Y-46240000D03*
G04 #@! TO.P,U7,17,A12_17*
G04 #@! TO.N,A12*
X140970000Y-46240000D03*
G04 #@! TO.P,U7,18,D7_18*
G04 #@! TO.N,D7*
X143510000Y-46240000D03*
G04 #@! TO.P,U7,19,D6_19*
G04 #@! TO.N,D6*
X146050000Y-46240000D03*
G04 #@! TO.P,U7,20,D5_20*
G04 #@! TO.N,D5*
X148590000Y-46240000D03*
G04 #@! TO.P,U7,21,D4_21*
G04 #@! TO.N,D4*
X151130000Y-46240000D03*
G04 #@! TO.P,U7,22,D3_22*
G04 #@! TO.N,D3*
X153670000Y-46240000D03*
G04 #@! TO.P,U7,23,D2_23*
G04 #@! TO.N,D2*
X156210000Y-46240000D03*
G04 #@! TO.P,U7,24,D1_24*
G04 #@! TO.N,D1*
X158750000Y-46240000D03*
G04 #@! TO.P,U7,25,D0_25*
G04 #@! TO.N,D0*
X161290000Y-46240000D03*
G04 #@! TO.P,U7,26,R/~{W}_26*
G04 #@! TO.N,Net-(U7-R{slash}~{W})*
X163830000Y-46240000D03*
G04 #@! TO.P,U7,27,\u00D80_27*
G04 #@! TO.N,\u00D80*
X166370000Y-46240000D03*
G04 #@! TO.P,U7,28,\u00D82_28*
G04 #@! TO.N,unconnected-(U7-\u00D82-Pad28)*
X168910000Y-46240000D03*
G04 #@! TD*
G04 #@! TO.P,C5,1*
G04 #@! TO.N,Net-(U8-THR)*
X91697499Y-111085000D03*
G04 #@! TO.P,C5,2*
G04 #@! TO.N,GND*
X86697499Y-111085000D03*
G04 #@! TD*
D19*
G04 #@! TO.P,J3,1,Pin_1_1*
G04 #@! TO.N,GND*
X163835000Y-81280000D03*
D13*
G04 #@! TO.P,J3,2,Pin_2_2*
G04 #@! TO.N,D0*
X161295000Y-81280000D03*
D20*
G04 #@! TO.P,J3,3,Pin_3_3*
G04 #@! TO.N,D1*
X158755000Y-81280000D03*
D13*
G04 #@! TO.P,J3,4,Pin_4_4*
G04 #@! TO.N,D2*
X156215000Y-81280000D03*
G04 #@! TO.P,J3,5,Pin_5_5*
G04 #@! TO.N,D3*
X153675000Y-81280000D03*
G04 #@! TO.P,J3,6,Pin_6_6*
G04 #@! TO.N,D4*
X151135000Y-81280000D03*
G04 #@! TO.P,J3,7,Pin_7_7*
G04 #@! TO.N,D5*
X148595000Y-81280000D03*
D21*
G04 #@! TO.P,J3,8,Pin_8_8*
G04 #@! TO.N,D6*
X146055000Y-81280000D03*
D13*
G04 #@! TO.P,J3,9,Pin_9_9*
G04 #@! TO.N,D7*
X143515000Y-81280000D03*
G04 #@! TO.P,J3,10,Pin_10_10*
G04 #@! TO.N,~{RST}*
X140975000Y-81280000D03*
D21*
G04 #@! TO.P,J3,11,Pin_11_11*
G04 #@! TO.N,RDY*
X138435000Y-81280000D03*
G04 #@! TO.P,J3,12,Pin_12_12*
G04 #@! TO.N,SYNC*
X135895000Y-81280000D03*
G04 #@! TO.P,J3,13,Pin_13_13*
G04 #@! TO.N,\u00D80*
X133355000Y-81280000D03*
G04 #@! TO.P,J3,14,Pin_14_14*
G04 #@! TO.N,\u00D81*
X130815000Y-81280000D03*
G04 #@! TO.P,J3,15,Pin_15_15*
G04 #@! TO.N,~{WE}OVR*
X128275000Y-81280000D03*
G04 #@! TO.P,J3,16,Pin_16_16*
G04 #@! TO.N,~{OE}OVR*
X125735000Y-81280000D03*
G04 #@! TO.P,J3,17,Pin_17_17*
G04 #@! TO.N,~{OE}*
X123195000Y-81280000D03*
G04 #@! TO.P,J3,18,Pin_18_18*
G04 #@! TO.N,~{RW}*
X120655000Y-81280000D03*
G04 #@! TO.P,J3,19,Pin_19_19*
G04 #@! TO.N,unconnected-(J3-Pin_19-Pad19)*
X118115000Y-81280000D03*
G04 #@! TO.P,J3,20,Pin_20_20*
G04 #@! TO.N,ABUSOVR*
X115575000Y-81280000D03*
G04 #@! TD*
D17*
G04 #@! TO.P,C10,1*
G04 #@! TO.N,+5V*
X200660000Y-60645112D03*
D11*
G04 #@! TO.P,C10,2*
G04 #@! TO.N,GND*
X200660000Y-58645111D03*
G04 #@! TD*
D10*
G04 #@! TO.P,R42,1*
G04 #@! TO.N,\u00D81*
X115570000Y-75819000D03*
G04 #@! TO.P,R42,2*
G04 #@! TO.N,ABUSOVR*
X110490001Y-75819000D03*
G04 #@! TD*
D11*
G04 #@! TO.P,C6,1*
G04 #@! TO.N,+5V*
X145923000Y-52578000D03*
G04 #@! TO.P,C6,2*
G04 #@! TO.N,GND*
X150923000Y-52578000D03*
G04 #@! TD*
D18*
G04 #@! TO.P,U1,1,OE_1*
G04 #@! TO.N,Net-(U1-OE)*
X163835000Y-71120000D03*
D11*
G04 #@! TO.P,U1,2,D0_2*
G04 #@! TO.N,B0*
X161295000Y-71120000D03*
G04 #@! TO.P,U1,3,D1_3*
G04 #@! TO.N,B1*
X158755000Y-71120000D03*
G04 #@! TO.P,U1,4,D2_4*
G04 #@! TO.N,B2*
X156215000Y-71120000D03*
G04 #@! TO.P,U1,5,D3_5*
G04 #@! TO.N,B3*
X153675000Y-71120000D03*
G04 #@! TO.P,U1,6,D4_6*
G04 #@! TO.N,B4*
X151135000Y-71120000D03*
G04 #@! TO.P,U1,7,D5_7*
G04 #@! TO.N,B5*
X148595000Y-71120000D03*
G04 #@! TO.P,U1,8,D6_8*
G04 #@! TO.N,B6*
X146055000Y-71120000D03*
D22*
G04 #@! TO.P,U1,9,D7_9*
G04 #@! TO.N,B7*
X143515000Y-71120000D03*
D11*
G04 #@! TO.P,U1,10,GND_10*
G04 #@! TO.N,GND*
X140975000Y-71120000D03*
G04 #@! TO.P,U1,11,Load_11*
G04 #@! TO.N,LDMSBA*
X140975000Y-78740000D03*
G04 #@! TO.P,U1,12,Q7_12*
G04 #@! TO.N,B15*
X143515000Y-78740000D03*
D22*
G04 #@! TO.P,U1,13,Q6_13*
G04 #@! TO.N,B14*
X146055000Y-78740000D03*
G04 #@! TO.P,U1,14,Q5_14*
G04 #@! TO.N,B13*
X148595000Y-78740000D03*
D11*
G04 #@! TO.P,U1,15,Q4_15*
G04 #@! TO.N,B12*
X151135000Y-78740000D03*
G04 #@! TO.P,U1,16,Q3_16*
G04 #@! TO.N,B11*
X153675000Y-78740000D03*
G04 #@! TO.P,U1,17,Q2_17*
G04 #@! TO.N,B10*
X156215000Y-78740000D03*
D10*
G04 #@! TO.P,U1,18,Q1_18*
G04 #@! TO.N,B9*
X158755000Y-78740000D03*
G04 #@! TO.P,U1,19,Q0_19*
G04 #@! TO.N,B8*
X161295000Y-78740000D03*
D11*
G04 #@! TO.P,U1,20,VCC_20*
G04 #@! TO.N,+5V*
X163835000Y-78740000D03*
G04 #@! TD*
D23*
G04 #@! TO.P,J1,1,Pin_1_1*
G04 #@! TO.N,+5V*
X163830000Y-68580000D03*
D21*
G04 #@! TO.P,J1,2,Pin_2_2*
G04 #@! TO.N,B0*
X161290000Y-68580000D03*
G04 #@! TO.P,J1,3,Pin_3_3*
G04 #@! TO.N,B1*
X158750000Y-68580000D03*
G04 #@! TO.P,J1,4,Pin_4_4*
G04 #@! TO.N,B2*
X156210000Y-68580000D03*
G04 #@! TO.P,J1,5,Pin_5_5*
G04 #@! TO.N,B3*
X153670000Y-68580000D03*
G04 #@! TO.P,J1,6,Pin_6_6*
G04 #@! TO.N,B4*
X151130000Y-68580000D03*
G04 #@! TO.P,J1,7,Pin_7_7*
G04 #@! TO.N,B5*
X148590000Y-68580000D03*
G04 #@! TO.P,J1,8,Pin_8_8*
G04 #@! TO.N,B6*
X146050000Y-68580000D03*
G04 #@! TO.P,J1,9,Pin_9_9*
G04 #@! TO.N,B7*
X143510000Y-68580000D03*
G04 #@! TO.P,J1,10,Pin_10_10*
G04 #@! TO.N,B8*
X140970000Y-68580000D03*
G04 #@! TO.P,J1,11,Pin_11_11*
G04 #@! TO.N,B9*
X138430000Y-68580000D03*
G04 #@! TO.P,J1,12,Pin_12_12*
G04 #@! TO.N,B10*
X135890000Y-68580000D03*
G04 #@! TO.P,J1,13,Pin_13_13*
G04 #@! TO.N,B11*
X133350000Y-68580000D03*
G04 #@! TO.P,J1,14,Pin_14_14*
G04 #@! TO.N,B12*
X130810000Y-68580000D03*
G04 #@! TO.P,J1,15,Pin_15_15*
G04 #@! TO.N,B13*
X128270000Y-68580000D03*
G04 #@! TO.P,J1,16,Pin_16_16*
G04 #@! TO.N,B14*
X125730000Y-68580000D03*
G04 #@! TO.P,J1,17,Pin_17_17*
G04 #@! TO.N,B15*
X123190000Y-68580000D03*
G04 #@! TO.P,J1,18,Pin_18_18*
G04 #@! TO.N,VBAT*
X120650000Y-68580000D03*
G04 #@! TO.P,J1,19,Pin_19_19*
G04 #@! TO.N,~{RAMCS}*
X118110000Y-68580000D03*
G04 #@! TO.P,J1,20,Pin_20_20*
G04 #@! TO.N,LDMSBA*
X115570000Y-68580000D03*
G04 #@! TD*
D10*
G04 #@! TO.P,R51,1*
G04 #@! TO.N,+5V*
X176577771Y-30494373D03*
G04 #@! TO.P,R51,2*
G04 #@! TO.N,~{RST}*
X171497772Y-30494373D03*
G04 #@! TD*
D11*
G04 #@! TO.P,C2,1*
G04 #@! TO.N,~{RST}*
X184787771Y-30494373D03*
G04 #@! TO.P,C2,2*
G04 #@! TO.N,GND*
X179787771Y-30494373D03*
G04 #@! TD*
D18*
G04 #@! TO.P,U5,1,A->B_1*
G04 #@! TO.N,+5V*
X142240000Y-57150000D03*
D11*
G04 #@! TO.P,U5,2,A0_2*
G04 #@! TO.N,A8*
X139700000Y-57150000D03*
G04 #@! TO.P,U5,3,A1_3*
G04 #@! TO.N,A9*
X137160000Y-57150000D03*
G04 #@! TO.P,U5,4,A2_4*
G04 #@! TO.N,A10*
X134620000Y-57150000D03*
G04 #@! TO.P,U5,5,A3_5*
G04 #@! TO.N,A11*
X132080000Y-57150000D03*
G04 #@! TO.P,U5,6,A4_6*
G04 #@! TO.N,A12*
X129540000Y-57150000D03*
G04 #@! TO.P,U5,7,A5_7*
G04 #@! TO.N,A13*
X127000000Y-57150000D03*
G04 #@! TO.P,U5,8,A6_8*
G04 #@! TO.N,A14*
X124460000Y-57150000D03*
G04 #@! TO.P,U5,9,A7_9*
G04 #@! TO.N,A15*
X121920000Y-57150000D03*
G04 #@! TO.P,U5,10,GND_10*
G04 #@! TO.N,GND*
X119380000Y-57150000D03*
G04 #@! TO.P,U5,11,B7_11*
G04 #@! TO.N,B15*
X119380000Y-64770000D03*
G04 #@! TO.P,U5,12,B6_12*
G04 #@! TO.N,B14*
X121920000Y-64770000D03*
G04 #@! TO.P,U5,13,B5_13*
G04 #@! TO.N,B13*
X124460000Y-64770000D03*
G04 #@! TO.P,U5,14,B4_14*
G04 #@! TO.N,B12*
X127000000Y-64770000D03*
G04 #@! TO.P,U5,15,B3_15*
G04 #@! TO.N,B11*
X129540000Y-64770000D03*
G04 #@! TO.P,U5,16,B2_16*
G04 #@! TO.N,B10*
X132080000Y-64770000D03*
G04 #@! TO.P,U5,17,B1_17*
G04 #@! TO.N,B9*
X134620000Y-64770000D03*
G04 #@! TO.P,U5,18,B0_18*
G04 #@! TO.N,B8*
X137160000Y-64770000D03*
G04 #@! TO.P,U5,19,CE_19*
G04 #@! TO.N,ABUSOVR*
X139700000Y-64770000D03*
G04 #@! TO.P,U5,20,VCC_20*
G04 #@! TO.N,+5V*
X142240000Y-64770000D03*
G04 #@! TD*
D10*
G04 #@! TO.P,R39,1*
G04 #@! TO.N,~{OE}OVR*
X125984000Y-85725000D03*
G04 #@! TO.P,R39,2*
G04 #@! TO.N,~{OE}*
X120904000Y-85725000D03*
G04 #@! TD*
G04 #@! TO.P,R40,1*
G04 #@! TO.N,Net-(U8-DIS)*
X86657499Y-105370000D03*
G04 #@! TO.P,R40,2*
G04 #@! TO.N,+5V*
X91737498Y-105370000D03*
G04 #@! TD*
D24*
G04 #@! TO.P,D1,1,K_1*
G04 #@! TO.N,Net-(D1-K)*
X82500000Y-63500000D03*
D16*
G04 #@! TO.P,D1,2,A_2*
G04 #@! TO.N,VBAT*
X92660000Y-63500000D03*
G04 #@! TD*
D11*
G04 #@! TO.P,C1,1*
G04 #@! TO.N,LDMSBA*
X125095000Y-76200000D03*
G04 #@! TO.P,C1,2*
G04 #@! TO.N,GND*
X120095000Y-76200000D03*
G04 #@! TD*
G04 #@! TO.P,C9,1*
G04 #@! TO.N,Net-(D1-K)*
X175260000Y-111125000D03*
G04 #@! TO.P,C9,2*
G04 #@! TO.N,GND*
X180260000Y-111125000D03*
G04 #@! TD*
D25*
G04 #@! TO.P,J4,SH*
G04 #@! TO.N,N/C*
X79570000Y-55999436D03*
D26*
X83750000Y-55999436D03*
D25*
X79570000Y-47359436D03*
D26*
X83750000Y-47359436D03*
G04 #@! TD*
D27*
G04 #@! TO.P,RV1,1,1_1*
G04 #@! TO.N,Net-(R41-Pad2)*
X83242499Y-107870000D03*
D28*
G04 #@! TO.P,RV1,2,2_2*
G04 #@! TO.N,Net-(U8-DIS)*
X83242499Y-105370000D03*
G04 #@! TO.P,RV1,3,3_3*
X83242499Y-102870000D03*
G04 #@! TD*
D29*
G04 #@! TO.N,+5V*
X90906600Y-55854600D03*
X181610000Y-67310000D03*
X166370000Y-79375000D03*
X191770000Y-67310000D03*
X89814400Y-47244000D03*
X170457293Y-72904444D03*
G04 #@! TO.N,GND*
X176466500Y-103314500D03*
X119380000Y-54610000D03*
X136652000Y-93345000D03*
X179832000Y-91821000D03*
X102334783Y-47724783D03*
X180340000Y-54610000D03*
X182118000Y-108966000D03*
X157552107Y-93184556D03*
X153670000Y-50800000D03*
X148590000Y-54610000D03*
X186944000Y-111379000D03*
X165000000Y-91000000D03*
X118745000Y-74295000D03*
X113030000Y-69850000D03*
X110490000Y-55880000D03*
X116840000Y-57150000D03*
X177800000Y-102235000D03*
X139037920Y-71156650D03*
G04 #@! TO.N,B14*
X127889000Y-92202000D03*
X169186421Y-92917107D03*
G04 #@! TO.N,B12*
X152185000Y-83973295D03*
X163957000Y-84455000D03*
G04 #@! TO.N,D0*
X111506000Y-105156000D03*
X132725944Y-104453327D03*
G04 #@! TO.N,D1*
X132665891Y-102078788D03*
X114300000Y-102870000D03*
G04 #@! TO.N,D2*
X116205000Y-100965000D03*
X133026210Y-100076000D03*
G04 #@! TO.N,D3*
X116840000Y-113030000D03*
X132969000Y-110490000D03*
G04 #@! TO.N,D4*
X117983000Y-108712000D03*
X129536301Y-108782339D03*
G04 #@! TO.N,D5*
X120015000Y-110490000D03*
X127908621Y-109882011D03*
G04 #@! TO.N,D6*
X121285000Y-113982500D03*
X128270000Y-112858000D03*
G04 #@! TO.N,D7*
X119454172Y-50090828D03*
X109728000Y-60884834D03*
G04 #@! TO.N,~{RAMCS}*
X104394000Y-71374000D03*
X120269000Y-71247000D03*
G04 #@! TO.N,~{OE}OVR*
X127635000Y-87630000D03*
X131126422Y-98218363D03*
G04 #@! TO.N,B11*
X126413042Y-94279263D03*
X133114559Y-96733325D03*
G04 #@! TO.N,B13*
X172720000Y-74803000D03*
X148101537Y-84963000D03*
G04 #@! TO.N,Net-(D1-K)*
X170180000Y-116205000D03*
G04 #@! TO.N,~{WE}OVR*
X179705000Y-88265000D03*
X131127500Y-86677500D03*
G04 #@! TO.N,\u00D81*
X134865439Y-86856330D03*
X177673000Y-87503000D03*
G04 #@! TO.N,ABUSOVR*
X190500000Y-72390000D03*
X111760000Y-68326000D03*
X176276000Y-71882000D03*
X114808000Y-57404000D03*
G04 #@! TO.N,\u00D80*
X171163437Y-43717147D03*
X176530000Y-65405000D03*
X136942299Y-86142299D03*
X191643000Y-54737000D03*
G04 #@! TO.N,Net-(U7-R{slash}~{W})*
X171450000Y-41910000D03*
X188214000Y-50546000D03*
G04 #@! TO.N,~{RW}*
X130765948Y-89786995D03*
X183515000Y-88646000D03*
G04 #@! TO.N,~{RST}*
X93853000Y-84582000D03*
X139776336Y-84133634D03*
G04 #@! TO.N,RDY*
X136525000Y-83468500D03*
X96901000Y-83439000D03*
G04 #@! TO.N,VBAT*
X108966000Y-68662707D03*
G04 #@! TD*
G04 #@! TO.N,VBAT*
D30*
X92660000Y-63500000D02*
X108966000Y-68662707D01*
G04 #@! TO.N,+5V*
D31*
X170457293Y-72904444D02*
X166370000Y-79375000D01*
X89814400Y-47244000D02*
X90906600Y-55854600D01*
D30*
X181610000Y-67310000D02*
X191770000Y-67310000D01*
G04 #@! TO.N,GND*
D31*
X116840000Y-57150000D02*
X113792000Y-67437000D01*
X139037920Y-71156650D02*
X139001270Y-71120000D01*
X136934350Y-93000000D02*
X157367551Y-93000000D01*
X176466500Y-103314500D02*
X182118000Y-108966000D01*
X165440000Y-91440000D02*
X179451000Y-91440000D01*
X153670000Y-50800000D02*
X180340000Y-54610000D01*
X119380000Y-54610000D02*
X148590000Y-54610000D01*
X165000000Y-91000000D02*
X165440000Y-91440000D01*
X136652000Y-93345000D02*
X136934350Y-93000000D01*
X120396000Y-74295000D02*
X139037920Y-71156650D01*
X113792000Y-67437000D02*
X113030000Y-69850000D01*
X157367551Y-93000000D02*
X157552107Y-93184556D01*
X179451000Y-91440000D02*
X179832000Y-91821000D01*
X186944000Y-111379000D02*
X177800000Y-102235000D01*
X118745000Y-74295000D02*
X120396000Y-74295000D01*
D30*
X110490000Y-55880000D02*
X102334783Y-47724783D01*
G04 #@! TO.N,B14*
D31*
X169186421Y-92917107D02*
X168737973Y-92917107D01*
D30*
X138757500Y-92184556D02*
X138740056Y-92202000D01*
D31*
X168737973Y-92917107D02*
X168005422Y-92184556D01*
D30*
X138740056Y-92202000D02*
X127889000Y-92202000D01*
D31*
X168005422Y-92184556D02*
X138757500Y-92184556D01*
G04 #@! TO.N,B12*
X152185000Y-83973295D02*
X152666705Y-84455000D01*
X152666705Y-84455000D02*
X163957000Y-84455000D01*
G04 #@! TO.N,D0*
D30*
X132725944Y-104453327D02*
X132023271Y-105156000D01*
X132023271Y-105156000D02*
X111506000Y-105156000D01*
G04 #@! TO.N,D1*
X114300000Y-102870000D02*
X132665891Y-102078788D01*
G04 #@! TO.N,D2*
X116205000Y-100965000D02*
X133026210Y-100076000D01*
G04 #@! TO.N,D3*
X116840000Y-113030000D02*
X132969000Y-110490000D01*
G04 #@! TO.N,D4*
X129536301Y-108782339D02*
X129465962Y-108712000D01*
X129465962Y-108712000D02*
X117983000Y-108712000D01*
G04 #@! TO.N,D5*
X120025000Y-110500000D02*
X127908621Y-109882011D01*
X120015000Y-110490000D02*
X120025000Y-110500000D01*
G04 #@! TO.N,D6*
X128270000Y-112860000D02*
X125062140Y-113425032D01*
X125062140Y-113425032D02*
X121285000Y-113982500D01*
X128270000Y-112858000D02*
X128270000Y-112860000D01*
G04 #@! TO.N,D7*
X119454172Y-50090828D02*
X109728000Y-60884834D01*
G04 #@! TO.N,~{RAMCS}*
X106729132Y-71501990D02*
X104394000Y-71374000D01*
X120269000Y-71247000D02*
X119633010Y-71501990D01*
X119633010Y-71501990D02*
X106729132Y-71501990D01*
G04 #@! TO.N,~{OE}OVR*
X131125330Y-98219455D02*
X131126422Y-98218363D01*
X125095000Y-90170000D02*
X125095000Y-96520000D01*
X125095000Y-96520000D02*
X126794455Y-98219455D01*
X127635000Y-87630000D02*
X125095000Y-90170000D01*
X126794455Y-98219455D02*
X131125330Y-98219455D01*
G04 #@! TO.N,B11*
D31*
X126413042Y-94279263D02*
X133114559Y-96733325D01*
G04 #@! TO.N,B13*
X172720000Y-74803000D02*
X172720000Y-78486000D01*
X172720000Y-78486000D02*
X165481000Y-85725000D01*
X148863537Y-85725000D02*
X148101537Y-84963000D01*
X165481000Y-85725000D02*
X148863537Y-85725000D01*
G04 #@! TO.N,Net-(D1-K)*
D30*
X170180000Y-116205000D02*
X175260000Y-111125000D01*
G04 #@! TO.N,~{WE}OVR*
X178160925Y-88500000D02*
X179470000Y-88500000D01*
X131127500Y-86677500D02*
X132950000Y-88500000D01*
X177238075Y-88553000D02*
X178107925Y-88553000D01*
X132950000Y-88500000D02*
X177185075Y-88500000D01*
X177185075Y-88500000D02*
X177238075Y-88553000D01*
X178107925Y-88553000D02*
X178160925Y-88500000D01*
X179470000Y-88500000D02*
X179705000Y-88265000D01*
G04 #@! TO.N,\u00D81*
X135509109Y-87500000D02*
X177670000Y-87500000D01*
X134865439Y-86856330D02*
X135509109Y-87500000D01*
X177670000Y-87500000D02*
X177673000Y-87503000D01*
G04 #@! TO.N,ABUSOVR*
X190500000Y-72390000D02*
X176784000Y-72390000D01*
X176784000Y-72390000D02*
X176276000Y-71882000D01*
X114808000Y-57404000D02*
X111760000Y-68326000D01*
G04 #@! TO.N,\u00D80*
X137300000Y-86500000D02*
X136942299Y-86142299D01*
X176530000Y-65405000D02*
X173990000Y-67945000D01*
X166738000Y-86500000D02*
X137300000Y-86500000D01*
X173990000Y-79248000D02*
X166738000Y-86500000D01*
X173990000Y-67945000D02*
X173990000Y-79248000D01*
X171163437Y-43717147D02*
X191643000Y-54737000D01*
G04 #@! TO.N,Net-(U7-R{slash}~{W})*
X171450000Y-41910000D02*
X188214000Y-50546000D01*
G04 #@! TO.N,~{RW}*
X180000000Y-89500000D02*
X131052943Y-89500000D01*
X131052943Y-89500000D02*
X130765948Y-89786995D01*
X183515000Y-88646000D02*
X180000000Y-89500000D01*
G04 #@! TO.N,~{RST}*
X139391470Y-84518500D02*
X139776336Y-84133634D01*
X93853000Y-84582000D02*
X139391470Y-84518500D01*
G04 #@! TO.N,RDY*
X96901000Y-83439000D02*
X114173000Y-83566000D01*
X136427500Y-83566000D02*
X136525000Y-83468500D01*
X114173000Y-83566000D02*
X136427500Y-83566000D01*
G04 #@! TD*
M02*
