%TF.GenerationSoftware,KiCad,Pcbnew,10.0.5*%
%TF.CreationDate,2026-08-07T17:16:46+02:00*%
%TF.ProjectId,motherboard,6d6f7468-6572-4626-9f61-72642e6b6963,rev?*%
%TF.SameCoordinates,Original*%
%TF.FileFunction,Drillmap*%
%TF.FilePolarity,Positive*%
%FSLAX45Y45*%
G04 Gerber Fmt 4.5, Leading zero omitted, Abs format (unit mm)*
G04 Created by KiCad (PCBNEW 10.0.5) date 2026-08-07 17:16:46*
%MOMM*%
%LPD*%
G01*
G04 APERTURE LIST*
%ADD10C,0.200000*%
%ADD11C,0.100000*%
%ADD12C,0.110000*%
G04 APERTURE END LIST*
D10*
X7810500Y-3067000D02*
G75*
G02*
X8210500Y-2667000I400000J0D01*
G01*
X7810500Y-11665000D02*
X7810500Y-3067000D01*
X8210500Y-2667000D02*
X21888500Y-2667000D01*
X8210500Y-12065000D02*
G75*
G02*
X7810500Y-11665000I0J400000D01*
G01*
X21888500Y-2667000D02*
G75*
G02*
X22288500Y-3067000I0J-400000D01*
G01*
X21888500Y-12065000D02*
X8210500Y-12065000D01*
X22288500Y-3067000D02*
X22288500Y-11665000D01*
X22288500Y-11665000D02*
G75*
G02*
X21888500Y-12065000I-400000J0D01*
G01*
D11*
X7927000Y-4705944D02*
X7987000Y-4765944D01*
X7987000Y-4705944D02*
X7927000Y-4765944D01*
X7927000Y-4765944D02*
X7987000Y-4765944D01*
X7987000Y-4705944D02*
G75*
G02*
X7987000Y-4765944I0J-30000D01*
G01*
X7987000Y-4705944D02*
X7927000Y-4705944D01*
X7927000Y-4705944D02*
G75*
G03*
X7927000Y-4765944I0J-30000D01*
G01*
X7927000Y-5569944D02*
X7987000Y-5629944D01*
X7987000Y-5569944D02*
X7927000Y-5629944D01*
X7927000Y-5629944D02*
X7987000Y-5629944D01*
X7987000Y-5569944D02*
G75*
G02*
X7987000Y-5629944I0J-30000D01*
G01*
X7987000Y-5569944D02*
X7927000Y-5569944D01*
X7927000Y-5569944D02*
G75*
G03*
X7927000Y-5629944I0J-30000D01*
G01*
X8345000Y-4705944D02*
X8405000Y-4765944D01*
X8405000Y-4705944D02*
X8345000Y-4765944D01*
X8320000Y-4765944D02*
X8430000Y-4765944D01*
X8430000Y-4705944D02*
G75*
G02*
X8430000Y-4765944I0J-30000D01*
G01*
X8430000Y-4705944D02*
X8320000Y-4705944D01*
X8320000Y-4705944D02*
G75*
G03*
X8320000Y-4765944I0J-30000D01*
G01*
X8345000Y-5569944D02*
X8405000Y-5629944D01*
X8405000Y-5569944D02*
X8345000Y-5629944D01*
X8320000Y-5629944D02*
X8430000Y-5629944D01*
X8430000Y-5569944D02*
G75*
G02*
X8430000Y-5629944I0J-30000D01*
G01*
X8430000Y-5569944D02*
X8320000Y-5569944D01*
X8320000Y-5569944D02*
G75*
G03*
X8320000Y-5629944I0J-30000D01*
G01*
X8700750Y-10537000D02*
G75*
G02*
X8630750Y-10537000I-35000J0D01*
G01*
X8630750Y-10537000D02*
G75*
G02*
X8700750Y-10537000I35000J0D01*
G01*
X8700750Y-10791000D02*
G75*
G02*
X8630750Y-10791000I-35000J0D01*
G01*
X8630750Y-10791000D02*
G75*
G02*
X8700750Y-10791000I35000J0D01*
G01*
X9208750Y-10537000D02*
G75*
G02*
X9138750Y-10537000I-35000J0D01*
G01*
X9138750Y-10537000D02*
G75*
G02*
X9208750Y-10537000I35000J0D01*
G01*
X9208750Y-10791000D02*
G75*
G02*
X9138750Y-10791000I-35000J0D01*
G01*
X9138750Y-10791000D02*
G75*
G02*
X9208750Y-10791000I35000J0D01*
G01*
X11084000Y-7581900D02*
G75*
G02*
X11014000Y-7581900I-35000J0D01*
G01*
X11014000Y-7581900D02*
G75*
G02*
X11084000Y-7581900I35000J0D01*
G01*
X11592000Y-7581900D02*
G75*
G02*
X11522000Y-7581900I-35000J0D01*
G01*
X11522000Y-7581900D02*
G75*
G02*
X11592000Y-7581900I35000J0D01*
G01*
X12125400Y-8572500D02*
G75*
G02*
X12055400Y-8572500I-35000J0D01*
G01*
X12055400Y-8572500D02*
G75*
G02*
X12125400Y-8572500I35000J0D01*
G01*
X12163500Y-4826000D02*
G75*
G02*
X12093500Y-4826000I-35000J0D01*
G01*
X12093500Y-4826000D02*
G75*
G02*
X12163500Y-4826000I35000J0D01*
G01*
X12163500Y-5334000D02*
G75*
G02*
X12093500Y-5334000I-35000J0D01*
G01*
X12093500Y-5334000D02*
G75*
G02*
X12163500Y-5334000I35000J0D01*
G01*
X12478500Y-4826000D02*
G75*
G02*
X12408500Y-4826000I-35000J0D01*
G01*
X12408500Y-4826000D02*
G75*
G02*
X12478500Y-4826000I35000J0D01*
G01*
X12478500Y-5334000D02*
G75*
G02*
X12408500Y-5334000I-35000J0D01*
G01*
X12408500Y-5334000D02*
G75*
G02*
X12478500Y-5334000I35000J0D01*
G01*
X12633400Y-8572500D02*
G75*
G02*
X12563400Y-8572500I-35000J0D01*
G01*
X12563400Y-8572500D02*
G75*
G02*
X12633400Y-8572500I35000J0D01*
G01*
X12793500Y-4826000D02*
G75*
G02*
X12723500Y-4826000I-35000J0D01*
G01*
X12723500Y-4826000D02*
G75*
G02*
X12793500Y-4826000I35000J0D01*
G01*
X12793500Y-5334000D02*
G75*
G02*
X12723500Y-5334000I-35000J0D01*
G01*
X12723500Y-5334000D02*
G75*
G02*
X12793500Y-5334000I35000J0D01*
G01*
X12798500Y-7589750D02*
G75*
G02*
X12728500Y-7589750I-35000J0D01*
G01*
X12728500Y-7589750D02*
G75*
G02*
X12798500Y-7589750I35000J0D01*
G01*
X13306500Y-7589750D02*
G75*
G02*
X13236500Y-7589750I-35000J0D01*
G01*
X13236500Y-7589750D02*
G75*
G02*
X13306500Y-7589750I35000J0D01*
G01*
X17184777Y-3049437D02*
G75*
G02*
X17114777Y-3049437I-35000J0D01*
G01*
X17114777Y-3049437D02*
G75*
G02*
X17184777Y-3049437I35000J0D01*
G01*
X17692777Y-3049437D02*
G75*
G02*
X17622777Y-3049437I-35000J0D01*
G01*
X17622777Y-3049437D02*
G75*
G02*
X17692777Y-3049437I35000J0D01*
G01*
X9385300Y-8418200D02*
X9385300Y-8498200D01*
X9345300Y-8458200D02*
X9425300Y-8458200D01*
X9690100Y-8303900D02*
X9690100Y-8383900D01*
X9650100Y-8343900D02*
X9730100Y-8343900D01*
X10233478Y-4732478D02*
X10233478Y-4812478D01*
X10193478Y-4772478D02*
X10273478Y-4772478D01*
X10439400Y-7097400D02*
X10439400Y-7177400D01*
X10399400Y-7137400D02*
X10479400Y-7137400D01*
X10896600Y-6826271D02*
X10896600Y-6906271D01*
X10856600Y-6866271D02*
X10936600Y-6866271D01*
X10972800Y-6048483D02*
X10972800Y-6128483D01*
X10932800Y-6088483D02*
X11012800Y-6088483D01*
X11049000Y-5548000D02*
X11049000Y-5628000D01*
X11009000Y-5588000D02*
X11089000Y-5588000D01*
X11150600Y-10475600D02*
X11150600Y-10555600D01*
X11110600Y-10515600D02*
X11190600Y-10515600D01*
X11176000Y-6792600D02*
X11176000Y-6872600D01*
X11136000Y-6832600D02*
X11216000Y-6832600D01*
X11303000Y-6945000D02*
X11303000Y-7025000D01*
X11263000Y-6985000D02*
X11343000Y-6985000D01*
X11430000Y-10247000D02*
X11430000Y-10327000D01*
X11390000Y-10287000D02*
X11470000Y-10287000D01*
X11480800Y-5700400D02*
X11480800Y-5780400D01*
X11440800Y-5740400D02*
X11520800Y-5740400D01*
X11620500Y-10056500D02*
X11620500Y-10136500D01*
X11580500Y-10096500D02*
X11660500Y-10096500D01*
X11684000Y-5675000D02*
X11684000Y-5755000D01*
X11644000Y-5715000D02*
X11724000Y-5715000D01*
X11684000Y-11263000D02*
X11684000Y-11343000D01*
X11644000Y-11303000D02*
X11724000Y-11303000D01*
X11798300Y-10831200D02*
X11798300Y-10911200D01*
X11758300Y-10871200D02*
X11838300Y-10871200D01*
X11874500Y-7389500D02*
X11874500Y-7469500D01*
X11834500Y-7429500D02*
X11914500Y-7429500D01*
X11938000Y-5421000D02*
X11938000Y-5501000D01*
X11898000Y-5461000D02*
X11978000Y-5461000D01*
X11945417Y-4969083D02*
X11945417Y-5049083D01*
X11905417Y-5009083D02*
X11985417Y-5009083D01*
X12001500Y-11009000D02*
X12001500Y-11089000D01*
X11961500Y-11049000D02*
X12041500Y-11049000D01*
X12026900Y-7084700D02*
X12026900Y-7164700D01*
X11986900Y-7124700D02*
X12066900Y-7124700D01*
X12128500Y-11358250D02*
X12128500Y-11438250D01*
X12088500Y-11398250D02*
X12168500Y-11398250D01*
X12763500Y-8723000D02*
X12763500Y-8803000D01*
X12723500Y-8763000D02*
X12803500Y-8763000D01*
X12790862Y-10948201D02*
X12790862Y-11028201D01*
X12750862Y-10988201D02*
X12830862Y-10988201D01*
X12827000Y-11245800D02*
X12827000Y-11325800D01*
X12787000Y-11285800D02*
X12867000Y-11285800D01*
X12953630Y-10838234D02*
X12953630Y-10918234D01*
X12913630Y-10878234D02*
X12993630Y-10878234D01*
X13076595Y-8938700D02*
X13076595Y-9018700D01*
X13036595Y-8978700D02*
X13116595Y-8978700D01*
X13112642Y-9781836D02*
X13112642Y-9861836D01*
X13072642Y-9821836D02*
X13152642Y-9821836D01*
X13112750Y-8627750D02*
X13112750Y-8707750D01*
X13072750Y-8667750D02*
X13152750Y-8667750D01*
X13266589Y-10167879D02*
X13266589Y-10247879D01*
X13226589Y-10207879D02*
X13306589Y-10207879D01*
X13272594Y-10405333D02*
X13272594Y-10485333D01*
X13232594Y-10445333D02*
X13312594Y-10445333D01*
X13296900Y-11009000D02*
X13296900Y-11089000D01*
X13256900Y-11049000D02*
X13336900Y-11049000D01*
X13302621Y-9967600D02*
X13302621Y-10047600D01*
X13262621Y-10007600D02*
X13342621Y-10007600D01*
X13486544Y-8645633D02*
X13486544Y-8725633D01*
X13446544Y-8685633D02*
X13526544Y-8685633D01*
X13652500Y-8306850D02*
X13652500Y-8386850D01*
X13612500Y-8346850D02*
X13692500Y-8346850D01*
X13665200Y-9294500D02*
X13665200Y-9374500D01*
X13625200Y-9334500D02*
X13705200Y-9334500D01*
X13694230Y-8574230D02*
X13694230Y-8654230D01*
X13654230Y-8614230D02*
X13734230Y-8614230D01*
X13903792Y-7075665D02*
X13903792Y-7155665D01*
X13863792Y-7115665D02*
X13943792Y-7115665D01*
X13977634Y-8373363D02*
X13977634Y-8453363D01*
X13937634Y-8413363D02*
X14017634Y-8413363D01*
X14859000Y-5421000D02*
X14859000Y-5501000D01*
X14819000Y-5461000D02*
X14899000Y-5461000D01*
X15367000Y-5040000D02*
X15367000Y-5120000D01*
X15327000Y-5080000D02*
X15407000Y-5080000D01*
X15755211Y-9278456D02*
X15755211Y-9358456D01*
X15715211Y-9318456D02*
X15795211Y-9318456D01*
X16500000Y-9060000D02*
X16500000Y-9140000D01*
X16460000Y-9100000D02*
X16540000Y-9100000D01*
X16637000Y-7897500D02*
X16637000Y-7977500D01*
X16597000Y-7937500D02*
X16677000Y-7937500D01*
X17018000Y-11580500D02*
X17018000Y-11660500D01*
X16978000Y-11620500D02*
X17058000Y-11620500D01*
X17045729Y-7250444D02*
X17045729Y-7330444D01*
X17005729Y-7290444D02*
X17085729Y-7290444D01*
X17116344Y-4331715D02*
X17116344Y-4411715D01*
X17076344Y-4371715D02*
X17156344Y-4371715D01*
X17145000Y-4151000D02*
X17145000Y-4231000D01*
X17105000Y-4191000D02*
X17185000Y-4191000D01*
X17627600Y-7148200D02*
X17627600Y-7228200D01*
X17587600Y-7188200D02*
X17667600Y-7188200D01*
X17646650Y-10291450D02*
X17646650Y-10371450D01*
X17606650Y-10331450D02*
X17686650Y-10331450D01*
X17653000Y-6500500D02*
X17653000Y-6580500D01*
X17613000Y-6540500D02*
X17693000Y-6540500D01*
X17767300Y-8710300D02*
X17767300Y-8790300D01*
X17727300Y-8750300D02*
X17807300Y-8750300D01*
X17780000Y-10183500D02*
X17780000Y-10263500D01*
X17740000Y-10223500D02*
X17820000Y-10223500D01*
X17970500Y-8786500D02*
X17970500Y-8866500D01*
X17930500Y-8826500D02*
X18010500Y-8826500D01*
X17983200Y-9142100D02*
X17983200Y-9222100D01*
X17943200Y-9182100D02*
X18023200Y-9182100D01*
X18034000Y-5421000D02*
X18034000Y-5501000D01*
X17994000Y-5461000D02*
X18074000Y-5461000D01*
X18161000Y-6691000D02*
X18161000Y-6771000D01*
X18121000Y-6731000D02*
X18201000Y-6731000D01*
X18211800Y-10856600D02*
X18211800Y-10936600D01*
X18171800Y-10896600D02*
X18251800Y-10896600D01*
X18351500Y-8824600D02*
X18351500Y-8904600D01*
X18311500Y-8864600D02*
X18391500Y-8864600D01*
X18694400Y-11097900D02*
X18694400Y-11177900D01*
X18654400Y-11137900D02*
X18734400Y-11137900D01*
X18821400Y-5014600D02*
X18821400Y-5094600D01*
X18781400Y-5054600D02*
X18861400Y-5054600D01*
X19050000Y-7199000D02*
X19050000Y-7279000D01*
X19010000Y-7239000D02*
X19090000Y-7239000D01*
X19164300Y-5433700D02*
X19164300Y-5513700D01*
X19124300Y-5473700D02*
X19204300Y-5473700D01*
X19177000Y-6691000D02*
X19177000Y-6771000D01*
X19137000Y-6731000D02*
X19217000Y-6731000D01*
X8698034Y-11136785D02*
X8698034Y-11080216D01*
X8641465Y-11080216D01*
X8641465Y-11136785D01*
X8698034Y-11136785D01*
X8699232Y-11453275D02*
X8699232Y-11396706D01*
X8642663Y-11396706D01*
X8642663Y-11453275D01*
X8699232Y-11453275D01*
X8702035Y-10057285D02*
X8702035Y-10000716D01*
X8645466Y-10000716D01*
X8645466Y-10057285D01*
X8702035Y-10057285D01*
X9198034Y-11136785D02*
X9198034Y-11080216D01*
X9141465Y-11080216D01*
X9141465Y-11136785D01*
X9198034Y-11136785D01*
X9199232Y-11453275D02*
X9199232Y-11396706D01*
X9142663Y-11396706D01*
X9142663Y-11453275D01*
X9199232Y-11453275D01*
X9202035Y-10057285D02*
X9202035Y-10000716D01*
X9145466Y-10000716D01*
X9145466Y-10057285D01*
X9202035Y-10057285D01*
X9710035Y-10438285D02*
X9710035Y-10381716D01*
X9653466Y-10381716D01*
X9653466Y-10438285D01*
X9710035Y-10438285D01*
X9710035Y-11200284D02*
X9710035Y-11143716D01*
X9653466Y-11143716D01*
X9653466Y-11200284D01*
X9710035Y-11200284D01*
X9964035Y-10438285D02*
X9964035Y-10381716D01*
X9907466Y-10381716D01*
X9907466Y-10438285D01*
X9964035Y-10438285D01*
X9964035Y-11200284D02*
X9964035Y-11143716D01*
X9907466Y-11143716D01*
X9907466Y-11200284D01*
X9964035Y-11200284D01*
X10218034Y-11200284D02*
X10218034Y-11143716D01*
X10161465Y-11143716D01*
X10161465Y-11200284D01*
X10218034Y-11200284D01*
X10218035Y-10438285D02*
X10218035Y-10381716D01*
X10161466Y-10381716D01*
X10161466Y-10438285D01*
X10218035Y-10438285D01*
X10472035Y-10438285D02*
X10472035Y-10381716D01*
X10415466Y-10381716D01*
X10415466Y-10438285D01*
X10472035Y-10438285D01*
X10472035Y-11200284D02*
X10472035Y-11143716D01*
X10415466Y-11143716D01*
X10415466Y-11200284D01*
X10472035Y-11200284D01*
X11966284Y-5743284D02*
X11966284Y-5686715D01*
X11909715Y-5686715D01*
X11909715Y-5743284D01*
X11966284Y-5743284D01*
X11966284Y-6505284D02*
X11966284Y-6448715D01*
X11909715Y-6448715D01*
X11909715Y-6505284D01*
X11966284Y-6505284D01*
X12037784Y-7648284D02*
X12037784Y-7591715D01*
X11981215Y-7591715D01*
X11981215Y-7648284D01*
X12037784Y-7648284D01*
X12220284Y-5743284D02*
X12220284Y-5686715D01*
X12163715Y-5686715D01*
X12163715Y-5743284D01*
X12220284Y-5743284D01*
X12220284Y-6505284D02*
X12220284Y-6448715D01*
X12163715Y-6448715D01*
X12163715Y-6505284D01*
X12220284Y-6505284D01*
X12474284Y-5743284D02*
X12474284Y-5686715D01*
X12417715Y-5686715D01*
X12417715Y-5743284D01*
X12474284Y-5743284D01*
X12474284Y-6505284D02*
X12474284Y-6448715D01*
X12417715Y-6448715D01*
X12417715Y-6505284D01*
X12474284Y-6505284D01*
X12537784Y-7648284D02*
X12537784Y-7591715D01*
X12481215Y-7591715D01*
X12481215Y-7648284D01*
X12537784Y-7648284D01*
X12728284Y-5743284D02*
X12728284Y-5686715D01*
X12671715Y-5686715D01*
X12671715Y-5743284D01*
X12728284Y-5743284D01*
X12728284Y-6505284D02*
X12728284Y-6448715D01*
X12671715Y-6448715D01*
X12671715Y-6505284D01*
X12728284Y-6505284D01*
X12982284Y-5743284D02*
X12982284Y-5686715D01*
X12925715Y-5686715D01*
X12925715Y-5743284D01*
X12982284Y-5743284D01*
X12982284Y-6505284D02*
X12982284Y-6448715D01*
X12925715Y-6448715D01*
X12925715Y-6505284D01*
X12982284Y-6505284D01*
X13236284Y-5743284D02*
X13236284Y-5686715D01*
X13179715Y-5686715D01*
X13179715Y-5743284D01*
X13236284Y-5743284D01*
X13236284Y-6505284D02*
X13236284Y-6448715D01*
X13179715Y-6448715D01*
X13179715Y-6505284D01*
X13236284Y-6505284D01*
X13490284Y-5743284D02*
X13490284Y-5686715D01*
X13433715Y-5686715D01*
X13433715Y-5743284D01*
X13490284Y-5743284D01*
X13490284Y-6505284D02*
X13490284Y-6448715D01*
X13433715Y-6448715D01*
X13433715Y-6505284D01*
X13490284Y-6505284D01*
X13617284Y-3128284D02*
X13617284Y-3071715D01*
X13560715Y-3071715D01*
X13560715Y-3128284D01*
X13617284Y-3128284D01*
X13617284Y-4652285D02*
X13617284Y-4595716D01*
X13560715Y-4595716D01*
X13560715Y-4652285D01*
X13617284Y-4652285D01*
X13617284Y-9553285D02*
X13617284Y-9496716D01*
X13560715Y-9496716D01*
X13560715Y-9553285D01*
X13617284Y-9553285D01*
X13617284Y-11077285D02*
X13617284Y-11020716D01*
X13560715Y-11020716D01*
X13560715Y-11077285D01*
X13617284Y-11077285D01*
X13744284Y-5743284D02*
X13744284Y-5686715D01*
X13687715Y-5686715D01*
X13687715Y-5743284D01*
X13744284Y-5743284D01*
X13744284Y-6505284D02*
X13744284Y-6448715D01*
X13687715Y-6448715D01*
X13687715Y-6505284D01*
X13744284Y-6505284D01*
X13871284Y-3128284D02*
X13871284Y-3071715D01*
X13814715Y-3071715D01*
X13814715Y-3128284D01*
X13871284Y-3128284D01*
X13871284Y-4652285D02*
X13871284Y-4595716D01*
X13814715Y-4595716D01*
X13814715Y-4652285D01*
X13871284Y-4652285D01*
X13871284Y-9553285D02*
X13871284Y-9496716D01*
X13814715Y-9496716D01*
X13814715Y-9553285D01*
X13871284Y-9553285D01*
X13871284Y-11077285D02*
X13871284Y-11020716D01*
X13814715Y-11020716D01*
X13814715Y-11077285D01*
X13871284Y-11077285D01*
X13998284Y-5743284D02*
X13998284Y-5686715D01*
X13941715Y-5686715D01*
X13941715Y-5743284D01*
X13998284Y-5743284D01*
X13998284Y-6505284D02*
X13998284Y-6448715D01*
X13941715Y-6448715D01*
X13941715Y-6505284D01*
X13998284Y-6505284D01*
X14125284Y-3128284D02*
X14125284Y-3071715D01*
X14068715Y-3071715D01*
X14068715Y-3128284D01*
X14125284Y-3128284D01*
X14125284Y-4652285D02*
X14125284Y-4595716D01*
X14068715Y-4595716D01*
X14068715Y-4652285D01*
X14125284Y-4652285D01*
X14125284Y-9553285D02*
X14125284Y-9496716D01*
X14068715Y-9496716D01*
X14068715Y-9553285D01*
X14125284Y-9553285D01*
X14125284Y-11077285D02*
X14125284Y-11020716D01*
X14068715Y-11020716D01*
X14068715Y-11077285D01*
X14125284Y-11077285D01*
X14125784Y-7140284D02*
X14125784Y-7083715D01*
X14069215Y-7083715D01*
X14069215Y-7140284D01*
X14125784Y-7140284D01*
X14125784Y-7902284D02*
X14125784Y-7845715D01*
X14069215Y-7845715D01*
X14069215Y-7902284D01*
X14125784Y-7902284D01*
X14252284Y-5743284D02*
X14252284Y-5686715D01*
X14195715Y-5686715D01*
X14195715Y-5743284D01*
X14252284Y-5743284D01*
X14252284Y-6505284D02*
X14252284Y-6448715D01*
X14195715Y-6448715D01*
X14195715Y-6505284D01*
X14252284Y-6505284D01*
X14379284Y-3128284D02*
X14379284Y-3071715D01*
X14322715Y-3071715D01*
X14322715Y-3128284D01*
X14379284Y-3128284D01*
X14379284Y-4652285D02*
X14379284Y-4595716D01*
X14322715Y-4595716D01*
X14322715Y-4652285D01*
X14379284Y-4652285D01*
X14379284Y-9553285D02*
X14379284Y-9496716D01*
X14322715Y-9496716D01*
X14322715Y-9553285D01*
X14379284Y-9553285D01*
X14379284Y-11077285D02*
X14379284Y-11020716D01*
X14322715Y-11020716D01*
X14322715Y-11077285D01*
X14379284Y-11077285D01*
X14379784Y-7140284D02*
X14379784Y-7083715D01*
X14323215Y-7083715D01*
X14323215Y-7140284D01*
X14379784Y-7140284D01*
X14379784Y-7902284D02*
X14379784Y-7845715D01*
X14323215Y-7845715D01*
X14323215Y-7902284D01*
X14379784Y-7902284D01*
X14620584Y-5286085D02*
X14620584Y-5229516D01*
X14564015Y-5229516D01*
X14564015Y-5286085D01*
X14620584Y-5286085D01*
X14633284Y-3128284D02*
X14633284Y-3071715D01*
X14576715Y-3071715D01*
X14576715Y-3128284D01*
X14633284Y-3128284D01*
X14633284Y-4652285D02*
X14633284Y-4595716D01*
X14576715Y-4595716D01*
X14576715Y-4652285D01*
X14633284Y-4652285D01*
X14633284Y-9553285D02*
X14633284Y-9496716D01*
X14576715Y-9496716D01*
X14576715Y-9553285D01*
X14633284Y-9553285D01*
X14633284Y-11077285D02*
X14633284Y-11020716D01*
X14576715Y-11020716D01*
X14576715Y-11077285D01*
X14633284Y-11077285D01*
X14633784Y-7140284D02*
X14633784Y-7083715D01*
X14577215Y-7083715D01*
X14577215Y-7140284D01*
X14633784Y-7140284D01*
X14633784Y-7902284D02*
X14633784Y-7845715D01*
X14577215Y-7845715D01*
X14577215Y-7902284D01*
X14633784Y-7902284D01*
X14760284Y-5743284D02*
X14760284Y-5686715D01*
X14703715Y-5686715D01*
X14703715Y-5743284D01*
X14760284Y-5743284D01*
X14760284Y-6505284D02*
X14760284Y-6448715D01*
X14703715Y-6448715D01*
X14703715Y-6505284D01*
X14760284Y-6505284D01*
X14887284Y-3128284D02*
X14887284Y-3071715D01*
X14830715Y-3071715D01*
X14830715Y-3128284D01*
X14887284Y-3128284D01*
X14887284Y-4652285D02*
X14887284Y-4595716D01*
X14830715Y-4595716D01*
X14830715Y-4652285D01*
X14887284Y-4652285D01*
X14887284Y-9553285D02*
X14887284Y-9496716D01*
X14830715Y-9496716D01*
X14830715Y-9553285D01*
X14887284Y-9553285D01*
X14887284Y-11077285D02*
X14887284Y-11020716D01*
X14830715Y-11020716D01*
X14830715Y-11077285D01*
X14887284Y-11077285D01*
X14887784Y-7140284D02*
X14887784Y-7083715D01*
X14831215Y-7083715D01*
X14831215Y-7140284D01*
X14887784Y-7140284D01*
X14887784Y-7902284D02*
X14887784Y-7845715D01*
X14831215Y-7845715D01*
X14831215Y-7902284D01*
X14887784Y-7902284D01*
X15014284Y-5743284D02*
X15014284Y-5686715D01*
X14957715Y-5686715D01*
X14957715Y-5743284D01*
X15014284Y-5743284D01*
X15014284Y-6505284D02*
X15014284Y-6448715D01*
X14957715Y-6448715D01*
X14957715Y-6505284D01*
X15014284Y-6505284D01*
X15120584Y-5286085D02*
X15120584Y-5229516D01*
X15064015Y-5229516D01*
X15064015Y-5286085D01*
X15120584Y-5286085D01*
X15141284Y-3128284D02*
X15141284Y-3071715D01*
X15084715Y-3071715D01*
X15084715Y-3128284D01*
X15141284Y-3128284D01*
X15141284Y-4652285D02*
X15141284Y-4595716D01*
X15084715Y-4595716D01*
X15084715Y-4652285D01*
X15141284Y-4652285D01*
X15141284Y-9553285D02*
X15141284Y-9496716D01*
X15084715Y-9496716D01*
X15084715Y-9553285D01*
X15141284Y-9553285D01*
X15141284Y-11077285D02*
X15141284Y-11020716D01*
X15084715Y-11020716D01*
X15084715Y-11077285D01*
X15141284Y-11077285D01*
X15141784Y-7140284D02*
X15141784Y-7083715D01*
X15085215Y-7083715D01*
X15085215Y-7140284D01*
X15141784Y-7140284D01*
X15141784Y-7902284D02*
X15141784Y-7845715D01*
X15085215Y-7845715D01*
X15085215Y-7902284D01*
X15141784Y-7902284D01*
X15268284Y-5743284D02*
X15268284Y-5686715D01*
X15211715Y-5686715D01*
X15211715Y-5743284D01*
X15268284Y-5743284D01*
X15268284Y-6505284D02*
X15268284Y-6448715D01*
X15211715Y-6448715D01*
X15211715Y-6505284D01*
X15268284Y-6505284D01*
X15395284Y-3128284D02*
X15395284Y-3071715D01*
X15338715Y-3071715D01*
X15338715Y-3128284D01*
X15395284Y-3128284D01*
X15395284Y-4652285D02*
X15395284Y-4595716D01*
X15338715Y-4595716D01*
X15338715Y-4652285D01*
X15395284Y-4652285D01*
X15395284Y-9553285D02*
X15395284Y-9496716D01*
X15338715Y-9496716D01*
X15338715Y-9553285D01*
X15395284Y-9553285D01*
X15395284Y-11077285D02*
X15395284Y-11020716D01*
X15338715Y-11020716D01*
X15338715Y-11077285D01*
X15395284Y-11077285D01*
X15395784Y-7140284D02*
X15395784Y-7083715D01*
X15339215Y-7083715D01*
X15339215Y-7140284D01*
X15395784Y-7140284D01*
X15395784Y-7902284D02*
X15395784Y-7845715D01*
X15339215Y-7845715D01*
X15339215Y-7902284D01*
X15395784Y-7902284D01*
X15522284Y-5743284D02*
X15522284Y-5686715D01*
X15465715Y-5686715D01*
X15465715Y-5743284D01*
X15522284Y-5743284D01*
X15522284Y-6505284D02*
X15522284Y-6448715D01*
X15465715Y-6448715D01*
X15465715Y-6505284D01*
X15522284Y-6505284D01*
X15649284Y-3128284D02*
X15649284Y-3071715D01*
X15592715Y-3071715D01*
X15592715Y-3128284D01*
X15649284Y-3128284D01*
X15649284Y-4652285D02*
X15649284Y-4595716D01*
X15592715Y-4595716D01*
X15592715Y-4652285D01*
X15649284Y-4652285D01*
X15649284Y-9553285D02*
X15649284Y-9496716D01*
X15592715Y-9496716D01*
X15592715Y-9553285D01*
X15649284Y-9553285D01*
X15649284Y-11077285D02*
X15649284Y-11020716D01*
X15592715Y-11020716D01*
X15592715Y-11077285D01*
X15649284Y-11077285D01*
X15649784Y-7140284D02*
X15649784Y-7083715D01*
X15593215Y-7083715D01*
X15593215Y-7140284D01*
X15649784Y-7140284D01*
X15649784Y-7902284D02*
X15649784Y-7845715D01*
X15593215Y-7845715D01*
X15593215Y-7902284D01*
X15649784Y-7902284D01*
X15776284Y-5743284D02*
X15776284Y-5686715D01*
X15719715Y-5686715D01*
X15719715Y-5743284D01*
X15776284Y-5743284D01*
X15776284Y-6505284D02*
X15776284Y-6448715D01*
X15719715Y-6448715D01*
X15719715Y-6505284D01*
X15776284Y-6505284D01*
X15903284Y-3128284D02*
X15903284Y-3071715D01*
X15846715Y-3071715D01*
X15846715Y-3128284D01*
X15903284Y-3128284D01*
X15903284Y-4652285D02*
X15903284Y-4595716D01*
X15846715Y-4595716D01*
X15846715Y-4652285D01*
X15903284Y-4652285D01*
X15903284Y-9553285D02*
X15903284Y-9496716D01*
X15846715Y-9496716D01*
X15846715Y-9553285D01*
X15903284Y-9553285D01*
X15903284Y-11077285D02*
X15903284Y-11020716D01*
X15846715Y-11020716D01*
X15846715Y-11077285D01*
X15903284Y-11077285D01*
X15903784Y-7140284D02*
X15903784Y-7083715D01*
X15847215Y-7083715D01*
X15847215Y-7140284D01*
X15903784Y-7140284D01*
X15903784Y-7902284D02*
X15903784Y-7845715D01*
X15847215Y-7845715D01*
X15847215Y-7902284D01*
X15903784Y-7902284D01*
X16030284Y-5743284D02*
X16030284Y-5686715D01*
X15973715Y-5686715D01*
X15973715Y-5743284D01*
X16030284Y-5743284D01*
X16030284Y-6505284D02*
X16030284Y-6448715D01*
X15973715Y-6448715D01*
X15973715Y-6505284D01*
X16030284Y-6505284D01*
X16157284Y-3128284D02*
X16157284Y-3071715D01*
X16100715Y-3071715D01*
X16100715Y-3128284D01*
X16157284Y-3128284D01*
X16157284Y-4652285D02*
X16157284Y-4595716D01*
X16100715Y-4595716D01*
X16100715Y-4652285D01*
X16157284Y-4652285D01*
X16157284Y-9553285D02*
X16157284Y-9496716D01*
X16100715Y-9496716D01*
X16100715Y-9553285D01*
X16157284Y-9553285D01*
X16157284Y-11077285D02*
X16157284Y-11020716D01*
X16100715Y-11020716D01*
X16100715Y-11077285D01*
X16157284Y-11077285D01*
X16157784Y-7140284D02*
X16157784Y-7083715D01*
X16101215Y-7083715D01*
X16101215Y-7140284D01*
X16157784Y-7140284D01*
X16157784Y-7902284D02*
X16157784Y-7845715D01*
X16101215Y-7845715D01*
X16101215Y-7902284D01*
X16157784Y-7902284D01*
X16284284Y-5743284D02*
X16284284Y-5686715D01*
X16227715Y-5686715D01*
X16227715Y-5743284D01*
X16284284Y-5743284D01*
X16284284Y-6505284D02*
X16284284Y-6448715D01*
X16227715Y-6448715D01*
X16227715Y-6505284D01*
X16284284Y-6505284D01*
X16411284Y-3128284D02*
X16411284Y-3071715D01*
X16354715Y-3071715D01*
X16354715Y-3128284D01*
X16411284Y-3128284D01*
X16411284Y-4652285D02*
X16411284Y-4595716D01*
X16354715Y-4595716D01*
X16354715Y-4652285D01*
X16411284Y-4652285D01*
X16411284Y-9553285D02*
X16411284Y-9496716D01*
X16354715Y-9496716D01*
X16354715Y-9553285D01*
X16411284Y-9553285D01*
X16411284Y-11077285D02*
X16411284Y-11020716D01*
X16354715Y-11020716D01*
X16354715Y-11077285D01*
X16411284Y-11077285D01*
X16411784Y-7140284D02*
X16411784Y-7083715D01*
X16355215Y-7083715D01*
X16355215Y-7140284D01*
X16411784Y-7140284D01*
X16411784Y-7902284D02*
X16411784Y-7845715D01*
X16355215Y-7845715D01*
X16355215Y-7902284D01*
X16411784Y-7902284D01*
X16538284Y-5743284D02*
X16538284Y-5686715D01*
X16481715Y-5686715D01*
X16481715Y-5743284D01*
X16538284Y-5743284D01*
X16538284Y-6505284D02*
X16538284Y-6448715D01*
X16481715Y-6448715D01*
X16481715Y-6505284D01*
X16538284Y-6505284D01*
X16665284Y-3128284D02*
X16665284Y-3071715D01*
X16608715Y-3071715D01*
X16608715Y-3128284D01*
X16665284Y-3128284D01*
X16665284Y-4652285D02*
X16665284Y-4595716D01*
X16608715Y-4595716D01*
X16608715Y-4652285D01*
X16665284Y-4652285D01*
X16665284Y-9553285D02*
X16665284Y-9496716D01*
X16608715Y-9496716D01*
X16608715Y-9553285D01*
X16665284Y-9553285D01*
X16665284Y-11077285D02*
X16665284Y-11020716D01*
X16608715Y-11020716D01*
X16608715Y-11077285D01*
X16665284Y-11077285D01*
X16792285Y-5743284D02*
X16792285Y-5686715D01*
X16735715Y-5686715D01*
X16735715Y-5743284D01*
X16792285Y-5743284D01*
X16792285Y-6505284D02*
X16792285Y-6448715D01*
X16735715Y-6448715D01*
X16735715Y-6505284D01*
X16792285Y-6505284D01*
X16919285Y-3128284D02*
X16919285Y-3071715D01*
X16862716Y-3071715D01*
X16862716Y-3128284D01*
X16919285Y-3128284D01*
X16919285Y-4652285D02*
X16919285Y-4595716D01*
X16862716Y-4595716D01*
X16862716Y-4652285D01*
X16919285Y-4652285D01*
X16919285Y-9553285D02*
X16919285Y-9496716D01*
X16862716Y-9496716D01*
X16862716Y-9553285D01*
X16919285Y-9553285D01*
X16919285Y-11077285D02*
X16919285Y-11020716D01*
X16862716Y-11020716D01*
X16862716Y-11077285D01*
X16919285Y-11077285D01*
X17046285Y-5743284D02*
X17046285Y-5686715D01*
X16989716Y-5686715D01*
X16989716Y-5743284D01*
X17046285Y-5743284D01*
X17046285Y-6505284D02*
X17046285Y-6448715D01*
X16989716Y-6448715D01*
X16989716Y-6505284D01*
X17046285Y-6505284D01*
X17554285Y-11140785D02*
X17554285Y-11084216D01*
X17497716Y-11084216D01*
X17497716Y-11140785D01*
X17554285Y-11140785D01*
X17935285Y-7013284D02*
X17935285Y-6956715D01*
X17878716Y-6956715D01*
X17878716Y-7013284D01*
X17935285Y-7013284D01*
X17935285Y-7775284D02*
X17935285Y-7718715D01*
X17878716Y-7718715D01*
X17878716Y-7775284D01*
X17935285Y-7775284D01*
X17939285Y-5743284D02*
X17939285Y-5686715D01*
X17882716Y-5686715D01*
X17882716Y-5743284D01*
X17939285Y-5743284D01*
X17939285Y-6505284D02*
X17939285Y-6448715D01*
X17882716Y-6448715D01*
X17882716Y-6505284D01*
X17939285Y-6505284D01*
X18006785Y-3393784D02*
X18006785Y-3337215D01*
X17950216Y-3337215D01*
X17950216Y-3393784D01*
X18006785Y-3393784D01*
X18007062Y-3077722D02*
X18007062Y-3021153D01*
X17950493Y-3021153D01*
X17950493Y-3077722D01*
X18007062Y-3077722D01*
X18054285Y-11140785D02*
X18054285Y-11084216D01*
X17997716Y-11084216D01*
X17997716Y-11140785D01*
X18054285Y-11140785D01*
X18189285Y-7013284D02*
X18189285Y-6956715D01*
X18132716Y-6956715D01*
X18132716Y-7013284D01*
X18189285Y-7013284D01*
X18189285Y-7775284D02*
X18189285Y-7718715D01*
X18132716Y-7718715D01*
X18132716Y-7775284D01*
X18189285Y-7775284D01*
X18193285Y-5743284D02*
X18193285Y-5686715D01*
X18136716Y-5686715D01*
X18136716Y-5743284D01*
X18193285Y-5743284D01*
X18193285Y-6505284D02*
X18193285Y-6448715D01*
X18136716Y-6448715D01*
X18136716Y-6505284D01*
X18193285Y-6505284D01*
X18443284Y-7775284D02*
X18443284Y-7718715D01*
X18386715Y-7718715D01*
X18386715Y-7775284D01*
X18443284Y-7775284D01*
X18443285Y-7013284D02*
X18443285Y-6956715D01*
X18386716Y-6956715D01*
X18386716Y-7013284D01*
X18443285Y-7013284D01*
X18447285Y-5743284D02*
X18447285Y-5686715D01*
X18390716Y-5686715D01*
X18390716Y-5743284D01*
X18447285Y-5743284D01*
X18447285Y-6505284D02*
X18447285Y-6448715D01*
X18390716Y-6448715D01*
X18390716Y-6505284D01*
X18447285Y-6505284D01*
X18506785Y-3393784D02*
X18506785Y-3337215D01*
X18450216Y-3337215D01*
X18450216Y-3393784D01*
X18506785Y-3393784D01*
X18507062Y-3077722D02*
X18507062Y-3021153D01*
X18450493Y-3021153D01*
X18450493Y-3077722D01*
X18507062Y-3077722D01*
X18697285Y-7013284D02*
X18697285Y-6956715D01*
X18640716Y-6956715D01*
X18640716Y-7013284D01*
X18697285Y-7013284D01*
X18697285Y-7775284D02*
X18697285Y-7718715D01*
X18640716Y-7718715D01*
X18640716Y-7775284D01*
X18697285Y-7775284D01*
X18701285Y-5743284D02*
X18701285Y-5686715D01*
X18644716Y-5686715D01*
X18644716Y-5743284D01*
X18701285Y-5743284D01*
X18701285Y-6505284D02*
X18701285Y-6448715D01*
X18644716Y-6448715D01*
X18644716Y-6505284D01*
X18701285Y-6505284D01*
X18951285Y-7013284D02*
X18951285Y-6956715D01*
X18894716Y-6956715D01*
X18894716Y-7013284D01*
X18951285Y-7013284D01*
X18951285Y-7775284D02*
X18951285Y-7718715D01*
X18894716Y-7718715D01*
X18894716Y-7775284D01*
X18951285Y-7775284D01*
X18955285Y-5743284D02*
X18955285Y-5686715D01*
X18898716Y-5686715D01*
X18898716Y-5743284D01*
X18955285Y-5743284D01*
X18955285Y-6505284D02*
X18955285Y-6448715D01*
X18898716Y-6448715D01*
X18898716Y-6505284D01*
X18955285Y-6505284D01*
X19205285Y-7013284D02*
X19205285Y-6956715D01*
X19148716Y-6956715D01*
X19148716Y-7013284D01*
X19205285Y-7013284D01*
X19205285Y-7775284D02*
X19205285Y-7718715D01*
X19148716Y-7718715D01*
X19148716Y-7775284D01*
X19205285Y-7775284D01*
X19209285Y-5743284D02*
X19209285Y-5686715D01*
X19152716Y-5686715D01*
X19152716Y-5743284D01*
X19209285Y-5743284D01*
X19209285Y-6505284D02*
X19209285Y-6448715D01*
X19152716Y-6448715D01*
X19152716Y-6505284D01*
X19209285Y-6505284D01*
X19459285Y-7013284D02*
X19459285Y-6956715D01*
X19402716Y-6956715D01*
X19402716Y-7013284D01*
X19459285Y-7013284D01*
X19459285Y-7775284D02*
X19459285Y-7718715D01*
X19402716Y-7718715D01*
X19402716Y-7775284D01*
X19459285Y-7775284D01*
X19463285Y-5743284D02*
X19463285Y-5686715D01*
X19406716Y-5686715D01*
X19406716Y-5743284D01*
X19463285Y-5743284D01*
X19463285Y-6505284D02*
X19463285Y-6448715D01*
X19406716Y-6448715D01*
X19406716Y-6505284D01*
X19463285Y-6505284D01*
X19852985Y-6543384D02*
X19852985Y-6486815D01*
X19796416Y-6486815D01*
X19796416Y-6543384D01*
X19852985Y-6543384D01*
X20094285Y-5892796D02*
X20094285Y-5836227D01*
X20037716Y-5836227D01*
X20037716Y-5892796D01*
X20094285Y-5892796D01*
X20094285Y-6092796D02*
X20094285Y-6036227D01*
X20037716Y-6036227D01*
X20037716Y-6092796D01*
X20094285Y-6092796D01*
X20352985Y-6543384D02*
X20352985Y-6486815D01*
X20296416Y-6486815D01*
X20296416Y-6543384D01*
X20352985Y-6543384D01*
X8981440Y-4774400D02*
X9031440Y-4724400D01*
X8981440Y-4674400D01*
X8931440Y-4724400D01*
X8981440Y-4774400D01*
X9090660Y-5635460D02*
X9140660Y-5585460D01*
X9090660Y-5535460D01*
X9040660Y-5585460D01*
X9090660Y-5635460D01*
X12641304Y-9477926D02*
X12691304Y-9427926D01*
X12641304Y-9377926D01*
X12591304Y-9427926D01*
X12641304Y-9477926D01*
X12788900Y-9270200D02*
X12838900Y-9220200D01*
X12788900Y-9170200D01*
X12738900Y-9220200D01*
X12788900Y-9270200D01*
X13311456Y-9723333D02*
X13361456Y-9673333D01*
X13311456Y-9623333D01*
X13261456Y-9673333D01*
X13311456Y-9723333D01*
X14810154Y-8546300D02*
X14860154Y-8496300D01*
X14810154Y-8446300D01*
X14760154Y-8496300D01*
X14810154Y-8546300D01*
X15218500Y-8447330D02*
X15268500Y-8397330D01*
X15218500Y-8347329D01*
X15168500Y-8397330D01*
X15218500Y-8447330D01*
X16395700Y-8495500D02*
X16445700Y-8445500D01*
X16395700Y-8395500D01*
X16345700Y-8445500D01*
X16395700Y-8495500D01*
X16918642Y-9341711D02*
X16968642Y-9291711D01*
X16918642Y-9241711D01*
X16868642Y-9291711D01*
X16918642Y-9341711D01*
X17272000Y-7530300D02*
X17322000Y-7480300D01*
X17272000Y-7430300D01*
X17222000Y-7480300D01*
X17272000Y-7530300D01*
X8274250Y-10237000D02*
X8374250Y-10337000D01*
X8374250Y-10237000D02*
X8274250Y-10337000D01*
X8374250Y-10287000D02*
G75*
G02*
X8274250Y-10287000I-50000J0D01*
G01*
X8274250Y-10287000D02*
G75*
G02*
X8374250Y-10287000I50000J0D01*
G01*
X8274250Y-10487000D02*
X8374250Y-10587000D01*
X8374250Y-10487000D02*
X8274250Y-10587000D01*
X8374250Y-10537000D02*
G75*
G02*
X8274250Y-10537000I-50000J0D01*
G01*
X8274250Y-10537000D02*
G75*
G02*
X8374250Y-10537000I50000J0D01*
G01*
X8274250Y-10737000D02*
X8374250Y-10837000D01*
X8374250Y-10737000D02*
X8274250Y-10837000D01*
X8374250Y-10787000D02*
G75*
G02*
X8274250Y-10787000I-50000J0D01*
G01*
X8274250Y-10787000D02*
G75*
G02*
X8374250Y-10787000I50000J0D01*
G01*
X11507000Y-6808000D02*
X11607000Y-6908000D01*
X11607000Y-6808000D02*
X11507000Y-6908000D01*
X11607000Y-6858000D02*
G75*
G02*
X11507000Y-6858000I-50000J0D01*
G01*
X11507000Y-6858000D02*
G75*
G02*
X11607000Y-6858000I50000J0D01*
G01*
X11507500Y-8078000D02*
X11607500Y-8178000D01*
X11607500Y-8078000D02*
X11507500Y-8178000D01*
X11607500Y-8128000D02*
G75*
G02*
X11507500Y-8128000I-50000J0D01*
G01*
X11507500Y-8128000D02*
G75*
G02*
X11607500Y-8128000I50000J0D01*
G01*
X11761000Y-6808000D02*
X11861000Y-6908000D01*
X11861000Y-6808000D02*
X11761000Y-6908000D01*
X11861000Y-6858000D02*
G75*
G02*
X11761000Y-6858000I-50000J0D01*
G01*
X11761000Y-6858000D02*
G75*
G02*
X11861000Y-6858000I50000J0D01*
G01*
X11761500Y-8078000D02*
X11861500Y-8178000D01*
X11861500Y-8078000D02*
X11761500Y-8178000D01*
X11861500Y-8128000D02*
G75*
G02*
X11761500Y-8128000I-50000J0D01*
G01*
X11761500Y-8128000D02*
G75*
G02*
X11861500Y-8128000I50000J0D01*
G01*
X12015000Y-6808000D02*
X12115000Y-6908000D01*
X12115000Y-6808000D02*
X12015000Y-6908000D01*
X12115000Y-6858000D02*
G75*
G02*
X12015000Y-6858000I-50000J0D01*
G01*
X12015000Y-6858000D02*
G75*
G02*
X12115000Y-6858000I50000J0D01*
G01*
X12015500Y-8078000D02*
X12115500Y-8178000D01*
X12115500Y-8078000D02*
X12015500Y-8178000D01*
X12115500Y-8128000D02*
G75*
G02*
X12015500Y-8128000I-50000J0D01*
G01*
X12015500Y-8128000D02*
G75*
G02*
X12115500Y-8128000I50000J0D01*
G01*
X12269000Y-6808000D02*
X12369000Y-6908000D01*
X12369000Y-6808000D02*
X12269000Y-6908000D01*
X12369000Y-6858000D02*
G75*
G02*
X12269000Y-6858000I-50000J0D01*
G01*
X12269000Y-6858000D02*
G75*
G02*
X12369000Y-6858000I50000J0D01*
G01*
X12269500Y-8078000D02*
X12369500Y-8178000D01*
X12369500Y-8078000D02*
X12269500Y-8178000D01*
X12369500Y-8128000D02*
G75*
G02*
X12269500Y-8128000I-50000J0D01*
G01*
X12269500Y-8128000D02*
G75*
G02*
X12369500Y-8128000I50000J0D01*
G01*
X12523000Y-6808000D02*
X12623000Y-6908000D01*
X12623000Y-6808000D02*
X12523000Y-6908000D01*
X12623000Y-6858000D02*
G75*
G02*
X12523000Y-6858000I-50000J0D01*
G01*
X12523000Y-6858000D02*
G75*
G02*
X12623000Y-6858000I50000J0D01*
G01*
X12523500Y-8078000D02*
X12623500Y-8178000D01*
X12623500Y-8078000D02*
X12523500Y-8178000D01*
X12623500Y-8128000D02*
G75*
G02*
X12523500Y-8128000I-50000J0D01*
G01*
X12523500Y-8128000D02*
G75*
G02*
X12623500Y-8128000I50000J0D01*
G01*
X12777000Y-6808000D02*
X12877000Y-6908000D01*
X12877000Y-6808000D02*
X12777000Y-6908000D01*
X12877000Y-6858000D02*
G75*
G02*
X12777000Y-6858000I-50000J0D01*
G01*
X12777000Y-6858000D02*
G75*
G02*
X12877000Y-6858000I50000J0D01*
G01*
X12777500Y-8078000D02*
X12877500Y-8178000D01*
X12877500Y-8078000D02*
X12777500Y-8178000D01*
X12877500Y-8128000D02*
G75*
G02*
X12777500Y-8128000I-50000J0D01*
G01*
X12777500Y-8128000D02*
G75*
G02*
X12877500Y-8128000I50000J0D01*
G01*
X13031000Y-6808000D02*
X13131000Y-6908000D01*
X13131000Y-6808000D02*
X13031000Y-6908000D01*
X13131000Y-6858000D02*
G75*
G02*
X13031000Y-6858000I-50000J0D01*
G01*
X13031000Y-6858000D02*
G75*
G02*
X13131000Y-6858000I50000J0D01*
G01*
X13031500Y-8078000D02*
X13131500Y-8178000D01*
X13131500Y-8078000D02*
X13031500Y-8178000D01*
X13131500Y-8128000D02*
G75*
G02*
X13031500Y-8128000I-50000J0D01*
G01*
X13031500Y-8128000D02*
G75*
G02*
X13131500Y-8128000I50000J0D01*
G01*
X13285000Y-6808000D02*
X13385000Y-6908000D01*
X13385000Y-6808000D02*
X13285000Y-6908000D01*
X13385000Y-6858000D02*
G75*
G02*
X13285000Y-6858000I-50000J0D01*
G01*
X13285000Y-6858000D02*
G75*
G02*
X13385000Y-6858000I50000J0D01*
G01*
X13285500Y-8078000D02*
X13385500Y-8178000D01*
X13385500Y-8078000D02*
X13285500Y-8178000D01*
X13385500Y-8128000D02*
G75*
G02*
X13285500Y-8128000I-50000J0D01*
G01*
X13285500Y-8128000D02*
G75*
G02*
X13385500Y-8128000I50000J0D01*
G01*
X13539000Y-6808000D02*
X13639000Y-6908000D01*
X13639000Y-6808000D02*
X13539000Y-6908000D01*
X13639000Y-6858000D02*
G75*
G02*
X13539000Y-6858000I-50000J0D01*
G01*
X13539000Y-6858000D02*
G75*
G02*
X13639000Y-6858000I50000J0D01*
G01*
X13539500Y-8078000D02*
X13639500Y-8178000D01*
X13639500Y-8078000D02*
X13539500Y-8178000D01*
X13639500Y-8128000D02*
G75*
G02*
X13539500Y-8128000I-50000J0D01*
G01*
X13539500Y-8128000D02*
G75*
G02*
X13639500Y-8128000I50000J0D01*
G01*
X13793000Y-6808000D02*
X13893000Y-6908000D01*
X13893000Y-6808000D02*
X13793000Y-6908000D01*
X13893000Y-6858000D02*
G75*
G02*
X13793000Y-6858000I-50000J0D01*
G01*
X13793000Y-6858000D02*
G75*
G02*
X13893000Y-6858000I50000J0D01*
G01*
X13793500Y-8078000D02*
X13893500Y-8178000D01*
X13893500Y-8078000D02*
X13793500Y-8178000D01*
X13893500Y-8128000D02*
G75*
G02*
X13793500Y-8128000I-50000J0D01*
G01*
X13793500Y-8128000D02*
G75*
G02*
X13893500Y-8128000I50000J0D01*
G01*
X14047000Y-6808000D02*
X14147000Y-6908000D01*
X14147000Y-6808000D02*
X14047000Y-6908000D01*
X14147000Y-6858000D02*
G75*
G02*
X14047000Y-6858000I-50000J0D01*
G01*
X14047000Y-6858000D02*
G75*
G02*
X14147000Y-6858000I50000J0D01*
G01*
X14047500Y-8078000D02*
X14147500Y-8178000D01*
X14147500Y-8078000D02*
X14047500Y-8178000D01*
X14147500Y-8128000D02*
G75*
G02*
X14047500Y-8128000I-50000J0D01*
G01*
X14047500Y-8128000D02*
G75*
G02*
X14147500Y-8128000I50000J0D01*
G01*
X14301000Y-6808000D02*
X14401000Y-6908000D01*
X14401000Y-6808000D02*
X14301000Y-6908000D01*
X14401000Y-6858000D02*
G75*
G02*
X14301000Y-6858000I-50000J0D01*
G01*
X14301000Y-6858000D02*
G75*
G02*
X14401000Y-6858000I50000J0D01*
G01*
X14301500Y-8078000D02*
X14401500Y-8178000D01*
X14401500Y-8078000D02*
X14301500Y-8178000D01*
X14401500Y-8128000D02*
G75*
G02*
X14301500Y-8128000I-50000J0D01*
G01*
X14301500Y-8128000D02*
G75*
G02*
X14401500Y-8128000I50000J0D01*
G01*
X14555000Y-6808000D02*
X14655000Y-6908000D01*
X14655000Y-6808000D02*
X14555000Y-6908000D01*
X14655000Y-6858000D02*
G75*
G02*
X14555000Y-6858000I-50000J0D01*
G01*
X14555000Y-6858000D02*
G75*
G02*
X14655000Y-6858000I50000J0D01*
G01*
X14555500Y-8078000D02*
X14655500Y-8178000D01*
X14655500Y-8078000D02*
X14555500Y-8178000D01*
X14655500Y-8128000D02*
G75*
G02*
X14555500Y-8128000I-50000J0D01*
G01*
X14555500Y-8128000D02*
G75*
G02*
X14655500Y-8128000I50000J0D01*
G01*
X14809000Y-6808000D02*
X14909000Y-6908000D01*
X14909000Y-6808000D02*
X14809000Y-6908000D01*
X14909000Y-6858000D02*
G75*
G02*
X14809000Y-6858000I-50000J0D01*
G01*
X14809000Y-6858000D02*
G75*
G02*
X14909000Y-6858000I50000J0D01*
G01*
X14809500Y-8078000D02*
X14909500Y-8178000D01*
X14909500Y-8078000D02*
X14809500Y-8178000D01*
X14909500Y-8128000D02*
G75*
G02*
X14809500Y-8128000I-50000J0D01*
G01*
X14809500Y-8128000D02*
G75*
G02*
X14909500Y-8128000I50000J0D01*
G01*
X15063000Y-6808000D02*
X15163000Y-6908000D01*
X15163000Y-6808000D02*
X15063000Y-6908000D01*
X15163000Y-6858000D02*
G75*
G02*
X15063000Y-6858000I-50000J0D01*
G01*
X15063000Y-6858000D02*
G75*
G02*
X15163000Y-6858000I50000J0D01*
G01*
X15063500Y-8078000D02*
X15163500Y-8178000D01*
X15163500Y-8078000D02*
X15063500Y-8178000D01*
X15163500Y-8128000D02*
G75*
G02*
X15063500Y-8128000I-50000J0D01*
G01*
X15063500Y-8128000D02*
G75*
G02*
X15163500Y-8128000I50000J0D01*
G01*
X15317000Y-6808000D02*
X15417000Y-6908000D01*
X15417000Y-6808000D02*
X15317000Y-6908000D01*
X15417000Y-6858000D02*
G75*
G02*
X15317000Y-6858000I-50000J0D01*
G01*
X15317000Y-6858000D02*
G75*
G02*
X15417000Y-6858000I50000J0D01*
G01*
X15317500Y-8078000D02*
X15417500Y-8178000D01*
X15417500Y-8078000D02*
X15317500Y-8178000D01*
X15417500Y-8128000D02*
G75*
G02*
X15317500Y-8128000I-50000J0D01*
G01*
X15317500Y-8128000D02*
G75*
G02*
X15417500Y-8128000I50000J0D01*
G01*
X15571000Y-6808000D02*
X15671000Y-6908000D01*
X15671000Y-6808000D02*
X15571000Y-6908000D01*
X15671000Y-6858000D02*
G75*
G02*
X15571000Y-6858000I-50000J0D01*
G01*
X15571000Y-6858000D02*
G75*
G02*
X15671000Y-6858000I50000J0D01*
G01*
X15571500Y-8078000D02*
X15671500Y-8178000D01*
X15671500Y-8078000D02*
X15571500Y-8178000D01*
X15671500Y-8128000D02*
G75*
G02*
X15571500Y-8128000I-50000J0D01*
G01*
X15571500Y-8128000D02*
G75*
G02*
X15671500Y-8128000I50000J0D01*
G01*
X15825000Y-6808000D02*
X15925000Y-6908000D01*
X15925000Y-6808000D02*
X15825000Y-6908000D01*
X15925000Y-6858000D02*
G75*
G02*
X15825000Y-6858000I-50000J0D01*
G01*
X15825000Y-6858000D02*
G75*
G02*
X15925000Y-6858000I50000J0D01*
G01*
X15825500Y-8078000D02*
X15925500Y-8178000D01*
X15925500Y-8078000D02*
X15825500Y-8178000D01*
X15925500Y-8128000D02*
G75*
G02*
X15825500Y-8128000I-50000J0D01*
G01*
X15825500Y-8128000D02*
G75*
G02*
X15925500Y-8128000I50000J0D01*
G01*
X16079000Y-6808000D02*
X16179000Y-6908000D01*
X16179000Y-6808000D02*
X16079000Y-6908000D01*
X16179000Y-6858000D02*
G75*
G02*
X16079000Y-6858000I-50000J0D01*
G01*
X16079000Y-6858000D02*
G75*
G02*
X16179000Y-6858000I50000J0D01*
G01*
X16079500Y-8078000D02*
X16179500Y-8178000D01*
X16179500Y-8078000D02*
X16079500Y-8178000D01*
X16179500Y-8128000D02*
G75*
G02*
X16079500Y-8128000I-50000J0D01*
G01*
X16079500Y-8128000D02*
G75*
G02*
X16179500Y-8128000I50000J0D01*
G01*
X16333000Y-6808000D02*
X16433000Y-6908000D01*
X16433000Y-6808000D02*
X16333000Y-6908000D01*
X16433000Y-6858000D02*
G75*
G02*
X16333000Y-6858000I-50000J0D01*
G01*
X16333000Y-6858000D02*
G75*
G02*
X16433000Y-6858000I50000J0D01*
G01*
X16333500Y-8078000D02*
X16433500Y-8178000D01*
X16433500Y-8078000D02*
X16333500Y-8178000D01*
X16433500Y-8128000D02*
G75*
G02*
X16333500Y-8128000I-50000J0D01*
G01*
X16333500Y-8128000D02*
G75*
G02*
X16433500Y-8128000I50000J0D01*
G01*
D12*
X8195000Y-6295000D02*
X8305000Y-6405000D01*
X8305000Y-6295000D02*
X8195000Y-6405000D01*
X8250000Y-6295000D02*
X8250000Y-6405000D01*
X8195000Y-6350000D02*
X8305000Y-6350000D01*
X8195000Y-6645000D02*
X8305000Y-6755000D01*
X8305000Y-6645000D02*
X8195000Y-6755000D01*
X8250000Y-6645000D02*
X8250000Y-6755000D01*
X8195000Y-6700000D02*
X8305000Y-6700000D01*
X8195000Y-7661000D02*
X8305000Y-7771000D01*
X8305000Y-7661000D02*
X8195000Y-7771000D01*
X8250000Y-7661000D02*
X8250000Y-7771000D01*
X8195000Y-7716000D02*
X8305000Y-7716000D01*
X9211000Y-6295000D02*
X9321000Y-6405000D01*
X9321000Y-6295000D02*
X9211000Y-6405000D01*
X9266000Y-6295000D02*
X9266000Y-6405000D01*
X9211000Y-6350000D02*
X9321000Y-6350000D01*
D10*
X8061277Y-12386484D02*
X8061277Y-12186484D01*
X8061277Y-12186484D02*
X8108896Y-12186484D01*
X8108896Y-12186484D02*
X8137467Y-12196008D01*
X8137467Y-12196008D02*
X8156515Y-12215055D01*
X8156515Y-12215055D02*
X8166039Y-12234103D01*
X8166039Y-12234103D02*
X8175562Y-12272198D01*
X8175562Y-12272198D02*
X8175562Y-12300769D01*
X8175562Y-12300769D02*
X8166039Y-12338865D01*
X8166039Y-12338865D02*
X8156515Y-12357912D01*
X8156515Y-12357912D02*
X8137467Y-12376960D01*
X8137467Y-12376960D02*
X8108896Y-12386484D01*
X8108896Y-12386484D02*
X8061277Y-12386484D01*
X8261277Y-12386484D02*
X8261277Y-12253150D01*
X8261277Y-12291246D02*
X8270801Y-12272198D01*
X8270801Y-12272198D02*
X8280324Y-12262674D01*
X8280324Y-12262674D02*
X8299372Y-12253150D01*
X8299372Y-12253150D02*
X8318420Y-12253150D01*
X8385086Y-12386484D02*
X8385086Y-12253150D01*
X8385086Y-12186484D02*
X8375562Y-12196008D01*
X8375562Y-12196008D02*
X8385086Y-12205531D01*
X8385086Y-12205531D02*
X8394610Y-12196008D01*
X8394610Y-12196008D02*
X8385086Y-12186484D01*
X8385086Y-12186484D02*
X8385086Y-12205531D01*
X8508896Y-12386484D02*
X8489848Y-12376960D01*
X8489848Y-12376960D02*
X8480324Y-12357912D01*
X8480324Y-12357912D02*
X8480324Y-12186484D01*
X8613658Y-12386484D02*
X8594610Y-12376960D01*
X8594610Y-12376960D02*
X8585086Y-12357912D01*
X8585086Y-12357912D02*
X8585086Y-12186484D01*
X8842229Y-12386484D02*
X8842229Y-12186484D01*
X8842229Y-12186484D02*
X8908896Y-12329341D01*
X8908896Y-12329341D02*
X8975563Y-12186484D01*
X8975563Y-12186484D02*
X8975563Y-12386484D01*
X9156515Y-12386484D02*
X9156515Y-12281722D01*
X9156515Y-12281722D02*
X9146991Y-12262674D01*
X9146991Y-12262674D02*
X9127944Y-12253150D01*
X9127944Y-12253150D02*
X9089848Y-12253150D01*
X9089848Y-12253150D02*
X9070801Y-12262674D01*
X9156515Y-12376960D02*
X9137467Y-12386484D01*
X9137467Y-12386484D02*
X9089848Y-12386484D01*
X9089848Y-12386484D02*
X9070801Y-12376960D01*
X9070801Y-12376960D02*
X9061277Y-12357912D01*
X9061277Y-12357912D02*
X9061277Y-12338865D01*
X9061277Y-12338865D02*
X9070801Y-12319817D01*
X9070801Y-12319817D02*
X9089848Y-12310293D01*
X9089848Y-12310293D02*
X9137467Y-12310293D01*
X9137467Y-12310293D02*
X9156515Y-12300769D01*
X9251753Y-12253150D02*
X9251753Y-12453150D01*
X9251753Y-12262674D02*
X9270801Y-12253150D01*
X9270801Y-12253150D02*
X9308896Y-12253150D01*
X9308896Y-12253150D02*
X9327944Y-12262674D01*
X9327944Y-12262674D02*
X9337467Y-12272198D01*
X9337467Y-12272198D02*
X9346991Y-12291246D01*
X9346991Y-12291246D02*
X9346991Y-12348388D01*
X9346991Y-12348388D02*
X9337467Y-12367436D01*
X9337467Y-12367436D02*
X9327944Y-12376960D01*
X9327944Y-12376960D02*
X9308896Y-12386484D01*
X9308896Y-12386484D02*
X9270801Y-12386484D01*
X9270801Y-12386484D02*
X9251753Y-12376960D01*
X9432705Y-12367436D02*
X9442229Y-12376960D01*
X9442229Y-12376960D02*
X9432705Y-12386484D01*
X9432705Y-12386484D02*
X9423182Y-12376960D01*
X9423182Y-12376960D02*
X9432705Y-12367436D01*
X9432705Y-12367436D02*
X9432705Y-12386484D01*
X9432705Y-12262674D02*
X9442229Y-12272198D01*
X9442229Y-12272198D02*
X9432705Y-12281722D01*
X9432705Y-12281722D02*
X9423182Y-12272198D01*
X9423182Y-12272198D02*
X9432705Y-12262674D01*
X9432705Y-12262674D02*
X9432705Y-12281722D01*
D11*
X7740500Y-12685000D02*
X7800500Y-12745000D01*
X7800500Y-12685000D02*
X7740500Y-12745000D01*
D10*
X8099372Y-12606484D02*
X8118420Y-12606484D01*
X8118420Y-12606484D02*
X8137467Y-12616008D01*
X8137467Y-12616008D02*
X8146991Y-12625531D01*
X8146991Y-12625531D02*
X8156515Y-12644579D01*
X8156515Y-12644579D02*
X8166039Y-12682674D01*
X8166039Y-12682674D02*
X8166039Y-12730293D01*
X8166039Y-12730293D02*
X8156515Y-12768388D01*
X8156515Y-12768388D02*
X8146991Y-12787436D01*
X8146991Y-12787436D02*
X8137467Y-12796960D01*
X8137467Y-12796960D02*
X8118420Y-12806484D01*
X8118420Y-12806484D02*
X8099372Y-12806484D01*
X8099372Y-12806484D02*
X8080324Y-12796960D01*
X8080324Y-12796960D02*
X8070801Y-12787436D01*
X8070801Y-12787436D02*
X8061277Y-12768388D01*
X8061277Y-12768388D02*
X8051753Y-12730293D01*
X8051753Y-12730293D02*
X8051753Y-12682674D01*
X8051753Y-12682674D02*
X8061277Y-12644579D01*
X8061277Y-12644579D02*
X8070801Y-12625531D01*
X8070801Y-12625531D02*
X8080324Y-12616008D01*
X8080324Y-12616008D02*
X8099372Y-12606484D01*
X8251753Y-12787436D02*
X8261277Y-12796960D01*
X8261277Y-12796960D02*
X8251753Y-12806484D01*
X8251753Y-12806484D02*
X8242229Y-12796960D01*
X8242229Y-12796960D02*
X8251753Y-12787436D01*
X8251753Y-12787436D02*
X8251753Y-12806484D01*
X8432705Y-12606484D02*
X8394610Y-12606484D01*
X8394610Y-12606484D02*
X8375562Y-12616008D01*
X8375562Y-12616008D02*
X8366039Y-12625531D01*
X8366039Y-12625531D02*
X8346991Y-12654103D01*
X8346991Y-12654103D02*
X8337467Y-12692198D01*
X8337467Y-12692198D02*
X8337467Y-12768388D01*
X8337467Y-12768388D02*
X8346991Y-12787436D01*
X8346991Y-12787436D02*
X8356515Y-12796960D01*
X8356515Y-12796960D02*
X8375562Y-12806484D01*
X8375562Y-12806484D02*
X8413658Y-12806484D01*
X8413658Y-12806484D02*
X8432705Y-12796960D01*
X8432705Y-12796960D02*
X8442229Y-12787436D01*
X8442229Y-12787436D02*
X8451753Y-12768388D01*
X8451753Y-12768388D02*
X8451753Y-12720769D01*
X8451753Y-12720769D02*
X8442229Y-12701722D01*
X8442229Y-12701722D02*
X8432705Y-12692198D01*
X8432705Y-12692198D02*
X8413658Y-12682674D01*
X8413658Y-12682674D02*
X8375562Y-12682674D01*
X8375562Y-12682674D02*
X8356515Y-12692198D01*
X8356515Y-12692198D02*
X8346991Y-12701722D01*
X8346991Y-12701722D02*
X8337467Y-12720769D01*
X8575563Y-12606484D02*
X8594610Y-12606484D01*
X8594610Y-12606484D02*
X8613658Y-12616008D01*
X8613658Y-12616008D02*
X8623182Y-12625531D01*
X8623182Y-12625531D02*
X8632705Y-12644579D01*
X8632705Y-12644579D02*
X8642229Y-12682674D01*
X8642229Y-12682674D02*
X8642229Y-12730293D01*
X8642229Y-12730293D02*
X8632705Y-12768388D01*
X8632705Y-12768388D02*
X8623182Y-12787436D01*
X8623182Y-12787436D02*
X8613658Y-12796960D01*
X8613658Y-12796960D02*
X8594610Y-12806484D01*
X8594610Y-12806484D02*
X8575563Y-12806484D01*
X8575563Y-12806484D02*
X8556515Y-12796960D01*
X8556515Y-12796960D02*
X8546991Y-12787436D01*
X8546991Y-12787436D02*
X8537467Y-12768388D01*
X8537467Y-12768388D02*
X8527944Y-12730293D01*
X8527944Y-12730293D02*
X8527944Y-12682674D01*
X8527944Y-12682674D02*
X8537467Y-12644579D01*
X8537467Y-12644579D02*
X8546991Y-12625531D01*
X8546991Y-12625531D02*
X8556515Y-12616008D01*
X8556515Y-12616008D02*
X8575563Y-12606484D01*
X8766039Y-12606484D02*
X8785086Y-12606484D01*
X8785086Y-12606484D02*
X8804134Y-12616008D01*
X8804134Y-12616008D02*
X8813658Y-12625531D01*
X8813658Y-12625531D02*
X8823182Y-12644579D01*
X8823182Y-12644579D02*
X8832705Y-12682674D01*
X8832705Y-12682674D02*
X8832705Y-12730293D01*
X8832705Y-12730293D02*
X8823182Y-12768388D01*
X8823182Y-12768388D02*
X8813658Y-12787436D01*
X8813658Y-12787436D02*
X8804134Y-12796960D01*
X8804134Y-12796960D02*
X8785086Y-12806484D01*
X8785086Y-12806484D02*
X8766039Y-12806484D01*
X8766039Y-12806484D02*
X8746991Y-12796960D01*
X8746991Y-12796960D02*
X8737467Y-12787436D01*
X8737467Y-12787436D02*
X8727944Y-12768388D01*
X8727944Y-12768388D02*
X8718420Y-12730293D01*
X8718420Y-12730293D02*
X8718420Y-12682674D01*
X8718420Y-12682674D02*
X8727944Y-12644579D01*
X8727944Y-12644579D02*
X8737467Y-12625531D01*
X8737467Y-12625531D02*
X8746991Y-12616008D01*
X8746991Y-12616008D02*
X8766039Y-12606484D01*
X8918420Y-12806484D02*
X8918420Y-12673150D01*
X8918420Y-12692198D02*
X8927944Y-12682674D01*
X8927944Y-12682674D02*
X8946991Y-12673150D01*
X8946991Y-12673150D02*
X8975563Y-12673150D01*
X8975563Y-12673150D02*
X8994610Y-12682674D01*
X8994610Y-12682674D02*
X9004134Y-12701722D01*
X9004134Y-12701722D02*
X9004134Y-12806484D01*
X9004134Y-12701722D02*
X9013658Y-12682674D01*
X9013658Y-12682674D02*
X9032705Y-12673150D01*
X9032705Y-12673150D02*
X9061277Y-12673150D01*
X9061277Y-12673150D02*
X9080325Y-12682674D01*
X9080325Y-12682674D02*
X9089848Y-12701722D01*
X9089848Y-12701722D02*
X9089848Y-12806484D01*
X9185086Y-12806484D02*
X9185086Y-12673150D01*
X9185086Y-12692198D02*
X9194610Y-12682674D01*
X9194610Y-12682674D02*
X9213658Y-12673150D01*
X9213658Y-12673150D02*
X9242229Y-12673150D01*
X9242229Y-12673150D02*
X9261277Y-12682674D01*
X9261277Y-12682674D02*
X9270801Y-12701722D01*
X9270801Y-12701722D02*
X9270801Y-12806484D01*
X9270801Y-12701722D02*
X9280325Y-12682674D01*
X9280325Y-12682674D02*
X9299372Y-12673150D01*
X9299372Y-12673150D02*
X9327944Y-12673150D01*
X9327944Y-12673150D02*
X9346991Y-12682674D01*
X9346991Y-12682674D02*
X9356515Y-12701722D01*
X9356515Y-12701722D02*
X9356515Y-12806484D01*
X9746991Y-12596960D02*
X9575563Y-12854103D01*
X10004134Y-12606484D02*
X10023182Y-12606484D01*
X10023182Y-12606484D02*
X10042229Y-12616008D01*
X10042229Y-12616008D02*
X10051753Y-12625531D01*
X10051753Y-12625531D02*
X10061277Y-12644579D01*
X10061277Y-12644579D02*
X10070801Y-12682674D01*
X10070801Y-12682674D02*
X10070801Y-12730293D01*
X10070801Y-12730293D02*
X10061277Y-12768388D01*
X10061277Y-12768388D02*
X10051753Y-12787436D01*
X10051753Y-12787436D02*
X10042229Y-12796960D01*
X10042229Y-12796960D02*
X10023182Y-12806484D01*
X10023182Y-12806484D02*
X10004134Y-12806484D01*
X10004134Y-12806484D02*
X9985087Y-12796960D01*
X9985087Y-12796960D02*
X9975563Y-12787436D01*
X9975563Y-12787436D02*
X9966039Y-12768388D01*
X9966039Y-12768388D02*
X9956515Y-12730293D01*
X9956515Y-12730293D02*
X9956515Y-12682674D01*
X9956515Y-12682674D02*
X9966039Y-12644579D01*
X9966039Y-12644579D02*
X9975563Y-12625531D01*
X9975563Y-12625531D02*
X9985087Y-12616008D01*
X9985087Y-12616008D02*
X10004134Y-12606484D01*
X10156515Y-12787436D02*
X10166039Y-12796960D01*
X10166039Y-12796960D02*
X10156515Y-12806484D01*
X10156515Y-12806484D02*
X10146991Y-12796960D01*
X10146991Y-12796960D02*
X10156515Y-12787436D01*
X10156515Y-12787436D02*
X10156515Y-12806484D01*
X10289848Y-12606484D02*
X10308896Y-12606484D01*
X10308896Y-12606484D02*
X10327944Y-12616008D01*
X10327944Y-12616008D02*
X10337468Y-12625531D01*
X10337468Y-12625531D02*
X10346991Y-12644579D01*
X10346991Y-12644579D02*
X10356515Y-12682674D01*
X10356515Y-12682674D02*
X10356515Y-12730293D01*
X10356515Y-12730293D02*
X10346991Y-12768388D01*
X10346991Y-12768388D02*
X10337468Y-12787436D01*
X10337468Y-12787436D02*
X10327944Y-12796960D01*
X10327944Y-12796960D02*
X10308896Y-12806484D01*
X10308896Y-12806484D02*
X10289848Y-12806484D01*
X10289848Y-12806484D02*
X10270801Y-12796960D01*
X10270801Y-12796960D02*
X10261277Y-12787436D01*
X10261277Y-12787436D02*
X10251753Y-12768388D01*
X10251753Y-12768388D02*
X10242229Y-12730293D01*
X10242229Y-12730293D02*
X10242229Y-12682674D01*
X10242229Y-12682674D02*
X10251753Y-12644579D01*
X10251753Y-12644579D02*
X10261277Y-12625531D01*
X10261277Y-12625531D02*
X10270801Y-12616008D01*
X10270801Y-12616008D02*
X10289848Y-12606484D01*
X10432706Y-12625531D02*
X10442229Y-12616008D01*
X10442229Y-12616008D02*
X10461277Y-12606484D01*
X10461277Y-12606484D02*
X10508896Y-12606484D01*
X10508896Y-12606484D02*
X10527944Y-12616008D01*
X10527944Y-12616008D02*
X10537468Y-12625531D01*
X10537468Y-12625531D02*
X10546991Y-12644579D01*
X10546991Y-12644579D02*
X10546991Y-12663627D01*
X10546991Y-12663627D02*
X10537468Y-12692198D01*
X10537468Y-12692198D02*
X10423182Y-12806484D01*
X10423182Y-12806484D02*
X10546991Y-12806484D01*
X10613658Y-12606484D02*
X10737468Y-12606484D01*
X10737468Y-12606484D02*
X10670801Y-12682674D01*
X10670801Y-12682674D02*
X10699372Y-12682674D01*
X10699372Y-12682674D02*
X10718420Y-12692198D01*
X10718420Y-12692198D02*
X10727944Y-12701722D01*
X10727944Y-12701722D02*
X10737468Y-12720769D01*
X10737468Y-12720769D02*
X10737468Y-12768388D01*
X10737468Y-12768388D02*
X10727944Y-12787436D01*
X10727944Y-12787436D02*
X10718420Y-12796960D01*
X10718420Y-12796960D02*
X10699372Y-12806484D01*
X10699372Y-12806484D02*
X10642229Y-12806484D01*
X10642229Y-12806484D02*
X10623182Y-12796960D01*
X10623182Y-12796960D02*
X10613658Y-12787436D01*
X10908896Y-12606484D02*
X10870801Y-12606484D01*
X10870801Y-12606484D02*
X10851753Y-12616008D01*
X10851753Y-12616008D02*
X10842229Y-12625531D01*
X10842229Y-12625531D02*
X10823182Y-12654103D01*
X10823182Y-12654103D02*
X10813658Y-12692198D01*
X10813658Y-12692198D02*
X10813658Y-12768388D01*
X10813658Y-12768388D02*
X10823182Y-12787436D01*
X10823182Y-12787436D02*
X10832706Y-12796960D01*
X10832706Y-12796960D02*
X10851753Y-12806484D01*
X10851753Y-12806484D02*
X10889849Y-12806484D01*
X10889849Y-12806484D02*
X10908896Y-12796960D01*
X10908896Y-12796960D02*
X10918420Y-12787436D01*
X10918420Y-12787436D02*
X10927944Y-12768388D01*
X10927944Y-12768388D02*
X10927944Y-12720769D01*
X10927944Y-12720769D02*
X10918420Y-12701722D01*
X10918420Y-12701722D02*
X10908896Y-12692198D01*
X10908896Y-12692198D02*
X10889849Y-12682674D01*
X10889849Y-12682674D02*
X10851753Y-12682674D01*
X10851753Y-12682674D02*
X10832706Y-12692198D01*
X10832706Y-12692198D02*
X10823182Y-12701722D01*
X10823182Y-12701722D02*
X10813658Y-12720769D01*
X11004134Y-12606484D02*
X11004134Y-12644579D01*
X11080325Y-12606484D02*
X11080325Y-12644579D01*
X11375563Y-12882674D02*
X11366039Y-12873150D01*
X11366039Y-12873150D02*
X11346991Y-12844579D01*
X11346991Y-12844579D02*
X11337468Y-12825531D01*
X11337468Y-12825531D02*
X11327944Y-12796960D01*
X11327944Y-12796960D02*
X11318420Y-12749341D01*
X11318420Y-12749341D02*
X11318420Y-12711246D01*
X11318420Y-12711246D02*
X11327944Y-12663627D01*
X11327944Y-12663627D02*
X11337468Y-12635055D01*
X11337468Y-12635055D02*
X11346991Y-12616008D01*
X11346991Y-12616008D02*
X11366039Y-12587436D01*
X11366039Y-12587436D02*
X11375563Y-12577912D01*
X11489848Y-12606484D02*
X11508896Y-12606484D01*
X11508896Y-12606484D02*
X11527944Y-12616008D01*
X11527944Y-12616008D02*
X11537468Y-12625531D01*
X11537468Y-12625531D02*
X11546991Y-12644579D01*
X11546991Y-12644579D02*
X11556515Y-12682674D01*
X11556515Y-12682674D02*
X11556515Y-12730293D01*
X11556515Y-12730293D02*
X11546991Y-12768388D01*
X11546991Y-12768388D02*
X11537468Y-12787436D01*
X11537468Y-12787436D02*
X11527944Y-12796960D01*
X11527944Y-12796960D02*
X11508896Y-12806484D01*
X11508896Y-12806484D02*
X11489848Y-12806484D01*
X11489848Y-12806484D02*
X11470801Y-12796960D01*
X11470801Y-12796960D02*
X11461277Y-12787436D01*
X11461277Y-12787436D02*
X11451753Y-12768388D01*
X11451753Y-12768388D02*
X11442229Y-12730293D01*
X11442229Y-12730293D02*
X11442229Y-12682674D01*
X11442229Y-12682674D02*
X11451753Y-12644579D01*
X11451753Y-12644579D02*
X11461277Y-12625531D01*
X11461277Y-12625531D02*
X11470801Y-12616008D01*
X11470801Y-12616008D02*
X11489848Y-12606484D01*
X11794610Y-12806484D02*
X11794610Y-12606484D01*
X11880325Y-12806484D02*
X11880325Y-12701722D01*
X11880325Y-12701722D02*
X11870801Y-12682674D01*
X11870801Y-12682674D02*
X11851753Y-12673150D01*
X11851753Y-12673150D02*
X11823182Y-12673150D01*
X11823182Y-12673150D02*
X11804134Y-12682674D01*
X11804134Y-12682674D02*
X11794610Y-12692198D01*
X12004134Y-12806484D02*
X11985087Y-12796960D01*
X11985087Y-12796960D02*
X11975563Y-12787436D01*
X11975563Y-12787436D02*
X11966039Y-12768388D01*
X11966039Y-12768388D02*
X11966039Y-12711246D01*
X11966039Y-12711246D02*
X11975563Y-12692198D01*
X11975563Y-12692198D02*
X11985087Y-12682674D01*
X11985087Y-12682674D02*
X12004134Y-12673150D01*
X12004134Y-12673150D02*
X12032706Y-12673150D01*
X12032706Y-12673150D02*
X12051753Y-12682674D01*
X12051753Y-12682674D02*
X12061277Y-12692198D01*
X12061277Y-12692198D02*
X12070801Y-12711246D01*
X12070801Y-12711246D02*
X12070801Y-12768388D01*
X12070801Y-12768388D02*
X12061277Y-12787436D01*
X12061277Y-12787436D02*
X12051753Y-12796960D01*
X12051753Y-12796960D02*
X12032706Y-12806484D01*
X12032706Y-12806484D02*
X12004134Y-12806484D01*
X12185087Y-12806484D02*
X12166039Y-12796960D01*
X12166039Y-12796960D02*
X12156515Y-12777912D01*
X12156515Y-12777912D02*
X12156515Y-12606484D01*
X12337468Y-12796960D02*
X12318420Y-12806484D01*
X12318420Y-12806484D02*
X12280325Y-12806484D01*
X12280325Y-12806484D02*
X12261277Y-12796960D01*
X12261277Y-12796960D02*
X12251753Y-12777912D01*
X12251753Y-12777912D02*
X12251753Y-12701722D01*
X12251753Y-12701722D02*
X12261277Y-12682674D01*
X12261277Y-12682674D02*
X12280325Y-12673150D01*
X12280325Y-12673150D02*
X12318420Y-12673150D01*
X12318420Y-12673150D02*
X12337468Y-12682674D01*
X12337468Y-12682674D02*
X12346991Y-12701722D01*
X12346991Y-12701722D02*
X12346991Y-12720769D01*
X12346991Y-12720769D02*
X12251753Y-12739817D01*
X12423182Y-12796960D02*
X12442230Y-12806484D01*
X12442230Y-12806484D02*
X12480325Y-12806484D01*
X12480325Y-12806484D02*
X12499372Y-12796960D01*
X12499372Y-12796960D02*
X12508896Y-12777912D01*
X12508896Y-12777912D02*
X12508896Y-12768388D01*
X12508896Y-12768388D02*
X12499372Y-12749341D01*
X12499372Y-12749341D02*
X12480325Y-12739817D01*
X12480325Y-12739817D02*
X12451753Y-12739817D01*
X12451753Y-12739817D02*
X12432706Y-12730293D01*
X12432706Y-12730293D02*
X12423182Y-12711246D01*
X12423182Y-12711246D02*
X12423182Y-12701722D01*
X12423182Y-12701722D02*
X12432706Y-12682674D01*
X12432706Y-12682674D02*
X12451753Y-12673150D01*
X12451753Y-12673150D02*
X12480325Y-12673150D01*
X12480325Y-12673150D02*
X12499372Y-12682674D01*
X12746992Y-12730293D02*
X12899373Y-12730293D01*
X12823182Y-12806484D02*
X12823182Y-12654103D01*
X13232706Y-12673150D02*
X13232706Y-12806484D01*
X13185087Y-12596960D02*
X13137468Y-12739817D01*
X13137468Y-12739817D02*
X13261277Y-12739817D01*
X13480325Y-12796960D02*
X13499373Y-12806484D01*
X13499373Y-12806484D02*
X13537468Y-12806484D01*
X13537468Y-12806484D02*
X13556515Y-12796960D01*
X13556515Y-12796960D02*
X13566039Y-12777912D01*
X13566039Y-12777912D02*
X13566039Y-12768388D01*
X13566039Y-12768388D02*
X13556515Y-12749341D01*
X13556515Y-12749341D02*
X13537468Y-12739817D01*
X13537468Y-12739817D02*
X13508896Y-12739817D01*
X13508896Y-12739817D02*
X13489849Y-12730293D01*
X13489849Y-12730293D02*
X13480325Y-12711246D01*
X13480325Y-12711246D02*
X13480325Y-12701722D01*
X13480325Y-12701722D02*
X13489849Y-12682674D01*
X13489849Y-12682674D02*
X13508896Y-12673150D01*
X13508896Y-12673150D02*
X13537468Y-12673150D01*
X13537468Y-12673150D02*
X13556515Y-12682674D01*
X13680325Y-12806484D02*
X13661277Y-12796960D01*
X13661277Y-12796960D02*
X13651754Y-12777912D01*
X13651754Y-12777912D02*
X13651754Y-12606484D01*
X13785087Y-12806484D02*
X13766039Y-12796960D01*
X13766039Y-12796960D02*
X13756515Y-12787436D01*
X13756515Y-12787436D02*
X13746992Y-12768388D01*
X13746992Y-12768388D02*
X13746992Y-12711246D01*
X13746992Y-12711246D02*
X13756515Y-12692198D01*
X13756515Y-12692198D02*
X13766039Y-12682674D01*
X13766039Y-12682674D02*
X13785087Y-12673150D01*
X13785087Y-12673150D02*
X13813658Y-12673150D01*
X13813658Y-12673150D02*
X13832706Y-12682674D01*
X13832706Y-12682674D02*
X13842230Y-12692198D01*
X13842230Y-12692198D02*
X13851754Y-12711246D01*
X13851754Y-12711246D02*
X13851754Y-12768388D01*
X13851754Y-12768388D02*
X13842230Y-12787436D01*
X13842230Y-12787436D02*
X13832706Y-12796960D01*
X13832706Y-12796960D02*
X13813658Y-12806484D01*
X13813658Y-12806484D02*
X13785087Y-12806484D01*
X13908896Y-12673150D02*
X13985087Y-12673150D01*
X13937468Y-12606484D02*
X13937468Y-12777912D01*
X13937468Y-12777912D02*
X13946992Y-12796960D01*
X13946992Y-12796960D02*
X13966039Y-12806484D01*
X13966039Y-12806484D02*
X13985087Y-12806484D01*
X14042230Y-12796960D02*
X14061277Y-12806484D01*
X14061277Y-12806484D02*
X14099373Y-12806484D01*
X14099373Y-12806484D02*
X14118420Y-12796960D01*
X14118420Y-12796960D02*
X14127944Y-12777912D01*
X14127944Y-12777912D02*
X14127944Y-12768388D01*
X14127944Y-12768388D02*
X14118420Y-12749341D01*
X14118420Y-12749341D02*
X14099373Y-12739817D01*
X14099373Y-12739817D02*
X14070801Y-12739817D01*
X14070801Y-12739817D02*
X14051754Y-12730293D01*
X14051754Y-12730293D02*
X14042230Y-12711246D01*
X14042230Y-12711246D02*
X14042230Y-12701722D01*
X14042230Y-12701722D02*
X14051754Y-12682674D01*
X14051754Y-12682674D02*
X14070801Y-12673150D01*
X14070801Y-12673150D02*
X14099373Y-12673150D01*
X14099373Y-12673150D02*
X14118420Y-12682674D01*
X14194611Y-12882674D02*
X14204135Y-12873150D01*
X14204135Y-12873150D02*
X14223182Y-12844579D01*
X14223182Y-12844579D02*
X14232706Y-12825531D01*
X14232706Y-12825531D02*
X14242230Y-12796960D01*
X14242230Y-12796960D02*
X14251754Y-12749341D01*
X14251754Y-12749341D02*
X14251754Y-12711246D01*
X14251754Y-12711246D02*
X14242230Y-12663627D01*
X14242230Y-12663627D02*
X14232706Y-12635055D01*
X14232706Y-12635055D02*
X14223182Y-12616008D01*
X14223182Y-12616008D02*
X14204135Y-12587436D01*
X14204135Y-12587436D02*
X14194611Y-12577912D01*
D11*
X7800500Y-12979000D02*
G75*
G02*
X7730500Y-12979000I-35000J0D01*
G01*
X7730500Y-12979000D02*
G75*
G02*
X7800500Y-12979000I35000J0D01*
G01*
D10*
X8099372Y-12870484D02*
X8118420Y-12870484D01*
X8118420Y-12870484D02*
X8137467Y-12880008D01*
X8137467Y-12880008D02*
X8146991Y-12889531D01*
X8146991Y-12889531D02*
X8156515Y-12908579D01*
X8156515Y-12908579D02*
X8166039Y-12946674D01*
X8166039Y-12946674D02*
X8166039Y-12994293D01*
X8166039Y-12994293D02*
X8156515Y-13032388D01*
X8156515Y-13032388D02*
X8146991Y-13051436D01*
X8146991Y-13051436D02*
X8137467Y-13060960D01*
X8137467Y-13060960D02*
X8118420Y-13070484D01*
X8118420Y-13070484D02*
X8099372Y-13070484D01*
X8099372Y-13070484D02*
X8080324Y-13060960D01*
X8080324Y-13060960D02*
X8070801Y-13051436D01*
X8070801Y-13051436D02*
X8061277Y-13032388D01*
X8061277Y-13032388D02*
X8051753Y-12994293D01*
X8051753Y-12994293D02*
X8051753Y-12946674D01*
X8051753Y-12946674D02*
X8061277Y-12908579D01*
X8061277Y-12908579D02*
X8070801Y-12889531D01*
X8070801Y-12889531D02*
X8080324Y-12880008D01*
X8080324Y-12880008D02*
X8099372Y-12870484D01*
X8251753Y-13051436D02*
X8261277Y-13060960D01*
X8261277Y-13060960D02*
X8251753Y-13070484D01*
X8251753Y-13070484D02*
X8242229Y-13060960D01*
X8242229Y-13060960D02*
X8251753Y-13051436D01*
X8251753Y-13051436D02*
X8251753Y-13070484D01*
X8327943Y-12870484D02*
X8461277Y-12870484D01*
X8461277Y-12870484D02*
X8375562Y-13070484D01*
X8575563Y-12870484D02*
X8594610Y-12870484D01*
X8594610Y-12870484D02*
X8613658Y-12880008D01*
X8613658Y-12880008D02*
X8623182Y-12889531D01*
X8623182Y-12889531D02*
X8632705Y-12908579D01*
X8632705Y-12908579D02*
X8642229Y-12946674D01*
X8642229Y-12946674D02*
X8642229Y-12994293D01*
X8642229Y-12994293D02*
X8632705Y-13032388D01*
X8632705Y-13032388D02*
X8623182Y-13051436D01*
X8623182Y-13051436D02*
X8613658Y-13060960D01*
X8613658Y-13060960D02*
X8594610Y-13070484D01*
X8594610Y-13070484D02*
X8575563Y-13070484D01*
X8575563Y-13070484D02*
X8556515Y-13060960D01*
X8556515Y-13060960D02*
X8546991Y-13051436D01*
X8546991Y-13051436D02*
X8537467Y-13032388D01*
X8537467Y-13032388D02*
X8527944Y-12994293D01*
X8527944Y-12994293D02*
X8527944Y-12946674D01*
X8527944Y-12946674D02*
X8537467Y-12908579D01*
X8537467Y-12908579D02*
X8546991Y-12889531D01*
X8546991Y-12889531D02*
X8556515Y-12880008D01*
X8556515Y-12880008D02*
X8575563Y-12870484D01*
X8766039Y-12870484D02*
X8785086Y-12870484D01*
X8785086Y-12870484D02*
X8804134Y-12880008D01*
X8804134Y-12880008D02*
X8813658Y-12889531D01*
X8813658Y-12889531D02*
X8823182Y-12908579D01*
X8823182Y-12908579D02*
X8832705Y-12946674D01*
X8832705Y-12946674D02*
X8832705Y-12994293D01*
X8832705Y-12994293D02*
X8823182Y-13032388D01*
X8823182Y-13032388D02*
X8813658Y-13051436D01*
X8813658Y-13051436D02*
X8804134Y-13060960D01*
X8804134Y-13060960D02*
X8785086Y-13070484D01*
X8785086Y-13070484D02*
X8766039Y-13070484D01*
X8766039Y-13070484D02*
X8746991Y-13060960D01*
X8746991Y-13060960D02*
X8737467Y-13051436D01*
X8737467Y-13051436D02*
X8727944Y-13032388D01*
X8727944Y-13032388D02*
X8718420Y-12994293D01*
X8718420Y-12994293D02*
X8718420Y-12946674D01*
X8718420Y-12946674D02*
X8727944Y-12908579D01*
X8727944Y-12908579D02*
X8737467Y-12889531D01*
X8737467Y-12889531D02*
X8746991Y-12880008D01*
X8746991Y-12880008D02*
X8766039Y-12870484D01*
X8918420Y-13070484D02*
X8918420Y-12937150D01*
X8918420Y-12956198D02*
X8927944Y-12946674D01*
X8927944Y-12946674D02*
X8946991Y-12937150D01*
X8946991Y-12937150D02*
X8975563Y-12937150D01*
X8975563Y-12937150D02*
X8994610Y-12946674D01*
X8994610Y-12946674D02*
X9004134Y-12965722D01*
X9004134Y-12965722D02*
X9004134Y-13070484D01*
X9004134Y-12965722D02*
X9013658Y-12946674D01*
X9013658Y-12946674D02*
X9032705Y-12937150D01*
X9032705Y-12937150D02*
X9061277Y-12937150D01*
X9061277Y-12937150D02*
X9080325Y-12946674D01*
X9080325Y-12946674D02*
X9089848Y-12965722D01*
X9089848Y-12965722D02*
X9089848Y-13070484D01*
X9185086Y-13070484D02*
X9185086Y-12937150D01*
X9185086Y-12956198D02*
X9194610Y-12946674D01*
X9194610Y-12946674D02*
X9213658Y-12937150D01*
X9213658Y-12937150D02*
X9242229Y-12937150D01*
X9242229Y-12937150D02*
X9261277Y-12946674D01*
X9261277Y-12946674D02*
X9270801Y-12965722D01*
X9270801Y-12965722D02*
X9270801Y-13070484D01*
X9270801Y-12965722D02*
X9280325Y-12946674D01*
X9280325Y-12946674D02*
X9299372Y-12937150D01*
X9299372Y-12937150D02*
X9327944Y-12937150D01*
X9327944Y-12937150D02*
X9346991Y-12946674D01*
X9346991Y-12946674D02*
X9356515Y-12965722D01*
X9356515Y-12965722D02*
X9356515Y-13070484D01*
X9746991Y-12860960D02*
X9575563Y-13118103D01*
X10004134Y-12870484D02*
X10023182Y-12870484D01*
X10023182Y-12870484D02*
X10042229Y-12880008D01*
X10042229Y-12880008D02*
X10051753Y-12889531D01*
X10051753Y-12889531D02*
X10061277Y-12908579D01*
X10061277Y-12908579D02*
X10070801Y-12946674D01*
X10070801Y-12946674D02*
X10070801Y-12994293D01*
X10070801Y-12994293D02*
X10061277Y-13032388D01*
X10061277Y-13032388D02*
X10051753Y-13051436D01*
X10051753Y-13051436D02*
X10042229Y-13060960D01*
X10042229Y-13060960D02*
X10023182Y-13070484D01*
X10023182Y-13070484D02*
X10004134Y-13070484D01*
X10004134Y-13070484D02*
X9985087Y-13060960D01*
X9985087Y-13060960D02*
X9975563Y-13051436D01*
X9975563Y-13051436D02*
X9966039Y-13032388D01*
X9966039Y-13032388D02*
X9956515Y-12994293D01*
X9956515Y-12994293D02*
X9956515Y-12946674D01*
X9956515Y-12946674D02*
X9966039Y-12908579D01*
X9966039Y-12908579D02*
X9975563Y-12889531D01*
X9975563Y-12889531D02*
X9985087Y-12880008D01*
X9985087Y-12880008D02*
X10004134Y-12870484D01*
X10156515Y-13051436D02*
X10166039Y-13060960D01*
X10166039Y-13060960D02*
X10156515Y-13070484D01*
X10156515Y-13070484D02*
X10146991Y-13060960D01*
X10146991Y-13060960D02*
X10156515Y-13051436D01*
X10156515Y-13051436D02*
X10156515Y-13070484D01*
X10289848Y-12870484D02*
X10308896Y-12870484D01*
X10308896Y-12870484D02*
X10327944Y-12880008D01*
X10327944Y-12880008D02*
X10337468Y-12889531D01*
X10337468Y-12889531D02*
X10346991Y-12908579D01*
X10346991Y-12908579D02*
X10356515Y-12946674D01*
X10356515Y-12946674D02*
X10356515Y-12994293D01*
X10356515Y-12994293D02*
X10346991Y-13032388D01*
X10346991Y-13032388D02*
X10337468Y-13051436D01*
X10337468Y-13051436D02*
X10327944Y-13060960D01*
X10327944Y-13060960D02*
X10308896Y-13070484D01*
X10308896Y-13070484D02*
X10289848Y-13070484D01*
X10289848Y-13070484D02*
X10270801Y-13060960D01*
X10270801Y-13060960D02*
X10261277Y-13051436D01*
X10261277Y-13051436D02*
X10251753Y-13032388D01*
X10251753Y-13032388D02*
X10242229Y-12994293D01*
X10242229Y-12994293D02*
X10242229Y-12946674D01*
X10242229Y-12946674D02*
X10251753Y-12908579D01*
X10251753Y-12908579D02*
X10261277Y-12889531D01*
X10261277Y-12889531D02*
X10270801Y-12880008D01*
X10270801Y-12880008D02*
X10289848Y-12870484D01*
X10432706Y-12889531D02*
X10442229Y-12880008D01*
X10442229Y-12880008D02*
X10461277Y-12870484D01*
X10461277Y-12870484D02*
X10508896Y-12870484D01*
X10508896Y-12870484D02*
X10527944Y-12880008D01*
X10527944Y-12880008D02*
X10537468Y-12889531D01*
X10537468Y-12889531D02*
X10546991Y-12908579D01*
X10546991Y-12908579D02*
X10546991Y-12927627D01*
X10546991Y-12927627D02*
X10537468Y-12956198D01*
X10537468Y-12956198D02*
X10423182Y-13070484D01*
X10423182Y-13070484D02*
X10546991Y-13070484D01*
X10613658Y-12870484D02*
X10746991Y-12870484D01*
X10746991Y-12870484D02*
X10661277Y-13070484D01*
X10908896Y-12870484D02*
X10870801Y-12870484D01*
X10870801Y-12870484D02*
X10851753Y-12880008D01*
X10851753Y-12880008D02*
X10842229Y-12889531D01*
X10842229Y-12889531D02*
X10823182Y-12918103D01*
X10823182Y-12918103D02*
X10813658Y-12956198D01*
X10813658Y-12956198D02*
X10813658Y-13032388D01*
X10813658Y-13032388D02*
X10823182Y-13051436D01*
X10823182Y-13051436D02*
X10832706Y-13060960D01*
X10832706Y-13060960D02*
X10851753Y-13070484D01*
X10851753Y-13070484D02*
X10889849Y-13070484D01*
X10889849Y-13070484D02*
X10908896Y-13060960D01*
X10908896Y-13060960D02*
X10918420Y-13051436D01*
X10918420Y-13051436D02*
X10927944Y-13032388D01*
X10927944Y-13032388D02*
X10927944Y-12984769D01*
X10927944Y-12984769D02*
X10918420Y-12965722D01*
X10918420Y-12965722D02*
X10908896Y-12956198D01*
X10908896Y-12956198D02*
X10889849Y-12946674D01*
X10889849Y-12946674D02*
X10851753Y-12946674D01*
X10851753Y-12946674D02*
X10832706Y-12956198D01*
X10832706Y-12956198D02*
X10823182Y-12965722D01*
X10823182Y-12965722D02*
X10813658Y-12984769D01*
X11004134Y-12870484D02*
X11004134Y-12908579D01*
X11080325Y-12870484D02*
X11080325Y-12908579D01*
X11375563Y-13146674D02*
X11366039Y-13137150D01*
X11366039Y-13137150D02*
X11346991Y-13108579D01*
X11346991Y-13108579D02*
X11337468Y-13089531D01*
X11337468Y-13089531D02*
X11327944Y-13060960D01*
X11327944Y-13060960D02*
X11318420Y-13013341D01*
X11318420Y-13013341D02*
X11318420Y-12975246D01*
X11318420Y-12975246D02*
X11327944Y-12927627D01*
X11327944Y-12927627D02*
X11337468Y-12899055D01*
X11337468Y-12899055D02*
X11346991Y-12880008D01*
X11346991Y-12880008D02*
X11366039Y-12851436D01*
X11366039Y-12851436D02*
X11375563Y-12841912D01*
X11556515Y-13070484D02*
X11442229Y-13070484D01*
X11499372Y-13070484D02*
X11499372Y-12870484D01*
X11499372Y-12870484D02*
X11480325Y-12899055D01*
X11480325Y-12899055D02*
X11461277Y-12918103D01*
X11461277Y-12918103D02*
X11442229Y-12927627D01*
X11670801Y-12956198D02*
X11651753Y-12946674D01*
X11651753Y-12946674D02*
X11642229Y-12937150D01*
X11642229Y-12937150D02*
X11632706Y-12918103D01*
X11632706Y-12918103D02*
X11632706Y-12908579D01*
X11632706Y-12908579D02*
X11642229Y-12889531D01*
X11642229Y-12889531D02*
X11651753Y-12880008D01*
X11651753Y-12880008D02*
X11670801Y-12870484D01*
X11670801Y-12870484D02*
X11708896Y-12870484D01*
X11708896Y-12870484D02*
X11727944Y-12880008D01*
X11727944Y-12880008D02*
X11737468Y-12889531D01*
X11737468Y-12889531D02*
X11746991Y-12908579D01*
X11746991Y-12908579D02*
X11746991Y-12918103D01*
X11746991Y-12918103D02*
X11737468Y-12937150D01*
X11737468Y-12937150D02*
X11727944Y-12946674D01*
X11727944Y-12946674D02*
X11708896Y-12956198D01*
X11708896Y-12956198D02*
X11670801Y-12956198D01*
X11670801Y-12956198D02*
X11651753Y-12965722D01*
X11651753Y-12965722D02*
X11642229Y-12975246D01*
X11642229Y-12975246D02*
X11632706Y-12994293D01*
X11632706Y-12994293D02*
X11632706Y-13032388D01*
X11632706Y-13032388D02*
X11642229Y-13051436D01*
X11642229Y-13051436D02*
X11651753Y-13060960D01*
X11651753Y-13060960D02*
X11670801Y-13070484D01*
X11670801Y-13070484D02*
X11708896Y-13070484D01*
X11708896Y-13070484D02*
X11727944Y-13060960D01*
X11727944Y-13060960D02*
X11737468Y-13051436D01*
X11737468Y-13051436D02*
X11746991Y-13032388D01*
X11746991Y-13032388D02*
X11746991Y-12994293D01*
X11746991Y-12994293D02*
X11737468Y-12975246D01*
X11737468Y-12975246D02*
X11727944Y-12965722D01*
X11727944Y-12965722D02*
X11708896Y-12956198D01*
X11985087Y-13070484D02*
X11985087Y-12870484D01*
X12070801Y-13070484D02*
X12070801Y-12965722D01*
X12070801Y-12965722D02*
X12061277Y-12946674D01*
X12061277Y-12946674D02*
X12042230Y-12937150D01*
X12042230Y-12937150D02*
X12013658Y-12937150D01*
X12013658Y-12937150D02*
X11994610Y-12946674D01*
X11994610Y-12946674D02*
X11985087Y-12956198D01*
X12194610Y-13070484D02*
X12175563Y-13060960D01*
X12175563Y-13060960D02*
X12166039Y-13051436D01*
X12166039Y-13051436D02*
X12156515Y-13032388D01*
X12156515Y-13032388D02*
X12156515Y-12975246D01*
X12156515Y-12975246D02*
X12166039Y-12956198D01*
X12166039Y-12956198D02*
X12175563Y-12946674D01*
X12175563Y-12946674D02*
X12194610Y-12937150D01*
X12194610Y-12937150D02*
X12223182Y-12937150D01*
X12223182Y-12937150D02*
X12242230Y-12946674D01*
X12242230Y-12946674D02*
X12251753Y-12956198D01*
X12251753Y-12956198D02*
X12261277Y-12975246D01*
X12261277Y-12975246D02*
X12261277Y-13032388D01*
X12261277Y-13032388D02*
X12251753Y-13051436D01*
X12251753Y-13051436D02*
X12242230Y-13060960D01*
X12242230Y-13060960D02*
X12223182Y-13070484D01*
X12223182Y-13070484D02*
X12194610Y-13070484D01*
X12375563Y-13070484D02*
X12356515Y-13060960D01*
X12356515Y-13060960D02*
X12346991Y-13041912D01*
X12346991Y-13041912D02*
X12346991Y-12870484D01*
X12527944Y-13060960D02*
X12508896Y-13070484D01*
X12508896Y-13070484D02*
X12470801Y-13070484D01*
X12470801Y-13070484D02*
X12451753Y-13060960D01*
X12451753Y-13060960D02*
X12442230Y-13041912D01*
X12442230Y-13041912D02*
X12442230Y-12965722D01*
X12442230Y-12965722D02*
X12451753Y-12946674D01*
X12451753Y-12946674D02*
X12470801Y-12937150D01*
X12470801Y-12937150D02*
X12508896Y-12937150D01*
X12508896Y-12937150D02*
X12527944Y-12946674D01*
X12527944Y-12946674D02*
X12537468Y-12965722D01*
X12537468Y-12965722D02*
X12537468Y-12984769D01*
X12537468Y-12984769D02*
X12442230Y-13003817D01*
X12613658Y-13060960D02*
X12632706Y-13070484D01*
X12632706Y-13070484D02*
X12670801Y-13070484D01*
X12670801Y-13070484D02*
X12689849Y-13060960D01*
X12689849Y-13060960D02*
X12699372Y-13041912D01*
X12699372Y-13041912D02*
X12699372Y-13032388D01*
X12699372Y-13032388D02*
X12689849Y-13013341D01*
X12689849Y-13013341D02*
X12670801Y-13003817D01*
X12670801Y-13003817D02*
X12642230Y-13003817D01*
X12642230Y-13003817D02*
X12623182Y-12994293D01*
X12623182Y-12994293D02*
X12613658Y-12975246D01*
X12613658Y-12975246D02*
X12613658Y-12965722D01*
X12613658Y-12965722D02*
X12623182Y-12946674D01*
X12623182Y-12946674D02*
X12642230Y-12937150D01*
X12642230Y-12937150D02*
X12670801Y-12937150D01*
X12670801Y-12937150D02*
X12689849Y-12946674D01*
X12766039Y-13146674D02*
X12775563Y-13137150D01*
X12775563Y-13137150D02*
X12794611Y-13108579D01*
X12794611Y-13108579D02*
X12804134Y-13089531D01*
X12804134Y-13089531D02*
X12813658Y-13060960D01*
X12813658Y-13060960D02*
X12823182Y-13013341D01*
X12823182Y-13013341D02*
X12823182Y-12975246D01*
X12823182Y-12975246D02*
X12813658Y-12927627D01*
X12813658Y-12927627D02*
X12804134Y-12899055D01*
X12804134Y-12899055D02*
X12794611Y-12880008D01*
X12794611Y-12880008D02*
X12775563Y-12851436D01*
X12775563Y-12851436D02*
X12766039Y-12841912D01*
D11*
X7760500Y-13203000D02*
X7760500Y-13283000D01*
X7720500Y-13243000D02*
X7800500Y-13243000D01*
D10*
X8099372Y-13134484D02*
X8118420Y-13134484D01*
X8118420Y-13134484D02*
X8137467Y-13144008D01*
X8137467Y-13144008D02*
X8146991Y-13153531D01*
X8146991Y-13153531D02*
X8156515Y-13172579D01*
X8156515Y-13172579D02*
X8166039Y-13210674D01*
X8166039Y-13210674D02*
X8166039Y-13258293D01*
X8166039Y-13258293D02*
X8156515Y-13296388D01*
X8156515Y-13296388D02*
X8146991Y-13315436D01*
X8146991Y-13315436D02*
X8137467Y-13324960D01*
X8137467Y-13324960D02*
X8118420Y-13334484D01*
X8118420Y-13334484D02*
X8099372Y-13334484D01*
X8099372Y-13334484D02*
X8080324Y-13324960D01*
X8080324Y-13324960D02*
X8070801Y-13315436D01*
X8070801Y-13315436D02*
X8061277Y-13296388D01*
X8061277Y-13296388D02*
X8051753Y-13258293D01*
X8051753Y-13258293D02*
X8051753Y-13210674D01*
X8051753Y-13210674D02*
X8061277Y-13172579D01*
X8061277Y-13172579D02*
X8070801Y-13153531D01*
X8070801Y-13153531D02*
X8080324Y-13144008D01*
X8080324Y-13144008D02*
X8099372Y-13134484D01*
X8251753Y-13315436D02*
X8261277Y-13324960D01*
X8261277Y-13324960D02*
X8251753Y-13334484D01*
X8251753Y-13334484D02*
X8242229Y-13324960D01*
X8242229Y-13324960D02*
X8251753Y-13315436D01*
X8251753Y-13315436D02*
X8251753Y-13334484D01*
X8375562Y-13220198D02*
X8356515Y-13210674D01*
X8356515Y-13210674D02*
X8346991Y-13201150D01*
X8346991Y-13201150D02*
X8337467Y-13182103D01*
X8337467Y-13182103D02*
X8337467Y-13172579D01*
X8337467Y-13172579D02*
X8346991Y-13153531D01*
X8346991Y-13153531D02*
X8356515Y-13144008D01*
X8356515Y-13144008D02*
X8375562Y-13134484D01*
X8375562Y-13134484D02*
X8413658Y-13134484D01*
X8413658Y-13134484D02*
X8432705Y-13144008D01*
X8432705Y-13144008D02*
X8442229Y-13153531D01*
X8442229Y-13153531D02*
X8451753Y-13172579D01*
X8451753Y-13172579D02*
X8451753Y-13182103D01*
X8451753Y-13182103D02*
X8442229Y-13201150D01*
X8442229Y-13201150D02*
X8432705Y-13210674D01*
X8432705Y-13210674D02*
X8413658Y-13220198D01*
X8413658Y-13220198D02*
X8375562Y-13220198D01*
X8375562Y-13220198D02*
X8356515Y-13229722D01*
X8356515Y-13229722D02*
X8346991Y-13239246D01*
X8346991Y-13239246D02*
X8337467Y-13258293D01*
X8337467Y-13258293D02*
X8337467Y-13296388D01*
X8337467Y-13296388D02*
X8346991Y-13315436D01*
X8346991Y-13315436D02*
X8356515Y-13324960D01*
X8356515Y-13324960D02*
X8375562Y-13334484D01*
X8375562Y-13334484D02*
X8413658Y-13334484D01*
X8413658Y-13334484D02*
X8432705Y-13324960D01*
X8432705Y-13324960D02*
X8442229Y-13315436D01*
X8442229Y-13315436D02*
X8451753Y-13296388D01*
X8451753Y-13296388D02*
X8451753Y-13258293D01*
X8451753Y-13258293D02*
X8442229Y-13239246D01*
X8442229Y-13239246D02*
X8432705Y-13229722D01*
X8432705Y-13229722D02*
X8413658Y-13220198D01*
X8575563Y-13134484D02*
X8594610Y-13134484D01*
X8594610Y-13134484D02*
X8613658Y-13144008D01*
X8613658Y-13144008D02*
X8623182Y-13153531D01*
X8623182Y-13153531D02*
X8632705Y-13172579D01*
X8632705Y-13172579D02*
X8642229Y-13210674D01*
X8642229Y-13210674D02*
X8642229Y-13258293D01*
X8642229Y-13258293D02*
X8632705Y-13296388D01*
X8632705Y-13296388D02*
X8623182Y-13315436D01*
X8623182Y-13315436D02*
X8613658Y-13324960D01*
X8613658Y-13324960D02*
X8594610Y-13334484D01*
X8594610Y-13334484D02*
X8575563Y-13334484D01*
X8575563Y-13334484D02*
X8556515Y-13324960D01*
X8556515Y-13324960D02*
X8546991Y-13315436D01*
X8546991Y-13315436D02*
X8537467Y-13296388D01*
X8537467Y-13296388D02*
X8527944Y-13258293D01*
X8527944Y-13258293D02*
X8527944Y-13210674D01*
X8527944Y-13210674D02*
X8537467Y-13172579D01*
X8537467Y-13172579D02*
X8546991Y-13153531D01*
X8546991Y-13153531D02*
X8556515Y-13144008D01*
X8556515Y-13144008D02*
X8575563Y-13134484D01*
X8766039Y-13134484D02*
X8785086Y-13134484D01*
X8785086Y-13134484D02*
X8804134Y-13144008D01*
X8804134Y-13144008D02*
X8813658Y-13153531D01*
X8813658Y-13153531D02*
X8823182Y-13172579D01*
X8823182Y-13172579D02*
X8832705Y-13210674D01*
X8832705Y-13210674D02*
X8832705Y-13258293D01*
X8832705Y-13258293D02*
X8823182Y-13296388D01*
X8823182Y-13296388D02*
X8813658Y-13315436D01*
X8813658Y-13315436D02*
X8804134Y-13324960D01*
X8804134Y-13324960D02*
X8785086Y-13334484D01*
X8785086Y-13334484D02*
X8766039Y-13334484D01*
X8766039Y-13334484D02*
X8746991Y-13324960D01*
X8746991Y-13324960D02*
X8737467Y-13315436D01*
X8737467Y-13315436D02*
X8727944Y-13296388D01*
X8727944Y-13296388D02*
X8718420Y-13258293D01*
X8718420Y-13258293D02*
X8718420Y-13210674D01*
X8718420Y-13210674D02*
X8727944Y-13172579D01*
X8727944Y-13172579D02*
X8737467Y-13153531D01*
X8737467Y-13153531D02*
X8746991Y-13144008D01*
X8746991Y-13144008D02*
X8766039Y-13134484D01*
X8918420Y-13334484D02*
X8918420Y-13201150D01*
X8918420Y-13220198D02*
X8927944Y-13210674D01*
X8927944Y-13210674D02*
X8946991Y-13201150D01*
X8946991Y-13201150D02*
X8975563Y-13201150D01*
X8975563Y-13201150D02*
X8994610Y-13210674D01*
X8994610Y-13210674D02*
X9004134Y-13229722D01*
X9004134Y-13229722D02*
X9004134Y-13334484D01*
X9004134Y-13229722D02*
X9013658Y-13210674D01*
X9013658Y-13210674D02*
X9032705Y-13201150D01*
X9032705Y-13201150D02*
X9061277Y-13201150D01*
X9061277Y-13201150D02*
X9080325Y-13210674D01*
X9080325Y-13210674D02*
X9089848Y-13229722D01*
X9089848Y-13229722D02*
X9089848Y-13334484D01*
X9185086Y-13334484D02*
X9185086Y-13201150D01*
X9185086Y-13220198D02*
X9194610Y-13210674D01*
X9194610Y-13210674D02*
X9213658Y-13201150D01*
X9213658Y-13201150D02*
X9242229Y-13201150D01*
X9242229Y-13201150D02*
X9261277Y-13210674D01*
X9261277Y-13210674D02*
X9270801Y-13229722D01*
X9270801Y-13229722D02*
X9270801Y-13334484D01*
X9270801Y-13229722D02*
X9280325Y-13210674D01*
X9280325Y-13210674D02*
X9299372Y-13201150D01*
X9299372Y-13201150D02*
X9327944Y-13201150D01*
X9327944Y-13201150D02*
X9346991Y-13210674D01*
X9346991Y-13210674D02*
X9356515Y-13229722D01*
X9356515Y-13229722D02*
X9356515Y-13334484D01*
X9746991Y-13124960D02*
X9575563Y-13382103D01*
X10004134Y-13134484D02*
X10023182Y-13134484D01*
X10023182Y-13134484D02*
X10042229Y-13144008D01*
X10042229Y-13144008D02*
X10051753Y-13153531D01*
X10051753Y-13153531D02*
X10061277Y-13172579D01*
X10061277Y-13172579D02*
X10070801Y-13210674D01*
X10070801Y-13210674D02*
X10070801Y-13258293D01*
X10070801Y-13258293D02*
X10061277Y-13296388D01*
X10061277Y-13296388D02*
X10051753Y-13315436D01*
X10051753Y-13315436D02*
X10042229Y-13324960D01*
X10042229Y-13324960D02*
X10023182Y-13334484D01*
X10023182Y-13334484D02*
X10004134Y-13334484D01*
X10004134Y-13334484D02*
X9985087Y-13324960D01*
X9985087Y-13324960D02*
X9975563Y-13315436D01*
X9975563Y-13315436D02*
X9966039Y-13296388D01*
X9966039Y-13296388D02*
X9956515Y-13258293D01*
X9956515Y-13258293D02*
X9956515Y-13210674D01*
X9956515Y-13210674D02*
X9966039Y-13172579D01*
X9966039Y-13172579D02*
X9975563Y-13153531D01*
X9975563Y-13153531D02*
X9985087Y-13144008D01*
X9985087Y-13144008D02*
X10004134Y-13134484D01*
X10156515Y-13315436D02*
X10166039Y-13324960D01*
X10166039Y-13324960D02*
X10156515Y-13334484D01*
X10156515Y-13334484D02*
X10146991Y-13324960D01*
X10146991Y-13324960D02*
X10156515Y-13315436D01*
X10156515Y-13315436D02*
X10156515Y-13334484D01*
X10289848Y-13134484D02*
X10308896Y-13134484D01*
X10308896Y-13134484D02*
X10327944Y-13144008D01*
X10327944Y-13144008D02*
X10337468Y-13153531D01*
X10337468Y-13153531D02*
X10346991Y-13172579D01*
X10346991Y-13172579D02*
X10356515Y-13210674D01*
X10356515Y-13210674D02*
X10356515Y-13258293D01*
X10356515Y-13258293D02*
X10346991Y-13296388D01*
X10346991Y-13296388D02*
X10337468Y-13315436D01*
X10337468Y-13315436D02*
X10327944Y-13324960D01*
X10327944Y-13324960D02*
X10308896Y-13334484D01*
X10308896Y-13334484D02*
X10289848Y-13334484D01*
X10289848Y-13334484D02*
X10270801Y-13324960D01*
X10270801Y-13324960D02*
X10261277Y-13315436D01*
X10261277Y-13315436D02*
X10251753Y-13296388D01*
X10251753Y-13296388D02*
X10242229Y-13258293D01*
X10242229Y-13258293D02*
X10242229Y-13210674D01*
X10242229Y-13210674D02*
X10251753Y-13172579D01*
X10251753Y-13172579D02*
X10261277Y-13153531D01*
X10261277Y-13153531D02*
X10270801Y-13144008D01*
X10270801Y-13144008D02*
X10289848Y-13134484D01*
X10423182Y-13134484D02*
X10546991Y-13134484D01*
X10546991Y-13134484D02*
X10480325Y-13210674D01*
X10480325Y-13210674D02*
X10508896Y-13210674D01*
X10508896Y-13210674D02*
X10527944Y-13220198D01*
X10527944Y-13220198D02*
X10537468Y-13229722D01*
X10537468Y-13229722D02*
X10546991Y-13248769D01*
X10546991Y-13248769D02*
X10546991Y-13296388D01*
X10546991Y-13296388D02*
X10537468Y-13315436D01*
X10537468Y-13315436D02*
X10527944Y-13324960D01*
X10527944Y-13324960D02*
X10508896Y-13334484D01*
X10508896Y-13334484D02*
X10451753Y-13334484D01*
X10451753Y-13334484D02*
X10432706Y-13324960D01*
X10432706Y-13324960D02*
X10423182Y-13315436D01*
X10737468Y-13334484D02*
X10623182Y-13334484D01*
X10680325Y-13334484D02*
X10680325Y-13134484D01*
X10680325Y-13134484D02*
X10661277Y-13163055D01*
X10661277Y-13163055D02*
X10642229Y-13182103D01*
X10642229Y-13182103D02*
X10623182Y-13191627D01*
X10918420Y-13134484D02*
X10823182Y-13134484D01*
X10823182Y-13134484D02*
X10813658Y-13229722D01*
X10813658Y-13229722D02*
X10823182Y-13220198D01*
X10823182Y-13220198D02*
X10842229Y-13210674D01*
X10842229Y-13210674D02*
X10889849Y-13210674D01*
X10889849Y-13210674D02*
X10908896Y-13220198D01*
X10908896Y-13220198D02*
X10918420Y-13229722D01*
X10918420Y-13229722D02*
X10927944Y-13248769D01*
X10927944Y-13248769D02*
X10927944Y-13296388D01*
X10927944Y-13296388D02*
X10918420Y-13315436D01*
X10918420Y-13315436D02*
X10908896Y-13324960D01*
X10908896Y-13324960D02*
X10889849Y-13334484D01*
X10889849Y-13334484D02*
X10842229Y-13334484D01*
X10842229Y-13334484D02*
X10823182Y-13324960D01*
X10823182Y-13324960D02*
X10813658Y-13315436D01*
X11004134Y-13134484D02*
X11004134Y-13172579D01*
X11080325Y-13134484D02*
X11080325Y-13172579D01*
X11375563Y-13410674D02*
X11366039Y-13401150D01*
X11366039Y-13401150D02*
X11346991Y-13372579D01*
X11346991Y-13372579D02*
X11337468Y-13353531D01*
X11337468Y-13353531D02*
X11327944Y-13324960D01*
X11327944Y-13324960D02*
X11318420Y-13277341D01*
X11318420Y-13277341D02*
X11318420Y-13239246D01*
X11318420Y-13239246D02*
X11327944Y-13191627D01*
X11327944Y-13191627D02*
X11337468Y-13163055D01*
X11337468Y-13163055D02*
X11346991Y-13144008D01*
X11346991Y-13144008D02*
X11366039Y-13115436D01*
X11366039Y-13115436D02*
X11375563Y-13105912D01*
X11537468Y-13134484D02*
X11499372Y-13134484D01*
X11499372Y-13134484D02*
X11480325Y-13144008D01*
X11480325Y-13144008D02*
X11470801Y-13153531D01*
X11470801Y-13153531D02*
X11451753Y-13182103D01*
X11451753Y-13182103D02*
X11442229Y-13220198D01*
X11442229Y-13220198D02*
X11442229Y-13296388D01*
X11442229Y-13296388D02*
X11451753Y-13315436D01*
X11451753Y-13315436D02*
X11461277Y-13324960D01*
X11461277Y-13324960D02*
X11480325Y-13334484D01*
X11480325Y-13334484D02*
X11518420Y-13334484D01*
X11518420Y-13334484D02*
X11537468Y-13324960D01*
X11537468Y-13324960D02*
X11546991Y-13315436D01*
X11546991Y-13315436D02*
X11556515Y-13296388D01*
X11556515Y-13296388D02*
X11556515Y-13248769D01*
X11556515Y-13248769D02*
X11546991Y-13229722D01*
X11546991Y-13229722D02*
X11537468Y-13220198D01*
X11537468Y-13220198D02*
X11518420Y-13210674D01*
X11518420Y-13210674D02*
X11480325Y-13210674D01*
X11480325Y-13210674D02*
X11461277Y-13220198D01*
X11461277Y-13220198D02*
X11451753Y-13229722D01*
X11451753Y-13229722D02*
X11442229Y-13248769D01*
X11727944Y-13201150D02*
X11727944Y-13334484D01*
X11680325Y-13124960D02*
X11632706Y-13267817D01*
X11632706Y-13267817D02*
X11756515Y-13267817D01*
X11985087Y-13334484D02*
X11985087Y-13134484D01*
X12070801Y-13334484D02*
X12070801Y-13229722D01*
X12070801Y-13229722D02*
X12061277Y-13210674D01*
X12061277Y-13210674D02*
X12042230Y-13201150D01*
X12042230Y-13201150D02*
X12013658Y-13201150D01*
X12013658Y-13201150D02*
X11994610Y-13210674D01*
X11994610Y-13210674D02*
X11985087Y-13220198D01*
X12194610Y-13334484D02*
X12175563Y-13324960D01*
X12175563Y-13324960D02*
X12166039Y-13315436D01*
X12166039Y-13315436D02*
X12156515Y-13296388D01*
X12156515Y-13296388D02*
X12156515Y-13239246D01*
X12156515Y-13239246D02*
X12166039Y-13220198D01*
X12166039Y-13220198D02*
X12175563Y-13210674D01*
X12175563Y-13210674D02*
X12194610Y-13201150D01*
X12194610Y-13201150D02*
X12223182Y-13201150D01*
X12223182Y-13201150D02*
X12242230Y-13210674D01*
X12242230Y-13210674D02*
X12251753Y-13220198D01*
X12251753Y-13220198D02*
X12261277Y-13239246D01*
X12261277Y-13239246D02*
X12261277Y-13296388D01*
X12261277Y-13296388D02*
X12251753Y-13315436D01*
X12251753Y-13315436D02*
X12242230Y-13324960D01*
X12242230Y-13324960D02*
X12223182Y-13334484D01*
X12223182Y-13334484D02*
X12194610Y-13334484D01*
X12375563Y-13334484D02*
X12356515Y-13324960D01*
X12356515Y-13324960D02*
X12346991Y-13305912D01*
X12346991Y-13305912D02*
X12346991Y-13134484D01*
X12527944Y-13324960D02*
X12508896Y-13334484D01*
X12508896Y-13334484D02*
X12470801Y-13334484D01*
X12470801Y-13334484D02*
X12451753Y-13324960D01*
X12451753Y-13324960D02*
X12442230Y-13305912D01*
X12442230Y-13305912D02*
X12442230Y-13229722D01*
X12442230Y-13229722D02*
X12451753Y-13210674D01*
X12451753Y-13210674D02*
X12470801Y-13201150D01*
X12470801Y-13201150D02*
X12508896Y-13201150D01*
X12508896Y-13201150D02*
X12527944Y-13210674D01*
X12527944Y-13210674D02*
X12537468Y-13229722D01*
X12537468Y-13229722D02*
X12537468Y-13248769D01*
X12537468Y-13248769D02*
X12442230Y-13267817D01*
X12613658Y-13324960D02*
X12632706Y-13334484D01*
X12632706Y-13334484D02*
X12670801Y-13334484D01*
X12670801Y-13334484D02*
X12689849Y-13324960D01*
X12689849Y-13324960D02*
X12699372Y-13305912D01*
X12699372Y-13305912D02*
X12699372Y-13296388D01*
X12699372Y-13296388D02*
X12689849Y-13277341D01*
X12689849Y-13277341D02*
X12670801Y-13267817D01*
X12670801Y-13267817D02*
X12642230Y-13267817D01*
X12642230Y-13267817D02*
X12623182Y-13258293D01*
X12623182Y-13258293D02*
X12613658Y-13239246D01*
X12613658Y-13239246D02*
X12613658Y-13229722D01*
X12613658Y-13229722D02*
X12623182Y-13210674D01*
X12623182Y-13210674D02*
X12642230Y-13201150D01*
X12642230Y-13201150D02*
X12670801Y-13201150D01*
X12670801Y-13201150D02*
X12689849Y-13210674D01*
X12766039Y-13410674D02*
X12775563Y-13401150D01*
X12775563Y-13401150D02*
X12794611Y-13372579D01*
X12794611Y-13372579D02*
X12804134Y-13353531D01*
X12804134Y-13353531D02*
X12813658Y-13324960D01*
X12813658Y-13324960D02*
X12823182Y-13277341D01*
X12823182Y-13277341D02*
X12823182Y-13239246D01*
X12823182Y-13239246D02*
X12813658Y-13191627D01*
X12813658Y-13191627D02*
X12804134Y-13163055D01*
X12804134Y-13163055D02*
X12794611Y-13144008D01*
X12794611Y-13144008D02*
X12775563Y-13115436D01*
X12775563Y-13115436D02*
X12766039Y-13105912D01*
D11*
X7788784Y-13535284D02*
X7788784Y-13478715D01*
X7732215Y-13478715D01*
X7732215Y-13535284D01*
X7788784Y-13535284D01*
D10*
X8099372Y-13398484D02*
X8118420Y-13398484D01*
X8118420Y-13398484D02*
X8137467Y-13408008D01*
X8137467Y-13408008D02*
X8146991Y-13417531D01*
X8146991Y-13417531D02*
X8156515Y-13436579D01*
X8156515Y-13436579D02*
X8166039Y-13474674D01*
X8166039Y-13474674D02*
X8166039Y-13522293D01*
X8166039Y-13522293D02*
X8156515Y-13560388D01*
X8156515Y-13560388D02*
X8146991Y-13579436D01*
X8146991Y-13579436D02*
X8137467Y-13588960D01*
X8137467Y-13588960D02*
X8118420Y-13598484D01*
X8118420Y-13598484D02*
X8099372Y-13598484D01*
X8099372Y-13598484D02*
X8080324Y-13588960D01*
X8080324Y-13588960D02*
X8070801Y-13579436D01*
X8070801Y-13579436D02*
X8061277Y-13560388D01*
X8061277Y-13560388D02*
X8051753Y-13522293D01*
X8051753Y-13522293D02*
X8051753Y-13474674D01*
X8051753Y-13474674D02*
X8061277Y-13436579D01*
X8061277Y-13436579D02*
X8070801Y-13417531D01*
X8070801Y-13417531D02*
X8080324Y-13408008D01*
X8080324Y-13408008D02*
X8099372Y-13398484D01*
X8251753Y-13579436D02*
X8261277Y-13588960D01*
X8261277Y-13588960D02*
X8251753Y-13598484D01*
X8251753Y-13598484D02*
X8242229Y-13588960D01*
X8242229Y-13588960D02*
X8251753Y-13579436D01*
X8251753Y-13579436D02*
X8251753Y-13598484D01*
X8375562Y-13484198D02*
X8356515Y-13474674D01*
X8356515Y-13474674D02*
X8346991Y-13465150D01*
X8346991Y-13465150D02*
X8337467Y-13446103D01*
X8337467Y-13446103D02*
X8337467Y-13436579D01*
X8337467Y-13436579D02*
X8346991Y-13417531D01*
X8346991Y-13417531D02*
X8356515Y-13408008D01*
X8356515Y-13408008D02*
X8375562Y-13398484D01*
X8375562Y-13398484D02*
X8413658Y-13398484D01*
X8413658Y-13398484D02*
X8432705Y-13408008D01*
X8432705Y-13408008D02*
X8442229Y-13417531D01*
X8442229Y-13417531D02*
X8451753Y-13436579D01*
X8451753Y-13436579D02*
X8451753Y-13446103D01*
X8451753Y-13446103D02*
X8442229Y-13465150D01*
X8442229Y-13465150D02*
X8432705Y-13474674D01*
X8432705Y-13474674D02*
X8413658Y-13484198D01*
X8413658Y-13484198D02*
X8375562Y-13484198D01*
X8375562Y-13484198D02*
X8356515Y-13493722D01*
X8356515Y-13493722D02*
X8346991Y-13503246D01*
X8346991Y-13503246D02*
X8337467Y-13522293D01*
X8337467Y-13522293D02*
X8337467Y-13560388D01*
X8337467Y-13560388D02*
X8346991Y-13579436D01*
X8346991Y-13579436D02*
X8356515Y-13588960D01*
X8356515Y-13588960D02*
X8375562Y-13598484D01*
X8375562Y-13598484D02*
X8413658Y-13598484D01*
X8413658Y-13598484D02*
X8432705Y-13588960D01*
X8432705Y-13588960D02*
X8442229Y-13579436D01*
X8442229Y-13579436D02*
X8451753Y-13560388D01*
X8451753Y-13560388D02*
X8451753Y-13522293D01*
X8451753Y-13522293D02*
X8442229Y-13503246D01*
X8442229Y-13503246D02*
X8432705Y-13493722D01*
X8432705Y-13493722D02*
X8413658Y-13484198D01*
X8575563Y-13398484D02*
X8594610Y-13398484D01*
X8594610Y-13398484D02*
X8613658Y-13408008D01*
X8613658Y-13408008D02*
X8623182Y-13417531D01*
X8623182Y-13417531D02*
X8632705Y-13436579D01*
X8632705Y-13436579D02*
X8642229Y-13474674D01*
X8642229Y-13474674D02*
X8642229Y-13522293D01*
X8642229Y-13522293D02*
X8632705Y-13560388D01*
X8632705Y-13560388D02*
X8623182Y-13579436D01*
X8623182Y-13579436D02*
X8613658Y-13588960D01*
X8613658Y-13588960D02*
X8594610Y-13598484D01*
X8594610Y-13598484D02*
X8575563Y-13598484D01*
X8575563Y-13598484D02*
X8556515Y-13588960D01*
X8556515Y-13588960D02*
X8546991Y-13579436D01*
X8546991Y-13579436D02*
X8537467Y-13560388D01*
X8537467Y-13560388D02*
X8527944Y-13522293D01*
X8527944Y-13522293D02*
X8527944Y-13474674D01*
X8527944Y-13474674D02*
X8537467Y-13436579D01*
X8537467Y-13436579D02*
X8546991Y-13417531D01*
X8546991Y-13417531D02*
X8556515Y-13408008D01*
X8556515Y-13408008D02*
X8575563Y-13398484D01*
X8766039Y-13398484D02*
X8785086Y-13398484D01*
X8785086Y-13398484D02*
X8804134Y-13408008D01*
X8804134Y-13408008D02*
X8813658Y-13417531D01*
X8813658Y-13417531D02*
X8823182Y-13436579D01*
X8823182Y-13436579D02*
X8832705Y-13474674D01*
X8832705Y-13474674D02*
X8832705Y-13522293D01*
X8832705Y-13522293D02*
X8823182Y-13560388D01*
X8823182Y-13560388D02*
X8813658Y-13579436D01*
X8813658Y-13579436D02*
X8804134Y-13588960D01*
X8804134Y-13588960D02*
X8785086Y-13598484D01*
X8785086Y-13598484D02*
X8766039Y-13598484D01*
X8766039Y-13598484D02*
X8746991Y-13588960D01*
X8746991Y-13588960D02*
X8737467Y-13579436D01*
X8737467Y-13579436D02*
X8727944Y-13560388D01*
X8727944Y-13560388D02*
X8718420Y-13522293D01*
X8718420Y-13522293D02*
X8718420Y-13474674D01*
X8718420Y-13474674D02*
X8727944Y-13436579D01*
X8727944Y-13436579D02*
X8737467Y-13417531D01*
X8737467Y-13417531D02*
X8746991Y-13408008D01*
X8746991Y-13408008D02*
X8766039Y-13398484D01*
X8918420Y-13598484D02*
X8918420Y-13465150D01*
X8918420Y-13484198D02*
X8927944Y-13474674D01*
X8927944Y-13474674D02*
X8946991Y-13465150D01*
X8946991Y-13465150D02*
X8975563Y-13465150D01*
X8975563Y-13465150D02*
X8994610Y-13474674D01*
X8994610Y-13474674D02*
X9004134Y-13493722D01*
X9004134Y-13493722D02*
X9004134Y-13598484D01*
X9004134Y-13493722D02*
X9013658Y-13474674D01*
X9013658Y-13474674D02*
X9032705Y-13465150D01*
X9032705Y-13465150D02*
X9061277Y-13465150D01*
X9061277Y-13465150D02*
X9080325Y-13474674D01*
X9080325Y-13474674D02*
X9089848Y-13493722D01*
X9089848Y-13493722D02*
X9089848Y-13598484D01*
X9185086Y-13598484D02*
X9185086Y-13465150D01*
X9185086Y-13484198D02*
X9194610Y-13474674D01*
X9194610Y-13474674D02*
X9213658Y-13465150D01*
X9213658Y-13465150D02*
X9242229Y-13465150D01*
X9242229Y-13465150D02*
X9261277Y-13474674D01*
X9261277Y-13474674D02*
X9270801Y-13493722D01*
X9270801Y-13493722D02*
X9270801Y-13598484D01*
X9270801Y-13493722D02*
X9280325Y-13474674D01*
X9280325Y-13474674D02*
X9299372Y-13465150D01*
X9299372Y-13465150D02*
X9327944Y-13465150D01*
X9327944Y-13465150D02*
X9346991Y-13474674D01*
X9346991Y-13474674D02*
X9356515Y-13493722D01*
X9356515Y-13493722D02*
X9356515Y-13598484D01*
X9746991Y-13388960D02*
X9575563Y-13646103D01*
X10004134Y-13398484D02*
X10023182Y-13398484D01*
X10023182Y-13398484D02*
X10042229Y-13408008D01*
X10042229Y-13408008D02*
X10051753Y-13417531D01*
X10051753Y-13417531D02*
X10061277Y-13436579D01*
X10061277Y-13436579D02*
X10070801Y-13474674D01*
X10070801Y-13474674D02*
X10070801Y-13522293D01*
X10070801Y-13522293D02*
X10061277Y-13560388D01*
X10061277Y-13560388D02*
X10051753Y-13579436D01*
X10051753Y-13579436D02*
X10042229Y-13588960D01*
X10042229Y-13588960D02*
X10023182Y-13598484D01*
X10023182Y-13598484D02*
X10004134Y-13598484D01*
X10004134Y-13598484D02*
X9985087Y-13588960D01*
X9985087Y-13588960D02*
X9975563Y-13579436D01*
X9975563Y-13579436D02*
X9966039Y-13560388D01*
X9966039Y-13560388D02*
X9956515Y-13522293D01*
X9956515Y-13522293D02*
X9956515Y-13474674D01*
X9956515Y-13474674D02*
X9966039Y-13436579D01*
X9966039Y-13436579D02*
X9975563Y-13417531D01*
X9975563Y-13417531D02*
X9985087Y-13408008D01*
X9985087Y-13408008D02*
X10004134Y-13398484D01*
X10156515Y-13579436D02*
X10166039Y-13588960D01*
X10166039Y-13588960D02*
X10156515Y-13598484D01*
X10156515Y-13598484D02*
X10146991Y-13588960D01*
X10146991Y-13588960D02*
X10156515Y-13579436D01*
X10156515Y-13579436D02*
X10156515Y-13598484D01*
X10289848Y-13398484D02*
X10308896Y-13398484D01*
X10308896Y-13398484D02*
X10327944Y-13408008D01*
X10327944Y-13408008D02*
X10337468Y-13417531D01*
X10337468Y-13417531D02*
X10346991Y-13436579D01*
X10346991Y-13436579D02*
X10356515Y-13474674D01*
X10356515Y-13474674D02*
X10356515Y-13522293D01*
X10356515Y-13522293D02*
X10346991Y-13560388D01*
X10346991Y-13560388D02*
X10337468Y-13579436D01*
X10337468Y-13579436D02*
X10327944Y-13588960D01*
X10327944Y-13588960D02*
X10308896Y-13598484D01*
X10308896Y-13598484D02*
X10289848Y-13598484D01*
X10289848Y-13598484D02*
X10270801Y-13588960D01*
X10270801Y-13588960D02*
X10261277Y-13579436D01*
X10261277Y-13579436D02*
X10251753Y-13560388D01*
X10251753Y-13560388D02*
X10242229Y-13522293D01*
X10242229Y-13522293D02*
X10242229Y-13474674D01*
X10242229Y-13474674D02*
X10251753Y-13436579D01*
X10251753Y-13436579D02*
X10261277Y-13417531D01*
X10261277Y-13417531D02*
X10270801Y-13408008D01*
X10270801Y-13408008D02*
X10289848Y-13398484D01*
X10423182Y-13398484D02*
X10546991Y-13398484D01*
X10546991Y-13398484D02*
X10480325Y-13474674D01*
X10480325Y-13474674D02*
X10508896Y-13474674D01*
X10508896Y-13474674D02*
X10527944Y-13484198D01*
X10527944Y-13484198D02*
X10537468Y-13493722D01*
X10537468Y-13493722D02*
X10546991Y-13512769D01*
X10546991Y-13512769D02*
X10546991Y-13560388D01*
X10546991Y-13560388D02*
X10537468Y-13579436D01*
X10537468Y-13579436D02*
X10527944Y-13588960D01*
X10527944Y-13588960D02*
X10508896Y-13598484D01*
X10508896Y-13598484D02*
X10451753Y-13598484D01*
X10451753Y-13598484D02*
X10432706Y-13588960D01*
X10432706Y-13588960D02*
X10423182Y-13579436D01*
X10737468Y-13598484D02*
X10623182Y-13598484D01*
X10680325Y-13598484D02*
X10680325Y-13398484D01*
X10680325Y-13398484D02*
X10661277Y-13427055D01*
X10661277Y-13427055D02*
X10642229Y-13446103D01*
X10642229Y-13446103D02*
X10623182Y-13455627D01*
X10918420Y-13398484D02*
X10823182Y-13398484D01*
X10823182Y-13398484D02*
X10813658Y-13493722D01*
X10813658Y-13493722D02*
X10823182Y-13484198D01*
X10823182Y-13484198D02*
X10842229Y-13474674D01*
X10842229Y-13474674D02*
X10889849Y-13474674D01*
X10889849Y-13474674D02*
X10908896Y-13484198D01*
X10908896Y-13484198D02*
X10918420Y-13493722D01*
X10918420Y-13493722D02*
X10927944Y-13512769D01*
X10927944Y-13512769D02*
X10927944Y-13560388D01*
X10927944Y-13560388D02*
X10918420Y-13579436D01*
X10918420Y-13579436D02*
X10908896Y-13588960D01*
X10908896Y-13588960D02*
X10889849Y-13598484D01*
X10889849Y-13598484D02*
X10842229Y-13598484D01*
X10842229Y-13598484D02*
X10823182Y-13588960D01*
X10823182Y-13588960D02*
X10813658Y-13579436D01*
X11004134Y-13398484D02*
X11004134Y-13436579D01*
X11080325Y-13398484D02*
X11080325Y-13436579D01*
X11375563Y-13674674D02*
X11366039Y-13665150D01*
X11366039Y-13665150D02*
X11346991Y-13636579D01*
X11346991Y-13636579D02*
X11337468Y-13617531D01*
X11337468Y-13617531D02*
X11327944Y-13588960D01*
X11327944Y-13588960D02*
X11318420Y-13541341D01*
X11318420Y-13541341D02*
X11318420Y-13503246D01*
X11318420Y-13503246D02*
X11327944Y-13455627D01*
X11327944Y-13455627D02*
X11337468Y-13427055D01*
X11337468Y-13427055D02*
X11346991Y-13408008D01*
X11346991Y-13408008D02*
X11366039Y-13379436D01*
X11366039Y-13379436D02*
X11375563Y-13369912D01*
X11556515Y-13598484D02*
X11442229Y-13598484D01*
X11499372Y-13598484D02*
X11499372Y-13398484D01*
X11499372Y-13398484D02*
X11480325Y-13427055D01*
X11480325Y-13427055D02*
X11461277Y-13446103D01*
X11461277Y-13446103D02*
X11442229Y-13455627D01*
X11623182Y-13398484D02*
X11756515Y-13398484D01*
X11756515Y-13398484D02*
X11670801Y-13598484D01*
X11823182Y-13417531D02*
X11832706Y-13408008D01*
X11832706Y-13408008D02*
X11851753Y-13398484D01*
X11851753Y-13398484D02*
X11899372Y-13398484D01*
X11899372Y-13398484D02*
X11918420Y-13408008D01*
X11918420Y-13408008D02*
X11927944Y-13417531D01*
X11927944Y-13417531D02*
X11937468Y-13436579D01*
X11937468Y-13436579D02*
X11937468Y-13455627D01*
X11937468Y-13455627D02*
X11927944Y-13484198D01*
X11927944Y-13484198D02*
X11813658Y-13598484D01*
X11813658Y-13598484D02*
X11937468Y-13598484D01*
X12175563Y-13598484D02*
X12175563Y-13398484D01*
X12261277Y-13598484D02*
X12261277Y-13493722D01*
X12261277Y-13493722D02*
X12251753Y-13474674D01*
X12251753Y-13474674D02*
X12232706Y-13465150D01*
X12232706Y-13465150D02*
X12204134Y-13465150D01*
X12204134Y-13465150D02*
X12185087Y-13474674D01*
X12185087Y-13474674D02*
X12175563Y-13484198D01*
X12385087Y-13598484D02*
X12366039Y-13588960D01*
X12366039Y-13588960D02*
X12356515Y-13579436D01*
X12356515Y-13579436D02*
X12346991Y-13560388D01*
X12346991Y-13560388D02*
X12346991Y-13503246D01*
X12346991Y-13503246D02*
X12356515Y-13484198D01*
X12356515Y-13484198D02*
X12366039Y-13474674D01*
X12366039Y-13474674D02*
X12385087Y-13465150D01*
X12385087Y-13465150D02*
X12413658Y-13465150D01*
X12413658Y-13465150D02*
X12432706Y-13474674D01*
X12432706Y-13474674D02*
X12442230Y-13484198D01*
X12442230Y-13484198D02*
X12451753Y-13503246D01*
X12451753Y-13503246D02*
X12451753Y-13560388D01*
X12451753Y-13560388D02*
X12442230Y-13579436D01*
X12442230Y-13579436D02*
X12432706Y-13588960D01*
X12432706Y-13588960D02*
X12413658Y-13598484D01*
X12413658Y-13598484D02*
X12385087Y-13598484D01*
X12566039Y-13598484D02*
X12546991Y-13588960D01*
X12546991Y-13588960D02*
X12537468Y-13569912D01*
X12537468Y-13569912D02*
X12537468Y-13398484D01*
X12718420Y-13588960D02*
X12699372Y-13598484D01*
X12699372Y-13598484D02*
X12661277Y-13598484D01*
X12661277Y-13598484D02*
X12642230Y-13588960D01*
X12642230Y-13588960D02*
X12632706Y-13569912D01*
X12632706Y-13569912D02*
X12632706Y-13493722D01*
X12632706Y-13493722D02*
X12642230Y-13474674D01*
X12642230Y-13474674D02*
X12661277Y-13465150D01*
X12661277Y-13465150D02*
X12699372Y-13465150D01*
X12699372Y-13465150D02*
X12718420Y-13474674D01*
X12718420Y-13474674D02*
X12727944Y-13493722D01*
X12727944Y-13493722D02*
X12727944Y-13512769D01*
X12727944Y-13512769D02*
X12632706Y-13531817D01*
X12804134Y-13588960D02*
X12823182Y-13598484D01*
X12823182Y-13598484D02*
X12861277Y-13598484D01*
X12861277Y-13598484D02*
X12880325Y-13588960D01*
X12880325Y-13588960D02*
X12889849Y-13569912D01*
X12889849Y-13569912D02*
X12889849Y-13560388D01*
X12889849Y-13560388D02*
X12880325Y-13541341D01*
X12880325Y-13541341D02*
X12861277Y-13531817D01*
X12861277Y-13531817D02*
X12832706Y-13531817D01*
X12832706Y-13531817D02*
X12813658Y-13522293D01*
X12813658Y-13522293D02*
X12804134Y-13503246D01*
X12804134Y-13503246D02*
X12804134Y-13493722D01*
X12804134Y-13493722D02*
X12813658Y-13474674D01*
X12813658Y-13474674D02*
X12832706Y-13465150D01*
X12832706Y-13465150D02*
X12861277Y-13465150D01*
X12861277Y-13465150D02*
X12880325Y-13474674D01*
X12956515Y-13674674D02*
X12966039Y-13665150D01*
X12966039Y-13665150D02*
X12985087Y-13636579D01*
X12985087Y-13636579D02*
X12994611Y-13617531D01*
X12994611Y-13617531D02*
X13004134Y-13588960D01*
X13004134Y-13588960D02*
X13013658Y-13541341D01*
X13013658Y-13541341D02*
X13013658Y-13503246D01*
X13013658Y-13503246D02*
X13004134Y-13455627D01*
X13004134Y-13455627D02*
X12994611Y-13427055D01*
X12994611Y-13427055D02*
X12985087Y-13408008D01*
X12985087Y-13408008D02*
X12966039Y-13379436D01*
X12966039Y-13379436D02*
X12956515Y-13369912D01*
D11*
X7750500Y-13821000D02*
X7800500Y-13771000D01*
X7750500Y-13721000D01*
X7700500Y-13771000D01*
X7750500Y-13821000D01*
D10*
X8166039Y-13862484D02*
X8051753Y-13862484D01*
X8108896Y-13862484D02*
X8108896Y-13662484D01*
X8108896Y-13662484D02*
X8089848Y-13691055D01*
X8089848Y-13691055D02*
X8070801Y-13710103D01*
X8070801Y-13710103D02*
X8051753Y-13719627D01*
X8251753Y-13843436D02*
X8261277Y-13852960D01*
X8261277Y-13852960D02*
X8251753Y-13862484D01*
X8251753Y-13862484D02*
X8242229Y-13852960D01*
X8242229Y-13852960D02*
X8251753Y-13843436D01*
X8251753Y-13843436D02*
X8251753Y-13862484D01*
X8385086Y-13662484D02*
X8404134Y-13662484D01*
X8404134Y-13662484D02*
X8423182Y-13672008D01*
X8423182Y-13672008D02*
X8432705Y-13681531D01*
X8432705Y-13681531D02*
X8442229Y-13700579D01*
X8442229Y-13700579D02*
X8451753Y-13738674D01*
X8451753Y-13738674D02*
X8451753Y-13786293D01*
X8451753Y-13786293D02*
X8442229Y-13824388D01*
X8442229Y-13824388D02*
X8432705Y-13843436D01*
X8432705Y-13843436D02*
X8423182Y-13852960D01*
X8423182Y-13852960D02*
X8404134Y-13862484D01*
X8404134Y-13862484D02*
X8385086Y-13862484D01*
X8385086Y-13862484D02*
X8366039Y-13852960D01*
X8366039Y-13852960D02*
X8356515Y-13843436D01*
X8356515Y-13843436D02*
X8346991Y-13824388D01*
X8346991Y-13824388D02*
X8337467Y-13786293D01*
X8337467Y-13786293D02*
X8337467Y-13738674D01*
X8337467Y-13738674D02*
X8346991Y-13700579D01*
X8346991Y-13700579D02*
X8356515Y-13681531D01*
X8356515Y-13681531D02*
X8366039Y-13672008D01*
X8366039Y-13672008D02*
X8385086Y-13662484D01*
X8575563Y-13662484D02*
X8594610Y-13662484D01*
X8594610Y-13662484D02*
X8613658Y-13672008D01*
X8613658Y-13672008D02*
X8623182Y-13681531D01*
X8623182Y-13681531D02*
X8632705Y-13700579D01*
X8632705Y-13700579D02*
X8642229Y-13738674D01*
X8642229Y-13738674D02*
X8642229Y-13786293D01*
X8642229Y-13786293D02*
X8632705Y-13824388D01*
X8632705Y-13824388D02*
X8623182Y-13843436D01*
X8623182Y-13843436D02*
X8613658Y-13852960D01*
X8613658Y-13852960D02*
X8594610Y-13862484D01*
X8594610Y-13862484D02*
X8575563Y-13862484D01*
X8575563Y-13862484D02*
X8556515Y-13852960D01*
X8556515Y-13852960D02*
X8546991Y-13843436D01*
X8546991Y-13843436D02*
X8537467Y-13824388D01*
X8537467Y-13824388D02*
X8527944Y-13786293D01*
X8527944Y-13786293D02*
X8527944Y-13738674D01*
X8527944Y-13738674D02*
X8537467Y-13700579D01*
X8537467Y-13700579D02*
X8546991Y-13681531D01*
X8546991Y-13681531D02*
X8556515Y-13672008D01*
X8556515Y-13672008D02*
X8575563Y-13662484D01*
X8766039Y-13662484D02*
X8785086Y-13662484D01*
X8785086Y-13662484D02*
X8804134Y-13672008D01*
X8804134Y-13672008D02*
X8813658Y-13681531D01*
X8813658Y-13681531D02*
X8823182Y-13700579D01*
X8823182Y-13700579D02*
X8832705Y-13738674D01*
X8832705Y-13738674D02*
X8832705Y-13786293D01*
X8832705Y-13786293D02*
X8823182Y-13824388D01*
X8823182Y-13824388D02*
X8813658Y-13843436D01*
X8813658Y-13843436D02*
X8804134Y-13852960D01*
X8804134Y-13852960D02*
X8785086Y-13862484D01*
X8785086Y-13862484D02*
X8766039Y-13862484D01*
X8766039Y-13862484D02*
X8746991Y-13852960D01*
X8746991Y-13852960D02*
X8737467Y-13843436D01*
X8737467Y-13843436D02*
X8727944Y-13824388D01*
X8727944Y-13824388D02*
X8718420Y-13786293D01*
X8718420Y-13786293D02*
X8718420Y-13738674D01*
X8718420Y-13738674D02*
X8727944Y-13700579D01*
X8727944Y-13700579D02*
X8737467Y-13681531D01*
X8737467Y-13681531D02*
X8746991Y-13672008D01*
X8746991Y-13672008D02*
X8766039Y-13662484D01*
X8918420Y-13862484D02*
X8918420Y-13729150D01*
X8918420Y-13748198D02*
X8927944Y-13738674D01*
X8927944Y-13738674D02*
X8946991Y-13729150D01*
X8946991Y-13729150D02*
X8975563Y-13729150D01*
X8975563Y-13729150D02*
X8994610Y-13738674D01*
X8994610Y-13738674D02*
X9004134Y-13757722D01*
X9004134Y-13757722D02*
X9004134Y-13862484D01*
X9004134Y-13757722D02*
X9013658Y-13738674D01*
X9013658Y-13738674D02*
X9032705Y-13729150D01*
X9032705Y-13729150D02*
X9061277Y-13729150D01*
X9061277Y-13729150D02*
X9080325Y-13738674D01*
X9080325Y-13738674D02*
X9089848Y-13757722D01*
X9089848Y-13757722D02*
X9089848Y-13862484D01*
X9185086Y-13862484D02*
X9185086Y-13729150D01*
X9185086Y-13748198D02*
X9194610Y-13738674D01*
X9194610Y-13738674D02*
X9213658Y-13729150D01*
X9213658Y-13729150D02*
X9242229Y-13729150D01*
X9242229Y-13729150D02*
X9261277Y-13738674D01*
X9261277Y-13738674D02*
X9270801Y-13757722D01*
X9270801Y-13757722D02*
X9270801Y-13862484D01*
X9270801Y-13757722D02*
X9280325Y-13738674D01*
X9280325Y-13738674D02*
X9299372Y-13729150D01*
X9299372Y-13729150D02*
X9327944Y-13729150D01*
X9327944Y-13729150D02*
X9346991Y-13738674D01*
X9346991Y-13738674D02*
X9356515Y-13757722D01*
X9356515Y-13757722D02*
X9356515Y-13862484D01*
X9746991Y-13652960D02*
X9575563Y-13910103D01*
X10004134Y-13662484D02*
X10023182Y-13662484D01*
X10023182Y-13662484D02*
X10042229Y-13672008D01*
X10042229Y-13672008D02*
X10051753Y-13681531D01*
X10051753Y-13681531D02*
X10061277Y-13700579D01*
X10061277Y-13700579D02*
X10070801Y-13738674D01*
X10070801Y-13738674D02*
X10070801Y-13786293D01*
X10070801Y-13786293D02*
X10061277Y-13824388D01*
X10061277Y-13824388D02*
X10051753Y-13843436D01*
X10051753Y-13843436D02*
X10042229Y-13852960D01*
X10042229Y-13852960D02*
X10023182Y-13862484D01*
X10023182Y-13862484D02*
X10004134Y-13862484D01*
X10004134Y-13862484D02*
X9985087Y-13852960D01*
X9985087Y-13852960D02*
X9975563Y-13843436D01*
X9975563Y-13843436D02*
X9966039Y-13824388D01*
X9966039Y-13824388D02*
X9956515Y-13786293D01*
X9956515Y-13786293D02*
X9956515Y-13738674D01*
X9956515Y-13738674D02*
X9966039Y-13700579D01*
X9966039Y-13700579D02*
X9975563Y-13681531D01*
X9975563Y-13681531D02*
X9985087Y-13672008D01*
X9985087Y-13672008D02*
X10004134Y-13662484D01*
X10156515Y-13843436D02*
X10166039Y-13852960D01*
X10166039Y-13852960D02*
X10156515Y-13862484D01*
X10156515Y-13862484D02*
X10146991Y-13852960D01*
X10146991Y-13852960D02*
X10156515Y-13843436D01*
X10156515Y-13843436D02*
X10156515Y-13862484D01*
X10289848Y-13662484D02*
X10308896Y-13662484D01*
X10308896Y-13662484D02*
X10327944Y-13672008D01*
X10327944Y-13672008D02*
X10337468Y-13681531D01*
X10337468Y-13681531D02*
X10346991Y-13700579D01*
X10346991Y-13700579D02*
X10356515Y-13738674D01*
X10356515Y-13738674D02*
X10356515Y-13786293D01*
X10356515Y-13786293D02*
X10346991Y-13824388D01*
X10346991Y-13824388D02*
X10337468Y-13843436D01*
X10337468Y-13843436D02*
X10327944Y-13852960D01*
X10327944Y-13852960D02*
X10308896Y-13862484D01*
X10308896Y-13862484D02*
X10289848Y-13862484D01*
X10289848Y-13862484D02*
X10270801Y-13852960D01*
X10270801Y-13852960D02*
X10261277Y-13843436D01*
X10261277Y-13843436D02*
X10251753Y-13824388D01*
X10251753Y-13824388D02*
X10242229Y-13786293D01*
X10242229Y-13786293D02*
X10242229Y-13738674D01*
X10242229Y-13738674D02*
X10251753Y-13700579D01*
X10251753Y-13700579D02*
X10261277Y-13681531D01*
X10261277Y-13681531D02*
X10270801Y-13672008D01*
X10270801Y-13672008D02*
X10289848Y-13662484D01*
X10423182Y-13662484D02*
X10546991Y-13662484D01*
X10546991Y-13662484D02*
X10480325Y-13738674D01*
X10480325Y-13738674D02*
X10508896Y-13738674D01*
X10508896Y-13738674D02*
X10527944Y-13748198D01*
X10527944Y-13748198D02*
X10537468Y-13757722D01*
X10537468Y-13757722D02*
X10546991Y-13776769D01*
X10546991Y-13776769D02*
X10546991Y-13824388D01*
X10546991Y-13824388D02*
X10537468Y-13843436D01*
X10537468Y-13843436D02*
X10527944Y-13852960D01*
X10527944Y-13852960D02*
X10508896Y-13862484D01*
X10508896Y-13862484D02*
X10451753Y-13862484D01*
X10451753Y-13862484D02*
X10432706Y-13852960D01*
X10432706Y-13852960D02*
X10423182Y-13843436D01*
X10642229Y-13862484D02*
X10680325Y-13862484D01*
X10680325Y-13862484D02*
X10699372Y-13852960D01*
X10699372Y-13852960D02*
X10708896Y-13843436D01*
X10708896Y-13843436D02*
X10727944Y-13814865D01*
X10727944Y-13814865D02*
X10737468Y-13776769D01*
X10737468Y-13776769D02*
X10737468Y-13700579D01*
X10737468Y-13700579D02*
X10727944Y-13681531D01*
X10727944Y-13681531D02*
X10718420Y-13672008D01*
X10718420Y-13672008D02*
X10699372Y-13662484D01*
X10699372Y-13662484D02*
X10661277Y-13662484D01*
X10661277Y-13662484D02*
X10642229Y-13672008D01*
X10642229Y-13672008D02*
X10632706Y-13681531D01*
X10632706Y-13681531D02*
X10623182Y-13700579D01*
X10623182Y-13700579D02*
X10623182Y-13748198D01*
X10623182Y-13748198D02*
X10632706Y-13767246D01*
X10632706Y-13767246D02*
X10642229Y-13776769D01*
X10642229Y-13776769D02*
X10661277Y-13786293D01*
X10661277Y-13786293D02*
X10699372Y-13786293D01*
X10699372Y-13786293D02*
X10718420Y-13776769D01*
X10718420Y-13776769D02*
X10727944Y-13767246D01*
X10727944Y-13767246D02*
X10737468Y-13748198D01*
X10908896Y-13729150D02*
X10908896Y-13862484D01*
X10861277Y-13652960D02*
X10813658Y-13795817D01*
X10813658Y-13795817D02*
X10937468Y-13795817D01*
X11004134Y-13662484D02*
X11004134Y-13700579D01*
X11080325Y-13662484D02*
X11080325Y-13700579D01*
X11375563Y-13938674D02*
X11366039Y-13929150D01*
X11366039Y-13929150D02*
X11346991Y-13900579D01*
X11346991Y-13900579D02*
X11337468Y-13881531D01*
X11337468Y-13881531D02*
X11327944Y-13852960D01*
X11327944Y-13852960D02*
X11318420Y-13805341D01*
X11318420Y-13805341D02*
X11318420Y-13767246D01*
X11318420Y-13767246D02*
X11327944Y-13719627D01*
X11327944Y-13719627D02*
X11337468Y-13691055D01*
X11337468Y-13691055D02*
X11346991Y-13672008D01*
X11346991Y-13672008D02*
X11366039Y-13643436D01*
X11366039Y-13643436D02*
X11375563Y-13633912D01*
X11556515Y-13862484D02*
X11442229Y-13862484D01*
X11499372Y-13862484D02*
X11499372Y-13662484D01*
X11499372Y-13662484D02*
X11480325Y-13691055D01*
X11480325Y-13691055D02*
X11461277Y-13710103D01*
X11461277Y-13710103D02*
X11442229Y-13719627D01*
X11680325Y-13662484D02*
X11699372Y-13662484D01*
X11699372Y-13662484D02*
X11718420Y-13672008D01*
X11718420Y-13672008D02*
X11727944Y-13681531D01*
X11727944Y-13681531D02*
X11737468Y-13700579D01*
X11737468Y-13700579D02*
X11746991Y-13738674D01*
X11746991Y-13738674D02*
X11746991Y-13786293D01*
X11746991Y-13786293D02*
X11737468Y-13824388D01*
X11737468Y-13824388D02*
X11727944Y-13843436D01*
X11727944Y-13843436D02*
X11718420Y-13852960D01*
X11718420Y-13852960D02*
X11699372Y-13862484D01*
X11699372Y-13862484D02*
X11680325Y-13862484D01*
X11680325Y-13862484D02*
X11661277Y-13852960D01*
X11661277Y-13852960D02*
X11651753Y-13843436D01*
X11651753Y-13843436D02*
X11642229Y-13824388D01*
X11642229Y-13824388D02*
X11632706Y-13786293D01*
X11632706Y-13786293D02*
X11632706Y-13738674D01*
X11632706Y-13738674D02*
X11642229Y-13700579D01*
X11642229Y-13700579D02*
X11651753Y-13681531D01*
X11651753Y-13681531D02*
X11661277Y-13672008D01*
X11661277Y-13672008D02*
X11680325Y-13662484D01*
X11985087Y-13862484D02*
X11985087Y-13662484D01*
X12070801Y-13862484D02*
X12070801Y-13757722D01*
X12070801Y-13757722D02*
X12061277Y-13738674D01*
X12061277Y-13738674D02*
X12042230Y-13729150D01*
X12042230Y-13729150D02*
X12013658Y-13729150D01*
X12013658Y-13729150D02*
X11994610Y-13738674D01*
X11994610Y-13738674D02*
X11985087Y-13748198D01*
X12194610Y-13862484D02*
X12175563Y-13852960D01*
X12175563Y-13852960D02*
X12166039Y-13843436D01*
X12166039Y-13843436D02*
X12156515Y-13824388D01*
X12156515Y-13824388D02*
X12156515Y-13767246D01*
X12156515Y-13767246D02*
X12166039Y-13748198D01*
X12166039Y-13748198D02*
X12175563Y-13738674D01*
X12175563Y-13738674D02*
X12194610Y-13729150D01*
X12194610Y-13729150D02*
X12223182Y-13729150D01*
X12223182Y-13729150D02*
X12242230Y-13738674D01*
X12242230Y-13738674D02*
X12251753Y-13748198D01*
X12251753Y-13748198D02*
X12261277Y-13767246D01*
X12261277Y-13767246D02*
X12261277Y-13824388D01*
X12261277Y-13824388D02*
X12251753Y-13843436D01*
X12251753Y-13843436D02*
X12242230Y-13852960D01*
X12242230Y-13852960D02*
X12223182Y-13862484D01*
X12223182Y-13862484D02*
X12194610Y-13862484D01*
X12375563Y-13862484D02*
X12356515Y-13852960D01*
X12356515Y-13852960D02*
X12346991Y-13833912D01*
X12346991Y-13833912D02*
X12346991Y-13662484D01*
X12527944Y-13852960D02*
X12508896Y-13862484D01*
X12508896Y-13862484D02*
X12470801Y-13862484D01*
X12470801Y-13862484D02*
X12451753Y-13852960D01*
X12451753Y-13852960D02*
X12442230Y-13833912D01*
X12442230Y-13833912D02*
X12442230Y-13757722D01*
X12442230Y-13757722D02*
X12451753Y-13738674D01*
X12451753Y-13738674D02*
X12470801Y-13729150D01*
X12470801Y-13729150D02*
X12508896Y-13729150D01*
X12508896Y-13729150D02*
X12527944Y-13738674D01*
X12527944Y-13738674D02*
X12537468Y-13757722D01*
X12537468Y-13757722D02*
X12537468Y-13776769D01*
X12537468Y-13776769D02*
X12442230Y-13795817D01*
X12613658Y-13852960D02*
X12632706Y-13862484D01*
X12632706Y-13862484D02*
X12670801Y-13862484D01*
X12670801Y-13862484D02*
X12689849Y-13852960D01*
X12689849Y-13852960D02*
X12699372Y-13833912D01*
X12699372Y-13833912D02*
X12699372Y-13824388D01*
X12699372Y-13824388D02*
X12689849Y-13805341D01*
X12689849Y-13805341D02*
X12670801Y-13795817D01*
X12670801Y-13795817D02*
X12642230Y-13795817D01*
X12642230Y-13795817D02*
X12623182Y-13786293D01*
X12623182Y-13786293D02*
X12613658Y-13767246D01*
X12613658Y-13767246D02*
X12613658Y-13757722D01*
X12613658Y-13757722D02*
X12623182Y-13738674D01*
X12623182Y-13738674D02*
X12642230Y-13729150D01*
X12642230Y-13729150D02*
X12670801Y-13729150D01*
X12670801Y-13729150D02*
X12689849Y-13738674D01*
X12766039Y-13938674D02*
X12775563Y-13929150D01*
X12775563Y-13929150D02*
X12794611Y-13900579D01*
X12794611Y-13900579D02*
X12804134Y-13881531D01*
X12804134Y-13881531D02*
X12813658Y-13852960D01*
X12813658Y-13852960D02*
X12823182Y-13805341D01*
X12823182Y-13805341D02*
X12823182Y-13767246D01*
X12823182Y-13767246D02*
X12813658Y-13719627D01*
X12813658Y-13719627D02*
X12804134Y-13691055D01*
X12804134Y-13691055D02*
X12794611Y-13672008D01*
X12794611Y-13672008D02*
X12775563Y-13643436D01*
X12775563Y-13643436D02*
X12766039Y-13633912D01*
D11*
X7700500Y-13985000D02*
X7800500Y-14085000D01*
X7800500Y-13985000D02*
X7700500Y-14085000D01*
X7800500Y-14035000D02*
G75*
G02*
X7700500Y-14035000I-50000J0D01*
G01*
X7700500Y-14035000D02*
G75*
G02*
X7800500Y-14035000I50000J0D01*
G01*
D10*
X8166039Y-14126484D02*
X8051753Y-14126484D01*
X8108896Y-14126484D02*
X8108896Y-13926484D01*
X8108896Y-13926484D02*
X8089848Y-13955055D01*
X8089848Y-13955055D02*
X8070801Y-13974103D01*
X8070801Y-13974103D02*
X8051753Y-13983627D01*
X8251753Y-14107436D02*
X8261277Y-14116960D01*
X8261277Y-14116960D02*
X8251753Y-14126484D01*
X8251753Y-14126484D02*
X8242229Y-14116960D01*
X8242229Y-14116960D02*
X8251753Y-14107436D01*
X8251753Y-14107436D02*
X8251753Y-14126484D01*
X8385086Y-13926484D02*
X8404134Y-13926484D01*
X8404134Y-13926484D02*
X8423182Y-13936008D01*
X8423182Y-13936008D02*
X8432705Y-13945531D01*
X8432705Y-13945531D02*
X8442229Y-13964579D01*
X8442229Y-13964579D02*
X8451753Y-14002674D01*
X8451753Y-14002674D02*
X8451753Y-14050293D01*
X8451753Y-14050293D02*
X8442229Y-14088388D01*
X8442229Y-14088388D02*
X8432705Y-14107436D01*
X8432705Y-14107436D02*
X8423182Y-14116960D01*
X8423182Y-14116960D02*
X8404134Y-14126484D01*
X8404134Y-14126484D02*
X8385086Y-14126484D01*
X8385086Y-14126484D02*
X8366039Y-14116960D01*
X8366039Y-14116960D02*
X8356515Y-14107436D01*
X8356515Y-14107436D02*
X8346991Y-14088388D01*
X8346991Y-14088388D02*
X8337467Y-14050293D01*
X8337467Y-14050293D02*
X8337467Y-14002674D01*
X8337467Y-14002674D02*
X8346991Y-13964579D01*
X8346991Y-13964579D02*
X8356515Y-13945531D01*
X8356515Y-13945531D02*
X8366039Y-13936008D01*
X8366039Y-13936008D02*
X8385086Y-13926484D01*
X8575563Y-13926484D02*
X8594610Y-13926484D01*
X8594610Y-13926484D02*
X8613658Y-13936008D01*
X8613658Y-13936008D02*
X8623182Y-13945531D01*
X8623182Y-13945531D02*
X8632705Y-13964579D01*
X8632705Y-13964579D02*
X8642229Y-14002674D01*
X8642229Y-14002674D02*
X8642229Y-14050293D01*
X8642229Y-14050293D02*
X8632705Y-14088388D01*
X8632705Y-14088388D02*
X8623182Y-14107436D01*
X8623182Y-14107436D02*
X8613658Y-14116960D01*
X8613658Y-14116960D02*
X8594610Y-14126484D01*
X8594610Y-14126484D02*
X8575563Y-14126484D01*
X8575563Y-14126484D02*
X8556515Y-14116960D01*
X8556515Y-14116960D02*
X8546991Y-14107436D01*
X8546991Y-14107436D02*
X8537467Y-14088388D01*
X8537467Y-14088388D02*
X8527944Y-14050293D01*
X8527944Y-14050293D02*
X8527944Y-14002674D01*
X8527944Y-14002674D02*
X8537467Y-13964579D01*
X8537467Y-13964579D02*
X8546991Y-13945531D01*
X8546991Y-13945531D02*
X8556515Y-13936008D01*
X8556515Y-13936008D02*
X8575563Y-13926484D01*
X8766039Y-13926484D02*
X8785086Y-13926484D01*
X8785086Y-13926484D02*
X8804134Y-13936008D01*
X8804134Y-13936008D02*
X8813658Y-13945531D01*
X8813658Y-13945531D02*
X8823182Y-13964579D01*
X8823182Y-13964579D02*
X8832705Y-14002674D01*
X8832705Y-14002674D02*
X8832705Y-14050293D01*
X8832705Y-14050293D02*
X8823182Y-14088388D01*
X8823182Y-14088388D02*
X8813658Y-14107436D01*
X8813658Y-14107436D02*
X8804134Y-14116960D01*
X8804134Y-14116960D02*
X8785086Y-14126484D01*
X8785086Y-14126484D02*
X8766039Y-14126484D01*
X8766039Y-14126484D02*
X8746991Y-14116960D01*
X8746991Y-14116960D02*
X8737467Y-14107436D01*
X8737467Y-14107436D02*
X8727944Y-14088388D01*
X8727944Y-14088388D02*
X8718420Y-14050293D01*
X8718420Y-14050293D02*
X8718420Y-14002674D01*
X8718420Y-14002674D02*
X8727944Y-13964579D01*
X8727944Y-13964579D02*
X8737467Y-13945531D01*
X8737467Y-13945531D02*
X8746991Y-13936008D01*
X8746991Y-13936008D02*
X8766039Y-13926484D01*
X8918420Y-14126484D02*
X8918420Y-13993150D01*
X8918420Y-14012198D02*
X8927944Y-14002674D01*
X8927944Y-14002674D02*
X8946991Y-13993150D01*
X8946991Y-13993150D02*
X8975563Y-13993150D01*
X8975563Y-13993150D02*
X8994610Y-14002674D01*
X8994610Y-14002674D02*
X9004134Y-14021722D01*
X9004134Y-14021722D02*
X9004134Y-14126484D01*
X9004134Y-14021722D02*
X9013658Y-14002674D01*
X9013658Y-14002674D02*
X9032705Y-13993150D01*
X9032705Y-13993150D02*
X9061277Y-13993150D01*
X9061277Y-13993150D02*
X9080325Y-14002674D01*
X9080325Y-14002674D02*
X9089848Y-14021722D01*
X9089848Y-14021722D02*
X9089848Y-14126484D01*
X9185086Y-14126484D02*
X9185086Y-13993150D01*
X9185086Y-14012198D02*
X9194610Y-14002674D01*
X9194610Y-14002674D02*
X9213658Y-13993150D01*
X9213658Y-13993150D02*
X9242229Y-13993150D01*
X9242229Y-13993150D02*
X9261277Y-14002674D01*
X9261277Y-14002674D02*
X9270801Y-14021722D01*
X9270801Y-14021722D02*
X9270801Y-14126484D01*
X9270801Y-14021722D02*
X9280325Y-14002674D01*
X9280325Y-14002674D02*
X9299372Y-13993150D01*
X9299372Y-13993150D02*
X9327944Y-13993150D01*
X9327944Y-13993150D02*
X9346991Y-14002674D01*
X9346991Y-14002674D02*
X9356515Y-14021722D01*
X9356515Y-14021722D02*
X9356515Y-14126484D01*
X9746991Y-13916960D02*
X9575563Y-14174103D01*
X10004134Y-13926484D02*
X10023182Y-13926484D01*
X10023182Y-13926484D02*
X10042229Y-13936008D01*
X10042229Y-13936008D02*
X10051753Y-13945531D01*
X10051753Y-13945531D02*
X10061277Y-13964579D01*
X10061277Y-13964579D02*
X10070801Y-14002674D01*
X10070801Y-14002674D02*
X10070801Y-14050293D01*
X10070801Y-14050293D02*
X10061277Y-14088388D01*
X10061277Y-14088388D02*
X10051753Y-14107436D01*
X10051753Y-14107436D02*
X10042229Y-14116960D01*
X10042229Y-14116960D02*
X10023182Y-14126484D01*
X10023182Y-14126484D02*
X10004134Y-14126484D01*
X10004134Y-14126484D02*
X9985087Y-14116960D01*
X9985087Y-14116960D02*
X9975563Y-14107436D01*
X9975563Y-14107436D02*
X9966039Y-14088388D01*
X9966039Y-14088388D02*
X9956515Y-14050293D01*
X9956515Y-14050293D02*
X9956515Y-14002674D01*
X9956515Y-14002674D02*
X9966039Y-13964579D01*
X9966039Y-13964579D02*
X9975563Y-13945531D01*
X9975563Y-13945531D02*
X9985087Y-13936008D01*
X9985087Y-13936008D02*
X10004134Y-13926484D01*
X10156515Y-14107436D02*
X10166039Y-14116960D01*
X10166039Y-14116960D02*
X10156515Y-14126484D01*
X10156515Y-14126484D02*
X10146991Y-14116960D01*
X10146991Y-14116960D02*
X10156515Y-14107436D01*
X10156515Y-14107436D02*
X10156515Y-14126484D01*
X10289848Y-13926484D02*
X10308896Y-13926484D01*
X10308896Y-13926484D02*
X10327944Y-13936008D01*
X10327944Y-13936008D02*
X10337468Y-13945531D01*
X10337468Y-13945531D02*
X10346991Y-13964579D01*
X10346991Y-13964579D02*
X10356515Y-14002674D01*
X10356515Y-14002674D02*
X10356515Y-14050293D01*
X10356515Y-14050293D02*
X10346991Y-14088388D01*
X10346991Y-14088388D02*
X10337468Y-14107436D01*
X10337468Y-14107436D02*
X10327944Y-14116960D01*
X10327944Y-14116960D02*
X10308896Y-14126484D01*
X10308896Y-14126484D02*
X10289848Y-14126484D01*
X10289848Y-14126484D02*
X10270801Y-14116960D01*
X10270801Y-14116960D02*
X10261277Y-14107436D01*
X10261277Y-14107436D02*
X10251753Y-14088388D01*
X10251753Y-14088388D02*
X10242229Y-14050293D01*
X10242229Y-14050293D02*
X10242229Y-14002674D01*
X10242229Y-14002674D02*
X10251753Y-13964579D01*
X10251753Y-13964579D02*
X10261277Y-13945531D01*
X10261277Y-13945531D02*
X10270801Y-13936008D01*
X10270801Y-13936008D02*
X10289848Y-13926484D01*
X10423182Y-13926484D02*
X10546991Y-13926484D01*
X10546991Y-13926484D02*
X10480325Y-14002674D01*
X10480325Y-14002674D02*
X10508896Y-14002674D01*
X10508896Y-14002674D02*
X10527944Y-14012198D01*
X10527944Y-14012198D02*
X10537468Y-14021722D01*
X10537468Y-14021722D02*
X10546991Y-14040769D01*
X10546991Y-14040769D02*
X10546991Y-14088388D01*
X10546991Y-14088388D02*
X10537468Y-14107436D01*
X10537468Y-14107436D02*
X10527944Y-14116960D01*
X10527944Y-14116960D02*
X10508896Y-14126484D01*
X10508896Y-14126484D02*
X10451753Y-14126484D01*
X10451753Y-14126484D02*
X10432706Y-14116960D01*
X10432706Y-14116960D02*
X10423182Y-14107436D01*
X10642229Y-14126484D02*
X10680325Y-14126484D01*
X10680325Y-14126484D02*
X10699372Y-14116960D01*
X10699372Y-14116960D02*
X10708896Y-14107436D01*
X10708896Y-14107436D02*
X10727944Y-14078865D01*
X10727944Y-14078865D02*
X10737468Y-14040769D01*
X10737468Y-14040769D02*
X10737468Y-13964579D01*
X10737468Y-13964579D02*
X10727944Y-13945531D01*
X10727944Y-13945531D02*
X10718420Y-13936008D01*
X10718420Y-13936008D02*
X10699372Y-13926484D01*
X10699372Y-13926484D02*
X10661277Y-13926484D01*
X10661277Y-13926484D02*
X10642229Y-13936008D01*
X10642229Y-13936008D02*
X10632706Y-13945531D01*
X10632706Y-13945531D02*
X10623182Y-13964579D01*
X10623182Y-13964579D02*
X10623182Y-14012198D01*
X10623182Y-14012198D02*
X10632706Y-14031246D01*
X10632706Y-14031246D02*
X10642229Y-14040769D01*
X10642229Y-14040769D02*
X10661277Y-14050293D01*
X10661277Y-14050293D02*
X10699372Y-14050293D01*
X10699372Y-14050293D02*
X10718420Y-14040769D01*
X10718420Y-14040769D02*
X10727944Y-14031246D01*
X10727944Y-14031246D02*
X10737468Y-14012198D01*
X10908896Y-13993150D02*
X10908896Y-14126484D01*
X10861277Y-13916960D02*
X10813658Y-14059817D01*
X10813658Y-14059817D02*
X10937468Y-14059817D01*
X11004134Y-13926484D02*
X11004134Y-13964579D01*
X11080325Y-13926484D02*
X11080325Y-13964579D01*
X11375563Y-14202674D02*
X11366039Y-14193150D01*
X11366039Y-14193150D02*
X11346991Y-14164579D01*
X11346991Y-14164579D02*
X11337468Y-14145531D01*
X11337468Y-14145531D02*
X11327944Y-14116960D01*
X11327944Y-14116960D02*
X11318420Y-14069341D01*
X11318420Y-14069341D02*
X11318420Y-14031246D01*
X11318420Y-14031246D02*
X11327944Y-13983627D01*
X11327944Y-13983627D02*
X11337468Y-13955055D01*
X11337468Y-13955055D02*
X11346991Y-13936008D01*
X11346991Y-13936008D02*
X11366039Y-13907436D01*
X11366039Y-13907436D02*
X11375563Y-13897912D01*
X11537468Y-13993150D02*
X11537468Y-14126484D01*
X11489848Y-13916960D02*
X11442229Y-14059817D01*
X11442229Y-14059817D02*
X11566039Y-14059817D01*
X11623182Y-13926484D02*
X11746991Y-13926484D01*
X11746991Y-13926484D02*
X11680325Y-14002674D01*
X11680325Y-14002674D02*
X11708896Y-14002674D01*
X11708896Y-14002674D02*
X11727944Y-14012198D01*
X11727944Y-14012198D02*
X11737468Y-14021722D01*
X11737468Y-14021722D02*
X11746991Y-14040769D01*
X11746991Y-14040769D02*
X11746991Y-14088388D01*
X11746991Y-14088388D02*
X11737468Y-14107436D01*
X11737468Y-14107436D02*
X11727944Y-14116960D01*
X11727944Y-14116960D02*
X11708896Y-14126484D01*
X11708896Y-14126484D02*
X11651753Y-14126484D01*
X11651753Y-14126484D02*
X11632706Y-14116960D01*
X11632706Y-14116960D02*
X11623182Y-14107436D01*
X11985087Y-14126484D02*
X11985087Y-13926484D01*
X12070801Y-14126484D02*
X12070801Y-14021722D01*
X12070801Y-14021722D02*
X12061277Y-14002674D01*
X12061277Y-14002674D02*
X12042230Y-13993150D01*
X12042230Y-13993150D02*
X12013658Y-13993150D01*
X12013658Y-13993150D02*
X11994610Y-14002674D01*
X11994610Y-14002674D02*
X11985087Y-14012198D01*
X12194610Y-14126484D02*
X12175563Y-14116960D01*
X12175563Y-14116960D02*
X12166039Y-14107436D01*
X12166039Y-14107436D02*
X12156515Y-14088388D01*
X12156515Y-14088388D02*
X12156515Y-14031246D01*
X12156515Y-14031246D02*
X12166039Y-14012198D01*
X12166039Y-14012198D02*
X12175563Y-14002674D01*
X12175563Y-14002674D02*
X12194610Y-13993150D01*
X12194610Y-13993150D02*
X12223182Y-13993150D01*
X12223182Y-13993150D02*
X12242230Y-14002674D01*
X12242230Y-14002674D02*
X12251753Y-14012198D01*
X12251753Y-14012198D02*
X12261277Y-14031246D01*
X12261277Y-14031246D02*
X12261277Y-14088388D01*
X12261277Y-14088388D02*
X12251753Y-14107436D01*
X12251753Y-14107436D02*
X12242230Y-14116960D01*
X12242230Y-14116960D02*
X12223182Y-14126484D01*
X12223182Y-14126484D02*
X12194610Y-14126484D01*
X12375563Y-14126484D02*
X12356515Y-14116960D01*
X12356515Y-14116960D02*
X12346991Y-14097912D01*
X12346991Y-14097912D02*
X12346991Y-13926484D01*
X12527944Y-14116960D02*
X12508896Y-14126484D01*
X12508896Y-14126484D02*
X12470801Y-14126484D01*
X12470801Y-14126484D02*
X12451753Y-14116960D01*
X12451753Y-14116960D02*
X12442230Y-14097912D01*
X12442230Y-14097912D02*
X12442230Y-14021722D01*
X12442230Y-14021722D02*
X12451753Y-14002674D01*
X12451753Y-14002674D02*
X12470801Y-13993150D01*
X12470801Y-13993150D02*
X12508896Y-13993150D01*
X12508896Y-13993150D02*
X12527944Y-14002674D01*
X12527944Y-14002674D02*
X12537468Y-14021722D01*
X12537468Y-14021722D02*
X12537468Y-14040769D01*
X12537468Y-14040769D02*
X12442230Y-14059817D01*
X12613658Y-14116960D02*
X12632706Y-14126484D01*
X12632706Y-14126484D02*
X12670801Y-14126484D01*
X12670801Y-14126484D02*
X12689849Y-14116960D01*
X12689849Y-14116960D02*
X12699372Y-14097912D01*
X12699372Y-14097912D02*
X12699372Y-14088388D01*
X12699372Y-14088388D02*
X12689849Y-14069341D01*
X12689849Y-14069341D02*
X12670801Y-14059817D01*
X12670801Y-14059817D02*
X12642230Y-14059817D01*
X12642230Y-14059817D02*
X12623182Y-14050293D01*
X12623182Y-14050293D02*
X12613658Y-14031246D01*
X12613658Y-14031246D02*
X12613658Y-14021722D01*
X12613658Y-14021722D02*
X12623182Y-14002674D01*
X12623182Y-14002674D02*
X12642230Y-13993150D01*
X12642230Y-13993150D02*
X12670801Y-13993150D01*
X12670801Y-13993150D02*
X12689849Y-14002674D01*
X12766039Y-14202674D02*
X12775563Y-14193150D01*
X12775563Y-14193150D02*
X12794611Y-14164579D01*
X12794611Y-14164579D02*
X12804134Y-14145531D01*
X12804134Y-14145531D02*
X12813658Y-14116960D01*
X12813658Y-14116960D02*
X12823182Y-14069341D01*
X12823182Y-14069341D02*
X12823182Y-14031246D01*
X12823182Y-14031246D02*
X12813658Y-13983627D01*
X12813658Y-13983627D02*
X12804134Y-13955055D01*
X12804134Y-13955055D02*
X12794611Y-13936008D01*
X12794611Y-13936008D02*
X12775563Y-13907436D01*
X12775563Y-13907436D02*
X12766039Y-13897912D01*
D12*
X7690500Y-14244000D02*
X7800500Y-14354000D01*
X7800500Y-14244000D02*
X7690500Y-14354000D01*
X7745500Y-14244000D02*
X7745500Y-14354000D01*
X7690500Y-14299000D02*
X7800500Y-14299000D01*
D10*
X8166039Y-14390484D02*
X8051753Y-14390484D01*
X8108896Y-14390484D02*
X8108896Y-14190484D01*
X8108896Y-14190484D02*
X8089848Y-14219055D01*
X8089848Y-14219055D02*
X8070801Y-14238103D01*
X8070801Y-14238103D02*
X8051753Y-14247627D01*
X8251753Y-14371436D02*
X8261277Y-14380960D01*
X8261277Y-14380960D02*
X8251753Y-14390484D01*
X8251753Y-14390484D02*
X8242229Y-14380960D01*
X8242229Y-14380960D02*
X8251753Y-14371436D01*
X8251753Y-14371436D02*
X8251753Y-14390484D01*
X8451753Y-14390484D02*
X8337467Y-14390484D01*
X8394610Y-14390484D02*
X8394610Y-14190484D01*
X8394610Y-14190484D02*
X8375562Y-14219055D01*
X8375562Y-14219055D02*
X8356515Y-14238103D01*
X8356515Y-14238103D02*
X8337467Y-14247627D01*
X8575563Y-14190484D02*
X8594610Y-14190484D01*
X8594610Y-14190484D02*
X8613658Y-14200008D01*
X8613658Y-14200008D02*
X8623182Y-14209531D01*
X8623182Y-14209531D02*
X8632705Y-14228579D01*
X8632705Y-14228579D02*
X8642229Y-14266674D01*
X8642229Y-14266674D02*
X8642229Y-14314293D01*
X8642229Y-14314293D02*
X8632705Y-14352388D01*
X8632705Y-14352388D02*
X8623182Y-14371436D01*
X8623182Y-14371436D02*
X8613658Y-14380960D01*
X8613658Y-14380960D02*
X8594610Y-14390484D01*
X8594610Y-14390484D02*
X8575563Y-14390484D01*
X8575563Y-14390484D02*
X8556515Y-14380960D01*
X8556515Y-14380960D02*
X8546991Y-14371436D01*
X8546991Y-14371436D02*
X8537467Y-14352388D01*
X8537467Y-14352388D02*
X8527944Y-14314293D01*
X8527944Y-14314293D02*
X8527944Y-14266674D01*
X8527944Y-14266674D02*
X8537467Y-14228579D01*
X8537467Y-14228579D02*
X8546991Y-14209531D01*
X8546991Y-14209531D02*
X8556515Y-14200008D01*
X8556515Y-14200008D02*
X8575563Y-14190484D01*
X8766039Y-14190484D02*
X8785086Y-14190484D01*
X8785086Y-14190484D02*
X8804134Y-14200008D01*
X8804134Y-14200008D02*
X8813658Y-14209531D01*
X8813658Y-14209531D02*
X8823182Y-14228579D01*
X8823182Y-14228579D02*
X8832705Y-14266674D01*
X8832705Y-14266674D02*
X8832705Y-14314293D01*
X8832705Y-14314293D02*
X8823182Y-14352388D01*
X8823182Y-14352388D02*
X8813658Y-14371436D01*
X8813658Y-14371436D02*
X8804134Y-14380960D01*
X8804134Y-14380960D02*
X8785086Y-14390484D01*
X8785086Y-14390484D02*
X8766039Y-14390484D01*
X8766039Y-14390484D02*
X8746991Y-14380960D01*
X8746991Y-14380960D02*
X8737467Y-14371436D01*
X8737467Y-14371436D02*
X8727944Y-14352388D01*
X8727944Y-14352388D02*
X8718420Y-14314293D01*
X8718420Y-14314293D02*
X8718420Y-14266674D01*
X8718420Y-14266674D02*
X8727944Y-14228579D01*
X8727944Y-14228579D02*
X8737467Y-14209531D01*
X8737467Y-14209531D02*
X8746991Y-14200008D01*
X8746991Y-14200008D02*
X8766039Y-14190484D01*
X8918420Y-14390484D02*
X8918420Y-14257150D01*
X8918420Y-14276198D02*
X8927944Y-14266674D01*
X8927944Y-14266674D02*
X8946991Y-14257150D01*
X8946991Y-14257150D02*
X8975563Y-14257150D01*
X8975563Y-14257150D02*
X8994610Y-14266674D01*
X8994610Y-14266674D02*
X9004134Y-14285722D01*
X9004134Y-14285722D02*
X9004134Y-14390484D01*
X9004134Y-14285722D02*
X9013658Y-14266674D01*
X9013658Y-14266674D02*
X9032705Y-14257150D01*
X9032705Y-14257150D02*
X9061277Y-14257150D01*
X9061277Y-14257150D02*
X9080325Y-14266674D01*
X9080325Y-14266674D02*
X9089848Y-14285722D01*
X9089848Y-14285722D02*
X9089848Y-14390484D01*
X9185086Y-14390484D02*
X9185086Y-14257150D01*
X9185086Y-14276198D02*
X9194610Y-14266674D01*
X9194610Y-14266674D02*
X9213658Y-14257150D01*
X9213658Y-14257150D02*
X9242229Y-14257150D01*
X9242229Y-14257150D02*
X9261277Y-14266674D01*
X9261277Y-14266674D02*
X9270801Y-14285722D01*
X9270801Y-14285722D02*
X9270801Y-14390484D01*
X9270801Y-14285722D02*
X9280325Y-14266674D01*
X9280325Y-14266674D02*
X9299372Y-14257150D01*
X9299372Y-14257150D02*
X9327944Y-14257150D01*
X9327944Y-14257150D02*
X9346991Y-14266674D01*
X9346991Y-14266674D02*
X9356515Y-14285722D01*
X9356515Y-14285722D02*
X9356515Y-14390484D01*
X9746991Y-14180960D02*
X9575563Y-14438103D01*
X10004134Y-14190484D02*
X10023182Y-14190484D01*
X10023182Y-14190484D02*
X10042229Y-14200008D01*
X10042229Y-14200008D02*
X10051753Y-14209531D01*
X10051753Y-14209531D02*
X10061277Y-14228579D01*
X10061277Y-14228579D02*
X10070801Y-14266674D01*
X10070801Y-14266674D02*
X10070801Y-14314293D01*
X10070801Y-14314293D02*
X10061277Y-14352388D01*
X10061277Y-14352388D02*
X10051753Y-14371436D01*
X10051753Y-14371436D02*
X10042229Y-14380960D01*
X10042229Y-14380960D02*
X10023182Y-14390484D01*
X10023182Y-14390484D02*
X10004134Y-14390484D01*
X10004134Y-14390484D02*
X9985087Y-14380960D01*
X9985087Y-14380960D02*
X9975563Y-14371436D01*
X9975563Y-14371436D02*
X9966039Y-14352388D01*
X9966039Y-14352388D02*
X9956515Y-14314293D01*
X9956515Y-14314293D02*
X9956515Y-14266674D01*
X9956515Y-14266674D02*
X9966039Y-14228579D01*
X9966039Y-14228579D02*
X9975563Y-14209531D01*
X9975563Y-14209531D02*
X9985087Y-14200008D01*
X9985087Y-14200008D02*
X10004134Y-14190484D01*
X10156515Y-14371436D02*
X10166039Y-14380960D01*
X10166039Y-14380960D02*
X10156515Y-14390484D01*
X10156515Y-14390484D02*
X10146991Y-14380960D01*
X10146991Y-14380960D02*
X10156515Y-14371436D01*
X10156515Y-14371436D02*
X10156515Y-14390484D01*
X10289848Y-14190484D02*
X10308896Y-14190484D01*
X10308896Y-14190484D02*
X10327944Y-14200008D01*
X10327944Y-14200008D02*
X10337468Y-14209531D01*
X10337468Y-14209531D02*
X10346991Y-14228579D01*
X10346991Y-14228579D02*
X10356515Y-14266674D01*
X10356515Y-14266674D02*
X10356515Y-14314293D01*
X10356515Y-14314293D02*
X10346991Y-14352388D01*
X10346991Y-14352388D02*
X10337468Y-14371436D01*
X10337468Y-14371436D02*
X10327944Y-14380960D01*
X10327944Y-14380960D02*
X10308896Y-14390484D01*
X10308896Y-14390484D02*
X10289848Y-14390484D01*
X10289848Y-14390484D02*
X10270801Y-14380960D01*
X10270801Y-14380960D02*
X10261277Y-14371436D01*
X10261277Y-14371436D02*
X10251753Y-14352388D01*
X10251753Y-14352388D02*
X10242229Y-14314293D01*
X10242229Y-14314293D02*
X10242229Y-14266674D01*
X10242229Y-14266674D02*
X10251753Y-14228579D01*
X10251753Y-14228579D02*
X10261277Y-14209531D01*
X10261277Y-14209531D02*
X10270801Y-14200008D01*
X10270801Y-14200008D02*
X10289848Y-14190484D01*
X10527944Y-14257150D02*
X10527944Y-14390484D01*
X10480325Y-14180960D02*
X10432706Y-14323817D01*
X10432706Y-14323817D02*
X10556515Y-14323817D01*
X10613658Y-14190484D02*
X10737468Y-14190484D01*
X10737468Y-14190484D02*
X10670801Y-14266674D01*
X10670801Y-14266674D02*
X10699372Y-14266674D01*
X10699372Y-14266674D02*
X10718420Y-14276198D01*
X10718420Y-14276198D02*
X10727944Y-14285722D01*
X10727944Y-14285722D02*
X10737468Y-14304769D01*
X10737468Y-14304769D02*
X10737468Y-14352388D01*
X10737468Y-14352388D02*
X10727944Y-14371436D01*
X10727944Y-14371436D02*
X10718420Y-14380960D01*
X10718420Y-14380960D02*
X10699372Y-14390484D01*
X10699372Y-14390484D02*
X10642229Y-14390484D01*
X10642229Y-14390484D02*
X10623182Y-14380960D01*
X10623182Y-14380960D02*
X10613658Y-14371436D01*
X10804134Y-14190484D02*
X10927944Y-14190484D01*
X10927944Y-14190484D02*
X10861277Y-14266674D01*
X10861277Y-14266674D02*
X10889849Y-14266674D01*
X10889849Y-14266674D02*
X10908896Y-14276198D01*
X10908896Y-14276198D02*
X10918420Y-14285722D01*
X10918420Y-14285722D02*
X10927944Y-14304769D01*
X10927944Y-14304769D02*
X10927944Y-14352388D01*
X10927944Y-14352388D02*
X10918420Y-14371436D01*
X10918420Y-14371436D02*
X10908896Y-14380960D01*
X10908896Y-14380960D02*
X10889849Y-14390484D01*
X10889849Y-14390484D02*
X10832706Y-14390484D01*
X10832706Y-14390484D02*
X10813658Y-14380960D01*
X10813658Y-14380960D02*
X10804134Y-14371436D01*
X11004134Y-14190484D02*
X11004134Y-14228579D01*
X11080325Y-14190484D02*
X11080325Y-14228579D01*
X11375563Y-14466674D02*
X11366039Y-14457150D01*
X11366039Y-14457150D02*
X11346991Y-14428579D01*
X11346991Y-14428579D02*
X11337468Y-14409531D01*
X11337468Y-14409531D02*
X11327944Y-14380960D01*
X11327944Y-14380960D02*
X11318420Y-14333341D01*
X11318420Y-14333341D02*
X11318420Y-14295246D01*
X11318420Y-14295246D02*
X11327944Y-14247627D01*
X11327944Y-14247627D02*
X11337468Y-14219055D01*
X11337468Y-14219055D02*
X11346991Y-14200008D01*
X11346991Y-14200008D02*
X11366039Y-14171436D01*
X11366039Y-14171436D02*
X11375563Y-14161912D01*
X11537468Y-14257150D02*
X11537468Y-14390484D01*
X11489848Y-14180960D02*
X11442229Y-14323817D01*
X11442229Y-14323817D02*
X11566039Y-14323817D01*
X11794610Y-14390484D02*
X11794610Y-14190484D01*
X11880325Y-14390484D02*
X11880325Y-14285722D01*
X11880325Y-14285722D02*
X11870801Y-14266674D01*
X11870801Y-14266674D02*
X11851753Y-14257150D01*
X11851753Y-14257150D02*
X11823182Y-14257150D01*
X11823182Y-14257150D02*
X11804134Y-14266674D01*
X11804134Y-14266674D02*
X11794610Y-14276198D01*
X12004134Y-14390484D02*
X11985087Y-14380960D01*
X11985087Y-14380960D02*
X11975563Y-14371436D01*
X11975563Y-14371436D02*
X11966039Y-14352388D01*
X11966039Y-14352388D02*
X11966039Y-14295246D01*
X11966039Y-14295246D02*
X11975563Y-14276198D01*
X11975563Y-14276198D02*
X11985087Y-14266674D01*
X11985087Y-14266674D02*
X12004134Y-14257150D01*
X12004134Y-14257150D02*
X12032706Y-14257150D01*
X12032706Y-14257150D02*
X12051753Y-14266674D01*
X12051753Y-14266674D02*
X12061277Y-14276198D01*
X12061277Y-14276198D02*
X12070801Y-14295246D01*
X12070801Y-14295246D02*
X12070801Y-14352388D01*
X12070801Y-14352388D02*
X12061277Y-14371436D01*
X12061277Y-14371436D02*
X12051753Y-14380960D01*
X12051753Y-14380960D02*
X12032706Y-14390484D01*
X12032706Y-14390484D02*
X12004134Y-14390484D01*
X12185087Y-14390484D02*
X12166039Y-14380960D01*
X12166039Y-14380960D02*
X12156515Y-14361912D01*
X12156515Y-14361912D02*
X12156515Y-14190484D01*
X12337468Y-14380960D02*
X12318420Y-14390484D01*
X12318420Y-14390484D02*
X12280325Y-14390484D01*
X12280325Y-14390484D02*
X12261277Y-14380960D01*
X12261277Y-14380960D02*
X12251753Y-14361912D01*
X12251753Y-14361912D02*
X12251753Y-14285722D01*
X12251753Y-14285722D02*
X12261277Y-14266674D01*
X12261277Y-14266674D02*
X12280325Y-14257150D01*
X12280325Y-14257150D02*
X12318420Y-14257150D01*
X12318420Y-14257150D02*
X12337468Y-14266674D01*
X12337468Y-14266674D02*
X12346991Y-14285722D01*
X12346991Y-14285722D02*
X12346991Y-14304769D01*
X12346991Y-14304769D02*
X12251753Y-14323817D01*
X12423182Y-14380960D02*
X12442230Y-14390484D01*
X12442230Y-14390484D02*
X12480325Y-14390484D01*
X12480325Y-14390484D02*
X12499372Y-14380960D01*
X12499372Y-14380960D02*
X12508896Y-14361912D01*
X12508896Y-14361912D02*
X12508896Y-14352388D01*
X12508896Y-14352388D02*
X12499372Y-14333341D01*
X12499372Y-14333341D02*
X12480325Y-14323817D01*
X12480325Y-14323817D02*
X12451753Y-14323817D01*
X12451753Y-14323817D02*
X12432706Y-14314293D01*
X12432706Y-14314293D02*
X12423182Y-14295246D01*
X12423182Y-14295246D02*
X12423182Y-14285722D01*
X12423182Y-14285722D02*
X12432706Y-14266674D01*
X12432706Y-14266674D02*
X12451753Y-14257150D01*
X12451753Y-14257150D02*
X12480325Y-14257150D01*
X12480325Y-14257150D02*
X12499372Y-14266674D01*
X12575563Y-14466674D02*
X12585087Y-14457150D01*
X12585087Y-14457150D02*
X12604134Y-14428579D01*
X12604134Y-14428579D02*
X12613658Y-14409531D01*
X12613658Y-14409531D02*
X12623182Y-14380960D01*
X12623182Y-14380960D02*
X12632706Y-14333341D01*
X12632706Y-14333341D02*
X12632706Y-14295246D01*
X12632706Y-14295246D02*
X12623182Y-14247627D01*
X12623182Y-14247627D02*
X12613658Y-14219055D01*
X12613658Y-14219055D02*
X12604134Y-14200008D01*
X12604134Y-14200008D02*
X12585087Y-14171436D01*
X12585087Y-14171436D02*
X12575563Y-14161912D01*
M02*
