%TF.GenerationSoftware,KiCad,Pcbnew,10.0.5*%
%TF.CreationDate,2026-08-07T17:16:46+02:00*%
%TF.ProjectId,motherboard,6d6f7468-6572-4626-9f61-72642e6b6963,rev?*%
%TF.SameCoordinates,Original*%
%TF.FileFunction,Drillmap*%
%TF.FilePolarity,Positive*%
%FSLAX45Y45*%
G04 Gerber Fmt 4.5, Leading zero omitted, Abs format (unit mm)*
G04 Created by KiCad (PCBNEW 10.0.5) date 2026-08-07 17:16:46*
%MOMM*%
%LPD*%
G01*
G04 APERTURE LIST*
%ADD10C,0.200000*%
%ADD11C,0.100000*%
%ADD12C,0.320000*%
G04 APERTURE END LIST*
D10*
X7810500Y-3067000D02*
G75*
G02*
X8210500Y-2667000I400000J0D01*
G01*
X7810500Y-11665000D02*
X7810500Y-3067000D01*
X8210500Y-2667000D02*
X21888500Y-2667000D01*
X8210500Y-12065000D02*
G75*
G02*
X7810500Y-11665000I0J400000D01*
G01*
X21888500Y-2667000D02*
G75*
G02*
X22288500Y-3067000I0J-400000D01*
G01*
X21888500Y-12065000D02*
X8210500Y-12065000D01*
X22288500Y-3067000D02*
X22288500Y-11665000D01*
X22288500Y-11665000D02*
G75*
G02*
X21888500Y-12065000I-400000J0D01*
G01*
D11*
X8292500Y-4846444D02*
X8357500Y-4911444D01*
X8357500Y-4846444D02*
X8292500Y-4911444D01*
X8292500Y-5424444D02*
X8357500Y-5489444D01*
X8357500Y-5424444D02*
X8292500Y-5489444D01*
D12*
X8262600Y-3784600D02*
G75*
G02*
X7942600Y-3784600I-160000J0D01*
G01*
X7942600Y-3784600D02*
G75*
G02*
X8262600Y-3784600I160000J0D01*
G01*
X8262600Y-11785600D02*
G75*
G02*
X7942600Y-11785600I-160000J0D01*
G01*
X7942600Y-11785600D02*
G75*
G02*
X8262600Y-11785600I160000J0D01*
G01*
X22169100Y-3784600D02*
G75*
G02*
X21849100Y-3784600I-160000J0D01*
G01*
X21849100Y-3784600D02*
G75*
G02*
X22169100Y-3784600I160000J0D01*
G01*
X22169100Y-11785600D02*
G75*
G02*
X21849100Y-11785600I-160000J0D01*
G01*
X21849100Y-11785600D02*
G75*
G02*
X22169100Y-11785600I160000J0D01*
G01*
D10*
X8061277Y-12386484D02*
X8061277Y-12186484D01*
X8061277Y-12186484D02*
X8108896Y-12186484D01*
X8108896Y-12186484D02*
X8137467Y-12196008D01*
X8137467Y-12196008D02*
X8156515Y-12215055D01*
X8156515Y-12215055D02*
X8166039Y-12234103D01*
X8166039Y-12234103D02*
X8175562Y-12272198D01*
X8175562Y-12272198D02*
X8175562Y-12300769D01*
X8175562Y-12300769D02*
X8166039Y-12338865D01*
X8166039Y-12338865D02*
X8156515Y-12357912D01*
X8156515Y-12357912D02*
X8137467Y-12376960D01*
X8137467Y-12376960D02*
X8108896Y-12386484D01*
X8108896Y-12386484D02*
X8061277Y-12386484D01*
X8261277Y-12386484D02*
X8261277Y-12253150D01*
X8261277Y-12291246D02*
X8270801Y-12272198D01*
X8270801Y-12272198D02*
X8280324Y-12262674D01*
X8280324Y-12262674D02*
X8299372Y-12253150D01*
X8299372Y-12253150D02*
X8318420Y-12253150D01*
X8385086Y-12386484D02*
X8385086Y-12253150D01*
X8385086Y-12186484D02*
X8375562Y-12196008D01*
X8375562Y-12196008D02*
X8385086Y-12205531D01*
X8385086Y-12205531D02*
X8394610Y-12196008D01*
X8394610Y-12196008D02*
X8385086Y-12186484D01*
X8385086Y-12186484D02*
X8385086Y-12205531D01*
X8508896Y-12386484D02*
X8489848Y-12376960D01*
X8489848Y-12376960D02*
X8480324Y-12357912D01*
X8480324Y-12357912D02*
X8480324Y-12186484D01*
X8613658Y-12386484D02*
X8594610Y-12376960D01*
X8594610Y-12376960D02*
X8585086Y-12357912D01*
X8585086Y-12357912D02*
X8585086Y-12186484D01*
X8842229Y-12386484D02*
X8842229Y-12186484D01*
X8842229Y-12186484D02*
X8908896Y-12329341D01*
X8908896Y-12329341D02*
X8975563Y-12186484D01*
X8975563Y-12186484D02*
X8975563Y-12386484D01*
X9156515Y-12386484D02*
X9156515Y-12281722D01*
X9156515Y-12281722D02*
X9146991Y-12262674D01*
X9146991Y-12262674D02*
X9127944Y-12253150D01*
X9127944Y-12253150D02*
X9089848Y-12253150D01*
X9089848Y-12253150D02*
X9070801Y-12262674D01*
X9156515Y-12376960D02*
X9137467Y-12386484D01*
X9137467Y-12386484D02*
X9089848Y-12386484D01*
X9089848Y-12386484D02*
X9070801Y-12376960D01*
X9070801Y-12376960D02*
X9061277Y-12357912D01*
X9061277Y-12357912D02*
X9061277Y-12338865D01*
X9061277Y-12338865D02*
X9070801Y-12319817D01*
X9070801Y-12319817D02*
X9089848Y-12310293D01*
X9089848Y-12310293D02*
X9137467Y-12310293D01*
X9137467Y-12310293D02*
X9156515Y-12300769D01*
X9251753Y-12253150D02*
X9251753Y-12453150D01*
X9251753Y-12262674D02*
X9270801Y-12253150D01*
X9270801Y-12253150D02*
X9308896Y-12253150D01*
X9308896Y-12253150D02*
X9327944Y-12262674D01*
X9327944Y-12262674D02*
X9337467Y-12272198D01*
X9337467Y-12272198D02*
X9346991Y-12291246D01*
X9346991Y-12291246D02*
X9346991Y-12348388D01*
X9346991Y-12348388D02*
X9337467Y-12367436D01*
X9337467Y-12367436D02*
X9327944Y-12376960D01*
X9327944Y-12376960D02*
X9308896Y-12386484D01*
X9308896Y-12386484D02*
X9270801Y-12386484D01*
X9270801Y-12386484D02*
X9251753Y-12376960D01*
X9432705Y-12367436D02*
X9442229Y-12376960D01*
X9442229Y-12376960D02*
X9432705Y-12386484D01*
X9432705Y-12386484D02*
X9423182Y-12376960D01*
X9423182Y-12376960D02*
X9432705Y-12367436D01*
X9432705Y-12367436D02*
X9432705Y-12386484D01*
X9432705Y-12262674D02*
X9442229Y-12272198D01*
X9442229Y-12272198D02*
X9432705Y-12281722D01*
X9432705Y-12281722D02*
X9423182Y-12272198D01*
X9423182Y-12272198D02*
X9432705Y-12262674D01*
X9432705Y-12262674D02*
X9432705Y-12281722D01*
D11*
X7735500Y-12682500D02*
X7800500Y-12747500D01*
X7800500Y-12682500D02*
X7735500Y-12747500D01*
D10*
X8099372Y-12606484D02*
X8118420Y-12606484D01*
X8118420Y-12606484D02*
X8137467Y-12616008D01*
X8137467Y-12616008D02*
X8146991Y-12625531D01*
X8146991Y-12625531D02*
X8156515Y-12644579D01*
X8156515Y-12644579D02*
X8166039Y-12682674D01*
X8166039Y-12682674D02*
X8166039Y-12730293D01*
X8166039Y-12730293D02*
X8156515Y-12768388D01*
X8156515Y-12768388D02*
X8146991Y-12787436D01*
X8146991Y-12787436D02*
X8137467Y-12796960D01*
X8137467Y-12796960D02*
X8118420Y-12806484D01*
X8118420Y-12806484D02*
X8099372Y-12806484D01*
X8099372Y-12806484D02*
X8080324Y-12796960D01*
X8080324Y-12796960D02*
X8070801Y-12787436D01*
X8070801Y-12787436D02*
X8061277Y-12768388D01*
X8061277Y-12768388D02*
X8051753Y-12730293D01*
X8051753Y-12730293D02*
X8051753Y-12682674D01*
X8051753Y-12682674D02*
X8061277Y-12644579D01*
X8061277Y-12644579D02*
X8070801Y-12625531D01*
X8070801Y-12625531D02*
X8080324Y-12616008D01*
X8080324Y-12616008D02*
X8099372Y-12606484D01*
X8251753Y-12787436D02*
X8261277Y-12796960D01*
X8261277Y-12796960D02*
X8251753Y-12806484D01*
X8251753Y-12806484D02*
X8242229Y-12796960D01*
X8242229Y-12796960D02*
X8251753Y-12787436D01*
X8251753Y-12787436D02*
X8251753Y-12806484D01*
X8432705Y-12606484D02*
X8394610Y-12606484D01*
X8394610Y-12606484D02*
X8375562Y-12616008D01*
X8375562Y-12616008D02*
X8366039Y-12625531D01*
X8366039Y-12625531D02*
X8346991Y-12654103D01*
X8346991Y-12654103D02*
X8337467Y-12692198D01*
X8337467Y-12692198D02*
X8337467Y-12768388D01*
X8337467Y-12768388D02*
X8346991Y-12787436D01*
X8346991Y-12787436D02*
X8356515Y-12796960D01*
X8356515Y-12796960D02*
X8375562Y-12806484D01*
X8375562Y-12806484D02*
X8413658Y-12806484D01*
X8413658Y-12806484D02*
X8432705Y-12796960D01*
X8432705Y-12796960D02*
X8442229Y-12787436D01*
X8442229Y-12787436D02*
X8451753Y-12768388D01*
X8451753Y-12768388D02*
X8451753Y-12720769D01*
X8451753Y-12720769D02*
X8442229Y-12701722D01*
X8442229Y-12701722D02*
X8432705Y-12692198D01*
X8432705Y-12692198D02*
X8413658Y-12682674D01*
X8413658Y-12682674D02*
X8375562Y-12682674D01*
X8375562Y-12682674D02*
X8356515Y-12692198D01*
X8356515Y-12692198D02*
X8346991Y-12701722D01*
X8346991Y-12701722D02*
X8337467Y-12720769D01*
X8632705Y-12606484D02*
X8537467Y-12606484D01*
X8537467Y-12606484D02*
X8527944Y-12701722D01*
X8527944Y-12701722D02*
X8537467Y-12692198D01*
X8537467Y-12692198D02*
X8556515Y-12682674D01*
X8556515Y-12682674D02*
X8604134Y-12682674D01*
X8604134Y-12682674D02*
X8623182Y-12692198D01*
X8623182Y-12692198D02*
X8632705Y-12701722D01*
X8632705Y-12701722D02*
X8642229Y-12720769D01*
X8642229Y-12720769D02*
X8642229Y-12768388D01*
X8642229Y-12768388D02*
X8632705Y-12787436D01*
X8632705Y-12787436D02*
X8623182Y-12796960D01*
X8623182Y-12796960D02*
X8604134Y-12806484D01*
X8604134Y-12806484D02*
X8556515Y-12806484D01*
X8556515Y-12806484D02*
X8537467Y-12796960D01*
X8537467Y-12796960D02*
X8527944Y-12787436D01*
X8766039Y-12606484D02*
X8785086Y-12606484D01*
X8785086Y-12606484D02*
X8804134Y-12616008D01*
X8804134Y-12616008D02*
X8813658Y-12625531D01*
X8813658Y-12625531D02*
X8823182Y-12644579D01*
X8823182Y-12644579D02*
X8832705Y-12682674D01*
X8832705Y-12682674D02*
X8832705Y-12730293D01*
X8832705Y-12730293D02*
X8823182Y-12768388D01*
X8823182Y-12768388D02*
X8813658Y-12787436D01*
X8813658Y-12787436D02*
X8804134Y-12796960D01*
X8804134Y-12796960D02*
X8785086Y-12806484D01*
X8785086Y-12806484D02*
X8766039Y-12806484D01*
X8766039Y-12806484D02*
X8746991Y-12796960D01*
X8746991Y-12796960D02*
X8737467Y-12787436D01*
X8737467Y-12787436D02*
X8727944Y-12768388D01*
X8727944Y-12768388D02*
X8718420Y-12730293D01*
X8718420Y-12730293D02*
X8718420Y-12682674D01*
X8718420Y-12682674D02*
X8727944Y-12644579D01*
X8727944Y-12644579D02*
X8737467Y-12625531D01*
X8737467Y-12625531D02*
X8746991Y-12616008D01*
X8746991Y-12616008D02*
X8766039Y-12606484D01*
X8918420Y-12806484D02*
X8918420Y-12673150D01*
X8918420Y-12692198D02*
X8927944Y-12682674D01*
X8927944Y-12682674D02*
X8946991Y-12673150D01*
X8946991Y-12673150D02*
X8975563Y-12673150D01*
X8975563Y-12673150D02*
X8994610Y-12682674D01*
X8994610Y-12682674D02*
X9004134Y-12701722D01*
X9004134Y-12701722D02*
X9004134Y-12806484D01*
X9004134Y-12701722D02*
X9013658Y-12682674D01*
X9013658Y-12682674D02*
X9032705Y-12673150D01*
X9032705Y-12673150D02*
X9061277Y-12673150D01*
X9061277Y-12673150D02*
X9080325Y-12682674D01*
X9080325Y-12682674D02*
X9089848Y-12701722D01*
X9089848Y-12701722D02*
X9089848Y-12806484D01*
X9185086Y-12806484D02*
X9185086Y-12673150D01*
X9185086Y-12692198D02*
X9194610Y-12682674D01*
X9194610Y-12682674D02*
X9213658Y-12673150D01*
X9213658Y-12673150D02*
X9242229Y-12673150D01*
X9242229Y-12673150D02*
X9261277Y-12682674D01*
X9261277Y-12682674D02*
X9270801Y-12701722D01*
X9270801Y-12701722D02*
X9270801Y-12806484D01*
X9270801Y-12701722D02*
X9280325Y-12682674D01*
X9280325Y-12682674D02*
X9299372Y-12673150D01*
X9299372Y-12673150D02*
X9327944Y-12673150D01*
X9327944Y-12673150D02*
X9346991Y-12682674D01*
X9346991Y-12682674D02*
X9356515Y-12701722D01*
X9356515Y-12701722D02*
X9356515Y-12806484D01*
X9746991Y-12596960D02*
X9575563Y-12854103D01*
X10004134Y-12606484D02*
X10023182Y-12606484D01*
X10023182Y-12606484D02*
X10042229Y-12616008D01*
X10042229Y-12616008D02*
X10051753Y-12625531D01*
X10051753Y-12625531D02*
X10061277Y-12644579D01*
X10061277Y-12644579D02*
X10070801Y-12682674D01*
X10070801Y-12682674D02*
X10070801Y-12730293D01*
X10070801Y-12730293D02*
X10061277Y-12768388D01*
X10061277Y-12768388D02*
X10051753Y-12787436D01*
X10051753Y-12787436D02*
X10042229Y-12796960D01*
X10042229Y-12796960D02*
X10023182Y-12806484D01*
X10023182Y-12806484D02*
X10004134Y-12806484D01*
X10004134Y-12806484D02*
X9985087Y-12796960D01*
X9985087Y-12796960D02*
X9975563Y-12787436D01*
X9975563Y-12787436D02*
X9966039Y-12768388D01*
X9966039Y-12768388D02*
X9956515Y-12730293D01*
X9956515Y-12730293D02*
X9956515Y-12682674D01*
X9956515Y-12682674D02*
X9966039Y-12644579D01*
X9966039Y-12644579D02*
X9975563Y-12625531D01*
X9975563Y-12625531D02*
X9985087Y-12616008D01*
X9985087Y-12616008D02*
X10004134Y-12606484D01*
X10156515Y-12787436D02*
X10166039Y-12796960D01*
X10166039Y-12796960D02*
X10156515Y-12806484D01*
X10156515Y-12806484D02*
X10146991Y-12796960D01*
X10146991Y-12796960D02*
X10156515Y-12787436D01*
X10156515Y-12787436D02*
X10156515Y-12806484D01*
X10289848Y-12606484D02*
X10308896Y-12606484D01*
X10308896Y-12606484D02*
X10327944Y-12616008D01*
X10327944Y-12616008D02*
X10337468Y-12625531D01*
X10337468Y-12625531D02*
X10346991Y-12644579D01*
X10346991Y-12644579D02*
X10356515Y-12682674D01*
X10356515Y-12682674D02*
X10356515Y-12730293D01*
X10356515Y-12730293D02*
X10346991Y-12768388D01*
X10346991Y-12768388D02*
X10337468Y-12787436D01*
X10337468Y-12787436D02*
X10327944Y-12796960D01*
X10327944Y-12796960D02*
X10308896Y-12806484D01*
X10308896Y-12806484D02*
X10289848Y-12806484D01*
X10289848Y-12806484D02*
X10270801Y-12796960D01*
X10270801Y-12796960D02*
X10261277Y-12787436D01*
X10261277Y-12787436D02*
X10251753Y-12768388D01*
X10251753Y-12768388D02*
X10242229Y-12730293D01*
X10242229Y-12730293D02*
X10242229Y-12682674D01*
X10242229Y-12682674D02*
X10251753Y-12644579D01*
X10251753Y-12644579D02*
X10261277Y-12625531D01*
X10261277Y-12625531D02*
X10270801Y-12616008D01*
X10270801Y-12616008D02*
X10289848Y-12606484D01*
X10432706Y-12625531D02*
X10442229Y-12616008D01*
X10442229Y-12616008D02*
X10461277Y-12606484D01*
X10461277Y-12606484D02*
X10508896Y-12606484D01*
X10508896Y-12606484D02*
X10527944Y-12616008D01*
X10527944Y-12616008D02*
X10537468Y-12625531D01*
X10537468Y-12625531D02*
X10546991Y-12644579D01*
X10546991Y-12644579D02*
X10546991Y-12663627D01*
X10546991Y-12663627D02*
X10537468Y-12692198D01*
X10537468Y-12692198D02*
X10423182Y-12806484D01*
X10423182Y-12806484D02*
X10546991Y-12806484D01*
X10727944Y-12606484D02*
X10632706Y-12606484D01*
X10632706Y-12606484D02*
X10623182Y-12701722D01*
X10623182Y-12701722D02*
X10632706Y-12692198D01*
X10632706Y-12692198D02*
X10651753Y-12682674D01*
X10651753Y-12682674D02*
X10699372Y-12682674D01*
X10699372Y-12682674D02*
X10718420Y-12692198D01*
X10718420Y-12692198D02*
X10727944Y-12701722D01*
X10727944Y-12701722D02*
X10737468Y-12720769D01*
X10737468Y-12720769D02*
X10737468Y-12768388D01*
X10737468Y-12768388D02*
X10727944Y-12787436D01*
X10727944Y-12787436D02*
X10718420Y-12796960D01*
X10718420Y-12796960D02*
X10699372Y-12806484D01*
X10699372Y-12806484D02*
X10651753Y-12806484D01*
X10651753Y-12806484D02*
X10632706Y-12796960D01*
X10632706Y-12796960D02*
X10623182Y-12787436D01*
X10908896Y-12606484D02*
X10870801Y-12606484D01*
X10870801Y-12606484D02*
X10851753Y-12616008D01*
X10851753Y-12616008D02*
X10842229Y-12625531D01*
X10842229Y-12625531D02*
X10823182Y-12654103D01*
X10823182Y-12654103D02*
X10813658Y-12692198D01*
X10813658Y-12692198D02*
X10813658Y-12768388D01*
X10813658Y-12768388D02*
X10823182Y-12787436D01*
X10823182Y-12787436D02*
X10832706Y-12796960D01*
X10832706Y-12796960D02*
X10851753Y-12806484D01*
X10851753Y-12806484D02*
X10889849Y-12806484D01*
X10889849Y-12806484D02*
X10908896Y-12796960D01*
X10908896Y-12796960D02*
X10918420Y-12787436D01*
X10918420Y-12787436D02*
X10927944Y-12768388D01*
X10927944Y-12768388D02*
X10927944Y-12720769D01*
X10927944Y-12720769D02*
X10918420Y-12701722D01*
X10918420Y-12701722D02*
X10908896Y-12692198D01*
X10908896Y-12692198D02*
X10889849Y-12682674D01*
X10889849Y-12682674D02*
X10851753Y-12682674D01*
X10851753Y-12682674D02*
X10832706Y-12692198D01*
X10832706Y-12692198D02*
X10823182Y-12701722D01*
X10823182Y-12701722D02*
X10813658Y-12720769D01*
X11004134Y-12606484D02*
X11004134Y-12644579D01*
X11080325Y-12606484D02*
X11080325Y-12644579D01*
X11375563Y-12882674D02*
X11366039Y-12873150D01*
X11366039Y-12873150D02*
X11346991Y-12844579D01*
X11346991Y-12844579D02*
X11337468Y-12825531D01*
X11337468Y-12825531D02*
X11327944Y-12796960D01*
X11327944Y-12796960D02*
X11318420Y-12749341D01*
X11318420Y-12749341D02*
X11318420Y-12711246D01*
X11318420Y-12711246D02*
X11327944Y-12663627D01*
X11327944Y-12663627D02*
X11337468Y-12635055D01*
X11337468Y-12635055D02*
X11346991Y-12616008D01*
X11346991Y-12616008D02*
X11366039Y-12587436D01*
X11366039Y-12587436D02*
X11375563Y-12577912D01*
X11442229Y-12625531D02*
X11451753Y-12616008D01*
X11451753Y-12616008D02*
X11470801Y-12606484D01*
X11470801Y-12606484D02*
X11518420Y-12606484D01*
X11518420Y-12606484D02*
X11537468Y-12616008D01*
X11537468Y-12616008D02*
X11546991Y-12625531D01*
X11546991Y-12625531D02*
X11556515Y-12644579D01*
X11556515Y-12644579D02*
X11556515Y-12663627D01*
X11556515Y-12663627D02*
X11546991Y-12692198D01*
X11546991Y-12692198D02*
X11432706Y-12806484D01*
X11432706Y-12806484D02*
X11556515Y-12806484D01*
X11794610Y-12806484D02*
X11794610Y-12606484D01*
X11880325Y-12806484D02*
X11880325Y-12701722D01*
X11880325Y-12701722D02*
X11870801Y-12682674D01*
X11870801Y-12682674D02*
X11851753Y-12673150D01*
X11851753Y-12673150D02*
X11823182Y-12673150D01*
X11823182Y-12673150D02*
X11804134Y-12682674D01*
X11804134Y-12682674D02*
X11794610Y-12692198D01*
X12004134Y-12806484D02*
X11985087Y-12796960D01*
X11985087Y-12796960D02*
X11975563Y-12787436D01*
X11975563Y-12787436D02*
X11966039Y-12768388D01*
X11966039Y-12768388D02*
X11966039Y-12711246D01*
X11966039Y-12711246D02*
X11975563Y-12692198D01*
X11975563Y-12692198D02*
X11985087Y-12682674D01*
X11985087Y-12682674D02*
X12004134Y-12673150D01*
X12004134Y-12673150D02*
X12032706Y-12673150D01*
X12032706Y-12673150D02*
X12051753Y-12682674D01*
X12051753Y-12682674D02*
X12061277Y-12692198D01*
X12061277Y-12692198D02*
X12070801Y-12711246D01*
X12070801Y-12711246D02*
X12070801Y-12768388D01*
X12070801Y-12768388D02*
X12061277Y-12787436D01*
X12061277Y-12787436D02*
X12051753Y-12796960D01*
X12051753Y-12796960D02*
X12032706Y-12806484D01*
X12032706Y-12806484D02*
X12004134Y-12806484D01*
X12185087Y-12806484D02*
X12166039Y-12796960D01*
X12166039Y-12796960D02*
X12156515Y-12777912D01*
X12156515Y-12777912D02*
X12156515Y-12606484D01*
X12337468Y-12796960D02*
X12318420Y-12806484D01*
X12318420Y-12806484D02*
X12280325Y-12806484D01*
X12280325Y-12806484D02*
X12261277Y-12796960D01*
X12261277Y-12796960D02*
X12251753Y-12777912D01*
X12251753Y-12777912D02*
X12251753Y-12701722D01*
X12251753Y-12701722D02*
X12261277Y-12682674D01*
X12261277Y-12682674D02*
X12280325Y-12673150D01*
X12280325Y-12673150D02*
X12318420Y-12673150D01*
X12318420Y-12673150D02*
X12337468Y-12682674D01*
X12337468Y-12682674D02*
X12346991Y-12701722D01*
X12346991Y-12701722D02*
X12346991Y-12720769D01*
X12346991Y-12720769D02*
X12251753Y-12739817D01*
X12423182Y-12796960D02*
X12442230Y-12806484D01*
X12442230Y-12806484D02*
X12480325Y-12806484D01*
X12480325Y-12806484D02*
X12499372Y-12796960D01*
X12499372Y-12796960D02*
X12508896Y-12777912D01*
X12508896Y-12777912D02*
X12508896Y-12768388D01*
X12508896Y-12768388D02*
X12499372Y-12749341D01*
X12499372Y-12749341D02*
X12480325Y-12739817D01*
X12480325Y-12739817D02*
X12451753Y-12739817D01*
X12451753Y-12739817D02*
X12432706Y-12730293D01*
X12432706Y-12730293D02*
X12423182Y-12711246D01*
X12423182Y-12711246D02*
X12423182Y-12701722D01*
X12423182Y-12701722D02*
X12432706Y-12682674D01*
X12432706Y-12682674D02*
X12451753Y-12673150D01*
X12451753Y-12673150D02*
X12480325Y-12673150D01*
X12480325Y-12673150D02*
X12499372Y-12682674D01*
X12575563Y-12882674D02*
X12585087Y-12873150D01*
X12585087Y-12873150D02*
X12604134Y-12844579D01*
X12604134Y-12844579D02*
X12613658Y-12825531D01*
X12613658Y-12825531D02*
X12623182Y-12796960D01*
X12623182Y-12796960D02*
X12632706Y-12749341D01*
X12632706Y-12749341D02*
X12632706Y-12711246D01*
X12632706Y-12711246D02*
X12623182Y-12663627D01*
X12623182Y-12663627D02*
X12613658Y-12635055D01*
X12613658Y-12635055D02*
X12604134Y-12616008D01*
X12604134Y-12616008D02*
X12585087Y-12587436D01*
X12585087Y-12587436D02*
X12575563Y-12577912D01*
X12937468Y-12882674D02*
X12927944Y-12873150D01*
X12927944Y-12873150D02*
X12908896Y-12844579D01*
X12908896Y-12844579D02*
X12899372Y-12825531D01*
X12899372Y-12825531D02*
X12889849Y-12796960D01*
X12889849Y-12796960D02*
X12880325Y-12749341D01*
X12880325Y-12749341D02*
X12880325Y-12711246D01*
X12880325Y-12711246D02*
X12889849Y-12663627D01*
X12889849Y-12663627D02*
X12899372Y-12635055D01*
X12899372Y-12635055D02*
X12908896Y-12616008D01*
X12908896Y-12616008D02*
X12927944Y-12587436D01*
X12927944Y-12587436D02*
X12937468Y-12577912D01*
X13013658Y-12673150D02*
X13013658Y-12806484D01*
X13013658Y-12692198D02*
X13023182Y-12682674D01*
X13023182Y-12682674D02*
X13042230Y-12673150D01*
X13042230Y-12673150D02*
X13070801Y-12673150D01*
X13070801Y-12673150D02*
X13089849Y-12682674D01*
X13089849Y-12682674D02*
X13099372Y-12701722D01*
X13099372Y-12701722D02*
X13099372Y-12806484D01*
X13223182Y-12806484D02*
X13204134Y-12796960D01*
X13204134Y-12796960D02*
X13194611Y-12787436D01*
X13194611Y-12787436D02*
X13185087Y-12768388D01*
X13185087Y-12768388D02*
X13185087Y-12711246D01*
X13185087Y-12711246D02*
X13194611Y-12692198D01*
X13194611Y-12692198D02*
X13204134Y-12682674D01*
X13204134Y-12682674D02*
X13223182Y-12673150D01*
X13223182Y-12673150D02*
X13251753Y-12673150D01*
X13251753Y-12673150D02*
X13270801Y-12682674D01*
X13270801Y-12682674D02*
X13280325Y-12692198D01*
X13280325Y-12692198D02*
X13289849Y-12711246D01*
X13289849Y-12711246D02*
X13289849Y-12768388D01*
X13289849Y-12768388D02*
X13280325Y-12787436D01*
X13280325Y-12787436D02*
X13270801Y-12796960D01*
X13270801Y-12796960D02*
X13251753Y-12806484D01*
X13251753Y-12806484D02*
X13223182Y-12806484D01*
X13346992Y-12673150D02*
X13423182Y-12673150D01*
X13375563Y-12606484D02*
X13375563Y-12777912D01*
X13375563Y-12777912D02*
X13385087Y-12796960D01*
X13385087Y-12796960D02*
X13404134Y-12806484D01*
X13404134Y-12806484D02*
X13423182Y-12806484D01*
X13642230Y-12673150D02*
X13642230Y-12873150D01*
X13642230Y-12682674D02*
X13661277Y-12673150D01*
X13661277Y-12673150D02*
X13699373Y-12673150D01*
X13699373Y-12673150D02*
X13718420Y-12682674D01*
X13718420Y-12682674D02*
X13727944Y-12692198D01*
X13727944Y-12692198D02*
X13737468Y-12711246D01*
X13737468Y-12711246D02*
X13737468Y-12768388D01*
X13737468Y-12768388D02*
X13727944Y-12787436D01*
X13727944Y-12787436D02*
X13718420Y-12796960D01*
X13718420Y-12796960D02*
X13699373Y-12806484D01*
X13699373Y-12806484D02*
X13661277Y-12806484D01*
X13661277Y-12806484D02*
X13642230Y-12796960D01*
X13851753Y-12806484D02*
X13832706Y-12796960D01*
X13832706Y-12796960D02*
X13823182Y-12777912D01*
X13823182Y-12777912D02*
X13823182Y-12606484D01*
X14013658Y-12806484D02*
X14013658Y-12701722D01*
X14013658Y-12701722D02*
X14004134Y-12682674D01*
X14004134Y-12682674D02*
X13985087Y-12673150D01*
X13985087Y-12673150D02*
X13946992Y-12673150D01*
X13946992Y-12673150D02*
X13927944Y-12682674D01*
X14013658Y-12796960D02*
X13994611Y-12806484D01*
X13994611Y-12806484D02*
X13946992Y-12806484D01*
X13946992Y-12806484D02*
X13927944Y-12796960D01*
X13927944Y-12796960D02*
X13918420Y-12777912D01*
X13918420Y-12777912D02*
X13918420Y-12758865D01*
X13918420Y-12758865D02*
X13927944Y-12739817D01*
X13927944Y-12739817D02*
X13946992Y-12730293D01*
X13946992Y-12730293D02*
X13994611Y-12730293D01*
X13994611Y-12730293D02*
X14013658Y-12720769D01*
X14080325Y-12673150D02*
X14156515Y-12673150D01*
X14108896Y-12606484D02*
X14108896Y-12777912D01*
X14108896Y-12777912D02*
X14118420Y-12796960D01*
X14118420Y-12796960D02*
X14137468Y-12806484D01*
X14137468Y-12806484D02*
X14156515Y-12806484D01*
X14299373Y-12796960D02*
X14280325Y-12806484D01*
X14280325Y-12806484D02*
X14242230Y-12806484D01*
X14242230Y-12806484D02*
X14223182Y-12796960D01*
X14223182Y-12796960D02*
X14213658Y-12777912D01*
X14213658Y-12777912D02*
X14213658Y-12701722D01*
X14213658Y-12701722D02*
X14223182Y-12682674D01*
X14223182Y-12682674D02*
X14242230Y-12673150D01*
X14242230Y-12673150D02*
X14280325Y-12673150D01*
X14280325Y-12673150D02*
X14299373Y-12682674D01*
X14299373Y-12682674D02*
X14308896Y-12701722D01*
X14308896Y-12701722D02*
X14308896Y-12720769D01*
X14308896Y-12720769D02*
X14213658Y-12739817D01*
X14480325Y-12806484D02*
X14480325Y-12606484D01*
X14480325Y-12796960D02*
X14461277Y-12806484D01*
X14461277Y-12806484D02*
X14423182Y-12806484D01*
X14423182Y-12806484D02*
X14404134Y-12796960D01*
X14404134Y-12796960D02*
X14394611Y-12787436D01*
X14394611Y-12787436D02*
X14385087Y-12768388D01*
X14385087Y-12768388D02*
X14385087Y-12711246D01*
X14385087Y-12711246D02*
X14394611Y-12692198D01*
X14394611Y-12692198D02*
X14404134Y-12682674D01*
X14404134Y-12682674D02*
X14423182Y-12673150D01*
X14423182Y-12673150D02*
X14461277Y-12673150D01*
X14461277Y-12673150D02*
X14480325Y-12682674D01*
X14556515Y-12882674D02*
X14566039Y-12873150D01*
X14566039Y-12873150D02*
X14585087Y-12844579D01*
X14585087Y-12844579D02*
X14594611Y-12825531D01*
X14594611Y-12825531D02*
X14604134Y-12796960D01*
X14604134Y-12796960D02*
X14613658Y-12749341D01*
X14613658Y-12749341D02*
X14613658Y-12711246D01*
X14613658Y-12711246D02*
X14604134Y-12663627D01*
X14604134Y-12663627D02*
X14594611Y-12635055D01*
X14594611Y-12635055D02*
X14585087Y-12616008D01*
X14585087Y-12616008D02*
X14566039Y-12587436D01*
X14566039Y-12587436D02*
X14556515Y-12577912D01*
X7800500Y-12979000D02*
G75*
G02*
X7600500Y-12979000I-100000J0D01*
G01*
X7600500Y-12979000D02*
G75*
G02*
X7800500Y-12979000I100000J0D01*
G01*
X8042229Y-12870484D02*
X8166039Y-12870484D01*
X8166039Y-12870484D02*
X8099372Y-12946674D01*
X8099372Y-12946674D02*
X8127943Y-12946674D01*
X8127943Y-12946674D02*
X8146991Y-12956198D01*
X8146991Y-12956198D02*
X8156515Y-12965722D01*
X8156515Y-12965722D02*
X8166039Y-12984769D01*
X8166039Y-12984769D02*
X8166039Y-13032388D01*
X8166039Y-13032388D02*
X8156515Y-13051436D01*
X8156515Y-13051436D02*
X8146991Y-13060960D01*
X8146991Y-13060960D02*
X8127943Y-13070484D01*
X8127943Y-13070484D02*
X8070801Y-13070484D01*
X8070801Y-13070484D02*
X8051753Y-13060960D01*
X8051753Y-13060960D02*
X8042229Y-13051436D01*
X8251753Y-13051436D02*
X8261277Y-13060960D01*
X8261277Y-13060960D02*
X8251753Y-13070484D01*
X8251753Y-13070484D02*
X8242229Y-13060960D01*
X8242229Y-13060960D02*
X8251753Y-13051436D01*
X8251753Y-13051436D02*
X8251753Y-13070484D01*
X8337467Y-12889531D02*
X8346991Y-12880008D01*
X8346991Y-12880008D02*
X8366039Y-12870484D01*
X8366039Y-12870484D02*
X8413658Y-12870484D01*
X8413658Y-12870484D02*
X8432705Y-12880008D01*
X8432705Y-12880008D02*
X8442229Y-12889531D01*
X8442229Y-12889531D02*
X8451753Y-12908579D01*
X8451753Y-12908579D02*
X8451753Y-12927627D01*
X8451753Y-12927627D02*
X8442229Y-12956198D01*
X8442229Y-12956198D02*
X8327943Y-13070484D01*
X8327943Y-13070484D02*
X8451753Y-13070484D01*
X8575563Y-12870484D02*
X8594610Y-12870484D01*
X8594610Y-12870484D02*
X8613658Y-12880008D01*
X8613658Y-12880008D02*
X8623182Y-12889531D01*
X8623182Y-12889531D02*
X8632705Y-12908579D01*
X8632705Y-12908579D02*
X8642229Y-12946674D01*
X8642229Y-12946674D02*
X8642229Y-12994293D01*
X8642229Y-12994293D02*
X8632705Y-13032388D01*
X8632705Y-13032388D02*
X8623182Y-13051436D01*
X8623182Y-13051436D02*
X8613658Y-13060960D01*
X8613658Y-13060960D02*
X8594610Y-13070484D01*
X8594610Y-13070484D02*
X8575563Y-13070484D01*
X8575563Y-13070484D02*
X8556515Y-13060960D01*
X8556515Y-13060960D02*
X8546991Y-13051436D01*
X8546991Y-13051436D02*
X8537467Y-13032388D01*
X8537467Y-13032388D02*
X8527944Y-12994293D01*
X8527944Y-12994293D02*
X8527944Y-12946674D01*
X8527944Y-12946674D02*
X8537467Y-12908579D01*
X8537467Y-12908579D02*
X8546991Y-12889531D01*
X8546991Y-12889531D02*
X8556515Y-12880008D01*
X8556515Y-12880008D02*
X8575563Y-12870484D01*
X8766039Y-12870484D02*
X8785086Y-12870484D01*
X8785086Y-12870484D02*
X8804134Y-12880008D01*
X8804134Y-12880008D02*
X8813658Y-12889531D01*
X8813658Y-12889531D02*
X8823182Y-12908579D01*
X8823182Y-12908579D02*
X8832705Y-12946674D01*
X8832705Y-12946674D02*
X8832705Y-12994293D01*
X8832705Y-12994293D02*
X8823182Y-13032388D01*
X8823182Y-13032388D02*
X8813658Y-13051436D01*
X8813658Y-13051436D02*
X8804134Y-13060960D01*
X8804134Y-13060960D02*
X8785086Y-13070484D01*
X8785086Y-13070484D02*
X8766039Y-13070484D01*
X8766039Y-13070484D02*
X8746991Y-13060960D01*
X8746991Y-13060960D02*
X8737467Y-13051436D01*
X8737467Y-13051436D02*
X8727944Y-13032388D01*
X8727944Y-13032388D02*
X8718420Y-12994293D01*
X8718420Y-12994293D02*
X8718420Y-12946674D01*
X8718420Y-12946674D02*
X8727944Y-12908579D01*
X8727944Y-12908579D02*
X8737467Y-12889531D01*
X8737467Y-12889531D02*
X8746991Y-12880008D01*
X8746991Y-12880008D02*
X8766039Y-12870484D01*
X8918420Y-13070484D02*
X8918420Y-12937150D01*
X8918420Y-12956198D02*
X8927944Y-12946674D01*
X8927944Y-12946674D02*
X8946991Y-12937150D01*
X8946991Y-12937150D02*
X8975563Y-12937150D01*
X8975563Y-12937150D02*
X8994610Y-12946674D01*
X8994610Y-12946674D02*
X9004134Y-12965722D01*
X9004134Y-12965722D02*
X9004134Y-13070484D01*
X9004134Y-12965722D02*
X9013658Y-12946674D01*
X9013658Y-12946674D02*
X9032705Y-12937150D01*
X9032705Y-12937150D02*
X9061277Y-12937150D01*
X9061277Y-12937150D02*
X9080325Y-12946674D01*
X9080325Y-12946674D02*
X9089848Y-12965722D01*
X9089848Y-12965722D02*
X9089848Y-13070484D01*
X9185086Y-13070484D02*
X9185086Y-12937150D01*
X9185086Y-12956198D02*
X9194610Y-12946674D01*
X9194610Y-12946674D02*
X9213658Y-12937150D01*
X9213658Y-12937150D02*
X9242229Y-12937150D01*
X9242229Y-12937150D02*
X9261277Y-12946674D01*
X9261277Y-12946674D02*
X9270801Y-12965722D01*
X9270801Y-12965722D02*
X9270801Y-13070484D01*
X9270801Y-12965722D02*
X9280325Y-12946674D01*
X9280325Y-12946674D02*
X9299372Y-12937150D01*
X9299372Y-12937150D02*
X9327944Y-12937150D01*
X9327944Y-12937150D02*
X9346991Y-12946674D01*
X9346991Y-12946674D02*
X9356515Y-12965722D01*
X9356515Y-12965722D02*
X9356515Y-13070484D01*
X9746991Y-12860960D02*
X9575563Y-13118103D01*
X10004134Y-12870484D02*
X10023182Y-12870484D01*
X10023182Y-12870484D02*
X10042229Y-12880008D01*
X10042229Y-12880008D02*
X10051753Y-12889531D01*
X10051753Y-12889531D02*
X10061277Y-12908579D01*
X10061277Y-12908579D02*
X10070801Y-12946674D01*
X10070801Y-12946674D02*
X10070801Y-12994293D01*
X10070801Y-12994293D02*
X10061277Y-13032388D01*
X10061277Y-13032388D02*
X10051753Y-13051436D01*
X10051753Y-13051436D02*
X10042229Y-13060960D01*
X10042229Y-13060960D02*
X10023182Y-13070484D01*
X10023182Y-13070484D02*
X10004134Y-13070484D01*
X10004134Y-13070484D02*
X9985087Y-13060960D01*
X9985087Y-13060960D02*
X9975563Y-13051436D01*
X9975563Y-13051436D02*
X9966039Y-13032388D01*
X9966039Y-13032388D02*
X9956515Y-12994293D01*
X9956515Y-12994293D02*
X9956515Y-12946674D01*
X9956515Y-12946674D02*
X9966039Y-12908579D01*
X9966039Y-12908579D02*
X9975563Y-12889531D01*
X9975563Y-12889531D02*
X9985087Y-12880008D01*
X9985087Y-12880008D02*
X10004134Y-12870484D01*
X10156515Y-13051436D02*
X10166039Y-13060960D01*
X10166039Y-13060960D02*
X10156515Y-13070484D01*
X10156515Y-13070484D02*
X10146991Y-13060960D01*
X10146991Y-13060960D02*
X10156515Y-13051436D01*
X10156515Y-13051436D02*
X10156515Y-13070484D01*
X10356515Y-13070484D02*
X10242229Y-13070484D01*
X10299372Y-13070484D02*
X10299372Y-12870484D01*
X10299372Y-12870484D02*
X10280325Y-12899055D01*
X10280325Y-12899055D02*
X10261277Y-12918103D01*
X10261277Y-12918103D02*
X10242229Y-12927627D01*
X10432706Y-12889531D02*
X10442229Y-12880008D01*
X10442229Y-12880008D02*
X10461277Y-12870484D01*
X10461277Y-12870484D02*
X10508896Y-12870484D01*
X10508896Y-12870484D02*
X10527944Y-12880008D01*
X10527944Y-12880008D02*
X10537468Y-12889531D01*
X10537468Y-12889531D02*
X10546991Y-12908579D01*
X10546991Y-12908579D02*
X10546991Y-12927627D01*
X10546991Y-12927627D02*
X10537468Y-12956198D01*
X10537468Y-12956198D02*
X10423182Y-13070484D01*
X10423182Y-13070484D02*
X10546991Y-13070484D01*
X10718420Y-12870484D02*
X10680325Y-12870484D01*
X10680325Y-12870484D02*
X10661277Y-12880008D01*
X10661277Y-12880008D02*
X10651753Y-12889531D01*
X10651753Y-12889531D02*
X10632706Y-12918103D01*
X10632706Y-12918103D02*
X10623182Y-12956198D01*
X10623182Y-12956198D02*
X10623182Y-13032388D01*
X10623182Y-13032388D02*
X10632706Y-13051436D01*
X10632706Y-13051436D02*
X10642229Y-13060960D01*
X10642229Y-13060960D02*
X10661277Y-13070484D01*
X10661277Y-13070484D02*
X10699372Y-13070484D01*
X10699372Y-13070484D02*
X10718420Y-13060960D01*
X10718420Y-13060960D02*
X10727944Y-13051436D01*
X10727944Y-13051436D02*
X10737468Y-13032388D01*
X10737468Y-13032388D02*
X10737468Y-12984769D01*
X10737468Y-12984769D02*
X10727944Y-12965722D01*
X10727944Y-12965722D02*
X10718420Y-12956198D01*
X10718420Y-12956198D02*
X10699372Y-12946674D01*
X10699372Y-12946674D02*
X10661277Y-12946674D01*
X10661277Y-12946674D02*
X10642229Y-12956198D01*
X10642229Y-12956198D02*
X10632706Y-12965722D01*
X10632706Y-12965722D02*
X10623182Y-12984769D01*
X10861277Y-12870484D02*
X10880325Y-12870484D01*
X10880325Y-12870484D02*
X10899372Y-12880008D01*
X10899372Y-12880008D02*
X10908896Y-12889531D01*
X10908896Y-12889531D02*
X10918420Y-12908579D01*
X10918420Y-12908579D02*
X10927944Y-12946674D01*
X10927944Y-12946674D02*
X10927944Y-12994293D01*
X10927944Y-12994293D02*
X10918420Y-13032388D01*
X10918420Y-13032388D02*
X10908896Y-13051436D01*
X10908896Y-13051436D02*
X10899372Y-13060960D01*
X10899372Y-13060960D02*
X10880325Y-13070484D01*
X10880325Y-13070484D02*
X10861277Y-13070484D01*
X10861277Y-13070484D02*
X10842229Y-13060960D01*
X10842229Y-13060960D02*
X10832706Y-13051436D01*
X10832706Y-13051436D02*
X10823182Y-13032388D01*
X10823182Y-13032388D02*
X10813658Y-12994293D01*
X10813658Y-12994293D02*
X10813658Y-12946674D01*
X10813658Y-12946674D02*
X10823182Y-12908579D01*
X10823182Y-12908579D02*
X10832706Y-12889531D01*
X10832706Y-12889531D02*
X10842229Y-12880008D01*
X10842229Y-12880008D02*
X10861277Y-12870484D01*
X11004134Y-12870484D02*
X11004134Y-12908579D01*
X11080325Y-12870484D02*
X11080325Y-12908579D01*
X11375563Y-13146674D02*
X11366039Y-13137150D01*
X11366039Y-13137150D02*
X11346991Y-13108579D01*
X11346991Y-13108579D02*
X11337468Y-13089531D01*
X11337468Y-13089531D02*
X11327944Y-13060960D01*
X11327944Y-13060960D02*
X11318420Y-13013341D01*
X11318420Y-13013341D02*
X11318420Y-12975246D01*
X11318420Y-12975246D02*
X11327944Y-12927627D01*
X11327944Y-12927627D02*
X11337468Y-12899055D01*
X11337468Y-12899055D02*
X11346991Y-12880008D01*
X11346991Y-12880008D02*
X11366039Y-12851436D01*
X11366039Y-12851436D02*
X11375563Y-12841912D01*
X11537468Y-12937150D02*
X11537468Y-13070484D01*
X11489848Y-12860960D02*
X11442229Y-13003817D01*
X11442229Y-13003817D02*
X11566039Y-13003817D01*
X11794610Y-13070484D02*
X11794610Y-12870484D01*
X11880325Y-13070484D02*
X11880325Y-12965722D01*
X11880325Y-12965722D02*
X11870801Y-12946674D01*
X11870801Y-12946674D02*
X11851753Y-12937150D01*
X11851753Y-12937150D02*
X11823182Y-12937150D01*
X11823182Y-12937150D02*
X11804134Y-12946674D01*
X11804134Y-12946674D02*
X11794610Y-12956198D01*
X12004134Y-13070484D02*
X11985087Y-13060960D01*
X11985087Y-13060960D02*
X11975563Y-13051436D01*
X11975563Y-13051436D02*
X11966039Y-13032388D01*
X11966039Y-13032388D02*
X11966039Y-12975246D01*
X11966039Y-12975246D02*
X11975563Y-12956198D01*
X11975563Y-12956198D02*
X11985087Y-12946674D01*
X11985087Y-12946674D02*
X12004134Y-12937150D01*
X12004134Y-12937150D02*
X12032706Y-12937150D01*
X12032706Y-12937150D02*
X12051753Y-12946674D01*
X12051753Y-12946674D02*
X12061277Y-12956198D01*
X12061277Y-12956198D02*
X12070801Y-12975246D01*
X12070801Y-12975246D02*
X12070801Y-13032388D01*
X12070801Y-13032388D02*
X12061277Y-13051436D01*
X12061277Y-13051436D02*
X12051753Y-13060960D01*
X12051753Y-13060960D02*
X12032706Y-13070484D01*
X12032706Y-13070484D02*
X12004134Y-13070484D01*
X12185087Y-13070484D02*
X12166039Y-13060960D01*
X12166039Y-13060960D02*
X12156515Y-13041912D01*
X12156515Y-13041912D02*
X12156515Y-12870484D01*
X12337468Y-13060960D02*
X12318420Y-13070484D01*
X12318420Y-13070484D02*
X12280325Y-13070484D01*
X12280325Y-13070484D02*
X12261277Y-13060960D01*
X12261277Y-13060960D02*
X12251753Y-13041912D01*
X12251753Y-13041912D02*
X12251753Y-12965722D01*
X12251753Y-12965722D02*
X12261277Y-12946674D01*
X12261277Y-12946674D02*
X12280325Y-12937150D01*
X12280325Y-12937150D02*
X12318420Y-12937150D01*
X12318420Y-12937150D02*
X12337468Y-12946674D01*
X12337468Y-12946674D02*
X12346991Y-12965722D01*
X12346991Y-12965722D02*
X12346991Y-12984769D01*
X12346991Y-12984769D02*
X12251753Y-13003817D01*
X12423182Y-13060960D02*
X12442230Y-13070484D01*
X12442230Y-13070484D02*
X12480325Y-13070484D01*
X12480325Y-13070484D02*
X12499372Y-13060960D01*
X12499372Y-13060960D02*
X12508896Y-13041912D01*
X12508896Y-13041912D02*
X12508896Y-13032388D01*
X12508896Y-13032388D02*
X12499372Y-13013341D01*
X12499372Y-13013341D02*
X12480325Y-13003817D01*
X12480325Y-13003817D02*
X12451753Y-13003817D01*
X12451753Y-13003817D02*
X12432706Y-12994293D01*
X12432706Y-12994293D02*
X12423182Y-12975246D01*
X12423182Y-12975246D02*
X12423182Y-12965722D01*
X12423182Y-12965722D02*
X12432706Y-12946674D01*
X12432706Y-12946674D02*
X12451753Y-12937150D01*
X12451753Y-12937150D02*
X12480325Y-12937150D01*
X12480325Y-12937150D02*
X12499372Y-12946674D01*
X12575563Y-13146674D02*
X12585087Y-13137150D01*
X12585087Y-13137150D02*
X12604134Y-13108579D01*
X12604134Y-13108579D02*
X12613658Y-13089531D01*
X12613658Y-13089531D02*
X12623182Y-13060960D01*
X12623182Y-13060960D02*
X12632706Y-13013341D01*
X12632706Y-13013341D02*
X12632706Y-12975246D01*
X12632706Y-12975246D02*
X12623182Y-12927627D01*
X12623182Y-12927627D02*
X12613658Y-12899055D01*
X12613658Y-12899055D02*
X12604134Y-12880008D01*
X12604134Y-12880008D02*
X12585087Y-12851436D01*
X12585087Y-12851436D02*
X12575563Y-12841912D01*
X12937468Y-13146674D02*
X12927944Y-13137150D01*
X12927944Y-13137150D02*
X12908896Y-13108579D01*
X12908896Y-13108579D02*
X12899372Y-13089531D01*
X12899372Y-13089531D02*
X12889849Y-13060960D01*
X12889849Y-13060960D02*
X12880325Y-13013341D01*
X12880325Y-13013341D02*
X12880325Y-12975246D01*
X12880325Y-12975246D02*
X12889849Y-12927627D01*
X12889849Y-12927627D02*
X12899372Y-12899055D01*
X12899372Y-12899055D02*
X12908896Y-12880008D01*
X12908896Y-12880008D02*
X12927944Y-12851436D01*
X12927944Y-12851436D02*
X12937468Y-12841912D01*
X13013658Y-12937150D02*
X13013658Y-13070484D01*
X13013658Y-12956198D02*
X13023182Y-12946674D01*
X13023182Y-12946674D02*
X13042230Y-12937150D01*
X13042230Y-12937150D02*
X13070801Y-12937150D01*
X13070801Y-12937150D02*
X13089849Y-12946674D01*
X13089849Y-12946674D02*
X13099372Y-12965722D01*
X13099372Y-12965722D02*
X13099372Y-13070484D01*
X13223182Y-13070484D02*
X13204134Y-13060960D01*
X13204134Y-13060960D02*
X13194611Y-13051436D01*
X13194611Y-13051436D02*
X13185087Y-13032388D01*
X13185087Y-13032388D02*
X13185087Y-12975246D01*
X13185087Y-12975246D02*
X13194611Y-12956198D01*
X13194611Y-12956198D02*
X13204134Y-12946674D01*
X13204134Y-12946674D02*
X13223182Y-12937150D01*
X13223182Y-12937150D02*
X13251753Y-12937150D01*
X13251753Y-12937150D02*
X13270801Y-12946674D01*
X13270801Y-12946674D02*
X13280325Y-12956198D01*
X13280325Y-12956198D02*
X13289849Y-12975246D01*
X13289849Y-12975246D02*
X13289849Y-13032388D01*
X13289849Y-13032388D02*
X13280325Y-13051436D01*
X13280325Y-13051436D02*
X13270801Y-13060960D01*
X13270801Y-13060960D02*
X13251753Y-13070484D01*
X13251753Y-13070484D02*
X13223182Y-13070484D01*
X13346992Y-12937150D02*
X13423182Y-12937150D01*
X13375563Y-12870484D02*
X13375563Y-13041912D01*
X13375563Y-13041912D02*
X13385087Y-13060960D01*
X13385087Y-13060960D02*
X13404134Y-13070484D01*
X13404134Y-13070484D02*
X13423182Y-13070484D01*
X13642230Y-12937150D02*
X13642230Y-13137150D01*
X13642230Y-12946674D02*
X13661277Y-12937150D01*
X13661277Y-12937150D02*
X13699373Y-12937150D01*
X13699373Y-12937150D02*
X13718420Y-12946674D01*
X13718420Y-12946674D02*
X13727944Y-12956198D01*
X13727944Y-12956198D02*
X13737468Y-12975246D01*
X13737468Y-12975246D02*
X13737468Y-13032388D01*
X13737468Y-13032388D02*
X13727944Y-13051436D01*
X13727944Y-13051436D02*
X13718420Y-13060960D01*
X13718420Y-13060960D02*
X13699373Y-13070484D01*
X13699373Y-13070484D02*
X13661277Y-13070484D01*
X13661277Y-13070484D02*
X13642230Y-13060960D01*
X13851753Y-13070484D02*
X13832706Y-13060960D01*
X13832706Y-13060960D02*
X13823182Y-13041912D01*
X13823182Y-13041912D02*
X13823182Y-12870484D01*
X14013658Y-13070484D02*
X14013658Y-12965722D01*
X14013658Y-12965722D02*
X14004134Y-12946674D01*
X14004134Y-12946674D02*
X13985087Y-12937150D01*
X13985087Y-12937150D02*
X13946992Y-12937150D01*
X13946992Y-12937150D02*
X13927944Y-12946674D01*
X14013658Y-13060960D02*
X13994611Y-13070484D01*
X13994611Y-13070484D02*
X13946992Y-13070484D01*
X13946992Y-13070484D02*
X13927944Y-13060960D01*
X13927944Y-13060960D02*
X13918420Y-13041912D01*
X13918420Y-13041912D02*
X13918420Y-13022865D01*
X13918420Y-13022865D02*
X13927944Y-13003817D01*
X13927944Y-13003817D02*
X13946992Y-12994293D01*
X13946992Y-12994293D02*
X13994611Y-12994293D01*
X13994611Y-12994293D02*
X14013658Y-12984769D01*
X14080325Y-12937150D02*
X14156515Y-12937150D01*
X14108896Y-12870484D02*
X14108896Y-13041912D01*
X14108896Y-13041912D02*
X14118420Y-13060960D01*
X14118420Y-13060960D02*
X14137468Y-13070484D01*
X14137468Y-13070484D02*
X14156515Y-13070484D01*
X14299373Y-13060960D02*
X14280325Y-13070484D01*
X14280325Y-13070484D02*
X14242230Y-13070484D01*
X14242230Y-13070484D02*
X14223182Y-13060960D01*
X14223182Y-13060960D02*
X14213658Y-13041912D01*
X14213658Y-13041912D02*
X14213658Y-12965722D01*
X14213658Y-12965722D02*
X14223182Y-12946674D01*
X14223182Y-12946674D02*
X14242230Y-12937150D01*
X14242230Y-12937150D02*
X14280325Y-12937150D01*
X14280325Y-12937150D02*
X14299373Y-12946674D01*
X14299373Y-12946674D02*
X14308896Y-12965722D01*
X14308896Y-12965722D02*
X14308896Y-12984769D01*
X14308896Y-12984769D02*
X14213658Y-13003817D01*
X14480325Y-13070484D02*
X14480325Y-12870484D01*
X14480325Y-13060960D02*
X14461277Y-13070484D01*
X14461277Y-13070484D02*
X14423182Y-13070484D01*
X14423182Y-13070484D02*
X14404134Y-13060960D01*
X14404134Y-13060960D02*
X14394611Y-13051436D01*
X14394611Y-13051436D02*
X14385087Y-13032388D01*
X14385087Y-13032388D02*
X14385087Y-12975246D01*
X14385087Y-12975246D02*
X14394611Y-12956198D01*
X14394611Y-12956198D02*
X14404134Y-12946674D01*
X14404134Y-12946674D02*
X14423182Y-12937150D01*
X14423182Y-12937150D02*
X14461277Y-12937150D01*
X14461277Y-12937150D02*
X14480325Y-12946674D01*
X14556515Y-13146674D02*
X14566039Y-13137150D01*
X14566039Y-13137150D02*
X14585087Y-13108579D01*
X14585087Y-13108579D02*
X14594611Y-13089531D01*
X14594611Y-13089531D02*
X14604134Y-13060960D01*
X14604134Y-13060960D02*
X14613658Y-13013341D01*
X14613658Y-13013341D02*
X14613658Y-12975246D01*
X14613658Y-12975246D02*
X14604134Y-12927627D01*
X14604134Y-12927627D02*
X14594611Y-12899055D01*
X14594611Y-12899055D02*
X14585087Y-12880008D01*
X14585087Y-12880008D02*
X14566039Y-12851436D01*
X14566039Y-12851436D02*
X14556515Y-12841912D01*
M02*
