M48
; DRILL file KiCad 10.0.5 date 2026-08-07T17:16:46
; FORMAT={-:-/ absolute / metric / decimal}
; #@! TF.CreationDate,2026-08-07T17:16:46+02:00
; #@! TF.GenerationSoftware,Kicad,Pcbnew,10.0.5
; #@! TF.FileFunction,Plated,1,2,PTH
FMAT,2
METRIC
; #@! TA.AperFunction,Plated,PTH,ComponentDrill
T1C0.600
; #@! TA.AperFunction,Plated,PTH,ComponentDrill
T2C0.700
; #@! TA.AperFunction,Plated,PTH,ViaDrill
T3C0.800
; #@! TA.AperFunction,Plated,PTH,ComponentDrill
T4C0.800
; #@! TA.AperFunction,Plated,PTH,ViaDrill
T5C1.000
; #@! TA.AperFunction,Plated,PTH,ComponentDrill
T6C1.000
; #@! TA.AperFunction,Plated,PTH,ComponentDrill
T7C1.100
%
G90
G05
T2
X86.657Y-105.37
X86.657Y-107.91
X91.737Y-105.37
X91.737Y-107.91
X110.49Y-75.819
X115.57Y-75.819
X120.904Y-85.725
X121.285Y-48.26
X121.285Y-53.34
X124.435Y-48.26
X124.435Y-53.34
X125.984Y-85.725
X127.585Y-48.26
X127.585Y-53.34
X127.635Y-75.898
X132.715Y-75.898
X171.498Y-30.494
X176.578Y-30.494
T3
X93.853Y-84.582
X96.901Y-83.439
X102.335Y-47.725
X104.394Y-71.374
X108.966Y-68.663
X109.728Y-60.885
X110.49Y-55.88
X111.506Y-105.156
X111.76Y-68.326
X113.03Y-69.85
X114.3Y-102.87
X114.808Y-57.404
X116.205Y-100.965
X116.84Y-57.15
X116.84Y-113.03
X117.983Y-108.712
X118.745Y-74.295
X119.38Y-54.61
X119.454Y-50.091
X120.015Y-110.49
X120.269Y-71.247
X121.285Y-113.983
X127.635Y-87.63
X127.909Y-109.882
X128.27Y-112.858
X129.536Y-108.782
X130.766Y-89.787
X131.126Y-98.218
X131.127Y-86.677
X132.666Y-102.079
X132.726Y-104.453
X132.969Y-110.49
X133.026Y-100.076
X134.865Y-86.856
X136.525Y-83.468
X136.652Y-93.345
X136.942Y-86.142
X139.038Y-71.157
X139.776Y-84.134
X148.59Y-54.61
X153.67Y-50.8
X157.552Y-93.185
X165.0Y-91.0
X166.37Y-79.375
X170.18Y-116.205
X170.457Y-72.904
X171.163Y-43.717
X171.45Y-41.91
X176.276Y-71.882
X176.466Y-103.314
X176.53Y-65.405
X177.673Y-87.503
X177.8Y-102.235
X179.705Y-88.265
X179.832Y-91.821
X180.34Y-54.61
X181.61Y-67.31
X182.118Y-108.966
X183.515Y-88.646
X186.944Y-111.379
X188.214Y-50.546
X190.5Y-72.39
X191.643Y-54.737
X191.77Y-67.31
T4
X86.697Y-111.085
X86.709Y-114.25
X86.737Y-100.29
X91.697Y-111.085
X91.709Y-114.25
X91.737Y-100.29
X96.817Y-104.1
X96.817Y-111.72
X99.358Y-104.1
X99.358Y-111.72
X101.897Y-111.72
X101.897Y-104.1
X104.438Y-104.1
X104.438Y-111.72
X119.38Y-57.15
X119.38Y-64.77
X120.095Y-76.2
X121.92Y-57.15
X121.92Y-64.77
X124.46Y-57.15
X124.46Y-64.77
X125.095Y-76.2
X127.0Y-57.15
X127.0Y-64.77
X129.54Y-57.15
X129.54Y-64.77
X132.08Y-57.15
X132.08Y-64.77
X134.62Y-57.15
X134.62Y-64.77
X135.89Y-31.0
X135.89Y-46.24
X135.89Y-95.25
X135.89Y-110.49
X137.16Y-57.15
X137.16Y-64.77
X138.43Y-31.0
X138.43Y-46.24
X138.43Y-95.25
X138.43Y-110.49
X139.7Y-57.15
X139.7Y-64.77
X140.97Y-31.0
X140.97Y-46.24
X140.97Y-95.25
X140.97Y-110.49
X140.975Y-71.12
X140.975Y-78.74
X142.24Y-57.15
X142.24Y-64.77
X143.51Y-31.0
X143.51Y-46.24
X143.51Y-95.25
X143.51Y-110.49
X143.515Y-71.12
X143.515Y-78.74
X145.923Y-52.578
X146.05Y-31.0
X146.05Y-46.24
X146.05Y-95.25
X146.05Y-110.49
X146.055Y-71.12
X146.055Y-78.74
X147.32Y-57.15
X147.32Y-64.77
X148.59Y-31.0
X148.59Y-46.24
X148.59Y-95.25
X148.59Y-110.49
X148.595Y-71.12
X148.595Y-78.74
X149.86Y-57.15
X149.86Y-64.77
X150.923Y-52.578
X151.13Y-31.0
X151.13Y-46.24
X151.13Y-95.25
X151.13Y-110.49
X151.135Y-71.12
X151.135Y-78.74
X152.4Y-57.15
X152.4Y-64.77
X153.67Y-31.0
X153.67Y-46.24
X153.67Y-95.25
X153.67Y-110.49
X153.675Y-71.12
X153.675Y-78.74
X154.94Y-57.15
X154.94Y-64.77
X156.21Y-31.0
X156.21Y-46.24
X156.21Y-95.25
X156.21Y-110.49
X156.215Y-71.12
X156.215Y-78.74
X157.48Y-57.15
X157.48Y-64.77
X158.75Y-31.0
X158.75Y-46.24
X158.75Y-95.25
X158.75Y-110.49
X158.755Y-71.12
X158.755Y-78.74
X160.02Y-57.15
X160.02Y-64.77
X161.29Y-31.0
X161.29Y-46.24
X161.29Y-95.25
X161.29Y-110.49
X161.295Y-71.12
X161.295Y-78.74
X162.56Y-57.15
X162.56Y-64.77
X163.83Y-31.0
X163.83Y-46.24
X163.83Y-95.25
X163.83Y-110.49
X163.835Y-71.12
X163.835Y-78.74
X165.1Y-57.15
X165.1Y-64.77
X166.37Y-31.0
X166.37Y-46.24
X166.37Y-95.25
X166.37Y-110.49
X167.64Y-57.15
X167.64Y-64.77
X168.91Y-31.0
X168.91Y-46.24
X168.91Y-95.25
X168.91Y-110.49
X170.18Y-57.15
X170.18Y-64.77
X175.26Y-111.125
X179.07Y-69.85
X179.07Y-77.47
X179.11Y-57.15
X179.11Y-64.77
X179.785Y-33.655
X179.788Y-30.494
X180.26Y-111.125
X181.61Y-69.85
X181.61Y-77.47
X181.65Y-57.15
X181.65Y-64.77
X184.15Y-77.47
X184.15Y-69.85
X184.19Y-57.15
X184.19Y-64.77
X184.785Y-33.655
X184.788Y-30.494
X186.69Y-69.85
X186.69Y-77.47
X186.73Y-57.15
X186.73Y-64.77
X189.23Y-69.85
X189.23Y-77.47
X189.27Y-57.15
X189.27Y-64.77
X191.77Y-69.85
X191.77Y-77.47
X191.81Y-57.15
X191.81Y-64.77
X194.31Y-69.85
X194.31Y-77.47
X194.35Y-57.15
X194.35Y-64.77
X198.247Y-65.151
X200.66Y-58.645
X200.66Y-60.645
X203.247Y-65.151
T5
X89.814Y-47.244
X90.907Y-55.855
X126.413Y-94.279
X127.889Y-92.202
X133.115Y-96.733
X148.102Y-84.963
X152.185Y-83.973
X163.957Y-84.455
X169.186Y-92.917
X172.72Y-74.803
T6
X83.242Y-102.87
X83.242Y-105.37
X83.242Y-107.87
X115.57Y-68.58
X115.575Y-81.28
X118.11Y-68.58
X118.115Y-81.28
X120.65Y-68.58
X120.655Y-81.28
X123.19Y-68.58
X123.195Y-81.28
X125.73Y-68.58
X125.735Y-81.28
X128.27Y-68.58
X128.275Y-81.28
X130.81Y-68.58
X130.815Y-81.28
X133.35Y-68.58
X133.355Y-81.28
X135.89Y-68.58
X135.895Y-81.28
X138.43Y-68.58
X138.435Y-81.28
X140.97Y-68.58
X140.975Y-81.28
X143.51Y-68.58
X143.515Y-81.28
X146.05Y-68.58
X146.055Y-81.28
X148.59Y-68.58
X148.595Y-81.28
X151.13Y-68.58
X151.135Y-81.28
X153.67Y-68.58
X153.675Y-81.28
X156.21Y-68.58
X156.215Y-81.28
X158.75Y-68.58
X158.755Y-81.28
X161.29Y-68.58
X161.295Y-81.28
X163.83Y-68.58
X163.835Y-81.28
T7
X82.5Y-63.5
X82.5Y-67.0
X82.5Y-77.16
X92.66Y-63.5
T1
G00X79.27Y-47.359
M15
G01X79.87Y-47.359
M16
G05
G00X79.27Y-55.999
M15
G01X79.87Y-55.999
M16
G05
G00X83.2Y-47.359
M15
G01X84.3Y-47.359
M16
G05
G00X83.2Y-55.999
M15
G01X84.3Y-55.999
M16
G05
M30
